<svg width="64" height="65" viewBox="0 0 64 65" fill="none" xmlns="http://www.w3.org/2000/svg">
<g clip-path="url(#clip0_339_8221)">
<circle opacity="0.2" cx="57" cy="7.79565" r="7" fill="url(#paint0_linear_339_8221)"/>
<circle opacity="0.2" cx="10" cy="34.7957" r="10" fill="url(#paint1_linear_339_8221)"/>
<circle opacity="0.1" cx="52" cy="51.7957" r="5" fill="url(#paint2_linear_339_8221)"/>
<path d="M37.3238 57.4881C37.323 57.4556 37.3221 57.4223 37.3213 57.389V57.3882C37.3213 57.3873 37.3213 57.3865 37.3213 57.3865C37.3197 57.354 37.3188 57.3215 37.3163 57.2899C37.3147 57.2624 37.313 57.2341 37.3105 57.2066C37.3105 57.2016 37.3097 57.1966 37.3097 57.1916C37.3097 57.1883 37.3097 57.1858 37.3088 57.1833C37.3055 57.1466 37.3022 57.1108 37.2988 57.0741C37.2972 57.0558 37.2947 57.0375 37.293 57.02C37.2922 57.01 37.2905 57.0008 37.2897 56.9908C37.2888 56.9825 37.288 56.9734 37.2863 56.965C37.2813 56.9234 37.2755 56.8826 37.2697 56.8409C37.2688 56.8334 37.2672 56.8268 37.2663 56.8193C37.2647 56.8084 37.263 56.7968 37.2613 56.7859C37.258 56.7626 37.2547 56.7393 37.2505 56.7168C37.2464 56.6902 37.2414 56.6643 37.2364 56.6377C37.2339 56.6252 37.2322 56.6127 37.2297 56.6002C37.2289 56.5944 37.2272 56.5877 37.2264 56.5819C37.2172 56.5327 37.2064 56.4836 37.1955 56.4344C37.1947 56.4311 37.1939 56.4269 37.193 56.4236C37.1897 56.4086 37.1864 56.3936 37.183 56.3795C37.1747 56.3445 37.1672 56.3095 37.1581 56.2745C37.1556 56.2645 37.1522 56.2545 37.1497 56.2445C37.1422 56.2162 37.1347 56.1879 37.1272 56.1596C37.1206 56.1363 37.1156 56.1129 37.1089 56.0896C37.1056 56.0788 37.1023 56.0688 37.0998 56.058C37.0864 56.0113 37.0723 55.9647 37.0573 55.9172C37.0514 55.898 37.0464 55.8797 37.0398 55.8605C37.0381 55.8555 37.0365 55.8514 37.0348 55.8464C37.0048 55.7531 36.9723 55.6606 36.9382 55.5674C36.9348 55.5582 36.9323 55.549 36.929 55.5399C36.9232 55.5232 36.9157 55.5074 36.9098 55.4907C36.894 55.4491 36.8774 55.4083 36.8607 55.3666C36.849 55.3375 36.8374 55.3091 36.8249 55.28C36.8074 55.2383 36.7891 55.1967 36.7707 55.1559C36.7583 55.1284 36.7466 55.1001 36.7333 55.0726C36.7133 55.0293 36.6933 54.986 36.6725 54.9435C36.66 54.9177 36.6483 54.8927 36.6358 54.8668C36.6108 54.8169 36.5858 54.7677 36.56 54.7186C36.5517 54.7028 36.5442 54.6861 36.5359 54.6703C36.535 54.6686 36.5342 54.6669 36.5334 54.6653C36.4859 54.5762 36.4359 54.4887 36.3851 54.4012C36.3793 54.3912 36.3743 54.3812 36.3684 54.3712C36.3609 54.3588 36.3534 54.3471 36.3459 54.3346C36.321 54.293 36.2951 54.2513 36.2693 54.2097C36.2593 54.193 36.2493 54.1763 36.2385 54.1597C36.2318 54.1497 36.2252 54.1397 36.2185 54.1297C36.2043 54.1072 36.1894 54.0847 36.1744 54.0622C36.161 54.0422 36.1485 54.0222 36.1352 54.0023C36.1252 53.9873 36.1144 53.9731 36.1044 53.9581C36.0902 53.9381 36.0769 53.9173 36.0627 53.8973C36.0536 53.884 36.0436 53.8698 36.0344 53.8557C36.0153 53.8282 35.9953 53.8007 35.9753 53.774C35.9686 53.764 35.9611 53.7549 35.9545 53.7449C35.952 53.7415 35.9495 53.7374 35.947 53.7341C35.917 53.6941 35.887 53.6541 35.8562 53.6141C35.8503 53.6074 35.8453 53.5999 35.8395 53.5933C35.832 53.5841 35.8254 53.575 35.8179 53.5658C35.8045 53.5483 35.7912 53.5308 35.777 53.5142C35.7521 53.4825 35.7262 53.4517 35.7004 53.42C35.6996 53.4184 35.6979 53.4175 35.6971 53.4159L35.6963 53.415C35.6704 53.3834 35.6438 53.3526 35.6171 53.3217C35.6013 53.3034 35.5855 53.2859 35.5696 53.2676C35.5646 53.2618 35.5596 53.2559 35.5538 53.2501C35.5497 53.2459 35.5463 53.2409 35.5422 53.2368C35.5172 53.2085 35.4922 53.181 35.4664 53.1535C35.4539 53.1393 35.4405 53.126 35.428 53.1127C35.4222 53.106 35.4164 53.0993 35.4097 53.0935C35.4039 53.0869 35.3981 53.0802 35.3914 53.0744C35.3672 53.0494 35.3439 53.0244 35.3198 53.0002C35.3073 52.9869 35.2939 52.9744 35.2806 52.9611C35.2748 52.9552 35.2698 52.9502 35.264 52.9444C35.2581 52.9386 35.2523 52.9328 35.2465 52.9269C35.2223 52.9028 35.1973 52.8794 35.1732 52.8561C35.159 52.842 35.144 52.8286 35.1299 52.8153C35.1249 52.8111 35.1207 52.8062 35.1157 52.802C35.1115 52.7978 35.1065 52.7937 35.1024 52.7895C35.0782 52.767 35.0541 52.7453 35.0307 52.7237C35.0124 52.707 34.9932 52.6904 34.9741 52.6737C34.9708 52.6712 34.9674 52.6679 34.9649 52.6654C34.9624 52.6637 34.9599 52.6612 34.9583 52.6596C34.9341 52.6387 34.91 52.6179 34.8858 52.5979C34.8616 52.5779 34.8375 52.5579 34.8125 52.5379L34.8117 52.5371C34.8108 52.5363 34.81 52.5363 34.81 52.5354C34.7867 52.5163 34.7634 52.498 34.7392 52.4796C34.7142 52.4605 34.6892 52.4413 34.6642 52.4222C34.6609 52.4197 34.6576 52.4172 34.6542 52.4147C34.6501 52.4122 34.6467 52.4088 34.6426 52.4063C34.6251 52.393 34.6068 52.3797 34.5884 52.3664C34.5626 52.348 34.5376 52.3297 34.5118 52.3114C34.5051 52.3072 34.4993 52.3022 34.4927 52.2981C34.4868 52.2939 34.4818 52.2906 34.476 52.2864C34.4618 52.2772 34.4485 52.2672 34.4343 52.2581C34.4077 52.2398 34.381 52.2223 34.3536 52.2048C34.3444 52.1989 34.3361 52.1931 34.3269 52.1881C34.3202 52.1839 34.3136 52.1798 34.3069 52.1756C34.2952 52.1681 34.2836 52.1606 34.2719 52.1531C34.2444 52.1365 34.2169 52.1198 34.1895 52.1032C34.1753 52.0948 34.1611 52.0865 34.147 52.0782C34.1362 52.0715 34.1245 52.0657 34.1137 52.059C34.0912 52.0465 34.0679 52.034 34.0454 52.0215C34.0304 52.0132 34.0154 52.0057 34.0004 51.9982C33.9962 51.9965 33.9929 51.994 33.9887 51.9924C33.9846 51.9907 33.9804 51.9882 33.9771 51.9865C33.9546 51.9749 33.9313 51.9641 33.9088 51.9532C33.8879 51.9432 33.8671 51.9341 33.8471 51.9249C33.8438 51.9232 33.8405 51.9216 33.8371 51.9199C33.8346 51.9191 33.833 51.9182 33.8305 51.9166C33.8046 51.9049 33.778 51.8941 33.7522 51.8833C33.733 51.8758 33.7147 51.8683 33.6955 51.8608C33.6914 51.8591 33.6872 51.8574 33.683 51.8558C33.6805 51.8549 33.6772 51.8533 33.6747 51.8524C33.6439 51.8408 33.6131 51.8299 33.5822 51.8191C33.5714 51.8158 33.5606 51.8125 33.5498 51.8083C33.5406 51.805 33.5306 51.8025 33.5214 51.7991C33.5114 51.7958 33.5006 51.7925 33.4898 51.7891C33.4556 51.7791 33.4223 51.7691 33.389 51.7608C33.3882 51.7608 33.3873 51.76 33.3865 51.76C33.3823 51.7591 33.3782 51.7583 33.3732 51.7566C33.3407 51.7483 33.3074 51.7408 33.2749 51.7333C33.2674 51.7317 33.2599 51.7308 33.2524 51.7292C33.2349 51.7258 33.2183 51.7225 33.2016 51.72C33.1841 51.7167 33.1666 51.7133 33.15 51.7108C33.1391 51.7092 33.1291 51.7083 33.1191 51.7067C33.095 51.7033 33.07 51.7 33.0458 51.6975C33.0317 51.6958 33.0175 51.6933 33.0034 51.6925C32.9959 51.6917 32.9884 51.6917 32.9809 51.6917C32.9267 51.6875 32.8734 51.685 32.8201 51.6842C32.8159 51.6842 32.8109 51.6833 32.8068 51.6833C32.8059 51.6833 32.8043 51.6833 32.8035 51.6833C32.7935 51.6833 32.7843 51.6842 32.7743 51.6842C32.7393 51.685 32.7052 51.6858 32.671 51.6883C32.6552 51.6892 32.6402 51.6908 32.6244 51.6925C32.5969 51.695 32.5686 51.6975 32.5411 51.7017C32.5244 51.7042 32.5069 51.7067 32.4903 51.71C32.4644 51.7142 32.4395 51.7183 32.4145 51.7242C32.397 51.7275 32.3803 51.7317 32.3637 51.7358C32.3387 51.7417 32.3145 51.7483 32.2904 51.755C32.2737 51.76 32.257 51.7641 32.2412 51.7691C32.2171 51.7766 32.1921 51.785 32.1687 51.7941C32.1538 51.8 32.1388 51.805 32.1238 51.8108C32.0979 51.8208 32.0721 51.8324 32.0471 51.8441C32.0346 51.8499 32.0222 51.8549 32.0105 51.8608C31.973 51.8791 31.9364 51.8982 31.9005 51.9191L23.3438 56.8917C23.3796 56.8709 23.4162 56.8517 23.4537 56.8334C23.4662 56.8276 23.4787 56.8226 23.4903 56.8168C23.5162 56.8051 23.5412 56.7934 23.567 56.7834C23.582 56.7776 23.597 56.7726 23.612 56.7668C23.6361 56.7585 23.6603 56.7493 23.6844 56.7418C23.7011 56.7368 23.7169 56.7318 23.7336 56.7276C23.7577 56.721 23.7819 56.7143 23.8069 56.7085C23.8235 56.7043 23.841 56.701 23.8577 56.6968C23.8827 56.6918 23.9085 56.6868 23.9343 56.6827C23.951 56.6802 23.9676 56.6768 23.9851 56.6752C24.0126 56.671 24.0401 56.6685 24.0684 56.666C24.0842 56.6643 24.0992 56.6627 24.1151 56.6618C24.1492 56.6593 24.1842 56.6585 24.2183 56.6577C24.2283 56.6577 24.2375 56.6568 24.2467 56.6568C24.2525 56.6568 24.2583 56.6577 24.2633 56.6577C24.3166 56.6577 24.3699 56.661 24.4241 56.6652C24.4457 56.6668 24.4674 56.6693 24.489 56.6718C24.5132 56.6743 24.5382 56.6777 24.5623 56.681C24.5898 56.6852 24.6173 56.6893 24.6456 56.6943C24.6623 56.6977 24.6798 56.7002 24.6964 56.7035C24.7364 56.7118 24.7764 56.7201 24.8172 56.731C24.8214 56.7318 24.8256 56.7326 24.8305 56.7343C24.8755 56.746 24.9205 56.7593 24.9655 56.7735C24.9746 56.776 24.9846 56.7793 24.9938 56.7826C25.0379 56.7968 25.0829 56.8126 25.1279 56.8293C25.1321 56.8309 25.1362 56.8326 25.1404 56.8343C25.187 56.8526 25.2345 56.8717 25.282 56.8926C25.2853 56.8942 25.2887 56.8959 25.292 56.8976C25.3395 56.9192 25.387 56.9417 25.4344 56.9659C25.4386 56.9675 25.4419 56.97 25.4461 56.9717C25.4952 56.9967 25.5435 57.0233 25.5927 57.0517C25.6468 57.0825 25.7001 57.115 25.7526 57.1483C25.7593 57.1524 25.7659 57.1566 25.7726 57.1608C25.8226 57.1924 25.8717 57.2257 25.9209 57.2591C25.9267 57.2632 25.9317 57.2666 25.9375 57.2707C25.9875 57.3057 26.0375 57.3415 26.0875 57.3782C26.0916 57.3815 26.095 57.384 26.0991 57.3873C26.1516 57.4265 26.2032 57.4665 26.254 57.5081C26.2549 57.5089 26.2557 57.5089 26.2557 57.5098C26.3074 57.5514 26.359 57.5947 26.4098 57.6389C26.4131 57.6414 26.4156 57.6439 26.419 57.6472C26.4673 57.6889 26.5148 57.7313 26.5614 57.7755C26.5664 57.7796 26.5706 57.7838 26.5756 57.7888C26.6214 57.8313 26.6663 57.8746 26.7105 57.9187C26.7163 57.9246 26.7213 57.9296 26.7272 57.9354C26.7705 57.9787 26.8138 58.0229 26.8563 58.0678C26.8621 58.0745 26.8688 58.0812 26.8746 58.087C26.9171 58.132 26.9587 58.1786 27.0004 58.2253C27.0054 58.2311 27.0104 58.2369 27.0153 58.2428C27.0587 58.2919 27.1011 58.341 27.1428 58.391C27.1436 58.3919 27.1445 58.3935 27.1461 58.3944C27.1861 58.4427 27.2253 58.491 27.2636 58.5401C27.2711 58.5493 27.2777 58.5584 27.2852 58.5676C27.3244 58.6176 27.3627 58.6684 27.4002 58.7192C27.4077 58.7292 27.4143 58.7384 27.421 58.7484C27.451 58.7892 27.4801 58.83 27.5085 58.8716C27.5226 58.8916 27.5359 58.9116 27.5501 58.9316C27.5734 58.9666 27.5967 59.0007 27.6201 59.0357C27.6351 59.0582 27.6492 59.0807 27.6642 59.1032C27.6817 59.1298 27.6975 59.1565 27.715 59.1832C27.7408 59.2248 27.7667 59.2664 27.7917 59.3081C27.805 59.3306 27.8183 59.3531 27.8308 59.3747C27.8816 59.4622 27.9316 59.5496 27.9791 59.6388C27.9882 59.6563 27.9966 59.6738 28.0057 59.6904C28.0315 59.7404 28.0574 59.7895 28.0823 59.8403C28.0948 59.8653 28.1065 59.8912 28.119 59.9161C28.1398 59.9595 28.1606 60.0028 28.1798 60.0461C28.1923 60.0736 28.2048 60.1019 28.2173 60.1294C28.2356 60.171 28.2539 60.2127 28.2714 60.2535C28.2839 60.2826 28.2956 60.311 28.3072 60.3401C28.3239 60.3818 28.3406 60.4226 28.3564 60.4642C28.3664 60.4892 28.3755 60.515 28.3847 60.54C28.4189 60.6325 28.4513 60.7258 28.4813 60.819C28.4888 60.8424 28.4963 60.8665 28.503 60.8898C28.5171 60.9365 28.5321 60.9831 28.5455 61.0298C28.5555 61.0639 28.5646 61.0973 28.5738 61.1314C28.5813 61.1597 28.5888 61.188 28.5963 61.2164C28.6079 61.2613 28.6188 61.3063 28.6288 61.3513C28.6321 61.3663 28.6363 61.3813 28.6388 61.3954C28.6521 61.4546 28.6637 61.5137 28.6754 61.572C28.6779 61.5845 28.6796 61.5978 28.6821 61.6103C28.6912 61.6603 28.6996 61.7095 28.7071 61.7586C28.7087 61.7694 28.7104 61.7811 28.712 61.7919C28.7204 61.8494 28.7287 61.9069 28.7354 61.9635C28.7362 61.9735 28.7379 61.9827 28.7387 61.9927C28.7454 62.0501 28.7512 62.1076 28.7554 62.1651C28.7562 62.1701 28.7562 62.1759 28.7562 62.1809C28.7604 62.2409 28.7645 62.3009 28.767 62.36C28.767 62.3608 28.767 62.3617 28.767 62.3625C28.7695 62.4258 28.7704 62.4891 28.7704 62.5516C28.7704 62.609 28.7687 62.6657 28.7654 62.7223C28.7654 62.7256 28.7654 62.729 28.7645 62.7323C28.762 62.7848 28.7579 62.8364 28.7529 62.8872C28.752 62.8922 28.752 62.8981 28.7512 62.9039C28.7462 62.9539 28.7395 63.0022 28.732 63.0505C28.7312 63.0555 28.7304 63.0597 28.7295 63.0647C28.722 63.1146 28.7129 63.1638 28.7029 63.2121C28.7021 63.2146 28.7021 63.2171 28.7012 63.2196C28.6904 63.2704 28.6787 63.3195 28.6654 63.3678C28.6654 63.3695 28.6646 63.3703 28.6646 63.372C28.6512 63.4195 28.6379 63.4661 28.6221 63.5119C28.6213 63.5153 28.6196 63.5186 28.6188 63.5211C28.6038 63.5653 28.5879 63.6086 28.5704 63.651C28.5696 63.6544 28.5679 63.6569 28.5663 63.6602C28.5488 63.7027 28.5305 63.7452 28.5113 63.786C28.5105 63.7877 28.5096 63.7885 28.5088 63.7901C28.4897 63.8293 28.4705 63.8668 28.4497 63.9043C28.4472 63.9084 28.4447 63.9126 28.443 63.9168C28.423 63.9526 28.4022 63.9867 28.3797 64.02C28.3747 64.0275 28.3697 64.035 28.3647 64.0425C28.3422 64.0759 28.3189 64.1092 28.2956 64.1408C28.2931 64.1442 28.2897 64.1483 28.2864 64.1516C28.2648 64.18 28.2423 64.2075 28.2189 64.2341C28.2115 64.2424 28.204 64.2508 28.1965 64.2599C28.1773 64.2808 28.1581 64.3007 28.1382 64.3207C28.1282 64.3307 28.1173 64.3416 28.1073 64.3516C28.0865 64.3715 28.0649 64.3899 28.044 64.4082C28.034 64.4165 28.0249 64.4257 28.0149 64.434C28.0024 64.444 27.9891 64.4532 27.9766 64.4632C27.9532 64.4815 27.9299 64.499 27.9058 64.5156C27.8733 64.5373 27.8408 64.559 27.8075 64.5781L36.3643 59.6055C36.3943 59.588 36.4242 59.5696 36.4526 59.5496C36.4559 59.5471 36.4592 59.5446 36.4626 59.5421C36.4867 59.5255 36.51 59.5072 36.5334 59.4897C36.5442 59.4813 36.5558 59.4738 36.5667 59.4655C36.5683 59.4639 36.5708 59.4622 36.5725 59.4605C36.5825 59.4522 36.5917 59.443 36.6017 59.4347C36.6191 59.4197 36.6366 59.4055 36.6533 59.3897C36.6575 59.3856 36.6608 59.3814 36.665 59.3781C36.6758 59.3681 36.6858 59.3572 36.6958 59.3472C36.7074 59.3356 36.7199 59.3239 36.7316 59.3114C36.7391 59.3031 36.7466 59.2948 36.7541 59.2864C36.7616 59.2781 36.7691 59.2698 36.7766 59.2606C36.7824 59.254 36.7891 59.2473 36.7949 59.2398C36.8116 59.2198 36.8282 59.199 36.844 59.1782C36.8465 59.174 36.8499 59.1707 36.8524 59.1673C36.8532 59.1665 36.854 59.1657 36.8549 59.164C36.8724 59.1415 36.889 59.1182 36.9057 59.094C36.9115 59.0857 36.9165 59.0774 36.9223 59.069C36.9273 59.0615 36.9323 59.054 36.9373 59.0465C36.9423 59.0382 36.9482 59.0307 36.9532 59.0224C36.9682 58.9991 36.9823 58.9749 36.9956 58.9516C36.9973 58.9491 36.9981 58.9466 36.9998 58.9433C37.0023 58.9391 37.0048 58.9349 37.0065 58.9308C37.0156 58.9149 37.024 58.8991 37.0331 58.8825C37.0439 58.8608 37.0556 58.8391 37.0656 58.8167C37.0664 58.815 37.0673 58.8142 37.0681 58.8125C37.0681 58.8117 37.0689 58.8117 37.0689 58.8108C37.0798 58.7883 37.0906 58.765 37.1006 58.7417C37.1081 58.7242 37.1156 58.7059 37.1231 58.6876C37.1239 58.6842 37.1256 58.6817 37.1264 58.6784C37.1272 58.6767 37.1281 58.6742 37.1289 58.6726C37.1381 58.6492 37.1472 58.6259 37.1556 58.6018C37.1622 58.5843 37.1681 58.5659 37.1739 58.5476C37.1747 58.5443 37.1764 58.541 37.1772 58.5385C37.1781 58.536 37.1789 58.5343 37.1797 58.5318C37.1872 58.5093 37.1947 58.486 37.2014 58.4627C37.208 58.441 37.2139 58.4202 37.2197 58.3985C37.2197 58.3969 37.2205 58.396 37.2205 58.3944C37.2205 58.3935 37.2214 58.3927 37.2214 58.3919C37.228 58.3685 37.2339 58.3452 37.2397 58.3211C37.2455 58.2977 37.2505 58.2744 37.2555 58.2511C37.2555 58.2494 37.2563 58.2478 37.2563 58.2453C37.2572 58.2428 37.2572 58.2403 37.258 58.2378C37.2622 58.2186 37.2663 58.1994 37.2697 58.1795C37.2738 58.1553 37.278 58.1311 37.2822 58.107C37.283 58.1012 37.2838 58.0962 37.2847 58.0903C37.2855 58.0853 37.2863 58.0812 37.2863 58.0762C37.2888 58.0628 37.2905 58.0487 37.2922 58.0354C37.2955 58.0112 37.2988 57.987 37.3013 57.9629C37.303 57.9521 37.3038 57.9404 37.3047 57.9296C37.3055 57.9246 37.3055 57.9187 37.3063 57.9137C37.3072 57.9054 37.308 57.8979 37.3088 57.8896C37.3113 57.8646 37.313 57.8396 37.3147 57.8146C37.3163 57.7963 37.3172 57.7771 37.318 57.7588C37.318 57.7555 37.318 57.7522 37.3188 57.7488C37.3188 57.7455 37.3188 57.743 37.3197 57.7397C37.3205 57.7147 37.3222 57.6889 37.3222 57.663C37.323 57.6372 37.323 57.6114 37.323 57.5856C37.323 57.5831 37.323 57.5806 37.323 57.5781C37.3246 57.5481 37.3246 57.5181 37.3238 57.4881Z" fill="url(#paint3_linear_339_8221)"/>
<path d="M25.5891 57.0467C27.4224 58.1054 28.7726 60.536 28.7668 62.5508C28.7618 64.3825 27.4016 65.4312 25.5683 64.3733C23.9741 63.4529 22.3856 60.7017 22.3906 58.8701C22.3965 56.8543 23.9949 56.1263 25.5891 57.0467Z" fill="url(#paint4_linear_339_8221)"/>
<path d="M31.0636 42.5385C31.0028 42.5744 30.9428 42.6102 30.8845 42.6476C30.8662 42.6593 30.8479 42.6718 30.8296 42.6835C30.8029 42.701 30.7754 42.7176 30.7496 42.7351C30.7379 42.7426 30.7279 42.7509 30.7163 42.7584C30.6863 42.7784 30.658 42.7992 30.6288 42.8201C30.598 42.8417 30.568 42.8634 30.538 42.8859C30.5097 42.9067 30.4822 42.9284 30.4539 42.9508C30.4364 42.965 30.4181 42.9783 30.4006 42.9917C30.3873 43.0025 30.3739 43.0141 30.3606 43.025C30.3431 43.0391 30.3256 43.0541 30.3081 43.0683C30.2723 43.0983 30.2373 43.1291 30.2032 43.1599C30.1882 43.1732 30.1732 43.1866 30.159 43.1999C30.1532 43.2049 30.1474 43.2099 30.1415 43.2157C30.1307 43.2257 30.1216 43.2357 30.1116 43.2457C30.0607 43.294 30.0108 43.344 29.9616 43.3948C29.9516 43.4048 29.9416 43.414 29.9316 43.4248C29.9225 43.4348 29.9141 43.4448 29.905 43.4539C29.8708 43.4906 29.8375 43.5281 29.8042 43.5664C29.7909 43.5814 29.7775 43.5955 29.7642 43.6105C29.7584 43.6172 29.7534 43.6239 29.7484 43.6305C29.7176 43.6672 29.6876 43.7055 29.6576 43.7438C29.6443 43.7613 29.6293 43.7779 29.616 43.7954C29.6126 43.7996 29.6101 43.8038 29.6068 43.8079C29.5835 43.8388 29.561 43.8704 29.5385 43.9012C29.5218 43.9254 29.5035 43.9479 29.4869 43.972C29.4844 43.9762 29.4819 43.9804 29.4785 43.9845C29.4602 44.0112 29.4427 44.0387 29.4252 44.0653C29.4069 44.0928 29.3877 44.1203 29.3702 44.1486C29.3669 44.1536 29.3644 44.1594 29.3611 44.1644C29.3461 44.1878 29.3328 44.2119 29.3178 44.2361C29.3003 44.2652 29.2828 44.2927 29.2661 44.3219C29.2611 44.3302 29.257 44.3385 29.2528 44.3468C29.2386 44.3718 29.2253 44.3968 29.2111 44.4226C29.197 44.4485 29.1828 44.4726 29.1695 44.4984C29.1628 44.5109 29.157 44.5234 29.1512 44.5359C29.1387 44.5609 29.1262 44.5859 29.1137 44.6109C29.1037 44.6317 29.0929 44.6525 29.082 44.6734C29.0737 44.6917 29.0654 44.7108 29.0571 44.7292C29.0446 44.755 29.0329 44.7816 29.0212 44.8075C29.0146 44.8233 29.0071 44.8383 28.9996 44.8541C28.9879 44.8799 28.9771 44.9074 28.9663 44.9341C28.9563 44.9582 28.9454 44.9824 28.9354 45.0074C28.9313 45.0174 28.9271 45.0274 28.923 45.0374C28.9071 45.0765 28.8921 45.1173 28.8771 45.1581C28.8696 45.1773 28.863 45.1956 28.8555 45.2148C28.8538 45.2189 28.8522 45.2223 28.8513 45.2264C28.828 45.2906 28.8055 45.3564 28.7838 45.423C28.783 45.4247 28.7822 45.4272 28.7822 45.4288C28.7772 45.443 28.773 45.458 28.7689 45.4722C28.7522 45.523 28.7364 45.5738 28.7205 45.6262C28.718 45.6346 28.7155 45.6429 28.7131 45.6512C28.7047 45.6787 28.6972 45.707 28.6889 45.7354C28.6789 45.7703 28.6689 45.8045 28.6597 45.8395C28.6556 45.8536 28.6522 45.8686 28.6489 45.8828C28.6406 45.9153 28.6323 45.9486 28.6239 45.9819C28.6173 46.0094 28.6098 46.0369 28.6031 46.0652C28.5981 46.0844 28.5939 46.1052 28.5898 46.1243C28.5814 46.1602 28.5731 46.196 28.5656 46.2318C28.5606 46.2551 28.5548 46.2784 28.5498 46.3018C28.5448 46.3251 28.5406 46.3492 28.5356 46.3734C28.5273 46.4142 28.519 46.455 28.5115 46.4967C28.5073 46.5175 28.5031 46.5383 28.499 46.5591C28.494 46.585 28.4898 46.6116 28.4857 46.6374C28.4782 46.6816 28.4698 46.7257 28.4623 46.7707C28.459 46.7915 28.4548 46.8107 28.4515 46.8315C28.4473 46.8565 28.444 46.8832 28.4398 46.9081C28.4315 46.9606 28.424 47.0131 28.4157 47.0672C28.4124 47.0897 28.409 47.1105 28.4057 47.133C28.4024 47.1555 28.3999 47.1797 28.3965 47.2022C28.389 47.2613 28.3815 47.3213 28.374 47.3813C28.3707 47.4071 28.3674 47.4321 28.364 47.4587C28.3615 47.477 28.3607 47.4962 28.3582 47.5145C28.3499 47.5878 28.3424 47.662 28.3357 47.7369C28.3332 47.7652 28.3299 47.7927 28.3274 47.8219C28.3266 47.8319 28.3257 47.8435 28.3249 47.8535C28.3141 47.976 28.3041 48.1009 28.2949 48.2284C28.2949 48.2309 28.2941 48.2334 28.2941 48.2367C28.2874 48.3291 28.2824 48.4233 28.2766 48.5182C28.2749 48.544 28.2741 48.5699 28.2724 48.5965C28.2708 48.6323 28.2683 48.6665 28.2666 48.7031C28.2649 48.7439 28.2633 48.7856 28.2616 48.8264C28.2599 48.8589 28.2591 48.8914 28.2574 48.9239C28.2533 49.0238 28.2499 49.1238 28.2474 49.2262C28.2474 49.232 28.2474 49.237 28.2466 49.242C28.2466 49.2429 28.2466 49.2437 28.2466 49.2445C28.2433 49.3578 28.2416 49.4719 28.2399 49.5877C28.2391 49.626 28.2391 49.6652 28.2391 49.7035C28.2383 49.7726 28.2374 49.8409 28.2374 49.9109C28.2374 49.9317 28.2374 49.9534 28.2374 49.9742L28.2366 50.3407C28.2366 50.3815 28.2366 50.4232 28.2366 50.464C28.2366 50.4723 28.2366 50.4798 28.2366 50.4881C28.2358 50.6555 28.2349 50.823 28.2308 50.9887C28.2308 50.9937 28.2308 50.9987 28.2308 51.0045C28.2291 51.082 28.2258 51.1586 28.2224 51.2344C28.2224 51.2394 28.2224 51.2444 28.2216 51.2494C28.2191 51.3052 28.2158 51.361 28.2125 51.416C28.2116 51.4243 28.2116 51.4327 28.2108 51.441C28.2075 51.4852 28.2041 51.5285 28.2008 51.5718C28.2 51.5818 28.1991 51.5909 28.1983 51.6009C28.1958 51.6293 28.1925 51.6567 28.19 51.6842C28.1883 51.6967 28.1875 51.7092 28.1858 51.7209C28.1833 51.7442 28.18 51.7675 28.1775 51.79C28.1758 51.8017 28.1741 51.8133 28.1725 51.825C28.17 51.8433 28.1666 51.8616 28.1641 51.88C28.1625 51.8933 28.16 51.9058 28.1583 51.9191C28.1558 51.9324 28.1533 51.9466 28.1516 51.9599C28.1491 51.9749 28.1466 51.9908 28.1433 52.0057C28.1408 52.0191 28.1383 52.0324 28.135 52.0457C28.1317 52.0607 28.1292 52.0765 28.1258 52.0915C28.1242 52.1007 28.1217 52.109 28.12 52.1182C28.1158 52.1357 28.1125 52.1523 28.1083 52.169C28.1058 52.1782 28.1042 52.1873 28.1017 52.1965C28.0975 52.2131 28.0925 52.2298 28.0883 52.2465C28.0858 52.2548 28.0842 52.2631 28.0817 52.2706C28.075 52.2939 28.0675 52.3164 28.0609 52.3389C28.06 52.3423 28.0584 52.3447 28.0575 52.3481C28.0509 52.3681 28.0442 52.3872 28.0367 52.4056C28.0342 52.4122 28.0317 52.4181 28.0292 52.4247C28.0225 52.443 28.015 52.4614 28.0075 52.4789C28.0059 52.4822 28.0051 52.4855 28.0034 52.4888C27.9942 52.5088 27.9851 52.5288 27.9759 52.5488C27.9734 52.5538 27.9709 52.5588 27.9684 52.563C27.9601 52.5796 27.9509 52.5963 27.9417 52.613C27.9401 52.6155 27.9384 52.6188 27.9367 52.6221C27.9268 52.6404 27.9159 52.6579 27.9043 52.6754C27.9018 52.6796 27.8984 52.6846 27.8959 52.6888C27.8868 52.7029 27.8768 52.7171 27.8668 52.7304C27.8643 52.7337 27.8618 52.7379 27.8593 52.7412C27.8476 52.7571 27.8351 52.7729 27.8218 52.7879C27.8176 52.792 27.8135 52.797 27.8101 52.8012C27.8001 52.812 27.7902 52.8229 27.7802 52.8337C27.7752 52.8387 27.7693 52.8445 27.7643 52.8495C27.7543 52.8595 27.7443 52.8687 27.7335 52.877C27.7285 52.882 27.7227 52.8862 27.7177 52.8903C27.7102 52.897 27.7019 52.9028 27.6944 52.9087C27.6827 52.917 27.6719 52.9253 27.6602 52.9336C27.6452 52.9436 27.6302 52.9536 27.6152 52.9628L36.172 47.9901C36.1845 47.9826 36.1962 47.976 36.2078 47.9676C36.2112 47.966 36.2137 47.9635 36.217 47.961C36.2287 47.9527 36.2403 47.9443 36.2512 47.936C36.2562 47.9318 36.262 47.9285 36.2678 47.9243C36.2703 47.9227 36.2728 47.9202 36.2753 47.9177C36.2803 47.9135 36.2861 47.9085 36.2911 47.9043C36.297 47.8993 36.3028 47.8943 36.3086 47.8893C36.3128 47.8852 36.317 47.881 36.3211 47.8769C36.3261 47.8719 36.332 47.8669 36.337 47.861C36.3403 47.8577 36.3436 47.8544 36.3478 47.851C36.3544 47.8444 36.3611 47.836 36.3678 47.8294C36.3719 47.8252 36.3761 47.821 36.3794 47.8161C36.3811 47.8144 36.3819 47.8127 36.3836 47.8111C36.3936 47.7994 36.4036 47.7869 36.4128 47.7744C36.4136 47.7727 36.4152 47.7711 36.4161 47.7694C36.4186 47.7661 36.4211 47.7619 36.4236 47.7586C36.4294 47.7511 36.4352 47.7436 36.4402 47.7353C36.4444 47.7294 36.4486 47.7228 36.4527 47.7161C36.4552 47.7119 36.4586 47.7078 36.4611 47.7028C36.4627 47.7003 36.4644 47.6969 36.4669 47.6944C36.4752 47.6811 36.4835 47.667 36.4919 47.6528C36.4927 47.652 36.4927 47.6503 36.4935 47.6495C36.4952 47.6461 36.4969 47.6436 36.4985 47.6403C36.5044 47.6303 36.5094 47.6203 36.5152 47.6103C36.5185 47.6036 36.5219 47.597 36.5252 47.5912C36.5277 47.5862 36.5302 47.5812 36.5327 47.577C36.5344 47.5737 36.536 47.5703 36.5377 47.5662C36.5452 47.5512 36.5519 47.5362 36.5585 47.5204C36.5593 47.5195 36.5593 47.5179 36.5602 47.517C36.5618 47.5137 36.5627 47.5104 36.5643 47.507C36.5693 47.4954 36.5743 47.4829 36.5793 47.4704C36.5818 47.4645 36.5835 47.4587 36.586 47.4529C36.5885 47.4471 36.591 47.4404 36.5927 47.4337C36.5943 47.4287 36.5968 47.4237 36.5985 47.4179C36.6035 47.4037 36.6085 47.3896 36.6135 47.3754C36.6143 47.3721 36.616 47.3696 36.6168 47.3663C36.6168 47.3654 36.6177 47.3646 36.6177 47.3638C36.6235 47.3454 36.6293 47.3263 36.6351 47.3071C36.636 47.3038 36.6368 47.3005 36.6376 47.2971C36.6401 47.2888 36.6426 47.2813 36.6443 47.273C36.6468 47.263 36.6501 47.2521 36.6526 47.2422C36.6543 47.2355 36.656 47.2288 36.6576 47.223C36.6601 47.2138 36.6626 47.2047 36.6643 47.1955C36.666 47.1888 36.6676 47.1822 36.6693 47.1755C36.6718 47.1655 36.6743 47.1547 36.676 47.1447C36.6776 47.1355 36.6801 47.1272 36.6818 47.118C36.6826 47.1139 36.6835 47.1105 36.6843 47.1072C36.6868 47.0956 36.6885 47.0839 36.691 47.0722C36.6935 47.0589 36.6968 47.0456 36.6993 47.0322C36.7001 47.0289 36.7001 47.0264 36.7009 47.0231C36.7034 47.0106 36.7051 46.9981 36.7076 46.9856C36.7101 46.9723 36.7126 46.959 36.7143 46.9448C36.7151 46.9423 36.7151 46.9398 36.7159 46.9365C36.7176 46.9265 36.7193 46.9156 36.7209 46.9056C36.7234 46.8873 36.7268 46.869 36.7293 46.8507C36.7301 46.8473 36.7301 46.844 36.7309 46.8398C36.7318 46.8315 36.7326 46.8232 36.7343 46.8149C36.7376 46.7915 36.7401 46.769 36.7426 46.7457C36.7434 46.7399 36.7443 46.7341 36.7451 46.7282C36.7459 46.7216 36.7468 46.7149 36.7468 46.7082C36.7501 46.6808 36.7526 46.6533 36.7551 46.6258C36.7559 46.6183 36.7568 46.6116 36.7576 46.6041C36.7576 46.6008 36.7584 46.5983 36.7584 46.595C36.7626 46.5516 36.7659 46.5083 36.7684 46.4642C36.7684 46.4609 36.7692 46.4575 36.7692 46.4542C36.7692 46.4492 36.7701 46.4442 36.7701 46.4392C36.7734 46.3842 36.7767 46.3284 36.7792 46.2726C36.7792 46.2709 36.7792 46.2684 36.7792 46.2668C36.7792 46.2634 36.7792 46.2609 36.7792 46.2576C36.7826 46.1818 36.7851 46.1044 36.7876 46.0277C36.7876 46.0244 36.7876 46.0211 36.7876 46.0186C36.7876 46.0169 36.7876 46.0144 36.7876 46.0127C36.7917 45.847 36.7934 45.6796 36.7934 45.5121C36.7934 45.5113 36.7934 45.5105 36.7934 45.5096C36.7934 45.5021 36.7934 45.4955 36.7934 45.488C36.7934 45.4472 36.7934 45.4055 36.7934 45.3647L36.7942 44.9982C36.7942 44.9066 36.7959 44.8175 36.7967 44.7275C36.7976 44.6892 36.7976 44.65 36.7976 44.6117C36.7992 44.4951 36.8017 44.3793 36.8042 44.2661C36.8042 44.2611 36.8042 44.2552 36.8051 44.2502C36.8076 44.1478 36.8109 44.047 36.8151 43.9479C36.8167 43.9146 36.8176 43.8821 36.8192 43.8496C36.8226 43.773 36.8259 43.6963 36.8301 43.6205C36.8317 43.5947 36.8326 43.5681 36.8342 43.5422C36.84 43.4448 36.8459 43.3482 36.8517 43.2532C36.8609 43.1258 36.8709 43.0017 36.8817 42.8784C36.885 42.8392 36.8892 42.8009 36.8925 42.7618C36.9 42.6868 36.9075 42.6127 36.915 42.5394C36.92 42.4944 36.925 42.4502 36.9308 42.4061C36.9383 42.3461 36.9458 42.2862 36.9533 42.227C36.9592 42.182 36.9658 42.1362 36.9717 42.0921C36.9791 42.0388 36.9875 41.9855 36.9958 41.933C37.0033 41.8872 37.01 41.8414 37.0175 41.7956C37.025 41.7506 37.0325 41.7064 37.0408 41.6623C37.0491 41.6148 37.0583 41.5682 37.0666 41.5215C37.0749 41.4799 37.0833 41.4391 37.0916 41.3982C37.1016 41.3508 37.1116 41.3041 37.1216 41.2575C37.1299 41.2208 37.1374 41.185 37.1457 41.1492C37.1566 41.1009 37.1682 41.0542 37.1799 41.0068C37.1882 40.9734 37.1965 40.9401 37.2049 40.9076C37.2182 40.8577 37.2315 40.8093 37.2449 40.7602C37.2532 40.7319 37.2607 40.7036 37.269 40.6761C37.2865 40.6153 37.3057 40.5561 37.324 40.497C37.329 40.4828 37.3331 40.4678 37.3373 40.4537C37.3615 40.3812 37.3856 40.3096 37.4114 40.2396C37.4181 40.2205 37.4256 40.2021 37.4331 40.183C37.4523 40.1322 37.4714 40.0822 37.4914 40.033C37.5014 40.0081 37.5114 39.9839 37.5222 39.9597C37.5397 39.9173 37.558 39.8748 37.5772 39.8331C37.5889 39.8065 37.6014 39.7807 37.613 39.7548C37.6313 39.7149 37.6505 39.6757 37.6697 39.6366C37.6822 39.6116 37.6946 39.5866 37.7071 39.5616C37.7271 39.5233 37.7471 39.4858 37.7679 39.4483C37.7813 39.4233 37.7954 39.3975 37.8096 39.3725C37.8304 39.335 37.8529 39.2984 37.8746 39.2617C37.8887 39.2376 37.9029 39.2134 37.9179 39.1901C37.9387 39.1568 37.9604 39.1235 37.982 39.091C37.9995 39.0643 38.017 39.0369 38.0353 39.0102C38.0545 38.9819 38.0753 38.9544 38.0945 38.9269C38.1169 38.8953 38.1394 38.8636 38.1628 38.8336C38.1794 38.812 38.1969 38.7903 38.2136 38.7686C38.2436 38.7303 38.2735 38.6928 38.3044 38.6554C38.3227 38.6337 38.3418 38.6121 38.3602 38.5912C38.3926 38.5537 38.426 38.5154 38.4601 38.4788C38.4784 38.4588 38.4976 38.4388 38.5168 38.4196C38.5651 38.3688 38.615 38.3197 38.6659 38.2714C38.6817 38.2564 38.6975 38.2406 38.7142 38.2256C38.7283 38.2122 38.7433 38.1989 38.7583 38.1864C38.7933 38.1556 38.8283 38.1239 38.8641 38.094C38.8816 38.0798 38.8982 38.0648 38.9157 38.0506C38.9466 38.0257 38.9774 38.0007 39.009 37.9765C39.0365 37.9549 39.0648 37.9332 39.0923 37.9124C39.1223 37.8899 39.1523 37.8682 39.1831 37.8466C39.2123 37.8258 39.2414 37.8049 39.2706 37.7849C39.3081 37.7591 39.3455 37.7341 39.3838 37.7091C39.4022 37.6975 39.4205 37.685 39.4388 37.6733C39.4971 37.6367 39.5571 37.6 39.6179 37.5642L31.0636 42.5385Z" fill="url(#paint5_linear_339_8221)"/>
<path d="M27.3118 13.0066C27.3127 12.97 27.3143 12.9342 27.3152 12.8984C27.3168 12.8467 27.3185 12.7951 27.321 12.7443C27.3227 12.7068 27.3252 12.6701 27.3268 12.6327C27.3293 12.5843 27.3318 12.5352 27.3352 12.4877C27.3376 12.4477 27.341 12.4086 27.3435 12.3686C27.3468 12.3278 27.3501 12.2861 27.3535 12.2462C27.3568 12.2062 27.361 12.167 27.3651 12.1279C27.3693 12.0887 27.3726 12.0496 27.3768 12.0113C27.381 11.9721 27.386 11.9346 27.3901 11.8963C27.3951 11.858 27.3993 11.8197 27.4043 11.7822C27.4093 11.7439 27.4151 11.7064 27.4201 11.6681C27.4251 11.6323 27.4309 11.5956 27.4359 11.5598C27.4418 11.5207 27.4484 11.4832 27.4551 11.4449C27.4609 11.4116 27.4659 11.3791 27.4726 11.3466C27.4792 11.3083 27.4867 11.2708 27.4942 11.2333C27.5009 11.2017 27.5067 11.17 27.5134 11.1384C27.5217 11.1009 27.5301 11.0634 27.5384 11.0259C27.5451 10.9959 27.5517 10.9651 27.5592 10.9351C27.5684 10.8976 27.5775 10.8601 27.5867 10.8235C27.5942 10.7952 27.6009 10.766 27.6084 10.7377C27.6184 10.7002 27.6292 10.6627 27.64 10.6261C27.6475 10.5994 27.655 10.572 27.6625 10.5461C27.6742 10.507 27.6858 10.4695 27.6983 10.4312C27.7058 10.4079 27.7133 10.3837 27.7208 10.3604C27.735 10.3162 27.7508 10.2738 27.7658 10.2304C27.7716 10.2138 27.7774 10.1963 27.7833 10.1796C27.7949 10.148 27.8066 10.118 27.8183 10.0863C27.8291 10.058 27.8391 10.0289 27.8507 10.0014C27.8632 9.96973 27.8766 9.93892 27.8899 9.9081C27.9007 9.88144 27.9115 9.85479 27.9232 9.82897C27.9365 9.79898 27.9499 9.77066 27.9632 9.74068C27.9749 9.71485 27.9865 9.6882 27.999 9.66238C28.0048 9.65072 28.0107 9.63989 28.0157 9.62823C28.0373 9.58408 28.059 9.54077 28.0806 9.49746C28.089 9.48163 28.0981 9.4658 28.1065 9.44998C28.1273 9.41166 28.1481 9.37335 28.1689 9.33587C28.1806 9.31587 28.1922 9.29588 28.2047 9.27589C28.2239 9.24341 28.2431 9.21176 28.2622 9.18011C28.2747 9.16012 28.2872 9.14096 28.2997 9.1218C28.3205 9.08931 28.3413 9.05766 28.363 9.02601C28.3755 9.00685 28.3888 8.98853 28.4022 8.9702C28.4271 8.93439 28.453 8.8994 28.4779 8.86525C28.4913 8.84776 28.5038 8.83027 28.5171 8.81361C28.5462 8.77613 28.5762 8.73948 28.6062 8.70366C28.6162 8.692 28.6254 8.67951 28.6354 8.66868C28.6787 8.61787 28.7237 8.56789 28.7686 8.51958C28.7795 8.50875 28.7895 8.49793 28.8003 8.4871C28.8436 8.44212 28.8878 8.39797 28.9327 8.35549C28.9419 8.34633 28.9519 8.33717 28.9611 8.32801C29.0169 8.27636 29.0743 8.22722 29.1326 8.17974C29.1493 8.16641 29.166 8.15309 29.1826 8.13976C29.2043 8.12227 29.2268 8.10561 29.2484 8.08895C29.2684 8.07396 29.2892 8.05896 29.3092 8.04397C29.3317 8.02815 29.3542 8.01232 29.3775 7.99649C29.395 7.98483 29.4125 7.97234 29.4308 7.96068C29.4883 7.9232 29.5466 7.88571 29.6058 7.85156L21.0489 12.8242C20.9898 12.8592 20.9315 12.8959 20.874 12.9333C20.8665 12.9383 20.859 12.9425 20.8524 12.9467C20.8415 12.9533 20.8315 12.9617 20.8215 12.9683C20.7991 12.9842 20.7757 13 20.7541 13.0158C20.7333 13.0308 20.7133 13.045 20.6933 13.0608C20.6708 13.0774 20.6491 13.0941 20.6275 13.1116C20.6166 13.1199 20.605 13.1283 20.5942 13.1374C20.5883 13.1416 20.5833 13.1474 20.5775 13.1516C20.5192 13.1991 20.4617 13.2482 20.4059 13.2998C20.4034 13.3023 20.4001 13.3048 20.3967 13.3073C20.3901 13.3132 20.3834 13.3207 20.3768 13.3265C20.3318 13.369 20.2876 13.4131 20.2443 13.4581C20.2377 13.4648 20.2302 13.4714 20.2235 13.4789C20.2193 13.4831 20.216 13.4872 20.2127 13.4914C20.1669 13.5397 20.1227 13.5889 20.0794 13.6405C20.0777 13.643 20.0752 13.6447 20.0736 13.6472C20.0661 13.6563 20.0586 13.6663 20.0502 13.6763C20.0203 13.7121 19.9903 13.7488 19.9611 13.7863C19.9561 13.7929 19.9503 13.7996 19.9445 13.8071C19.937 13.8171 19.9295 13.8279 19.9211 13.8388C19.8953 13.8729 19.8703 13.9079 19.8453 13.9437C19.8378 13.9545 19.8295 13.9645 19.822 13.9754C19.817 13.9828 19.812 13.9912 19.8062 13.9995C19.7845 14.0312 19.7637 14.0628 19.7429 14.0953C19.7337 14.1095 19.7246 14.1228 19.7154 14.1378C19.7121 14.1428 19.7087 14.1486 19.7054 14.1544C19.6862 14.1861 19.6671 14.2177 19.6479 14.2502C19.6379 14.2669 19.6279 14.2827 19.6188 14.2994C19.6171 14.3027 19.6146 14.3069 19.6129 14.3102C19.5913 14.3477 19.5713 14.386 19.5505 14.4243C19.543 14.4385 19.5347 14.4526 19.5272 14.4668C19.5263 14.4685 19.5255 14.4701 19.5247 14.4718C19.5022 14.5143 19.4805 14.5584 19.4597 14.6026C19.4547 14.6134 19.4489 14.6242 19.443 14.635C19.443 14.6359 19.4422 14.6359 19.4422 14.6367C19.4297 14.6625 19.418 14.6892 19.4064 14.715C19.3931 14.7442 19.3797 14.7725 19.3672 14.8016C19.3672 14.8025 19.3664 14.8025 19.3664 14.8033C19.3547 14.8291 19.3447 14.8566 19.3331 14.8824C19.3206 14.9124 19.3073 14.9424 19.2948 14.9741C19.2948 14.9749 19.2939 14.9757 19.2939 14.9757C19.2831 15.0032 19.2723 15.0324 19.2614 15.0607C19.2498 15.0907 19.2381 15.1206 19.2265 15.1515C19.2265 15.1523 19.2256 15.1531 19.2256 15.1531C19.2198 15.1698 19.214 15.1865 19.2081 15.2031C19.1931 15.2448 19.179 15.2864 19.1648 15.3289C19.164 15.3306 19.164 15.333 19.1632 15.3347C19.1557 15.358 19.149 15.3814 19.1415 15.4047C19.1307 15.4397 19.119 15.4755 19.1082 15.5113C19.1074 15.5146 19.1065 15.518 19.1057 15.5213C19.0982 15.5471 19.0907 15.5746 19.0832 15.6004C19.074 15.6329 19.064 15.6654 19.0557 15.6987C19.054 15.7037 19.0532 15.7087 19.0524 15.7129C19.0449 15.7412 19.0382 15.7695 19.0307 15.7978C19.0232 15.8286 19.0149 15.8595 19.0074 15.8911C19.0057 15.897 19.0049 15.9036 19.0032 15.9103C18.9966 15.9403 18.9899 15.9703 18.9824 16.0002C18.9757 16.0302 18.9683 16.0594 18.9624 16.0894C18.9608 16.0969 18.9591 16.1052 18.9574 16.1135C18.9508 16.1443 18.9449 16.176 18.9383 16.2076C18.9324 16.2368 18.9266 16.2643 18.9208 16.2934C18.9191 16.3026 18.9174 16.3126 18.9158 16.3218C18.9099 16.3542 18.9041 16.3867 18.8983 16.42C18.8933 16.4475 18.8883 16.475 18.8841 16.5025C18.8825 16.5133 18.8808 16.525 18.8791 16.5358C18.8733 16.5716 18.8683 16.6075 18.8633 16.6441C18.8591 16.6708 18.855 16.6966 18.8516 16.7232C18.85 16.7349 18.8491 16.7466 18.8475 16.7582C18.8425 16.7957 18.8375 16.834 18.8333 16.8723C18.83 16.899 18.8267 16.9248 18.8233 16.9515C18.8217 16.9631 18.8208 16.9756 18.8192 16.9881C18.815 17.0264 18.8108 17.0656 18.8075 17.1047C18.805 17.1322 18.8017 17.1589 18.7992 17.1855C18.7983 17.198 18.7975 17.2105 18.7958 17.223C18.7925 17.2638 18.7892 17.3046 18.7858 17.3454C18.7833 17.3729 18.7808 17.4004 18.7792 17.4287C18.7783 17.4404 18.7775 17.4529 18.7767 17.4645C18.7733 17.5129 18.7708 17.5612 18.7683 17.6095C18.7667 17.637 18.765 17.6645 18.7633 17.6919C18.7625 17.7011 18.7625 17.7111 18.7625 17.7203C18.76 17.7711 18.7584 17.8227 18.7567 17.8744C18.7559 17.9035 18.7542 17.9327 18.7534 17.9618C18.7534 17.9685 18.7534 17.976 18.7534 17.9826C18.7517 18.0384 18.7517 18.0959 18.7509 18.1526C18.7509 18.1817 18.75 18.21 18.7492 18.2392C18.7492 18.2475 18.7492 18.2567 18.7492 18.265C18.7492 18.3141 18.7484 18.3641 18.7467 18.4124C18.7467 18.4249 18.7459 18.4366 18.745 18.4491C18.7434 18.4874 18.7417 18.5257 18.74 18.5632C18.7392 18.574 18.7392 18.5849 18.7384 18.5957C18.735 18.6415 18.7317 18.6873 18.7275 18.7331C18.7267 18.7415 18.7259 18.7489 18.725 18.7573C18.7209 18.7981 18.7159 18.8389 18.7109 18.8797C18.71 18.8872 18.7092 18.8947 18.7084 18.9014C18.7025 18.9455 18.6959 18.9888 18.6884 19.0313C18.6867 19.0396 18.6859 19.048 18.6842 19.0563C18.6767 19.0988 18.6684 19.1404 18.6592 19.1821C18.6576 19.1879 18.6567 19.1937 18.6551 19.2004C18.6459 19.2429 18.6351 19.2854 18.6242 19.3262C18.6234 19.3295 18.6226 19.332 18.6217 19.3353C18.6101 19.3786 18.5976 19.4203 18.5834 19.4619C18.5826 19.4636 18.5826 19.4653 18.5818 19.4669C18.5676 19.5086 18.5526 19.5502 18.5368 19.5902C18.536 19.5919 18.5351 19.5935 18.5351 19.5944C18.5193 19.6344 18.5026 19.6727 18.4843 19.7102C18.4835 19.7118 18.4826 19.7143 18.4818 19.716C18.4643 19.7526 18.4452 19.7885 18.426 19.8226C18.4243 19.8251 18.4227 19.8276 18.4218 19.8301C18.4027 19.8634 18.3819 19.8959 18.3602 19.9267C18.3585 19.9292 18.3569 19.9317 18.3544 19.9342C18.3327 19.965 18.3094 19.995 18.2852 20.0233C18.2844 20.025 18.2827 20.0258 18.2819 20.0275C18.2594 20.0542 18.2353 20.0783 18.2111 20.1025C18.2078 20.1058 18.2044 20.11 18.2003 20.1133C18.1761 20.1358 18.1511 20.1575 18.1253 20.1774C18.117 20.1841 18.1087 20.1899 18.0995 20.1966C18.0737 20.2158 18.047 20.2332 18.0195 20.2499L26.5763 15.2772C26.593 15.2672 26.6097 15.2573 26.6263 15.2464C26.6363 15.2398 26.6463 15.2314 26.6563 15.2239C26.6646 15.2181 26.6738 15.2114 26.6821 15.2056C26.6871 15.2023 26.6921 15.1989 26.6971 15.1948C26.7163 15.1798 26.7338 15.164 26.7521 15.1473C26.7538 15.1456 26.7563 15.1431 26.7579 15.1415C26.7613 15.1381 26.7646 15.1348 26.7688 15.1306C26.7804 15.1198 26.7921 15.109 26.8029 15.0965C26.8154 15.0832 26.8279 15.069 26.8396 15.0548C26.8404 15.0532 26.8421 15.0523 26.8429 15.0507C26.8437 15.0498 26.8437 15.049 26.8445 15.049C26.8579 15.0332 26.872 15.0165 26.8845 14.999C26.8937 14.9865 26.9029 14.9741 26.9112 14.9616C26.9128 14.9591 26.9145 14.9566 26.917 14.9541C26.9178 14.9524 26.9195 14.9507 26.9212 14.9491C26.9328 14.9324 26.9437 14.9157 26.9545 14.8983C26.9628 14.8849 26.9712 14.8716 26.9787 14.8574C26.9803 14.8549 26.982 14.8524 26.9828 14.8499C26.9836 14.8483 26.9853 14.8466 26.9861 14.8449C26.9961 14.8275 27.0061 14.8091 27.0161 14.7908C27.0245 14.7758 27.032 14.76 27.0395 14.7442C27.0403 14.7425 27.0411 14.74 27.042 14.7383C27.0428 14.7375 27.0436 14.7358 27.0436 14.735C27.0528 14.7158 27.0619 14.6967 27.0703 14.6767C27.0778 14.6592 27.0853 14.6409 27.0928 14.6225C27.0936 14.6209 27.0936 14.6192 27.0944 14.6184C27.0944 14.6176 27.0953 14.6167 27.0953 14.6159C27.1036 14.5951 27.1111 14.5742 27.1194 14.5534C27.1261 14.5343 27.1327 14.5151 27.1394 14.4951C27.1402 14.4934 27.1402 14.4918 27.1411 14.4901C27.1411 14.4893 27.1419 14.4884 27.1419 14.4876C27.1494 14.4651 27.1569 14.4418 27.1636 14.4193C27.1694 14.401 27.1744 14.3827 27.1794 14.3635C27.1802 14.3602 27.1811 14.3577 27.1819 14.3543C27.1827 14.3527 27.1827 14.3502 27.1836 14.3485C27.1902 14.3235 27.1969 14.2985 27.2027 14.2735C27.206 14.2586 27.2094 14.2436 27.2127 14.2286C27.2144 14.2227 27.2152 14.2169 27.2169 14.2102C27.2177 14.2052 27.2194 14.2011 27.2202 14.1961C27.226 14.1694 27.231 14.1428 27.236 14.1153C27.2377 14.1053 27.2394 14.0945 27.241 14.0845C27.2427 14.0761 27.2444 14.0678 27.2452 14.0595C27.2469 14.0495 27.2485 14.0395 27.2502 14.0287C27.2552 13.9995 27.2594 13.9704 27.2635 13.9412C27.2644 13.937 27.2644 13.9337 27.2652 13.9295C27.266 13.922 27.2668 13.9145 27.2677 13.9079C27.2702 13.8871 27.2735 13.8671 27.2752 13.8462C27.2777 13.8263 27.2793 13.8063 27.281 13.7863C27.2818 13.7779 27.2827 13.7704 27.2835 13.7621C27.2835 13.758 27.2843 13.7538 27.2852 13.7488C27.2885 13.7138 27.291 13.6797 27.2935 13.6447C27.2943 13.638 27.2943 13.6313 27.2943 13.6247C27.2952 13.6139 27.2952 13.603 27.296 13.5922C27.2968 13.5739 27.2985 13.5556 27.2993 13.5364C27.3002 13.5172 27.301 13.4972 27.3018 13.4781C27.3027 13.4656 27.3027 13.4539 27.3035 13.4414C27.3035 13.4348 27.3043 13.4289 27.3043 13.4223C27.3052 13.3831 27.306 13.344 27.306 13.3048C27.306 13.3015 27.306 13.2973 27.306 13.294C27.306 13.2557 27.3068 13.219 27.3077 13.1816C27.3102 13.1191 27.3102 13.0624 27.3118 13.0066Z" fill="url(#paint6_linear_339_8221)"/>
<path d="M39.473 30.1278C39.154 30.3102 38.6742 30.4001 38.2744 30.5367C38.1103 30.5959 37.9496 30.6575 37.7921 30.7225C37.6347 30.7866 37.4806 30.8541 37.329 30.9232C37.2532 30.9582 37.1791 30.9932 37.105 31.0298C36.8834 31.1381 36.6685 31.2522 36.4611 31.373L27.9043 36.3457C28.4582 36.0242 29.0621 35.7468 29.7176 35.5094C30.1166 35.3728 30.5964 35.2828 30.9162 35.1004C32.2239 34.7564 33.4683 34.4208 34.492 33.8252L43.0488 28.8525C42.0252 29.4473 40.7807 29.7838 39.473 30.1278Z" fill="url(#paint7_linear_339_8221)"/>
<path d="M17.9676 6.37969C17.9901 6.36887 18.0126 6.35804 18.0351 6.34804C18.1117 6.31306 18.1884 6.27974 18.2667 6.24809C18.3449 6.21644 18.4241 6.18728 18.504 6.15813C18.5274 6.1498 18.5515 6.14147 18.5757 6.13314C18.6356 6.11232 18.6956 6.09316 18.7564 6.074C18.7806 6.06651 18.8047 6.05901 18.8289 6.05152C18.9113 6.02736 18.9938 6.00404 19.0779 5.98238C19.0788 5.98238 19.0796 5.98238 19.0796 5.98155C19.1629 5.96072 19.2479 5.94157 19.3328 5.92324C19.3578 5.91824 19.3836 5.91325 19.4086 5.90825C19.4727 5.89576 19.5369 5.88326 19.6019 5.87243C19.6277 5.86827 19.6535 5.86327 19.6793 5.85911C19.7676 5.84495 19.8559 5.83245 19.945 5.82162C19.9459 5.82162 19.9467 5.82162 19.9484 5.82162C20.0367 5.8108 20.1266 5.80247 20.2166 5.79497C20.2432 5.79247 20.2707 5.7908 20.2974 5.78914C20.3657 5.78414 20.434 5.77998 20.5023 5.77664C20.5298 5.77498 20.5564 5.77415 20.5839 5.77331C20.6772 5.76998 20.7713 5.76748 20.8654 5.76748C20.8663 5.76748 20.8671 5.76748 20.8679 5.76748C20.9604 5.76748 21.0545 5.76915 21.1486 5.77165C21.1711 5.77248 21.1928 5.77331 21.2153 5.77415C21.3094 5.77748 21.4043 5.78248 21.5001 5.78914C21.511 5.78997 21.5226 5.7908 21.5343 5.79164C21.6109 5.79747 21.6884 5.80413 21.7667 5.81163C21.8266 5.81746 21.8874 5.82412 21.9483 5.83079C22.0016 5.83662 22.0549 5.84328 22.1082 5.84994C22.1698 5.85827 22.2315 5.86744 22.2931 5.8766C22.3506 5.88493 22.4072 5.89326 22.4647 5.90325C22.5038 5.90992 22.543 5.91658 22.5821 5.92324C22.6513 5.93574 22.7204 5.94823 22.7895 5.96156C22.8295 5.96905 22.8687 5.97738 22.9086 5.98488C22.9853 6.00071 23.0627 6.01736 23.1402 6.03486C23.171 6.04152 23.201 6.04818 23.2318 6.05568C23.3401 6.08067 23.4492 6.10732 23.5583 6.13648C23.5717 6.13981 23.585 6.14397 23.5983 6.1473C23.6924 6.17229 23.7874 6.19811 23.8823 6.2256C23.9132 6.23476 23.944 6.24309 23.9748 6.25225C24.0656 6.27891 24.1572 6.30723 24.2488 6.33555C24.268 6.34138 24.2863 6.34721 24.3055 6.35304C24.4154 6.38802 24.5254 6.42467 24.6362 6.46299C24.6595 6.47132 24.6836 6.47965 24.707 6.48798C24.8044 6.52213 24.9027 6.55711 25.001 6.59376C25.0176 6.59959 25.0343 6.60625 25.051 6.61209C25.1609 6.65373 25.2725 6.69704 25.3833 6.74119C25.4091 6.75119 25.4349 6.76201 25.4608 6.77284C25.5707 6.81782 25.6815 6.8628 25.7931 6.91028C25.7964 6.91194 25.7998 6.91278 25.8023 6.91444C25.9031 6.95776 26.0055 7.00273 26.1071 7.04855C26.2137 7.09602 26.3204 7.146 26.4278 7.19598C26.4686 7.21513 26.5086 7.23346 26.5494 7.25262C26.6968 7.32258 26.8443 7.39505 26.9934 7.47085C27.0234 7.48584 27.0533 7.50167 27.0833 7.51749C27.1999 7.57746 27.3174 7.63744 27.4348 7.70074C27.4865 7.72823 27.539 7.75655 27.5906 7.78487C27.6881 7.83734 27.7855 7.89148 27.8838 7.94562C27.9871 8.0031 28.0904 8.0614 28.1945 8.12137L36.7513 3.14871C36.6722 3.1029 36.5939 3.05792 36.5147 3.01378C36.4897 2.99962 36.4648 2.98712 36.4406 2.97296C36.3423 2.91799 36.2449 2.86468 36.1474 2.81221C36.1099 2.79222 36.0724 2.77056 36.0358 2.75057C36.0208 2.74307 36.0066 2.73558 35.9916 2.72725C35.8742 2.66478 35.7568 2.60397 35.6401 2.544C35.6143 2.53067 35.5877 2.51651 35.5618 2.50318C35.5577 2.50152 35.5543 2.49985 35.5502 2.49735C35.4011 2.42239 35.2528 2.34992 35.1062 2.27912C35.0979 2.27496 35.0887 2.27079 35.0804 2.26663C35.0479 2.25164 35.0163 2.23748 34.9846 2.22248C34.8772 2.17251 34.7705 2.12253 34.6639 2.07505C34.6439 2.06589 34.6231 2.05589 34.6031 2.04673C34.5215 2.01008 34.4399 1.9751 34.3591 1.94012C34.3557 1.93845 34.3524 1.93762 34.3499 1.93595C34.2741 1.90347 34.1983 1.87181 34.1225 1.84016C34.0875 1.826 34.0526 1.81184 34.0176 1.79768C33.9918 1.78685 33.9659 1.77686 33.9401 1.76603C33.836 1.72438 33.7327 1.6844 33.6303 1.64525C33.6228 1.64276 33.6153 1.63942 33.6078 1.63693C33.5911 1.63026 33.5744 1.62443 33.5578 1.6186C33.4595 1.58195 33.3612 1.54697 33.2638 1.51282C33.2404 1.50449 33.2163 1.49616 33.193 1.48783C33.1771 1.482 33.1613 1.47617 33.1455 1.47117C33.0505 1.43869 32.9564 1.40787 32.8623 1.37788C32.8431 1.37205 32.8248 1.36622 32.8056 1.36039C32.744 1.34123 32.6824 1.32124 32.6207 1.30292C32.5907 1.29375 32.5616 1.28542 32.5316 1.27709C32.5008 1.26793 32.47 1.25877 32.4391 1.25044C32.3442 1.22295 32.2492 1.19713 32.1551 1.17214C32.1418 1.16881 32.1285 1.16465 32.1151 1.16132C32.1118 1.16048 32.1076 1.15965 32.1043 1.15798C31.9985 1.1305 31.8936 1.10468 31.7886 1.08052C31.7578 1.07302 31.7278 1.06719 31.697 1.06053C31.6412 1.04804 31.5854 1.03471 31.5304 1.02305C31.5088 1.01805 31.4871 1.01472 31.4646 1.00972C31.4246 1.00139 31.3855 0.993894 31.3455 0.986398C31.2764 0.973071 31.2072 0.959744 31.1381 0.948083C31.0989 0.941419 31.0598 0.933923 31.0206 0.928092C30.999 0.92476 30.9765 0.920596 30.9548 0.916431C30.919 0.9106 30.884 0.906436 30.8491 0.901438C30.7874 0.892276 30.7258 0.883113 30.6641 0.875617C30.6108 0.868953 30.5575 0.86229 30.5042 0.856459C30.4434 0.849795 30.3834 0.843132 30.3226 0.837301C30.3002 0.834803 30.2777 0.832304 30.2552 0.829805C30.2002 0.824807 30.1452 0.820643 30.0903 0.816478C30.0786 0.815645 30.0678 0.814812 30.0561 0.813979C29.9603 0.807315 29.8654 0.802318 29.7712 0.798986C29.7487 0.798153 29.7271 0.79732 29.7046 0.796487C29.6138 0.79732 29.5197 0.795654 29.4272 0.795654C29.4264 0.795654 29.4256 0.795654 29.4247 0.795654H29.4239C29.3298 0.795654 29.2357 0.798153 29.1432 0.801485C29.1157 0.802318 29.0891 0.803984 29.0616 0.804817C28.9924 0.808148 28.9241 0.812313 28.8567 0.817311C28.83 0.818977 28.8025 0.821475 28.7759 0.823141C28.6859 0.830638 28.596 0.838967 28.5077 0.849795C28.5068 0.849795 28.506 0.849795 28.5043 0.849795C28.4144 0.860624 28.3261 0.873118 28.2386 0.887278C28.2128 0.891443 28.187 0.895607 28.162 0.900605C28.097 0.911433 28.0321 0.923927 27.9688 0.936421C27.9429 0.941419 27.9179 0.946417 27.893 0.951414C27.808 0.969739 27.723 0.988064 27.6397 1.00972C27.6389 1.00972 27.6381 1.00972 27.6381 1.01055C27.5539 1.03138 27.4715 1.0547 27.389 1.07969C27.3649 1.08718 27.3407 1.09468 27.3166 1.10218C27.2558 1.1205 27.1958 1.14049 27.1358 1.16132C27.1117 1.16965 27.0883 1.17714 27.0642 1.1863C26.9842 1.21462 26.9051 1.24461 26.8268 1.27626C26.7485 1.30791 26.671 1.34206 26.5944 1.37621C26.5719 1.38621 26.5494 1.39704 26.5269 1.40787C26.4703 1.43452 26.4145 1.46201 26.3587 1.49033C26.337 1.50116 26.3145 1.51282 26.2929 1.52448C26.2187 1.56363 26.1454 1.60361 26.073 1.64525L17.5137 6.61625C17.5861 6.5746 17.6594 6.53462 17.7336 6.49547C17.7552 6.48381 17.7777 6.47298 17.7994 6.46132C17.8552 6.433 17.911 6.40552 17.9676 6.37969Z" fill="url(#paint8_linear_339_8221)"/>
<path d="M50.6576 26.3561C50.6576 26.3411 50.6576 26.3269 50.6576 26.312C50.6576 26.1812 50.6567 26.0504 50.6551 25.9196C50.6551 25.913 50.6542 25.9071 50.6542 25.9005C50.6526 25.8263 50.6501 25.7522 50.6484 25.6781C50.6467 25.6139 50.6459 25.5506 50.6434 25.4865C50.6434 25.4807 50.6426 25.4748 50.6426 25.469C50.6401 25.3949 50.6351 25.3199 50.6317 25.2458C50.6284 25.1817 50.6259 25.1183 50.6226 25.0542C50.6226 25.0492 50.6217 25.0434 50.6217 25.0384C50.6151 24.9251 50.6068 24.811 50.5984 24.6977C50.5959 24.6652 50.5943 24.6327 50.5918 24.6011C50.5918 24.5994 50.5918 24.5978 50.5909 24.5961C50.5793 24.447 50.5651 24.2979 50.5501 24.1488C50.5501 24.1455 50.5493 24.1421 50.5493 24.1388C50.5451 24.0988 50.5401 24.0597 50.536 24.0197C50.5243 23.9139 50.5126 23.8073 50.5001 23.7015C50.4993 23.6932 50.4985 23.6849 50.4976 23.6765C50.4926 23.639 50.4876 23.6016 50.4826 23.5641C50.4685 23.4525 50.4535 23.3408 50.4377 23.2292C50.4352 23.2109 50.4327 23.1926 50.4302 23.1734C50.4243 23.1351 50.4177 23.0976 50.4118 23.0593C50.396 22.9544 50.3794 22.8494 50.3619 22.7445C50.3569 22.7153 50.3527 22.6862 50.3477 22.657C50.3427 22.627 50.3369 22.597 50.331 22.567C50.3127 22.4596 50.2927 22.3521 50.2727 22.2447C50.2661 22.208 50.2594 22.1706 50.2528 22.1339C50.2494 22.1173 50.2461 22.1014 50.2428 22.0856C50.2078 21.9049 50.1703 21.7249 50.1303 21.5442C50.1286 21.5367 50.127 21.5292 50.1253 21.5209C50.1203 21.4967 50.1137 21.4734 50.1087 21.4492C50.0745 21.296 50.0387 21.1435 50.0012 20.9903C49.9945 20.9636 49.9887 20.9361 49.9821 20.9095C49.9737 20.8753 49.9646 20.8412 49.9554 20.807C49.9412 20.7504 49.9262 20.6938 49.9121 20.6371C49.8913 20.5572 49.8704 20.4772 49.8488 20.3972C49.8338 20.3414 49.8188 20.2856 49.803 20.2298C49.7955 20.2023 49.788 20.1748 49.7805 20.1482C49.7671 20.1007 49.753 20.0541 49.7397 20.0066C49.7205 19.9383 49.7005 19.8708 49.6805 19.8033C49.6589 19.7309 49.6372 19.6584 49.6147 19.5859C49.5939 19.5185 49.5731 19.451 49.5523 19.3835C49.5448 19.3611 49.5381 19.3377 49.5314 19.3152C49.5223 19.2861 49.5114 19.2561 49.5023 19.2269C49.4573 19.0878 49.4115 18.9496 49.3648 18.8113C49.3498 18.7672 49.3349 18.7222 49.3199 18.678C49.2599 18.504 49.1974 18.3299 49.1333 18.1566C49.1308 18.1491 49.1283 18.1416 49.1258 18.135C49.1075 18.0867 49.0883 18.0375 49.07 17.9892C49.0375 17.9026 49.005 17.8159 48.9717 17.7302C48.9484 17.6693 48.9234 17.6094 48.9001 17.5486C48.8676 17.4661 48.8351 17.3837 48.8009 17.3012C48.7751 17.2387 48.7493 17.1762 48.7235 17.1146C48.6902 17.0346 48.6568 16.9547 48.6227 16.8747C48.596 16.8114 48.5677 16.7481 48.5402 16.6848C48.5061 16.6065 48.4719 16.5282 48.4369 16.4508C48.4086 16.3866 48.3795 16.3233 48.3503 16.2592C48.3153 16.1825 48.2803 16.1051 48.2445 16.0285C48.2145 15.9643 48.1846 15.901 48.1546 15.8369C48.1179 15.7602 48.0821 15.6845 48.0446 15.6078C48.0138 15.5445 47.983 15.4812 47.9513 15.4179C47.9139 15.3421 47.8764 15.2663 47.8381 15.1905C47.8064 15.1272 47.7739 15.0647 47.7423 15.0014C47.7031 14.9256 47.664 14.8507 47.6248 14.7749C47.604 14.7357 47.584 14.6966 47.564 14.6574C47.5549 14.6408 47.5457 14.6241 47.5365 14.6066C47.4416 14.4292 47.3458 14.2518 47.2475 14.076C47.2308 14.0452 47.2134 14.0152 47.1959 13.9844C47.1084 13.8287 47.0193 13.6746 46.9293 13.5205C46.9152 13.4963 46.9018 13.4722 46.8877 13.4488C46.8777 13.4313 46.8668 13.4147 46.8569 13.3972C46.8069 13.3131 46.7561 13.2298 46.7061 13.1465C46.6744 13.0948 46.6436 13.0424 46.6111 12.9907C46.5537 12.8966 46.4945 12.8025 46.4354 12.7092C46.4129 12.6734 46.3912 12.6376 46.3687 12.6017C46.3654 12.5967 46.3621 12.5909 46.3588 12.5859C46.3329 12.5451 46.3063 12.5043 46.2796 12.4635C46.228 12.3827 46.1755 12.3019 46.123 12.2211C46.0914 12.1728 46.0597 12.1253 46.0281 12.0778C45.9906 12.0212 45.9531 11.9637 45.9148 11.9071C45.9073 11.8962 45.8998 11.8862 45.8931 11.8754C45.7782 11.7047 45.6607 11.5356 45.5425 11.3673C45.5325 11.3532 45.5225 11.3382 45.5125 11.324C45.4958 11.3007 45.4783 11.2774 45.4617 11.254C45.3634 11.1166 45.2651 10.9792 45.1643 10.8434C45.1493 10.8226 45.1343 10.8017 45.1193 10.7809C45.1127 10.7726 45.106 10.7643 45.1002 10.7551C44.9919 10.6085 44.8819 10.4636 44.7712 10.3186C44.7637 10.3095 44.757 10.2995 44.7503 10.2903C44.7295 10.2628 44.707 10.2362 44.6862 10.2087C44.6062 10.1062 44.5263 10.0038 44.4455 9.90217C44.428 9.88051 44.4105 9.85803 44.393 9.83554C44.3739 9.81221 44.3547 9.78889 44.3355 9.76557C44.2581 9.66895 44.1798 9.57316 44.1006 9.4782C44.0773 9.45072 44.0548 9.4224 44.0323 9.39408C44.0215 9.38158 44.0107 9.36909 44.0007 9.35659C43.9207 9.26081 43.8408 9.16585 43.76 9.07173C43.7383 9.04674 43.7175 9.02092 43.6958 8.99593C43.6925 8.99177 43.6883 8.9876 43.685 8.98427C43.5792 8.86099 43.4726 8.73938 43.3643 8.61861C43.3602 8.61361 43.356 8.60945 43.3518 8.60445C43.326 8.57613 43.3002 8.54781 43.2752 8.51949C43.1986 8.4337 43.1211 8.3479 43.0436 8.26378C43.0328 8.25211 43.0228 8.24045 43.012 8.22879C42.9803 8.19464 42.9479 8.16049 42.9162 8.12634C42.8529 8.05804 42.7896 7.99057 42.7263 7.9231C42.7105 7.90644 42.6955 7.88978 42.6805 7.87396C42.6505 7.84231 42.6205 7.81232 42.5905 7.78067C42.5281 7.7157 42.4664 7.65156 42.4031 7.58743C42.3831 7.5666 42.3631 7.54578 42.3431 7.52496C42.3157 7.49747 42.2882 7.46998 42.2607 7.4425C42.2007 7.38169 42.1399 7.32172 42.0799 7.26175C42.0558 7.23759 42.0316 7.2126 42.0075 7.18928C41.9825 7.16513 41.9575 7.14097 41.9333 7.11681C41.875 7.05934 41.8159 7.0027 41.7568 6.94606C41.7293 6.91941 41.7018 6.89192 41.6735 6.86527C41.651 6.84361 41.6285 6.82362 41.606 6.80196C41.5468 6.74532 41.4869 6.68952 41.4269 6.63371C41.3961 6.60539 41.3661 6.57624 41.3353 6.54708C41.3153 6.52876 41.2953 6.51127 41.2753 6.49294C41.2153 6.43797 41.1554 6.38383 41.0954 6.32969C41.0621 6.2997 41.0288 6.26888 40.9954 6.23889C40.978 6.22307 40.9605 6.20808 40.943 6.19225C40.883 6.13894 40.823 6.08647 40.7631 6.03399C40.7272 6.00234 40.6914 5.97069 40.6548 5.93904C40.6389 5.92571 40.624 5.91238 40.6081 5.89905C40.5473 5.84658 40.4865 5.79494 40.4249 5.74329C40.3866 5.71081 40.3482 5.67749 40.3099 5.64584C40.2966 5.63501 40.2833 5.62418 40.27 5.61252C40.2075 5.56005 40.1442 5.50924 40.0817 5.4576C40.0417 5.42511 40.0017 5.39179 39.9618 5.35931C39.9509 5.35015 39.9393 5.34182 39.9284 5.33265C39.8626 5.28018 39.7968 5.2277 39.731 5.17606C39.6902 5.14358 39.6494 5.11026 39.6086 5.07861C39.6003 5.07194 39.5919 5.06528 39.5828 5.05862C39.5136 5.00531 39.4445 4.952 39.3754 4.89952C39.3337 4.86787 39.2929 4.83539 39.2513 4.80457C39.2454 4.8004 39.2396 4.79541 39.2338 4.79124C39.1546 4.73127 39.0747 4.67296 38.9955 4.61466C38.9597 4.58884 38.9247 4.56218 38.8898 4.53636C38.8873 4.5347 38.8839 4.5322 38.8814 4.53053C38.7623 4.44391 38.6424 4.35811 38.5224 4.27399C38.5208 4.27315 38.5199 4.27232 38.5183 4.27149C38.4966 4.25649 38.4741 4.2415 38.4516 4.22567C38.355 4.15821 38.2576 4.09074 38.1601 4.02494C38.1543 4.0216 38.1493 4.01744 38.1435 4.01411C38.1076 3.98995 38.071 3.96663 38.0352 3.94247C37.9544 3.88833 37.8727 3.83419 37.7911 3.78172C37.7811 3.77505 37.7703 3.76756 37.7603 3.76089C37.7245 3.73757 37.6878 3.71508 37.652 3.69259C37.5729 3.64178 37.4938 3.59181 37.4138 3.54183C37.3971 3.53183 37.3805 3.52017 37.3638 3.51018C37.3297 3.48935 37.2955 3.46853 37.2614 3.44771C37.1856 3.40106 37.1098 3.35525 37.034 3.31027C37.0106 3.29695 36.9882 3.28195 36.9648 3.26863C36.8965 3.22864 36.8282 3.18866 36.7599 3.14868L28.2031 8.12134C28.2947 8.17382 28.3855 8.22879 28.4772 8.28293C28.553 8.32791 28.6288 8.37456 28.7046 8.42037C28.7554 8.45119 28.8062 8.48284 28.857 8.51449C28.9369 8.56363 29.0161 8.61444 29.0952 8.66525C29.1419 8.69524 29.1885 8.72439 29.2343 8.75438C29.3159 8.80769 29.3976 8.86183 29.4792 8.91597C29.52 8.94346 29.5617 8.97011 29.6025 8.9976C29.6999 9.0634 29.7974 9.13087 29.8948 9.19834C29.9182 9.21416 29.9415 9.22999 29.9648 9.24665C30.0847 9.33077 30.2047 9.41657 30.3238 9.50319C30.3621 9.53068 30.4004 9.55983 30.4387 9.58815C30.5187 9.64646 30.5978 9.7056 30.677 9.76474C30.7244 9.80055 30.7711 9.8372 30.8186 9.87302C30.8877 9.92549 30.9568 9.9788 31.026 10.0321C31.0751 10.0704 31.1251 10.1104 31.1742 10.1496C31.24 10.202 31.3058 10.2537 31.3716 10.3061C31.4224 10.347 31.4733 10.3894 31.5241 10.4311C31.5874 10.4827 31.6507 10.5344 31.7131 10.5868C31.7648 10.6293 31.8156 10.6735 31.8664 10.7168C31.928 10.7693 31.9897 10.8209 32.0505 10.8734C32.1021 10.9175 32.1538 10.9625 32.2046 11.0075C32.2645 11.06 32.3254 11.1124 32.3853 11.1657C32.4361 11.2116 32.4869 11.2574 32.5386 11.3032C32.5986 11.3573 32.6585 11.4115 32.7185 11.4664C32.7693 11.5131 32.8193 11.5597 32.8701 11.6072C32.9301 11.663 32.9892 11.7188 33.0492 11.7755C33.0992 11.8229 33.1491 11.8712 33.1991 11.9187C33.2582 11.9754 33.3166 12.032 33.3757 12.0895C33.4248 12.1378 33.474 12.1861 33.5231 12.2344C33.5839 12.2944 33.6439 12.3552 33.7047 12.416C33.7522 12.4643 33.7997 12.5118 33.8471 12.5601C33.9096 12.6242 33.9721 12.6892 34.0346 12.7542C34.0804 12.8016 34.1253 12.8483 34.1703 12.8966C34.2336 12.9641 34.2969 13.0315 34.3602 13.0998C34.4027 13.1456 34.4452 13.1915 34.4877 13.2373C34.5651 13.3222 34.6426 13.4072 34.7192 13.493C34.7492 13.5263 34.7792 13.5588 34.8084 13.5921C34.9158 13.7129 35.0233 13.8353 35.129 13.9578C35.154 13.9869 35.1782 14.0161 35.2032 14.0444C35.284 14.1393 35.3648 14.2343 35.4447 14.3301C35.478 14.3701 35.5114 14.4109 35.5447 14.4517C35.6238 14.5475 35.7021 14.6433 35.7796 14.7391C35.8162 14.784 35.8529 14.8299 35.8887 14.8757C35.9695 14.9773 36.0494 15.0797 36.1294 15.1822C36.1577 15.2188 36.1869 15.2555 36.2152 15.2921C36.326 15.4362 36.4359 15.582 36.5442 15.7286C36.5659 15.7577 36.5867 15.7869 36.6083 15.8161C36.7083 15.9518 36.8074 16.0893 36.9057 16.2267C36.9324 16.2642 36.9598 16.3017 36.9865 16.34C37.1048 16.5082 37.2222 16.6773 37.3372 16.8481C37.383 16.9155 37.428 16.983 37.4729 17.0513C37.5046 17.0988 37.5362 17.1471 37.5679 17.1946C37.6204 17.2754 37.6728 17.3562 37.7245 17.437C37.7511 17.4778 37.777 17.5186 37.8036 17.5594C37.8294 17.6002 37.8553 17.6419 37.8811 17.6827C37.9402 17.776 37.9985 17.8701 38.0568 17.9642C38.0885 18.0159 38.1201 18.0683 38.1518 18.12C38.2026 18.2033 38.2526 18.2874 38.3025 18.3707C38.3267 18.4115 38.3509 18.4531 38.375 18.494C38.465 18.6481 38.5541 18.8022 38.6415 18.9579C38.659 18.9887 38.6765 19.0187 38.6932 19.0487C38.7915 19.2245 38.8881 19.4019 38.9822 19.5793C39.0122 19.6351 39.0414 19.6909 39.0705 19.7467C39.1105 19.8225 39.1496 19.8975 39.1888 19.9733C39.2213 20.0357 39.2529 20.099 39.2846 20.1615C39.3229 20.2373 39.3604 20.3131 39.3979 20.3889C39.4287 20.4522 39.4603 20.5155 39.4911 20.5788C39.5278 20.6546 39.5644 20.7312 39.6011 20.8079C39.6311 20.8712 39.6611 20.9353 39.6911 20.9995C39.7269 21.0761 39.7619 21.1527 39.7968 21.2302C39.826 21.2943 39.8551 21.3576 39.8835 21.4218C39.9184 21.5 39.9526 21.5775 39.9868 21.6558C40.0142 21.7191 40.0417 21.7824 40.0692 21.8457C40.1034 21.9257 40.1367 22.0056 40.17 22.0856C40.1958 22.1481 40.2216 22.2097 40.2475 22.2722C40.2808 22.3546 40.3133 22.4371 40.3466 22.5196C40.3707 22.5804 40.3949 22.6403 40.4182 22.7011C40.4515 22.7869 40.484 22.8736 40.5165 22.9602C40.5373 23.016 40.559 23.0718 40.5798 23.1276C40.6439 23.3009 40.7056 23.475 40.7664 23.649C40.7814 23.6932 40.7964 23.7382 40.8114 23.7823C40.8588 23.9206 40.9047 24.0588 40.9488 24.1979C40.9655 24.2504 40.9829 24.3029 40.9996 24.3545C41.0213 24.422 41.0413 24.4895 41.0621 24.5569C41.0846 24.6294 41.1062 24.7019 41.1279 24.7743C41.1479 24.8426 41.1679 24.9101 41.187 24.9784C41.2087 25.0525 41.2295 25.1267 41.2503 25.2008C41.2661 25.2566 41.2811 25.3133 41.2961 25.3691C41.3178 25.4482 41.3386 25.5282 41.3594 25.6073C41.3744 25.6639 41.3886 25.7214 41.4036 25.778C41.4186 25.8388 41.4336 25.9005 41.4486 25.9613C41.486 26.1137 41.5219 26.267 41.556 26.4202C41.5627 26.4519 41.571 26.4835 41.5777 26.5152C41.6176 26.6951 41.6543 26.8759 41.6901 27.0566C41.7001 27.1099 41.7101 27.1632 41.7201 27.2157C41.7401 27.3231 41.7601 27.4306 41.7784 27.538C41.7884 27.5972 41.7992 27.6572 41.8084 27.7163C41.8259 27.8212 41.8425 27.9262 41.8584 28.0311C41.8667 28.0878 41.8759 28.1444 41.8842 28.2011C41.9 28.3127 41.915 28.4243 41.9292 28.5359C41.935 28.5817 41.9417 28.6275 41.9475 28.6733C41.9608 28.7791 41.9717 28.8857 41.9833 28.9915C41.9883 29.0348 41.9933 29.0773 41.9975 29.1206C42.0125 29.2697 42.0266 29.4188 42.0383 29.5679C42.0408 29.6021 42.0433 29.6354 42.0458 29.6695C42.0541 29.7828 42.0624 29.8969 42.0691 30.0102C42.0733 30.0793 42.0758 30.1485 42.0791 30.2184C42.0824 30.2926 42.0866 30.3675 42.0899 30.4417C42.0924 30.5116 42.0941 30.5808 42.0958 30.6507C42.0983 30.7249 42.1008 30.799 42.1016 30.8731C42.1041 31.0106 42.1049 31.1472 42.1049 31.2838C42.1049 31.3579 42.1033 31.4295 42.1024 31.502C42.1016 31.5911 42.1008 31.6803 42.0983 31.7677C42.0966 31.8352 42.0941 31.9002 42.0916 31.966C42.0891 32.0493 42.0866 32.1325 42.0824 32.2142C42.0791 32.29 42.0741 32.3649 42.0699 32.4391C42.0666 32.504 42.0633 32.569 42.0583 32.6323C42.0524 32.7156 42.0458 32.7972 42.0391 32.8789C42.035 32.9297 42.0316 32.9813 42.0266 33.0305C42.0183 33.1254 42.0083 33.2187 41.9983 33.3112C41.9941 33.3461 41.9916 33.3811 41.9875 33.4161C41.9733 33.5394 41.9583 33.6602 41.9417 33.7793C41.9367 33.8126 41.9317 33.8451 41.9267 33.8784C41.9142 33.9625 41.9017 34.0475 41.8884 34.1299C41.8817 34.1724 41.8734 34.2149 41.8659 34.2565C41.8534 34.3282 41.8409 34.399 41.8275 34.4689C41.8192 34.5106 41.8109 34.5522 41.8026 34.5939C41.7892 34.6614 41.7751 34.728 41.7601 34.7938C41.7509 34.8354 41.7418 34.8771 41.7318 34.9179C41.7168 34.9829 41.7009 35.047 41.6851 35.1111C41.6751 35.1503 41.666 35.1886 41.656 35.2269C41.6385 35.2944 41.6193 35.361 41.601 35.4268C41.5918 35.4593 41.5827 35.4918 41.5735 35.5243C41.5469 35.6151 41.5185 35.705 41.4902 35.7933C41.4885 35.7992 41.4869 35.805 41.4852 35.81C41.4544 35.9033 41.4227 35.9949 41.3894 36.0849C41.3778 36.1173 41.3653 36.1482 41.3536 36.1798C41.3311 36.2381 41.3095 36.2973 41.2861 36.3539C41.272 36.3889 41.257 36.423 41.2428 36.458C41.2212 36.5097 41.1995 36.5613 41.1762 36.6121C41.1595 36.6496 41.1429 36.6862 41.1254 36.7229C41.1037 36.7695 41.0821 36.8162 41.0596 36.862C41.0396 36.9028 41.0196 36.9428 40.9988 36.9828C40.9771 37.0252 40.9546 37.0686 40.933 37.1102C40.9121 37.1494 40.8913 37.1877 40.8697 37.226C40.8472 37.266 40.8247 37.3051 40.8022 37.3443C40.7764 37.3892 40.7497 37.4334 40.7231 37.4767C40.7014 37.5117 40.6798 37.5475 40.6573 37.5816C40.6273 37.6291 40.5965 37.6749 40.5656 37.7207C40.5448 37.7516 40.524 37.7832 40.5023 37.8132C40.4607 37.8732 40.4174 37.9315 40.3741 37.9898C40.3607 38.0081 40.3474 38.0273 40.3333 38.0448C40.2716 38.1256 40.2083 38.2039 40.1442 38.2805C40.1284 38.2988 40.1125 38.3171 40.0967 38.3355C40.0392 38.4021 39.9801 38.4679 39.9209 38.532C39.8985 38.5562 39.8751 38.5812 39.8526 38.6053C39.8343 38.6245 39.8152 38.6437 39.796 38.6628C39.7594 38.6995 39.7227 38.7361 39.6861 38.7719C39.6677 38.7902 39.6486 38.8077 39.6303 38.8252C39.5994 38.8544 39.5678 38.8835 39.5361 38.9119C39.5053 38.9402 39.4745 38.9677 39.4437 38.9951C39.4129 39.0218 39.3812 39.0485 39.3504 39.0751C39.3187 39.1018 39.2871 39.1284 39.2554 39.1542C39.2304 39.1742 39.2055 39.1934 39.1813 39.2134C39.1297 39.2542 39.0772 39.295 39.0239 39.3342C38.998 39.3533 38.9722 39.3725 38.9456 39.3916C38.8898 39.4316 38.834 39.4716 38.7765 39.5107C38.754 39.5257 38.7323 39.5416 38.7107 39.5566C38.6632 39.5882 38.6141 39.6199 38.5658 39.6507C38.5416 39.6657 38.5183 39.6815 38.4941 39.6965C38.4217 39.7415 38.3484 39.7856 38.2742 39.8289C38.2734 39.8289 38.2734 39.8298 38.2726 39.8298L46.8294 34.8571C46.9035 34.8138 46.9776 34.7696 47.0501 34.7238C47.0743 34.7088 47.0976 34.693 47.1217 34.678C47.17 34.6472 47.2192 34.6155 47.2667 34.5839C47.2725 34.5797 47.2792 34.5756 47.2858 34.5714C47.3016 34.5606 47.3175 34.5489 47.3333 34.5381C47.3899 34.4989 47.4466 34.4598 47.5024 34.419C47.5282 34.3998 47.554 34.3807 47.5798 34.3615C47.6332 34.3215 47.6856 34.2815 47.7373 34.2399C47.7531 34.2274 47.7698 34.2157 47.7856 34.2032C47.7947 34.1966 47.8031 34.1882 47.8114 34.1816C47.8439 34.1558 47.8755 34.1283 47.9072 34.1016C47.938 34.075 47.9697 34.0491 48.0005 34.0225C48.0321 33.995 48.063 33.9667 48.0938 33.9392C48.1163 33.9192 48.1387 33.9 48.1604 33.8792C48.1696 33.8709 48.1787 33.8617 48.1879 33.8526C48.2071 33.8351 48.2254 33.8168 48.2437 33.7984C48.2803 33.7626 48.317 33.7268 48.3536 33.6901C48.3728 33.671 48.392 33.6518 48.4103 33.6318C48.4219 33.6193 48.4336 33.6077 48.4453 33.596C48.4569 33.5844 48.4669 33.571 48.4786 33.5594C48.5386 33.4952 48.5969 33.4303 48.6543 33.3628C48.6652 33.3503 48.6768 33.3386 48.6877 33.3261C48.6927 33.3203 48.6968 33.3137 48.7018 33.3087C48.766 33.232 48.8293 33.1537 48.8909 33.0729C48.8926 33.0704 48.8951 33.0679 48.8976 33.0654C48.9092 33.0504 48.92 33.0338 48.9317 33.018C48.975 32.9597 49.0183 32.9014 49.06 32.8414C49.0658 32.8322 49.0725 32.8247 49.0791 32.8156C49.0941 32.7939 49.1083 32.7706 49.1233 32.7489C49.1541 32.7031 49.1849 32.6565 49.2149 32.6098C49.2232 32.5965 49.2324 32.584 49.2407 32.5707C49.2541 32.549 49.2666 32.5265 49.2799 32.5049C49.3065 32.4607 49.3332 32.4166 49.3598 32.3724C49.3698 32.3558 49.3798 32.3399 49.389 32.3233C49.4015 32.3008 49.414 32.2775 49.4265 32.255C49.4481 32.2167 49.469 32.1784 49.4898 32.1392C49.4989 32.1217 49.5089 32.1042 49.5189 32.0867C49.5314 32.0626 49.5439 32.0368 49.5564 32.0118C49.5764 31.9718 49.5972 31.9318 49.6172 31.891C49.6256 31.8735 49.6347 31.8568 49.643 31.8394C49.6564 31.811 49.6697 31.781 49.683 31.7527C49.6997 31.7161 49.7172 31.6794 49.7338 31.6419C49.7405 31.6269 49.748 31.612 49.7547 31.597C49.7705 31.5611 49.7846 31.5245 49.8005 31.4879C49.8146 31.4529 49.8296 31.4187 49.8438 31.3837C49.8479 31.3729 49.8529 31.3621 49.8571 31.3512C49.8754 31.3046 49.8929 31.2571 49.9112 31.2096C49.9229 31.178 49.9354 31.1472 49.9471 31.1147C49.9496 31.108 49.9521 31.1022 49.9537 31.0964C49.9837 31.0131 50.0137 30.9281 50.042 30.8415C50.042 30.8407 50.042 30.8407 50.0429 30.8398C50.0445 30.834 50.0462 30.8282 50.0479 30.8223C50.0737 30.7424 50.0995 30.6616 50.1245 30.5783C50.127 30.5699 50.1286 30.5616 50.1311 30.5533C50.1403 30.5208 50.1495 30.4883 50.1586 30.455C50.1728 30.4059 50.187 30.3567 50.2011 30.3059C50.2053 30.2892 50.2094 30.2718 50.2136 30.2551C50.2236 30.2168 50.2336 30.1776 50.2436 30.1385C50.2528 30.101 50.2628 30.0644 50.2719 30.026C50.2786 29.9994 50.2836 29.9727 50.2902 29.9461C50.3002 29.9053 50.3094 29.8636 50.3186 29.822C50.3244 29.7936 50.3319 29.7662 50.3377 29.7378C50.346 29.7004 50.3527 29.6612 50.361 29.6229C50.3694 29.5812 50.3777 29.5396 50.386 29.4971C50.3894 29.478 50.3935 29.4588 50.3977 29.4396C50.4069 29.3888 50.4152 29.3372 50.4243 29.2856C50.4318 29.2431 50.4393 29.2006 50.4468 29.1573C50.4485 29.1448 50.451 29.134 50.4535 29.1215C50.4652 29.0507 50.4752 28.9782 50.486 28.9066C50.491 28.8732 50.496 28.8408 50.501 28.8074C50.5018 28.8024 50.5026 28.7974 50.5035 28.7924C50.5193 28.6808 50.5335 28.5667 50.5468 28.4509C50.5468 28.4484 50.5476 28.4459 50.5476 28.4443C50.5518 28.4101 50.5543 28.3743 50.5584 28.3393C50.5676 28.2527 50.5776 28.1661 50.5851 28.077C50.5859 28.0711 50.5859 28.0645 50.5868 28.0586C50.5909 28.0087 50.5951 27.957 50.5993 27.907C50.6051 27.8346 50.6118 27.7638 50.6168 27.6905C50.6176 27.6805 50.6176 27.6705 50.6184 27.6605C50.6226 27.5972 50.6259 27.5314 50.6301 27.4664C50.6334 27.4031 50.6384 27.3406 50.6409 27.2765C50.6417 27.2648 50.6417 27.2532 50.6426 27.2415C50.6459 27.1599 50.6484 27.0766 50.6517 26.9933C50.6534 26.9367 50.6567 26.8808 50.6576 26.8234C50.6576 26.8142 50.6576 26.8042 50.6584 26.7951C50.6609 26.7076 50.6609 26.6185 50.6626 26.5294C50.6559 26.4727 50.6576 26.4152 50.6576 26.3561Z" fill="url(#paint9_linear_339_8221)"/>
<path d="M28.1847 8.16389C35.8353 12.581 42.114 22.1681 42.0882 31.3255C42.0657 39.2009 38.1517 40.3346 33.598 41.559L32.7193 41.8772C29.2834 42.92 28.2397 45.0698 28.2255 50.015L28.2247 50.3815C28.2197 52.1215 28.2147 54.044 25.7434 52.6171C23.5119 51.3286 23.1987 49.2221 23.2029 47.7569L23.2046 47.1164C23.2229 40.5228 25.3086 37.1402 29.7032 35.5502C30.1022 35.4136 30.5819 35.3236 30.9018 35.1412C34.1777 34.2808 37.0539 33.4653 37.068 28.5193C37.0847 22.6587 33.0299 16.7407 28.0889 13.8879C22.8289 10.851 18.755 12.167 18.7375 18.3033C18.7333 19.7693 18.1703 21.0953 16.3378 20.0366C14.9026 19.207 13.7099 17.4179 13.7149 15.7695C13.7423 6.06238 19.737 3.28619 28.1847 8.16389Z" fill="url(#paint10_linear_339_8221)"/>
</g>
<defs>
<linearGradient id="paint0_linear_339_8221" x1="54.2659" y1="0.0266583" x2="54.6219" y2="14.7445" gradientUnits="userSpaceOnUse">
<stop stop-color="#C3A9D9"/>
<stop offset="1" stop-color="#8C57BC"/>
</linearGradient>
<linearGradient id="paint1_linear_339_8221" x1="6.09416" y1="23.6971" x2="6.60264" y2="44.7225" gradientUnits="userSpaceOnUse">
<stop stop-color="#C3A9D9"/>
<stop offset="1" stop-color="#8C57BC"/>
</linearGradient>
<linearGradient id="paint2_linear_339_8221" x1="48.9495" y1="55.0324" x2="55.4643" y2="49.6108" gradientUnits="userSpaceOnUse">
<stop stop-color="#351053"/>
<stop offset="1" stop-color="#814DB2"/>
</linearGradient>
<linearGradient id="paint3_linear_339_8221" x1="26.0693" y1="62.3044" x2="34.5672" y2="54.6371" gradientUnits="userSpaceOnUse">
<stop stop-color="#351053"/>
<stop offset="1" stop-color="#814DB2"/>
</linearGradient>
<linearGradient id="paint4_linear_339_8221" x1="24.3335" y1="56.2058" x2="24.5978" y2="64.7627" gradientUnits="userSpaceOnUse">
<stop stop-color="#C3A9D9"/>
<stop offset="1" stop-color="#8C57BC"/>
</linearGradient>
<linearGradient id="paint5_linear_339_8221" x1="29.9552" y1="50.2476" x2="39.2705" y2="44.2051" gradientUnits="userSpaceOnUse">
<stop stop-color="#351053"/>
<stop offset="1" stop-color="#814DB2"/>
</linearGradient>
<linearGradient id="paint6_linear_339_8221" x1="20.2783" y1="18.0637" x2="28.2393" y2="11.8726" gradientUnits="userSpaceOnUse">
<stop stop-color="#351053"/>
<stop offset="1" stop-color="#814DB2"/>
</linearGradient>
<linearGradient id="paint7_linear_339_8221" x1="30.8568" y1="35.0244" x2="35.218" y2="27.6889" gradientUnits="userSpaceOnUse">
<stop stop-color="#351053"/>
<stop offset="1" stop-color="#814DB2"/>
</linearGradient>
<linearGradient id="paint8_linear_339_8221" x1="21.2641" y1="6.82965" x2="24.9367" y2="-1.19641" gradientUnits="userSpaceOnUse">
<stop stop-color="#351053"/>
<stop offset="1" stop-color="#814DB2"/>
</linearGradient>
<linearGradient id="paint9_linear_339_8221" x1="32.5817" y1="33.3619" x2="52.2422" y2="23.344" gradientUnits="userSpaceOnUse">
<stop stop-color="#351053"/>
<stop offset="1" stop-color="#814DB2"/>
</linearGradient>
<linearGradient id="paint10_linear_339_8221" x1="17.2953" y1="-1117.73" x2="38.5521" y2="-1117.72" gradientUnits="userSpaceOnUse">
<stop stop-color="#B5A7FF"/>
<stop offset="0.484375" stop-color="#7B61FF"/>
<stop offset="1" stop-color="#5793CE"/>
</linearGradient>
<clipPath id="clip0_339_8221">
<rect width="64" height="64" fill="white" transform="translate(0 0.795654)"/>
</clipPath>
</defs>
</svg>
