<svg width="1170" height="586" viewBox="0 0 1170 586" fill="none" xmlns="http://www.w3.org/2000/svg">
    <path
        d="M769.205 583.517C767.383 583.517 765.562 583.051 763.931 582.098L679 532.5L679.699 531.293L764.609 580.891C767.447 582.522 770.963 582.522 773.801 580.87L797.544 567.06L930.514 490.281C931.128 489.921 931.488 489.286 931.488 488.587C931.488 487.867 931.128 487.232 930.514 486.893L792.609 407.276L793.308 406.069L931.213 485.685C932.272 486.3 932.886 487.38 932.886 488.587C932.886 489.794 932.251 490.875 931.213 491.489L798.243 568.267L774.5 582.077C772.869 583.03 771.026 583.496 769.205 583.517Z"
        fill="url(#paint0_linear_521_27014)" />
    <path
        d="M249.398 385.947L248.699 384.74L345.027 329.121C348.416 327.172 352.61 327.172 355.999 329.121L401.028 355.109L400.329 356.316L355.3 330.328C352.334 328.612 348.67 328.612 345.705 330.328L249.398 385.947Z"
        fill="url(#paint1_linear_521_27014)" />
    <path
        d="M929.837 385.947L833.508 330.328C830.543 328.612 826.879 328.612 823.914 330.328L778.884 356.316L778.186 355.109L823.215 329.121C826.604 327.172 830.797 327.172 834.186 329.121L930.514 384.74L929.837 385.947Z"
        fill="url(#paint2_linear_521_27014)" />
    <path
        d="M425.088 429.939C423.818 429.939 422.61 429.685 421.678 429.134L345.027 384.888C344.031 384.316 343.502 383.49 343.502 382.58C343.502 381.521 344.243 380.483 345.556 379.741L421.17 336.089C423.479 334.754 426.889 334.627 428.901 335.792L505.552 380.038C506.548 380.61 507.077 381.436 507.077 382.347C507.077 383.406 506.336 384.443 505.023 385.185L429.409 428.837C428.16 429.579 426.592 429.939 425.088 429.939ZM422.272 428.117C423.902 429.07 426.91 428.922 428.816 427.821L504.43 384.168C505.341 383.639 505.891 382.961 505.891 382.347C505.891 381.732 505.383 381.309 504.959 381.076L428.308 336.83C426.677 335.877 423.669 336.025 421.763 337.127L346.149 380.779C345.239 381.309 344.688 381.987 344.688 382.601C344.688 383.215 345.196 383.639 345.62 383.872L422.272 428.117Z"
        fill="url(#paint3_linear_521_27014)" />
    <path d="M506.484 350.089V359.493L425.088 406.471L343.713 359.493V350.089H506.484Z"
        fill="url(#paint4_linear_521_27014)" />
    <path d="M425.088 397.067L343.713 350.089L425.088 303.09L506.484 350.089L425.088 397.067Z" fill="#BCBEFF" />
    <path
        d="M425.088 395.987L344.645 349.538L343.713 350.089L425.088 397.067L506.484 350.089L505.53 349.538L425.088 395.987Z"
        fill="white" />
    <path d="M425.088 386.243L362.5 350.089L425.088 313.955L487.697 350.089L425.088 386.243Z" fill="#0F054C" />
    <path opacity="0.5" d="M425.088 386.243L362.5 350.089L425.088 313.955L487.697 350.089L425.088 386.243Z"
        fill="url(#paint5_linear_521_27014)" />
    <path opacity="0.5" d="M425.088 304.848L487.697 340.981V350.089L425.088 313.955V304.848Z"
        fill="url(#paint6_linear_521_27014)" />
    <path opacity="0.5" d="M425.088 313.955L362.5 350.089V340.981L425.088 304.848V313.955Z"
        fill="url(#paint7_linear_521_27014)" />
    <path opacity="0.5" d="M425.088 377.115L362.5 340.981L425.088 304.848L487.697 340.981L425.088 377.115Z"
        fill="url(#paint8_linear_521_27014)" />
    <path opacity="0.5" d="M425.088 355.426L400.074 340.981L425.088 326.536L450.102 340.981L425.088 355.426Z"
        fill="url(#paint9_linear_521_27014)" />
    <path
        d="M425.088 327.871L448.958 341.638L450.102 340.981L425.088 326.536L400.074 340.981L401.239 341.638L425.088 327.871Z"
        fill="url(#paint10_linear_521_27014)" />
    <path opacity="0.5" d="M425.088 377.115V386.244L487.697 350.089V340.981L425.088 377.115Z"
        fill="url(#paint11_linear_521_27014)" />
    <path opacity="0.5" d="M362.5 340.981V350.089L425.088 386.244V377.115L362.5 340.981Z"
        fill="url(#paint12_linear_521_27014)" />
    <path opacity="0.8"
        d="M425.088 376.141L363.347 340.494L362.5 340.981L425.088 377.115L487.697 340.981L486.828 340.494L425.088 376.141Z"
        fill="url(#paint13_linear_521_27014)" />
    <path
        d="M751.329 429.939C750.058 429.939 748.851 429.685 747.919 429.134L671.267 384.888C670.272 384.316 669.742 383.49 669.742 382.58C669.742 381.521 670.484 380.483 671.797 379.741L747.41 336.089C749.719 334.754 753.129 334.627 755.141 335.792L831.793 380.038C832.788 380.61 833.318 381.436 833.318 382.347C833.318 383.406 832.576 384.443 831.263 385.185L755.649 428.837C754.4 429.579 752.833 429.939 751.329 429.939ZM748.512 428.117C750.143 429.07 753.15 428.922 755.056 427.821L830.67 384.168C831.581 383.639 832.132 382.961 832.132 382.347C832.132 381.732 831.623 381.309 831.2 381.076L754.548 336.83C752.917 335.877 749.91 336.025 748.003 337.127L672.39 380.779C671.479 381.309 670.928 381.987 670.928 382.601C670.928 383.215 671.437 383.639 671.86 383.872L748.512 428.117Z"
        fill="url(#paint14_linear_521_27014)" />
    <path d="M832.724 350.089V359.493L751.349 406.471L669.953 359.493V350.089H832.724Z"
        fill="url(#paint15_linear_521_27014)" />
    <path d="M751.349 397.067L669.953 350.089L751.328 303.09L832.724 350.089L751.349 397.067Z" fill="#BCBEFF" />
    <path
        d="M751.349 395.987L670.906 349.538L669.953 350.089L751.349 397.067L832.724 350.089L831.771 349.538L751.349 395.987Z"
        fill="white" />
    <path d="M751.328 386.243L688.74 350.089L751.328 313.955L813.937 350.089L751.328 386.243Z" fill="#0F054C" />
    <path opacity="0.5" d="M751.328 386.243L688.74 350.089L751.328 313.955L813.937 350.089L751.328 386.243Z"
        fill="url(#paint16_linear_521_27014)" />
    <path opacity="0.5" d="M751.328 304.848L813.937 340.981V350.089L751.328 313.955V304.848Z"
        fill="url(#paint17_linear_521_27014)" />
    <path opacity="0.5" d="M751.328 313.955L688.74 350.089V340.981L751.328 304.848V313.955Z"
        fill="url(#paint18_linear_521_27014)" />
    <path opacity="0.5" d="M751.328 377.115L688.74 340.981L751.328 304.848L813.937 340.981L751.328 377.115Z"
        fill="url(#paint19_linear_521_27014)" />
    <path opacity="0.5" d="M751.328 355.426L726.314 340.981L751.328 326.536L776.342 340.981L751.328 355.426Z"
        fill="url(#paint20_linear_521_27014)" />
    <path
        d="M751.328 327.871L775.199 341.638L776.342 340.981L751.328 326.536L726.314 340.981L727.479 341.638L751.328 327.871Z"
        fill="url(#paint21_linear_521_27014)" />
    <path opacity="0.5" d="M751.328 377.115V386.244L813.937 350.089V340.981L751.328 377.115Z"
        fill="url(#paint22_linear_521_27014)" />
    <path opacity="0.5" d="M688.74 340.981V350.089L751.328 386.244V377.115L688.74 340.981Z"
        fill="url(#paint23_linear_521_27014)" />
    <path opacity="0.8"
        d="M751.328 376.141L689.587 340.494L688.74 340.981L751.328 377.115L813.937 340.981L813.069 340.494L751.328 376.141Z"
        fill="url(#paint24_linear_521_27014)" />
    <path
        d="M583.539 585.796C581.315 585.796 579.07 585.224 577.079 584.08L399.906 481.779C398.72 481.101 398 479.852 398 478.496C398 477.119 398.72 475.891 399.906 475.213L583.518 369.206L772.849 478.517L589.978 584.101C588.008 585.224 585.785 585.796 583.539 585.796ZM577.8 582.873C581.358 584.927 585.763 584.927 589.322 582.873L770.117 478.496L583.561 370.794L400.626 476.399C399.864 476.844 399.419 477.607 399.419 478.496C399.419 479.365 399.864 480.148 400.626 480.593L577.8 582.873Z"
        fill="url(#paint25_linear_521_27014)" />
    <path d="M584.993 324.47L485 266.735L584.993 209L685 266.735L584.993 324.47Z" fill="#BCBEFF" />
    <path opacity="0.7" d="M584.993 319.272L494.006 266.735L584.993 214.198L675.996 266.735L584.993 319.272Z"
        fill="url(#paint26_linear_521_27014)" />
    <path d="M584.993 546.096L485 488.347L584.993 430.612L685 488.362L584.993 546.096Z" fill="white" />
    <path d="M684.999 266.735V488.362L584.992 546.096V324.47L684.999 266.735Z" fill="url(#paint27_linear_521_27014)" />
    <path d="M485 266.735V488.347L584.993 546.096V324.47L485 266.735Z" fill="#24126A" />
    <g opacity="0.51">
        <path opacity="0.51" d="M491.766 281.436V480.631L578.229 530.546V331.352L491.766 281.436Z"
            fill="url(#paint28_linear_521_27014)" />
    </g>
    <path d="M669.992 320.282V326.139L600.002 366.552V360.695L669.992 320.282Z" fill="#453C9E" />
    <path d="M669.992 345.042V350.899L600.002 391.326V385.455L669.992 345.042Z" fill="#453C9E" />
    <path d="M669.992 369.817V375.674L600.002 416.087V410.23L669.992 369.817Z" fill="#453C9E" />
    <path d="M669.992 394.577V400.449L600.002 440.862V435.005L669.992 394.577Z" fill="#453C9E" />
    <path d="M669.992 419.352V425.209L600.002 465.622V459.765L669.992 419.352Z" fill="#453C9E" />
    <path d="M669.992 444.127V449.984L600.002 490.397V484.54L669.992 444.127Z" fill="#453C9E" />
    <path d="M584.993 322.596L486.625 265.798L485 266.735L584.993 324.47L685 266.735L683.375 265.798L584.993 322.596Z"
        fill="white" />
    <g opacity="0.51">
        <path opacity="0.51" d="M485 453.337L584.993 392.952V324.47L485 266.735V453.337Z" fill="#453C9E" />
    </g>
    <path d="M502.115 351.983L514.561 359.172V357.005L502.13 349.83L502.115 351.983Z" fill="#42E8E0" />
    <path d="M516.568 360.314L523.348 364.238V362.071L516.568 358.162V360.314Z" fill="#42E8E0" />
    <path d="M533.891 370.315L538.81 373.156V370.989L533.905 368.163L533.891 370.315Z" fill="#42E8E0" />
    <path d="M530.316 368.25L532 369.217V367.064L530.316 366.098V368.25Z" fill="#42E8E0" />
    <path d="M525.367 365.395L528.413 367.152V365L525.367 363.228V365.395Z" fill="#42E8E0" />
    <path d="M513.625 368.499L518.53 371.325V369.173L513.625 366.332V368.499Z" fill="#42E8E0" />
    <path d="M502.115 361.852L511.721 367.401V365.249L502.115 359.685V361.852Z" fill="#42E8E0" />
    <path d="M520.039 396.847L529.644 402.396V400.244L520.039 394.695V396.847Z" fill="#42E8E0" />
    <path d="M515.09 393.992L518.135 395.749V393.596L515.09 391.839V393.992Z" fill="#42E8E0" />
    <path d="M519.98 386.963L529.6 392.513V390.361L519.98 384.811V386.963Z" fill="#42E8E0" />
    <path d="M515.031 384.108L518.077 385.865L518.091 383.713L515.046 381.956L515.031 384.108Z" fill="#42E8E0" />
    <path d="M520.097 439.485L501.984 429.031V431.183L520.097 441.638V439.485Z" fill="#42E8E0" />
    <path d="M526.482 443.175L522.001 440.584L521.986 442.736L526.467 445.328L526.482 443.175Z" fill="#42E8E0" />
    <path d="M555.81 445.269L537.697 434.8V436.967L555.795 447.422L555.81 445.269Z" fill="#42E8E0" />
    <path d="M562.18 448.944L557.699 446.353V448.52L562.18 451.112V448.944Z" fill="#42E8E0" />
    <path d="M506.89 426.922L501.984 424.096V426.249L506.89 429.09V426.922Z" fill="#42E8E0" />
    <path d="M535.092 433.321L530.187 430.495L530.172 432.648L535.077 435.474L535.092 433.321Z" fill="#42E8E0" />
    <path d="M518.413 433.57L508.793 428.021V430.188L518.413 435.737V433.57Z" fill="#42E8E0" />
    <path d="M523.346 436.425L520.315 434.668L520.301 436.835L523.346 438.592V436.425Z" fill="#42E8E0" />
    <path d="M534.96 443.117L525.34 437.567V439.734L534.96 445.284V443.117Z" fill="#42E8E0" />
    <path d="M539.908 445.972L536.862 444.215L536.848 446.382L539.893 448.139L539.908 445.972Z" fill="#42E8E0" />
    <path d="M535.077 438.256L530.172 435.43V437.582L535.077 440.423V438.256Z" fill="#42E8E0" />
    <path d="M546.601 444.903L536.98 439.354V441.521L546.586 447.07L546.601 444.903Z" fill="#42E8E0" />
    <path d="M551.534 447.758L548.488 446.001V448.168L551.534 449.925V447.758Z" fill="#42E8E0" />
    <path d="M512.029 424.96L501.999 419.162L501.984 421.314L512.029 427.113V424.96Z" fill="#42E8E0" />
    <path d="M521.196 430.246L513.934 426.058V428.211L521.196 432.413V430.246Z" fill="#42E8E0" />
    <path d="M528.005 434.185L523.1 431.344V433.511L528.005 436.337V434.185Z" fill="#42E8E0" />
    <path d="M561.184 390.99L571.228 396.788V394.636L561.198 388.838L561.184 390.99Z" fill="#42E8E0" />
    <path d="M552.031 385.704L559.294 389.907V387.739L552.031 383.552V385.704Z" fill="#42E8E0" />
    <path d="M545.223 381.78L550.128 384.606V382.453L545.223 379.613V381.78Z" fill="#42E8E0" />
    <path d="M557.025 383.639L567.07 389.438V387.271L557.025 381.472V383.639Z" fill="#42E8E0" />
    <path d="M547.859 378.354L555.122 382.541V380.374L547.874 376.187L547.859 378.354Z" fill="#42E8E0" />
    <path d="M541.064 374.415L545.97 377.255V375.088L541.064 372.262V374.415Z" fill="#42E8E0" />
    <path d="M521.473 392.762L524.87 394.724V392.571L521.473 390.609V392.762Z" fill="#42E8E0" />
    <path d="M515.09 389.087L519.57 391.664V389.511L515.09 386.919V389.087Z" fill="#42E8E0" />
    <path d="M512.101 420.055L502.057 414.257V416.424L512.101 422.208V420.055Z" fill="#42E8E0" />
    <path d="M521.254 425.341L514.006 421.153V423.306L521.254 427.508V425.341Z" fill="#42E8E0" />
    <path d="M528.063 429.28L523.158 426.439V428.606L528.063 431.432V429.28Z" fill="#42E8E0" />
    <path d="M505.454 411.284L502.071 409.322L502.057 411.489L505.454 413.437V411.284Z" fill="#42E8E0" />
    <path d="M511.838 414.974L507.357 412.383V414.535L511.838 417.127V414.974Z" fill="#42E8E0" />
    <path d="M520.961 420.231L513.742 416.072V418.225L520.961 422.398V420.231Z" fill="#42E8E0" />
    <path d="M523.596 379.159L526.993 381.121V378.969L523.596 377.007V379.159Z" fill="#42E8E0" />
    <path d="M517.213 375.484L521.693 378.061V375.908L517.213 373.317V375.484Z" fill="#42E8E0" />
    <path d="M508.09 370.212L515.309 374.386V372.218L508.09 368.06V370.212Z" fill="#42E8E0" />
    <path d="M529.527 387.168L536.746 391.341V389.189L529.527 385.016V387.168Z" fill="#42E8E0" />
    <path d="M517.783 380.74L527.506 386.363L527.52 384.196L517.783 378.588V380.74Z" fill="#42E8E0" />
    <path d="M512.834 377.885L515.88 379.642V377.49L512.834 375.733V377.885Z" fill="#42E8E0" />
    <path d="M508.09 375.147L511.135 376.904V374.752L508.09 372.98V375.147Z" fill="#42E8E0" />
    <path d="M512.951 403.026L522.557 408.575L522.571 406.408L512.951 400.859V403.026Z" fill="#42E8E0" />
    <path d="M508.002 400.171L511.048 401.928V399.761L508.002 398.003V400.171Z" fill="#42E8E0" />
    <path d="M514.445 408.824L517.828 410.772L517.842 408.619L514.445 406.657V408.824Z" fill="#42E8E0" />
    <path d="M524.754 404.871L528.136 406.818V404.666L524.754 402.704V404.871Z" fill="#42E8E0" />
    <path d="M529.586 407.653L537.712 412.353L537.727 410.186L529.586 405.5V407.653Z" fill="#42E8E0" />
    <path d="M539.16 413.173L543.992 415.97L544.007 413.817L539.16 411.021V413.173Z" fill="#42E8E0" />
    <path d="M508.061 405.134L512.541 407.726V405.559L508.061 402.982V405.134Z" fill="#42E8E0" />
    <path d="M508.457 410.201L511.839 412.163V409.996L508.457 408.048V410.201Z" fill="#42E8E0" />
    <path d="M502.072 406.525L506.553 409.103V406.95L502.072 404.358V406.525Z" fill="#42E8E0" />
    <path d="M519.834 402.03L522.88 403.787V401.635L519.834 399.863V402.03Z" fill="#42E8E0" />
    <path d="M515.09 399.292L518.135 401.049V398.882L515.09 397.125V399.292Z" fill="#42E8E0" />
    <path d="M532.602 374.488L542.998 380.491V378.324L532.602 372.336V374.488Z" fill="#42E8E0" />
    <path d="M520.975 367.782L530.697 373.39L530.712 371.237L520.975 365.615V367.782Z" fill="#42E8E0" />
    <path d="M516.025 364.927L519.071 366.684V364.517L516.025 362.76V364.927Z" fill="#42E8E0" />
    <path d="M511.281 362.174L514.327 363.931V361.779L511.281 360.021V362.174Z" fill="#42E8E0" />
    <path d="M508.69 360.68L502.115 356.888V354.736L508.69 358.528V360.68Z" fill="#42E8E0" />
    <path
        d="M174.144 491.319C171.92 491.319 169.76 490.748 167.854 489.646L95.1206 447.646C93.9769 446.989 93.3203 445.824 93.3203 444.511C93.3203 443.198 93.9981 442.033 95.1206 441.376L227.074 365.191L228.027 365.741L306.098 410.813C307.22 411.47 307.898 412.635 307.898 413.948C307.898 415.261 307.22 416.426 306.098 417.082L180.456 489.646C178.55 490.748 176.368 491.319 174.144 491.319ZM227.074 366.822L95.8196 442.605C95.1206 443.007 94.697 443.727 94.697 444.532C94.697 445.337 95.1206 446.057 95.8196 446.459L168.553 488.439C171.942 490.387 176.368 490.387 179.757 488.439L305.399 415.896C306.098 415.494 306.521 414.774 306.521 413.969C306.521 413.164 306.098 412.444 305.399 412.041L227.074 366.822Z"
        fill="url(#paint29_linear_521_27014)" />
    <path
        d="M227.223 336.025L209.728 232.178L211.125 231.585L209.007 230.378V230.399C208.605 230.124 208.012 230.145 207.377 230.505L67.4807 311.266C66.3369 311.922 65.4685 313.638 65.6591 314.824L83.3023 419.497C83.3871 420.048 83.6624 420.408 84.0437 420.556L86.1193 421.742L86.4794 419.815L86.3523 419.857L225.401 339.584C226.566 338.927 227.434 337.233 227.223 336.025Z"
        fill="url(#paint30_linear_521_27014)" />
    <path
        d="M68.2641 314.104L65.9555 313.087C65.7013 313.68 65.5742 314.294 65.659 314.824L83.3021 419.497C83.3869 420.047 83.6622 420.408 84.0435 420.556L86.1191 421.742L86.4792 419.814L86.3521 419.857L93.384 415.79L68.2641 314.104Z"
        fill="url(#paint31_linear_521_27014)" />
    <path
        d="M227.605 340.854L87.7093 421.615C86.6291 422.229 85.6972 421.869 85.5066 420.768L67.8634 316.094C67.6516 314.908 68.5411 313.214 69.6849 312.536L209.581 231.776C210.661 231.161 211.593 231.522 211.784 232.623L229.427 337.296C229.617 338.482 228.749 340.177 227.605 340.854Z"
        fill="#24126A" />
    <g opacity="0.51">
        <path opacity="0.51" d="M207.757 238.448L72.9023 316.307L89.6348 414.88L224.384 337.084L207.757 238.448Z"
            fill="url(#paint32_linear_521_27014)" />
    </g>
    <path
        d="M315.546 390.416L307.921 394.398L231.375 350.195C230.104 349.453 227.859 349.538 226.376 350.407L94.3385 426.634C93.0677 425.936 87.3066 423.161 87.3066 423.161L90.1024 430.447H90.1236C90.2295 430.765 90.4837 431.082 90.9073 431.315L171.52 477.848C172.79 478.59 175.035 478.505 176.518 477.637L311.627 399.63C312.241 399.27 312.602 398.846 312.771 398.422L315.546 390.416Z"
        fill="url(#paint33_linear_521_27014)" />
    <path
        d="M314.359 391.666L175.882 471.622C174.357 472.49 172.069 472.596 170.756 471.833L88.1317 424.135C86.8186 423.373 86.988 422.06 88.4918 421.17L226.969 341.214C228.494 340.346 230.781 340.24 232.094 341.003L314.719 388.701C316.053 389.463 315.884 390.776 314.359 391.666Z"
        fill="url(#paint34_linear_521_27014)" />
    <path
        d="M314.357 390.861L175.88 470.817C174.355 471.685 172.068 471.791 170.755 471.028L88.1305 423.33C87.7069 423.076 87.4527 422.78 87.3256 422.441C87.1138 423.055 87.368 423.69 88.1305 424.135L170.755 471.833C172.068 472.596 174.355 472.49 175.88 471.621L314.357 391.666C315.374 391.073 315.776 390.289 315.522 389.611C315.395 390.056 314.993 390.501 314.357 390.861Z"
        fill="white" />
    <path
        d="M134.113 454.317V452.792C134.113 452.644 134.198 452.581 134.304 452.644L139.663 455.736C139.768 455.8 139.853 455.969 139.853 456.118V457.643C139.853 457.791 139.768 457.855 139.663 457.791L134.304 454.699C134.219 454.635 134.113 454.466 134.113 454.317Z"
        fill="#2842A2" />
    <path
        d="M142.141 458.935V457.41C142.141 457.261 142.225 457.198 142.331 457.261L147.69 460.354C147.796 460.417 147.88 460.587 147.88 460.735V462.26C147.88 462.408 147.796 462.472 147.69 462.408L142.331 459.316C142.225 459.252 142.141 459.083 142.141 458.935Z"
        fill="#2842A2" />
    <path
        d="M109.672 419.645L224.745 353.202C225.507 352.758 226.461 352.758 227.223 353.202L268.207 376.903C268.8 377.242 268.8 378.089 268.207 378.428L153.198 444.828C152.435 445.273 151.482 445.273 150.72 444.828L109.694 421.149C109.101 420.831 109.101 419.984 109.672 419.645Z"
        fill="#ADB1F2" />
    <path
        d="M109.672 421.17L110.074 421.403L224.744 355.193C225.507 354.749 226.46 354.749 227.222 355.193L267.783 378.661L268.185 378.428C268.778 378.089 268.778 377.242 268.185 376.903L227.201 353.202C226.439 352.758 225.486 352.758 224.723 353.202L109.651 419.645C109.1 419.984 109.1 420.831 109.672 421.17Z"
        fill="#9198DB" />
    <path d="M230.316 359.218L130.366 416.934L125.918 414.35L225.889 356.655L230.316 359.218Z" fill="#24126A" />
    <path d="M241.223 365.508L147.458 419.624L143.031 417.061L236.775 362.945L241.223 365.508Z" fill="#24126A" />
    <path d="M248.318 369.596L137.926 433.328L133.479 430.765L243.87 367.033L248.318 369.596Z" fill="#24126A" />
    <path d="M255.414 373.705L145.022 437.436L140.574 434.874L250.966 371.142L255.414 373.705Z" fill="#24126A" />
    <path d="M262.51 377.793L152.118 441.524L147.67 438.962L258.062 375.23L262.51 377.793Z" fill="#24126A" />
    <path d="M124.329 420.408L119.881 422.97L115.434 420.408L119.881 417.845L124.329 420.408Z" fill="#24126A" />
    <path d="M140.003 423.945L130.79 429.261L126.342 426.698L135.555 421.382L140.003 423.945Z" fill="#24126A" />
    <path
        d="M229.192 435.721L260.221 417.802C261.429 417.103 261.429 415.96 260.221 415.261L238.999 403.019C237.791 402.32 235.822 402.32 234.614 403.019L203.585 420.937C202.378 421.636 202.378 422.78 203.585 423.479L224.808 435.721C226.015 436.42 227.964 436.42 229.192 435.721Z"
        fill="url(#paint35_linear_521_27014)" />
    <path
        d="M203.586 421.975L234.615 404.056C235.822 403.357 237.792 403.357 238.999 404.056L260.222 416.299C260.603 416.51 260.836 416.765 260.985 417.04C261.302 416.426 261.069 415.748 260.222 415.261L238.999 403.019C237.792 402.32 235.822 402.32 234.615 403.019L203.586 420.937C202.739 421.424 202.506 422.102 202.823 422.716C202.951 422.441 203.205 422.187 203.586 421.975Z"
        fill="#9198DB" />
    <g opacity="0.11">
        <g opacity="0.11">
            <path opacity="0.11"
                d="M227.116 341.045L88.6395 421.001C87.1146 421.869 84.8271 421.975 83.5139 421.212L0.889557 373.493C-0.423622 372.731 -0.254179 371.418 1.24962 370.528L139.726 290.572C141.251 289.704 143.539 289.598 144.852 290.361L227.476 338.08C228.79 338.842 228.641 340.177 227.116 341.045Z"
                fill="url(#paint36_linear_521_27014)" />
            <path opacity="0.11"
                d="M88.2371 355.384L119.266 337.466C120.473 336.767 120.473 335.623 119.266 334.924L98.0435 322.682C96.8363 321.983 94.8665 321.983 93.6592 322.682L62.6301 340.6C61.4228 341.299 61.4228 342.443 62.6301 343.142L83.8527 355.384C85.06 356.083 87.0086 356.083 88.2371 355.384Z"
                fill="url(#paint37_linear_521_27014)" />
            <path opacity="0.11"
                d="M62.6094 341.638L93.6386 323.719C94.8458 323.021 96.8156 323.021 98.0229 323.719L119.246 335.962C119.627 336.174 119.86 336.428 120.008 336.703C120.326 336.089 120.093 335.411 119.246 334.924L98.0229 322.682C96.8156 321.983 94.8458 321.983 93.6386 322.682L62.6094 340.6C61.7622 341.087 61.5292 341.765 61.8469 342.379C61.9952 342.104 62.2493 341.85 62.6094 341.638Z"
                fill="#9198DB" />
            <g opacity="0.11">
                <path opacity="0.11"
                    d="M48.991 383.363L164.064 316.921C164.826 316.476 165.779 316.476 166.542 316.921L207.526 340.622C208.119 340.96 208.119 341.808 207.526 342.146L92.5165 408.547C91.754 408.992 90.8009 408.992 90.0384 408.547L49.0122 384.867C48.398 384.571 48.398 383.702 48.991 383.363Z"
                    fill="#ADB1F2" />
                <path opacity="0.11"
                    d="M48.9904 384.91L49.3929 385.143L164.063 318.933C164.826 318.488 165.779 318.488 166.541 318.933L207.101 342.401L207.504 342.168C208.097 341.829 208.097 340.982 207.504 340.643L166.52 316.942C165.757 316.497 164.804 316.497 164.042 316.942L48.9693 383.385C48.3974 383.702 48.3974 384.571 48.9904 384.91Z"
                    fill="#9198DB" />
                <g opacity="0.11">
                    <path opacity="0.11"
                        d="M196.785 339.033L96.5391 396.898L100.5 399.206L200.746 341.321L196.785 339.033Z"
                        fill="#24126A" />
                    <path opacity="0.11"
                        d="M186.218 332.933L90.9492 387.938L94.9099 390.226L190.2 335.221L186.218 332.933Z"
                        fill="#24126A" />
                    <path opacity="0.11"
                        d="M83.831 392.047L74.9141 397.194L78.896 399.482L87.7917 394.335L83.831 392.047Z"
                        fill="#24126A" />
                    <path opacity="0.11"
                        d="M91.6902 399.715L85.4844 403.294L89.4663 405.582L95.6509 402.002L91.6902 399.715Z"
                        fill="#24126A" />
                    <path opacity="0.11"
                        d="M179.609 329.1L68.3066 393.361L72.2674 395.669L183.57 331.408L179.609 329.1Z"
                        fill="#24126A" />
                    <path opacity="0.11"
                        d="M172.978 325.287L61.6758 389.548L65.6577 391.836L176.96 327.575L172.978 325.287Z"
                        fill="#24126A" />
                    <path opacity="0.11"
                        d="M166.371 321.475L55.0684 385.714L59.0291 388.023L170.332 323.762L166.371 321.475Z"
                        fill="#24126A" />
                </g>
            </g>
        </g>
    </g>



    <g class="text">
        <path d="M123.691 377.306L134.599 370.994L134.917 372.879L124.009 379.191L123.691 377.306Z" fill="#42E8E0" />
        <path d="M136.336 369.978L142.288 366.546L142.605 368.453L136.675 371.884L136.336 369.978Z" fill="#42E8E0" />
        <path d="M151.543 361.209L155.843 358.731L156.16 360.616L151.861 363.094L151.543 361.209Z" fill="#42E8E0" />
        <path d="M148.41 363.03L149.872 362.162L150.189 364.068L148.728 364.916L148.41 363.03Z" fill="#42E8E0" />
        <path d="M144.068 365.53L146.737 363.983L147.055 365.89L144.386 367.415L144.068 365.53Z" fill="#42E8E0" />
        <path d="M132.312 362.797L136.612 360.319L136.93 362.204L132.63 364.704L132.312 362.797Z" fill="#42E8E0" />
        <path d="M122.23 368.643L130.639 363.772L130.978 365.657L122.548 370.528L122.23 368.643Z" fill="#42E8E0" />
        <path d="M134.303 337.932L142.733 333.06L143.05 334.966L134.62 339.838L134.303 337.932Z" fill="#42E8E0" />
        <path d="M129.961 340.452L132.63 338.906L132.947 340.791L130.279 342.337L129.961 340.452Z" fill="#42E8E0" />
        <path d="M135.701 346.594L144.131 341.723L144.449 343.629L136.019 348.501L135.701 346.594Z" fill="#42E8E0" />
        <path d="M131.381 349.115L134.05 347.569L134.367 349.454L131.699 351L131.381 349.115Z" fill="#42E8E0" />
        <path d="M128.076 300.527L112.212 309.719L111.895 307.813L127.759 298.642L128.076 300.527Z" fill="#42E8E0" />
        <path d="M133.668 297.308L129.749 299.574L129.432 297.668L133.35 295.402L133.668 297.308Z" fill="#42E8E0" />
        <path d="M161.584 295.465L145.699 304.636L145.381 302.73L161.245 293.559L161.584 295.465Z" fill="#42E8E0" />
        <path d="M167.175 292.225L163.236 294.491L162.918 292.606L166.858 290.34L167.175 292.225Z" fill="#42E8E0" />
        <path d="M117.233 311.541L112.933 314.04L112.615 312.134L116.915 309.656L117.233 311.541Z" fill="#42E8E0" />
        <path d="M143.41 305.928L139.111 308.428L138.793 306.521L143.093 304.043L143.41 305.928Z" fill="#42E8E0" />
        <path d="M127.335 305.716L118.906 310.588L118.588 308.703L127.018 303.831L127.335 305.716Z" fill="#42E8E0" />
    </g>
    <g class="text" style="animation-delay: 0.4s">
        <path d="M131.678 303.217L129.009 304.763L128.67 302.857L131.36 301.311L131.678 303.217Z" fill="#42E8E0" />
        <path d="M141.843 297.35L133.413 302.222L133.096 300.315L141.525 295.444L141.843 297.35Z" fill="#42E8E0" />
        <path d="M146.185 294.83L143.517 296.376L143.178 294.491L145.846 292.945L146.185 294.83Z" fill="#42E8E0" />
        <path d="M142.668 301.607L138.368 304.086L138.051 302.201L142.35 299.722L142.668 301.607Z" fill="#42E8E0" />
        <path d="M152.773 295.783L144.343 300.654L144.025 298.748L152.455 293.877L152.773 295.783Z" fill="#42E8E0" />
        <path d="M157.115 293.262L154.446 294.809L154.107 292.924L156.776 291.377L157.115 293.262Z" fill="#42E8E0" />
        <path d="M122.463 313.278L113.673 318.361L113.355 316.476L122.145 311.393L122.463 313.278Z" fill="#42E8E0" />
        <path d="M130.49 308.639L124.136 312.325L123.818 310.419L130.172 306.733L130.49 308.639Z" fill="#42E8E0" />
        <path d="M136.463 305.187L132.163 307.665L131.846 305.78L136.145 303.302L136.463 305.187Z" fill="#42E8E0" />
        <path d="M178.189 285.87L169.378 290.975L169.061 289.069L177.872 283.985L178.189 285.87Z" fill="#42E8E0" />
        <path d="M186.216 281.232L179.841 284.917L179.523 283.032L185.899 279.347L186.216 281.232Z" fill="#42E8E0" />
        <path d="M192.189 277.78L187.89 280.279L187.551 278.373L191.85 275.895L192.189 277.78Z" fill="#42E8E0" />
        <path d="M174.736 343.057L183.547 337.974L183.865 339.88L175.054 344.964L174.736 343.057Z" fill="#42E8E0" />
        <path d="M166.709 347.696L173.084 344.032L173.402 345.917L167.027 349.602L166.709 347.696Z" fill="#42E8E0" />
    </g>
    <g class="text" style="animation-delay: 0.7s">
        <path d="M160.736 351.148L165.036 348.67L165.375 350.555L161.075 353.054L160.736 351.148Z" fill="#42E8E0" />
        <path d="M171.814 349.517L180.625 344.434L180.943 346.319L172.153 351.402L171.814 349.517Z" fill="#42E8E0" />
        <path d="M163.787 354.156L170.162 350.492L170.48 352.377L164.105 356.062L163.787 354.156Z" fill="#42E8E0" />
        <path d="M157.836 357.608L162.136 355.13L162.453 357.015L158.154 359.514L157.836 357.608Z" fill="#42E8E0" />
        <path d="M136.293 341.511L139.258 339.795L139.576 341.702L136.611 343.417L136.293 341.511Z" fill="#42E8E0" />
        <path d="M130.703 344.752L134.621 342.485L134.939 344.37L131.021 346.637L130.703 344.752Z" fill="#42E8E0" />
        <path d="M123.246 317.577L114.456 322.661L114.139 320.776L122.928 315.692L123.246 317.577Z" fill="#42E8E0" />
        <path d="M131.296 312.939L124.921 316.624L124.604 314.718L130.979 311.054L131.296 312.939Z" fill="#42E8E0" />
        <path d="M137.248 309.487L132.949 311.965L132.631 310.08L136.93 307.602L137.248 309.487Z" fill="#42E8E0" />
        <path d="M118.164 325.266L115.177 327.003L114.859 325.096L117.846 323.381L118.164 325.266Z" fill="#42E8E0" />
        <path d="M123.755 322.046L119.816 324.313L119.498 322.428L123.438 320.14L123.755 322.046Z" fill="#42E8E0" />
        <path d="M131.741 317.429L125.429 321.072L125.111 319.187L131.423 315.523L131.741 317.429Z" fill="#42E8E0" />
        <path d="M140.34 353.457L143.305 351.72L143.623 353.626L140.658 355.342L140.34 353.457Z" fill="#42E8E0" />
        <path d="M134.748 356.676L138.666 354.41L138.984 356.316L135.066 358.582L134.748 356.676Z" fill="#42E8E0" />
        <path d="M126.742 361.293L133.075 357.65L133.393 359.535L127.06 363.2L126.742 361.293Z" fill="#42E8E0" />
        <path d="M144.852 346.425L151.184 342.761L151.502 344.667L145.19 348.31L144.852 346.425Z" fill="#42E8E0" />
    </g>
    <g class="text" style="animation-delay: 1.1s">
        <path d="M134.516 352.059L143.03 347.124L143.369 349.03L134.833 353.965L134.516 352.059Z" fill="#42E8E0" />
        <path d="M130.174 354.579L132.843 353.033L133.16 354.918L130.492 356.464L130.174 354.579Z" fill="#42E8E0" />
        <path d="M126 356.973L128.69 355.427L129.008 357.333L126.339 358.879L126 356.973Z" fill="#42E8E0" />
        <path d="M126.572 332.531L135.002 327.659L135.32 329.544L126.911 334.416L126.572 332.531Z" fill="#42E8E0" />
        <path d="M122.252 335.03L124.921 333.484L125.238 335.39L122.57 336.915L122.252 335.03Z" fill="#42E8E0" />
        <path d="M127.166 327.426L130.131 325.71L130.449 327.617L127.484 329.332L127.166 327.426Z" fill="#42E8E0" />
        <path d="M137.65 330.9L140.637 329.184L140.955 331.069L137.968 332.785L137.65 330.9Z" fill="#42E8E0" />
        <path d="M141.887 328.464L149.024 324.334L149.342 326.24L142.204 330.349L141.887 328.464Z" fill="#42E8E0" />
        <path d="M150.295 323.614L154.531 321.157L154.849 323.042L150.613 325.499L150.295 323.614Z" fill="#42E8E0" />
        <path d="M121.574 330.667L125.493 328.4L125.81 330.285L121.892 332.552L121.574 330.667Z" fill="#42E8E0" />
        <path d="M121.193 326.219L124.18 324.503L124.497 326.388L121.511 328.125L121.193 326.219Z" fill="#42E8E0" />
        <path d="M115.602 329.459L119.541 327.193L119.859 329.078L115.919 331.344L115.602 329.459Z" fill="#42E8E0" />
        <path d="M133.35 333.399L136.018 331.853L136.336 333.738L133.667 335.284L133.35 333.399Z" fill="#42E8E0" />
        <path d="M129.178 335.792L131.846 334.246L132.164 336.152L129.495 337.698L129.178 335.792Z" fill="#42E8E0" />
        <path d="M149.68 357.545L158.787 352.292L159.105 354.177L149.997 359.43L149.68 357.545Z" fill="#42E8E0" />
        <path d="M139.492 363.433L148.028 358.498L148.346 360.404L139.81 365.339L139.492 363.433Z" fill="#42E8E0" />
        <path d="M135.15 365.953L137.819 364.407L138.137 366.292L135.468 367.838L135.15 365.953Z" fill="#42E8E0" />
        <path d="M130.998 368.346L133.667 366.8L133.984 368.707L131.316 370.253L130.998 368.346Z" fill="#42E8E0" />
        <path d="M128.712 369.66L122.951 372.985L123.269 374.891L129.03 371.566L128.712 369.66Z" fill="#42E8E0" />
    </g>



    <path
        d="M995.834 491.319C993.631 491.319 991.45 490.748 989.544 489.646L863.902 417.104C862.779 416.447 862.102 415.282 862.102 413.969C862.102 412.656 862.779 411.491 863.902 410.834L942.926 365.212L943.265 365.403L1074.86 441.376C1076 442.033 1076.66 443.198 1076.66 444.511C1076.66 445.824 1075.98 446.989 1074.86 447.646L1002.12 489.646C1000.24 490.748 998.058 491.319 995.834 491.319ZM990.242 488.439C993.631 490.387 998.058 490.387 1001.45 488.439L1074.18 446.438C1074.88 446.036 1075.3 445.316 1075.3 444.511C1075.3 443.706 1074.88 442.986 1074.18 442.584L942.926 366.8L942.671 366.949L864.601 412.02C863.902 412.423 863.478 413.143 863.478 413.948C863.478 414.753 863.902 415.473 864.601 415.875L990.242 488.439Z"
        fill="url(#paint38_linear_521_27014)" />
    <path
        d="M942.757 336.025L960.252 232.178L958.854 231.585L960.972 230.378V230.399C961.374 230.124 961.967 230.145 962.603 230.505L1102.5 311.266C1103.64 311.922 1104.51 313.638 1104.32 314.824L1086.68 419.497C1086.59 420.048 1086.32 420.408 1085.94 420.556L1083.86 421.742L1083.5 419.815L1083.63 419.857L944.578 339.584C943.435 338.927 942.566 337.233 942.757 336.025Z"
        fill="url(#paint39_linear_521_27014)" />
    <path
        d="M1101.71 314.104L1104.02 313.087C1104.28 313.68 1104.4 314.294 1104.32 314.824L1086.68 419.497C1086.59 420.047 1086.32 420.408 1085.93 420.556L1083.86 421.742L1083.5 419.814L1083.63 419.857L1076.59 415.79L1101.71 314.104Z"
        fill="url(#paint40_linear_521_27014)" />
    <path
        d="M942.375 340.854L1082.27 421.615C1083.35 422.229 1084.28 421.869 1084.47 420.768L1102.12 316.094C1102.33 314.908 1101.44 313.214 1100.3 312.536L960.4 231.776C959.319 231.161 958.387 231.522 958.197 232.623L940.554 337.296C940.363 338.482 941.231 340.177 942.375 340.854Z"
        fill="#24126A" />
    <g opacity="0.51">
        <path opacity="0.51" d="M962.241 238.448L1097.08 316.307L1080.36 414.88L945.594 337.084L962.241 238.448Z"
            fill="url(#paint41_linear_521_27014)" />
    </g>
    <path
        d="M854.436 390.416L862.06 394.398L938.606 350.195C939.877 349.453 942.122 349.538 943.605 350.407L1075.64 426.634C1076.91 425.936 1082.67 423.161 1082.67 423.161L1079.88 430.447C1079.88 430.447 1079.88 430.447 1079.86 430.447C1079.75 430.765 1079.5 431.082 1079.07 431.315L998.483 477.848C997.212 478.59 994.967 478.505 993.484 477.637L858.375 399.63C857.761 399.27 857.401 398.846 857.231 398.422L854.436 390.416Z"
        fill="url(#paint42_linear_521_27014)" />
    <path
        d="M855.621 391.666L994.098 471.622C995.623 472.49 997.91 472.596 999.223 471.833L1081.85 424.135C1083.16 423.373 1082.99 422.06 1081.49 421.17L943.011 341.214C941.486 340.346 939.198 340.24 937.885 341.003L855.261 388.701C853.947 389.463 854.117 390.776 855.621 391.666Z"
        fill="url(#paint43_linear_521_27014)" />
    <path
        d="M855.62 390.861L994.097 470.817C995.622 471.685 997.909 471.791 999.222 471.028L1081.85 423.33C1082.27 423.076 1082.52 422.78 1082.65 422.441C1082.86 423.055 1082.61 423.69 1081.85 424.135L999.222 471.833C997.909 472.596 995.622 472.49 994.097 471.621L855.62 391.666C854.603 391.073 854.201 390.289 854.455 389.611C854.603 390.056 854.984 390.501 855.62 390.861Z"
        fill="white" />
    <path
        d="M1035.86 454.317V452.792C1035.86 452.644 1035.78 452.581 1035.67 452.644L1030.32 455.736C1030.21 455.8 1030.12 455.969 1030.12 456.118V457.643C1030.12 457.791 1030.21 457.855 1030.32 457.791L1035.67 454.699C1035.78 454.635 1035.86 454.466 1035.86 454.317Z"
        fill="#2842A2" />
    <path
        d="M1027.86 458.935V457.41C1027.86 457.261 1027.77 457.198 1027.67 457.261L1022.31 460.354C1022.2 460.417 1022.12 460.587 1022.12 460.735V462.26C1022.12 462.408 1022.2 462.472 1022.31 462.408L1027.67 459.316C1027.77 459.252 1027.86 459.083 1027.86 458.935Z"
        fill="#2842A2" />
    <path
        d="M1060.31 419.645L945.235 353.202C944.472 352.758 943.519 352.758 942.757 353.202L901.773 376.903C901.18 377.242 901.18 378.089 901.773 378.428L1016.78 444.828C1017.54 445.273 1018.5 445.273 1019.26 444.828L1060.29 421.149C1060.9 420.831 1060.9 419.984 1060.31 419.645Z"
        fill="#ADB1F2" />
    <path
        d="M1060.31 421.17L1059.9 421.403L945.233 355.193C944.471 354.749 943.518 354.749 942.755 355.193L902.195 378.661L901.792 378.428C901.199 378.089 901.199 377.242 901.792 376.903L942.776 353.202C943.539 352.758 944.492 352.758 945.255 353.202L1060.33 419.645C1060.9 419.984 1060.9 420.831 1060.31 421.17Z"
        fill="#9198DB" />
    <path d="M939.664 359.218L1039.61 416.934L1044.06 414.35L944.112 356.655L939.664 359.218Z" fill="#24126A" />
    <path d="M928.777 365.508L1022.52 419.624L1026.97 417.061L933.204 362.945L928.777 365.508Z" fill="#24126A" />
    <path d="M921.684 369.596L1032.05 433.328L1036.5 430.765L926.11 367.033L921.684 369.596Z" fill="#24126A" />
    <path d="M914.588 373.705L1024.96 437.436L1029.41 434.874L919.015 371.142L914.588 373.705Z" fill="#24126A" />
    <path d="M907.471 377.793L1017.86 441.524L1022.31 438.962L911.919 375.23L907.471 377.793Z" fill="#24126A" />
    <path d="M1045.67 420.408L1050.1 422.97L1054.55 420.408L1050.1 417.845L1045.67 420.408Z" fill="#24126A" />
    <path d="M1029.98 423.945L1039.21 429.261L1043.66 426.698L1034.42 421.382L1029.98 423.945Z" fill="#24126A" />
    <path
        d="M940.808 435.721L909.779 417.802C908.571 417.103 908.571 415.96 909.779 415.261L931.001 403.019C932.208 402.32 934.178 402.32 935.386 403.019L966.415 420.937C967.622 421.636 967.622 422.78 966.415 423.479L945.192 435.721C943.985 436.42 942.015 436.42 940.808 435.721Z"
        fill="url(#paint44_linear_521_27014)" />
    <path
        d="M966.415 421.975L935.386 404.056C934.179 403.357 932.209 403.357 931.002 404.056L909.779 416.299C909.398 416.51 909.165 416.765 909.017 417.04C908.699 416.426 908.932 415.748 909.779 415.261L931.002 403.019C932.209 402.32 934.179 402.32 935.386 403.019L966.415 420.937C967.263 421.424 967.496 422.102 967.178 422.716C967.03 422.441 966.797 422.187 966.415 421.975Z"
        fill="#9198DB" />
    <g opacity="0.11">
        <g opacity="0.11">
            <path opacity="0.11"
                d="M942.883 341.045L1081.36 421.001C1082.88 421.869 1085.17 421.975 1086.48 421.213L1169.11 373.515C1170.42 372.752 1170.25 371.439 1168.75 370.549L1030.27 290.594C1028.75 289.725 1026.46 289.619 1025.15 290.382L942.522 338.101C941.188 338.842 941.358 340.177 942.883 341.045Z"
                fill="url(#paint45_linear_521_27014)" />
            <path opacity="0.11"
                d="M1081.76 355.384L1050.73 337.466C1049.52 336.767 1049.52 335.623 1050.73 334.924L1071.95 322.682C1073.16 321.983 1075.13 321.983 1076.34 322.682L1107.37 340.6C1108.58 341.299 1108.58 342.443 1107.37 343.142L1086.15 355.384C1084.94 356.083 1082.97 356.083 1081.76 355.384Z"
                fill="url(#paint46_linear_521_27014)" />
            <path opacity="0.11"
                d="M1107.37 341.638L1076.34 323.72C1075.13 323.021 1073.16 323.021 1071.96 323.72L1050.73 335.962C1050.35 336.174 1050.12 336.428 1049.97 336.703C1049.65 336.089 1049.89 335.411 1050.73 334.924L1071.96 322.682C1073.16 321.983 1075.13 321.983 1076.34 322.682L1107.37 340.6C1108.22 341.088 1108.45 341.765 1108.13 342.38C1107.98 342.104 1107.75 341.85 1107.37 341.638Z"
                fill="#9198DB" />
            <g opacity="0.11">
                <path opacity="0.11"
                    d="M1121.01 383.363L1005.94 316.921C1005.17 316.476 1004.22 316.476 1003.46 316.921L962.474 340.622C961.881 340.96 961.881 341.808 962.474 342.146L1077.48 408.547C1078.25 408.992 1079.2 408.992 1079.96 408.547L1120.99 384.867C1121.6 384.571 1121.6 383.702 1121.01 383.363Z"
                    fill="#ADB1F2" />
                <path opacity="0.11"
                    d="M1121.01 384.91L1120.61 385.143L1005.94 318.933C1005.17 318.488 1004.22 318.488 1003.46 318.933L962.898 342.401L962.496 342.168C961.903 341.829 961.903 340.982 962.496 340.643L1003.48 316.942C1004.24 316.497 1005.2 316.497 1005.96 316.942L1121.03 383.385C1121.6 383.702 1121.6 384.571 1121.01 384.91Z"
                    fill="#9198DB" />
                <g opacity="0.11">
                    <path opacity="0.11"
                        d="M973.212 339.033L1073.46 396.898L1069.48 399.206L969.23 341.321L973.212 339.033Z"
                        fill="#24126A" />
                    <path opacity="0.11"
                        d="M983.76 332.933L1079.05 387.938L1075.09 390.226L979.799 335.221L983.76 332.933Z"
                        fill="#24126A" />
                    <path opacity="0.11"
                        d="M1086.17 392.047L1095.06 397.194L1091.1 399.482L1082.21 394.335L1086.17 392.047Z"
                        fill="#24126A" />
                    <path opacity="0.11"
                        d="M1078.31 399.715L1084.49 403.294L1080.53 405.582L1074.33 402.002L1078.31 399.715Z"
                        fill="#24126A" />
                    <path opacity="0.11" d="M990.39 329.1L1101.69 393.361L1097.71 395.669L986.408 331.408L990.39 329.1Z"
                        fill="#24126A" />
                    <path opacity="0.11"
                        d="M996.998 325.287L1108.3 389.548L1104.34 391.836L993.037 327.575L996.998 325.287Z"
                        fill="#24126A" />
                    <path opacity="0.11"
                        d="M1003.63 321.475L1114.93 385.714L1110.95 388.023L999.646 323.762L1003.63 321.475Z"
                        fill="#24126A" />
                </g>
            </g>
        </g>
    </g>

    <g class="text">
        <path d="M991.916 275.471L1002.82 281.783L1003.16 279.876L992.234 273.586L991.916 275.471Z" fill="#42E8E0" />
        <path d="M1004.58 282.778L1010.53 286.23L1010.85 284.324L1004.9 280.893L1004.58 282.778Z" fill="#42E8E0" />
        <path d="M1019.79 291.568L1024.09 294.046L1024.41 292.161L1020.11 289.662L1019.79 291.568Z" fill="#42E8E0" />
        <path d="M1016.65 289.746L1018.12 290.594L1018.43 288.709L1016.97 287.861L1016.65 289.746Z" fill="#42E8E0" />
        <path d="M1012.31 287.247L1014.98 288.793L1015.3 286.887L1012.63 285.341L1012.31 287.247Z" fill="#42E8E0" />
        <path d="M1000.56 289.958L1004.86 292.458L1005.18 290.551L1000.88 288.073L1000.56 289.958Z" fill="#42E8E0" />
        <path d="M990.455 284.134L998.885 289.005L999.203 287.099L990.773 282.228L990.455 284.134Z" fill="#42E8E0" />
        <path d="M1002.55 314.824L1010.98 319.695L1011.3 317.81L1002.87 312.939L1002.55 314.824Z" fill="#42E8E0" />
        <path d="M998.207 312.325L1000.88 313.871L1001.19 311.965L998.525 310.44L998.207 312.325Z" fill="#42E8E0" />
        <path d="M1003.95 306.161L1012.38 311.033L1012.69 309.148L1004.26 304.276L1003.95 306.161Z" fill="#42E8E0" />
        <path d="M999.605 303.662L1002.27 305.208L1002.61 303.302L999.944 301.756L999.605 303.662Z" fill="#42E8E0" />
        <path d="M996.322 352.228L980.437 343.057L980.119 344.964L996.004 354.135L996.322 352.228Z" fill="#42E8E0" />
        <path d="M1001.91 355.469L997.995 353.203L997.678 355.088L1001.6 357.354L1001.91 355.469Z" fill="#42E8E0" />
        <path d="M1029.81 357.312L1013.94 348.141L1013.63 350.026L1029.49 359.197L1029.81 357.312Z" fill="#42E8E0" />
        <path d="M1035.4 360.552L1031.48 358.265L1031.16 360.171L1035.08 362.437L1035.4 360.552Z" fill="#42E8E0" />
        <path d="M985.477 341.215L981.177 338.737L980.859 340.622L985.159 343.121L985.477 341.215Z" fill="#42E8E0" />
        <path d="M1011.66 346.827L1007.36 344.349L1007.02 346.234L1011.32 348.734L1011.66 346.827Z" fill="#42E8E0" />
        <path d="M995.581 347.06L987.152 342.189L986.834 344.074L995.264 348.945L995.581 347.06Z" fill="#42E8E0" />
    </g>
    <g class="text">
        <path d="M999.9 349.56L997.232 348.013L996.914 349.92L999.583 351.445L999.9 349.56Z" fill="#42E8E0" />
        <path d="M1010.09 355.427L1001.66 350.555L1001.34 352.44L1009.75 357.312L1010.09 355.427Z" fill="#42E8E0" />
        <path d="M1014.41 357.926L1011.74 356.38L1011.42 358.286L1014.09 359.832L1014.41 357.926Z" fill="#42E8E0" />
        <path d="M1010.92 351.169L1006.62 348.67L1006.3 350.576L1010.6 353.055L1010.92 351.169Z" fill="#42E8E0" />
        <path d="M1021.02 356.994L1012.59 352.123L1012.27 354.029L1020.7 358.879L1021.02 356.994Z" fill="#42E8E0" />
        <path d="M1025.34 359.493L1022.67 357.968L1022.35 359.853L1025.02 361.4L1025.34 359.493Z" fill="#42E8E0" />
        <path d="M990.711 339.499L981.9 334.395L981.582 336.301L990.393 341.384L990.711 339.499Z" fill="#42E8E0" />
        <path d="M998.736 344.138L992.382 340.452L992.064 342.358L998.419 346.023L998.736 344.138Z" fill="#42E8E0" />
        <path d="M1004.71 347.59L1000.41 345.091L1000.09 346.997L1004.39 349.475L1004.71 347.59Z" fill="#42E8E0" />
        <path d="M1046.41 366.885L1037.62 361.802L1037.31 363.687L1046.1 368.791L1046.41 366.885Z" fill="#42E8E0" />
        <path d="M1054.46 371.524L1048.09 367.859L1047.77 369.744L1054.12 373.43L1054.46 371.524Z" fill="#42E8E0" />
        <path d="M1060.41 374.976L1056.11 372.498L1055.8 374.383L1060.1 376.882L1060.41 374.976Z" fill="#42E8E0" />
        <path d="M1042.98 309.698L1051.79 314.803L1052.11 312.896L1043.3 307.813L1042.98 309.698Z" fill="#42E8E0" />
        <path d="M1034.96 305.06L1041.31 308.745L1041.65 306.839L1035.27 303.175L1034.96 305.06Z" fill="#42E8E0" />
        <path d="M1028.98 301.607L1033.28 304.107L1033.6 302.201L1029.3 299.722L1028.98 301.607Z" fill="#42E8E0" />
        <path d="M1040.06 303.26L1048.87 308.343L1049.19 306.437L1040.38 301.353L1040.06 303.26Z" fill="#42E8E0" />
        <path d="M1032.03 298.6L1038.41 302.285L1038.72 300.4L1032.35 296.715L1032.03 298.6Z" fill="#42E8E0" />
        <path d="M1026.06 295.169L1030.36 297.647L1030.68 295.762L1026.38 293.262L1026.06 295.169Z" fill="#42E8E0" />
    </g>
    <g class="text">
        <path d="M1004.54 311.244L1007.51 312.981L1007.82 311.075L1004.86 309.359L1004.54 311.244Z" fill="#42E8E0" />
        <path d="M998.928 308.025L1002.87 310.291L1003.18 308.406L999.245 306.119L998.928 308.025Z" fill="#42E8E0" />
        <path d="M991.494 335.199L982.704 330.095L982.387 332.001L991.177 337.084L991.494 335.199Z" fill="#42E8E0" />
        <path d="M999.519 339.838L993.165 336.153L992.848 338.038L999.202 341.723L999.519 339.838Z" fill="#42E8E0" />
        <path d="M1005.49 343.29L1001.19 340.791L1000.88 342.697L1005.17 345.175L1005.49 343.29Z" fill="#42E8E0" />
        <path d="M986.41 327.49L983.423 325.774L983.105 327.68L986.071 329.396L986.41 327.49Z" fill="#42E8E0" />
        <path d="M992.001 330.73L988.062 328.464L987.744 330.349L991.684 332.615L992.001 330.73Z" fill="#42E8E0" />
        <path d="M999.987 335.348L993.654 331.684L993.336 333.59L999.669 337.233L999.987 335.348Z" fill="#42E8E0" />
        <path d="M1008.56 299.32L1011.55 301.036L1011.87 299.151L1008.9 297.435L1008.56 299.32Z" fill="#42E8E0" />
        <path d="M1002.97 296.079L1006.91 298.367L1007.23 296.461L1003.29 294.194L1002.97 296.079Z" fill="#42E8E0" />
        <path d="M994.986 291.462L1001.32 295.126L1001.64 293.22L995.304 289.577L994.986 291.462Z" fill="#42E8E0" />
        <path d="M1013.1 306.352L1019.43 309.995L1019.75 308.11L1013.42 304.446L1013.1 306.352Z" fill="#42E8E0" />
        <path d="M1002.74 300.697L1011.27 305.632L1011.59 303.747L1003.08 298.812L1002.74 300.697Z" fill="#42E8E0" />
        <path d="M998.418 298.198L1001.09 299.744L1001.4 297.837L998.736 296.312L998.418 298.198Z" fill="#42E8E0" />
        <path d="M994.246 295.783L996.915 297.329L997.232 295.444L994.564 293.898L994.246 295.783Z" fill="#42E8E0" />
        <path d="M994.816 320.246L1003.25 325.118L1003.56 323.233L995.134 318.361L994.816 320.246Z" fill="#42E8E0" />
    </g>
    <g class="text">
        <path d="M990.496 317.747L993.165 319.293L993.483 317.387L990.814 315.841L990.496 317.747Z" fill="#42E8E0" />
        <path d="M995.41 325.329L998.375 327.045L998.693 325.16L995.728 323.444L995.41 325.329Z" fill="#42E8E0" />
        <path d="M1005.89 321.877L1008.86 323.592L1009.2 321.686L1006.21 319.971L1005.89 321.877Z" fill="#42E8E0" />
        <path d="M1010.13 324.313L1017.27 328.443L1017.59 326.537L1010.45 322.428L1010.13 324.313Z" fill="#42E8E0" />
        <path d="M1018.54 329.163L1022.78 331.62L1023.09 329.714L1018.86 327.257L1018.54 329.163Z" fill="#42E8E0" />
        <path d="M989.797 322.11L993.736 324.376L994.054 322.47L990.136 320.204L989.797 322.11Z" fill="#42E8E0" />
        <path d="M989.438 326.558L992.403 328.274L992.721 326.367L989.755 324.652L989.438 326.558Z" fill="#42E8E0" />
        <path d="M983.846 323.317L987.764 325.584L988.082 323.699L984.163 321.411L983.846 323.317Z" fill="#42E8E0" />
        <path d="M1001.57 319.378L1004.24 320.924L1004.58 319.018L1001.91 317.493L1001.57 319.378Z" fill="#42E8E0" />
        <path d="M997.422 316.963L1000.09 318.509L1000.41 316.624L997.74 315.078L997.422 316.963Z" fill="#42E8E0" />
        <path d="M1017.93 295.232L1027.03 300.485L1027.35 298.6L1018.24 293.326L1017.93 295.232Z" fill="#42E8E0" />
        <path d="M1007.74 289.323L1016.25 294.258L1016.57 292.373L1008.06 287.438L1007.74 289.323Z" fill="#42E8E0" />
        <path d="M1003.4 286.824L1006.07 288.37L1006.38 286.463L1003.71 284.938L1003.4 286.824Z" fill="#42E8E0" />
        <path d="M999.223 284.409L1001.89 285.955L1002.21 284.07L999.54 282.524L999.223 284.409Z" fill="#42E8E0" />
        <path d="M996.958 283.096L991.197 279.771L991.515 277.885L997.276 281.211L996.958 283.096Z" fill="#42E8E0" />
    </g>


    <path
        d="M407.846 583.517C406.025 583.517 404.203 583.051 402.572 582.098L245.626 491.489C244.567 490.874 243.953 489.794 243.953 488.587C243.953 487.38 244.589 486.278 245.626 485.685L383.574 406.047L384.273 407.255L246.325 486.893C245.711 487.253 245.351 487.888 245.351 488.587C245.351 489.286 245.711 489.921 246.325 490.281L403.271 580.891C406.11 582.522 409.604 582.522 412.442 580.891L493.775 533.934L494.474 535.141L413.141 582.098C411.489 583.051 409.668 583.517 407.846 583.517Z"
        fill="url(#paint47_linear_521_27014)" />
    <path
        d="M329.543 533.511C328.039 530.927 324.735 530.079 322.151 531.583C319.567 533.087 318.72 536.391 320.223 538.975C321.727 541.559 325.031 542.406 327.615 540.903C330.178 539.378 331.046 536.073 329.543 533.511Z"
        fill="url(#paint48_linear_521_27014)" />
    <path
        d="M470.519 547.278C469.015 544.694 465.711 543.847 463.127 545.35C460.543 546.854 459.696 550.158 461.2 552.742C462.704 555.326 466.008 556.173 468.592 554.67C471.155 553.145 472.023 549.841 470.519 547.278Z"
        fill="url(#paint49_linear_521_27014)" />
    <path
        d="M712.379 545.689C710.875 543.105 707.571 542.258 704.987 543.762C702.403 545.265 701.555 548.57 703.059 551.154C704.563 553.738 707.867 554.585 710.451 553.081C713.014 551.556 713.882 548.252 712.379 545.689Z"
        fill="url(#paint50_linear_521_27014)" />
    <path
        d="M733.708 569.03C736.691 569.03 739.109 566.612 739.109 563.629C739.109 560.646 736.691 558.228 733.708 558.228C730.725 558.228 728.307 560.646 728.307 563.629C728.307 566.612 730.725 569.03 733.708 569.03Z"
        fill="url(#paint51_linear_521_27014)" />
    <path
        d="M880.086 519.871C878.582 517.286 875.278 516.439 872.694 517.943C870.11 519.447 869.263 522.751 870.766 525.335C872.27 527.919 875.574 528.766 878.158 527.262C880.721 525.737 881.589 522.433 880.086 519.871Z"
        fill="url(#paint52_linear_521_27014)" />
    <path
        d="M913.527 470.796C912.023 468.212 908.719 467.364 906.135 468.868C903.551 470.372 902.704 473.676 904.208 476.26C905.712 478.844 909.016 479.691 911.6 478.187C914.162 476.684 915.031 473.358 913.527 470.796Z"
        fill="url(#paint53_linear_521_27014)" />
    <path
        d="M882.943 452.75C881.439 450.166 878.135 449.319 875.551 450.822C872.967 452.326 872.12 455.63 873.624 458.214C875.128 460.798 878.432 461.646 881.016 460.142C883.6 458.638 884.447 455.334 882.943 452.75Z"
        fill="url(#paint54_linear_521_27014)" />
    <path
        d="M852.381 435.975C850.877 433.391 847.573 432.544 844.989 434.048C842.405 435.552 841.557 438.856 843.061 441.44C844.565 444.024 847.869 444.871 850.453 443.367C853.016 441.863 853.884 438.538 852.381 435.975Z"
        fill="url(#paint55_linear_521_27014)" />
    <path
        d="M300.167 527.241C303.149 527.241 305.568 524.823 305.568 521.84C305.568 518.857 303.149 516.439 300.167 516.439C297.184 516.439 294.766 518.857 294.766 521.84C294.766 524.823 297.184 527.241 300.167 527.241Z"
        fill="url(#paint56_linear_521_27014)" />
    <path
        d="M280.131 504.748C278.627 502.164 275.323 501.316 272.739 502.82C270.155 504.324 269.307 507.628 270.811 510.212C272.315 512.796 275.619 513.643 278.203 512.14C280.766 510.615 281.634 507.311 280.131 504.748Z"
        fill="url(#paint57_linear_521_27014)" />
    <path
        d="M340.134 430.617C338.631 428.033 335.327 427.185 332.743 428.689C330.159 430.193 329.311 433.497 330.815 436.081C332.319 438.665 335.623 439.512 338.207 438.009C340.77 436.484 341.638 433.179 340.134 430.617Z"
        fill="url(#paint58_linear_521_27014)" />
    <path
        d="M366.547 416.722C365.043 414.138 361.739 413.291 359.155 414.795C356.571 416.299 355.723 419.603 357.227 422.187C358.731 424.771 362.035 425.618 364.619 424.114C367.182 422.61 368.05 419.306 366.547 416.722Z"
        fill="url(#paint59_linear_521_27014)" />


    <g class="figure1">
        <path d="M584.992 127.016L475 63.5082L584.992 0L695 63.5082L584.992 127.016Z" fill="#BCBEFF" />
        <path d="M584.992 109.67L505.039 63.5081L584.992 17.3467L664.961 63.5081L584.992 109.67Z"
            fill="url(#paint60_linear_521_27014)" />
        <path
            d="M584.992 20.4714L662.255 65.0705L664.961 63.5081L584.992 17.3467L505.039 63.5081L507.745 65.0705L584.992 20.4714Z"
            fill="white" />
        <path d="M695 63.5083V99.5065L584.992 163.015V127.017L695 63.5083Z" fill="url(#paint61_linear_521_27014)" />
        <path d="M475 63.5083V99.5065L584.992 163.015V127.017L475 63.5083Z" fill="#24126A" />
        <g opacity="0.51">
            <path opacity="0.51" d="M482.441 79.6792V91.0182L577.551 145.926V134.587L482.441 79.6792Z" fill="#453C9E" />
        </g>
        <path
            d="M584.992 124.955L476.788 62.4775L475 63.5084L584.992 127.017L695 63.5084L693.212 62.4775L584.992 124.955Z"
            fill="white" />
        <path d="M678.489 88.731V95.1736L601.5 139.628V133.185L678.489 88.731Z" fill="#453C9E" />
        <path opacity="0.51" d="M475 63.5083V99.5065L584.992 163.015V127.017L475 63.5083Z"
            fill="url(#paint62_linear_521_27014)" />
        <path d="M552.893 125.1L532.969 113.6V115.983L552.876 127.483L552.893 125.1Z" fill="white" />
        <path d="M530.103 111.973L524.708 108.848L524.691 111.232L530.087 114.34L530.103 111.973Z" fill="white" />
        <path d="M504.815 97.3804L493.766 91.0022V93.3699L504.815 99.7481V97.3804Z" fill="white" />
        <path d="M514.881 103.195L506.908 98.5884V100.956L514.881 105.563V103.195Z" fill="white" />
        <path d="M522.368 107.511L516.973 104.403V106.77L522.368 109.895V107.511Z" fill="white" />
        <path d="M585.105 33.1956L581.609 31.1823L585.105 29.1528L588.6 31.1823L585.105 33.1956Z" fill="white" />
        <path opacity="0.1" d="M592.095 37.2222L588.6 35.2089L592.095 33.1956L595.59 35.2089L592.095 37.2222Z"
            fill="white" />
        <path opacity="0.4" d="M599.085 41.2649L595.59 39.2355L599.085 37.2222L602.58 39.2355L599.085 41.2649Z"
            fill="white" />
        <path d="M606.059 45.2918L602.58 43.2785L606.059 41.2651L609.554 43.2785L606.059 45.2918Z" fill="white" />
        <path opacity="0.4" d="M613.05 49.3345L609.555 47.3051L613.05 45.2917L616.545 47.3051L613.05 49.3345Z"
            fill="white" />
        <path d="M620.04 53.3611L616.545 51.3478L620.04 49.3345L623.535 51.3478L620.04 53.3611Z" fill="white" />
        <path d="M627.03 57.3877L623.535 55.3744L627.03 53.3611L630.525 55.3744L627.03 57.3877Z" fill="white" />
        <path d="M634.004 61.4304L630.525 59.4171L634.004 57.3877L637.5 59.4171L634.004 61.4304Z" fill="white" />
        <path opacity="0.1" d="M640.995 65.4571L637.5 63.4437L640.995 61.4304L644.49 63.4437L640.995 65.4571Z"
            fill="white" />
        <path d="M578.099 37.2383L574.604 35.225L578.099 33.2117L581.594 35.225L578.099 37.2383Z" fill="white" />
        <path d="M585.089 41.281L581.594 39.2516L585.073 37.2383L588.568 39.2516L585.089 41.281Z" fill="white" />
        <path d="M592.064 45.3076L588.568 43.2943L592.064 41.281L595.559 43.2943L592.064 45.3076Z" fill="white" />
        <path d="M599.054 49.3504L595.559 47.3209L599.054 45.3076L602.549 47.3209L599.054 49.3504Z" fill="white" />
        <path d="M606.044 53.3772L602.549 51.3639L606.044 49.3506L609.539 51.3639L606.044 53.3772Z" fill="white" />
        <path d="M613.018 57.4036L609.539 55.3903L613.018 53.377L616.513 55.3903L613.018 57.4036Z" fill="white" />
        <path d="M620.007 61.4466L616.512 59.4332L620.007 57.4038L623.502 59.4332L620.007 61.4466Z" fill="white" />
        <path d="M626.999 65.4732L623.504 63.4599L626.999 61.4465L630.494 63.4599L626.999 65.4732Z" fill="white" />
        <path d="M633.989 69.5159L630.494 67.4865L633.989 65.4731L637.484 67.4865L633.989 69.5159Z" fill="white" />
        <path d="M571.075 41.2972L567.58 39.2838L571.075 37.2544L574.57 39.2838L571.075 41.2972Z" fill="white" />
        <path d="M578.065 45.3238L574.57 43.3104L578.065 41.2971L581.561 43.3104L578.065 45.3238Z" fill="white" />
        <path d="M585.056 49.3665L581.561 47.3371L585.056 45.3237L588.551 47.3371L585.056 49.3665Z" fill="white" />
        <path opacity="0.1" d="M592.03 53.3933L588.551 51.38L592.03 49.3667L595.525 51.38L592.03 53.3933Z"
            fill="white" />
        <path opacity="0.4" d="M599.02 57.4199L595.525 55.4066L599.02 53.3933L602.516 55.4066L599.02 57.4199Z"
            fill="white" />
        <path opacity="0.4" d="M606.011 61.4627L602.516 59.4493L606.011 57.4199L609.506 59.4493L606.011 61.4627Z"
            fill="white" />
        <path d="M613.003 65.4893L609.508 63.476L613.003 61.4626L616.498 63.476L613.003 65.4893Z" fill="white" />
        <path d="M619.975 69.532L616.496 67.5026L619.975 65.4893L623.47 67.5026L619.975 69.532Z" fill="white" />
        <path d="M626.966 73.5586L623.471 71.5453L626.966 69.532L630.461 71.5453L626.966 73.5586Z" fill="white" />
        <path opacity="0.4" d="M564.069 45.3399L560.574 43.3266L564.069 41.3132L567.564 43.3266L564.069 45.3399Z"
            fill="white" />
        <path opacity="0.4" d="M571.06 49.3826L567.564 47.3532L571.06 45.3398L574.539 47.3532L571.06 49.3826Z"
            fill="white" />
        <path opacity="0.1" d="M578.034 53.4092L574.539 51.3959L578.034 49.3826L581.529 51.3959L578.034 53.4092Z"
            fill="white" />
        <path d="M585.024 57.4358L581.529 55.4225L585.024 53.4092L588.52 55.4225L585.024 57.4358Z" fill="white" />
        <path d="M592.015 61.4785L588.52 59.4652L592.015 57.4358L595.51 59.4652L592.015 61.4785Z" fill="white" />
        <path d="M598.989 65.5052L595.51 63.4918L598.989 61.4785L602.484 63.4918L598.989 65.5052Z" fill="white" />
        <path opacity="0.4" d="M605.979 69.5481L602.484 67.5187L605.979 65.5054L609.475 67.5187L605.979 69.5481Z"
            fill="white" />
        <path d="M612.97 73.5747L609.475 71.5614L612.97 69.5481L616.465 71.5614L612.97 73.5747Z" fill="white" />
        <path d="M619.96 77.6014L616.465 75.588L619.96 73.5747L623.455 75.588L619.96 77.6014Z" fill="white" />
        <path d="M557.046 49.3987L553.551 47.3693L557.046 45.356L560.541 47.3693L557.046 49.3987Z" fill="white" />
        <path d="M564.036 53.4253L560.541 51.412L564.036 49.3987L567.531 51.412L564.036 53.4253Z" fill="white" />
        <path d="M571.026 57.4519L567.531 55.4386L571.026 53.4253L574.522 55.4386L571.026 57.4519Z" fill="white" />
        <path d="M578.001 61.4949L574.521 59.4816L578.001 57.4521L581.496 59.4816L578.001 61.4949Z" fill="white" />
        <path d="M584.989 65.5213L581.494 63.508L584.989 61.4946L588.484 63.508L584.989 65.5213Z" fill="white" />
        <path d="M591.981 69.5642L588.486 67.5348L591.981 65.5215L595.477 67.5348L591.981 69.5642Z" fill="white" />
        <path d="M598.972 73.5909L595.477 71.5775L598.972 69.5642L602.467 71.5775L598.972 73.5909Z" fill="white" />
        <path d="M605.946 77.6175L602.467 75.6041L605.946 73.5908L609.441 75.6041L605.946 77.6175Z" fill="white" />
        <path d="M612.937 81.6602L609.441 79.6469L612.937 77.6174L616.432 79.6469L612.937 81.6602Z" fill="white" />
        <path d="M550.04 53.4417L546.545 51.4284L550.04 49.415L553.535 51.4284L550.04 53.4417Z" fill="white" />
        <path d="M557.03 57.4683L553.535 55.455L557.03 53.4417L560.509 55.455L557.03 57.4683Z" fill="white" />
        <path opacity="0.4" d="M564.003 61.511L560.508 59.4977L564.003 57.4683L567.498 59.4977L564.003 61.511Z"
            fill="white" />
        <path d="M570.995 65.5379L567.5 63.5246L570.995 61.5112L574.49 63.5246L570.995 65.5379Z" fill="white" />
        <path opacity="0.1" d="M577.983 69.5806L574.488 67.5512L577.983 65.5378L581.479 67.5512L577.983 69.5806Z"
            fill="white" />
        <path d="M584.959 73.6072L581.48 71.5939L584.959 69.5806L588.455 71.5939L584.959 73.6072Z" fill="white" />
        <path d="M591.948 77.6499L588.453 75.6205L591.948 73.6072L595.443 75.6205L591.948 77.6499Z" fill="white" />
        <path d="M598.94 81.6765L595.445 79.6632L598.94 77.6499L602.436 79.6632L598.94 81.6765Z" fill="white" />
        <path d="M605.929 85.7032L602.434 83.6898L605.929 81.6765L609.424 83.6898L605.929 85.7032Z" fill="white" />
        <path d="M543.019 57.4844L539.523 55.4711L543.019 53.4578L546.514 55.4711L543.019 57.4844Z" fill="white" />
        <path d="M550.009 61.5271L546.514 59.5138L550.009 57.4844L553.504 59.5138L550.009 61.5271Z" fill="white" />
        <path opacity="0.4" d="M556.999 65.5537L553.504 63.5404L556.999 61.5271L560.494 63.5404L556.999 65.5537Z"
            fill="white" />
        <path d="M563.989 69.5965L560.494 67.567L563.989 65.5537L567.468 67.567L563.989 69.5965Z" fill="white" />
        <path d="M570.962 73.6233L567.467 71.61L570.962 69.5967L574.457 71.61L570.962 73.6233Z" fill="white" />
        <path opacity="0.1" d="M577.954 77.6658L574.459 75.6364L577.954 73.623L581.449 75.6364L577.954 77.6658Z"
            fill="white" />
        <path opacity="0.4" d="M584.944 81.6927L581.449 79.6793L584.944 77.666L588.44 79.6793L584.944 81.6927Z"
            fill="white" />
        <path d="M591.918 85.7193L588.439 83.7059L591.918 81.6926L595.414 83.7059L591.918 85.7193Z" fill="white" />
        <path opacity="0.1" d="M598.909 89.762L595.414 87.7487L598.909 85.7192L602.404 87.7487L598.909 89.762Z"
            fill="white" />
        <path d="M536.013 61.5432L532.518 59.5299L536.013 57.5005L539.508 59.5299L536.013 61.5432Z" fill="white" />
        <path opacity="0.4" d="M543.003 65.5699L539.508 63.5565L543.003 61.5432L546.482 63.5565L543.003 65.5699Z"
            fill="white" />
        <path d="M549.978 69.6126L546.482 67.5831L549.978 65.5698L553.473 67.5831L549.978 69.6126Z" fill="white" />
        <path d="M556.968 73.6394L553.473 71.6261L556.968 69.6128L560.463 71.6261L556.968 73.6394Z" fill="white" />
        <path d="M563.956 77.6819L560.461 75.6525L563.956 73.6392L567.451 75.6525L563.956 77.6819Z" fill="white" />
        <path d="M570.932 81.7088L567.453 79.6955L570.932 77.6821L574.427 79.6955L570.932 81.7088Z" fill="white" />
        <path d="M577.921 85.7354L574.426 83.7221L577.921 81.7087L581.416 83.7221L577.921 85.7354Z" fill="white" />
        <path opacity="0.4" d="M584.913 89.7781L581.418 87.7648L584.913 85.7354L588.408 87.7648L584.913 89.7781Z"
            fill="white" />
        <path d="M591.901 93.8047L588.406 91.7914L591.901 89.7781L595.396 91.7914L591.901 93.8047Z" fill="white" />
        <path d="M528.989 65.586L525.494 63.5727L528.989 61.5593L532.484 63.5727L528.989 65.586Z" fill="white" />
        <path opacity="0.1" d="M535.98 69.6287L532.484 67.5993L535.98 65.5859L539.475 67.6154L535.98 69.6287Z"
            fill="white" />
        <path d="M542.97 73.6553L539.475 71.642L542.97 69.6287L546.465 71.642L542.97 73.6553Z" fill="white" />
        <path d="M549.96 77.698L546.465 75.6686L549.96 73.6553L553.439 75.6686L549.96 77.698Z" fill="white" />
        <path d="M556.935 81.7246L553.439 79.7113L556.935 77.698L560.43 79.7113L556.935 81.7246Z" fill="white" />
        <path d="M563.925 85.7513L560.43 83.7379L563.925 81.7246L567.42 83.7379L563.925 85.7513Z" fill="white" />
        <path opacity="0.4" d="M570.915 89.7942L567.42 87.7809L570.915 85.7515L574.41 87.7809L570.915 89.7942Z"
            fill="white" />
        <path d="M577.889 93.8208L574.41 91.8075L577.889 89.7942L581.384 91.8075L577.889 93.8208Z" fill="white" />
        <path d="M584.88 97.8635L581.385 95.8341L584.88 93.8208L588.375 95.8341L584.88 97.8635Z" fill="white" />
    </g>

    <defs>
        <linearGradient id="paint0_linear_521_27014" x1="679.041" y1="494.788" x2="932.88" y2="494.788"
            gradientUnits="userSpaceOnUse">
            <stop stop-color="#C0BFF6" />
            <stop offset="0.2938" stop-color="#C5C4F7" />
            <stop offset="0.6399" stop-color="#D3D2F9" />
            <stop offset="1" stop-color="#E9E9FD" />
        </linearGradient>
        <linearGradient id="paint1_linear_521_27014" x1="248.724" y1="356.802" x2="401.024" y2="356.802"
            gradientUnits="userSpaceOnUse">
            <stop stop-color="#C0BFF6" />
            <stop offset="0.2938" stop-color="#C5C4F7" />
            <stop offset="0.6399" stop-color="#D3D2F9" />
            <stop offset="1" stop-color="#E9E9FD" />
        </linearGradient>
        <linearGradient id="paint2_linear_521_27014" x1="778.21" y1="356.802" x2="930.51" y2="356.802"
            gradientUnits="userSpaceOnUse">
            <stop stop-color="#C0BFF6" />
            <stop offset="0.2938" stop-color="#C5C4F7" />
            <stop offset="0.6399" stop-color="#D3D2F9" />
            <stop offset="1" stop-color="#E9E9FD" />
        </linearGradient>
        <linearGradient id="paint3_linear_521_27014" x1="343.528" y1="382.465" x2="507.073" y2="382.465"
            gradientUnits="userSpaceOnUse">
            <stop stop-color="#C0BFF6" />
            <stop offset="0.2938" stop-color="#C5C4F7" />
            <stop offset="0.6399" stop-color="#D3D2F9" />
            <stop offset="1" stop-color="#E9E9FD" />
        </linearGradient>
        <linearGradient id="paint4_linear_521_27014" x1="303.46" y1="378.283" x2="512.054" y2="378.283"
            gradientUnits="userSpaceOnUse">
            <stop stop-color="#5761D7" />
            <stop offset="0.1645" stop-color="#5E67DA" />
            <stop offset="0.4051" stop-color="#727AE2" />
            <stop offset="0.6924" stop-color="#9297EE" />
            <stop offset="1" stop-color="#BCBEFF" />
        </linearGradient>
        <linearGradient id="paint5_linear_521_27014" x1="362.493" y1="350.095" x2="487.696" y2="350.095"
            gradientUnits="userSpaceOnUse">
            <stop stop-color="#42E8E0" />
            <stop offset="0.1507" stop-color="#43E3E0" />
            <stop offset="0.3285" stop-color="#45D5DF" />
            <stop offset="0.5199" stop-color="#49BDDD" />
            <stop offset="0.7209" stop-color="#4E9CDB" />
            <stop offset="0.9274" stop-color="#5472D8" />
            <stop offset="1" stop-color="#5761D7" />
        </linearGradient>
        <linearGradient id="paint6_linear_521_27014" x1="425.094" y1="327.467" x2="487.696" y2="327.467"
            gradientUnits="userSpaceOnUse">
            <stop stop-color="#42E8E0" />
            <stop offset="0.1507" stop-color="#43E3E0" />
            <stop offset="0.3285" stop-color="#45D5DF" />
            <stop offset="0.5199" stop-color="#49BDDD" />
            <stop offset="0.7209" stop-color="#4E9CDB" />
            <stop offset="0.9274" stop-color="#5472D8" />
            <stop offset="1" stop-color="#5761D7" />
        </linearGradient>
        <linearGradient id="paint7_linear_521_27014" x1="362.493" y1="327.466" x2="425.095" y2="327.466"
            gradientUnits="userSpaceOnUse">
            <stop stop-color="#42E8E0" />
            <stop offset="0.1507" stop-color="#43E3E0" />
            <stop offset="0.3285" stop-color="#45D5DF" />
            <stop offset="0.5199" stop-color="#49BDDD" />
            <stop offset="0.7209" stop-color="#4E9CDB" />
            <stop offset="0.9274" stop-color="#5472D8" />
            <stop offset="1" stop-color="#5761D7" />
        </linearGradient>
        <linearGradient id="paint8_linear_521_27014" x1="378.299" y1="-1411.52" x2="472.094" y2="-1411.5"
            gradientUnits="userSpaceOnUse">
            <stop stop-color="#B5A7FF" />
            <stop offset="0.484375" stop-color="#7B61FF" />
            <stop offset="1" stop-color="#5793CE" />
        </linearGradient>
        <linearGradient id="paint9_linear_521_27014" x1="425.088" y1="326.536" x2="425.088" y2="355.426"
            gradientUnits="userSpaceOnUse">
            <stop stop-color="#E1CEF2" />
            <stop offset="1" stop-color="#D3B4EF" />
        </linearGradient>
        <linearGradient id="paint10_linear_521_27014" x1="406.387" y1="-32.1305" x2="443.867" y2="-32.1174"
            gradientUnits="userSpaceOnUse">
            <stop stop-color="#B5A7FF" />
            <stop offset="0.484375" stop-color="#7B61FF" />
            <stop offset="1" stop-color="#5793CE" />
        </linearGradient>
        <linearGradient id="paint11_linear_521_27014" x1="437.294" y1="378.263" x2="466.986" y2="344.084"
            gradientUnits="userSpaceOnUse">
            <stop stop-color="#351053" />
            <stop offset="1" stop-color="#814DB2" />
        </linearGradient>
        <linearGradient id="paint12_linear_521_27014" x1="374.702" y1="378.263" x2="404.395" y2="344.094"
            gradientUnits="userSpaceOnUse">
            <stop stop-color="#351053" />
            <stop offset="1" stop-color="#814DB2" />
        </linearGradient>
        <linearGradient id="paint13_linear_521_27014" x1="362.52" y1="358.803" x2="487.694" y2="358.803"
            gradientUnits="userSpaceOnUse">
            <stop stop-color="#C0BFF6" />
            <stop offset="0.2938" stop-color="#C5C4F7" />
            <stop offset="0.6399" stop-color="#D3D2F9" />
            <stop offset="1" stop-color="#E9E9FD" />
        </linearGradient>
        <linearGradient id="paint14_linear_521_27014" x1="669.769" y1="382.465" x2="833.314" y2="382.465"
            gradientUnits="userSpaceOnUse">
            <stop stop-color="#C0BFF6" />
            <stop offset="0.2938" stop-color="#C5C4F7" />
            <stop offset="0.6399" stop-color="#D3D2F9" />
            <stop offset="1" stop-color="#E9E9FD" />
        </linearGradient>
        <linearGradient id="paint15_linear_521_27014" x1="629.703" y1="378.283" x2="838.297" y2="378.283"
            gradientUnits="userSpaceOnUse">
            <stop stop-color="#5761D7" />
            <stop offset="0.1645" stop-color="#5E67DA" />
            <stop offset="0.4051" stop-color="#727AE2" />
            <stop offset="0.6924" stop-color="#9297EE" />
            <stop offset="1" stop-color="#BCBEFF" />
        </linearGradient>
        <linearGradient id="paint16_linear_521_27014" x1="688.736" y1="350.095" x2="813.939" y2="350.095"
            gradientUnits="userSpaceOnUse">
            <stop stop-color="#42E8E0" />
            <stop offset="0.1507" stop-color="#43E3E0" />
            <stop offset="0.3285" stop-color="#45D5DF" />
            <stop offset="0.5199" stop-color="#49BDDD" />
            <stop offset="0.7209" stop-color="#4E9CDB" />
            <stop offset="0.9274" stop-color="#5472D8" />
            <stop offset="1" stop-color="#5761D7" />
        </linearGradient>
        <linearGradient id="paint17_linear_521_27014" x1="751.337" y1="327.467" x2="813.939" y2="327.467"
            gradientUnits="userSpaceOnUse">
            <stop stop-color="#42E8E0" />
            <stop offset="0.1507" stop-color="#43E3E0" />
            <stop offset="0.3285" stop-color="#45D5DF" />
            <stop offset="0.5199" stop-color="#49BDDD" />
            <stop offset="0.7209" stop-color="#4E9CDB" />
            <stop offset="0.9274" stop-color="#5472D8" />
            <stop offset="1" stop-color="#5761D7" />
        </linearGradient>
        <linearGradient id="paint18_linear_521_27014" x1="688.736" y1="327.466" x2="751.338" y2="327.466"
            gradientUnits="userSpaceOnUse">
            <stop stop-color="#42E8E0" />
            <stop offset="0.1507" stop-color="#43E3E0" />
            <stop offset="0.3285" stop-color="#45D5DF" />
            <stop offset="0.5199" stop-color="#49BDDD" />
            <stop offset="0.7209" stop-color="#4E9CDB" />
            <stop offset="0.9274" stop-color="#5472D8" />
            <stop offset="1" stop-color="#5761D7" />
        </linearGradient>
        <linearGradient id="paint19_linear_521_27014" x1="704.539" y1="-1411.52" x2="798.334" y2="-1411.5"
            gradientUnits="userSpaceOnUse">
            <stop stop-color="#B5A7FF" />
            <stop offset="0.484375" stop-color="#7B61FF" />
            <stop offset="1" stop-color="#5793CE" />
        </linearGradient>
        <linearGradient id="paint20_linear_521_27014" x1="751.328" y1="326.536" x2="751.328" y2="355.426"
            gradientUnits="userSpaceOnUse">
            <stop stop-color="#E1CEF2" />
            <stop offset="1" stop-color="#D3B4EF" />
        </linearGradient>
        <linearGradient id="paint21_linear_521_27014" x1="732.627" y1="-32.1305" x2="770.107" y2="-32.1174"
            gradientUnits="userSpaceOnUse">
            <stop stop-color="#B5A7FF" />
            <stop offset="0.484375" stop-color="#7B61FF" />
            <stop offset="1" stop-color="#5793CE" />
        </linearGradient>
        <linearGradient id="paint22_linear_521_27014" x1="763.534" y1="378.263" x2="793.226" y2="344.084"
            gradientUnits="userSpaceOnUse">
            <stop stop-color="#351053" />
            <stop offset="1" stop-color="#814DB2" />
        </linearGradient>
        <linearGradient id="paint23_linear_521_27014" x1="700.942" y1="378.263" x2="730.635" y2="344.094"
            gradientUnits="userSpaceOnUse">
            <stop stop-color="#351053" />
            <stop offset="1" stop-color="#814DB2" />
        </linearGradient>
        <linearGradient id="paint24_linear_521_27014" x1="688.761" y1="358.803" x2="813.934" y2="358.803"
            gradientUnits="userSpaceOnUse">
            <stop stop-color="#C0BFF6" />
            <stop offset="0.2938" stop-color="#C5C4F7" />
            <stop offset="0.6399" stop-color="#D3D2F9" />
            <stop offset="1" stop-color="#E9E9FD" />
        </linearGradient>
        <linearGradient id="paint25_linear_521_27014" x1="398.061" y1="477.494" x2="772.84" y2="477.494"
            gradientUnits="userSpaceOnUse">
            <stop stop-color="#C0BFF6" />
            <stop offset="0.2938" stop-color="#C5C4F7" />
            <stop offset="0.6399" stop-color="#D3D2F9" />
            <stop offset="1" stop-color="#E9E9FD" />
        </linearGradient>
        <linearGradient id="paint26_linear_521_27014" x1="516.971" y1="-2281.33" x2="653.315" y2="-2281.31"
            gradientUnits="userSpaceOnUse">
            <stop stop-color="#B5A7FF" />
            <stop offset="0.484375" stop-color="#7B61FF" />
            <stop offset="1" stop-color="#5793CE" />
        </linearGradient>
        <linearGradient id="paint27_linear_521_27014" x1="634.996" y1="483.691" x2="634.996" y2="272.66"
            gradientUnits="userSpaceOnUse">
            <stop stop-color="#C0BFF6" />
            <stop offset="0.2938" stop-color="#C5C4F7" />
            <stop offset="0.6399" stop-color="#D3D2F9" />
            <stop offset="1" stop-color="#E9E9FD" />
        </linearGradient>
        <linearGradient id="paint28_linear_521_27014" x1="508.622" y1="486.621" x2="596.62" y2="461.204"
            gradientUnits="userSpaceOnUse">
            <stop stop-color="#351053" />
            <stop offset="1" stop-color="#814DB2" />
        </linearGradient>
        <linearGradient id="paint29_linear_521_27014" x1="93.355" y1="428.251" x2="307.893" y2="428.251"
            gradientUnits="userSpaceOnUse">
            <stop stop-color="#C0BFF6" />
            <stop offset="0.2938" stop-color="#C5C4F7" />
            <stop offset="0.6399" stop-color="#D3D2F9" />
            <stop offset="1" stop-color="#E9E9FD" />
        </linearGradient>
        <linearGradient id="paint30_linear_521_27014" x1="65.6469" y1="325.983" x2="227.259" y2="325.983"
            gradientUnits="userSpaceOnUse">
            <stop stop-color="#C0BFF6" />
            <stop offset="0.2938" stop-color="#C5C4F7" />
            <stop offset="0.6399" stop-color="#D3D2F9" />
            <stop offset="1" stop-color="#E9E9FD" />
        </linearGradient>
        <linearGradient id="paint31_linear_521_27014" x1="65.6477" y1="367.429" x2="93.3982" y2="367.429"
            gradientUnits="userSpaceOnUse">
            <stop stop-color="#5761D7" />
            <stop offset="0.1779" stop-color="#5C66D9" />
            <stop offset="0.3876" stop-color="#6A73DF" />
            <stop offset="0.6134" stop-color="#8289E8" />
            <stop offset="0.849" stop-color="#A3A7F5" />
            <stop offset="1" stop-color="#BCBEFF" />
        </linearGradient>
        <linearGradient id="paint32_linear_521_27014" x1="102.434" y1="383.77" x2="213.014" y2="304.76"
            gradientUnits="userSpaceOnUse">
            <stop stop-color="#351053" />
            <stop offset="1" stop-color="#814DB2" />
        </linearGradient>
        <linearGradient id="paint33_linear_521_27014" x1="87.3005" y1="414.019" x2="315.549" y2="414.019"
            gradientUnits="userSpaceOnUse">
            <stop stop-color="#5761D7" />
            <stop offset="0.1779" stop-color="#5C66D9" />
            <stop offset="0.3876" stop-color="#6A73DF" />
            <stop offset="0.6134" stop-color="#8289E8" />
            <stop offset="0.849" stop-color="#A3A7F5" />
            <stop offset="1" stop-color="#BCBEFF" />
        </linearGradient>
        <linearGradient id="paint34_linear_521_27014" x1="163.992" y1="406.409" x2="392.362" y2="406.409"
            gradientUnits="userSpaceOnUse">
            <stop stop-color="#C0BFF6" />
            <stop offset="0.2938" stop-color="#C5C4F7" />
            <stop offset="0.6399" stop-color="#D3D2F9" />
            <stop offset="1" stop-color="#E9E9FD" />
        </linearGradient>
        <linearGradient id="paint35_linear_521_27014" x1="202.665" y1="419.373" x2="261.122" y2="419.373"
            gradientUnits="userSpaceOnUse">
            <stop stop-color="#C0BFF6" />
            <stop offset="0.2938" stop-color="#C5C4F7" />
            <stop offset="0.6399" stop-color="#D3D2F9" />
            <stop offset="1" stop-color="#E9E9FD" />
        </linearGradient>
        <linearGradient id="paint36_linear_521_27014" x1="76.7405" y1="355.791" x2="305.111" y2="355.791"
            gradientUnits="userSpaceOnUse">
            <stop stop-color="#C0BFF6" />
            <stop offset="0.2938" stop-color="#C5C4F7" />
            <stop offset="0.6399" stop-color="#D3D2F9" />
            <stop offset="1" stop-color="#E9E9FD" />
        </linearGradient>
        <linearGradient id="paint37_linear_521_27014" x1="61.7098" y1="339.027" x2="120.166" y2="339.027"
            gradientUnits="userSpaceOnUse">
            <stop stop-color="#C0BFF6" />
            <stop offset="0.2938" stop-color="#C5C4F7" />
            <stop offset="0.6399" stop-color="#D3D2F9" />
            <stop offset="1" stop-color="#E9E9FD" />
        </linearGradient>
        <linearGradient id="paint38_linear_521_27014" x1="862.136" y1="428.262" x2="1076.65" y2="428.262"
            gradientUnits="userSpaceOnUse">
            <stop stop-color="#C0BFF6" />
            <stop offset="0.2938" stop-color="#C5C4F7" />
            <stop offset="0.6399" stop-color="#D3D2F9" />
            <stop offset="1" stop-color="#E9E9FD" />
        </linearGradient>
        <linearGradient id="paint39_linear_521_27014" x1="1104.35" y1="325.983" x2="942.733" y2="325.983"
            gradientUnits="userSpaceOnUse">
            <stop stop-color="#C0BFF6" />
            <stop offset="0.2938" stop-color="#C5C4F7" />
            <stop offset="0.6399" stop-color="#D3D2F9" />
            <stop offset="1" stop-color="#E9E9FD" />
        </linearGradient>
        <linearGradient id="paint40_linear_521_27014" x1="1104.34" y1="367.429" x2="1076.59" y2="367.429"
            gradientUnits="userSpaceOnUse">
            <stop stop-color="#5761D7" />
            <stop offset="0.1779" stop-color="#5C66D9" />
            <stop offset="0.3876" stop-color="#6A73DF" />
            <stop offset="0.6134" stop-color="#8289E8" />
            <stop offset="0.849" stop-color="#A3A7F5" />
            <stop offset="1" stop-color="#BCBEFF" />
        </linearGradient>
        <linearGradient id="paint41_linear_521_27014" x1="975.126" y1="383.77" x2="1085.71" y2="304.76"
            gradientUnits="userSpaceOnUse">
            <stop stop-color="#351053" />
            <stop offset="1" stop-color="#814DB2" />
        </linearGradient>
        <linearGradient id="paint42_linear_521_27014" x1="1082.69" y1="414.019" x2="854.445" y2="414.019"
            gradientUnits="userSpaceOnUse">
            <stop stop-color="#5761D7" />
            <stop offset="0.1779" stop-color="#5C66D9" />
            <stop offset="0.3876" stop-color="#6A73DF" />
            <stop offset="0.6134" stop-color="#8289E8" />
            <stop offset="0.849" stop-color="#A3A7F5" />
            <stop offset="1" stop-color="#BCBEFF" />
        </linearGradient>
        <linearGradient id="paint43_linear_521_27014" x1="1006" y1="406.409" x2="777.63" y2="406.409"
            gradientUnits="userSpaceOnUse">
            <stop stop-color="#C0BFF6" />
            <stop offset="0.2938" stop-color="#C5C4F7" />
            <stop offset="0.6399" stop-color="#D3D2F9" />
            <stop offset="1" stop-color="#E9E9FD" />
        </linearGradient>
        <linearGradient id="paint44_linear_521_27014" x1="967.326" y1="419.373" x2="908.869" y2="419.373"
            gradientUnits="userSpaceOnUse">
            <stop stop-color="#C0BFF6" />
            <stop offset="0.2938" stop-color="#C5C4F7" />
            <stop offset="0.6399" stop-color="#D3D2F9" />
            <stop offset="1" stop-color="#E9E9FD" />
        </linearGradient>
        <linearGradient id="paint45_linear_521_27014" x1="1093.25" y1="355.791" x2="864.879" y2="355.791"
            gradientUnits="userSpaceOnUse">
            <stop stop-color="#C0BFF6" />
            <stop offset="0.2938" stop-color="#C5C4F7" />
            <stop offset="0.6399" stop-color="#D3D2F9" />
            <stop offset="1" stop-color="#E9E9FD" />
        </linearGradient>
        <linearGradient id="paint46_linear_521_27014" x1="1108.28" y1="339.028" x2="1049.82" y2="339.028"
            gradientUnits="userSpaceOnUse">
            <stop stop-color="#C0BFF6" />
            <stop offset="0.2938" stop-color="#C5C4F7" />
            <stop offset="0.6399" stop-color="#D3D2F9" />
            <stop offset="1" stop-color="#E9E9FD" />
        </linearGradient>
        <linearGradient id="paint47_linear_521_27014" x1="243.994" y1="494.777" x2="494.468" y2="494.777"
            gradientUnits="userSpaceOnUse">
            <stop stop-color="#C0BFF6" />
            <stop offset="0.2938" stop-color="#C5C4F7" />
            <stop offset="0.6399" stop-color="#D3D2F9" />
            <stop offset="1" stop-color="#E9E9FD" />
        </linearGradient>
        <linearGradient id="paint48_linear_521_27014" x1="320.843" y1="274.215" x2="328.935" y2="274.216"
            gradientUnits="userSpaceOnUse">
            <stop stop-color="#B5A7FF" />
            <stop offset="0.484375" stop-color="#7B61FF" />
            <stop offset="1" stop-color="#5793CE" />
        </linearGradient>
        <linearGradient id="paint49_linear_521_27014" x1="461.82" y1="287.983" x2="469.911" y2="287.983"
            gradientUnits="userSpaceOnUse">
            <stop stop-color="#B5A7FF" />
            <stop offset="0.484375" stop-color="#7B61FF" />
            <stop offset="1" stop-color="#5793CE" />
        </linearGradient>
        <linearGradient id="paint50_linear_521_27014" x1="703.679" y1="286.394" x2="711.771" y2="286.395"
            gradientUnits="userSpaceOnUse">
            <stop stop-color="#B5A7FF" />
            <stop offset="0.484375" stop-color="#7B61FF" />
            <stop offset="1" stop-color="#5793CE" />
        </linearGradient>
        <linearGradient id="paint51_linear_521_27014" x1="729.67" y1="301.68" x2="737.762" y2="301.681"
            gradientUnits="userSpaceOnUse">
            <stop stop-color="#B5A7FF" />
            <stop offset="0.484375" stop-color="#7B61FF" />
            <stop offset="1" stop-color="#5793CE" />
        </linearGradient>
        <linearGradient id="paint52_linear_521_27014" x1="871.386" y1="260.575" x2="879.478" y2="260.575"
            gradientUnits="userSpaceOnUse">
            <stop stop-color="#B5A7FF" />
            <stop offset="0.484375" stop-color="#7B61FF" />
            <stop offset="1" stop-color="#5793CE" />
        </linearGradient>
        <linearGradient id="paint53_linear_521_27014" x1="904.828" y1="211.501" x2="912.919" y2="211.502"
            gradientUnits="userSpaceOnUse">
            <stop stop-color="#B5A7FF" />
            <stop offset="0.484375" stop-color="#7B61FF" />
            <stop offset="1" stop-color="#5793CE" />
        </linearGradient>
        <linearGradient id="paint54_linear_521_27014" x1="874.244" y1="193.455" x2="882.339" y2="193.456"
            gradientUnits="userSpaceOnUse">
            <stop stop-color="#B5A7FF" />
            <stop offset="0.484375" stop-color="#7B61FF" />
            <stop offset="1" stop-color="#5793CE" />
        </linearGradient>
        <linearGradient id="paint55_linear_521_27014" x1="843.681" y1="176.681" x2="851.773" y2="176.682"
            gradientUnits="userSpaceOnUse">
            <stop stop-color="#B5A7FF" />
            <stop offset="0.484375" stop-color="#7B61FF" />
            <stop offset="1" stop-color="#5793CE" />
        </linearGradient>
        <linearGradient id="paint56_linear_521_27014" x1="296.129" y1="259.89" x2="304.221" y2="259.891"
            gradientUnits="userSpaceOnUse">
            <stop stop-color="#B5A7FF" />
            <stop offset="0.484375" stop-color="#7B61FF" />
            <stop offset="1" stop-color="#5793CE" />
        </linearGradient>
        <linearGradient id="paint57_linear_521_27014" x1="271.431" y1="245.452" x2="279.523" y2="245.453"
            gradientUnits="userSpaceOnUse">
            <stop stop-color="#B5A7FF" />
            <stop offset="0.484375" stop-color="#7B61FF" />
            <stop offset="1" stop-color="#5793CE" />
        </linearGradient>
        <linearGradient id="paint58_linear_521_27014" x1="331.435" y1="171.321" x2="339.527" y2="171.322"
            gradientUnits="userSpaceOnUse">
            <stop stop-color="#B5A7FF" />
            <stop offset="0.484375" stop-color="#7B61FF" />
            <stop offset="1" stop-color="#5793CE" />
        </linearGradient>
        <linearGradient id="paint59_linear_521_27014" x1="357.847" y1="157.427" x2="365.939" y2="157.428"
            gradientUnits="userSpaceOnUse">
            <stop stop-color="#B5A7FF" />
            <stop offset="0.484375" stop-color="#7B61FF" />
            <stop offset="1" stop-color="#5793CE" />
        </linearGradient>
        <linearGradient id="paint60_linear_521_27014" x1="525.22" y1="-2175.35" x2="645.03" y2="-2175.33"
            gradientUnits="userSpaceOnUse">
            <stop stop-color="#B5A7FF" />
            <stop offset="0.484375" stop-color="#7B61FF" />
            <stop offset="1" stop-color="#5793CE" />
        </linearGradient>
        <linearGradient id="paint61_linear_521_27014" x1="618.512" y1="58.0426" x2="620.801" y2="162.662"
            gradientUnits="userSpaceOnUse">
            <stop stop-color="#C3A9D9" />
            <stop offset="1" stop-color="#8C57BC" />
        </linearGradient>
        <linearGradient id="paint62_linear_521_27014" x1="496.443" y1="145.469" x2="562.137" y2="85.0381"
            gradientUnits="userSpaceOnUse">
            <stop stop-color="#351053" />
            <stop offset="1" stop-color="#814DB2" />
        </linearGradient>
    </defs>

    <style>
        .figure1 {
            animation: city 3s ease-in-out infinite;
        }

        @keyframes city {
            0% {
                transform: translateY(0)
            }

            50% {
                transform: translateY(30px)
            }

            100% {
                transform: translateY(0)
            }
        }

        .text {
            animation: text 2s linear infinite;
        }

        @keyframes text {
            0% {
                opacity: 1;
            }

            50% {
                opacity: 0;
            }

            100% {
                opacity: 1;
            }
        }
    </style>
</svg>