<svg width="1165" height="757" viewBox="0 0 1165 757" fill="none"
  xmlns="http://www.w3.org/2000/svg">
  <path class="strk2" d="M573.02 184.507V274.593C573.02 285.639 564.065 294.593 553.02 294.593H449.015C437.969 294.593 429.015 303.548 429.015 314.593V545.019" stroke="url(#paint0_linear_339_8374)" stroke-width="2"/>
  <path class="strk3" d="M598.021 196.007V274.593C598.021 285.639 606.976 294.593 618.021 294.593H721.026C732.072 294.593 741.026 303.548 741.026 314.593V545.019" stroke="url(#paint1_linear_339_8374)" stroke-width="2"/>
  <path class="strk4" d="M621.021 224.508V254.01C621.021 265.056 629.976 274.01 641.021 274.01H1046.5C1057.55 274.01 1066.5 282.964 1066.5 294.01V524.019" stroke="url(#paint2_linear_339_8374)" stroke-width="2"/>
  <path class="strk1" d="M550.52 151.506V254.01C550.52 265.056 541.565 274.01 530.52 274.01H120.5C109.454 274.01 100.5 282.964 100.5 294.01V524.019" stroke="url(#paint3_linear_339_8374)" stroke-width="2"/>

  <g class="cloud">


    <path d="M679.801 249.445L709.515 231.929L681.203 196.564L673.781 208.744L679.801 249.445Z" fill="url(#paint4_linear_339_8374)"/>
  <path d="M464.072 55.4097L511.488 28.0879C511.488 28.0879 509.702 55.3331 509.702 55.4097C509.702 55.4863 482.462 63.836 482.462 63.836L464.072 55.4097Z" fill="url(#paint5_linear_339_8374)"/>
  <path d="M688.062 160.535C684.441 158.441 680.997 157.241 677.809 156.73C673.039 131.579 655.542 104.87 634.704 92.8176C628.43 89.1917 622.461 87.2511 617.054 86.8425C614.197 56.3545 593.027 21.7044 567.317 6.84335C553.876 -0.919101 541.709 -1.83834 532.706 2.91105V2.88552L532.272 3.14086C532.043 3.26854 531.813 3.39621 531.583 3.52388L503.629 20.0446L512.913 27.3985C504.573 31.0499 499.293 40.421 499.293 54.2607C499.293 79.795 517.198 110.819 539.286 123.586L688.062 229.937C704.641 239.513 718.083 231.75 718.083 212.574C718.083 193.423 704.641 170.11 688.062 160.535Z" fill="url(#paint6_linear_339_8374)"/>
  <path d="M500.672 43.0256L564.845 5.49011C552.398 -1.02115 541.124 -1.55737 532.682 2.91114V2.88561L532.248 3.14095C532.019 3.26862 531.789 3.39629 531.56 3.52397L503.605 20.0447L512.889 27.3986C507.074 29.952 502.738 35.3143 500.672 43.0256Z" fill="url(#paint7_linear_339_8374)"/>
  <path d="M619.197 153.462L666.026 125.961C657.992 112.045 646.948 99.9162 634.705 92.8176C633.073 91.8729 631.491 91.0558 629.91 90.3408L570.354 125.221L619.197 153.462Z" fill="url(#paint8_linear_339_8374)"/>
  <path opacity="0.5" d="M516.816 23.1346L537.68 35.1868L575.888 12.6655C573.108 10.495 570.226 8.5289 567.293 6.84364C562.676 4.16253 558.187 2.32405 553.928 1.22607L516.816 23.1346Z" fill="#C3A9D9"/>
  <path opacity="0.5" d="M660.849 117.841L623.482 139.877L636.49 154.381L670.413 134.337C667.71 128.617 664.496 123.05 660.849 117.841Z" fill="#C3A9D9"/>
  <path d="M658.706 177.847C655.084 175.753 651.641 174.553 648.453 174.042C643.683 148.891 626.186 122.182 605.348 110.129C599.073 106.504 593.105 104.563 587.698 104.154C584.841 73.6663 563.671 39.0162 537.961 24.1552C510.313 8.17069 487.893 21.1166 487.893 53.0856C487.893 54.1581 487.918 55.2561 487.969 56.354C467.743 46.9574 451.955 57.5541 451.955 81.5309C451.955 107.065 469.86 138.09 491.948 150.857L658.732 247.249C675.311 256.824 688.752 249.062 688.752 229.886C688.727 210.735 675.285 187.422 658.706 177.847Z" fill="url(#paint9_linear_339_8374)"/>
  <path d="M487.944 56.3546C487.893 55.2566 487.867 54.1586 487.867 53.0862C487.867 53.0351 487.867 52.984 487.867 52.9585C476.696 48.6177 467.105 50.5072 461.061 57.4781C467.616 52.0903 477.129 51.3498 487.944 56.3546Z" fill="white"/>
  <path d="M661.13 175.472C657.508 173.379 654.065 172.178 650.876 171.668C646.107 146.516 628.61 119.807 607.771 107.755C601.497 104.129 595.528 102.189 590.121 101.78C587.264 71.2921 566.095 36.642 540.385 21.781C523.168 11.8226 507.966 13.0993 498.963 23.2109C508.145 15.3463 522.199 15.0654 537.962 24.1557C563.671 39.0167 584.841 73.6668 587.698 104.155C593.105 104.563 599.074 106.504 605.348 110.13C626.187 122.182 643.684 148.891 648.453 174.042C651.667 174.553 655.11 175.753 658.707 177.847C675.285 187.422 688.727 210.735 688.727 229.912C688.727 236.831 686.967 242.245 683.932 245.896C688.421 242.423 691.15 236.142 691.15 227.511C691.15 208.361 677.709 185.048 661.13 175.472Z" fill="white"/>
  <path d="M484.425 63.9894L496.974 69.8112L496.336 55.9971C496.285 55.0268 496.26 54.0565 496.26 53.1117C496.26 40.7786 499.984 31.8416 506.743 27.9348C513.502 24.0281 523.092 25.2793 533.779 31.4586C556.734 44.7364 576.757 77.0119 579.358 104.972L580.021 112.02L587.061 112.556C591.397 112.888 596.141 114.522 601.166 117.433C619.403 127.978 635.828 152.466 640.241 175.651L641.338 181.447L647.178 182.367C649.499 182.724 651.974 183.669 654.55 185.15C668.552 193.244 680.387 213.748 680.387 229.937C680.387 235.989 678.704 240.432 675.796 242.143C672.863 243.828 668.195 243.062 662.941 240.049L496.158 143.657C476.748 132.447 460.373 104.027 460.373 81.5825C460.373 72.7732 462.975 66.0832 467.489 63.1978C469.351 61.9977 471.596 61.4104 474.146 61.4104C477.156 61.3593 480.676 62.2275 484.425 63.9894Z" fill="url(#paint10_linear_339_8374)"/>


  </g>

  
  <path class="shadow1" opacity="0.5" d="M89.0526 685.719L4.07827 636.664C-1.97588 633.177 -1.19208 627.096 5.781 623.042L87.3498 575.933C94.3229 571.906 104.891 571.474 110.918 574.96L195.892 624.015C201.946 627.502 201.189 633.583 194.189 637.61L112.621 684.719C105.647 688.773 95.0797 689.205 89.0526 685.719Z" fill="url(#paint11_linear_339_8374)"/>


  <g class="box1">

    <g opacity="0.5">
      <path d="M199.972 568.552H157.837L110.917 541.471C104.863 537.984 94.322 538.417 87.3489 542.444L42.132 568.552H0.0232517V596.85C-0.138913 599.202 1.1584 601.499 4.07737 603.175L89.0517 652.229C95.1058 655.716 105.647 655.284 112.62 651.256L194.188 604.148C197.81 602.066 199.729 599.418 199.918 596.85H199.945V568.552H199.972Z" fill="url(#paint12_linear_339_8374)"/>
      <path d="M2.69897 598.796V570.498H44.8077L90.0247 544.39C96.9978 540.363 107.565 539.93 113.593 543.417L160.512 570.498H199.999V568.552H157.837L110.917 541.471C104.863 537.984 94.322 538.417 87.349 542.444L42.132 568.552H0.0232517V596.85C-0.138913 599.202 1.1584 601.499 4.07737 603.175L4.56386 603.445C3.18546 602.066 2.56383 600.445 2.69897 598.796Z" fill="url(#paint13_linear_339_8374)"/>
      <path d="M89.0526 623.932L4.07827 574.877C-1.97588 571.391 -1.19208 565.309 5.781 561.282L87.3498 514.173C94.3229 510.146 104.891 509.714 110.918 513.2L195.892 562.255C201.946 565.742 201.189 571.823 194.189 575.85L112.621 622.959C105.647 626.986 95.0797 627.418 89.0526 623.932Z" fill="url(#paint14_linear_339_8374)"/>
      <path d="M195.893 562.255L110.919 513.2C107.783 511.39 103.459 510.66 99.0265 510.903C102.243 511.092 105.27 511.849 107.594 513.2L192.569 562.255C198.623 565.742 197.839 571.823 190.866 575.877L109.297 622.986C105.946 624.932 101.729 626.013 97.6211 626.256C102.729 626.554 108.351 625.445 112.621 622.986L194.19 575.877C201.163 571.823 201.92 565.742 195.893 562.255Z" fill="url(#paint15_linear_339_8374)"/>
      <path d="M99.4584 612.256C96.4584 612.256 93.6205 611.662 91.4853 610.418L28.2141 573.904C26.0248 572.634 24.8086 570.85 24.8086 568.877C24.8086 566.553 26.5113 564.228 29.4573 562.526L90.188 527.471C95.5665 524.363 103.756 524.039 108.459 526.741L171.73 563.255C173.919 564.526 175.135 566.31 175.135 568.283C175.135 570.607 173.433 572.931 170.487 574.634L109.756 609.689C106.81 611.391 103.053 612.256 99.4584 612.256ZM100.512 526.309C97.1881 526.309 93.6745 527.12 90.9448 528.687L30.2141 563.742C27.7276 565.201 26.2681 567.039 26.2681 568.85C26.2681 570.283 27.214 571.634 28.9438 572.634L92.2151 609.148C96.5124 611.635 104.053 611.283 109.026 608.418L169.757 573.364C172.243 571.931 173.703 570.066 173.676 568.255C173.676 566.823 172.73 565.472 171 564.499L107.729 527.985C105.837 526.849 103.242 526.309 100.512 526.309Z" fill="url(#paint16_linear_339_8374)"/>
      <path d="M92.8622 623.932L7.88791 574.877C1.83376 571.39 2.61756 565.309 9.59064 561.282L91.1595 514.173C94.4839 512.254 98.592 511.173 102.646 510.903C97.4569 510.525 91.7 511.66 87.3486 514.173L5.77977 561.282C-1.19331 565.309 -1.95008 571.39 4.07704 574.877L89.0514 623.932C92.2136 625.77 96.6461 626.499 101.133 626.229C98.0245 625.986 95.1325 625.256 92.8622 623.932Z" fill="url(#paint17_linear_339_8374)"/>
    </g>
    <g opacity="0.65">
      <path d="M199.972 527.275H157.837L110.917 500.194C104.863 496.707 94.322 497.14 87.3489 501.167L42.132 527.275H0.0232517V555.573C-0.138913 557.924 1.1584 560.222 4.07737 561.897L89.0517 610.952C95.1058 614.439 105.647 614.006 112.62 609.979L194.188 562.87C197.81 560.789 199.729 558.14 199.918 555.573H199.945V527.275H199.972Z" fill="url(#paint18_linear_339_8374)"/>
      <path d="M2.69897 557.519V529.221H44.8077L90.0247 503.113C96.9978 499.085 107.565 498.653 113.593 502.14L160.512 529.221H199.999V527.275H157.837L110.917 500.194C104.863 496.707 94.322 497.14 87.349 501.167L42.132 527.275H0.0232517V555.573C-0.138913 557.924 1.1584 560.222 4.07737 561.897L4.56386 562.168C3.18546 560.789 2.56383 559.167 2.69897 557.519Z" fill="url(#paint19_linear_339_8374)"/>
      <path d="M89.0526 582.655L4.07827 533.6C-1.97588 530.113 -1.19208 524.032 5.781 520.005L87.3498 472.896C94.3229 468.869 104.891 468.437 110.918 471.923L195.892 520.978C201.946 524.464 201.189 530.546 194.189 534.573L112.621 581.682C105.647 585.709 95.0797 586.141 89.0526 582.655Z" fill="url(#paint20_linear_339_8374)"/>
      <path d="M195.893 520.978L110.919 471.923C107.783 470.112 103.459 469.382 99.0265 469.626C102.243 469.815 105.27 470.572 107.594 471.923L192.569 520.978C198.623 524.464 197.839 530.546 190.866 534.6L109.297 581.709C105.946 583.655 101.729 584.736 97.6211 584.979C102.729 585.276 108.351 584.168 112.621 581.709L194.19 534.6C201.163 530.546 201.92 524.464 195.893 520.978Z" fill="url(#paint21_linear_339_8374)"/>
      <path d="M99.4584 570.979C96.4584 570.979 93.6205 570.384 91.4853 569.141L28.2141 532.627C26.0248 531.357 24.8086 529.573 24.8086 527.6C24.8086 525.275 26.5113 522.951 29.4573 521.248L90.188 486.194C95.5665 483.086 103.756 482.761 108.459 485.464L171.73 521.978C173.919 523.248 175.135 525.032 175.135 527.005C175.135 529.33 173.433 531.654 170.487 533.357L109.756 568.411C106.81 570.114 103.053 570.979 99.4584 570.979ZM100.512 485.032C97.1881 485.032 93.6745 485.842 90.9448 487.41L30.2141 522.465C27.7276 523.924 26.2681 525.762 26.2681 527.573C26.2681 529.005 27.214 530.357 28.9438 531.357L92.2151 567.871C96.5124 570.357 104.053 570.006 109.026 567.141L169.757 532.086C172.243 530.654 173.703 528.789 173.676 526.978C173.676 525.546 172.73 524.194 171 523.221L107.729 486.707C105.837 485.572 103.242 485.032 100.512 485.032Z" fill="url(#paint22_linear_339_8374)"/>
      <path d="M92.8622 582.654L7.88791 533.6C1.83376 530.113 2.61756 524.032 9.59064 520.005L91.1595 472.896C94.4839 470.977 98.592 469.896 102.646 469.626C97.4569 469.247 91.7 470.382 87.3486 472.896L5.77977 520.005C-1.19331 524.032 -1.95008 530.113 4.07704 533.6L89.0514 582.654C92.2136 584.492 96.6461 585.222 101.133 584.952C98.0245 584.709 95.1325 583.979 92.8622 582.654Z" fill="url(#paint23_linear_339_8374)"/>
    </g>
    <g opacity="0.9">



      <path d="M199.972 485.998H157.837L110.917 458.917C104.863 455.43 94.322 455.862 87.3489 459.89L42.132 485.998H0.0232517V514.296C-0.138913 516.647 1.1584 518.944 4.07737 520.62L89.0517 569.675C95.1058 573.162 105.647 572.729 112.62 568.702L194.188 521.593C197.81 519.512 199.729 516.863 199.918 514.296H199.945V485.998H199.972Z" fill="url(#paint24_linear_339_8374)"/>
      <path d="M2.69897 516.242V487.944H44.8077L90.0247 461.835C96.9978 457.808 107.565 457.376 113.593 460.862L160.512 487.944H199.999V485.998H157.837L110.917 458.917C104.863 455.43 94.322 455.862 87.349 459.89L42.132 485.998H0.0232517V514.296C-0.138913 516.647 1.1584 518.944 4.07737 520.62L4.56386 520.89C3.18546 519.512 2.56383 517.89 2.69897 516.242Z" fill="url(#paint25_linear_339_8374)"/>
      <path d="M89.0526 541.377L4.07827 492.322C-1.97588 488.836 -1.19208 482.755 5.781 478.728L87.3498 431.619C94.3229 427.592 104.891 427.159 110.918 430.646L195.892 479.701C201.946 483.187 201.189 489.268 194.189 493.295L112.621 540.404C105.647 544.431 95.0797 544.864 89.0526 541.377Z" fill="url(#paint26_linear_339_8374)"/>
      <path d="M195.893 479.701L110.919 430.646C107.783 428.835 103.459 428.105 99.0265 428.349C102.243 428.538 105.27 429.295 107.594 430.646L192.569 479.701C198.623 483.187 197.839 489.269 190.866 493.323L109.297 540.431C105.946 542.377 101.729 543.459 97.6211 543.702C102.729 543.999 108.351 542.891 112.621 540.431L194.19 493.323C201.163 489.269 201.92 483.187 195.893 479.701Z" fill="url(#paint27_linear_339_8374)"/>
      <path d="M99.4584 529.701C96.4584 529.701 93.6205 529.107 91.4853 527.864L28.2141 491.35C26.0248 490.079 24.8086 488.295 24.8086 486.322C24.8086 483.998 26.5113 481.674 29.4573 479.971L90.188 444.916C95.5665 441.808 103.756 441.484 108.459 444.187L171.73 480.701C173.919 481.971 175.135 483.755 175.135 485.728C175.135 488.052 173.433 490.377 170.487 492.079L109.756 527.134C106.81 528.837 103.053 529.701 99.4584 529.701ZM100.512 443.754C97.1881 443.754 93.6745 444.565 90.9448 446.133L30.2141 481.187C27.7276 482.647 26.2681 484.485 26.2681 486.295C26.2681 487.728 27.214 489.079 28.9438 490.079L92.2151 526.593C96.5124 529.08 104.053 528.728 109.026 525.864L169.757 490.809C172.243 489.377 173.703 487.512 173.676 485.701C173.676 484.268 172.73 482.917 171 481.944L107.729 445.43C105.837 444.295 103.242 443.754 100.512 443.754Z" fill="url(#paint28_linear_339_8374)"/>
      <path d="M92.8622 541.377L7.88791 492.323C1.83376 488.836 2.61756 482.755 9.59064 478.728L91.1595 431.619C94.4839 429.7 98.592 428.619 102.646 428.349C97.4569 427.97 91.7 429.105 87.3486 431.619L5.77977 478.728C-1.19331 482.755 -1.95008 488.836 4.07704 492.323L89.0514 541.377C92.2136 543.215 96.6461 543.945 101.133 543.675C98.0245 543.431 95.1325 542.702 92.8622 541.377Z" fill="url(#paint29_linear_339_8374)"/>
    </g>

    <path d="M199.972 444.721H157.837L110.917 417.639C104.863 414.153 94.322 414.585 87.3489 418.612L42.132 444.721H0.0232517V473.018C-0.138913 475.37 1.1584 477.667 4.07737 479.343L89.0517 528.398C95.1058 531.884 105.647 531.452 112.62 527.425L194.188 480.316C197.81 478.235 199.729 475.586 199.918 473.018H199.945V444.721H199.972Z" fill="url(#paint30_linear_339_8374)"/>
    <path d="M2.69897 474.964V446.667H44.8077L90.0247 420.558C96.9978 416.531 107.565 416.099 113.593 419.585L160.512 446.667H199.999V444.721H157.837L110.917 417.639C104.863 414.153 94.322 414.585 87.349 418.612L42.132 444.721H0.0232517V473.018C-0.138913 475.37 1.1584 477.667 4.07737 479.343L4.56386 479.613C3.18546 478.235 2.56383 476.613 2.69897 474.964Z" fill="url(#paint31_linear_339_8374)"/>
    <path d="M89.0526 500.1L4.07827 451.045C-1.97588 447.559 -1.19208 441.478 5.781 437.45L87.3498 390.342C94.3229 386.315 104.891 385.882 110.918 389.369L195.892 438.423C201.946 441.91 201.189 447.991 194.189 452.018L112.621 499.127C105.647 503.154 95.0797 503.587 89.0526 500.1Z" fill="url(#paint32_linear_339_8374)"/>
    <path d="M195.893 438.423L110.919 389.369C107.783 387.558 103.459 386.828 99.0265 387.071C102.243 387.26 105.27 388.017 107.594 389.369L192.569 438.423C198.623 441.91 197.839 447.991 190.866 452.045L109.297 499.154C105.946 501.1 101.729 502.181 97.6211 502.424C102.729 502.722 108.351 501.614 112.621 499.154L194.19 452.045C201.163 447.991 201.92 441.91 195.893 438.423Z" fill="url(#paint33_linear_339_8374)"/>
    <path d="M99.4584 488.424C96.4584 488.424 93.6205 487.83 91.4853 486.586L28.2141 450.072C26.0248 448.802 24.8086 447.018 24.8086 445.045C24.8086 442.721 26.5113 440.396 29.4573 438.694L90.188 403.639C95.5665 400.531 103.756 400.207 108.459 402.909L171.73 439.423C173.919 440.694 175.135 442.477 175.135 444.45C175.135 446.775 173.433 449.099 170.487 450.802L109.756 485.857C106.81 487.559 103.053 488.424 99.4584 488.424ZM100.512 402.477C97.1881 402.477 93.6745 403.288 90.9448 404.855L30.2141 439.91C27.7276 441.369 26.2681 443.207 26.2681 445.018C26.2681 446.45 27.214 447.802 28.9438 448.802L92.2151 485.316C96.5124 487.803 104.053 487.451 109.026 484.586L169.757 449.532C172.243 448.099 173.703 446.234 173.676 444.423C173.676 442.991 172.73 441.64 171 440.667L107.729 404.153C105.837 403.017 103.242 402.477 100.512 402.477Z" fill="url(#paint34_linear_339_8374)"/>
    <path d="M92.8622 500.1L7.88791 451.045C1.83376 447.559 2.61756 441.477 9.59064 437.45L91.1595 390.342C94.4839 388.423 98.592 387.341 102.646 387.071C97.4569 386.693 91.7 387.828 87.3486 390.342L5.77977 437.45C-1.19331 441.477 -1.95008 447.559 4.07704 451.045L89.0514 500.1C92.2136 501.938 96.6461 502.668 101.133 502.397C98.0245 502.154 95.1325 501.424 92.8622 500.1Z" fill="url(#paint35_linear_339_8374)"/>
    <path d="M115.027 515.857L186.893 474.289C187.542 473.91 188.082 472.883 188.082 472.018V468.613C188.082 467.748 187.542 467.343 186.893 467.721L115.027 509.289C114.378 509.668 113.838 510.695 113.838 511.56V514.965C113.838 515.83 114.378 516.235 115.027 515.857Z" fill="url(#paint36_linear_339_8374)"/>
    <path d="M185.353 473.37C186.002 472.991 186.542 471.964 186.542 471.099V467.91L186.92 467.694C187.569 467.316 188.11 467.721 188.11 468.586V471.991C188.11 472.856 187.569 473.883 186.92 474.262L115.054 515.83C114.406 516.208 113.865 515.803 113.865 514.938V514.722L185.353 473.37Z" fill="url(#paint37_linear_339_8374)"/>


  </g>


  <path class="shadow2" opacity="0.5" d="M417.053 753.721L332.078 704.666C326.024 701.18 326.808 695.099 333.781 691.045L415.35 643.936C422.323 639.909 432.891 639.476 438.918 642.963L523.892 692.018C529.946 695.504 529.189 701.585 522.189 705.612L440.621 752.721C433.647 756.775 423.08 757.208 417.053 753.721Z" fill="url(#paint38_linear_339_8374)"/>

  <g class="box2">

    <g opacity="0.5">
      <path d="M527.972 636.555H485.837L438.917 609.473C432.863 605.987 422.322 606.419 415.349 610.446L370.132 636.555H328.023V664.853C327.861 667.204 329.158 669.501 332.077 671.177L417.052 720.232C423.106 723.718 433.647 723.286 440.62 719.259L522.188 672.15C525.81 670.069 527.729 667.42 527.918 664.853H527.945V636.555H527.972Z" fill="url(#paint39_linear_339_8374)"/>
      <path d="M330.699 666.799V638.501H372.808L418.025 612.392C424.998 608.365 435.565 607.933 441.593 611.419L488.512 638.501H527.999V636.555H485.837L438.917 609.473C432.863 605.987 422.322 606.419 415.349 610.446L370.132 636.555H328.023V664.853C327.861 667.204 329.158 669.501 332.077 671.177L332.564 671.447C331.185 670.069 330.564 668.447 330.699 666.799Z" fill="url(#paint40_linear_339_8374)"/>
      <path d="M417.053 691.934L332.078 642.88C326.024 639.393 326.808 633.312 333.781 629.285L415.35 582.176C422.323 578.149 432.891 577.716 438.918 581.203L523.892 630.258C529.946 633.744 529.189 639.825 522.189 643.853L440.621 690.961C433.647 694.988 423.08 695.421 417.053 691.934Z" fill="url(#paint41_linear_339_8374)"/>
      <path d="M523.893 630.258L438.919 581.203C435.783 579.392 431.459 578.663 427.027 578.906C430.243 579.095 433.27 579.852 435.594 581.203L520.569 630.258C526.623 633.744 525.839 639.826 518.866 643.88L437.297 690.989C433.946 692.935 429.729 694.016 425.621 694.259C430.729 694.556 436.351 693.448 440.621 690.989L522.19 643.88C529.163 639.826 529.92 633.744 523.893 630.258Z" fill="url(#paint42_linear_339_8374)"/>
      <path d="M427.458 680.259C424.458 680.259 421.62 679.664 419.485 678.421L356.214 641.907C354.025 640.636 352.809 638.853 352.809 636.88C352.809 634.555 354.511 632.231 357.457 630.528L418.188 595.473C423.566 592.365 431.756 592.041 436.459 594.744L499.73 631.258C501.919 632.528 503.135 634.312 503.135 636.285C503.135 638.609 501.433 640.934 498.487 642.636L437.756 677.691C434.81 679.394 431.053 680.259 427.458 680.259ZM428.512 594.311C425.188 594.311 421.675 595.122 418.945 596.69L358.214 631.744C355.728 633.204 354.268 635.042 354.268 636.853C354.268 638.285 355.214 639.636 356.944 640.636L420.215 677.15C424.512 679.637 432.053 679.286 437.026 676.421L497.757 641.366C500.243 639.934 501.703 638.069 501.676 636.258C501.676 634.825 500.73 633.474 499 632.501L435.729 595.987C433.837 594.852 431.242 594.311 428.512 594.311Z" fill="url(#paint43_linear_339_8374)"/>
      <path d="M420.862 691.935L335.888 642.88C329.834 639.393 330.618 633.312 337.591 629.285L419.159 582.176C422.484 580.257 426.592 579.176 430.646 578.906C425.457 578.527 419.7 579.662 415.349 582.176L333.78 629.285C326.807 633.312 326.05 639.393 332.077 642.88L417.051 691.935C420.214 693.772 424.646 694.502 429.133 694.232C426.024 693.989 423.133 693.259 420.862 691.935Z" fill="url(#paint44_linear_339_8374)"/>
    </g>
    <g opacity="0.65">
      <path d="M527.972 595.278H485.837L438.917 568.196C432.863 564.71 422.322 565.142 415.349 569.169L370.132 595.278H328.023V623.576C327.861 625.927 329.158 628.224 332.077 629.9L417.052 678.955C423.106 682.441 433.647 682.009 440.62 677.982L522.188 630.873C525.81 628.792 527.729 626.143 527.918 623.576H527.945V595.278H527.972Z" fill="url(#paint45_linear_339_8374)"/>
      <path d="M330.699 625.521V597.224H372.808L418.025 571.115C424.998 567.088 435.565 566.656 441.593 570.142L488.512 597.224H527.999V595.278H485.837L438.917 568.196C432.863 564.71 422.322 565.142 415.349 569.169L370.132 595.278H328.023V623.576C327.861 625.927 329.158 628.224 332.077 629.9L332.564 630.17C331.185 628.792 330.564 627.17 330.699 625.521Z" fill="url(#paint46_linear_339_8374)"/>
      <path d="M417.053 650.657L332.078 601.602C326.024 598.116 326.808 592.034 333.781 588.007L415.35 540.899C422.323 536.871 432.891 536.439 438.918 539.926L523.892 588.98C529.946 592.467 529.189 598.548 522.189 602.575L440.621 649.684C433.647 653.711 423.08 654.144 417.053 650.657Z" fill="url(#paint47_linear_339_8374)"/>
      <path d="M523.893 588.981L438.919 539.926C435.783 538.115 431.459 537.385 427.027 537.628C430.243 537.818 433.27 538.574 435.594 539.926L520.569 588.981C526.623 592.467 525.839 598.548 518.866 602.602L437.297 649.711C433.946 651.657 429.729 652.738 425.621 652.982C430.729 653.279 436.351 652.171 440.621 649.711L522.19 602.602C529.163 598.548 529.92 592.467 523.893 588.981Z" fill="url(#paint48_linear_339_8374)"/>
      <path d="M427.458 638.981C424.458 638.981 421.62 638.387 419.485 637.143L356.214 600.629C354.025 599.359 352.809 597.575 352.809 595.602C352.809 593.278 354.511 590.953 357.457 589.251L418.188 554.196C423.566 551.088 431.756 550.764 436.459 553.466L499.73 589.981C501.919 591.251 503.135 593.035 503.135 595.008C503.135 597.332 501.433 599.656 498.487 601.359L437.756 636.414C434.81 638.116 431.053 638.981 427.458 638.981ZM428.512 553.034C425.188 553.034 421.675 553.845 418.945 555.412L358.214 590.467C355.728 591.926 354.268 593.764 354.268 595.575C354.268 597.008 355.214 598.359 356.944 599.359L420.215 635.873C424.512 638.36 432.053 638.008 437.026 635.143L497.757 600.089C500.243 598.656 501.703 596.791 501.676 594.981C501.676 593.548 500.73 592.197 499 591.224L435.729 554.71C433.837 553.575 431.242 553.034 428.512 553.034Z" fill="url(#paint49_linear_339_8374)"/>
      <path d="M420.862 650.657L335.888 601.602C329.834 598.116 330.618 592.035 337.591 588.008L419.159 540.899C422.484 538.98 426.592 537.899 430.646 537.628C425.457 537.25 419.7 538.385 415.349 540.899L333.78 588.008C326.807 592.035 326.05 598.116 332.077 601.602L417.051 650.657C420.214 652.495 424.646 653.225 429.133 652.955C426.024 652.711 423.133 651.982 420.862 650.657Z" fill="url(#paint50_linear_339_8374)"/>
    </g>
    <g opacity="0.9">
      <path d="M527.972 554H485.837L438.917 526.919C432.863 523.432 422.322 523.865 415.349 527.892L370.132 554H328.023V582.298C327.861 584.649 329.158 586.947 332.077 588.622L417.052 637.677C423.106 641.164 433.647 640.731 440.62 636.704L522.188 589.595C525.81 587.514 527.729 584.866 527.918 582.298H527.945V554H527.972Z" fill="url(#paint51_linear_339_8374)"/>
      <path d="M330.699 584.244V555.946H372.808L418.025 529.838C424.998 525.811 435.565 525.378 441.593 528.865L488.512 555.946H527.999V554H485.837L438.917 526.919C432.863 523.432 422.322 523.865 415.349 527.892L370.132 554H328.023V582.298C327.861 584.649 329.158 586.947 332.077 588.622L332.564 588.893C331.185 587.514 330.564 585.893 330.699 584.244Z" fill="url(#paint52_linear_339_8374)"/>
      <path d="M417.053 609.38L332.078 560.325C326.024 556.838 326.808 550.757 333.781 546.73L415.35 499.621C422.323 495.594 432.891 495.162 438.918 498.648L523.892 547.703C529.946 551.19 529.189 557.271 522.189 561.298L440.621 608.407C433.647 612.434 423.08 612.866 417.053 609.38Z" fill="url(#paint53_linear_339_8374)"/>
      <path d="M523.893 547.703L438.919 498.648C435.783 496.838 431.459 496.108 427.027 496.351C430.243 496.54 433.27 497.297 435.594 498.648L520.569 547.703C526.623 551.19 525.839 557.271 518.866 561.325L437.297 608.434C433.946 610.38 429.729 611.461 425.621 611.704C430.729 612.002 436.351 610.893 440.621 608.434L522.19 561.325C529.163 557.271 529.92 551.19 523.893 547.703Z" fill="url(#paint54_linear_339_8374)"/>
      <path d="M427.458 597.704C424.458 597.704 421.62 597.109 419.485 595.866L356.214 559.352C354.025 558.082 352.809 556.298 352.809 554.325C352.809 552.001 354.511 549.676 357.457 547.973L418.188 512.919C423.566 509.811 431.756 509.486 436.459 512.189L499.73 548.703C501.919 549.973 503.135 551.757 503.135 553.73C503.135 556.055 501.433 558.379 498.487 560.082L437.756 595.136C434.81 596.839 431.053 597.704 427.458 597.704ZM428.512 511.757C425.188 511.757 421.675 512.567 418.945 514.135L358.214 549.19C355.728 550.649 354.268 552.487 354.268 554.298C354.268 555.73 355.214 557.082 356.944 558.082L420.215 594.596C424.512 597.082 432.053 596.731 437.026 593.866L497.757 558.811C500.243 557.379 501.703 555.514 501.676 553.703C501.676 552.271 500.73 550.919 499 549.946L435.729 513.432C433.837 512.297 431.242 511.757 428.512 511.757Z" fill="url(#paint55_linear_339_8374)"/>
      <path d="M420.862 609.38L335.888 560.325C329.834 556.838 330.618 550.757 337.591 546.73L419.159 499.621C422.484 497.702 426.592 496.621 430.646 496.351C425.457 495.973 419.7 497.108 415.349 499.621L333.78 546.73C326.807 550.757 326.05 556.838 332.077 560.325L417.051 609.38C420.214 611.218 424.646 611.947 429.133 611.677C426.024 611.434 423.133 610.704 420.862 609.38Z" fill="url(#paint56_linear_339_8374)"/>
    </g>
    <path d="M527.972 512.723H485.837L438.917 485.642C432.863 482.155 422.322 482.588 415.349 486.615L370.132 512.723H328.023V541.021C327.861 543.372 329.158 545.67 332.077 547.346L417.052 596.4C423.106 599.887 433.647 599.454 440.62 595.427L522.188 548.319C525.81 546.237 527.729 543.589 527.918 541.021H527.945V512.723H527.972Z" fill="url(#paint57_linear_339_8374)"/>
    <path d="M330.699 542.967V514.669H372.808L418.025 488.561C424.998 484.534 435.565 484.101 441.593 487.588L488.512 514.669H527.999V512.723H485.837L438.917 485.642C432.863 482.155 422.322 482.588 415.349 486.615L370.132 512.723H328.023V541.021C327.861 543.372 329.158 545.67 332.077 547.345L332.564 547.616C331.185 546.237 330.564 544.616 330.699 542.967Z" fill="url(#paint58_linear_339_8374)"/>
    <path d="M417.053 568.103L332.078 519.048C326.024 515.561 326.808 509.48 333.781 505.453L415.35 458.344C422.323 454.317 432.891 453.885 438.918 457.371L523.892 506.426C529.946 509.912 529.189 515.994 522.189 520.021L440.621 567.13C433.647 571.157 423.08 571.589 417.053 568.103Z" fill="url(#paint59_linear_339_8374)"/>
    <path d="M523.893 506.426L438.919 457.371C435.783 455.56 431.459 454.83 427.027 455.074C430.243 455.263 433.27 456.02 435.594 457.371L520.569 506.426C526.623 509.912 525.839 515.994 518.866 520.048L437.297 567.157C433.946 569.103 429.729 570.184 425.621 570.427C430.729 570.724 436.351 569.616 440.621 567.157L522.19 520.048C529.163 515.994 529.92 509.912 523.893 506.426Z" fill="url(#paint60_linear_339_8374)"/>
    <path d="M427.458 556.427C424.458 556.427 421.62 555.832 419.485 554.589L356.214 518.075C354.025 516.805 352.809 515.021 352.809 513.048C352.809 510.723 354.511 508.399 357.457 506.696L418.188 471.642C423.566 468.534 431.756 468.209 436.459 470.912L499.73 507.426C501.919 508.696 503.135 510.48 503.135 512.453C503.135 514.778 501.433 517.102 498.487 518.805L437.756 553.859C434.81 555.562 431.053 556.427 427.458 556.427ZM428.512 470.48C425.188 470.48 421.675 471.29 418.945 472.858L358.214 507.913C355.728 509.372 354.268 511.21 354.268 513.021C354.268 514.453 355.214 515.805 356.944 516.805L420.215 553.319C424.512 555.805 432.053 555.454 437.026 552.589L497.757 517.534C500.243 516.102 501.703 514.237 501.676 512.426C501.676 510.994 500.73 509.642 499 508.669L435.729 472.155C433.837 471.02 431.242 470.48 428.512 470.48Z" fill="url(#paint61_linear_339_8374)"/>
    <path d="M420.862 568.102L335.888 519.048C329.834 515.561 330.618 509.48 337.591 505.453L419.159 458.344C422.484 456.425 426.592 455.344 430.646 455.074C425.457 454.695 419.7 455.83 415.349 458.344L333.78 505.453C326.807 509.48 326.05 515.561 332.077 519.048L417.051 568.102C420.214 569.94 424.646 570.67 429.133 570.4C426.024 570.157 423.133 569.427 420.862 568.102Z" fill="url(#paint62_linear_339_8374)"/>
    <path d="M443.027 583.86L514.893 542.291C515.542 541.913 516.082 540.886 516.082 540.021V536.616C516.082 535.751 515.542 535.345 514.893 535.724L443.027 577.292C442.378 577.67 441.838 578.697 441.838 579.562V582.968C441.838 583.833 442.378 584.238 443.027 583.86Z" fill="url(#paint63_linear_339_8374)"/>
    <path d="M513.353 541.372C514.002 540.994 514.542 539.967 514.542 539.102V535.913L514.92 535.697C515.569 535.318 516.11 535.724 516.11 536.589V539.994C516.11 540.859 515.569 541.886 514.92 542.264L443.054 583.833C442.406 584.211 441.865 583.806 441.865 582.941V582.724L513.353 541.372Z" fill="url(#paint64_linear_339_8374)"/>

  </g>


  <path class="shadow3" opacity="0.5" d="M728.053 685.719L643.078 636.664C637.024 633.177 637.808 627.096 644.781 623.042L726.35 575.933C733.323 571.906 743.891 571.474 749.918 574.96L834.892 624.015C840.946 627.502 840.189 633.583 833.189 637.61L751.621 684.719C744.647 688.773 734.08 689.205 728.053 685.719Z" fill="url(#paint65_linear_339_8374)"/>

  <g class="box3">


    <g opacity="0.5">
      <path d="M838.972 568.552H796.837L749.917 541.471C743.863 537.984 733.322 538.417 726.349 542.444L681.132 568.552H639.023V596.85C638.861 599.202 640.158 601.499 643.077 603.175L728.052 652.229C734.106 655.716 744.647 655.284 751.62 651.256L833.188 604.148C836.81 602.066 838.729 599.418 838.918 596.85H838.945V568.552H838.972Z" fill="url(#paint66_linear_339_8374)"/>
      <path d="M641.699 598.796V570.498H683.808L729.025 544.39C735.998 540.363 746.565 539.93 752.593 543.417L799.512 570.498H838.999V568.552H796.837L749.917 541.471C743.863 537.984 733.322 538.417 726.349 542.444L681.132 568.552H639.023V596.85C638.861 599.202 640.158 601.499 643.077 603.175L643.564 603.445C642.185 602.066 641.564 600.445 641.699 598.796Z" fill="url(#paint67_linear_339_8374)"/>
      <path d="M728.053 623.932L643.078 574.877C637.024 571.391 637.808 565.309 644.781 561.282L726.35 514.173C733.323 510.146 743.891 509.714 749.918 513.2L834.892 562.255C840.946 565.742 840.189 571.823 833.189 575.85L751.621 622.959C744.647 626.986 734.08 627.418 728.053 623.932Z" fill="url(#paint68_linear_339_8374)"/>
      <path d="M834.893 562.255L749.919 513.2C746.783 511.39 742.459 510.66 738.027 510.903C741.243 511.092 744.27 511.849 746.594 513.2L831.569 562.255C837.623 565.742 836.839 571.823 829.866 575.877L748.297 622.986C744.946 624.932 740.729 626.013 736.621 626.256C741.729 626.554 747.351 625.445 751.621 622.986L833.19 575.877C840.163 571.823 840.92 565.742 834.893 562.255Z" fill="url(#paint69_linear_339_8374)"/>
      <path d="M738.458 612.256C735.458 612.256 732.62 611.662 730.485 610.418L667.214 573.904C665.025 572.634 663.809 570.85 663.809 568.877C663.809 566.553 665.511 564.228 668.457 562.526L729.188 527.471C734.566 524.363 742.756 524.039 747.459 526.741L810.73 563.255C812.919 564.526 814.135 566.31 814.135 568.283C814.135 570.607 812.433 572.931 809.487 574.634L748.756 609.689C745.81 611.391 742.053 612.256 738.458 612.256ZM739.512 526.309C736.188 526.309 732.675 527.12 729.945 528.687L669.214 563.742C666.728 565.201 665.268 567.039 665.268 568.85C665.268 570.283 666.214 571.634 667.944 572.634L731.215 609.148C735.512 611.635 743.053 611.283 748.026 608.418L808.757 573.364C811.243 571.931 812.703 570.066 812.676 568.255C812.676 566.823 811.73 565.472 810 564.499L746.729 527.985C744.837 526.849 742.242 526.309 739.512 526.309Z" fill="url(#paint70_linear_339_8374)"/>
      <path d="M731.862 623.932L646.888 574.877C640.834 571.39 641.618 565.309 648.591 561.282L730.159 514.173C733.484 512.254 737.592 511.173 741.646 510.903C736.457 510.525 730.7 511.66 726.349 514.173L644.78 561.282C637.807 565.309 637.05 571.39 643.077 574.877L728.051 623.932C731.214 625.77 735.646 626.499 740.133 626.229C737.024 625.986 734.133 625.256 731.862 623.932Z" fill="url(#paint71_linear_339_8374)"/>
    </g>
    <g opacity="0.65">
      <path d="M838.972 527.275H796.837L749.917 500.194C743.863 496.707 733.322 497.14 726.349 501.167L681.132 527.275H639.023V555.573C638.861 557.924 640.158 560.222 643.077 561.898L728.052 610.952C734.106 614.439 744.647 614.006 751.62 609.979L833.188 562.871C836.81 560.789 838.729 558.141 838.918 555.573H838.945V527.275H838.972Z" fill="url(#paint72_linear_339_8374)"/>
      <path d="M641.699 557.519V529.221H683.808L729.025 503.113C735.998 499.086 746.565 498.653 752.593 502.14L799.512 529.221H838.999V527.275H796.837L749.917 500.194C743.863 496.707 733.322 497.14 726.349 501.167L681.132 527.275H639.023V555.573C638.861 557.924 640.158 560.222 643.077 561.897L643.564 562.168C642.185 560.789 641.564 559.168 641.699 557.519Z" fill="url(#paint73_linear_339_8374)"/>
      <path d="M728.053 582.655L643.078 533.6C637.024 530.113 637.808 524.032 644.781 520.005L726.35 472.896C733.323 468.869 743.891 468.437 749.918 471.923L834.892 520.978C840.946 524.464 840.189 530.546 833.189 534.573L751.621 581.682C744.647 585.709 734.08 586.141 728.053 582.655Z" fill="url(#paint74_linear_339_8374)"/>
      <path d="M834.893 520.978L749.919 471.923C746.783 470.112 742.459 469.383 738.027 469.626C741.243 469.815 744.27 470.572 746.594 471.923L831.569 520.978C837.623 524.465 836.839 530.546 829.866 534.6L748.297 581.709C744.946 583.655 740.729 584.736 736.621 584.979C741.729 585.276 747.351 584.168 751.621 581.709L833.19 534.6C840.163 530.546 840.92 524.465 834.893 520.978Z" fill="url(#paint75_linear_339_8374)"/>
      <path d="M738.458 570.979C735.458 570.979 732.62 570.384 730.485 569.141L667.214 532.627C665.025 531.357 663.809 529.573 663.809 527.6C663.809 525.275 665.511 522.951 668.457 521.248L729.188 486.194C734.566 483.086 742.756 482.761 747.459 485.464L810.73 521.978C812.919 523.248 814.135 525.032 814.135 527.005C814.135 529.33 812.433 531.654 809.487 533.357L748.756 568.411C745.81 570.114 742.053 570.979 738.458 570.979ZM739.512 485.032C736.188 485.032 732.675 485.842 729.945 487.41L669.214 522.465C666.728 523.924 665.268 525.762 665.268 527.573C665.268 529.005 666.214 530.357 667.944 531.357L731.215 567.871C735.512 570.357 743.053 570.006 748.026 567.141L808.757 532.086C811.243 530.654 812.703 528.789 812.676 526.978C812.676 525.546 811.73 524.194 810 523.221L746.729 486.707C744.837 485.572 742.242 485.032 739.512 485.032Z" fill="url(#paint76_linear_339_8374)"/>
      <path d="M731.862 582.655L646.888 533.6C640.834 530.113 641.618 524.032 648.591 520.005L730.159 472.896C733.484 470.977 737.592 469.896 741.646 469.626C736.457 469.248 730.7 470.383 726.349 472.896L644.78 520.005C637.807 524.032 637.05 530.113 643.077 533.6L728.051 582.655C731.214 584.493 735.646 585.222 740.133 584.952C737.024 584.709 734.133 583.979 731.862 582.655Z" fill="url(#paint77_linear_339_8374)"/>
    </g>
    <g opacity="0.9">
      <path d="M838.972 485.998H796.837L749.917 458.917C743.863 455.43 733.322 455.862 726.349 459.89L681.132 485.998H639.023V514.296C638.861 516.647 640.158 518.944 643.077 520.62L728.052 569.675C734.106 573.162 744.647 572.729 751.62 568.702L833.188 521.593C836.81 519.512 838.729 516.863 838.918 514.296H838.945V485.998H838.972Z" fill="url(#paint78_linear_339_8374)"/>
      <path d="M641.699 516.242V487.944H683.808L729.025 461.835C735.998 457.808 746.565 457.376 752.593 460.862L799.512 487.944H838.999V485.998H796.837L749.917 458.917C743.863 455.43 733.322 455.862 726.349 459.89L681.132 485.998H639.023V514.296C638.861 516.647 640.158 518.944 643.077 520.62L643.564 520.89C642.185 519.512 641.564 517.89 641.699 516.242Z" fill="url(#paint79_linear_339_8374)"/>
      <path d="M728.053 541.378L643.078 492.323C637.024 488.836 637.808 482.755 644.781 478.728L726.35 431.619C733.323 427.592 743.891 427.159 749.918 430.646L834.892 479.701C840.946 483.187 840.189 489.269 833.189 493.296L751.621 540.405C744.647 544.432 734.08 544.864 728.053 541.378Z" fill="url(#paint80_linear_339_8374)"/>
      <path d="M834.893 479.701L749.919 430.646C746.783 428.835 742.459 428.105 738.027 428.349C741.243 428.538 744.27 429.295 746.594 430.646L831.569 479.701C837.623 483.187 836.839 489.269 829.866 493.323L748.297 540.431C744.946 542.377 740.729 543.459 736.621 543.702C741.729 543.999 747.351 542.891 751.621 540.431L833.19 493.323C840.163 489.269 840.92 483.187 834.893 479.701Z" fill="url(#paint81_linear_339_8374)"/>
      <path d="M738.458 529.701C735.458 529.701 732.62 529.107 730.485 527.864L667.214 491.35C665.025 490.079 663.809 488.295 663.809 486.322C663.809 483.998 665.511 481.674 668.457 479.971L729.188 444.916C734.566 441.808 742.756 441.484 747.459 444.187L810.73 480.701C812.919 481.971 814.135 483.755 814.135 485.728C814.135 488.052 812.433 490.377 809.487 492.079L748.756 527.134C745.81 528.837 742.053 529.701 738.458 529.701ZM739.512 443.754C736.188 443.754 732.675 444.565 729.945 446.133L669.214 481.187C666.728 482.647 665.268 484.485 665.268 486.295C665.268 487.728 666.214 489.079 667.944 490.079L731.215 526.593C735.512 529.08 743.053 528.728 748.026 525.864L808.757 490.809C811.243 489.377 812.703 487.512 812.676 485.701C812.676 484.268 811.73 482.917 810 481.944L746.729 445.43C744.837 444.295 742.242 443.754 739.512 443.754Z" fill="url(#paint82_linear_339_8374)"/>
      <path d="M731.862 541.377L646.888 492.323C640.834 488.836 641.618 482.755 648.591 478.728L730.159 431.619C733.484 429.7 737.592 428.619 741.646 428.349C736.457 427.97 730.7 429.105 726.349 431.619L644.78 478.728C637.807 482.755 637.05 488.836 643.077 492.323L728.051 541.377C731.214 543.215 735.646 543.945 740.133 543.675C737.024 543.431 734.133 542.702 731.862 541.377Z" fill="url(#paint83_linear_339_8374)"/>
    </g>
    <path d="M838.972 444.72H796.837L749.917 417.639C743.863 414.152 733.322 414.585 726.349 418.612L681.132 444.72H639.023V473.018C638.861 475.37 640.158 477.667 643.077 479.343L728.052 528.397C734.106 531.884 744.647 531.452 751.62 527.424L833.188 480.316C836.81 478.234 838.729 475.586 838.918 473.018H838.945V444.72H838.972Z" fill="url(#paint84_linear_339_8374)"/>
    <path d="M641.699 474.964V446.666H683.808L729.025 420.558C735.998 416.531 746.565 416.098 752.593 419.585L799.512 446.666H838.999V444.72H796.837L749.917 417.639C743.863 414.152 733.322 414.585 726.349 418.612L681.132 444.72H639.023V473.018C638.861 475.37 640.158 477.667 643.077 479.343L643.564 479.613C642.185 478.234 641.564 476.613 641.699 474.964Z" fill="url(#paint85_linear_339_8374)"/>
    <path d="M728.053 500.1L643.078 451.045C637.024 447.559 637.808 441.478 644.781 437.45L726.35 390.342C733.323 386.315 743.891 385.882 749.918 389.369L834.892 438.423C840.946 441.91 840.189 447.991 833.189 452.018L751.621 499.127C744.647 503.154 734.08 503.587 728.053 500.1Z" fill="url(#paint86_linear_339_8374)"/>
    <path d="M834.893 438.423L749.919 389.369C746.783 387.558 742.459 386.828 738.027 387.071C741.243 387.26 744.27 388.017 746.594 389.369L831.569 438.423C837.623 441.91 836.839 447.991 829.866 452.045L748.297 499.154C744.946 501.1 740.729 502.181 736.621 502.424C741.729 502.722 747.351 501.614 751.621 499.154L833.19 452.045C840.163 447.991 840.92 441.91 834.893 438.423Z" fill="url(#paint87_linear_339_8374)"/>
    <path d="M738.458 488.424C735.458 488.424 732.62 487.83 730.485 486.586L667.214 450.072C665.025 448.802 663.809 447.018 663.809 445.045C663.809 442.721 665.511 440.396 668.457 438.694L729.188 403.639C734.566 400.531 742.756 400.207 747.459 402.909L810.73 439.423C812.919 440.694 814.135 442.477 814.135 444.45C814.135 446.775 812.433 449.099 809.487 450.802L748.756 485.857C745.81 487.559 742.053 488.424 738.458 488.424ZM739.512 402.477C736.188 402.477 732.675 403.288 729.945 404.855L669.214 439.91C666.728 441.369 665.268 443.207 665.268 445.018C665.268 446.45 666.214 447.802 667.944 448.802L731.215 485.316C735.512 487.803 743.053 487.451 748.026 484.586L808.757 449.532C811.243 448.099 812.703 446.234 812.676 444.423C812.676 442.991 811.73 441.64 810 440.667L746.729 404.153C744.837 403.017 742.242 402.477 739.512 402.477Z" fill="url(#paint88_linear_339_8374)"/>
    <path d="M731.862 500.1L646.888 451.045C640.834 447.559 641.618 441.477 648.591 437.45L730.159 390.342C733.484 388.423 737.592 387.341 741.646 387.071C736.457 386.693 730.7 387.828 726.349 390.342L644.78 437.45C637.807 441.477 637.05 447.559 643.077 451.045L728.051 500.1C731.214 501.938 735.646 502.668 740.133 502.397C737.024 502.154 734.133 501.424 731.862 500.1Z" fill="url(#paint89_linear_339_8374)"/>
    <path d="M754.027 515.857L825.893 474.289C826.542 473.91 827.082 472.883 827.082 472.018V468.613C827.082 467.748 826.542 467.343 825.893 467.721L754.027 509.289C753.378 509.668 752.838 510.695 752.838 511.56V514.965C752.838 515.83 753.378 516.235 754.027 515.857Z" fill="url(#paint90_linear_339_8374)"/>
    <path d="M824.351 473.37C825 472.991 825.54 471.964 825.54 471.099V467.91L825.918 467.694C826.567 467.316 827.108 467.721 827.108 468.586V471.991C827.108 472.856 826.567 473.883 825.918 474.262L754.052 515.83C753.404 516.208 752.863 515.803 752.863 514.938V514.722L824.351 473.37Z" fill="url(#paint91_linear_339_8374)"/>


  </g>


  <path class="shadow4" opacity="0.5" d="M1054.05 753.721L969.078 704.666C963.024 701.18 963.808 695.099 970.781 691.045L1052.35 643.936C1059.32 639.909 1069.89 639.476 1075.92 642.963L1160.89 692.018C1166.95 695.504 1166.19 701.585 1159.19 705.612L1077.62 752.721C1070.65 756.775 1060.08 757.208 1054.05 753.721Z" fill="url(#paint92_linear_339_8374)"/>


  <g class="box4">

    <g opacity="0.5">
      <path d="M1164.97 636.555H1122.84L1075.92 609.473C1069.86 605.987 1059.32 606.419 1052.35 610.446L1007.13 636.555H965.023V664.853C964.861 667.204 966.158 669.501 969.077 671.177L1054.05 720.232C1060.11 723.718 1070.65 723.286 1077.62 719.259L1159.19 672.15C1162.81 670.069 1164.73 667.42 1164.92 664.853H1164.95V636.555H1164.97Z" fill="url(#paint93_linear_339_8374)"/>
      <path d="M967.699 666.799V638.501H1009.81L1055.02 612.392C1062 608.365 1072.57 607.933 1078.59 611.419L1125.51 638.501H1165V636.555H1122.84L1075.92 609.473C1069.86 605.987 1059.32 606.419 1052.35 610.446L1007.13 636.555H965.023V664.853C964.861 667.204 966.158 669.501 969.077 671.177L969.564 671.447C968.185 670.069 967.564 668.447 967.699 666.799Z" fill="url(#paint94_linear_339_8374)"/>
      <path d="M1054.05 691.934L969.078 642.88C963.024 639.393 963.808 633.312 970.781 629.285L1052.35 582.176C1059.32 578.149 1069.89 577.716 1075.92 581.203L1160.89 630.258C1166.95 633.744 1166.19 639.825 1159.19 643.853L1077.62 690.961C1070.65 694.988 1060.08 695.421 1054.05 691.934Z" fill="url(#paint95_linear_339_8374)"/>
      <path d="M1160.89 630.258L1075.92 581.203C1072.78 579.392 1068.46 578.663 1064.03 578.906C1067.24 579.095 1070.27 579.852 1072.59 581.203L1157.57 630.258C1163.62 633.744 1162.84 639.826 1155.87 643.88L1074.3 690.989C1070.95 692.935 1066.73 694.016 1062.62 694.259C1067.73 694.556 1073.35 693.448 1077.62 690.989L1159.19 643.88C1166.16 639.826 1166.92 633.744 1160.89 630.258Z" fill="url(#paint96_linear_339_8374)"/>
      <path d="M1064.46 680.259C1061.46 680.259 1058.62 679.664 1056.49 678.421L993.214 641.907C991.025 640.636 989.809 638.853 989.809 636.88C989.809 634.555 991.511 632.231 994.457 630.528L1055.19 595.473C1060.57 592.365 1068.76 592.041 1073.46 594.744L1136.73 631.258C1138.92 632.528 1140.14 634.312 1140.14 636.285C1140.14 638.609 1138.43 640.934 1135.49 642.636L1074.76 677.691C1071.81 679.394 1068.05 680.259 1064.46 680.259ZM1065.51 594.311C1062.19 594.311 1058.67 595.122 1055.94 596.69L995.214 631.744C992.728 633.204 991.268 635.042 991.268 636.853C991.268 638.285 992.214 639.636 993.944 640.636L1057.22 677.15C1061.51 679.637 1069.05 679.286 1074.03 676.421L1134.76 641.366C1137.24 639.934 1138.7 638.069 1138.68 636.258C1138.68 634.825 1137.73 633.474 1136 632.501L1072.73 595.987C1070.84 594.852 1068.24 594.311 1065.51 594.311Z" fill="url(#paint97_linear_339_8374)"/>
      <path d="M1057.86 691.935L972.888 642.88C966.834 639.393 967.618 633.312 974.591 629.285L1056.16 582.176C1059.48 580.257 1063.59 579.176 1067.65 578.906C1062.46 578.527 1056.7 579.662 1052.35 582.176L970.78 629.285C963.807 633.312 963.05 639.393 969.077 642.88L1054.05 691.935C1057.21 693.772 1061.65 694.502 1066.13 694.232C1063.02 693.989 1060.13 693.259 1057.86 691.935Z" fill="url(#paint98_linear_339_8374)"/>
    </g>
    <g opacity="0.65">
      <path d="M1164.97 595.278H1122.84L1075.92 568.196C1069.86 564.71 1059.32 565.142 1052.35 569.169L1007.13 595.278H965.023V623.576C964.861 625.927 966.158 628.224 969.077 629.9L1054.05 678.955C1060.11 682.441 1070.65 682.009 1077.62 677.982L1159.19 630.873C1162.81 628.792 1164.73 626.143 1164.92 623.576H1164.95V595.278H1164.97Z" fill="url(#paint99_linear_339_8374)"/>
      <path d="M967.699 625.521V597.224H1009.81L1055.02 571.115C1062 567.088 1072.57 566.656 1078.59 570.142L1125.51 597.224H1165V595.278H1122.84L1075.92 568.196C1069.86 564.71 1059.32 565.142 1052.35 569.169L1007.13 595.278H965.023V623.576C964.861 625.927 966.158 628.224 969.077 629.9L969.564 630.17C968.185 628.792 967.564 627.17 967.699 625.521Z" fill="url(#paint100_linear_339_8374)"/>
      <path d="M1054.05 650.657L969.078 601.602C963.024 598.116 963.808 592.034 970.781 588.007L1052.35 540.899C1059.32 536.871 1069.89 536.439 1075.92 539.926L1160.89 588.98C1166.95 592.467 1166.19 598.548 1159.19 602.575L1077.62 649.684C1070.65 653.711 1060.08 654.144 1054.05 650.657Z" fill="url(#paint101_linear_339_8374)"/>
      <path d="M1160.89 588.981L1075.92 539.926C1072.78 538.115 1068.46 537.385 1064.03 537.628C1067.24 537.818 1070.27 538.574 1072.59 539.926L1157.57 588.981C1163.62 592.467 1162.84 598.548 1155.87 602.602L1074.3 649.711C1070.95 651.657 1066.73 652.738 1062.62 652.982C1067.73 653.279 1073.35 652.171 1077.62 649.711L1159.19 602.602C1166.16 598.548 1166.92 592.467 1160.89 588.981Z" fill="url(#paint102_linear_339_8374)"/>
      <path d="M1064.46 638.981C1061.46 638.981 1058.62 638.387 1056.49 637.143L993.214 600.629C991.025 599.359 989.809 597.575 989.809 595.602C989.809 593.278 991.511 590.953 994.457 589.251L1055.19 554.196C1060.57 551.088 1068.76 550.764 1073.46 553.466L1136.73 589.981C1138.92 591.251 1140.14 593.035 1140.14 595.008C1140.14 597.332 1138.43 599.656 1135.49 601.359L1074.76 636.414C1071.81 638.116 1068.05 638.981 1064.46 638.981ZM1065.51 553.034C1062.19 553.034 1058.67 553.845 1055.94 555.412L995.214 590.467C992.728 591.926 991.268 593.764 991.268 595.575C991.268 597.008 992.214 598.359 993.944 599.359L1057.22 635.873C1061.51 638.36 1069.05 638.008 1074.03 635.143L1134.76 600.089C1137.24 598.656 1138.7 596.791 1138.68 594.981C1138.68 593.548 1137.73 592.197 1136 591.224L1072.73 554.71C1070.84 553.575 1068.24 553.034 1065.51 553.034Z" fill="url(#paint103_linear_339_8374)"/>
      <path d="M1057.86 650.657L972.888 601.602C966.834 598.116 967.618 592.035 974.591 588.008L1056.16 540.899C1059.48 538.98 1063.59 537.899 1067.65 537.628C1062.46 537.25 1056.7 538.385 1052.35 540.899L970.78 588.008C963.807 592.035 963.05 598.116 969.077 601.602L1054.05 650.657C1057.21 652.495 1061.65 653.225 1066.13 652.955C1063.02 652.711 1060.13 651.982 1057.86 650.657Z" fill="url(#paint104_linear_339_8374)"/>
    </g>
    <g opacity="0.9">
      <path d="M1164.97 554H1122.84L1075.92 526.919C1069.86 523.432 1059.32 523.865 1052.35 527.892L1007.13 554H965.023V582.298C964.861 584.649 966.158 586.947 969.077 588.622L1054.05 637.677C1060.11 641.164 1070.65 640.731 1077.62 636.704L1159.19 589.595C1162.81 587.514 1164.73 584.866 1164.92 582.298H1164.95V554H1164.97Z" fill="url(#paint105_linear_339_8374)"/>
      <path d="M967.699 584.244V555.946H1009.81L1055.02 529.838C1062 525.811 1072.57 525.378 1078.59 528.865L1125.51 555.946H1165V554H1122.84L1075.92 526.919C1069.86 523.432 1059.32 523.865 1052.35 527.892L1007.13 554H965.023V582.298C964.861 584.649 966.158 586.947 969.077 588.622L969.564 588.893C968.185 587.514 967.564 585.893 967.699 584.244Z" fill="url(#paint106_linear_339_8374)"/>
      <path d="M1054.05 609.38L969.078 560.325C963.024 556.838 963.808 550.757 970.781 546.73L1052.35 499.621C1059.32 495.594 1069.89 495.162 1075.92 498.648L1160.89 547.703C1166.95 551.19 1166.19 557.271 1159.19 561.298L1077.62 608.407C1070.65 612.434 1060.08 612.866 1054.05 609.38Z" fill="url(#paint107_linear_339_8374)"/>
      <path d="M1160.89 547.703L1075.92 498.648C1072.78 496.838 1068.46 496.108 1064.03 496.351C1067.24 496.54 1070.27 497.297 1072.59 498.648L1157.57 547.703C1163.62 551.19 1162.84 557.271 1155.87 561.325L1074.3 608.434C1070.95 610.38 1066.73 611.461 1062.62 611.704C1067.73 612.002 1073.35 610.893 1077.62 608.434L1159.19 561.325C1166.16 557.271 1166.92 551.19 1160.89 547.703Z" fill="url(#paint108_linear_339_8374)"/>
      <path d="M1064.46 597.704C1061.46 597.704 1058.62 597.109 1056.49 595.866L993.214 559.352C991.025 558.082 989.809 556.298 989.809 554.325C989.809 552.001 991.511 549.676 994.457 547.973L1055.19 512.919C1060.57 509.811 1068.76 509.486 1073.46 512.189L1136.73 548.703C1138.92 549.973 1140.14 551.757 1140.14 553.73C1140.14 556.055 1138.43 558.379 1135.49 560.082L1074.76 595.136C1071.81 596.839 1068.05 597.704 1064.46 597.704ZM1065.51 511.757C1062.19 511.757 1058.67 512.567 1055.94 514.135L995.214 549.19C992.728 550.649 991.268 552.487 991.268 554.298C991.268 555.73 992.214 557.082 993.944 558.082L1057.22 594.596C1061.51 597.082 1069.05 596.731 1074.03 593.866L1134.76 558.811C1137.24 557.379 1138.7 555.514 1138.68 553.703C1138.68 552.271 1137.73 550.919 1136 549.946L1072.73 513.432C1070.84 512.297 1068.24 511.757 1065.51 511.757Z" fill="url(#paint109_linear_339_8374)"/>
      <path d="M1057.86 609.38L972.888 560.325C966.834 556.838 967.618 550.757 974.591 546.73L1056.16 499.621C1059.48 497.702 1063.59 496.621 1067.65 496.351C1062.46 495.973 1056.7 497.108 1052.35 499.621L970.78 546.73C963.807 550.757 963.05 556.838 969.077 560.325L1054.05 609.38C1057.21 611.218 1061.65 611.947 1066.13 611.677C1063.02 611.434 1060.13 610.704 1057.86 609.38Z" fill="url(#paint110_linear_339_8374)"/>
    </g>
    <path d="M1164.97 512.723H1122.84L1075.92 485.642C1069.86 482.155 1059.32 482.588 1052.35 486.615L1007.13 512.723H965.023V541.021C964.861 543.372 966.158 545.67 969.077 547.346L1054.05 596.4C1060.11 599.887 1070.65 599.454 1077.62 595.427L1159.19 548.319C1162.81 546.237 1164.73 543.589 1164.92 541.021H1164.95V512.723H1164.97Z" fill="url(#paint111_linear_339_8374)"/>
    <path d="M967.699 542.967V514.669H1009.81L1055.02 488.561C1062 484.534 1072.57 484.101 1078.59 487.588L1125.51 514.669H1165V512.723H1122.84L1075.92 485.642C1069.86 482.155 1059.32 482.588 1052.35 486.615L1007.13 512.723H965.023V541.021C964.861 543.372 966.158 545.67 969.077 547.345L969.564 547.616C968.185 546.237 967.564 544.616 967.699 542.967Z" fill="url(#paint112_linear_339_8374)"/>
    <path d="M1054.05 568.103L969.078 519.048C963.024 515.561 963.808 509.48 970.781 505.453L1052.35 458.344C1059.32 454.317 1069.89 453.885 1075.92 457.371L1160.89 506.426C1166.95 509.912 1166.19 515.994 1159.19 520.021L1077.62 567.13C1070.65 571.157 1060.08 571.589 1054.05 568.103Z" fill="url(#paint113_linear_339_8374)"/>
    <path d="M1160.89 506.426L1075.92 457.371C1072.78 455.56 1068.46 454.83 1064.03 455.074C1067.24 455.263 1070.27 456.02 1072.59 457.371L1157.57 506.426C1163.62 509.912 1162.84 515.994 1155.87 520.048L1074.3 567.157C1070.95 569.103 1066.73 570.184 1062.62 570.427C1067.73 570.724 1073.35 569.616 1077.62 567.157L1159.19 520.048C1166.16 515.994 1166.92 509.912 1160.89 506.426Z" fill="url(#paint114_linear_339_8374)"/>
    <path d="M1064.46 556.427C1061.46 556.427 1058.62 555.832 1056.49 554.589L993.214 518.075C991.025 516.805 989.809 515.021 989.809 513.048C989.809 510.723 991.511 508.399 994.457 506.696L1055.19 471.642C1060.57 468.534 1068.76 468.209 1073.46 470.912L1136.73 507.426C1138.92 508.696 1140.14 510.48 1140.14 512.453C1140.14 514.778 1138.43 517.102 1135.49 518.805L1074.76 553.859C1071.81 555.562 1068.05 556.427 1064.46 556.427ZM1065.51 470.48C1062.19 470.48 1058.67 471.29 1055.94 472.858L995.214 507.913C992.728 509.372 991.268 511.21 991.268 513.021C991.268 514.453 992.214 515.805 993.944 516.805L1057.22 553.319C1061.51 555.805 1069.05 555.454 1074.03 552.589L1134.76 517.534C1137.24 516.102 1138.7 514.237 1138.68 512.426C1138.68 510.994 1137.73 509.642 1136 508.669L1072.73 472.155C1070.84 471.02 1068.24 470.48 1065.51 470.48Z" fill="url(#paint115_linear_339_8374)"/>
    <path d="M1057.86 568.102L972.888 519.048C966.834 515.561 967.618 509.48 974.591 505.453L1056.16 458.344C1059.48 456.425 1063.59 455.344 1067.65 455.074C1062.46 454.695 1056.7 455.83 1052.35 458.344L970.78 505.453C963.807 509.48 963.05 515.561 969.077 519.048L1054.05 568.102C1057.21 569.94 1061.65 570.67 1066.13 570.4C1063.02 570.157 1060.13 569.427 1057.86 568.102Z" fill="url(#paint116_linear_339_8374)"/>
    <path d="M1080.03 583.86L1151.89 542.291C1152.54 541.913 1153.08 540.886 1153.08 540.021V536.616C1153.08 535.751 1152.54 535.345 1151.89 535.724L1080.03 577.292C1079.38 577.67 1078.84 578.697 1078.84 579.562V582.968C1078.84 583.833 1079.38 584.238 1080.03 583.86Z" fill="url(#paint117_linear_339_8374)"/>
    <path d="M1150.35 541.372C1151 540.994 1151.54 539.967 1151.54 539.102V535.913L1151.92 535.697C1152.57 535.318 1153.11 535.724 1153.11 536.589V539.994C1153.11 540.859 1152.57 541.886 1151.92 542.264L1080.05 583.833C1079.4 584.211 1078.86 583.806 1078.86 582.941V582.724L1150.35 541.372Z" fill="url(#paint118_linear_339_8374)"/>

  </g>




  <path class="ball5" d="M312.91 271.05C314.888 267.621 319.273 266.435 322.734 268.413C326.163 270.391 327.35 274.775 325.372 278.237C323.394 281.666 319.009 282.853 315.547 280.875C312.086 278.863 310.932 274.479 312.91 271.05Z" fill="url(#paint119_linear_339_8374)"/>
  <path class="ball6" d="M146.811 269.698C149.548 264.984 155.581 263.368 160.295 266.072C165.01 268.808 166.625 274.841 163.922 279.556C161.218 284.27 155.152 285.885 150.438 283.182C145.723 280.446 144.108 274.413 146.811 269.698Z" fill="url(#paint120_linear_339_8374)"/>
  <path class="ball4" d="M681.374 289.48C684.11 284.765 690.143 283.15 694.858 285.853C699.572 288.59 701.188 294.623 698.484 299.337C695.781 304.052 689.715 305.667 685.001 302.964C680.253 300.227 678.638 294.194 681.374 289.48Z" fill="url(#paint121_linear_339_8374)"/>
  <path class="ball7" d="M86.0152 344.554C90.2022 337.334 99.4336 334.861 106.654 339.015C113.874 343.202 116.347 352.434 112.193 359.654C108.006 366.874 98.7742 369.347 91.554 365.193C84.3337 361.006 81.861 351.774 86.0152 344.554Z" fill="url(#paint122_linear_339_8374)"/>
  <path class="ball4" d="M390.849 272.896C391.805 271.248 393.915 270.688 395.597 271.644C397.245 272.6 397.805 274.71 396.849 276.391C395.893 278.04 393.783 278.6 392.102 277.644C390.454 276.688 389.893 274.545 390.849 272.896Z" fill="url(#paint123_linear_339_8374)"/>
  <path class="ball3" d="M475.053 272.896C476.009 271.248 478.119 270.688 479.8 271.644C481.449 272.6 482.009 274.71 481.053 276.391C480.097 278.04 477.987 278.6 476.306 277.644C474.69 276.688 474.097 274.545 475.053 272.896Z" fill="url(#paint124_linear_339_8374)"/>
  <path class="ball2" d="M534.199 271.347C535.155 269.699 537.265 269.138 538.946 270.094C540.595 271.05 541.155 273.16 540.199 274.842C539.243 276.49 537.133 277.05 535.452 276.094C533.803 275.138 533.243 273.028 534.199 271.347Z" fill="url(#paint125_linear_339_8374)"/>
  <path class="ball4" d="M887.498 271.729C888.454 270.081 890.564 269.52 892.245 270.476C893.893 271.433 894.454 273.543 893.498 275.224C892.542 276.872 890.432 277.433 888.751 276.477C887.102 275.521 886.542 273.411 887.498 271.729Z" fill="url(#paint126_linear_339_8374)"/>
  <path class="ball5" d="M1063.47 319.731C1064.42 318.083 1066.53 317.522 1068.21 318.478C1069.86 319.434 1070.42 321.544 1069.47 323.226C1068.51 324.874 1066.4 325.434 1064.72 324.478C1063.07 323.522 1062.51 321.412 1063.47 319.731Z" fill="url(#paint127_linear_339_8374)"/>
  <path class="ball8" d="M1063.47 415.734C1064.42 414.086 1066.53 413.525 1068.21 414.481C1069.86 415.437 1070.42 417.547 1069.47 419.229C1068.51 420.877 1066.4 421.438 1064.72 420.482C1063.07 419.525 1062.51 417.416 1063.47 415.734Z" fill="url(#paint128_linear_339_8374)"/>
  <path class="ball3" d="M595.488 271.729C596.444 270.081 598.554 269.52 600.235 270.476C601.884 271.432 602.444 273.542 601.488 275.224C600.532 276.872 598.422 277.432 596.741 276.476C595.092 275.52 594.532 273.41 595.488 271.729Z" fill="url(#paint129_linear_339_8374)"/>
  <path class="ball2" d="M618.488 246.728C619.444 245.08 621.554 244.519 623.235 245.475C624.884 246.432 625.444 248.542 624.488 250.223C623.532 251.871 621.422 252.432 619.741 251.476C618.092 250.487 617.532 248.377 618.488 246.728Z" fill="url(#paint130_linear_339_8374)"/>
  <path class="ball1" d="M547.629 226.74C548.585 225.091 550.695 224.531 552.376 225.487C554.024 226.443 554.585 228.553 553.629 230.234C552.673 231.883 550.563 232.443 548.881 231.487C547.233 230.531 546.673 228.388 547.629 226.74Z" fill="url(#paint131_linear_339_8374)"/>
  <path class="ball5" d="M727.66 330.554C731.847 323.334 741.078 320.861 748.298 325.015C755.519 329.202 757.991 338.434 753.837 345.654C749.65 352.874 740.419 355.347 733.198 351.193C725.978 347.006 723.506 337.774 727.66 330.554Z" fill="url(#paint132_linear_339_8374)"/>
  <path class="ball7" d="M415.031 392.554C419.218 385.334 428.449 382.861 435.669 387.015C442.89 391.202 445.362 400.434 441.208 407.654C437.021 414.874 427.79 417.347 420.57 413.193C413.349 409.006 410.877 399.774 415.031 392.554Z" fill="url(#paint133_linear_339_8374)"/>
  <defs>
    <linearGradient id="paint0_linear_339_8374" x1="554.847" y1="-8377.78" x2="446.962" y2="-8377.78" gradientUnits="userSpaceOnUse">
      <stop stop-color="#B5A7FF"/>
      <stop offset="0.484375" stop-color="#7B61FF"/>
      <stop offset="1" stop-color="#5793CE"/>
    </linearGradient>
    <linearGradient id="paint1_linear_339_8374" x1="616.067" y1="-8093.14" x2="723.204" y2="-8093.14" gradientUnits="userSpaceOnUse">
      <stop stop-color="#B5A7FF"/>
      <stop offset="0.484375" stop-color="#7B61FF"/>
      <stop offset="1" stop-color="#5793CE"/>
    </linearGradient>
    <linearGradient id="paint2_linear_339_8374" x1="677.237" y1="-6888.96" x2="1010.98" y2="-6888.91" gradientUnits="userSpaceOnUse">
      <stop stop-color="#B5A7FF"/>
      <stop offset="0.484375" stop-color="#7B61FF"/>
      <stop offset="1" stop-color="#5793CE"/>
    </linearGradient>
    <linearGradient id="paint3_linear_339_8374" x1="493.731" y1="-8695.79" x2="156.585" y2="-8695.75" gradientUnits="userSpaceOnUse">
      <stop stop-color="#B5A7FF"/>
      <stop offset="0.484375" stop-color="#7B61FF"/>
      <stop offset="1" stop-color="#5793CE"/>
    </linearGradient>
    <linearGradient id="paint4_linear_339_8374" x1="680.748" y1="240.121" x2="710.683" y2="223.287" gradientUnits="userSpaceOnUse">
      <stop stop-color="#351053"/>
      <stop offset="1" stop-color="#814DB2"/>
    </linearGradient>
    <linearGradient id="paint5_linear_339_8374" x1="473.316" y1="57.5326" x2="496.884" y2="31.518" gradientUnits="userSpaceOnUse">
      <stop stop-color="#351053"/>
      <stop offset="1" stop-color="#814DB2"/>
    </linearGradient>
    <linearGradient id="paint6_linear_339_8374" x1="430.723" y1="-44.3049" x2="700.633" y2="368.238" gradientUnits="userSpaceOnUse">
      <stop offset="0.216475" stop-color="#9B66CD"/>
      <stop offset="1" stop-color="#46197B"/>
    </linearGradient>
    <linearGradient id="paint7_linear_339_8374" x1="480.56" y1="-8.14675" x2="518.582" y2="84.5707" gradientUnits="userSpaceOnUse">
      <stop offset="0.216475" stop-color="#9B66CD"/>
      <stop offset="1" stop-color="#46197B"/>
    </linearGradient>
    <linearGradient id="paint8_linear_339_8374" x1="540.369" y1="78.3891" x2="595.511" y2="215.034" gradientUnits="userSpaceOnUse">
      <stop offset="0.216475" stop-color="#9B66CD"/>
      <stop offset="1" stop-color="#46197B"/>
    </linearGradient>
    <linearGradient id="paint9_linear_339_8374" x1="570.354" y1="17.3062" x2="570.354" y2="251.35" gradientUnits="userSpaceOnUse">
      <stop stop-color="#E1CEF2"/>
      <stop offset="1" stop-color="#D3B4EF"/>
    </linearGradient>
    <linearGradient id="paint10_linear_339_8374" x1="488.137" y1="-5135.65" x2="652.967" y2="-5135.63" gradientUnits="userSpaceOnUse">
      <stop stop-color="#B5A7FF"/>
      <stop offset="0.484375" stop-color="#7B61FF"/>
      <stop offset="1" stop-color="#5793CE"/>
    </linearGradient>
    <linearGradient id="paint11_linear_339_8374" x1="99.9897" y1="572.604" x2="99.9897" y2="688.072" gradientUnits="userSpaceOnUse">
      <stop stop-color="#E1CEF2"/>
      <stop offset="1" stop-color="#D3B4EF"/>
    </linearGradient>
    <linearGradient id="paint12_linear_339_8374" x1="38.9933" y1="634.225" x2="110.654" y2="530.952" gradientUnits="userSpaceOnUse">
      <stop stop-color="#351053"/>
      <stop offset="1" stop-color="#814DB2"/>
    </linearGradient>
    <linearGradient id="paint13_linear_339_8374" x1="25.2466" y1="-988.734" x2="175.075" y2="-988.685" gradientUnits="userSpaceOnUse">
      <stop stop-color="#B5A7FF"/>
      <stop offset="0.484375" stop-color="#7B61FF"/>
      <stop offset="1" stop-color="#5793CE"/>
    </linearGradient>
    <linearGradient id="paint14_linear_339_8374" x1="25.2355" y1="-2230.96" x2="175.056" y2="-2230.93" gradientUnits="userSpaceOnUse">
      <stop stop-color="#B5A7FF"/>
      <stop offset="0.484375" stop-color="#7B61FF"/>
      <stop offset="1" stop-color="#5793CE"/>
    </linearGradient>
    <linearGradient id="paint15_linear_339_8374" x1="100.574" y1="537.948" x2="225.274" y2="552.294" gradientUnits="userSpaceOnUse">
      <stop stop-color="#F0F8FF"/>
      <stop offset="1" stop-color="#9EC4E2"/>
    </linearGradient>
    <linearGradient id="paint16_linear_339_8374" x1="24.8329" y1="568.58" x2="175.132" y2="568.58" gradientUnits="userSpaceOnUse">
      <stop stop-color="#C0BFF6"/>
      <stop offset="0.2938" stop-color="#C5C4F7"/>
      <stop offset="0.6399" stop-color="#D3D2F9"/>
      <stop offset="1" stop-color="#E9E9FD"/>
    </linearGradient>
    <linearGradient id="paint17_linear_339_8374" x1="51.328" y1="510.832" x2="51.328" y2="626.284" gradientUnits="userSpaceOnUse">
      <stop stop-color="#E1CEF2"/>
      <stop offset="1" stop-color="#D3B4EF"/>
    </linearGradient>
    <linearGradient id="paint18_linear_339_8374" x1="38.9933" y1="592.947" x2="110.654" y2="489.675" gradientUnits="userSpaceOnUse">
      <stop stop-color="#351053"/>
      <stop offset="1" stop-color="#814DB2"/>
    </linearGradient>
    <linearGradient id="paint19_linear_339_8374" x1="25.2466" y1="-1030.01" x2="175.075" y2="-1029.96" gradientUnits="userSpaceOnUse">
      <stop stop-color="#B5A7FF"/>
      <stop offset="0.484375" stop-color="#7B61FF"/>
      <stop offset="1" stop-color="#5793CE"/>
    </linearGradient>
    <linearGradient id="paint20_linear_339_8374" x1="25.2355" y1="-2272.24" x2="175.056" y2="-2272.21" gradientUnits="userSpaceOnUse">
      <stop stop-color="#B5A7FF"/>
      <stop offset="0.484375" stop-color="#7B61FF"/>
      <stop offset="1" stop-color="#5793CE"/>
    </linearGradient>
    <linearGradient id="paint21_linear_339_8374" x1="100.574" y1="496.671" x2="225.274" y2="511.016" gradientUnits="userSpaceOnUse">
      <stop stop-color="#F0F8FF"/>
      <stop offset="1" stop-color="#9EC4E2"/>
    </linearGradient>
    <linearGradient id="paint22_linear_339_8374" x1="24.8329" y1="527.303" x2="175.132" y2="527.303" gradientUnits="userSpaceOnUse">
      <stop stop-color="#C0BFF6"/>
      <stop offset="0.2938" stop-color="#C5C4F7"/>
      <stop offset="0.6399" stop-color="#D3D2F9"/>
      <stop offset="1" stop-color="#E9E9FD"/>
    </linearGradient>
    <linearGradient id="paint23_linear_339_8374" x1="51.328" y1="469.554" x2="51.328" y2="585.006" gradientUnits="userSpaceOnUse">
      <stop stop-color="#E1CEF2"/>
      <stop offset="1" stop-color="#D3B4EF"/>
    </linearGradient>
    <linearGradient id="paint24_linear_339_8374" x1="38.9933" y1="551.67" x2="110.654" y2="448.397" gradientUnits="userSpaceOnUse">
      <stop stop-color="#351053"/>
      <stop offset="1" stop-color="#814DB2"/>
    </linearGradient>
    <linearGradient id="paint25_linear_339_8374" x1="25.2466" y1="-1071.29" x2="175.075" y2="-1071.24" gradientUnits="userSpaceOnUse">
      <stop stop-color="#B5A7FF"/>
      <stop offset="0.484375" stop-color="#7B61FF"/>
      <stop offset="1" stop-color="#5793CE"/>
    </linearGradient>
    <linearGradient id="paint26_linear_339_8374" x1="25.2355" y1="-2313.52" x2="175.056" y2="-2313.49" gradientUnits="userSpaceOnUse">
      <stop stop-color="#B5A7FF"/>
      <stop offset="0.484375" stop-color="#7B61FF"/>
      <stop offset="1" stop-color="#5793CE"/>
    </linearGradient>
    <linearGradient id="paint27_linear_339_8374" x1="100.574" y1="455.393" x2="225.274" y2="469.739" gradientUnits="userSpaceOnUse">
      <stop stop-color="#F0F8FF"/>
      <stop offset="1" stop-color="#9EC4E2"/>
    </linearGradient>
    <linearGradient id="paint28_linear_339_8374" x1="24.817" y1="486.009" x2="175.147" y2="486.009" gradientUnits="userSpaceOnUse">
      <stop stop-color="#6DE0F6"/>
      <stop offset="0.1595" stop-color="#68D8F5"/>
      <stop offset="0.4138" stop-color="#5AC0F1"/>
      <stop offset="0.7294" stop-color="#439BEA"/>
      <stop offset="1" stop-color="#2C75E4"/>
    </linearGradient>
    <linearGradient id="paint29_linear_339_8374" x1="51.328" y1="428.277" x2="51.328" y2="543.729" gradientUnits="userSpaceOnUse">
      <stop stop-color="#E1CEF2"/>
      <stop offset="1" stop-color="#D3B4EF"/>
    </linearGradient>
    <linearGradient id="paint30_linear_339_8374" x1="38.9933" y1="510.393" x2="110.654" y2="407.12" gradientUnits="userSpaceOnUse">
      <stop stop-color="#351053"/>
      <stop offset="1" stop-color="#814DB2"/>
    </linearGradient>
    <linearGradient id="paint31_linear_339_8374" x1="25.2466" y1="-1112.57" x2="175.075" y2="-1112.52" gradientUnits="userSpaceOnUse">
      <stop stop-color="#B5A7FF"/>
      <stop offset="0.484375" stop-color="#7B61FF"/>
      <stop offset="1" stop-color="#5793CE"/>
    </linearGradient>
    <linearGradient id="paint32_linear_339_8374" x1="25.2355" y1="-2354.79" x2="175.056" y2="-2354.77" gradientUnits="userSpaceOnUse">
      <stop stop-color="#B5A7FF"/>
      <stop offset="0.484375" stop-color="#7B61FF"/>
      <stop offset="1" stop-color="#5793CE"/>
    </linearGradient>
    <linearGradient id="paint33_linear_339_8374" x1="100.574" y1="414.116" x2="225.274" y2="428.462" gradientUnits="userSpaceOnUse">
      <stop stop-color="#F0F8FF"/>
      <stop offset="1" stop-color="#9EC4E2"/>
    </linearGradient>
    <linearGradient id="paint34_linear_339_8374" x1="24.8329" y1="444.748" x2="175.132" y2="444.748" gradientUnits="userSpaceOnUse">
      <stop stop-color="#C0BFF6"/>
      <stop offset="0.2938" stop-color="#C5C4F7"/>
      <stop offset="0.6399" stop-color="#D3D2F9"/>
      <stop offset="1" stop-color="#E9E9FD"/>
    </linearGradient>
    <linearGradient id="paint35_linear_339_8374" x1="51.328" y1="387" x2="51.328" y2="502.452" gradientUnits="userSpaceOnUse">
      <stop stop-color="#E1CEF2"/>
      <stop offset="1" stop-color="#D3B4EF"/>
    </linearGradient>
    <linearGradient id="paint36_linear_339_8374" x1="150.96" y1="467.579" x2="150.96" y2="515.999" gradientUnits="userSpaceOnUse">
      <stop stop-color="#E1CEF2"/>
      <stop offset="1" stop-color="#D3B4EF"/>
    </linearGradient>
    <linearGradient id="paint37_linear_339_8374" x1="136.488" y1="464.892" x2="137.291" y2="515.812" gradientUnits="userSpaceOnUse">
      <stop stop-color="#C3A9D9"/>
      <stop offset="1" stop-color="#8C57BC"/>
    </linearGradient>
    <linearGradient id="paint38_linear_339_8374" x1="427.99" y1="640.607" x2="427.99" y2="756.074" gradientUnits="userSpaceOnUse">
      <stop stop-color="#E1CEF2"/>
      <stop offset="1" stop-color="#D3B4EF"/>
    </linearGradient>
    <linearGradient id="paint39_linear_339_8374" x1="366.993" y1="702.227" x2="438.654" y2="598.954" gradientUnits="userSpaceOnUse">
      <stop stop-color="#351053"/>
      <stop offset="1" stop-color="#814DB2"/>
    </linearGradient>
    <linearGradient id="paint40_linear_339_8374" x1="353.247" y1="-920.732" x2="503.075" y2="-920.682" gradientUnits="userSpaceOnUse">
      <stop stop-color="#B5A7FF"/>
      <stop offset="0.484375" stop-color="#7B61FF"/>
      <stop offset="1" stop-color="#5793CE"/>
    </linearGradient>
    <linearGradient id="paint41_linear_339_8374" x1="353.236" y1="-2162.96" x2="503.056" y2="-2162.93" gradientUnits="userSpaceOnUse">
      <stop stop-color="#B5A7FF"/>
      <stop offset="0.484375" stop-color="#7B61FF"/>
      <stop offset="1" stop-color="#5793CE"/>
    </linearGradient>
    <linearGradient id="paint42_linear_339_8374" x1="428.574" y1="605.951" x2="553.274" y2="620.297" gradientUnits="userSpaceOnUse">
      <stop stop-color="#F0F8FF"/>
      <stop offset="1" stop-color="#9EC4E2"/>
    </linearGradient>
    <linearGradient id="paint43_linear_339_8374" x1="352.833" y1="636.583" x2="503.132" y2="636.583" gradientUnits="userSpaceOnUse">
      <stop stop-color="#C0BFF6"/>
      <stop offset="0.2938" stop-color="#C5C4F7"/>
      <stop offset="0.6399" stop-color="#D3D2F9"/>
      <stop offset="1" stop-color="#E9E9FD"/>
    </linearGradient>
    <linearGradient id="paint44_linear_339_8374" x1="379.328" y1="578.834" x2="379.328" y2="694.286" gradientUnits="userSpaceOnUse">
      <stop stop-color="#E1CEF2"/>
      <stop offset="1" stop-color="#D3B4EF"/>
    </linearGradient>
    <linearGradient id="paint45_linear_339_8374" x1="366.993" y1="660.95" x2="438.654" y2="557.677" gradientUnits="userSpaceOnUse">
      <stop stop-color="#351053"/>
      <stop offset="1" stop-color="#814DB2"/>
    </linearGradient>
    <linearGradient id="paint46_linear_339_8374" x1="353.247" y1="-962.009" x2="503.075" y2="-961.959" gradientUnits="userSpaceOnUse">
      <stop stop-color="#B5A7FF"/>
      <stop offset="0.484375" stop-color="#7B61FF"/>
      <stop offset="1" stop-color="#5793CE"/>
    </linearGradient>
    <linearGradient id="paint47_linear_339_8374" x1="353.236" y1="-2204.24" x2="503.056" y2="-2204.21" gradientUnits="userSpaceOnUse">
      <stop stop-color="#B5A7FF"/>
      <stop offset="0.484375" stop-color="#7B61FF"/>
      <stop offset="1" stop-color="#5793CE"/>
    </linearGradient>
    <linearGradient id="paint48_linear_339_8374" x1="428.574" y1="564.673" x2="553.274" y2="579.019" gradientUnits="userSpaceOnUse">
      <stop stop-color="#F0F8FF"/>
      <stop offset="1" stop-color="#9EC4E2"/>
    </linearGradient>
    <linearGradient id="paint49_linear_339_8374" x1="352.833" y1="595.305" x2="503.132" y2="595.305" gradientUnits="userSpaceOnUse">
      <stop stop-color="#C0BFF6"/>
      <stop offset="0.2938" stop-color="#C5C4F7"/>
      <stop offset="0.6399" stop-color="#D3D2F9"/>
      <stop offset="1" stop-color="#E9E9FD"/>
    </linearGradient>
    <linearGradient id="paint50_linear_339_8374" x1="379.328" y1="537.557" x2="379.328" y2="653.009" gradientUnits="userSpaceOnUse">
      <stop stop-color="#E1CEF2"/>
      <stop offset="1" stop-color="#D3B4EF"/>
    </linearGradient>
    <linearGradient id="paint51_linear_339_8374" x1="366.993" y1="619.672" x2="438.654" y2="516.4" gradientUnits="userSpaceOnUse">
      <stop stop-color="#351053"/>
      <stop offset="1" stop-color="#814DB2"/>
    </linearGradient>
    <linearGradient id="paint52_linear_339_8374" x1="353.247" y1="-1003.29" x2="503.075" y2="-1003.24" gradientUnits="userSpaceOnUse">
      <stop stop-color="#B5A7FF"/>
      <stop offset="0.484375" stop-color="#7B61FF"/>
      <stop offset="1" stop-color="#5793CE"/>
    </linearGradient>
    <linearGradient id="paint53_linear_339_8374" x1="353.236" y1="-2245.51" x2="503.056" y2="-2245.49" gradientUnits="userSpaceOnUse">
      <stop stop-color="#B5A7FF"/>
      <stop offset="0.484375" stop-color="#7B61FF"/>
      <stop offset="1" stop-color="#5793CE"/>
    </linearGradient>
    <linearGradient id="paint54_linear_339_8374" x1="428.574" y1="523.396" x2="553.274" y2="537.742" gradientUnits="userSpaceOnUse">
      <stop stop-color="#F0F8FF"/>
      <stop offset="1" stop-color="#9EC4E2"/>
    </linearGradient>
    <linearGradient id="paint55_linear_339_8374" x1="352.817" y1="554.012" x2="503.147" y2="554.012" gradientUnits="userSpaceOnUse">
      <stop stop-color="#6DE0F6"/>
      <stop offset="0.1595" stop-color="#68D8F5"/>
      <stop offset="0.4138" stop-color="#5AC0F1"/>
      <stop offset="0.7294" stop-color="#439BEA"/>
      <stop offset="1" stop-color="#2C75E4"/>
    </linearGradient>
    <linearGradient id="paint56_linear_339_8374" x1="379.328" y1="496.28" x2="379.328" y2="611.732" gradientUnits="userSpaceOnUse">
      <stop stop-color="#E1CEF2"/>
      <stop offset="1" stop-color="#D3B4EF"/>
    </linearGradient>
    <linearGradient id="paint57_linear_339_8374" x1="366.993" y1="578.396" x2="438.654" y2="475.123" gradientUnits="userSpaceOnUse">
      <stop stop-color="#351053"/>
      <stop offset="1" stop-color="#814DB2"/>
    </linearGradient>
    <linearGradient id="paint58_linear_339_8374" x1="353.247" y1="-1044.56" x2="503.075" y2="-1044.51" gradientUnits="userSpaceOnUse">
      <stop stop-color="#B5A7FF"/>
      <stop offset="0.484375" stop-color="#7B61FF"/>
      <stop offset="1" stop-color="#5793CE"/>
    </linearGradient>
    <linearGradient id="paint59_linear_339_8374" x1="353.236" y1="-2286.79" x2="503.056" y2="-2286.76" gradientUnits="userSpaceOnUse">
      <stop stop-color="#B5A7FF"/>
      <stop offset="0.484375" stop-color="#7B61FF"/>
      <stop offset="1" stop-color="#5793CE"/>
    </linearGradient>
    <linearGradient id="paint60_linear_339_8374" x1="428.574" y1="482.119" x2="553.274" y2="496.464" gradientUnits="userSpaceOnUse">
      <stop stop-color="#F0F8FF"/>
      <stop offset="1" stop-color="#9EC4E2"/>
    </linearGradient>
    <linearGradient id="paint61_linear_339_8374" x1="352.833" y1="512.751" x2="503.132" y2="512.751" gradientUnits="userSpaceOnUse">
      <stop stop-color="#C0BFF6"/>
      <stop offset="0.2938" stop-color="#C5C4F7"/>
      <stop offset="0.6399" stop-color="#D3D2F9"/>
      <stop offset="1" stop-color="#E9E9FD"/>
    </linearGradient>
    <linearGradient id="paint62_linear_339_8374" x1="379.328" y1="455.002" x2="379.328" y2="570.454" gradientUnits="userSpaceOnUse">
      <stop stop-color="#E1CEF2"/>
      <stop offset="1" stop-color="#D3B4EF"/>
    </linearGradient>
    <linearGradient id="paint63_linear_339_8374" x1="478.96" y1="535.582" x2="478.96" y2="584.002" gradientUnits="userSpaceOnUse">
      <stop stop-color="#E1CEF2"/>
      <stop offset="1" stop-color="#D3B4EF"/>
    </linearGradient>
    <linearGradient id="paint64_linear_339_8374" x1="464.488" y1="532.895" x2="465.291" y2="583.815" gradientUnits="userSpaceOnUse">
      <stop stop-color="#C3A9D9"/>
      <stop offset="1" stop-color="#8C57BC"/>
    </linearGradient>
    <linearGradient id="paint65_linear_339_8374" x1="738.99" y1="572.604" x2="738.99" y2="688.072" gradientUnits="userSpaceOnUse">
      <stop stop-color="#E1CEF2"/>
      <stop offset="1" stop-color="#D3B4EF"/>
    </linearGradient>
    <linearGradient id="paint66_linear_339_8374" x1="677.993" y1="634.225" x2="749.654" y2="530.952" gradientUnits="userSpaceOnUse">
      <stop stop-color="#351053"/>
      <stop offset="1" stop-color="#814DB2"/>
    </linearGradient>
    <linearGradient id="paint67_linear_339_8374" x1="664.247" y1="-988.734" x2="814.075" y2="-988.685" gradientUnits="userSpaceOnUse">
      <stop stop-color="#B5A7FF"/>
      <stop offset="0.484375" stop-color="#7B61FF"/>
      <stop offset="1" stop-color="#5793CE"/>
    </linearGradient>
    <linearGradient id="paint68_linear_339_8374" x1="664.236" y1="-2230.96" x2="814.056" y2="-2230.93" gradientUnits="userSpaceOnUse">
      <stop stop-color="#B5A7FF"/>
      <stop offset="0.484375" stop-color="#7B61FF"/>
      <stop offset="1" stop-color="#5793CE"/>
    </linearGradient>
    <linearGradient id="paint69_linear_339_8374" x1="739.574" y1="537.948" x2="864.274" y2="552.294" gradientUnits="userSpaceOnUse">
      <stop stop-color="#F0F8FF"/>
      <stop offset="1" stop-color="#9EC4E2"/>
    </linearGradient>
    <linearGradient id="paint70_linear_339_8374" x1="663.833" y1="568.58" x2="814.132" y2="568.58" gradientUnits="userSpaceOnUse">
      <stop stop-color="#C0BFF6"/>
      <stop offset="0.2938" stop-color="#C5C4F7"/>
      <stop offset="0.6399" stop-color="#D3D2F9"/>
      <stop offset="1" stop-color="#E9E9FD"/>
    </linearGradient>
    <linearGradient id="paint71_linear_339_8374" x1="690.328" y1="510.832" x2="690.328" y2="626.284" gradientUnits="userSpaceOnUse">
      <stop stop-color="#E1CEF2"/>
      <stop offset="1" stop-color="#D3B4EF"/>
    </linearGradient>
    <linearGradient id="paint72_linear_339_8374" x1="677.993" y1="592.948" x2="749.654" y2="489.675" gradientUnits="userSpaceOnUse">
      <stop stop-color="#351053"/>
      <stop offset="1" stop-color="#814DB2"/>
    </linearGradient>
    <linearGradient id="paint73_linear_339_8374" x1="664.247" y1="-1030.01" x2="814.075" y2="-1029.96" gradientUnits="userSpaceOnUse">
      <stop stop-color="#B5A7FF"/>
      <stop offset="0.484375" stop-color="#7B61FF"/>
      <stop offset="1" stop-color="#5793CE"/>
    </linearGradient>
    <linearGradient id="paint74_linear_339_8374" x1="664.236" y1="-2272.24" x2="814.056" y2="-2272.21" gradientUnits="userSpaceOnUse">
      <stop stop-color="#B5A7FF"/>
      <stop offset="0.484375" stop-color="#7B61FF"/>
      <stop offset="1" stop-color="#5793CE"/>
    </linearGradient>
    <linearGradient id="paint75_linear_339_8374" x1="739.574" y1="496.671" x2="864.274" y2="511.017" gradientUnits="userSpaceOnUse">
      <stop stop-color="#F0F8FF"/>
      <stop offset="1" stop-color="#9EC4E2"/>
    </linearGradient>
    <linearGradient id="paint76_linear_339_8374" x1="663.833" y1="527.303" x2="814.132" y2="527.303" gradientUnits="userSpaceOnUse">
      <stop stop-color="#C0BFF6"/>
      <stop offset="0.2938" stop-color="#C5C4F7"/>
      <stop offset="0.6399" stop-color="#D3D2F9"/>
      <stop offset="1" stop-color="#E9E9FD"/>
    </linearGradient>
    <linearGradient id="paint77_linear_339_8374" x1="690.328" y1="469.555" x2="690.328" y2="585.007" gradientUnits="userSpaceOnUse">
      <stop stop-color="#E1CEF2"/>
      <stop offset="1" stop-color="#D3B4EF"/>
    </linearGradient>
    <linearGradient id="paint78_linear_339_8374" x1="677.993" y1="551.67" x2="749.654" y2="448.397" gradientUnits="userSpaceOnUse">
      <stop stop-color="#351053"/>
      <stop offset="1" stop-color="#814DB2"/>
    </linearGradient>
    <linearGradient id="paint79_linear_339_8374" x1="664.247" y1="-1071.29" x2="814.075" y2="-1071.24" gradientUnits="userSpaceOnUse">
      <stop stop-color="#B5A7FF"/>
      <stop offset="0.484375" stop-color="#7B61FF"/>
      <stop offset="1" stop-color="#5793CE"/>
    </linearGradient>
    <linearGradient id="paint80_linear_339_8374" x1="664.236" y1="-2313.52" x2="814.056" y2="-2313.49" gradientUnits="userSpaceOnUse">
      <stop stop-color="#B5A7FF"/>
      <stop offset="0.484375" stop-color="#7B61FF"/>
      <stop offset="1" stop-color="#5793CE"/>
    </linearGradient>
    <linearGradient id="paint81_linear_339_8374" x1="739.574" y1="455.393" x2="864.274" y2="469.739" gradientUnits="userSpaceOnUse">
      <stop stop-color="#F0F8FF"/>
      <stop offset="1" stop-color="#9EC4E2"/>
    </linearGradient>
    <linearGradient id="paint82_linear_339_8374" x1="663.817" y1="486.009" x2="814.147" y2="486.009" gradientUnits="userSpaceOnUse">
      <stop stop-color="#6DE0F6"/>
      <stop offset="0.1595" stop-color="#68D8F5"/>
      <stop offset="0.4138" stop-color="#5AC0F1"/>
      <stop offset="0.7294" stop-color="#439BEA"/>
      <stop offset="1" stop-color="#2C75E4"/>
    </linearGradient>
    <linearGradient id="paint83_linear_339_8374" x1="690.328" y1="428.277" x2="690.328" y2="543.729" gradientUnits="userSpaceOnUse">
      <stop stop-color="#E1CEF2"/>
      <stop offset="1" stop-color="#D3B4EF"/>
    </linearGradient>
    <linearGradient id="paint84_linear_339_8374" x1="677.993" y1="510.393" x2="749.654" y2="407.12" gradientUnits="userSpaceOnUse">
      <stop stop-color="#351053"/>
      <stop offset="1" stop-color="#814DB2"/>
    </linearGradient>
    <linearGradient id="paint85_linear_339_8374" x1="664.247" y1="-1112.57" x2="814.075" y2="-1112.52" gradientUnits="userSpaceOnUse">
      <stop stop-color="#B5A7FF"/>
      <stop offset="0.484375" stop-color="#7B61FF"/>
      <stop offset="1" stop-color="#5793CE"/>
    </linearGradient>
    <linearGradient id="paint86_linear_339_8374" x1="664.236" y1="-2354.79" x2="814.056" y2="-2354.77" gradientUnits="userSpaceOnUse">
      <stop stop-color="#B5A7FF"/>
      <stop offset="0.484375" stop-color="#7B61FF"/>
      <stop offset="1" stop-color="#5793CE"/>
    </linearGradient>
    <linearGradient id="paint87_linear_339_8374" x1="739.574" y1="414.116" x2="864.274" y2="428.462" gradientUnits="userSpaceOnUse">
      <stop stop-color="#F0F8FF"/>
      <stop offset="1" stop-color="#9EC4E2"/>
    </linearGradient>
    <linearGradient id="paint88_linear_339_8374" x1="663.833" y1="444.748" x2="814.132" y2="444.748" gradientUnits="userSpaceOnUse">
      <stop stop-color="#C0BFF6"/>
      <stop offset="0.2938" stop-color="#C5C4F7"/>
      <stop offset="0.6399" stop-color="#D3D2F9"/>
      <stop offset="1" stop-color="#E9E9FD"/>
    </linearGradient>
    <linearGradient id="paint89_linear_339_8374" x1="690.328" y1="387" x2="690.328" y2="502.452" gradientUnits="userSpaceOnUse">
      <stop stop-color="#E1CEF2"/>
      <stop offset="1" stop-color="#D3B4EF"/>
    </linearGradient>
    <linearGradient id="paint90_linear_339_8374" x1="789.96" y1="467.579" x2="789.96" y2="515.999" gradientUnits="userSpaceOnUse">
      <stop stop-color="#E1CEF2"/>
      <stop offset="1" stop-color="#D3B4EF"/>
    </linearGradient>
    <linearGradient id="paint91_linear_339_8374" x1="775.486" y1="464.892" x2="776.289" y2="515.812" gradientUnits="userSpaceOnUse">
      <stop stop-color="#C3A9D9"/>
      <stop offset="1" stop-color="#8C57BC"/>
    </linearGradient>
    <linearGradient id="paint92_linear_339_8374" x1="1064.99" y1="640.607" x2="1064.99" y2="756.074" gradientUnits="userSpaceOnUse">
      <stop stop-color="#E1CEF2"/>
      <stop offset="1" stop-color="#D3B4EF"/>
    </linearGradient>
    <linearGradient id="paint93_linear_339_8374" x1="1003.99" y1="702.227" x2="1075.65" y2="598.954" gradientUnits="userSpaceOnUse">
      <stop stop-color="#351053"/>
      <stop offset="1" stop-color="#814DB2"/>
    </linearGradient>
    <linearGradient id="paint94_linear_339_8374" x1="990.247" y1="-920.732" x2="1140.07" y2="-920.682" gradientUnits="userSpaceOnUse">
      <stop stop-color="#B5A7FF"/>
      <stop offset="0.484375" stop-color="#7B61FF"/>
      <stop offset="1" stop-color="#5793CE"/>
    </linearGradient>
    <linearGradient id="paint95_linear_339_8374" x1="990.236" y1="-2162.96" x2="1140.06" y2="-2162.93" gradientUnits="userSpaceOnUse">
      <stop stop-color="#B5A7FF"/>
      <stop offset="0.484375" stop-color="#7B61FF"/>
      <stop offset="1" stop-color="#5793CE"/>
    </linearGradient>
    <linearGradient id="paint96_linear_339_8374" x1="1065.57" y1="605.951" x2="1190.27" y2="620.297" gradientUnits="userSpaceOnUse">
      <stop stop-color="#F0F8FF"/>
      <stop offset="1" stop-color="#9EC4E2"/>
    </linearGradient>
    <linearGradient id="paint97_linear_339_8374" x1="989.833" y1="636.583" x2="1140.13" y2="636.583" gradientUnits="userSpaceOnUse">
      <stop stop-color="#C0BFF6"/>
      <stop offset="0.2938" stop-color="#C5C4F7"/>
      <stop offset="0.6399" stop-color="#D3D2F9"/>
      <stop offset="1" stop-color="#E9E9FD"/>
    </linearGradient>
    <linearGradient id="paint98_linear_339_8374" x1="1016.33" y1="578.834" x2="1016.33" y2="694.286" gradientUnits="userSpaceOnUse">
      <stop stop-color="#E1CEF2"/>
      <stop offset="1" stop-color="#D3B4EF"/>
    </linearGradient>
    <linearGradient id="paint99_linear_339_8374" x1="1003.99" y1="660.95" x2="1075.65" y2="557.677" gradientUnits="userSpaceOnUse">
      <stop stop-color="#351053"/>
      <stop offset="1" stop-color="#814DB2"/>
    </linearGradient>
    <linearGradient id="paint100_linear_339_8374" x1="990.247" y1="-962.009" x2="1140.07" y2="-961.959" gradientUnits="userSpaceOnUse">
      <stop stop-color="#B5A7FF"/>
      <stop offset="0.484375" stop-color="#7B61FF"/>
      <stop offset="1" stop-color="#5793CE"/>
    </linearGradient>
    <linearGradient id="paint101_linear_339_8374" x1="990.236" y1="-2204.24" x2="1140.06" y2="-2204.21" gradientUnits="userSpaceOnUse">
      <stop stop-color="#B5A7FF"/>
      <stop offset="0.484375" stop-color="#7B61FF"/>
      <stop offset="1" stop-color="#5793CE"/>
    </linearGradient>
    <linearGradient id="paint102_linear_339_8374" x1="1065.57" y1="564.673" x2="1190.27" y2="579.019" gradientUnits="userSpaceOnUse">
      <stop stop-color="#F0F8FF"/>
      <stop offset="1" stop-color="#9EC4E2"/>
    </linearGradient>
    <linearGradient id="paint103_linear_339_8374" x1="989.833" y1="595.305" x2="1140.13" y2="595.305" gradientUnits="userSpaceOnUse">
      <stop stop-color="#C0BFF6"/>
      <stop offset="0.2938" stop-color="#C5C4F7"/>
      <stop offset="0.6399" stop-color="#D3D2F9"/>
      <stop offset="1" stop-color="#E9E9FD"/>
    </linearGradient>
    <linearGradient id="paint104_linear_339_8374" x1="1016.33" y1="537.557" x2="1016.33" y2="653.009" gradientUnits="userSpaceOnUse">
      <stop stop-color="#E1CEF2"/>
      <stop offset="1" stop-color="#D3B4EF"/>
    </linearGradient>
    <linearGradient id="paint105_linear_339_8374" x1="1003.99" y1="619.672" x2="1075.65" y2="516.4" gradientUnits="userSpaceOnUse">
      <stop stop-color="#351053"/>
      <stop offset="1" stop-color="#814DB2"/>
    </linearGradient>
    <linearGradient id="paint106_linear_339_8374" x1="990.247" y1="-1003.29" x2="1140.07" y2="-1003.24" gradientUnits="userSpaceOnUse">
      <stop stop-color="#B5A7FF"/>
      <stop offset="0.484375" stop-color="#7B61FF"/>
      <stop offset="1" stop-color="#5793CE"/>
    </linearGradient>
    <linearGradient id="paint107_linear_339_8374" x1="990.236" y1="-2245.51" x2="1140.06" y2="-2245.49" gradientUnits="userSpaceOnUse">
      <stop stop-color="#B5A7FF"/>
      <stop offset="0.484375" stop-color="#7B61FF"/>
      <stop offset="1" stop-color="#5793CE"/>
    </linearGradient>
    <linearGradient id="paint108_linear_339_8374" x1="1065.57" y1="523.396" x2="1190.27" y2="537.742" gradientUnits="userSpaceOnUse">
      <stop stop-color="#F0F8FF"/>
      <stop offset="1" stop-color="#9EC4E2"/>
    </linearGradient>
    <linearGradient id="paint109_linear_339_8374" x1="989.817" y1="554.012" x2="1140.15" y2="554.012" gradientUnits="userSpaceOnUse">
      <stop stop-color="#6DE0F6"/>
      <stop offset="0.1595" stop-color="#68D8F5"/>
      <stop offset="0.4138" stop-color="#5AC0F1"/>
      <stop offset="0.7294" stop-color="#439BEA"/>
      <stop offset="1" stop-color="#2C75E4"/>
    </linearGradient>
    <linearGradient id="paint110_linear_339_8374" x1="1016.33" y1="496.28" x2="1016.33" y2="611.732" gradientUnits="userSpaceOnUse">
      <stop stop-color="#E1CEF2"/>
      <stop offset="1" stop-color="#D3B4EF"/>
    </linearGradient>
    <linearGradient id="paint111_linear_339_8374" x1="1003.99" y1="578.396" x2="1075.65" y2="475.123" gradientUnits="userSpaceOnUse">
      <stop stop-color="#351053"/>
      <stop offset="1" stop-color="#814DB2"/>
    </linearGradient>
    <linearGradient id="paint112_linear_339_8374" x1="990.247" y1="-1044.56" x2="1140.07" y2="-1044.51" gradientUnits="userSpaceOnUse">
      <stop stop-color="#B5A7FF"/>
      <stop offset="0.484375" stop-color="#7B61FF"/>
      <stop offset="1" stop-color="#5793CE"/>
    </linearGradient>
    <linearGradient id="paint113_linear_339_8374" x1="990.236" y1="-2286.79" x2="1140.06" y2="-2286.76" gradientUnits="userSpaceOnUse">
      <stop stop-color="#B5A7FF"/>
      <stop offset="0.484375" stop-color="#7B61FF"/>
      <stop offset="1" stop-color="#5793CE"/>
    </linearGradient>
    <linearGradient id="paint114_linear_339_8374" x1="1065.57" y1="482.119" x2="1190.27" y2="496.464" gradientUnits="userSpaceOnUse">
      <stop stop-color="#F0F8FF"/>
      <stop offset="1" stop-color="#9EC4E2"/>
    </linearGradient>
    <linearGradient id="paint115_linear_339_8374" x1="989.833" y1="512.751" x2="1140.13" y2="512.751" gradientUnits="userSpaceOnUse">
      <stop stop-color="#C0BFF6"/>
      <stop offset="0.2938" stop-color="#C5C4F7"/>
      <stop offset="0.6399" stop-color="#D3D2F9"/>
      <stop offset="1" stop-color="#E9E9FD"/>
    </linearGradient>
    <linearGradient id="paint116_linear_339_8374" x1="1016.33" y1="455.002" x2="1016.33" y2="570.454" gradientUnits="userSpaceOnUse">
      <stop stop-color="#E1CEF2"/>
      <stop offset="1" stop-color="#D3B4EF"/>
    </linearGradient>
    <linearGradient id="paint117_linear_339_8374" x1="1115.96" y1="535.582" x2="1115.96" y2="584.002" gradientUnits="userSpaceOnUse">
      <stop stop-color="#E1CEF2"/>
      <stop offset="1" stop-color="#D3B4EF"/>
    </linearGradient>
    <linearGradient id="paint118_linear_339_8374" x1="1101.49" y1="532.895" x2="1102.29" y2="583.815" gradientUnits="userSpaceOnUse">
      <stop stop-color="#C3A9D9"/>
      <stop offset="1" stop-color="#8C57BC"/>
    </linearGradient>
    <linearGradient id="paint119_linear_339_8374" x1="313.76" y1="-74.0021" x2="324.537" y2="-74.001" gradientUnits="userSpaceOnUse">
      <stop stop-color="#B5A7FF"/>
      <stop offset="0.484375" stop-color="#7B61FF"/>
      <stop offset="1" stop-color="#5793CE"/>
    </linearGradient>
    <linearGradient id="paint120_linear_339_8374" x1="146.071" y1="269.392" x2="170.025" y2="272.501" gradientUnits="userSpaceOnUse">
      <stop stop-color="#F0F8FF"/>
      <stop offset="1" stop-color="#9EC4E2"/>
    </linearGradient>
    <linearGradient id="paint121_linear_339_8374" x1="683.893" y1="300.794" x2="696.749" y2="290.084" gradientUnits="userSpaceOnUse">
      <stop stop-color="#351053"/>
      <stop offset="1" stop-color="#814DB2"/>
    </linearGradient>
    <linearGradient id="paint122_linear_339_8374" x1="87.8119" y1="-380.445" x2="110.443" y2="-380.443" gradientUnits="userSpaceOnUse">
      <stop stop-color="#B5A7FF"/>
      <stop offset="0.484375" stop-color="#7B61FF"/>
      <stop offset="1" stop-color="#5793CE"/>
    </linearGradient>
    <linearGradient id="paint123_linear_339_8374" x1="390.384" y1="274.644" x2="397.316" y2="274.644" gradientUnits="userSpaceOnUse">
      <stop stop-color="#C0BFF6"/>
      <stop offset="0.2938" stop-color="#C5C4F7"/>
      <stop offset="0.6399" stop-color="#D3D2F9"/>
      <stop offset="1" stop-color="#E9E9FD"/>
    </linearGradient>
    <linearGradient id="paint124_linear_339_8374" x1="475.944" y1="276.888" x2="480.46" y2="273.134" gradientUnits="userSpaceOnUse">
      <stop stop-color="#351053"/>
      <stop offset="1" stop-color="#814DB2"/>
    </linearGradient>
    <linearGradient id="paint125_linear_339_8374" x1="533.932" y1="271.255" x2="542.35" y2="272.347" gradientUnits="userSpaceOnUse">
      <stop stop-color="#F0F8FF"/>
      <stop offset="1" stop-color="#9EC4E2"/>
    </linearGradient>
    <linearGradient id="paint126_linear_339_8374" x1="888.383" y1="275.721" x2="892.9" y2="271.962" gradientUnits="userSpaceOnUse">
      <stop stop-color="#351053"/>
      <stop offset="1" stop-color="#814DB2"/>
    </linearGradient>
    <linearGradient id="paint127_linear_339_8374" x1="1064.35" y1="323.722" x2="1068.87" y2="319.963" gradientUnits="userSpaceOnUse">
      <stop stop-color="#351053"/>
      <stop offset="1" stop-color="#814DB2"/>
    </linearGradient>
    <linearGradient id="paint128_linear_339_8374" x1="1064.35" y1="419.726" x2="1068.87" y2="415.967" gradientUnits="userSpaceOnUse">
      <stop stop-color="#351053"/>
      <stop offset="1" stop-color="#814DB2"/>
    </linearGradient>
    <linearGradient id="paint129_linear_339_8374" x1="596.373" y1="275.72" x2="600.89" y2="271.962" gradientUnits="userSpaceOnUse">
      <stop stop-color="#351053"/>
      <stop offset="1" stop-color="#814DB2"/>
    </linearGradient>
    <linearGradient id="paint130_linear_339_8374" x1="619.373" y1="250.72" x2="623.89" y2="246.961" gradientUnits="userSpaceOnUse">
      <stop stop-color="#351053"/>
      <stop offset="1" stop-color="#814DB2"/>
    </linearGradient>
    <linearGradient id="paint131_linear_339_8374" x1="547.163" y1="228.487" x2="554.095" y2="228.487" gradientUnits="userSpaceOnUse">
      <stop stop-color="#C0BFF6"/>
      <stop offset="0.2938" stop-color="#C5C4F7"/>
      <stop offset="0.6399" stop-color="#D3D2F9"/>
      <stop offset="1" stop-color="#E9E9FD"/>
    </linearGradient>
    <linearGradient id="paint132_linear_339_8374" x1="729.456" y1="-394.445" x2="752.087" y2="-394.443" gradientUnits="userSpaceOnUse">
      <stop stop-color="#B5A7FF"/>
      <stop offset="0.484375" stop-color="#7B61FF"/>
      <stop offset="1" stop-color="#5793CE"/>
    </linearGradient>
    <linearGradient id="paint133_linear_339_8374" x1="413.021" y1="400.103" x2="443.223" y2="400.103" gradientUnits="userSpaceOnUse">
      <stop stop-color="#C0BFF6"/>
      <stop offset="0.2938" stop-color="#C5C4F7"/>
      <stop offset="0.6399" stop-color="#D3D2F9"/>
      <stop offset="1" stop-color="#E9E9FD"/>
    </linearGradient>
  </defs>

  <style>


  .strk1 {
    stroke-dashoffset: 200%;
    stroke-dasharray: 100%;
    animation: 5s linear  infinite strokeWay;
  }
  .strk2 {
    stroke-dashoffset: 200%;
    stroke-dasharray: 100%;
    animation: 5s linear  infinite .4s strokeWay;
  }
  .strk3 {
    stroke-dashoffset: 200%;
    stroke-dasharray: 100%;
    animation: 5s linear  infinite .8s strokeWay;
  }
  .strk4 {
    stroke-dashoffset: 200%;
    stroke-dasharray: 100%;
    animation: 5s linear  infinite 1.2s strokeWay;
  }
  
  @keyframes strokeWay {
    to {
      stroke-dashoffset: 0%;
    }
  }


  .ball1{
    animation: 5s linear infinite show;
  }
  .ball2{
    animation: 5s linear .2s infinite show;
  }
  .ball3{
    animation: 5s linear .4s infinite show;
  }
  .ball4{
    animation: 5s linear .6s infinite show;
  }
  .ball5{
    animation: 5s linear .8s infinite show;
  }
  .ball6{
    animation: 5s linear 1s infinite show;
  }
  .ball7{
    animation: 5s linear 1.2s infinite show;
  }
  .ball8{
    animation: 5s linear 1.4s infinite show;
  }
  @keyframes show {
    0%{
      opacity: 1;
    }
    10%{
      opacity: 0;
    }
    80%{
      opacity: 0;
    }
    100%{
      opacity: 1;
    }
  }



  .box1 {
    animation: 3s ease-in-out  infinite up;
  }
  .box3 {
    animation: 3s ease-in-out 0.4s infinite up;
  }
  .box2 {
    animation: 3s ease-in-out 0.7s infinite up;
  }
  .box4 {
    animation: 3s ease-in-out 0.9s infinite up;
  }
  @keyframes up {
    0% {
      transform: translateY(0);
    }
    50% {
      transform: translateY(-9px);
    }
    100% {
      transform: translateY(0);
    }
  }


  .shadow1 {
    animation: 4s ease-in-out  infinite down;
  }
  .shadow3 {
    animation: 4s ease-in-out  .4s infinite down;
  }
  .shadow2 {
    animation: 4s ease-in-out .7s infinite down;
  }
  .shadow4 {
    animation: 4s ease-in-out .9s infinite down;
  }
  @keyframes down {
    0% {
      transform: translateY(0);
    }
    50% {
      transform: translateY(4px);
    }
    100% {
      transform: translateY(0);
    }
  }



  .cloud {
    animation: 3s ease-in-out infinite cloudslide;
  }
  @keyframes cloudslide {
    0% {
      transform: translate(0px, 0px) ;
    }
    50% {
      transform: translate(8px, 8px);
    }
    100% {
      transform: translate(0px, 0px);
    }
  }




  </style>


</svg>
