<svg width="86" height="36" viewBox="0 0 86 36" fill="none" xmlns="http://www.w3.org/2000/svg">
<path d="M15.0835 9.50401C12.3856 8.67201 9.44237 8.35201 6.74443 9.31201C4.47571 10.08 2.51358 11.744 1.47119 14.048C0.367494 16.608 0.306177 19.744 1.28724 22.368C2.14568 24.736 3.98518 26.464 6.2539 27.296C7.54155 27.808 8.89052 28 10.3008 27.936C11.895 27.872 13.6732 27.68 15.1448 26.912V22.048C12.6922 23.008 9.01315 23.2 7.3576 20.64C6.56048 19.424 6.56048 17.76 7.11233 16.48C7.60287 15.264 8.70657 14.496 9.87158 14.176C11.6498 13.664 13.428 14.112 15.1448 14.624L15.0835 9.50401Z" fill="#C92027"/>
<path d="M69.5329 27.872C71.8629 27.872 73.5185 26.976 74.7448 25.568V27.488H80.7538V16.864C80.7538 15.2 80.6312 13.344 79.7114 11.872C78.9756 10.656 77.7493 9.82403 76.4617 9.37603C72.7827 8.03203 68.6131 8.99203 65.0568 10.208V14.88C67.1415 14.048 69.5942 13.6 71.8629 13.792C73.5185 13.92 74.8061 14.88 74.8061 16.736V17.056C70.6366 15.52 63.6465 16.16 63.6465 22.112V22.176C63.6465 25.824 66.2218 27.872 69.5329 27.872ZM71.8016 23.84C70.5139 23.84 69.5942 23.072 69.5942 21.856V21.792C69.5942 18.976 73.2119 19.36 74.8674 20.128C74.8674 22.368 73.5798 23.84 71.8016 23.84Z" fill="#C92027"/>
<path d="M45.0057 9.31201H50.8921V12.064L51.1373 11.744C52.8542 9.44001 55.4295 8.224 58.2501 9.05601C60.5801 9.76001 61.8678 11.872 62.113 14.368C62.2356 15.52 62.1743 16.736 62.1743 17.888C62.1743 19.808 62.1743 21.728 62.1743 23.648C62.1743 24.928 62.1743 26.208 62.1743 27.488H56.2266C56.2266 24.16 56.2879 20.832 56.2266 17.568C56.2266 16.096 55.6134 14.624 54.0192 14.368C52.5476 14.112 51.3213 15.008 50.9534 16.48C50.8921 17.12 50.8921 17.824 50.8921 18.528C50.8921 19.552 50.8921 20.576 50.8921 21.6C50.8921 23.584 50.8921 25.504 50.8921 27.488H44.9443L45.0057 9.31201Z" fill="#C92027"/>
<path d="M43.166 25.184C41.2652 26.528 39.1804 27.552 36.8504 27.808C34.3977 28.064 31.8837 27.488 29.9216 26.016C27.2237 27.296 24.0965 28.32 21.1533 27.36C18.9459 26.656 17.8422 24.608 17.5356 22.368C17.413 21.28 17.4743 20.128 17.4743 18.976C17.4743 17.12 17.4743 15.264 17.4743 13.344C17.4743 12.064 17.4743 10.72 17.4743 9.44001H22.9928C22.9928 12.32 23.0541 15.264 23.1154 18.144C23.1768 19.488 23.0541 21.152 23.8512 22.24C24.6484 23.392 26.1813 23.136 27.3463 22.816C24.8936 17.504 27.5916 10.4 33.0487 8.60801C35.3175 7.84001 38.322 7.96801 40.1615 9.69601C41.6331 11.04 42.0623 13.152 41.6331 15.072C41.2652 16.544 40.4681 17.76 39.5483 18.848C38.322 20.32 36.8504 21.536 35.3175 22.688C37.4022 24.288 40.836 23.136 43.166 21.6V25.184ZM36.8504 17.248C37.5249 16.352 38.322 14.752 37.2796 13.792C36.6051 13.152 35.5014 13.28 34.7656 13.728C32.4356 15.072 32.2516 18.144 33.4166 20.384C34.8269 19.36 35.9919 18.336 36.8504 17.248C38.8738 14.56 35.9919 18.336 36.8504 17.248Z" fill="#C92027"/>
<path d="M23.606 3.48801C23.606 5.34401 22.1344 6.88001 20.3562 6.88001C18.578 6.88001 17.1064 5.34401 17.1064 3.48801C17.1064 1.63201 18.578 0.0960083 20.3562 0.0960083C22.0731 0.0960083 23.606 1.63201 23.606 3.48801Z" fill="#C92027"/>
<path d="M83.8194 25.184C85.2297 25.184 85.2297 27.424 83.8194 27.424C82.4092 27.424 82.4092 25.184 83.8194 25.184ZM83.8194 27.296C85.0457 27.296 84.9844 25.248 83.7581 25.376C82.5931 25.44 82.6544 27.296 83.8194 27.296ZM83.3902 25.696H83.8194C84.31 25.696 84.4326 26.4 83.9421 26.4C84.0647 26.592 84.1873 26.784 84.31 26.976H84.126L83.7581 26.4H83.5128V26.976H83.3902V25.696ZM83.5742 26.272H83.7581C84.0034 26.272 84.2486 26.144 84.0034 25.888C83.9421 25.824 83.6355 25.824 83.5742 25.824V26.272Z" fill="#C92027"/>
</svg>
