<svg width="320" height="358" viewBox="0 0 320 358" fill="none"
  xmlns="http://www.w3.org/2000/svg">
  <path fill-rule="evenodd" clip-rule="evenodd" d="M-29.3533 85.8123L-27.7437 212.97C-27.8695 212.995 -28.0204 213.046 -28.1964 213.071C-29.5545 213.373 -29.3533 213.976 -29.127 214.982C-28.8755 216.265 -31.5665 216.441 -30.0072 217.422C-28.1964 218.579 -30.4599 218.73 -30.4348 219.71C-30.4348 220.389 -30.1078 221.068 -31.0384 221.119C-31.4659 221.144 -30.9378 222.15 -31.642 222.276C-32.0444 222.351 -32.6731 222.125 -32.4719 222.804C-32.2204 223.634 -32.3965 224.137 -32.5222 224.942C-32.5725 225.419 -32.6479 225.746 -32.6479 226.199C-32.6479 226.627 -32.2707 226.878 -32.0192 227.18C-31.6671 227.557 -31.5665 227.582 -31.6923 228.06C-31.8935 228.865 -31.0635 228.915 -30.7366 229.469C-30.5605 229.795 -30.5857 230.324 -30.4599 230.701C-30.3342 231.103 -30.0575 230.978 -29.7557 231.179C-29.303 231.506 -29.2024 232.386 -28.6743 232.512C-28.3976 232.587 -28.1713 232.386 -27.9198 232.31C-27.7689 232.26 -27.618 232.21 -27.4671 232.185L-26.3605 308.54C-23.4431 310.803 -20.6514 313.469 -17.1808 310.401C-15.4706 308.917 -13.5089 308.54 -11.4214 309.395C-9.35914 310.225 -9.51004 311.734 -7.0705 311.105C-5.73756 311.407 -5.63695 311.96 -4.10281 311.457C-2.89562 311.055 -1.61297 310.476 -0.355476 310.351C1.53077 310.175 2.71281 312.011 4.7751 311.231C5.15235 311.08 6.81224 309.646 6.83739 310.678C6.86254 313.042 8.74879 309.646 9.35239 310.929C9.67934 311.583 10.9871 310.401 11.6159 310.2C12.6973 309.873 13.8039 309.244 14.8854 309.068C15.9417 309.194 16.2938 309.319 17.0986 310.024C17.7273 310.552 18.6327 310.401 19.3872 310.401C20.1668 310.401 20.3932 310.904 20.9716 310.954C22.2543 311.105 23.2854 310.979 24.3166 311.935C25.4986 313.042 26.7813 314.173 28.3909 314.576C30.4029 315.079 32.0124 313.042 33.622 312.161C35.3825 312.061 37.47 310.275 39.0544 309.37C40.4125 308.59 41.5694 307.735 42.6006 306.553C43.3551 305.673 44.6125 306.327 45.6688 305.924C46.5491 305.597 47.1024 305.245 47.8569 304.767C48.3347 304.466 48.6617 304.591 49.1647 304.44C50.1455 304.164 50.3467 303.51 51.5288 303.636C52.8114 303.761 51.73 304.566 53.239 303.409C54.9743 302.73 55.3264 302.177 55.0749 300.442C54.8234 298.631 55.5779 295.261 53.9935 293.928C52.0318 292.293 51.0258 289.426 49.1144 287.816C47.6305 287.062 46.4736 285.176 44.864 284.798C43.9586 284.572 43.0533 284.622 42.1479 284.446C40.8149 284.17 39.5826 283.667 38.2748 283.264C37.2688 283.34 35.6843 282.132 35.0053 281.428C33.4208 279.844 31.2831 279.668 29.1454 279.693C27.1082 279.718 26.0519 281.805 24.0148 281.931C23.1848 281.956 21.374 281.805 20.8459 281.001C20.1668 279.944 20.3177 278.611 19.6638 277.48C19.3872 277.027 19.2866 276.474 18.859 276.147C18.5824 275.946 17.9285 275.619 17.9285 275.267C18.7333 275.267 19.4123 275.744 19.7141 276.449C20.3932 278.184 20.9716 279.768 22.7321 280.573C23.7884 281.076 25.2471 280.322 26.1777 279.844C27.8124 279.014 28.919 278.611 30.7047 278.159C32.4903 278.259 34.8795 278.008 36.464 278.863C40.2365 280.9 40.991 280.799 44.9395 279.014C45.87 278.586 48.0329 278.385 49.0641 278.461C50.9 278.586 51.8809 277.505 53.5156 277.077L60.633 277.153C62.2678 277.178 63.0474 277.656 62.6702 275.719C62.5193 274.94 61.7899 274.009 61.3624 273.33C60.7588 272.374 60.5073 270.262 59.5264 269.734C58.3444 269.105 56.5336 269.281 56.0558 267.797C56.2318 265.383 54.1192 267.118 53.0378 265.559C52.6857 265.03 54.1947 265.659 54.3707 265.659C56.6593 265.634 56.1815 266.011 57.2629 267.646C58.621 269.683 61.7145 267.898 63.5253 268.3C64.4307 268.501 66.1157 268.627 66.6439 269.482C67.3732 270.664 68.6056 270.337 69.8882 270.06C71.3469 270.136 72.4283 270.161 71.9002 268.526C71.5984 267.621 70.8439 267.797 70.1145 267.545C69.5612 267.369 69.1086 266.841 68.9074 266.338C68.7565 265.961 69.8882 266.439 70.0391 266.439C71.6235 266.539 71.0199 266.313 72.1265 267.395C72.4786 267.747 73.2834 268.35 73.8116 268.099C74.0128 266.112 72.0008 264.427 70.8942 262.993C69.9385 261.761 70.2151 261.635 70.19 260.177C70.1648 258.165 69.3097 257.863 67.9517 256.48C67.6247 256.203 67.5493 255.725 67.2726 255.398C66.5936 254.593 66.4678 254.291 66.4427 253.21C66.4175 251.802 64.9337 252.405 64.2043 251.726C63.5001 251.072 62.6199 250.796 62.6199 249.664C62.8714 249.714 63.4247 250.268 63.6007 250.469C64.0786 250.997 65.16 251.374 65.8391 251.374C67.3732 251.399 67.2475 251.399 67.7505 252.782C67.5744 254.04 69.5361 256.203 70.5672 256.806C72.1014 257.712 73.1325 258.014 74.7924 258.517C75.9493 258.869 76.9553 259.372 78.0116 259.95C79.0931 260.579 79.2691 260.881 80.2751 260.327C81.1302 259.85 81.4571 260.579 81.9098 261.107C82.3877 261.635 84.7266 260.956 84.3494 260.126C83.7709 258.844 83.5697 259.699 84.2236 258.265C84.5506 257.561 84.2488 257.561 83.7961 257.083C83.2679 256.555 84.7518 255.8 85.0787 255.926C85.7075 256.203 85.3051 257.762 85.9087 257.838C86.965 257.913 86.4871 256.832 85.959 256.48C85.6572 256.278 85.6572 255.448 85.7326 255.121C85.7829 254.945 87.1662 256.932 87.3171 257.486C87.4931 258.114 87.2919 259.02 87.8704 259.472C88.7506 260.151 88.8261 259.321 89.3794 258.894C89.7315 258.617 90.8632 260.026 91.165 260.403C92.0453 261.51 91.2656 261.258 92.9004 261.233C92.9004 260.906 91.4668 259.472 91.1902 259.07C90.0584 257.335 88.8764 254.392 89.3039 252.254C89.3291 252.103 89.3291 252.103 89.3794 252.254L89.8069 253.311C90.2093 254.291 92.0453 257.008 93.2776 256.983C93.7555 256.983 92.498 255.247 92.4225 254.92C92.2465 254.166 92.9004 253.839 92.7998 253.16C92.6992 252.506 92.3722 249.941 93.1267 251.802L94.6357 255.574C94.9626 256.379 96.6728 256.63 97.3267 256.253C97.5028 256.153 97.2261 255.297 97.2261 255.046C97.2513 254.191 96.9746 252.858 97.9555 253.612C99.4142 254.694 100.244 256.278 101.929 257.234C103.388 258.039 103.866 256.404 103.991 255.373C104.017 255.172 104.645 253.185 104.645 253.738L104.62 255.75C104.595 257.058 105.299 257.209 104.494 258.416C103.639 259.699 103.866 259.271 104.897 260.177C105.752 259.975 106.381 260.68 107.035 260.881C107.487 261.007 107.538 260.68 107.839 260.68C108.317 260.705 108.971 261.434 109.726 261.484C110.027 261.51 111.486 261.811 111.637 261.459C112.316 259.9 112.316 261.157 113.196 261.736C113.498 261.937 114.63 262.516 114.806 262.214C115.46 260.981 116.516 262.415 117.095 262.968C117.598 263.446 118.302 263.396 118.956 263.169C120.037 262.767 120.037 262.993 120.968 263.22C121.521 263.848 123.583 266.036 124.313 266.087C125.319 266.162 127.029 265.634 128.085 265.433C129.72 265.131 131.053 266.313 132.562 266.363C134.448 266.414 133.618 266.087 134.649 265.181C135.228 265.181 135.731 264.955 136.234 264.955C137.089 266.062 134.825 266.238 137.189 267.671C139.252 268.929 141.138 268.627 143.401 269.155C144.332 269.18 145.137 269.834 145.967 270.111C146.218 270.186 147.375 270.111 147.375 270.563C147.375 271.092 147.174 271.117 147.526 271.62C148.054 272.349 147.174 272.399 147.174 272.978C147.174 273.053 147.677 274.235 147.727 274.286C148.079 274.587 148.758 274.562 149.161 274.764C150.192 275.241 152.958 276.524 152.028 277.932C151.902 278.259 151.852 278.888 152.304 278.938C153.009 279.894 152.43 281.504 153.285 282.459C153.939 283.189 154.845 284.346 155.297 285.226C155.649 285.93 156.228 286.835 156.982 287.062C158.039 287.389 159.07 287.967 159.397 289.099C159.774 290.382 160.931 290.558 161.308 291.639C161.534 292.092 161.358 293.022 161.685 293.349C162.063 293.727 162.566 292.997 162.893 293.676C163.069 294.079 163.018 294.707 163.245 295.059C163.572 295.562 164.1 294.733 164.402 294.632C164.552 294.833 164.527 295.688 164.402 295.889C164.1 296.418 162.138 296.191 162.968 297.7C163.37 298.43 163.32 299.285 163.823 300.089C164.804 301.674 165.508 302.328 167.47 302.303C168.224 302.303 168.727 303.057 169.557 303.032C170.689 303.007 170.714 303.133 171.62 303.686C172.902 304.616 175.015 305.773 176.222 304.038C176.826 303.183 176.121 303.384 176.348 302.63C176.574 301.825 176.624 301.925 177.354 302.101C177.53 302.755 177.354 304.642 176.448 304.742C176.021 304.793 175.015 305.346 174.612 305.597C174.26 305.824 175.04 306.151 174.939 306.628C174.864 306.981 174.562 306.955 174.562 307.458C174.562 308.037 175.895 310.074 175.065 310.275V310.3C174.839 310.376 175.166 310.678 175.543 310.602C176.197 310.476 176.951 310.124 177.429 310.854C177.957 311.684 178.058 312.086 178.284 313.067C178.309 314.199 179.818 316.437 180.648 317.242C181.68 318.248 181.705 317.946 181.705 317.015C181.705 316.311 180.623 315.179 182.057 315.557C183.063 315.833 182.937 316.688 183.566 317.443C184.27 318.298 184.748 318.147 185.502 318.776C185.779 319.002 186.735 319.807 187.162 319.455C187.514 319.153 186.735 318.323 187.414 318.147C188.042 317.996 189.199 319.304 189.224 319.933C189.25 320.888 190.281 319.983 190.583 320.888C191.035 322.247 192.469 322.322 192.695 323.529C192.947 324.787 194.531 325.441 195.11 326.849C196.241 328.66 194.632 330.37 197.122 331.426C197.826 331.728 199.435 333.815 200.114 334.52C201.171 335.601 202.579 334.57 202.906 336.507C203.459 339.902 203.837 336.129 205.924 336.507C206.402 336.607 206.779 337.286 207.182 337.513C207.76 337.839 207.684 336.758 207.861 336.507C208.162 336.104 208.514 336.833 208.615 337.035C208.867 337.437 208.615 337.538 208.313 337.814C208.062 338.041 210.074 337.764 210.149 337.789C210.853 338.066 211.205 340.178 212.061 340.254C212.84 340.304 212.865 339.248 213.57 338.996C214.123 338.795 214.374 339.525 215.33 339.198C217.166 338.72 217.141 338.468 218.046 337.16C218.424 337.16 218.323 337.714 218.499 337.94C219.253 338.041 219.807 337.689 220.813 338.041C221.391 338.242 221.441 339.172 222.07 338.896C223.529 338.267 223.856 339.776 224.736 340.505C226.22 341.738 229.439 341.436 231.024 340.581C232.759 339.625 234.645 342.216 235.676 339.323C235.928 339.097 236.003 338.066 236.355 338.066C236.531 338.342 236.431 339.298 236.934 339.323C237.512 339.348 238.669 338.569 238.921 339.348C239.273 340.505 238.569 339.826 237.739 340.028C237.688 340.279 238.015 341.034 238.015 341.461C238.04 342.794 241.385 341.964 242.291 342.14C243.372 342.341 244.429 342.618 245.183 343.473C245.963 344.328 245.812 343.85 246.591 343.322C249.66 341.26 252.401 342.492 255.344 343.699C255.997 343.875 257.959 344.881 258.362 344.303C259.292 342.995 259.493 343.8 260.449 343.875C261.505 343.951 261.832 345.787 262.612 345.963C262.687 345.988 263.341 345.485 263.593 345.435C264.071 345.359 264.347 347.044 265.479 346.39C266.233 345.963 266.108 345.686 267.114 345.686C268.547 345.661 270.257 345.208 271.616 345.384C273.15 345.586 274.307 346.541 275.74 346.893C276.394 347.069 277.123 347.195 277.274 347.899C277.375 348.377 277.702 348.478 277.878 348.88C278.029 349.157 278.079 350.012 278.607 349.987C279.513 349.911 278.758 347.572 280.493 348.654C281.525 349.308 282.48 349.207 283.612 349.182C283.612 349.207 283.612 349.207 283.662 349.207C283.662 349.509 283.034 350.389 282.757 350.54C281.449 351.295 280.393 350.163 279.236 350.767C278.909 350.943 278.532 350.943 278.155 351.018C277.752 351.093 277.45 351.219 277.903 351.521C278.155 351.697 277.853 351.923 277.928 352.175C278.079 352.653 279.035 352.527 279.387 353.08C280.443 354.765 280.745 352.904 281.55 353.231C282.832 353.785 281.977 353.634 282.204 354.464L282.782 354.992C283.838 355.143 284.819 356.878 285.775 355.947C286.026 355.696 286.379 355.771 286.706 355.721C288.013 355.52 287.183 356.903 288.24 357.305C289.044 357.632 289.346 356.224 289.723 356.551C289.925 356.727 290.05 357.331 290.302 357.28C290.729 357.18 290.654 356.802 291.056 356.652C292.163 356.274 293.446 354.967 293.974 356.979C294.904 356.953 295.81 357.079 296.162 356.123C296.539 355.847 296.967 355.973 297.268 355.646C297.52 355.369 297.344 355.293 297.394 354.992C297.52 354.338 299.557 354.212 300.06 354.489C300.588 354.765 301.368 354.514 301.72 354.061C302.525 353.08 302.977 353.256 304.109 353.105C305.543 352.929 304.16 351.295 303.883 350.741C303.983 349.358 303.707 349.509 302.298 349.534C301.267 349.534 299.482 348.981 298.576 348.453C297.847 348.025 297.268 347.497 296.413 347.321C295.684 347.17 293.446 347.497 293.119 346.868C292.767 346.24 293.345 344.479 293.873 344.177C294.351 343.901 295.131 343.448 295.684 343.574C296.539 343.75 296.891 344.152 297.847 344.152C300.035 345.108 302.399 345.837 304.537 344.58C306.398 343.498 308.51 342.744 310.397 341.662C310.497 341.612 311.378 341.084 310.925 340.933C310.145 340.681 308.536 341.511 307.857 341.889C306.876 342.442 306.247 342.216 305.191 342.266C304.587 342.291 304.16 342.693 303.531 342.643C301.896 343.222 301.242 342.09 301.217 340.681C301.217 339.851 298.526 341.084 298.124 340.857C295.407 339.223 292.389 341.411 289.849 338.292C289.472 337.839 288.391 337.487 287.862 337.035C286.756 336.079 286.454 337.563 285.373 337.538C285.046 337.538 284.92 336.582 284.643 336.356C284.115 335.953 283.008 335.978 282.38 335.802C280.846 335.953 280.569 336.481 279.085 335.802C278.205 335.4 277.702 334.821 277.149 334.092C276.897 333.765 276.143 334.645 276.117 333.765C276.092 332.332 275.489 332.734 274.935 331.778C274.684 331.351 274.457 331.124 274.055 330.848C273.678 330.596 272.747 330.546 272.546 330.219C272.144 329.59 271.993 329.012 271.414 328.484C269.956 327.201 274.508 326.472 274.734 326.296C275.111 326.271 276.419 326.245 276.646 325.969C277.174 325.39 277.4 325.818 278.004 325.667C278.381 325.591 278.683 325.34 279.035 325.239C279.563 325.088 279.94 325.114 280.443 324.812C280.67 324.661 281.726 324.057 281.902 324.108C282.028 324.133 282.707 324.585 282.732 324.108C282.757 323.73 282.531 323.454 282.581 323.051C282.656 322.548 282.606 322.423 282.053 322.397C281.298 322.372 281.223 322.272 281.374 321.567C281.424 321.241 281.047 321.14 280.846 320.939C280.493 320.738 278.406 321.517 277.802 321.567C276.394 321.744 276.117 320.662 274.81 320.687C272.948 320.712 270.886 319.782 269.05 320.536C267.516 321.165 266.736 321.266 265.404 320.058C264.121 318.876 262.763 321.668 261.732 319.329C260.927 319.229 260.927 318.902 260.047 318.65C259.518 318.197 258.714 317.72 258.085 317.393C257.205 316.915 256.174 317.267 255.243 316.94C253.709 316.387 253.13 314.274 252.728 312.815C252.376 311.558 253.709 311.558 254.162 310.527C254.79 309.118 254.614 307.66 255.394 306.201C256.048 305.849 256.651 306.402 257.23 305.748C257.632 305.27 257.582 304.692 257.934 304.214C258.11 303.963 258.261 303.837 257.859 303.761C257.381 303.661 256.878 303.787 256.4 303.661C256.4 303.56 257.003 302.906 257.079 302.63C257.23 302.127 257.28 301.674 257.28 301.146C257.255 299.989 255.796 300.341 254.991 300.215C254.614 300.165 254.715 299.888 254.237 299.989C253.759 300.089 253.482 300.492 252.979 300.341C252.502 300.215 252.099 300.24 251.647 300.14C251.219 300.064 251.068 299.461 250.967 299.109C250.54 299.109 249.71 300.492 249.106 300.718C247.623 302.856 243.07 300.391 242.643 302.303C242.467 303.133 240.455 302.856 239.851 303.082C238.493 303.56 236.582 304.289 235.224 303.409C234.469 302.906 233.488 303.334 232.985 302.931C231.325 301.649 230.319 299.888 229.967 297.851C229.942 297.65 229.992 296.82 229.816 296.77C228.458 296.342 228.911 295.487 228.509 294.154C228.232 293.626 228.458 292.469 228.609 291.891C228.81 291.186 228.081 291.036 227.804 290.457C227.654 290.13 227.503 289.577 227.251 289.35C226.798 288.873 225.868 289.049 225.465 288.546C224.937 287.892 224.485 286.835 223.529 286.76C221.743 286.609 221.165 286.936 220.109 285.15C219.027 283.34 220.184 282.635 219.857 281.026C219.681 280.171 219.077 279.869 218.977 278.712C219.077 276.625 218.901 275.241 217.77 273.456C216.94 272.148 216.512 270.463 216.613 268.904C216.688 267.847 216.487 267.47 215.28 268.325C214.651 268.778 214.475 268.501 213.746 268.375C213.041 268.275 212.287 268.728 211.708 268.375C211.029 267.948 210.879 267.042 210.652 266.313C210.526 265.936 208.64 265.131 208.188 264.779C206.88 263.496 206.201 265.634 205.17 264.402C204.214 263.245 203.283 265.207 202.277 264.201C201.649 263.572 201.674 262.717 201.573 261.887C201.397 260.428 200.894 260.227 200.014 259.171C199.108 258.114 200.114 261.082 198.304 259.9C197.524 259.397 197.977 256.278 196.292 255.826C194.456 255.348 195.059 256.228 194.481 254.266C194.104 253.059 192.796 253.285 192.217 252.657C191.865 252.279 192.142 251.55 191.312 251.6C190.004 251.676 190.381 251.223 189.451 250.469C188.898 249.865 188.646 249.538 187.791 249.664C186.383 249.84 186.961 248.96 186.433 248.733C185.905 248.532 185.88 249.085 185.527 249.211C184.848 249.438 184.823 248.683 184.32 248.582C183.666 248.457 184.194 247.576 183.691 247.124C182.56 246.093 183.339 245.112 182.535 244.282C182.057 243.804 182.66 243.276 182.308 242.848C181.73 242.169 181.881 242.043 182.057 241.138C182.183 240.459 182.057 239.453 181.453 239C180.774 238.472 179.466 237.994 179.542 236.938C179.919 235.681 179.642 235.806 179.139 234.901C178.812 234.322 179.718 234.021 179.693 233.593C179.039 233.467 179.315 233.593 178.687 233.819C178.511 233.87 177.832 234.146 177.781 233.769C177.731 233.769 176.675 232.688 176.348 232.512C175.644 232.134 175.543 231.128 175.392 230.424C175.015 228.538 174.839 227.683 175.392 225.822C175.769 224.615 175.191 224.061 176.499 224.036C177.555 224.011 180.925 223.407 181.654 222.779C182.183 222.829 182.685 222.804 183.063 223.231C183.239 223.458 183.465 223.936 183.742 224.036C184.521 224.338 185.653 223.885 186.433 223.709C187.137 223.533 187.414 223.81 188.017 224.011C188.545 224.187 189.074 224.338 189.476 223.835C191.438 222.552 191.739 223.936 193.651 223.961C194.984 223.986 195.889 224.841 196.845 223.458C197.423 222.628 197.725 223.055 198.48 223.03C198.983 223.03 199.46 222.93 199.989 222.98C200.517 223.055 200.944 223.206 201.498 223.005C203.107 222.93 204.591 222.502 205.949 221.773C206.502 221.471 207.257 219.258 206.377 219.258C205.522 219.258 205.421 218.553 205.874 217.975C206.326 217.397 206.1 216.24 206.1 215.536C206.1 214.982 206.326 214.756 206.452 214.278C206.905 212.291 204.667 212.191 204.968 210.48C205.245 208.921 204.314 209.198 203.283 208.443C200.617 207.588 200.643 206.18 199.561 204.092C199.058 203.137 196.82 200.068 195.789 199.867C194.078 199.54 194.556 198.358 193.5 197.654C192.745 197.151 192.092 197.553 191.211 197.352C190.004 197.377 189.577 196.749 188.696 196.195C188.068 195.818 187.741 197.252 187.036 196.371C186.76 196.019 186.131 196.095 185.88 196.447C185.075 197.553 185.276 197.528 183.817 197.402C182.912 197.327 180.321 197.905 179.869 197.025C179.743 196.799 179.693 195.642 179.491 195.692C178.787 195.818 178.385 196.648 177.555 196.447C175.87 195.994 175.166 193.404 174.084 193.127C173.154 192.875 172.123 192.574 171.343 193.127C169.557 194.384 169.985 191.97 169.004 191.568C167.344 191.039 165.634 191.065 164.251 189.883C162.918 188.751 161.685 187.921 160.101 187.166C159.447 186.865 158.667 185.28 158.516 185.255L158.466 185.205C157.51 185.104 156.001 185.859 155.272 185.406C154.518 184.953 154.191 183.821 153.16 184.45C152.229 185.004 148.406 183.922 147.928 182.992C147.476 182.841 147.023 183.017 146.52 182.916C145.69 182.74 144.961 181.935 144.156 181.809C143.401 182.011 141.993 182.489 141.591 181.784C140.635 180.124 139.151 183.671 138.145 182.312C137.139 180.954 136.737 181.382 135.253 181.96C133.819 182.539 132.813 180.175 132.838 179.118C132.864 178.314 133.744 177.785 133.543 177.006C133.291 176.075 132.838 175.547 133.794 174.667C134.196 174.29 135.353 173.082 135.077 172.504C134.725 171.775 134.951 170.492 134.976 169.612C135.001 168.832 135.504 168.555 135.731 167.927C136.158 166.745 135.202 166.493 134.876 165.537C134.523 164.506 134.272 163.903 134.523 162.771C134.876 161.312 136.183 159.2 133.769 158.848C132.687 158.697 131.38 157.615 130.65 156.861C129.418 155.603 127.658 154.421 126.953 152.761C126.4 151.051 124.79 150.8 123.81 149.089C122.829 147.329 120.842 146.6 119.408 145.342C117.975 144.085 117.572 143.833 115.636 144.789C114.655 145.267 114.026 144.965 113.045 144.663C111.109 144.059 109.248 143.582 108.091 141.947C107.462 141.041 107.739 140.74 107.412 139.859C107.11 139.759 106.833 139.482 106.532 139.331C105.953 138.753 105.651 138.049 104.947 137.571C104.444 137.244 102.533 137.998 102.684 136.816C102.759 136.238 103.69 136.112 103.539 135.609C103.262 134.653 97.5531 132.239 96.5219 132.264C94.4848 132.365 93.1267 132.314 92.0704 130.353C91.7686 129.799 91.9195 128.97 91.995 128.366C92.0453 127.888 91.9195 127.511 91.8441 127.108C91.0141 126.53 91.5423 125.499 90.1339 125.524C88.977 125.549 87.9458 125.323 86.8141 125.348C86.4117 125.348 85.4057 125.046 85.1542 125.197C84.7518 125.398 84.6009 125.775 84.123 125.926C83.2679 125.926 82.614 124.694 82.4883 126.706C82.3877 128.29 80.9039 126.932 80.25 126.781C79.244 126.555 78.8919 127.435 78.3386 126.278C77.6847 124.895 76.1002 125.876 74.6667 125.851C72.7804 125.826 72.0762 123.411 70.8942 122.33C70.1145 121.601 69.0583 121.651 68.2283 121.072C67.4235 120.519 67.4487 119.765 66.669 119.262C65.6379 118.608 64.2295 119.262 63.6007 118.105C63.5756 116.068 62.3684 118.029 60.8091 117.375C59.451 116.822 58.445 114.609 57.4642 113.527C56.5588 112.521 55.2007 113.301 54.421 112.069C54.1947 111.692 53.1132 112.018 52.736 111.993C50.2461 111.943 48.2341 111.692 45.9455 110.836C44.864 110.434 43.7071 110.736 42.7515 110.434C39.9095 111.339 37.9478 110.057 35.4328 109.252C33.2448 108.548 30.4783 108.321 28.5418 107.341C27.0328 106.586 26.5046 105.983 24.6435 105.983C22.4303 106.008 20.8962 104.8 18.9093 104.272C16.1932 103.468 13.9297 102.185 11.2135 101.808C10.4338 101.707 9.67933 100.6 9.17633 100.626C8.17034 100.651 6.51045 101.707 6.93799 99.519C7.13919 98.513 5.35355 98.1106 4.95115 97.004C3.41701 97.0291 1.37987 98.7393 -0.0536775 97.2052C-1.36147 95.7717 -1.31117 95.2184 -3.44892 95.1932C-5.15911 94.8663 -7.5232 93.2818 -9.18309 92.5273C-10.9184 91.7477 -12.528 91.2698 -14.1376 90.1632C-15.2694 89.4087 -16.4011 89.9369 -17.4574 89.283L-20.2742 87.5225C-21.5568 86.7177 -23.2922 86.5668 -24.5497 86.2147C-25.8072 86.2398 -26.109 86.0135 -27.0647 85.5105C-27.794 85.1332 -28.5988 85.6362 -29.3533 85.8123Z" fill="url(#paint0_linear_103)"/>
  <path fill-rule="evenodd" clip-rule="evenodd" d="M321.111 338.87C320.482 338.619 319.879 338.241 319.25 338.065C318.546 337.864 317.791 337.763 317.087 337.537C316.182 337.009 314.044 337.562 313.616 337.059C313.44 336.858 313.289 334.922 313.365 334.645C313.516 334.092 314.22 333.966 314.572 333.589C314.949 333.161 313.692 332.432 313.44 332.231C312.283 331.325 313.139 333.89 312.032 333.312C311.755 333.161 311.403 332.18 311.252 331.878C310.397 330.118 310.724 328.433 308.662 327.402C307.329 326.723 306.826 327.427 306.725 325.717C306.675 324.61 305.669 323.428 307.253 323.83C307.832 323.981 309.215 325.012 309.391 325.591C309.467 325.893 309.794 326.698 310.02 326.874C310.397 327.175 311.152 326.899 311.63 327.024C312.283 327.201 312.309 328.634 313.038 328.634C313.365 329.187 313.742 330.269 314.346 330.571C314.949 330.872 315.628 330.998 316.282 331.124C317.59 331.401 315.553 331.702 316.207 332.759C316.785 333.74 317.087 333.639 317.992 334.142C318.42 334.393 318.697 334.871 319.175 334.972C320.734 335.274 320.13 334.419 320.105 333.387C320.105 332.759 321.966 331.728 322.394 331.199C323.123 331.074 323.601 330.847 324.28 330.545C325.11 330.193 325.034 332.407 324.984 332.91C324.783 334.745 324.104 335.928 323.324 337.537C323.048 338.141 322.947 338.669 322.922 339.323C322.872 340.379 322.067 339.423 321.69 339.197L321.111 338.87Z" fill="url(#paint1_linear_103)"/>
  <path fill-rule="evenodd" clip-rule="evenodd" d="M296.465 319.857C298.402 319.303 298.578 318.549 297.647 317.141C297.32 316.663 297.018 316.763 296.49 316.587C295.635 316.336 296.113 316.21 296.088 315.606C296.088 314.776 294.881 314.55 295.157 313.393C296.591 307.257 302.702 316.487 305.871 313.745C307.581 312.287 308.613 315.959 309.669 316.562C310.549 317.09 311.304 317.442 310.801 318.549C310.247 319.806 310.323 319.052 311.253 319.957C311.253 320.687 313.089 321.014 312.159 321.768C311.807 322.07 310.926 322.145 310.725 322.523C310.549 322.875 310.247 323.529 309.769 323.529C309.518 323.126 310.474 321.693 309.593 321.517C309.141 321.416 308.638 321.869 308.311 321.768C307.783 321.617 308.059 322.196 307.808 322.472C307.33 322.472 306.751 322.02 306.299 321.869C305.444 321.567 304.035 322.145 303.054 322.045C301.369 321.844 301.394 319.957 299.131 320.888C298.477 321.165 293.648 321.994 295.887 320.259L296.465 319.857Z" fill="url(#paint2_linear_103)"/>
  <path fill-rule="evenodd" clip-rule="evenodd" d="M287.057 314.902C286.554 314.323 286.177 313.619 285.85 312.965C285.347 311.985 284.266 313.217 284.492 311.23C284.542 310.777 284.341 310.174 284.442 309.797C284.744 308.891 285.699 307.961 286.429 307.432C286.881 307.106 287.334 306.779 287.887 306.728C288.114 306.703 288.39 307.156 288.591 307.307C289.019 307.583 289.522 307.508 290 307.659C290.352 307.759 291.509 308.665 291.71 309.042C291.987 309.57 292.188 310.501 292.288 311.079C292.515 312.412 293.596 312.739 292.565 314.072C292.364 314.349 292.087 314.902 292.087 315.229C292.112 316.109 293.37 315.556 292.766 316.411C292.439 316.864 292.439 317.467 291.66 317.266C291.383 317.191 291.031 316.738 290.805 316.813C290.276 317.04 289.27 317.266 289.245 316.411C289.22 315.355 288.994 315.43 287.912 315.254L287.057 314.902Z" fill="url(#paint3_linear_103)"/>
  <path fill-rule="evenodd" clip-rule="evenodd" d="M321.586 193.278C322.844 192.146 326.239 191.065 326.516 189.505C326.667 188.65 326.44 188.172 327.22 187.544C327.949 186.99 328 186.261 329.081 186.236C330.062 186.236 331.797 185.406 330.867 184.174C330.364 183.52 326.742 183.57 328.301 181.231C328.93 180.301 333.13 180.577 333.482 181.382C334.01 182.639 334.765 182.187 335.343 180.954C336.878 177.786 340.474 185.808 343.467 181.231C343.919 181.08 344.372 180.778 344.85 180.728C345.152 180.678 345.529 180.703 345.806 180.577C346.183 180.401 346.611 180.024 346.963 179.798C347.667 179.345 348.522 177.735 349.377 177.886C350.006 177.987 350.484 177.534 350.861 177.081C351.464 176.327 351.641 175.271 351.791 174.34C351.691 173.384 350.031 170.668 349.126 170.442C348.472 170.266 348.195 169.989 347.943 169.385C347.617 168.631 346.761 168.581 346.334 168.002C345.856 167.348 345.982 165.99 345.831 165.185C345.755 164.682 345.73 161.74 346.133 161.539C346.963 161.111 347.139 162.444 347.918 161.69C349.478 161.891 350.207 161.84 351.615 162.52C352.672 163.023 353.175 161.413 354.005 161.765C354.633 162.017 355.161 161.74 355.488 161.136C355.941 160.281 356.57 159.627 357.224 158.923C358.079 158.043 358.532 157.188 359.009 156.056C360.82 154.924 359.739 153.34 360.116 151.781C360.443 150.322 360.493 148.561 359.588 147.304C359.035 146.549 358.506 145.87 358.733 144.915C358.959 143.959 359.362 142.425 359.99 141.695C360.041 140.891 361.6 139.055 359.638 139.482C358.406 139.734 355.941 140.086 355.061 139.03C354.382 138.2 352.772 139.08 352.747 138.527C352.722 138.099 351.867 135.358 352.697 135.685C353.3 135.936 353.3 136.464 354.181 136.464C354.533 135.332 353.451 133.924 352.596 133.195C351.54 132.314 351.414 135.986 350.383 135.358C349.629 134.88 350.081 135.408 349.302 135.509C348.572 135.559 345.278 134.075 346.736 136.263C347.566 137.495 347.114 137.847 346.535 139.206C346.108 140.212 344.599 139.558 343.743 139.306C341.581 138.627 342.385 137.998 341.555 136.489C341.052 135.584 337.204 135.835 336.224 135.408C335.243 134.98 333.482 135.207 332.401 135.232C331.948 135.232 331.194 134.829 330.992 134.88C330.263 135.031 330.112 135.861 329.483 136.037C329.106 136.841 330.313 137.445 330.012 138.552C329.609 139.985 330.942 139.457 330.942 140.287C330.942 140.715 330.615 141.494 330.917 141.821C331.345 142.324 331.998 142.525 332.426 143.003C333.03 143.682 333.633 144.839 333.91 145.719C334.036 146.172 333.608 146.65 333.784 147.279C333.96 147.958 334.312 148.486 334.614 149.115C335.268 150.07 335.796 150.171 335.645 151.454C335.545 152.359 334.916 153.139 334.966 153.994C335.092 156.157 336.953 155.955 335.67 158.345C335.092 159.426 335.042 160.331 334.01 161.161C333.004 161.991 332.426 160.306 331.319 160.03C330.137 159.728 329.961 160.759 329.106 160.809C328.352 160.86 327.572 160.08 326.742 159.979C325.158 159.753 325.409 158.948 324.705 160.709C324.428 161.388 322.24 162.369 321.536 162.469C320.656 163.299 320.103 163.878 319.398 164.833C318.795 165.663 318.317 166.217 317.386 166.72C315.5 167.726 314.167 169.637 313.89 171.75C313.714 173.007 313.84 174.667 313.564 175.849C313.589 176.754 313.262 177.056 312.658 177.635C312.155 178.138 311.25 178.289 310.898 178.666C310.596 178.993 310.873 179.395 310.294 179.571C309.615 179.798 308.911 179.722 308.307 179.32C307.477 178.766 307.804 178.289 306.622 178.339C305.113 178.414 304.711 178.465 304.384 179.948C304.057 181.432 302.322 181.684 301.039 181.91C299.932 182.086 299.681 181.659 299.304 180.602C299.228 179.873 298.826 179.596 298.122 179.471C297.367 179.345 296.939 178.691 296.336 178.59C294.852 178.339 293.242 178.515 292.236 179.672C291.608 180.401 290.476 180.929 289.721 181.659C288.036 183.268 288.464 182.162 286.628 182.111C284.39 182.061 283.358 182.313 282.705 179.697C282.378 178.414 282.202 177.836 281.422 176.754C280.718 176.05 280.718 173.787 279.762 173.535C279.762 173.46 279.687 173.334 279.812 173.309C280.139 172.63 281.598 173.183 281.271 171.372C281.07 170.19 280.064 169.31 281.347 168.455C282.629 167.625 287.609 166.015 284.163 164.154C283.006 163.526 280.164 163.526 279.284 164.582C278.982 164.934 278.957 166.569 279.184 166.971C279.913 168.279 277.926 168.656 278.706 169.461C279.184 169.964 279.536 170.064 279.36 170.819C279.133 171.397 278.857 172.051 278.479 172.554C278.077 173.082 277.75 172.806 277.272 172.982C276.945 173.108 275.713 174.843 275.864 175.17L276.568 176.603C276.87 177.207 278.228 177.232 278.203 177.459C278.152 178.339 276.417 180.879 275.587 180.98C274.506 181.81 274.154 181.633 272.972 181.407C271.639 181.13 272.594 180.778 271.488 181.91C270.582 182.841 266.986 183.821 267.841 181.307C268.394 179.697 266.86 181.432 266.03 181.483C265.225 181.533 264.873 181.181 264.018 181.533C263.012 181.935 263.113 183.243 262.132 183.318L259.994 183.495C258.234 183.645 259.868 182.916 257.957 183.746C257.177 184.098 253.807 184.375 252.927 184.35C252.801 184.35 251.946 184.626 252.047 184.249C252.122 183.998 252.223 183.746 252.173 183.495C252.097 183.168 250.815 182.74 250.462 182.614L245.785 180.653C244.502 180.124 244.376 179.496 243.043 180.15C241.735 180.778 240.428 180.728 239.749 182.086C239.371 182.841 238.39 182.136 237.737 182.212C236.605 182.036 236.58 181.055 235.75 180.728C234.869 180.401 234.568 181.558 233.511 180.728C232.204 179.697 230.82 183.218 229.538 182.79C228.28 182.388 228.305 180.804 227.249 180.577C226.52 180.426 226.293 180.099 225.639 179.798C223.778 178.968 222.571 181.432 222.093 182.74C221.817 183.469 221.917 184.978 221.54 185.481C220.308 187.166 222.798 190.134 224.432 190.939C225.187 191.065 225.916 191.115 226.57 191.517C227.123 191.844 227.727 191.291 228.28 191.668C228.607 191.895 230.016 193.957 230.644 192.825C230.896 192.347 231.952 191.392 232.531 192.071C233.235 192.901 233.335 193.228 234.568 193.102C235.624 192.976 235.272 193.58 235.926 193.605C238.114 193.655 236.68 194.535 237.158 195.541C237.309 195.843 237.887 195.29 238.013 195.214C238.692 194.837 239.296 195.34 239.648 195.818C239.824 196.044 240.83 196.271 240.553 196.522C239.774 197.226 239.723 197.729 240.905 197.528C241.61 197.402 242.716 198.258 243.546 198.408C244.703 198.635 244.804 198.987 246.086 198.735C247.595 198.459 245.91 199.842 246.891 200.622C247.268 200.923 247.721 202.332 247.344 202.659C246.137 203.765 247.998 203.061 248.4 203.137C250.865 203.614 249.356 201.125 251.946 201.426C253.606 201.628 254.612 199.616 256.297 200.018C259.24 200.722 260.799 201.25 262.685 203.564C263.012 203.967 263.213 204.394 263.44 204.872C263.767 205.551 264.521 205.3 264.471 206.28C264.446 207.211 265.427 207.261 266.055 207.789C267.967 208.871 268.143 207.965 269.803 207.513C270.733 207.261 272.066 207.865 273.299 207.588C274.43 207.337 275.311 207.84 276.342 207.991C277.121 208.116 277.524 206.909 278.404 206.884C278.731 206.884 280.969 209.097 280.642 207.261C280.416 205.953 281.497 206.884 281.749 207.563C282.428 209.273 284.641 205.4 285.572 206.306C286.2 206.934 286.905 206.431 286.93 207.462C286.93 208.242 289.017 207.337 289.394 207.312L292.111 207.437C292.89 207.462 293.393 206.783 294.324 206.809C295.556 206.834 297.669 204.369 298.851 203.791C299.53 203.438 300.41 202.105 301.29 202.508C301.944 202.81 304.61 202.282 305.415 201.879C306.823 201.2 306.597 200.068 306.597 198.836C306.798 198.434 306.823 197.755 307.402 197.755C307.477 198.056 308.005 198.761 308.207 199.037C308.433 199.364 311.35 197.805 312.08 197.704C313.639 197.478 313.086 198.484 314.041 198.559C314.997 198.61 316.732 196.07 317.914 195.592C318.518 195.365 319.071 196.019 319.574 195.692C320.103 195.365 320.429 194.611 320.882 194.158L321.586 193.278Z" fill="url(#paint4_linear_103)"/>
  <path fill-rule="evenodd" clip-rule="evenodd" d="M380.19 152.962C380.542 152.082 381.296 151.831 381.749 151.076C382.051 150.548 381.699 149.919 382.051 149.341C382.378 148.813 382.855 148.737 383.107 148.385C383.358 148.033 383.132 147.228 383.157 146.801C383.182 145.669 382.679 145.719 381.925 145.065C381.145 144.386 382.679 143.053 383.132 142.55C384.465 141.192 385.295 141.544 384.717 139.432C384.616 139.054 384.867 138.577 384.893 138.174C384.968 137.017 385.295 136.69 384.49 135.81C383.987 135.257 382.73 135.181 382.428 134.377C381.648 132.214 381.271 131.862 379.737 130.151C379.209 129.573 378.982 127.586 378.63 127.435C378.127 127.234 377.725 127.989 377.272 127.989C376.342 127.989 376.291 127.486 375.763 126.932C375.009 126.153 374.707 121.5 373.299 124.216C372.67 125.398 370.96 124.065 370.029 123.587C369.149 123.386 368.344 122.028 367.64 122.154C366.357 122.355 365.427 121.852 364.924 120.62C364.722 120.117 365.326 119.438 365.074 119.035C364.597 118.331 363.943 117.677 363.616 116.847C362.861 114.986 362.635 117.3 361.352 116.797C361.076 116.696 358.737 113.754 358.686 113.452C358.485 112.245 358.485 112.245 357.253 111.792C356.071 111.364 355.04 110.811 353.958 110.107C352.399 109.176 351.77 108.548 350.84 107.039C350.186 105.982 348.979 105.178 348.45 104.247C348.299 103.97 347.998 102.587 347.872 102.537C347.017 102.235 345.659 102.587 344.955 102.285C344.577 102.109 344.577 101.481 344.024 101.304C343.471 101.128 342.465 101.481 342.087 101.053C341.157 99.9715 338.516 101.933 338.466 99.041C337.686 98.6134 336.831 99.8206 336.202 98.2613C335.699 97.0038 335.322 96.4505 334.039 95.9475C333.109 95.6457 332.153 95.3188 331.424 94.69C330.77 94.1367 330.544 93.8098 329.613 93.9104C327.978 94.0864 327.4 90.6409 325.74 91.0433C323.753 91.496 324.332 90.6661 322.873 90.0122C321.288 89.308 320.182 91.496 318.371 89.2828C317.893 88.7044 318.12 87.7487 317.642 87.3211C317.239 86.969 315.202 86.4409 314.649 86.3906C313.97 85.9379 313.115 86.1139 312.939 85.1834C312.863 84.8564 312.536 84.3534 312.209 84.3534C311.782 84.3534 311.354 84.278 310.902 84.3283C310.223 84.4037 309.845 84.0265 309.569 83.4229C309.242 82.7438 308.965 82.2911 308.361 81.8133C307.833 81.5366 307.104 81.5366 306.702 81.1342C306.475 80.8828 306.375 80.4049 306.148 80.1283C305.117 78.8708 305.369 80.3798 304.991 81.0588C304.212 82.4672 305.947 82.2911 306.752 82.266C307.783 82.2408 307.179 82.8696 307.179 83.3977C307.179 83.8253 307.984 83.6744 307.984 84.2528C308.009 85.3091 307.029 84.4037 306.852 84.3534C306.5 84.2528 305.394 85.5858 304.589 85.5858C304.312 85.5858 302.929 85.0828 302.929 85.3091C302.929 85.787 302.728 86.4912 303.206 86.7427C304.413 87.3714 305.545 87.3714 306.827 87.1954C307.984 87.0445 309.72 85.963 310.7 87.2708C311.203 87.5223 311.782 87.3966 312.209 87.7235C313.014 88.3271 312.964 88.805 314.196 88.7798C315.781 88.7547 315.655 90.8673 317.189 90.8421C318.421 90.817 318.497 92.5272 319.729 92.8038C321.817 93.2565 323.577 94.4637 325.413 95.52C326.344 96.0481 327.073 96.2493 327.048 97.3811C327.023 98.2362 328.959 99.1919 329.638 99.3428C330.443 99.7955 331.675 99.4685 332.455 100.047C333.662 100.952 334.543 102.285 335.423 103.493C337.183 105.907 339.95 106.133 342.062 107.994C345.005 110.585 346.967 110.031 350.613 110.61C351.443 110.937 352.298 111.012 352.977 111.641C353.304 111.943 353.757 112.848 354.059 112.924C355.367 113.351 355.492 112.949 356.146 114.357C356.549 115.212 357.404 115.464 358.133 115.942C358.661 116.269 358.359 118.105 359.114 118.859L362.585 122.33C362.912 123.034 363.314 122.757 363.641 123.185C364.421 124.166 365.024 125.549 365.829 126.605C367.237 128.441 367.439 131.007 368.922 132.641C370.029 133.848 370.23 133.924 369.777 135.483C369.501 136.464 370.532 137.47 370.331 138.627C370.23 139.356 370.255 140.161 370.255 140.89C370.28 141.871 369.375 142.5 369.149 143.355C369.098 143.506 369.652 144.059 369.752 144.311C369.954 144.889 369.501 146.046 370.155 146.625C370.582 146.977 371.06 147.002 371.06 147.656C371.06 148.41 371.161 150.573 371.915 150.925C372.921 151.378 373.952 151.202 374.179 152.686C374.455 153.164 374.757 153.767 375.235 154.094C375.788 154.471 376.593 154.673 376.895 155.352C376.996 155.553 377.096 155.779 377.096 156.006C377.096 156.232 377.096 156.986 377.549 156.659C378.102 156.232 377.247 155.503 378.203 155.075C378.605 154.899 379.033 154.874 379.385 154.597C379.561 154.446 380.114 153.868 380.139 153.641L380.19 152.962Z" fill="url(#paint5_linear_103)"/>
  <path fill-rule="evenodd" clip-rule="evenodd" d="M281.124 81.8635C280.847 81.7629 280.017 78.9712 279.615 78.4179C278.382 78.1664 277.577 78.594 276.37 77.9149C276.295 77.3616 275.238 76.8586 276.446 77.0347C278.08 77.261 278.81 74.8215 280.646 75.1484C283.161 75.6011 283.815 72.4323 286.304 74.746C287.386 75.752 288.367 75.0478 289.373 75.8023C290.504 76.6323 291.284 76.3053 292.29 76.9089C292.366 77.4371 292.542 78.6191 292.944 78.9964C293.824 79.776 292.944 79.7006 292.919 80.6563C292.869 82.2156 293.271 82.9449 291.636 83.3976C291.309 83.4982 291.108 84.0264 290.655 84.0515C289.524 84.0767 289.951 83.5485 288.593 83.7246L284.77 84.2779C282.985 84.5294 282.431 83.4982 281.274 82.3665L281.124 81.8635Z" fill="url(#paint6_linear_103)"/>
  <path fill-rule="evenodd" clip-rule="evenodd" d="M203.257 186.035C202.528 185.255 201.849 180.728 203.735 181.13C204.49 181.281 205.37 180.929 205.747 181.734C206.728 183.746 209.218 182.69 210.677 183.696C213.091 185.381 213.971 186.513 212.915 189.405C212.487 190.587 211.783 193.353 210.274 193.378C210.123 192.649 210.425 191.492 209.545 191.14C208.237 190.587 206.477 191.769 205.999 189.581C205.672 188.172 203.635 187.644 203.559 186.613L203.257 186.035Z" fill="url(#paint7_linear_103)"/>
  <path fill-rule="evenodd" clip-rule="evenodd" d="M187.067 175.547C186.791 175.321 186.665 173.962 186.866 173.61C187.168 173.133 185.709 172.982 185.483 172.73C185.131 172.303 184.754 171.951 184.427 171.548C183.949 171.02 183.471 171.246 183.018 171.724C182.716 172.001 182.44 172.152 182.138 172.403C181.836 172.655 181.333 172.655 180.956 172.705C180.453 172.806 180.176 172.78 179.95 173.309C179.975 173.912 179.799 174.667 179.9 175.22C179.95 175.446 180.076 176.855 180.201 176.88C180.931 177.056 181.082 176.779 181.585 177.433C182.113 178.137 182.918 178.766 183.597 179.37C184.1 179.822 184.728 180.426 185.282 179.697C185.76 179.093 188.149 179.621 187.193 178.515C186.816 178.062 187.47 177.609 187.621 177.207C187.897 176.528 187.746 176.452 187.269 175.974L187.067 175.547Z" fill="url(#paint8_linear_103)"/>

  <ellipse class="dot" opacity="0.3" cx="85.0535" cy="192.269" rx="27.2154" ry="27.2154" fill="url(#paint9_radial_103)"/>
  <ellipse class="dot" opacity="0.4" cx="85.0535" cy="192.269" rx="12.2908" ry="12.2908" fill="url(#paint10_radial_103)"/>
  <circle class="dot" cx="84.7627" cy="191.978" r="19" fill="url(#paint11_radial_103)"/>
  <circle class="dot" cx="84.7627" cy="191.978" r="5" fill="white"/>
  <path class="dashline" d="M85.0535 192.269L85.0535 108.867" stroke="url(#paint12_linear_103)" stroke-dasharray="2 2"/>
  <ellipse cx="85.0535" cy="108.867" rx="1.31687" ry="1.31687" fill="#FFA337"/>
  <path class="city" d="M94.7469 100.649C94.7469 99.5443 95.6423 98.6488 96.7469 98.6488H165.125C166.23 98.6488 167.125 99.5443 167.125 100.649V116.649C167.125 117.753 166.23 118.649 165.125 118.649H96.7469C95.6423 118.649 94.7469 117.753 94.7469 116.649V113.988C94.7469 113.427 94.5116 112.893 94.0983 112.514L91.4903 110.123C90.6256 109.33 90.6256 107.967 91.4903 107.175L94.0983 104.784C94.5116 104.405 94.7469 103.87 94.7469 103.31V100.649Z" fill="url(#paint13_linear_103)"/>
  <path class="city" d="M108.884 113L108.872 107.96L106.4 112.112H105.524L103.064 108.068V113H101.24V104.6H102.848L105.992 109.82L109.088 104.6H110.684L110.708 113H108.884ZM116.733 112.688C116.549 112.824 116.321 112.928 116.049 113C115.785 113.064 115.505 113.096 115.209 113.096C114.441 113.096 113.845 112.9 113.421 112.508C113.005 112.116 112.797 111.54 112.797 110.78V108.128H111.801V106.688H112.797V105.116H114.669V106.688H116.277V108.128H114.669V110.756C114.669 111.028 114.737 111.24 114.873 111.392C115.017 111.536 115.217 111.608 115.473 111.608C115.769 111.608 116.021 111.528 116.229 111.368L116.733 112.688ZM129.018 104.6V113H127.074V109.556H123.258V113H121.314V104.6H123.258V107.912H127.074V104.6H129.018ZM133.478 106.448C134.478 106.448 135.246 106.688 135.782 107.168C136.318 107.64 136.586 108.356 136.586 109.316V113H134.834V112.196C134.482 112.796 133.826 113.096 132.866 113.096C132.37 113.096 131.938 113.012 131.57 112.844C131.21 112.676 130.934 112.444 130.742 112.148C130.55 111.852 130.454 111.516 130.454 111.14C130.454 110.54 130.678 110.068 131.126 109.724C131.582 109.38 132.282 109.208 133.226 109.208H134.714C134.714 108.8 134.59 108.488 134.342 108.272C134.094 108.048 133.722 107.936 133.226 107.936C132.882 107.936 132.542 107.992 132.206 108.104C131.878 108.208 131.598 108.352 131.366 108.536L130.694 107.228C131.046 106.98 131.466 106.788 131.954 106.652C132.45 106.516 132.958 106.448 133.478 106.448ZM133.334 111.836C133.654 111.836 133.938 111.764 134.186 111.62C134.434 111.468 134.61 111.248 134.714 110.96V110.3H133.43C132.662 110.3 132.278 110.552 132.278 111.056C132.278 111.296 132.37 111.488 132.554 111.632C132.746 111.768 133.006 111.836 133.334 111.836ZM145.01 106.544V111.92C145.01 113.104 144.702 113.984 144.086 114.56C143.47 115.136 142.57 115.424 141.386 115.424C140.762 115.424 140.17 115.348 139.61 115.196C139.05 115.044 138.586 114.824 138.218 114.536L138.962 113.192C139.234 113.416 139.578 113.592 139.994 113.72C140.41 113.856 140.826 113.924 141.242 113.924C141.89 113.924 142.366 113.776 142.67 113.48C142.982 113.192 143.138 112.752 143.138 112.16V111.884C142.65 112.42 141.97 112.688 141.098 112.688C140.506 112.688 139.962 112.56 139.466 112.304C138.978 112.04 138.59 111.672 138.302 111.2C138.014 110.728 137.87 110.184 137.87 109.568C137.87 108.952 138.014 108.408 138.302 107.936C138.59 107.464 138.978 107.1 139.466 106.844C139.962 106.58 140.506 106.448 141.098 106.448C142.034 106.448 142.746 106.756 143.234 107.372V106.544H145.01ZM141.47 111.152C141.966 111.152 142.37 111.008 142.682 110.72C143.002 110.424 143.162 110.04 143.162 109.568C143.162 109.096 143.002 108.716 142.682 108.428C142.37 108.132 141.966 107.984 141.47 107.984C140.974 107.984 140.566 108.132 140.246 108.428C139.926 108.716 139.766 109.096 139.766 109.568C139.766 110.04 139.926 110.424 140.246 110.72C140.566 111.008 140.974 111.152 141.47 111.152ZM153.077 109.796C153.077 109.82 153.065 109.988 153.041 110.3H148.157C148.245 110.7 148.453 111.016 148.781 111.248C149.109 111.48 149.517 111.596 150.005 111.596C150.341 111.596 150.637 111.548 150.893 111.452C151.157 111.348 151.401 111.188 151.625 110.972L152.621 112.052C152.013 112.748 151.125 113.096 149.957 113.096C149.229 113.096 148.585 112.956 148.025 112.676C147.465 112.388 147.033 111.992 146.729 111.488C146.425 110.984 146.273 110.412 146.273 109.772C146.273 109.14 146.421 108.572 146.717 108.068C147.021 107.556 147.433 107.16 147.953 106.88C148.481 106.592 149.069 106.448 149.717 106.448C150.349 106.448 150.921 106.584 151.433 106.856C151.945 107.128 152.345 107.52 152.633 108.032C152.929 108.536 153.077 109.124 153.077 109.796ZM149.729 107.864C149.305 107.864 148.949 107.984 148.661 108.224C148.373 108.464 148.197 108.792 148.133 109.208H151.313C151.249 108.8 151.073 108.476 150.785 108.236C150.497 107.988 150.145 107.864 149.729 107.864ZM158.247 106.448C159.047 106.448 159.691 106.688 160.179 107.168C160.675 107.648 160.923 108.36 160.923 109.304V113H159.051V109.592C159.051 109.08 158.939 108.7 158.715 108.452C158.491 108.196 158.167 108.068 157.743 108.068C157.271 108.068 156.895 108.216 156.615 108.512C156.335 108.8 156.195 109.232 156.195 109.808V113H154.323V106.544H156.111V107.3C156.359 107.028 156.667 106.82 157.035 106.676C157.403 106.524 157.807 106.448 158.247 106.448Z" fill="white"/>
  <ellipse  class="dot" style="animation-delay: 0.7s" opacity="0.3" cx="182.941" cy="313.86" rx="25.0206" ry="25.0206" fill="url(#paint14_radial_103)"/>
  <circle class="dot" style="animation-delay: 0.7s"  opacity="0.4" cx="182.941" cy="313.86" r="12.2908" fill="url(#paint15_radial_103)"/>
  <circle class="dot" style="animation-delay: 0.7s"  cx="182.65" cy="313.569" r="19" fill="url(#paint16_radial_103)"/>
  <circle class="dot" style="animation-delay: 0.7s"  cx="182.65" cy="313.569" r="5" fill="white"/>
  <path class="dashline" d="M182.941 313.86L182.941 269.306" stroke="url(#paint17_linear_103)" stroke-dasharray="2 2"/>
  <path class="city" style="animation-delay: 0.5s" d="M190.98 261.185C190.98 260.081 191.876 259.185 192.98 259.185H283.5C284.605 259.185 285.5 260.081 285.5 261.185V277.185C285.5 278.29 284.605 279.185 283.5 279.185H192.98C191.876 279.185 190.98 278.29 190.98 277.185V274.587C190.98 273.99 190.713 273.425 190.253 273.045L187.445 270.728C186.475 269.928 186.475 268.442 187.445 267.642L190.253 265.326C190.713 264.946 190.98 264.38 190.98 263.783V261.185Z" fill="url(#paint18_linear_103)"/>
  <path class="city" style="animation-delay: 0.5s" d="M200.085 264.6C200.829 264.6 201.473 264.724 202.017 264.972C202.569 265.22 202.993 265.572 203.289 266.028C203.585 266.484 203.733 267.024 203.733 267.648C203.733 268.264 203.585 268.804 203.289 269.268C202.993 269.724 202.569 270.076 202.017 270.324C201.473 270.564 200.829 270.684 200.085 270.684H198.393V273H196.449V264.6H200.085ZM199.977 269.1C200.561 269.1 201.005 268.976 201.309 268.728C201.613 268.472 201.765 268.112 201.765 267.648C201.765 267.176 201.613 266.816 201.309 266.568C201.005 266.312 200.561 266.184 199.977 266.184H198.393V269.1H199.977ZM208.049 273.096C207.369 273.096 206.757 272.956 206.213 272.676C205.677 272.388 205.257 271.992 204.953 271.488C204.649 270.984 204.497 270.412 204.497 269.772C204.497 269.132 204.649 268.56 204.953 268.056C205.257 267.552 205.677 267.16 206.213 266.88C206.757 266.592 207.369 266.448 208.049 266.448C208.729 266.448 209.337 266.592 209.873 266.88C210.409 267.16 210.829 267.552 211.133 268.056C211.437 268.56 211.589 269.132 211.589 269.772C211.589 270.412 211.437 270.984 211.133 271.488C210.829 271.992 210.409 272.388 209.873 272.676C209.337 272.956 208.729 273.096 208.049 273.096ZM208.049 271.56C208.529 271.56 208.921 271.4 209.225 271.08C209.537 270.752 209.693 270.316 209.693 269.772C209.693 269.228 209.537 268.796 209.225 268.476C208.921 268.148 208.529 267.984 208.049 267.984C207.569 267.984 207.173 268.148 206.861 268.476C206.549 268.796 206.393 269.228 206.393 269.772C206.393 270.316 206.549 270.752 206.861 271.08C207.173 271.4 207.569 271.56 208.049 271.56ZM214.629 267.396C214.853 267.084 215.153 266.848 215.529 266.688C215.913 266.528 216.353 266.448 216.849 266.448V268.176C216.641 268.16 216.501 268.152 216.429 268.152C215.893 268.152 215.473 268.304 215.169 268.608C214.865 268.904 214.713 269.352 214.713 269.952V273H212.841V266.544H214.629V267.396ZM222.348 272.688C222.164 272.824 221.936 272.928 221.664 273C221.4 273.064 221.12 273.096 220.824 273.096C220.056 273.096 219.46 272.9 219.036 272.508C218.62 272.116 218.412 271.54 218.412 270.78V268.128H217.416V266.688H218.412V265.116H220.284V266.688H221.892V268.128H220.284V270.756C220.284 271.028 220.352 271.24 220.488 271.392C220.632 271.536 220.832 271.608 221.088 271.608C221.384 271.608 221.636 271.528 221.844 271.368L222.348 272.688ZM234.574 273L234.562 267.96L232.09 272.112H231.214L228.754 268.068V273H226.93V264.6H228.538L231.682 269.82L234.778 264.6H236.374L236.398 273H234.574ZM241.331 273.096C240.651 273.096 240.039 272.956 239.495 272.676C238.959 272.388 238.539 271.992 238.235 271.488C237.931 270.984 237.779 270.412 237.779 269.772C237.779 269.132 237.931 268.56 238.235 268.056C238.539 267.552 238.959 267.16 239.495 266.88C240.039 266.592 240.651 266.448 241.331 266.448C242.011 266.448 242.619 266.592 243.155 266.88C243.691 267.16 244.111 267.552 244.415 268.056C244.719 268.56 244.871 269.132 244.871 269.772C244.871 270.412 244.719 270.984 244.415 271.488C244.111 271.992 243.691 272.388 243.155 272.676C242.619 272.956 242.011 273.096 241.331 273.096ZM241.331 271.56C241.811 271.56 242.203 271.4 242.507 271.08C242.819 270.752 242.975 270.316 242.975 269.772C242.975 269.228 242.819 268.796 242.507 268.476C242.203 268.148 241.811 267.984 241.331 267.984C240.851 267.984 240.455 268.148 240.143 268.476C239.831 268.796 239.675 269.228 239.675 269.772C239.675 270.316 239.831 270.752 240.143 271.08C240.455 271.4 240.851 271.56 241.331 271.56ZM247.91 267.396C248.134 267.084 248.434 266.848 248.81 266.688C249.194 266.528 249.634 266.448 250.13 266.448V268.176C249.922 268.16 249.782 268.152 249.71 268.152C249.174 268.152 248.754 268.304 248.45 268.608C248.146 268.904 247.994 269.352 247.994 269.952V273H246.122V266.544H247.91V267.396ZM257.508 269.796C257.508 269.82 257.496 269.988 257.472 270.3H252.588C252.676 270.7 252.884 271.016 253.212 271.248C253.54 271.48 253.948 271.596 254.436 271.596C254.772 271.596 255.068 271.548 255.324 271.452C255.588 271.348 255.832 271.188 256.056 270.972L257.052 272.052C256.444 272.748 255.556 273.096 254.388 273.096C253.66 273.096 253.016 272.956 252.456 272.676C251.896 272.388 251.464 271.992 251.16 271.488C250.856 270.984 250.704 270.412 250.704 269.772C250.704 269.14 250.852 268.572 251.148 268.068C251.452 267.556 251.864 267.16 252.384 266.88C252.912 266.592 253.5 266.448 254.148 266.448C254.78 266.448 255.352 266.584 255.864 266.856C256.376 267.128 256.776 267.52 257.064 268.032C257.36 268.536 257.508 269.124 257.508 269.796ZM254.16 267.864C253.736 267.864 253.38 267.984 253.092 268.224C252.804 268.464 252.628 268.792 252.564 269.208H255.744C255.68 268.8 255.504 268.476 255.216 268.236C254.928 267.988 254.576 267.864 254.16 267.864ZM260.927 273.096C260.391 273.096 259.867 273.032 259.355 272.904C258.843 272.768 258.435 272.6 258.131 272.4L258.755 271.056C259.043 271.24 259.391 271.392 259.799 271.512C260.207 271.624 260.607 271.68 260.999 271.68C261.791 271.68 262.187 271.484 262.187 271.092C262.187 270.908 262.079 270.776 261.863 270.696C261.647 270.616 261.315 270.548 260.867 270.492C260.339 270.412 259.903 270.32 259.559 270.216C259.215 270.112 258.915 269.928 258.659 269.664C258.411 269.4 258.287 269.024 258.287 268.536C258.287 268.128 258.403 267.768 258.635 267.456C258.875 267.136 259.219 266.888 259.667 266.712C260.123 266.536 260.659 266.448 261.275 266.448C261.731 266.448 262.183 266.5 262.631 266.604C263.087 266.7 263.463 266.836 263.759 267.012L263.135 268.344C262.567 268.024 261.947 267.864 261.275 267.864C260.875 267.864 260.575 267.92 260.375 268.032C260.175 268.144 260.075 268.288 260.075 268.464C260.075 268.664 260.183 268.804 260.399 268.884C260.615 268.964 260.959 269.04 261.431 269.112C261.959 269.2 262.391 269.296 262.727 269.4C263.063 269.496 263.355 269.676 263.603 269.94C263.851 270.204 263.975 270.572 263.975 271.044C263.975 271.444 263.855 271.8 263.615 272.112C263.375 272.424 263.023 272.668 262.559 272.844C262.103 273.012 261.559 273.096 260.927 273.096ZM268.946 266.448C269.546 266.448 270.09 266.588 270.578 266.868C271.074 267.14 271.462 267.528 271.742 268.032C272.022 268.528 272.162 269.108 272.162 269.772C272.162 270.436 272.022 271.02 271.742 271.524C271.462 272.02 271.074 272.408 270.578 272.688C270.09 272.96 269.546 273.096 268.946 273.096C268.058 273.096 267.382 272.816 266.918 272.256V273H265.13V264.096H267.002V267.228C267.474 266.708 268.122 266.448 268.946 266.448ZM268.622 271.56C269.102 271.56 269.494 271.4 269.798 271.08C270.11 270.752 270.266 270.316 270.266 269.772C270.266 269.228 270.11 268.796 269.798 268.476C269.494 268.148 269.102 267.984 268.622 267.984C268.142 267.984 267.746 268.148 267.434 268.476C267.13 268.796 266.978 269.228 266.978 269.772C266.978 270.316 267.13 270.752 267.434 271.08C267.746 271.4 268.142 271.56 268.622 271.56ZM279.647 266.544L276.731 273.396C276.435 274.14 276.067 274.664 275.627 274.968C275.195 275.272 274.671 275.424 274.055 275.424C273.719 275.424 273.387 275.372 273.059 275.268C272.731 275.164 272.463 275.02 272.255 274.836L272.939 273.504C273.083 273.632 273.247 273.732 273.431 273.804C273.623 273.876 273.811 273.912 273.995 273.912C274.251 273.912 274.459 273.848 274.619 273.72C274.779 273.6 274.923 273.396 275.051 273.108L275.075 273.048L272.279 266.544H274.211L276.023 270.924L277.847 266.544H279.647Z" fill="white"/>
  <ellipse class="dot" style="animation-delay: 0.3s" cx="182.941" cy="269.086" rx="1.31687" ry="1.31688" fill="#FFA337"/>
  <circle class="dot" style="animation-delay: 0.3s" cx="182.941" cy="269.086" r="0.877914" fill="#C4C4C4"/>
  <ellipse class="dot" style="animation-delay: 0.3s" opacity="0.3" cx="176.796" cy="221.679" rx="25.8985" ry="25.8985" fill="url(#paint19_radial_103)"/>
  <ellipse class="dot" style="animation-delay: 0.3s" opacity="0.4" cx="176.796" cy="221.679" rx="12.2908" ry="12.2908" fill="url(#paint20_radial_103)"/>
  <circle class="dot" style="animation-delay: 0.3s" cx="176.505" cy="221.388" r="19" fill="url(#paint21_radial_103)"/>
  <circle class="dot" style="animation-delay: 0.3s" cx="176.505" cy="221.388" r="5" fill="white"/>
  <path class="dashline" d="M176.796 221.679L176.796 151.446" stroke="url(#paint22_linear_103)" stroke-dasharray="2 2"/>
  <path class="city" style="animation-delay: 0.3s" d="M185.274 143.545C185.274 142.44 186.169 141.545 187.274 141.545H217.868C218.973 141.545 219.868 142.44 219.868 143.545V159.545C219.868 160.649 218.973 161.545 217.868 161.545H187.274C186.169 161.545 185.274 160.649 185.274 159.545V156.947C185.274 156.35 185.007 155.784 184.546 155.404L181.738 153.087C180.769 152.287 180.769 150.802 181.738 150.002L184.546 147.685C185.007 147.305 185.274 146.739 185.274 146.142V143.545Z" fill="url(#paint23_linear_103)"/>
  <path class="city" style="animation-delay: 0.3s" d="M192.316 147.6H194.26V154.416H198.472V156H192.316V147.6ZM202.101 149.448C203.101 149.448 203.869 149.688 204.405 150.168C204.941 150.64 205.209 151.356 205.209 152.316V156H203.457V155.196C203.105 155.796 202.449 156.096 201.489 156.096C200.993 156.096 200.561 156.012 200.193 155.844C199.833 155.676 199.557 155.444 199.365 155.148C199.173 154.852 199.077 154.516 199.077 154.14C199.077 153.54 199.301 153.068 199.749 152.724C200.205 152.38 200.905 152.208 201.849 152.208H203.337C203.337 151.8 203.213 151.488 202.965 151.272C202.717 151.048 202.345 150.936 201.849 150.936C201.505 150.936 201.165 150.992 200.829 151.104C200.501 151.208 200.221 151.352 199.989 151.536L199.317 150.228C199.669 149.98 200.089 149.788 200.577 149.652C201.073 149.516 201.581 149.448 202.101 149.448ZM201.957 154.836C202.277 154.836 202.561 154.764 202.809 154.62C203.057 154.468 203.233 154.248 203.337 153.96V153.3H202.053C201.285 153.3 200.901 153.552 200.901 154.056C200.901 154.296 200.993 154.488 201.177 154.632C201.369 154.768 201.629 154.836 201.957 154.836ZM213.297 152.796C213.297 152.82 213.285 152.988 213.261 153.3H208.377C208.465 153.7 208.673 154.016 209.001 154.248C209.329 154.48 209.737 154.596 210.225 154.596C210.561 154.596 210.857 154.548 211.113 154.452C211.377 154.348 211.621 154.188 211.845 153.972L212.841 155.052C212.233 155.748 211.345 156.096 210.177 156.096C209.449 156.096 208.805 155.956 208.245 155.676C207.685 155.388 207.253 154.992 206.949 154.488C206.645 153.984 206.493 153.412 206.493 152.772C206.493 152.14 206.641 151.572 206.937 151.068C207.241 150.556 207.653 150.16 208.173 149.88C208.701 149.592 209.289 149.448 209.937 149.448C210.569 149.448 211.141 149.584 211.653 149.856C212.165 150.128 212.565 150.52 212.853 151.032C213.149 151.536 213.297 152.124 213.297 152.796ZM209.949 150.864C209.525 150.864 209.169 150.984 208.881 151.224C208.593 151.464 208.417 151.792 208.353 152.208H211.533C211.469 151.8 211.293 151.476 211.005 151.236C210.717 150.988 210.365 150.864 209.949 150.864Z" fill="white"/>
  <ellipse cx="176.796" cy="151.446" rx="1.31687" ry="1.31687" fill="#FFA337"/>
  <defs>
    <linearGradient id="paint0_linear_103" x1="72.0806" y1="70.4341" x2="77.5538" y2="356.423" gradientUnits="userSpaceOnUse">
      <stop stop-color="#293656"/>
      <stop offset="0.0001" stop-color="#384157"/>
      <stop offset="0.867708" stop-color="#4D525D"/>
    </linearGradient>
    <linearGradient id="paint1_linear_103" x1="312.047" y1="322.868" x2="312.398" y2="339.754" gradientUnits="userSpaceOnUse">
      <stop stop-color="#293656"/>
      <stop offset="0.0001" stop-color="#384157"/>
      <stop offset="0.867708" stop-color="#4D525D"/>
    </linearGradient>
    <linearGradient id="paint2_linear_103" x1="300.389" y1="310.568" x2="300.611" y2="323.487" gradientUnits="userSpaceOnUse">
      <stop stop-color="#293656"/>
      <stop offset="0.0001" stop-color="#384157"/>
      <stop offset="0.867708" stop-color="#4D525D"/>
    </linearGradient>
    <linearGradient id="paint3_linear_103" x1="287.031" y1="306.146" x2="287.362" y2="317.264" gradientUnits="userSpaceOnUse">
      <stop stop-color="#293656"/>
      <stop offset="0.0001" stop-color="#384157"/>
      <stop offset="0.867708" stop-color="#4D525D"/>
    </linearGradient>
    <linearGradient id="paint4_linear_103" x1="263.69" y1="128.925" x2="264.723" y2="208.057" gradientUnits="userSpaceOnUse">
      <stop stop-color="#293656"/>
      <stop offset="0.0001" stop-color="#384157"/>
      <stop offset="0.867708" stop-color="#4D525D"/>
    </linearGradient>
    <linearGradient id="paint5_linear_103" x1="327.914" y1="75.4089" x2="329.754" y2="156.464" gradientUnits="userSpaceOnUse">
      <stop stop-color="#293656"/>
      <stop offset="0.0001" stop-color="#384157"/>
      <stop offset="0.867708" stop-color="#4D525D"/>
    </linearGradient>
    <linearGradient id="paint6_linear_103" x1="281.192" y1="73.3191" x2="281.35" y2="84.282" gradientUnits="userSpaceOnUse">
      <stop stop-color="#293656"/>
      <stop offset="0.0001" stop-color="#384157"/>
      <stop offset="0.867708" stop-color="#4D525D"/>
    </linearGradient>
    <linearGradient id="paint7_linear_103" x1="205.818" y1="180.431" x2="206.171" y2="193.331" gradientUnits="userSpaceOnUse">
      <stop stop-color="#293656"/>
      <stop offset="0.0001" stop-color="#384157"/>
      <stop offset="0.867708" stop-color="#4D525D"/>
    </linearGradient>
    <linearGradient id="paint8_linear_103" x1="182.273" y1="170.761" x2="182.522" y2="180.003" gradientUnits="userSpaceOnUse">
      <stop stop-color="#293656"/>
      <stop offset="0.0001" stop-color="#384157"/>
      <stop offset="0.867708" stop-color="#4D525D"/>
    </linearGradient>
    <radialGradient id="paint9_radial_103" cx="0" cy="0" r="1" gradientUnits="userSpaceOnUse" gradientTransform="translate(85.0535 192.269) rotate(90) scale(33.2416)">
      <stop stop-color="#886BFF"/>
      <stop offset="1" stop-color="#EFCFFF" stop-opacity="0"/>
    </radialGradient>
    <radialGradient id="paint10_radial_103" cx="0" cy="0" r="1" gradientUnits="userSpaceOnUse" gradientTransform="translate(85.0535 192.269) rotate(90) scale(17.0347)">
      <stop stop-color="#4A63E7" stop-opacity="0.5"/>
      <stop offset="1" stop-color="#E1CFFF" stop-opacity="0"/>
    </radialGradient>
    <radialGradient id="paint11_radial_103" cx="0" cy="0" r="1" gradientUnits="userSpaceOnUse" gradientTransform="translate(84.7627 191.978) rotate(90) scale(19)">
      <stop stop-color="#8289FF" stop-opacity="0"/>
      <stop offset="1" stop-color="#C4BFFF" stop-opacity="0.1"/>
      <stop offset="1" stop-color="#C4BFFF" stop-opacity="0.15"/>
    </radialGradient>
    <linearGradient id="paint12_linear_103" x1="85.5535" y1="108.867" x2="85.5535" y2="192.269" gradientUnits="userSpaceOnUse">
      <stop stop-color="#FFA337"/>
      <stop offset="0.393173" stop-color="#2AF6FF"/>
    </linearGradient>
    <linearGradient id="paint13_linear_103" x1="89.882" y1="82.7029" x2="156.909" y2="116.757" gradientUnits="userSpaceOnUse">
      <stop offset="0.135842" stop-color="#FFA337" stop-opacity="0.6"/>
      <stop offset="0.818046" stop-color="#3717B4" stop-opacity="0.5"/>
    </linearGradient>
    <radialGradient id="paint14_radial_103" cx="0" cy="0" r="1" gradientUnits="userSpaceOnUse" gradientTransform="translate(182.941 313.86) rotate(90) scale(34.6776)">
      <stop stop-color="#5359E8"/>
      <stop offset="1" stop-color="#EFCFFF" stop-opacity="0"/>
    </radialGradient>
    <radialGradient id="paint15_radial_103" cx="0" cy="0" r="1" gradientUnits="userSpaceOnUse" gradientTransform="translate(182.941 313.86) rotate(90) scale(17.0346)">
      <stop stop-color="#4A63E7" stop-opacity="0.5"/>
      <stop offset="1" stop-color="#E1CFFF" stop-opacity="0"/>
    </radialGradient>
    <radialGradient id="paint16_radial_103" cx="0" cy="0" r="1" gradientUnits="userSpaceOnUse" gradientTransform="translate(182.65 313.569) rotate(90) scale(19)">
      <stop stop-color="#8289FF" stop-opacity="0"/>
      <stop offset="1" stop-color="#C4BFFF" stop-opacity="0.1"/>
      <stop offset="1" stop-color="#C4BFFF" stop-opacity="0.15"/>
    </radialGradient>
    <linearGradient id="paint17_linear_103" x1="183.441" y1="261.185" x2="183.441" y2="313.86" gradientUnits="userSpaceOnUse">
      <stop stop-color="#FFA337"/>
      <stop offset="1" stop-color="#2AF2FF"/>
    </linearGradient>
    <linearGradient id="paint18_linear_103" x1="185.575" y1="243.239" x2="267.589" y2="338.921" gradientUnits="userSpaceOnUse">
      <stop offset="0.135842" stop-color="#FFA337" stop-opacity="0.6"/>
      <stop offset="0.818046" stop-color="#3717B4" stop-opacity="0.5"/>
    </linearGradient>
    <radialGradient id="paint19_radial_103" cx="0" cy="0" r="1" gradientUnits="userSpaceOnUse" gradientTransform="translate(176.796 221.679) rotate(90) scale(35.8944)">
      <stop stop-color="#8C53E8"/>
      <stop offset="1" stop-color="#EFCFFF" stop-opacity="0"/>
    </radialGradient>
    <radialGradient id="paint20_radial_103" cx="0" cy="0" r="1" gradientUnits="userSpaceOnUse" gradientTransform="translate(176.796 221.679) rotate(90) scale(17.0346)">
      <stop stop-color="#4A63E7" stop-opacity="0.5"/>
      <stop offset="1" stop-color="#E1CFFF" stop-opacity="0"/>
    </radialGradient>
    <radialGradient id="paint21_radial_103" cx="0" cy="0" r="1" gradientUnits="userSpaceOnUse" gradientTransform="translate(176.505 221.388) rotate(90) scale(19)">
      <stop stop-color="#8289FF" stop-opacity="0"/>
      <stop offset="1" stop-color="#C4BFFF" stop-opacity="0.1"/>
      <stop offset="1" stop-color="#C4BFFF" stop-opacity="0.15"/>
    </radialGradient>
    <linearGradient id="paint22_linear_103" x1="95103.7" y1="138.643" x2="95103.7" y2="221.677" gradientUnits="userSpaceOnUse">
      <stop stop-color="#FFA337"/>
      <stop offset="1" stop-color="#2AF2FF"/>
    </linearGradient>
    <linearGradient id="paint23_linear_103" x1="179.868" y1="125.599" x2="253.785" y2="170.856" gradientUnits="userSpaceOnUse">
      <stop offset="0.135842" stop-color="#FFA337" stop-opacity="0.6"/>
      <stop offset="0.818046" stop-color="#3717B4" stop-opacity="0.5"/>
    </linearGradient>
  </defs>




  <style>
    <!-- .path {
      stroke-dasharray: 1000;
      stroke-dashoffset: 1000;
      animation: dash 20s linear infinite;
  }

  @keyframes dash {
      to {
          stroke-dashoffset: -1010;
      }
  } -->

  .dot {
       animation: opacitydot 5s linear infinite;
  }
  @keyframes opacitydot {
      0% {
          opacity: 0;
      }

      50% {
          opacity: 0.3;
      }

      100% {
          opacity: 0;
      }
  }


  .dashline {
      stroke-dasharray: 5;
      stroke-dashoffset: 5;
      animation: dash 10s linear infinite;
  }
  @keyframes dash {
      to {
          stroke-dashoffset: -210;
      }
  }

  .city {
      animation: city 3s ease-in-out infinite;
  }
  
   @keyframes city {
      0% {transform:translateX(0)}
      50% {transform:translateX(10px)}
      100% {transform:translateX(0)}
  }
  
  </style>


</svg>
