<svg width="1545" height="814" viewBox="0 0 1545 814" fill="none" xmlns="http://www.w3.org/2000/svg">
    <path class="contline"
        d="M-435.607 136.539L-424.822 145.755L-441 156.995M-412.687 239.946C-405.048 244.217 -397.184 249.613 -392.465 256.357C-387.747 263.101 -386.848 272.317 -385.275 276.589C-387.522 289.402 -398.082 296.596 -405.497 294.123C-408.193 293.224 -411.564 293.224 -414.036 291.875M0.986096 125.973C-1.48561 127.322 -4.18181 130.244 -4.40651 132.492C-4.40651 134.515 -1.48466 137.438 0.537646 138.786C2.78465 140.135 5.92928 140.81 9.07509 141.035C18.0631 141.709 26.8274 141.035 32.445 132.717C25.0298 129.12 17.6146 125.748 12.6711 123.275C6.60422 124.399 3.2331 124.4 0.986096 125.973ZM11.5478 81.6878C13.3454 81.2382 14.469 77.4164 15.8172 75.1684C14.6937 64.1533 3.45869 55.1611 -8.00106 56.7347C-10.2481 56.9595 -14.293 60.7809 -14.0683 61.4553C-11.1472 68.4241 -8.22655 76.2927 -3.28313 81.6878C-0.811424 84.1606 6.60435 82.587 11.5478 81.6878ZM328.376 176.328C278.043 165.763 230.856 147.778 184.568 127.546C141.875 108.888 105.248 98.3229 77.3849 147.554C75.812 150.027 73.5644 152.724 71.0927 153.848C29.523 173.181 -3.05848 203.079 -30.0226 239.497C-35.8648 247.365 -56.0873 247.815 -63.053 241.071C-80.355 224.66 -97.2085 208.025 -114.51 191.614C-123.723 182.847 -127.318 171.382 -126.644 159.243C-126.194 147.554 -125.519 135.415 -123.048 123.725C-118.329 101.245 -127.766 82.3623 -137.204 64.1535C-144.619 49.7663 -162.37 50.6651 -176.527 46.8435C-193.604 42.1227 -210.008 34.48 -226.861 28.4104C-244.612 22.116 -261.913 22.5651 -278.99 31.3323C-310.673 47.5178 -340.109 67.9748 -375.836 75.8428C-379.207 76.742 -382.803 85.2845 -382.578 90.0053C-382.354 95.1757 -378.982 102.144 -374.713 104.617C-364.601 110.462 -353.366 115.407 -342.356 118.555C-327.301 122.826 -312.92 128.221 -305.955 142.608C-292.248 170.708 -268.879 179.7 -239.668 179.026C-221.691 178.576 -203.941 177.452 -185.965 177.902C-181.921 177.902 -178.1 183.073 -174.505 185.77C-176.303 187.793 -178.55 191.615 -180.348 191.39C-214.053 188.917 -241.466 213.869 -275.171 212.521C-282.361 212.071 -285.732 220.164 -281.238 225.559C-261.24 248.264 -246.859 273.217 -239.444 302.891C-235.849 317.278 -213.153 321.549 -202.143 311.208C-195.627 305.138 -190.233 297.72 -184.841 290.976C-178.998 283.783 -172.258 277.713 -162.82 282.659C-139.002 295.247 -114.959 307.386 -92.7136 322.223C-77.6587 332.339 -62.8283 340.882 -44.8523 345.602C-16.0905 353.245 12.2219 363.137 40.9836 371.454C58.0609 376.4 74.688 382.244 90.8665 390.337C124.347 406.972 152.66 425.631 161.648 465.42C164.794 479.583 174.68 492.172 180.747 505.66C185.915 516.45 190.634 527.241 195.353 538.256C200.072 549.271 198.274 558.488 188.612 559.836C157.379 564.108 143.672 586.587 130.864 610.866C122.101 627.501 129.291 641.214 146.368 642.787C173.782 645.26 199.397 637.842 225.687 632.222C256.471 625.253 285.233 630.199 305.007 659.198C309.951 666.616 315.793 673.361 321.635 680.329C333.319 693.593 365.342 704.088 393.943 703.086L383.202 311.208L387.922 197.234C368.148 188.467 348.599 180.824 328.376 176.328ZM-116.757 432.375C-119.229 433.049 -122.599 433.499 -123.948 435.297C-138.328 453.956 -147.766 474.413 -146.418 498.241C-146.193 503.187 -141.474 508.358 -137.879 512.404C-136.531 513.753 -132.486 512.853 -129.565 512.853C-103.949 498.916 -94.2873 473.064 -103.275 440.018C-105.073 433.499 -110.016 430.801 -116.757 432.375ZM-345.052 22.1154C-345.502 19.193 -345.052 15.8211 -346.625 13.7979C-358.31 -1.93805 -374.938 -2.38738 -389.319 12.6742C-391.117 14.4726 -392.914 18.5187 -392.24 20.0923C-389.993 24.1387 -386.398 30.2087 -383.252 30.4335C-372.466 30.8831 -361.457 29.309 -350.446 27.7354C-348.424 27.2858 -346.85 23.9138 -345.052 22.1154ZM-353.591 569.278C-358.759 575.573 -362.805 584.115 -364.153 592.433C-364.827 596.254 -358.984 601.874 -355.164 605.92C-354.041 607.044 -349.547 605.92 -346.85 605.021C-334.941 599.626 -328.2 591.083 -329.773 577.146C-332.469 572.425 -334.267 564.332 -338.312 563.208C-342.581 561.635 -350.445 565.232 -353.591 569.278Z"
        stroke="url(#paint0_linear_26)" stroke-width="1.5" stroke-miterlimit="10" />
    <path fill-rule="evenodd" clip-rule="evenodd"
        d="M378.367 194.479L382.034 484.16C381.747 484.218 381.404 484.332 381.002 484.389C377.909 485.077 378.367 486.452 378.883 488.744C379.456 491.666 373.325 492.067 376.877 494.301C381.002 496.937 375.846 497.281 375.903 499.515C375.903 501.062 376.648 502.609 374.528 502.724C373.554 502.781 374.757 505.073 373.153 505.359C372.236 505.531 370.804 505.016 371.262 506.562C371.835 508.453 371.434 509.599 371.148 511.432C371.033 512.521 370.861 513.266 370.861 514.297C370.861 515.271 371.721 515.844 372.294 516.532C373.096 517.391 373.325 517.448 373.039 518.537C372.58 520.37 374.471 520.485 375.216 521.746C375.617 522.49 375.559 523.694 375.846 524.553C376.132 525.47 376.763 525.183 377.45 525.642C378.482 526.386 378.711 528.392 379.914 528.678C380.544 528.85 381.06 528.392 381.633 528.22C381.976 528.105 382.32 527.991 382.664 527.933L385.185 701.88C391.831 707.036 398.191 713.11 406.098 706.12C409.994 702.739 414.463 701.88 419.218 703.828C423.916 705.719 423.572 709.156 429.13 707.724C432.167 708.411 432.396 709.672 435.891 708.526C438.641 707.609 441.563 706.291 444.428 706.005C448.725 705.604 451.418 709.786 456.116 708.01C456.975 707.667 460.757 704.401 460.814 706.75C460.871 712.136 465.168 704.401 466.543 707.323C467.288 708.812 470.267 706.12 471.7 705.661C474.164 704.916 476.684 703.484 479.148 703.083C481.555 703.369 482.357 703.656 484.19 705.26C485.622 706.463 487.685 706.12 489.404 706.12C491.18 706.12 491.696 707.265 493.013 707.38C495.935 707.724 498.285 707.437 500.634 709.615C503.326 712.136 506.249 714.714 509.915 715.63C514.499 716.776 518.166 712.135 521.833 710.13C525.843 709.901 530.599 705.833 534.208 703.771C537.302 701.994 539.938 700.046 542.287 697.353C544.006 695.348 546.87 696.838 549.277 695.921C551.282 695.176 552.543 694.374 554.261 693.286C555.35 692.598 556.095 692.885 557.241 692.541C559.475 691.911 559.934 690.421 562.626 690.707C565.548 690.994 563.085 692.827 566.522 690.192C570.476 688.645 571.278 687.384 570.705 683.431C570.132 679.306 571.851 671.628 568.241 668.592C563.772 664.867 561.481 658.336 557.126 654.669C553.746 652.95 551.11 648.653 547.443 647.794C545.381 647.278 543.318 647.393 541.256 646.992C538.219 646.361 535.411 645.215 532.432 644.299C530.14 644.471 526.531 641.72 524.984 640.116C521.374 636.507 516.504 636.106 511.634 636.163C506.993 636.22 504.587 640.976 499.946 641.262C498.055 641.319 493.93 640.976 492.727 639.142C491.18 636.736 491.524 633.699 490.034 631.121C489.404 630.09 489.175 628.829 488.201 628.084C487.57 627.626 486.081 626.881 486.081 626.079C487.914 626.079 489.461 627.168 490.149 628.772C491.696 632.725 493.013 636.335 497.024 638.168C499.43 639.314 502.754 637.595 504.873 636.507C508.598 634.616 511.119 633.699 515.186 632.668C519.254 632.897 524.697 632.324 528.307 634.272C536.901 638.913 538.62 638.684 547.615 634.616C549.735 633.642 554.662 633.184 557.012 633.355C561.194 633.642 563.429 631.178 567.153 630.204L583.367 630.376C587.091 630.433 588.867 631.522 588.008 627.11C587.664 625.334 586.003 623.214 585.029 621.667C583.654 619.49 583.081 614.677 580.846 613.474C578.153 612.042 574.028 612.443 572.939 609.062C573.34 603.562 568.528 607.516 566.064 603.963C565.262 602.76 568.7 604.192 569.101 604.192C574.314 604.135 573.226 604.995 575.69 608.719C578.783 613.36 585.831 609.292 589.956 610.208C592.019 610.667 595.857 610.953 597.06 612.901C598.722 615.594 601.529 614.849 604.451 614.219C607.775 614.391 610.238 614.448 609.035 610.724C608.348 608.661 606.629 609.062 604.967 608.49C603.707 608.089 602.675 606.885 602.217 605.739C601.873 604.88 604.451 605.969 604.795 605.969C608.405 606.198 607.03 605.682 609.551 608.146C610.353 608.948 612.186 610.323 613.389 609.75C613.848 605.224 609.264 601.385 606.743 598.119C604.566 595.312 605.196 595.025 605.139 591.702C605.082 587.119 603.134 586.431 600.04 583.28C599.295 582.65 599.123 581.561 598.493 580.816C596.946 578.983 596.659 578.295 596.602 575.832C596.545 572.623 593.164 573.998 591.503 572.451C589.899 570.962 587.893 570.331 587.893 567.753C588.466 567.868 589.727 569.128 590.128 569.587C591.216 570.79 593.68 571.649 595.227 571.649C598.722 571.706 598.436 571.706 599.581 574.858C599.18 577.722 603.649 582.65 605.998 584.025C609.493 586.087 611.842 586.775 615.624 587.921C618.259 588.723 620.551 589.869 622.958 591.187C625.421 592.619 625.822 593.306 628.114 592.046C630.062 590.957 630.807 592.619 631.838 593.822C632.927 595.025 638.255 593.478 637.396 591.588C636.078 588.666 635.62 590.614 637.109 587.348C637.854 585.744 637.167 585.744 636.135 584.655C634.932 583.452 638.313 581.733 639.057 582.019C640.49 582.65 639.573 586.202 640.948 586.374C643.355 586.546 642.266 584.082 641.063 583.28C640.375 582.822 640.375 580.931 640.547 580.186C640.662 579.785 643.813 584.311 644.157 585.572C644.558 587.004 644.099 589.067 645.417 590.098C647.422 591.645 647.594 589.754 648.855 588.78C649.657 588.15 652.235 591.358 652.923 592.218C654.928 594.739 653.152 594.166 656.876 594.109C656.876 593.364 653.61 590.098 652.98 589.181C650.402 585.228 647.709 578.524 648.683 573.654C648.74 573.311 648.74 573.311 648.855 573.654L649.829 576.061C650.746 578.295 654.928 584.483 657.735 584.426C658.824 584.426 655.959 580.472 655.787 579.728C655.386 578.009 656.876 577.264 656.647 575.717C656.418 574.227 655.673 568.383 657.392 572.623L660.829 581.217C661.574 583.051 665.47 583.624 666.96 582.764C667.361 582.535 666.731 580.587 666.731 580.014C666.788 578.066 666.158 575.03 668.392 576.748C671.715 579.212 673.606 582.822 677.445 584.999C680.768 586.832 681.857 583.108 682.143 580.759C682.2 580.301 683.633 575.774 683.633 577.035L683.575 581.618C683.518 584.598 685.122 584.941 683.289 587.692C681.341 590.614 681.857 589.64 684.206 591.702C686.154 591.244 687.586 592.848 689.076 593.306C690.107 593.593 690.222 592.848 690.909 592.848C691.998 592.905 693.487 594.567 695.206 594.682C695.894 594.739 699.217 595.426 699.561 594.624C701.107 591.072 701.108 593.937 703.113 595.254C703.8 595.713 706.379 597.031 706.78 596.343C708.269 593.536 710.676 596.801 711.993 598.062C713.139 599.151 714.744 599.036 716.233 598.52C718.697 597.604 718.697 598.119 720.817 598.635C722.077 600.067 726.775 605.052 728.437 605.166C730.729 605.338 734.625 604.135 737.031 603.677C740.755 602.989 743.792 605.682 747.23 605.797C751.527 605.911 749.636 605.166 751.985 603.104C753.303 603.104 754.449 602.588 755.595 602.588C757.543 605.109 752.386 605.51 757.772 608.776C762.47 611.641 766.767 610.953 771.924 612.156C774.044 612.214 775.877 613.703 777.768 614.334C778.341 614.505 780.976 614.334 780.976 615.365C780.976 616.568 780.518 616.625 781.32 617.771C782.523 619.433 780.518 619.547 780.518 620.865C780.518 621.037 781.664 623.73 781.778 623.845C782.58 624.532 784.127 624.475 785.044 624.933C787.393 626.022 793.696 628.944 791.576 632.152C791.289 632.897 791.175 634.329 792.206 634.444C793.81 636.621 792.492 640.288 794.44 642.465C795.93 644.127 797.993 646.762 799.024 648.768C799.826 650.372 801.144 652.435 802.863 652.95C805.269 653.695 807.618 655.013 808.363 657.591C809.222 660.513 811.858 660.914 812.717 663.378C813.233 664.409 812.832 666.529 813.577 667.274C814.436 668.133 815.582 666.472 816.327 668.019C816.728 668.935 816.613 670.368 817.129 671.17C817.874 672.316 819.077 670.425 819.765 670.196C820.108 670.654 820.051 672.602 819.765 673.061C819.077 674.264 814.608 673.748 816.499 677.186C817.416 678.847 817.301 680.795 818.447 682.629C820.681 686.238 822.286 687.728 826.755 687.671C828.473 687.671 829.619 689.39 831.51 689.332C834.088 689.275 834.146 689.561 836.208 690.822C839.13 692.942 843.943 695.577 846.693 691.624C848.068 689.676 846.464 690.134 846.98 688.416C847.495 686.582 847.61 686.811 849.271 687.212C849.672 688.702 849.271 692.999 847.209 693.228C846.235 693.343 843.943 694.603 843.026 695.176C842.224 695.692 844 696.437 843.771 697.525C843.599 698.328 842.912 698.27 842.912 699.416C842.912 700.734 845.948 705.375 844.058 705.833V705.89C843.542 706.062 844.287 706.75 845.146 706.578C846.636 706.291 848.355 705.489 849.443 707.151C850.646 709.042 850.876 709.958 851.391 712.193C851.449 714.771 854.886 719.87 856.777 721.704C859.126 723.995 859.183 723.308 859.183 721.188C859.183 719.584 856.72 717.006 859.985 717.865C862.277 718.495 861.991 720.443 863.423 722.162C865.027 724.11 866.116 723.766 867.835 725.199C868.465 725.714 870.642 727.548 871.616 726.746C872.418 726.058 870.642 724.167 872.189 723.766C873.622 723.423 876.257 726.402 876.314 727.834C876.372 730.011 878.721 727.949 879.408 730.011C880.44 733.105 883.705 733.277 884.221 736.027C884.794 738.892 888.404 740.382 889.721 743.59C892.3 747.715 888.633 751.612 894.305 754.018C895.909 754.705 899.576 759.461 901.123 761.065C903.529 763.529 906.738 761.18 907.483 765.591C908.743 773.326 909.603 764.732 914.358 765.591C915.447 765.821 916.306 767.368 917.223 767.883C918.541 768.628 918.369 766.164 918.77 765.591C919.457 764.675 920.259 766.336 920.489 766.795C921.062 767.711 920.489 767.94 919.801 768.571C919.228 769.086 923.812 768.456 923.984 768.513C925.588 769.144 926.39 773.956 928.338 774.128C930.114 774.243 930.171 771.836 931.776 771.264C933.036 770.805 933.609 772.467 935.786 771.722C939.969 770.633 939.911 770.06 941.974 767.081C942.833 767.081 942.604 768.342 943.005 768.857C944.724 769.086 945.985 768.284 948.276 769.086C949.594 769.545 949.709 771.665 951.141 771.034C954.464 769.602 955.209 773.04 957.214 774.701C960.595 777.509 967.929 776.821 971.538 774.873C975.491 772.696 979.789 778.597 982.138 772.008C982.711 771.493 982.882 769.144 983.685 769.144C984.086 769.774 983.856 771.951 985.002 772.008C986.32 772.066 988.956 770.29 989.529 772.066C990.331 774.701 988.727 773.154 986.836 773.613C986.721 774.186 987.466 775.904 987.466 776.878C987.523 779.915 995.143 778.024 997.206 778.425C999.67 778.884 1002.08 779.514 1003.79 781.462C1005.57 783.41 1005.23 782.321 1007 781.118C1013.99 776.42 1020.24 779.228 1026.94 781.978C1028.43 782.379 1032.9 784.67 1033.82 783.353C1035.94 780.373 1036.4 782.207 1038.57 782.379C1040.98 782.551 1041.72 786.733 1043.5 787.134C1043.67 787.191 1045.16 786.046 1045.73 785.931C1046.82 785.759 1047.45 789.598 1050.03 788.108C1051.75 787.134 1051.46 786.504 1053.76 786.504C1057.02 786.447 1060.92 785.415 1064.01 785.816C1067.51 786.275 1070.14 788.452 1073.41 789.254C1074.9 789.655 1076.56 789.942 1076.9 791.546C1077.13 792.634 1077.88 792.864 1078.28 793.78C1078.62 794.411 1078.74 796.359 1079.94 796.301C1082 796.129 1080.28 790.801 1084.24 793.265C1086.59 794.754 1088.76 794.525 1091.34 794.468C1091.34 794.525 1091.34 794.525 1091.46 794.525C1091.46 795.213 1090.02 797.218 1089.39 797.562C1086.41 799.281 1084.01 796.702 1081.37 798.077C1080.63 798.479 1079.77 798.478 1078.91 798.65C1077.99 798.822 1077.3 799.109 1078.34 799.796C1078.91 800.197 1078.22 800.713 1078.39 801.286C1078.74 802.375 1080.91 802.088 1081.72 803.349C1084.12 807.187 1084.81 802.948 1086.64 803.692C1089.57 804.953 1087.62 804.609 1088.13 806.5L1089.45 807.703C1091.86 808.047 1094.09 812 1096.27 809.88C1096.84 809.307 1097.64 809.479 1098.39 809.365C1101.37 808.906 1099.48 812.057 1101.88 812.974C1103.72 813.719 1104.4 810.51 1105.26 811.255C1105.72 811.656 1106.01 813.031 1106.58 812.917C1107.56 812.688 1107.38 811.828 1108.3 811.484C1110.82 810.625 1113.74 807.646 1114.95 812.229C1117.07 812.172 1119.13 812.458 1119.93 810.281C1120.79 809.651 1121.76 809.937 1122.45 809.193C1123.03 808.562 1122.62 808.39 1122.74 807.703C1123.03 806.213 1127.67 805.927 1128.81 806.557C1130.01 807.187 1131.79 806.614 1132.59 805.583C1134.43 803.349 1135.46 803.75 1138.04 803.406C1141.3 803.005 1138.15 799.281 1137.52 798.02C1137.75 794.869 1137.12 795.213 1133.91 795.27C1131.56 795.27 1127.49 794.01 1125.43 792.806C1123.77 791.832 1122.45 790.629 1120.5 790.228C1118.84 789.884 1113.74 790.629 1113 789.197C1112.2 787.764 1113.51 783.754 1114.72 783.066C1115.81 782.436 1117.58 781.405 1118.84 781.691C1120.79 782.092 1121.59 783.009 1123.77 783.009C1128.75 785.186 1134.14 786.848 1139.01 783.983C1143.25 781.519 1148.06 779.8 1152.36 777.337C1152.59 777.222 1154.59 776.019 1153.56 775.675C1151.79 775.102 1148.12 776.993 1146.57 777.852C1144.34 779.113 1142.91 778.597 1140.5 778.712C1139.12 778.769 1138.15 779.686 1136.72 779.571C1132.99 780.889 1131.5 778.311 1131.45 775.102C1131.45 773.212 1125.32 776.019 1124.4 775.503C1118.21 771.779 1111.34 776.764 1105.55 769.659C1104.69 768.628 1102.23 767.826 1101.02 766.795C1098.5 764.617 1097.82 767.998 1095.35 767.94C1094.61 767.94 1094.32 765.763 1093.69 765.248C1092.49 764.331 1089.97 764.388 1088.53 763.987C1085.04 764.331 1084.41 765.534 1081.03 763.987C1079.02 763.07 1077.88 761.753 1076.62 760.091C1076.04 759.346 1074.32 761.352 1074.27 759.346C1074.21 756.08 1072.83 756.997 1071.57 754.82C1071 753.846 1070.49 753.33 1069.57 752.7C1068.71 752.127 1066.59 752.013 1066.13 751.268C1065.21 749.835 1064.87 748.518 1063.55 747.314C1060.23 744.392 1070.6 742.731 1071.12 742.33C1071.98 742.273 1074.95 742.215 1075.47 741.585C1076.67 740.267 1077.19 741.241 1078.56 740.897C1079.42 740.726 1080.11 740.153 1080.91 739.923C1082.12 739.58 1082.98 739.637 1084.12 738.949C1084.64 738.606 1087.04 737.231 1087.45 737.345C1087.73 737.402 1089.28 738.434 1089.34 737.345C1089.39 736.486 1088.88 735.855 1088.99 734.939C1089.16 733.793 1089.05 733.506 1087.79 733.449C1086.07 733.392 1085.9 733.163 1086.24 731.558C1086.36 730.814 1085.5 730.584 1085.04 730.126C1084.24 729.668 1079.48 731.444 1078.11 731.558C1074.9 731.959 1074.27 729.496 1071.29 729.553C1067.05 729.61 1062.35 727.49 1058.17 729.209C1054.67 730.642 1052.9 730.871 1049.86 728.121C1046.94 725.428 1043.84 731.788 1041.49 726.459C1039.66 726.23 1039.66 725.485 1037.66 724.912C1036.45 723.881 1034.62 722.792 1033.19 722.047C1031.18 720.959 1028.83 721.761 1026.71 721.016C1023.22 719.756 1021.9 714.943 1020.98 711.62C1020.18 708.755 1023.22 708.755 1024.25 706.406C1025.68 703.198 1025.28 699.874 1027.06 696.551C1028.55 695.749 1029.92 697.01 1031.24 695.52C1032.16 694.431 1032.04 693.114 1032.84 692.025C1033.24 691.452 1033.59 691.166 1032.67 690.994C1031.58 690.765 1030.44 691.051 1029.35 690.765C1029.35 690.535 1030.72 689.046 1030.9 688.416C1031.24 687.27 1031.35 686.238 1031.35 685.035C1031.3 682.4 1027.97 683.202 1026.14 682.915C1025.28 682.801 1025.51 682.17 1024.42 682.4C1023.33 682.629 1022.7 683.546 1021.56 683.202C1020.47 682.915 1019.55 682.973 1018.52 682.743C1017.55 682.572 1017.2 681.196 1016.97 680.394C1016 680.394 1014.11 683.545 1012.73 684.061C1009.35 688.931 998.982 683.316 998.008 687.671C997.607 689.561 993.024 688.931 991.648 689.447C988.555 690.535 984.2 692.197 981.106 690.192C979.387 689.046 977.153 690.02 976.007 689.103C972.226 686.181 969.934 682.17 969.132 677.53C969.074 677.071 969.189 675.18 968.788 675.066C965.694 674.092 966.725 672.144 965.809 669.107C965.178 667.904 965.694 665.269 966.038 663.951C966.496 662.346 964.835 662.003 964.204 660.685C963.861 659.94 963.517 658.68 962.944 658.164C961.913 657.075 959.793 657.476 958.876 656.331C957.673 654.841 956.641 652.435 954.464 652.263C950.396 651.919 949.079 652.664 946.672 648.596C944.209 644.471 946.844 642.866 946.099 639.199C945.698 637.251 944.323 636.564 944.094 633.928C944.323 629.173 943.922 626.022 941.344 621.954C939.453 618.974 938.479 615.136 938.708 611.583C938.88 609.177 938.422 608.318 935.672 610.266C934.239 611.297 933.838 610.667 932.177 610.38C930.572 610.151 928.854 611.182 927.536 610.38C925.989 609.406 925.645 607.344 925.129 605.682C924.843 604.823 920.546 602.989 919.515 602.187C916.535 599.265 914.988 604.135 912.639 601.328C910.462 598.692 908.342 603.161 906.05 600.869C904.618 599.437 904.675 597.489 904.446 595.598C904.045 592.275 902.899 591.817 900.894 589.41C898.831 587.004 901.123 593.765 896.998 591.072C895.222 589.926 896.253 582.822 892.414 581.79C888.232 580.702 889.607 582.707 888.289 578.238C887.43 575.488 884.45 576.003 883.133 574.571C882.33 573.712 882.961 572.05 881.07 572.165C878.091 572.337 878.95 571.305 876.83 569.587C875.57 568.211 874.997 567.467 873.049 567.753C869.84 568.154 871.158 566.149 869.955 565.633C868.752 565.175 868.694 566.435 867.892 566.722C866.345 567.237 866.288 565.519 865.142 565.289C863.652 565.003 864.855 562.998 863.71 561.966C861.131 559.617 862.907 557.383 861.074 555.492C859.985 554.403 861.361 553.2 860.558 552.226C859.241 550.679 859.584 550.393 859.985 548.33C860.272 546.783 859.985 544.492 858.61 543.46C857.063 542.257 854.084 541.168 854.256 538.762C855.115 535.897 854.485 536.184 853.339 534.121C852.594 532.803 854.657 532.116 854.6 531.142C853.11 530.855 853.74 531.142 852.308 531.657C851.907 531.772 850.36 532.402 850.245 531.543C850.131 531.543 847.724 529.079 846.98 528.678C845.375 527.819 845.146 525.527 844.802 523.923C843.943 519.626 843.542 517.678 844.802 513.438C845.662 510.688 844.344 509.427 847.323 509.37C849.73 509.313 857.407 507.938 859.069 506.505C860.272 506.62 861.418 506.562 862.277 507.536C862.678 508.052 863.194 509.141 863.824 509.37C865.6 510.057 868.179 509.026 869.955 508.625C871.559 508.224 872.189 508.854 873.564 509.313C874.767 509.714 875.971 510.057 876.887 508.912C881.356 505.99 882.044 509.141 886.398 509.198C889.435 509.255 891.497 511.203 893.675 508.052C894.992 506.161 895.68 507.135 897.399 507.078C898.545 507.078 899.633 506.849 900.837 506.964C902.04 507.135 903.014 507.479 904.274 507.021C907.941 506.849 911.321 505.875 914.415 504.213C915.676 503.526 917.395 498.484 915.389 498.484C913.441 498.484 913.212 496.88 914.243 495.562C915.275 494.244 914.759 491.609 914.759 490.004C914.759 488.744 915.275 488.228 915.561 487.14C916.593 482.613 911.493 482.384 912.181 478.488C912.811 474.936 910.691 475.566 908.342 473.847C902.269 471.899 902.326 468.691 899.863 463.935C898.717 461.758 893.617 454.768 891.268 454.31C887.372 453.565 888.461 450.872 886.055 449.268C884.336 448.122 882.846 449.039 880.841 448.58C878.091 448.638 877.117 447.205 875.111 445.945C873.679 445.085 872.934 448.351 871.33 446.346C870.7 445.544 869.267 445.716 868.694 446.518C866.861 449.039 867.319 448.981 863.996 448.695C861.933 448.523 856.032 449.841 855.001 447.835C854.714 447.32 854.6 444.684 854.141 444.799C852.537 445.085 851.62 446.976 849.73 446.518C845.891 445.486 844.287 439.585 841.823 438.955C839.703 438.382 837.354 437.694 835.578 438.955C831.51 441.82 832.484 436.319 830.25 435.403C826.468 434.199 822.572 434.257 819.421 431.564C816.384 428.986 813.577 427.095 809.967 425.376C808.478 424.688 806.701 421.079 806.358 421.022L806.243 420.907C804.066 420.678 800.628 422.397 798.967 421.365C797.248 420.334 796.503 417.756 794.154 419.188C792.034 420.449 783.325 417.985 782.237 415.865C781.205 415.521 780.174 415.922 779.028 415.693C777.137 415.292 775.476 413.459 773.642 413.172C771.924 413.631 768.715 414.719 767.798 413.115C765.621 409.333 762.241 417.412 759.949 414.318C757.657 411.224 756.741 412.198 753.36 413.516C750.094 414.834 747.803 409.448 747.86 407.042C747.917 405.208 749.923 404.005 749.464 402.229C748.891 400.109 747.86 398.906 750.037 396.901C750.954 396.041 753.589 393.291 752.959 391.973C752.157 390.312 752.673 387.39 752.73 385.384C752.787 383.608 753.933 382.978 754.449 381.546C755.423 378.853 753.246 378.28 752.501 376.103C751.699 373.754 751.126 372.378 751.699 369.8C752.501 366.477 755.48 361.664 749.98 360.862C747.516 360.518 744.537 358.055 742.875 356.336C740.068 353.471 736.057 350.778 734.453 346.997C733.192 343.101 729.526 342.528 727.291 338.632C725.057 334.621 720.53 332.96 717.265 330.095C713.999 327.23 713.082 326.657 708.67 328.835C706.436 329.923 705.004 329.236 702.769 328.548C698.357 327.173 694.118 326.084 691.482 322.36C690.05 320.298 690.68 319.61 689.935 317.605C689.247 317.376 688.617 316.745 687.93 316.402C686.612 315.084 685.924 313.48 684.32 312.391C683.174 311.646 678.82 313.365 679.164 310.672C679.336 309.354 681.455 309.068 681.112 307.922C680.481 305.745 667.476 300.245 665.126 300.302C660.486 300.531 657.392 300.416 654.985 295.947C654.298 294.687 654.642 292.796 654.813 291.421C654.928 290.333 654.642 289.473 654.47 288.556C652.579 287.239 653.782 284.89 650.574 284.947C647.938 285.004 645.589 284.489 643.011 284.546C642.094 284.546 639.802 283.858 639.229 284.202C638.313 284.66 637.969 285.52 636.88 285.864C634.932 285.864 633.443 283.056 633.156 287.64C632.927 291.249 629.547 288.155 628.057 287.812C625.765 287.296 624.963 289.301 623.702 286.666C622.213 283.515 618.603 285.749 615.337 285.692C611.04 285.634 609.436 280.134 606.743 277.67C604.967 276.009 602.561 276.123 600.67 274.806C598.837 273.545 598.894 271.826 597.118 270.681C594.769 269.191 591.56 270.681 590.128 268.045C590.071 263.404 587.32 267.873 583.768 266.383C580.674 265.123 578.382 260.081 576.148 257.617C574.085 255.326 570.991 257.102 569.215 254.294C568.7 253.435 566.236 254.18 565.377 254.122C559.704 254.008 555.121 253.435 549.907 251.487C547.443 250.57 544.808 251.258 542.631 250.57C536.156 252.633 531.687 249.711 525.958 247.877C520.973 246.273 514.671 245.757 510.259 243.523C506.821 241.804 505.618 240.429 501.378 240.429C496.337 240.486 492.842 237.736 488.315 236.533C482.127 234.699 476.971 231.777 470.783 230.918C469.007 230.689 467.288 228.168 466.142 228.225C463.85 228.282 460.069 230.689 461.043 225.704C461.501 223.412 457.433 222.496 456.517 219.975C453.022 220.032 448.381 223.928 445.115 220.433C442.136 217.167 442.25 215.907 437.38 215.85C433.484 215.105 428.099 211.495 424.317 209.776C420.364 208 416.697 206.912 413.03 204.391C410.452 202.672 407.874 203.875 405.467 202.385L399.05 198.375C396.128 196.541 392.175 196.198 389.31 195.395C386.445 195.453 385.758 194.937 383.581 193.791C381.919 192.932 380.086 194.078 378.367 194.479Z"
        fill="url(#paint1_linear_26)" />
    <path fill-rule="evenodd" clip-rule="evenodd"
        d="M1176.77 770.976C1175.34 770.403 1173.96 769.544 1172.53 769.143C1170.92 768.684 1169.21 768.455 1167.6 767.939C1165.54 766.736 1160.67 767.997 1159.69 766.851C1159.29 766.392 1158.95 761.981 1159.12 761.351C1159.47 760.09 1161.07 759.804 1161.87 758.944C1162.73 757.97 1159.87 756.309 1159.29 755.85C1156.66 753.788 1158.61 759.632 1156.09 758.314C1155.46 757.97 1154.65 755.736 1154.31 755.048C1152.36 751.037 1153.11 747.199 1148.41 744.85C1145.37 743.303 1144.23 744.907 1144 741.011C1143.88 738.49 1141.59 735.797 1145.2 736.714C1146.52 737.058 1149.67 739.407 1150.07 740.724C1150.24 741.412 1150.99 743.245 1151.5 743.646C1152.36 744.334 1154.08 743.704 1155.17 743.99C1156.66 744.391 1156.72 747.657 1158.38 747.657C1159.12 748.918 1159.98 751.381 1161.36 752.069C1162.73 752.756 1164.28 753.043 1165.77 753.329C1168.75 753.959 1164.11 754.647 1165.6 757.053C1166.91 759.288 1167.6 759.059 1169.66 760.205C1170.64 760.778 1171.27 761.866 1172.36 762.095C1175.91 762.783 1174.53 760.835 1174.48 758.486C1174.48 757.053 1178.72 754.704 1179.69 753.501C1181.35 753.215 1182.44 752.699 1183.99 752.011C1185.88 751.209 1185.71 756.251 1185.59 757.397C1185.13 761.58 1183.59 764.273 1181.81 767.939C1181.18 769.314 1180.95 770.518 1180.89 772.007C1180.78 774.414 1178.95 772.236 1178.09 771.721L1176.77 770.976Z"
        fill="url(#paint2_linear_26)" />
    <path fill-rule="evenodd" clip-rule="evenodd"
        d="M1120.62 727.661C1125.03 726.401 1125.43 724.682 1123.31 721.473C1122.57 720.385 1121.88 720.614 1120.68 720.213C1118.73 719.64 1119.82 719.353 1119.76 717.978C1119.76 716.088 1117.01 715.572 1117.64 712.936C1120.91 698.956 1134.83 719.984 1142.05 713.739C1145.95 710.415 1148.3 718.78 1150.7 720.156C1152.71 721.359 1154.43 722.161 1153.28 724.682C1152.02 727.547 1152.19 725.828 1154.31 727.89C1154.31 729.552 1158.49 730.297 1156.37 732.016C1155.57 732.703 1153.57 732.875 1153.11 733.734C1152.71 734.536 1152.02 736.026 1150.93 736.026C1150.36 735.109 1152.54 731.844 1150.53 731.443C1149.5 731.213 1148.35 732.245 1147.61 732.016C1146.4 731.672 1147.03 732.99 1146.46 733.62C1145.37 733.62 1144.06 732.588 1143.02 732.245C1141.08 731.557 1137.87 732.875 1135.63 732.646C1131.79 732.187 1131.85 727.89 1126.7 730.01C1125.21 730.64 1114.21 732.531 1119.3 728.578L1120.62 727.661Z"
        fill="url(#paint3_linear_26)" />
    <path fill-rule="evenodd" clip-rule="evenodd"
        d="M1099.19 716.373C1098.04 715.056 1097.18 713.451 1096.44 711.962C1095.29 709.727 1092.83 712.535 1093.35 708.008C1093.46 706.977 1093 705.602 1093.23 704.743C1093.92 702.68 1096.1 700.56 1097.76 699.357C1098.79 698.612 1099.82 697.867 1101.08 697.753C1101.6 697.695 1102.23 698.727 1102.68 699.071C1103.66 699.701 1104.8 699.529 1105.89 699.873C1106.7 700.102 1109.33 702.164 1109.79 703.024C1110.42 704.227 1110.88 706.347 1111.11 707.665C1111.62 710.701 1114.09 711.446 1111.74 714.483C1111.28 715.113 1110.65 716.373 1110.65 717.118C1110.71 719.124 1113.57 717.863 1112.2 719.811C1111.45 720.842 1111.45 722.218 1109.67 721.759C1109.04 721.587 1108.24 720.556 1107.73 720.728C1106.52 721.244 1104.23 721.759 1104.17 719.811C1104.12 717.405 1103.6 717.577 1101.14 717.176L1099.19 716.373Z"
        fill="url(#paint4_linear_26)" />
    <path fill-rule="evenodd" clip-rule="evenodd"
        d="M1537.49 478.659C1536.63 476.597 1534.63 473.044 1533.31 471.211C1531.13 471.211 1529.47 471.555 1528.27 469.148C1527.58 467.831 1525.97 465.023 1524.83 464.164C1523.97 463.476 1521.91 464.851 1522.14 462.903C1522.36 460.726 1520.53 461.299 1520.13 459.351C1519.1 458.549 1516.92 460.612 1515.2 460.096C1513.71 459.637 1513.48 456.83 1511.65 457.059C1510.05 459.351 1508.9 457.689 1507.47 456.429C1504.78 454.481 1501.62 449.783 1501.57 446.402C1501.51 443.366 1500.08 439.756 1496.52 439.47C1492.8 439.183 1494.29 436.433 1492 435.287C1490.85 434.714 1489.76 434.371 1488.68 433.568C1487.64 432.824 1485.75 432.938 1485.07 432.136C1483.86 430.818 1484.32 428.813 1483.86 427.209C1483.4 425.032 1484.09 423.313 1481.8 422.281C1479.68 421.307 1480.37 418.901 1479.39 417.182C1478.71 415.922 1477.68 416.208 1476.87 415.291C1475.84 414.146 1477.62 412.541 1474.98 412.198C1472.4 411.854 1475.38 407.786 1473.55 408.187C1472.69 408.359 1471.09 410.421 1470.4 409.276C1469.54 407.843 1468.45 408.874 1466.85 408.13C1465.3 407.385 1462.72 407.9 1461.12 408.13C1458.19 408.588 1457.91 406.468 1455.79 404.978C1453.67 403.489 1451.66 402.859 1450.23 400.681C1449.03 398.791 1446.85 397.53 1445.53 400.108C1444.79 401.598 1447.82 402.916 1448.45 404.291C1448.45 404.348 1453.61 412.14 1449.43 410.822C1446.68 409.906 1448.91 411.796 1448.91 413.286C1448.91 415.12 1447.54 415.979 1447.48 417.641C1447.42 419.417 1447.42 421.25 1446.85 422.969C1446.39 424.401 1444.1 427.151 1447.14 428.068C1448.8 429.386 1449.37 429.902 1450.06 432.079C1450.46 433.397 1449.43 434.428 1449.43 435.86C1449.49 439.183 1451.78 440.788 1454.13 442.277C1455.73 443.309 1456.76 445.887 1458.6 447.262C1460.54 448.752 1466.5 451.96 1466.85 454.309C1467.13 456.2 1466.56 458.091 1468.39 459.408C1470.51 460.898 1473.03 461.356 1475.21 462.846C1476.24 463.19 1477.04 464.278 1478.08 464.508C1481.91 465.367 1484.89 464.622 1486.73 469.034C1487.87 471.784 1487.87 474.133 1487.47 477.112L1486.73 482.67C1486.44 484.618 1482.77 483.873 1483.81 485.191C1485.07 486.738 1485.87 488.285 1487.47 489.717C1489.19 491.207 1491.08 492.582 1492.34 494.473L1496.18 500.374C1497.04 501.692 1499.28 501.176 1500.99 502.723C1504.95 506.161 1509.99 507.88 1515.26 508.452C1518.41 508.796 1520.88 510.229 1523.8 510.916C1526.66 511.604 1532.22 503.754 1535.54 502.608C1537.26 502.035 1537.66 506.046 1539.04 503.067C1539.38 502.322 1541.04 499.171 1541.85 499.171C1542.07 500.087 1541.44 505.015 1542.02 505.015C1543.79 501.348 1546.54 499.801 1543.79 495.733C1540.64 491.035 1542.59 487.254 1540.47 482.097L1537.49 478.659Z"
        fill="url(#paint5_linear_26)" />
    <path fill-rule="evenodd" clip-rule="evenodd"
        d="M1437.92 395.01C1437.12 393.176 1435.97 391.744 1435.86 389.681C1435.74 388.02 1434.83 387.046 1434.48 385.499C1434.25 384.525 1436.09 383.035 1436.14 381.603C1436.2 380.629 1436.03 374.326 1434.94 375.186C1434.31 375.644 1433.05 376.79 1432.13 376.446C1431.1 376.102 1433.34 373.753 1433.51 373.238C1434.08 371.92 1436.09 368.654 1437.46 368.196C1438.78 367.737 1441.87 366.935 1442.22 368.711C1442.62 370.717 1443.88 371.805 1444.28 373.41C1444.62 374.785 1443.76 376.332 1444.11 377.821C1444.51 379.941 1446 379.483 1446.34 380.457C1447.95 385.384 1444.97 391.744 1445.03 396.843C1445.03 397.531 1444.91 399.593 1443.88 399.593C1443.31 399.593 1443.19 397.702 1442.56 398.275C1441.82 398.963 1441.59 400.453 1440.56 400.739C1439.07 401.14 1438.67 398.505 1438.55 397.359L1437.92 395.01Z"
        fill="url(#paint6_linear_26)" />
    <path fill-rule="evenodd" clip-rule="evenodd"
        d="M1177.85 439.299C1180.72 436.72 1188.45 434.257 1189.08 430.704C1189.42 428.756 1188.91 427.668 1190.69 426.235C1192.35 424.975 1192.46 423.313 1194.93 423.256C1197.16 423.256 1201.11 421.365 1198.99 418.558C1197.85 417.068 1189.6 417.183 1193.15 411.854C1194.58 409.735 1204.15 410.365 1204.95 412.198C1206.15 415.063 1207.87 414.032 1209.19 411.224C1212.69 404.005 1220.88 422.282 1227.7 411.854C1228.73 411.511 1229.76 410.823 1230.85 410.709C1231.54 410.594 1232.4 410.651 1233.03 410.365C1233.89 409.964 1234.86 409.104 1235.66 408.589C1237.27 407.557 1239.21 403.891 1241.16 404.234C1242.59 404.463 1243.68 403.432 1244.54 402.401C1245.92 400.682 1246.32 398.276 1246.66 396.156C1246.43 393.979 1242.65 387.791 1240.59 387.275C1239.1 386.874 1238.47 386.244 1237.9 384.869C1237.15 383.15 1235.2 383.035 1234.23 381.717C1233.14 380.228 1233.43 377.134 1233.08 375.301C1232.91 374.155 1232.85 367.451 1233.77 366.993C1235.66 366.019 1236.06 369.055 1237.84 367.337C1241.39 367.795 1243.05 367.68 1246.26 369.227C1248.67 370.373 1249.81 366.706 1251.7 367.508C1253.14 368.081 1254.34 367.451 1255.08 366.076C1256.12 364.128 1257.55 362.638 1259.04 361.034C1260.99 359.029 1262.02 357.081 1263.11 354.503C1267.23 351.924 1264.77 348.315 1265.63 344.762C1266.37 341.439 1266.49 337.429 1264.42 334.564C1263.16 332.845 1261.96 331.298 1262.48 329.121C1262.99 326.944 1263.91 323.449 1265.34 321.787C1265.45 319.954 1269.01 315.771 1264.54 316.745C1261.73 317.318 1256.12 318.12 1254.11 315.714C1252.56 313.823 1248.9 315.829 1248.84 314.568C1248.78 313.594 1246.83 307.349 1248.72 308.094C1250.1 308.667 1250.1 309.87 1252.11 309.87C1252.91 307.292 1250.44 304.083 1248.5 302.422C1246.09 300.416 1245.8 308.781 1243.45 307.349C1241.73 306.26 1242.77 307.464 1240.99 307.693C1239.33 307.807 1231.82 304.427 1235.15 309.412C1237.04 312.219 1236.01 313.021 1234.69 316.115C1233.71 318.407 1230.28 316.917 1228.33 316.344C1223.4 314.797 1225.23 313.365 1223.34 309.927C1222.2 307.865 1213.43 308.438 1211.2 307.464C1208.96 306.49 1204.95 307.005 1202.49 307.063C1201.46 307.063 1199.74 306.146 1199.28 306.26C1197.62 306.604 1197.27 308.495 1195.84 308.896C1194.98 310.729 1197.73 312.105 1197.05 314.625C1196.13 317.891 1199.16 316.688 1199.16 318.579C1199.16 319.553 1198.42 321.329 1199.11 322.074C1200.08 323.22 1201.57 323.678 1202.55 324.767C1203.92 326.314 1205.3 328.949 1205.93 330.954C1206.21 331.986 1205.24 333.074 1205.64 334.507C1206.04 336.054 1206.84 337.257 1207.53 338.689C1209.02 340.866 1210.22 341.096 1209.88 344.018C1209.65 346.08 1208.22 347.856 1208.33 349.804C1208.62 354.732 1212.86 354.273 1209.94 359.716C1208.62 362.18 1208.5 364.243 1206.15 366.133C1203.86 368.024 1202.55 364.185 1200.02 363.555C1197.33 362.868 1196.93 365.217 1194.98 365.331C1193.26 365.446 1191.49 363.67 1189.6 363.441C1185.99 362.925 1186.56 361.091 1184.96 365.102C1184.33 366.649 1179.34 368.883 1177.74 369.113C1175.73 371.003 1174.47 372.321 1172.87 374.498C1171.49 376.389 1170.4 377.65 1168.28 378.795C1163.99 381.087 1160.95 385.442 1160.32 390.254C1159.92 393.119 1160.2 396.901 1159.57 399.593C1159.63 401.656 1158.89 402.344 1157.51 403.661C1156.37 404.807 1154.3 405.151 1153.5 406.01C1152.81 406.755 1153.44 407.672 1152.13 408.073C1150.58 408.589 1148.97 408.417 1147.6 407.5C1145.71 406.24 1146.45 405.151 1143.76 405.266C1140.32 405.437 1139.41 405.552 1138.66 408.932C1137.92 412.313 1133.96 412.886 1131.04 413.401C1128.52 413.802 1127.95 412.828 1127.09 410.422C1126.92 408.761 1126 408.13 1124.4 407.844C1122.68 407.557 1121.7 406.068 1120.33 405.839C1116.95 405.266 1113.28 405.667 1110.99 408.302C1109.56 409.964 1106.98 411.167 1105.26 412.828C1101.42 416.495 1102.39 413.974 1098.21 413.86C1093.11 413.745 1090.76 414.318 1089.27 408.36C1088.53 405.437 1088.13 404.12 1086.35 401.656C1084.75 400.052 1084.75 394.895 1082.57 394.322C1082.57 394.15 1082.4 393.864 1082.68 393.807C1083.43 392.26 1086.75 393.52 1086.01 389.395C1085.55 386.702 1083.26 384.697 1086.18 382.749C1089.1 380.858 1100.45 377.191 1092.6 372.951C1089.96 371.519 1083.49 371.519 1081.48 373.925C1080.79 374.728 1080.74 378.452 1081.25 379.368C1082.91 382.348 1078.39 383.207 1080.16 385.041C1081.25 386.186 1082.05 386.416 1081.65 388.134C1081.14 389.452 1080.51 390.942 1079.65 392.088C1078.73 393.291 1077.99 392.661 1076.9 393.062C1076.15 393.348 1073.35 397.302 1073.69 398.046L1075.29 401.312C1075.98 402.687 1079.08 402.745 1079.02 403.26C1078.9 405.266 1074.95 411.052 1073.06 411.282C1070.6 413.172 1069.79 412.771 1067.1 412.256C1064.06 411.625 1066.24 410.823 1063.72 413.401C1061.66 415.521 1053.46 417.756 1055.41 412.026C1056.67 408.36 1053.18 412.313 1051.29 412.427C1049.45 412.542 1048.65 411.74 1046.7 412.542C1044.41 413.459 1044.64 416.438 1042.41 416.61L1037.54 417.011C1033.53 417.355 1037.25 415.693 1032.9 417.584C1031.12 418.386 1023.44 419.016 1021.44 418.959C1021.15 418.959 1019.2 419.589 1019.43 418.73C1019.6 418.157 1019.83 417.584 1019.72 417.011C1019.55 416.266 1016.62 415.292 1015.82 415.006L1005.17 410.537C1002.24 409.334 1001.96 407.901 998.92 409.391C995.941 410.823 992.962 410.709 991.415 413.802C990.555 415.521 988.321 413.917 986.831 414.089C984.253 413.688 984.195 411.453 982.305 410.709C980.299 409.964 979.612 412.599 977.206 410.709C974.226 408.36 971.075 416.381 968.153 415.407C965.288 414.49 965.346 410.88 962.939 410.365C961.278 410.021 960.762 409.276 959.272 408.589C955.032 406.698 952.282 412.313 951.194 415.292C950.564 416.954 950.793 420.391 949.933 421.537C947.126 425.376 952.798 432.137 956.522 433.97C958.241 434.257 959.903 434.371 961.392 435.288C962.653 436.033 964.028 434.772 965.288 435.632C966.033 436.147 969.242 440.846 970.674 438.267C971.247 437.179 973.653 435.001 974.971 436.548C976.575 438.439 976.804 439.184 979.612 438.898C982.018 438.611 981.216 439.986 982.706 440.043C987.69 440.158 984.425 442.163 985.513 444.455C985.857 445.143 987.175 443.882 987.461 443.71C989.008 442.851 990.383 443.997 991.185 445.085C991.586 445.601 993.878 446.117 993.248 446.69C991.472 448.294 991.357 449.44 994.05 448.981C995.654 448.695 998.175 450.643 1000.07 450.987C1002.7 451.502 1002.93 452.304 1005.85 451.732C1009.29 451.101 1005.45 454.253 1007.69 456.029C1008.55 456.716 1009.58 459.925 1008.72 460.669C1005.97 463.19 1010.21 461.586 1011.12 461.758C1016.74 462.847 1013.3 457.175 1019.2 457.862C1022.98 458.32 1025.28 453.737 1029.11 454.654C1035.82 456.258 1039.37 457.461 1043.67 462.732C1044.41 463.649 1044.87 464.623 1045.39 465.711C1046.13 467.258 1047.85 466.685 1047.74 468.92C1047.68 471.04 1049.91 471.154 1051.34 472.358C1055.7 474.821 1056.1 472.759 1059.88 471.727C1062 471.154 1065.04 472.529 1067.85 471.899C1070.42 471.326 1072.43 472.472 1074.78 472.816C1076.55 473.102 1077.47 470.352 1079.48 470.295C1080.22 470.295 1085.32 475.337 1084.58 471.154C1084.06 468.175 1086.52 470.295 1087.1 471.842C1088.64 475.738 1093.69 466.915 1095.81 468.977C1097.24 470.41 1098.84 469.264 1098.9 471.613C1098.9 473.389 1103.65 471.326 1104.51 471.269L1110.7 471.555C1112.48 471.613 1113.62 470.066 1115.74 470.123C1118.55 470.18 1123.36 464.566 1126.06 463.248C1127.6 462.446 1129.61 459.409 1131.61 460.326C1133.1 461.013 1139.18 459.81 1141.01 458.893C1144.22 457.346 1143.7 454.768 1143.7 451.961C1144.16 451.044 1144.22 449.497 1145.54 449.497C1145.71 450.185 1146.91 451.789 1147.37 452.419C1147.89 453.164 1154.53 449.612 1156.19 449.382C1159.75 448.867 1158.49 451.159 1160.66 451.33C1162.84 451.445 1166.79 445.658 1169.49 444.57C1170.86 444.054 1172.12 445.544 1173.27 444.799C1174.47 444.054 1175.22 442.335 1176.25 441.304L1177.85 439.299Z"
        fill="url(#paint7_linear_26)" />
    <path fill-rule="evenodd" clip-rule="evenodd"
        d="M1311.36 347.455C1312.16 345.45 1313.88 344.877 1314.91 343.158C1315.6 341.955 1314.79 340.522 1315.6 339.204C1316.34 338.001 1317.43 337.829 1318 337.027C1318.58 336.225 1318.06 334.392 1318.12 333.418C1318.17 330.839 1317.03 330.954 1315.31 329.464C1313.53 327.917 1317.03 324.881 1318.06 323.735C1321.1 320.641 1322.99 321.443 1321.67 316.63C1321.44 315.771 1322.01 314.682 1322.07 313.766C1322.24 311.13 1322.99 310.385 1321.15 308.38C1320.01 307.119 1317.14 306.948 1316.46 305.114C1314.68 300.187 1313.82 299.385 1310.33 295.489C1309.12 294.171 1308.61 289.645 1307.8 289.301C1306.66 288.842 1305.74 290.561 1304.71 290.561C1302.59 290.561 1302.48 289.415 1301.27 288.155C1299.55 286.379 1298.87 275.779 1295.66 281.967C1294.23 284.66 1290.33 281.623 1288.21 280.535C1286.2 280.076 1284.37 276.982 1282.77 277.269C1279.84 277.727 1277.72 276.581 1276.58 273.774C1276.12 272.628 1277.5 271.081 1276.92 270.164C1275.83 268.56 1274.34 267.071 1273.6 265.18C1271.88 260.94 1271.37 266.211 1268.44 265.065C1267.81 264.836 1262.48 258.133 1262.37 257.445C1261.91 254.695 1261.91 254.695 1259.1 253.664C1256.41 252.69 1254.06 251.429 1251.6 249.825C1248.05 247.705 1246.61 246.273 1244.49 242.835C1243 240.429 1240.25 238.595 1239.05 236.475C1238.71 235.845 1238.02 232.694 1237.73 232.579C1235.79 231.892 1232.69 232.694 1231.09 232.006C1230.23 231.605 1230.23 230.173 1228.97 229.772C1227.71 229.371 1225.41 230.173 1224.56 229.199C1222.44 226.735 1216.42 231.204 1216.31 224.615C1214.53 223.641 1212.58 226.391 1211.15 222.839C1210 219.974 1209.14 218.714 1206.22 217.568C1204.1 216.88 1201.92 216.136 1200.26 214.703C1198.77 213.443 1198.26 212.698 1196.14 212.927C1192.41 213.328 1191.1 205.479 1187.31 206.396C1182.79 207.427 1184.11 205.536 1180.78 204.046C1177.17 202.442 1174.65 207.427 1170.53 202.385C1169.44 201.067 1169.95 198.89 1168.87 197.916C1167.95 197.114 1163.31 195.911 1162.05 195.796C1160.5 194.765 1158.55 195.166 1158.15 193.046C1157.98 192.301 1157.23 191.155 1156.49 191.155C1155.52 191.155 1154.54 190.983 1153.51 191.098C1151.96 191.27 1151.1 190.41 1150.47 189.035C1149.73 187.488 1149.1 186.457 1147.72 185.368C1146.52 184.738 1144.86 184.738 1143.94 183.821C1143.43 183.248 1143.2 182.16 1142.68 181.53C1140.33 178.665 1140.91 182.103 1140.05 183.65C1138.27 186.858 1142.22 186.457 1144.06 186.4C1146.41 186.342 1145.03 187.775 1145.03 188.978C1145.03 189.952 1146.86 189.608 1146.86 190.926C1146.92 193.332 1144.69 191.27 1144.29 191.155C1143.48 190.926 1140.96 193.963 1139.13 193.963C1138.5 193.963 1135.35 192.817 1135.35 193.332C1135.35 194.421 1134.89 196.025 1135.98 196.598C1138.73 198.031 1141.31 198.031 1144.23 197.629C1146.86 197.286 1150.82 194.822 1153.05 197.801C1154.2 198.374 1155.52 198.088 1156.49 198.833C1158.32 200.208 1158.21 201.296 1161.02 201.239C1164.63 201.182 1164.34 205.994 1167.83 205.937C1170.64 205.88 1170.81 209.776 1173.62 210.406C1178.38 211.437 1182.39 214.188 1186.57 216.594C1188.69 217.797 1190.35 218.256 1190.29 220.834C1190.24 222.782 1194.65 224.959 1196.19 225.303C1198.03 226.334 1200.84 225.589 1202.61 226.907C1205.36 228.97 1207.37 232.006 1209.37 234.756C1213.38 240.257 1219.69 240.772 1224.5 245.012C1231.2 250.913 1235.67 249.653 1243.98 250.971C1245.87 251.716 1247.82 251.887 1249.36 253.32C1250.11 254.007 1251.14 256.07 1251.83 256.242C1254.81 257.216 1255.09 256.299 1256.58 259.508C1257.5 261.456 1259.45 262.029 1261.11 263.117C1262.31 263.862 1261.63 268.045 1263.34 269.763L1271.25 277.67C1272 279.274 1272.91 278.644 1273.66 279.618C1275.43 281.853 1276.81 285.004 1278.64 287.41C1281.85 291.593 1282.31 297.437 1285.69 301.161C1288.21 303.911 1288.67 304.083 1287.64 307.635C1287.01 309.87 1289.36 312.161 1288.9 314.797C1288.67 316.458 1288.73 318.292 1288.73 319.953C1288.78 322.188 1286.72 323.62 1286.2 325.568C1286.09 325.912 1287.35 327.173 1287.58 327.746C1288.04 329.063 1287.01 331.699 1288.5 333.017C1289.47 333.819 1290.56 333.876 1290.56 335.366C1290.56 337.085 1290.79 342.012 1292.51 342.814C1294.8 343.845 1297.15 343.444 1297.66 346.825C1298.29 347.913 1298.98 349.288 1300.07 350.033C1301.33 350.893 1303.16 351.351 1303.85 352.898C1304.08 353.356 1304.31 353.872 1304.31 354.388C1304.31 354.903 1304.31 356.622 1305.34 355.877C1306.6 354.903 1304.65 353.242 1306.83 352.268C1307.75 351.867 1308.72 351.809 1309.52 351.179C1309.92 350.835 1311.18 349.517 1311.24 349.002L1311.36 347.455Z"
        fill="url(#paint8_linear_26)" />
    <path fill-rule="evenodd" clip-rule="evenodd"
        d="M1085.67 185.483C1085.04 185.253 1083.15 178.894 1082.23 177.633C1079.43 177.06 1077.59 178.034 1074.84 176.487C1074.67 175.227 1072.27 174.081 1075.02 174.482C1078.74 174.998 1080.4 169.44 1084.58 170.185C1090.31 171.216 1091.8 163.997 1097.47 169.268C1099.94 171.56 1102.17 169.956 1104.46 171.675C1107.04 173.565 1108.82 172.82 1111.11 174.195C1111.28 175.399 1111.68 178.092 1112.6 178.951C1114.61 180.727 1112.6 180.555 1112.54 182.732C1112.43 186.285 1113.35 187.946 1109.62 188.978C1108.88 189.207 1108.42 190.41 1107.39 190.467C1104.81 190.524 1105.78 189.321 1102.69 189.722L1093.98 190.983C1089.91 191.556 1088.65 189.207 1086.02 186.628L1085.67 185.483Z"
        fill="url(#paint9_linear_26)" />
    <path fill-rule="evenodd" clip-rule="evenodd"
        d="M908.283 422.798C906.622 421.022 905.075 410.709 909.372 411.625C911.091 411.969 913.096 411.167 913.955 413C916.19 417.584 921.862 415.178 925.185 417.469C930.685 421.308 932.691 423.886 930.284 430.475C929.31 433.168 927.706 439.471 924.268 439.528C923.925 437.866 924.612 435.231 922.607 434.429C919.628 433.168 915.617 435.861 914.528 430.876C913.784 427.668 909.143 426.465 908.971 424.116L908.283 422.798Z"
        fill="url(#paint10_linear_26)" />
    <path fill-rule="evenodd" clip-rule="evenodd"
        d="M871.4 398.905C870.77 398.39 870.484 395.296 870.942 394.494C871.629 393.405 868.306 393.061 867.791 392.488C866.989 391.514 866.129 390.712 865.384 389.796C864.296 388.592 863.207 389.108 862.176 390.197C861.488 390.827 860.858 391.171 860.171 391.744C859.483 392.317 858.337 392.317 857.478 392.431C856.332 392.66 855.702 392.603 855.186 393.806C855.243 395.181 854.842 396.9 855.071 398.161C855.186 398.676 855.472 401.885 855.759 401.942C857.42 402.343 857.764 401.713 858.91 403.203C860.113 404.807 861.947 406.239 863.494 407.614C864.64 408.646 866.072 410.021 867.332 408.359C868.421 406.984 873.864 408.187 871.687 405.666C870.827 404.635 872.317 403.604 872.661 402.687C873.291 401.14 872.947 400.968 871.859 399.879L871.4 398.905Z"
        fill="url(#paint11_linear_26)" />
    <path
        d="M1139.22 110.682C1139.22 111.831 1138.42 112.294 1137.43 111.71C1136.44 111.146 1135.63 109.755 1135.63 108.606C1135.63 107.458 1136.44 106.994 1137.43 107.579C1138.42 108.143 1139.22 109.533 1139.22 110.682Z"
        fill="url(#paint12_linear_26)" />
    <path
        d="M1155.02 120.255C1155.02 121.403 1154.21 121.867 1153.23 121.282C1152.24 120.718 1151.43 119.328 1151.43 118.179C1151.43 117.03 1152.24 116.567 1153.23 117.151C1154.21 117.715 1155.02 119.106 1155.02 120.255Z"
        fill="url(#paint13_linear_26)" />
    <circle  class="dot" opacity="0.3" cx="639" cy="437" r="62" fill="url(#paint14_radial_26)" />
    <circle  class="dot" opacity="0.3" cx="639" cy="437" r="28" fill="url(#paint15_radial_26)" />
    <circle cx="639" cy="437" r="19" fill="url(#paint16_radial_26)" />
    <circle cx="639" cy="437" r="5" fill="white" />
    <path class="dashline" d="M639 437L639 247" stroke="url(#paint17_linear_26)" stroke-dasharray="2 2" />
    <circle cx="639" cy="247" r="3" fill="#FFA337" />
    <path class="city"
        d="M659 228C659 226.895 659.895 226 661 226H765C766.105 226 767 226.895 767 228V261C767 262.105 766.105 263 765 263H661C659.895 263 659 262.105 659 261V253.63C659 253.069 658.765 252.534 658.351 252.155L651.608 245.974C650.744 245.182 650.744 243.818 651.608 243.026L658.351 236.845C658.765 236.466 659 235.931 659 235.37V228Z"
        fill="url(#paint18_linear_26)" />
    <path class="city"
        d="M685.855 250L685.84 243.7L682.75 248.89H681.655L678.58 243.835V250H676.3V239.5H678.31L682.24 246.025L686.11 239.5H688.105L688.135 250H685.855ZM695.666 249.61C695.436 249.78 695.151 249.91 694.811 250C694.481 250.08 694.131 250.12 693.761 250.12C692.801 250.12 692.056 249.875 691.526 249.385C691.006 248.895 690.746 248.175 690.746 247.225V243.91H689.501V242.11H690.746V240.145H693.086V242.11H695.096V243.91H693.086V247.195C693.086 247.535 693.171 247.8 693.341 247.99C693.521 248.17 693.771 248.26 694.091 248.26C694.461 248.26 694.776 248.16 695.036 247.96L695.666 249.61ZM711.023 239.5V250H708.593V245.695H703.823V250H701.393V239.5H703.823V243.64H708.593V239.5H711.023ZM716.597 241.81C717.847 241.81 718.807 242.11 719.477 242.71C720.147 243.3 720.482 244.195 720.482 245.395V250H718.292V248.995C717.852 249.745 717.032 250.12 715.832 250.12C715.212 250.12 714.672 250.015 714.212 249.805C713.762 249.595 713.417 249.305 713.177 248.935C712.937 248.565 712.817 248.145 712.817 247.675C712.817 246.925 713.097 246.335 713.657 245.905C714.227 245.475 715.102 245.26 716.282 245.26H718.142C718.142 244.75 717.987 244.36 717.677 244.09C717.367 243.81 716.902 243.67 716.282 243.67C715.852 243.67 715.427 243.74 715.007 243.88C714.597 244.01 714.247 244.19 713.957 244.42L713.117 242.785C713.557 242.475 714.082 242.235 714.692 242.065C715.312 241.895 715.947 241.81 716.597 241.81ZM716.417 248.545C716.817 248.545 717.172 248.455 717.482 248.275C717.792 248.085 718.012 247.81 718.142 247.45V246.625H716.537C715.577 246.625 715.097 246.94 715.097 247.57C715.097 247.87 715.212 248.11 715.442 248.29C715.682 248.46 716.007 248.545 716.417 248.545ZM731.013 241.93V248.65C731.013 250.13 730.628 251.23 729.858 251.95C729.088 252.67 727.963 253.03 726.483 253.03C725.703 253.03 724.963 252.935 724.263 252.745C723.563 252.555 722.983 252.28 722.523 251.92L723.453 250.24C723.793 250.52 724.223 250.74 724.743 250.9C725.263 251.07 725.783 251.155 726.303 251.155C727.113 251.155 727.708 250.97 728.088 250.6C728.478 250.24 728.673 249.69 728.673 248.95V248.605C728.063 249.275 727.213 249.61 726.123 249.61C725.383 249.61 724.703 249.45 724.083 249.13C723.473 248.8 722.988 248.34 722.628 247.75C722.268 247.16 722.088 246.48 722.088 245.71C722.088 244.94 722.268 244.26 722.628 243.67C722.988 243.08 723.473 242.625 724.083 242.305C724.703 241.975 725.383 241.81 726.123 241.81C727.293 241.81 728.183 242.195 728.793 242.965V241.93H731.013ZM726.588 247.69C727.208 247.69 727.713 247.51 728.103 247.15C728.503 246.78 728.703 246.3 728.703 245.71C728.703 245.12 728.503 244.645 728.103 244.285C727.713 243.915 727.208 243.73 726.588 243.73C725.968 243.73 725.458 243.915 725.058 244.285C724.658 244.645 724.458 245.12 724.458 245.71C724.458 246.3 724.658 246.78 725.058 247.15C725.458 247.51 725.968 247.69 726.588 247.69ZM741.096 245.995C741.096 246.025 741.081 246.235 741.051 246.625H734.946C735.056 247.125 735.316 247.52 735.726 247.81C736.136 248.1 736.646 248.245 737.256 248.245C737.676 248.245 738.046 248.185 738.366 248.065C738.696 247.935 739.001 247.735 739.281 247.465L740.526 248.815C739.766 249.685 738.656 250.12 737.196 250.12C736.286 250.12 735.481 249.945 734.781 249.595C734.081 249.235 733.541 248.74 733.161 248.11C732.781 247.48 732.591 246.765 732.591 245.965C732.591 245.175 732.776 244.465 733.146 243.835C733.526 243.195 734.041 242.7 734.691 242.35C735.351 241.99 736.086 241.81 736.896 241.81C737.686 241.81 738.401 241.98 739.041 242.32C739.681 242.66 740.181 243.15 740.541 243.79C740.911 244.42 741.096 245.155 741.096 245.995ZM736.911 243.58C736.381 243.58 735.936 243.73 735.576 244.03C735.216 244.33 734.996 244.74 734.916 245.26H738.891C738.811 244.75 738.591 244.345 738.231 244.045C737.871 243.735 737.431 243.58 736.911 243.58ZM747.559 241.81C748.559 241.81 749.364 242.11 749.974 242.71C750.594 243.31 750.904 244.2 750.904 245.38V250H748.564V245.74C748.564 245.1 748.424 244.625 748.144 244.315C747.864 243.995 747.459 243.835 746.929 243.835C746.339 243.835 745.869 244.02 745.519 244.39C745.169 244.75 744.994 245.29 744.994 246.01V250H742.654V241.93H744.889V242.875C745.199 242.535 745.584 242.275 746.044 242.095C746.504 241.905 747.009 241.81 747.559 241.81Z"
        fill="white" />
    <circle class="dot" opacity="0.3" cx="862" cy="714" r="57" fill="url(#paint19_radial_26)" style="animation-delay:0.3s"/>
    <circle class="dot" opacity="0.3" cx="862" cy="714" r="28" fill="url(#paint20_radial_26)" style="animation-delay:0.3s"/>
    <circle cx="862" cy="714" r="19" fill="url(#paint21_radial_26)" />
    <circle cx="862" cy="714" r="5" fill="white" />
    <path class="dashline" d="M862 714L862 612.5" stroke="url(#paint22_linear_26)" stroke-dasharray="2 2" />
    <path class="city" style="animation-delay: 0.3s"
        d="M878 596C878 594.895 878.895 594 880 594H1007C1008.1 594 1009 594.895 1009 596V629C1009 630.105 1008.1 631 1007 631H880C878.895 631 878 630.105 878 629V621.693C878 621.096 877.733 620.53 877.273 620.15L869.87 614.043C868.9 613.243 868.9 611.757 869.87 610.957L877.273 604.85C877.733 604.47 878 603.904 878 603.307V596Z"
        fill="url(#paint23_linear_26)" />
    <path class="city" style="animation-delay: 0.3s"
        d="M896.231 607.5C897.161 607.5 897.966 607.655 898.646 607.965C899.336 608.275 899.866 608.715 900.236 609.285C900.606 609.855 900.791 610.53 900.791 611.31C900.791 612.08 900.606 612.755 900.236 613.335C899.866 613.905 899.336 614.345 898.646 614.655C897.966 614.955 897.161 615.105 896.231 615.105H894.116V618H891.686V607.5H896.231ZM896.096 613.125C896.826 613.125 897.381 612.97 897.761 612.66C898.141 612.34 898.331 611.89 898.331 611.31C898.331 610.72 898.141 610.27 897.761 609.96C897.381 609.64 896.826 609.48 896.096 609.48H894.116V613.125H896.096ZM906.187 618.12C905.337 618.12 904.572 617.945 903.892 617.595C903.222 617.235 902.697 616.74 902.317 616.11C901.937 615.48 901.747 614.765 901.747 613.965C901.747 613.165 901.937 612.45 902.317 611.82C902.697 611.19 903.222 610.7 903.892 610.35C904.572 609.99 905.337 609.81 906.187 609.81C907.037 609.81 907.797 609.99 908.467 610.35C909.137 610.7 909.662 611.19 910.042 611.82C910.422 612.45 910.612 613.165 910.612 613.965C910.612 614.765 910.422 615.48 910.042 616.11C909.662 616.74 909.137 617.235 908.467 617.595C907.797 617.945 907.037 618.12 906.187 618.12ZM906.187 616.2C906.787 616.2 907.277 616 907.657 615.6C908.047 615.19 908.242 614.645 908.242 613.965C908.242 613.285 908.047 612.745 907.657 612.345C907.277 611.935 906.787 611.73 906.187 611.73C905.587 611.73 905.092 611.935 904.702 612.345C904.312 612.745 904.117 613.285 904.117 613.965C904.117 614.645 904.312 615.19 904.702 615.6C905.092 616 905.587 616.2 906.187 616.2ZM914.411 610.995C914.691 610.605 915.066 610.31 915.536 610.11C916.016 609.91 916.566 609.81 917.186 609.81V611.97C916.926 611.95 916.751 611.94 916.661 611.94C915.991 611.94 915.466 612.13 915.086 612.51C914.706 612.88 914.516 613.44 914.516 614.19V618H912.176V609.93H914.411V610.995ZM924.06 617.61C923.83 617.78 923.545 617.91 923.205 618C922.875 618.08 922.525 618.12 922.155 618.12C921.195 618.12 920.45 617.875 919.92 617.385C919.4 616.895 919.14 616.175 919.14 615.225V611.91H917.895V610.11H919.14V608.145H921.48V610.11H923.49V611.91H921.48V615.195C921.48 615.535 921.565 615.8 921.735 615.99C921.915 616.17 922.165 616.26 922.485 616.26C922.855 616.26 923.17 616.16 923.43 615.96L924.06 617.61ZM939.342 618L939.327 611.7L936.237 616.89H935.142L932.067 611.835V618H929.787V607.5H931.797L935.727 614.025L939.597 607.5H941.592L941.622 618H939.342ZM947.788 618.12C946.938 618.12 946.173 617.945 945.493 617.595C944.823 617.235 944.298 616.74 943.918 616.11C943.538 615.48 943.348 614.765 943.348 613.965C943.348 613.165 943.538 612.45 943.918 611.82C944.298 611.19 944.823 610.7 945.493 610.35C946.173 609.99 946.938 609.81 947.788 609.81C948.638 609.81 949.398 609.99 950.068 610.35C950.738 610.7 951.263 611.19 951.643 611.82C952.023 612.45 952.213 613.165 952.213 613.965C952.213 614.765 952.023 615.48 951.643 616.11C951.263 616.74 950.738 617.235 950.068 617.595C949.398 617.945 948.638 618.12 947.788 618.12ZM947.788 616.2C948.388 616.2 948.878 616 949.258 615.6C949.648 615.19 949.843 614.645 949.843 613.965C949.843 613.285 949.648 612.745 949.258 612.345C948.878 611.935 948.388 611.73 947.788 611.73C947.188 611.73 946.693 611.935 946.303 612.345C945.913 612.745 945.718 613.285 945.718 613.965C945.718 614.645 945.913 615.19 946.303 615.6C946.693 616 947.188 616.2 947.788 616.2ZM956.012 610.995C956.292 610.605 956.667 610.31 957.137 610.11C957.617 609.91 958.167 609.81 958.787 609.81V611.97C958.527 611.95 958.352 611.94 958.262 611.94C957.592 611.94 957.067 612.13 956.687 612.51C956.307 612.88 956.117 613.44 956.117 614.19V618H953.777V609.93H956.012V610.995ZM968.01 613.995C968.01 614.025 967.995 614.235 967.965 614.625H961.86C961.97 615.125 962.23 615.52 962.64 615.81C963.05 616.1 963.56 616.245 964.17 616.245C964.59 616.245 964.96 616.185 965.28 616.065C965.61 615.935 965.915 615.735 966.195 615.465L967.44 616.815C966.68 617.685 965.57 618.12 964.11 618.12C963.2 618.12 962.395 617.945 961.695 617.595C960.995 617.235 960.455 616.74 960.075 616.11C959.695 615.48 959.505 614.765 959.505 613.965C959.505 613.175 959.69 612.465 960.06 611.835C960.44 611.195 960.955 610.7 961.605 610.35C962.265 609.99 963 609.81 963.81 609.81C964.6 609.81 965.315 609.98 965.955 610.32C966.595 610.66 967.095 611.15 967.455 611.79C967.825 612.42 968.01 613.155 968.01 613.995ZM963.825 611.58C963.295 611.58 962.85 611.73 962.49 612.03C962.13 612.33 961.91 612.74 961.83 613.26H965.805C965.725 612.75 965.505 612.345 965.145 612.045C964.785 611.735 964.345 611.58 963.825 611.58ZM972.283 618.12C971.613 618.12 970.958 618.04 970.318 617.88C969.678 617.71 969.168 617.5 968.788 617.25L969.568 615.57C969.928 615.8 970.363 615.99 970.873 616.14C971.383 616.28 971.883 616.35 972.373 616.35C973.363 616.35 973.858 616.105 973.858 615.615C973.858 615.385 973.723 615.22 973.453 615.12C973.183 615.02 972.768 614.935 972.208 614.865C971.548 614.765 971.003 614.65 970.573 614.52C970.143 614.39 969.768 614.16 969.448 613.83C969.138 613.5 968.983 613.03 968.983 612.42C968.983 611.91 969.128 611.46 969.418 611.07C969.718 610.67 970.148 610.36 970.708 610.14C971.278 609.92 971.948 609.81 972.718 609.81C973.288 609.81 973.853 609.875 974.413 610.005C974.983 610.125 975.453 610.295 975.823 610.515L975.043 612.18C974.333 611.78 973.558 611.58 972.718 611.58C972.218 611.58 971.843 611.65 971.593 611.79C971.343 611.93 971.218 612.11 971.218 612.33C971.218 612.58 971.353 612.755 971.623 612.855C971.893 612.955 972.323 613.05 972.913 613.14C973.573 613.25 974.113 613.37 974.533 613.5C974.953 613.62 975.318 613.845 975.628 614.175C975.938 614.505 976.093 614.965 976.093 615.555C976.093 616.055 975.943 616.5 975.643 616.89C975.343 617.28 974.903 617.585 974.323 617.805C973.753 618.015 973.073 618.12 972.283 618.12ZM982.307 609.81C983.057 609.81 983.737 609.985 984.347 610.335C984.967 610.675 985.452 611.16 985.802 611.79C986.152 612.41 986.327 613.135 986.327 613.965C986.327 614.795 986.152 615.525 985.802 616.155C985.452 616.775 984.967 617.26 984.347 617.61C983.737 617.95 983.057 618.12 982.307 618.12C981.197 618.12 980.352 617.77 979.772 617.07V618H977.537V606.87H979.877V610.785C980.467 610.135 981.277 609.81 982.307 609.81ZM981.902 616.2C982.502 616.2 982.992 616 983.372 615.6C983.762 615.19 983.957 614.645 983.957 613.965C983.957 613.285 983.762 612.745 983.372 612.345C982.992 611.935 982.502 611.73 981.902 611.73C981.302 611.73 980.807 611.935 980.417 612.345C980.037 612.745 979.847 613.285 979.847 613.965C979.847 614.645 980.037 615.19 980.417 615.6C980.807 616 981.302 616.2 981.902 616.2ZM995.684 609.93L992.039 618.495C991.669 619.425 991.209 620.08 990.659 620.46C990.119 620.84 989.464 621.03 988.694 621.03C988.274 621.03 987.859 620.965 987.449 620.835C987.039 620.705 986.704 620.525 986.444 620.295L987.299 618.63C987.479 618.79 987.684 618.915 987.914 619.005C988.154 619.095 988.389 619.14 988.619 619.14C988.939 619.14 989.199 619.06 989.399 618.9C989.599 618.75 989.779 618.495 989.939 618.135L989.969 618.06L986.474 609.93H988.889L991.154 615.405L993.434 609.93H995.684Z"
        fill="white" />
    <circle cx="862" cy="612" r="3" fill="#FFA337" />
    <circle cx="862" cy="612" r="2" fill="#C4C4C4" />
    <circle class="dot" opacity="0.3" cx="848" cy="504" r="59" fill="url(#paint24_radial_26)" style="animation-delay:0.6s"/>
    <circle class="dot" opacity="0.3" cx="848" cy="504" r="28" fill="url(#paint25_radial_26)" style="animation-delay:0.6s"/>
    <circle cx="848" cy="504" r="19" fill="url(#paint26_radial_26)" />
    <circle cx="848" cy="504" r="5" fill="white" />
    <path class="dashline" d="M848 504L848 344" stroke="url(#paint27_linear_26)" stroke-dasharray="2 2" />
    <path  class="city" style="animation-delay: 0.5s"
        d="M865 328C865 326.895 865.895 326 867 326H927C928.105 326 929 326.895 929 328V361C929 362.105 928.105 363 927 363H867C865.895 363 865 362.105 865 361V353.693C865 353.096 864.733 352.53 864.273 352.15L856.87 346.043C855.9 345.243 855.9 343.757 856.87 342.957L864.273 336.85C864.733 336.47 865 335.904 865 335.307V328Z"
        fill="url(#paint28_linear_26)" />
    <path  class="city" style="animation-delay: 0.5s"
        d="M886.27 339.5H888.7V348.02H893.965V350H886.27V339.5ZM898.501 341.81C899.751 341.81 900.711 342.11 901.381 342.71C902.051 343.3 902.386 344.195 902.386 345.395V350H900.196V348.995C899.756 349.745 898.936 350.12 897.736 350.12C897.116 350.12 896.576 350.015 896.116 349.805C895.666 349.595 895.321 349.305 895.081 348.935C894.841 348.565 894.721 348.145 894.721 347.675C894.721 346.925 895.001 346.335 895.561 345.905C896.131 345.475 897.006 345.26 898.186 345.26H900.046C900.046 344.75 899.891 344.36 899.581 344.09C899.271 343.81 898.806 343.67 898.186 343.67C897.756 343.67 897.331 343.74 896.911 343.88C896.501 344.01 896.151 344.19 895.861 344.42L895.021 342.785C895.461 342.475 895.986 342.235 896.596 342.065C897.216 341.895 897.851 341.81 898.501 341.81ZM898.321 348.545C898.721 348.545 899.076 348.455 899.386 348.275C899.696 348.085 899.916 347.81 900.046 347.45V346.625H898.441C897.481 346.625 897.001 346.94 897.001 347.57C897.001 347.87 897.116 348.11 897.346 348.29C897.586 348.46 897.911 348.545 898.321 348.545ZM912.497 345.995C912.497 346.025 912.482 346.235 912.452 346.625H906.347C906.457 347.125 906.717 347.52 907.127 347.81C907.537 348.1 908.047 348.245 908.657 348.245C909.077 348.245 909.447 348.185 909.767 348.065C910.097 347.935 910.402 347.735 910.682 347.465L911.927 348.815C911.167 349.685 910.057 350.12 908.597 350.12C907.687 350.12 906.882 349.945 906.182 349.595C905.482 349.235 904.942 348.74 904.562 348.11C904.182 347.48 903.992 346.765 903.992 345.965C903.992 345.175 904.177 344.465 904.547 343.835C904.927 343.195 905.442 342.7 906.092 342.35C906.752 341.99 907.487 341.81 908.297 341.81C909.087 341.81 909.802 341.98 910.442 342.32C911.082 342.66 911.582 343.15 911.942 343.79C912.312 344.42 912.497 345.155 912.497 345.995ZM908.312 343.58C907.782 343.58 907.337 343.73 906.977 344.03C906.617 344.33 906.397 344.74 906.317 345.26H910.292C910.212 344.75 909.992 344.345 909.632 344.045C909.272 343.735 908.832 343.58 908.312 343.58Z"
        fill="white" />
    <circle cx="848" cy="344" r="3" fill="#FFA337" />
    <defs>
        <linearGradient id="paint0_linear_26" x1="534.94" y1="531.547" x2="-341.148" y2="-12.8719"
            gradientUnits="userSpaceOnUse">
            <stop stop-color="#6AAEFF" stop-opacity="0.8" />
            <stop offset="0.661735" stop-color="#7B61FF" stop-opacity="0.1" />
        </linearGradient>
        <linearGradient id="paint1_linear_26" x1="609.446" y1="159.445" x2="621.915" y2="810.964"
            gradientUnits="userSpaceOnUse">
            <stop stop-color="#293656" />
            <stop offset="0.0001" stop-color="#384157" />
            <stop offset="0.867708" stop-color="#4D525D" />
        </linearGradient>
        <linearGradient id="paint2_linear_26" x1="1156.12" y1="734.521" x2="1156.92" y2="772.99"
            gradientUnits="userSpaceOnUse">
            <stop stop-color="#293656" />
            <stop offset="0.0001" stop-color="#384157" />
            <stop offset="0.867708" stop-color="#4D525D" />
        </linearGradient>
        <linearGradient id="paint3_linear_26" x1="1129.56" y1="706.499" x2="1130.07" y2="735.932"
            gradientUnits="userSpaceOnUse">
            <stop stop-color="#293656" />
            <stop offset="0.0001" stop-color="#384157" />
            <stop offset="0.867708" stop-color="#4D525D" />
        </linearGradient>
        <linearGradient id="paint4_linear_26" x1="1099.13" y1="696.427" x2="1099.88" y2="721.754"
            gradientUnits="userSpaceOnUse">
            <stop stop-color="#293656" />
            <stop offset="0.0001" stop-color="#384157" />
            <stop offset="0.867708" stop-color="#4D525D" />
        </linearGradient>
        <linearGradient id="paint5_linear_26" x1="1475.75" y1="392.483" x2="1478.97" y2="510.529"
            gradientUnits="userSpaceOnUse">
            <stop stop-color="#293656" />
            <stop offset="0.0001" stop-color="#384157" />
            <stop offset="0.867708" stop-color="#4D525D" />
        </linearGradient>
        <linearGradient id="paint6_linear_26" x1="1436.42" y1="365.79" x2="1438.29" y2="400.579"
            gradientUnits="userSpaceOnUse">
            <stop stop-color="#293656" />
            <stop offset="0.0001" stop-color="#384157" />
            <stop offset="0.867708" stop-color="#4D525D" />
        </linearGradient>
        <linearGradient id="paint7_linear_26" x1="1045.96" y1="292.694" x2="1048.31" y2="472.967"
            gradientUnits="userSpaceOnUse">
            <stop stop-color="#293656" />
            <stop offset="0.0001" stop-color="#384157" />
            <stop offset="0.867708" stop-color="#4D525D" />
        </linearGradient>
        <linearGradient id="paint8_linear_26" x1="1192.27" y1="170.778" x2="1196.46" y2="355.432"
            gradientUnits="userSpaceOnUse">
            <stop stop-color="#293656" />
            <stop offset="0.0001" stop-color="#384157" />
            <stop offset="0.867708" stop-color="#4D525D" />
        </linearGradient>
        <linearGradient id="paint9_linear_26" x1="1085.83" y1="166.017" x2="1086.19" y2="190.992"
            gradientUnits="userSpaceOnUse">
            <stop stop-color="#293656" />
            <stop offset="0.0001" stop-color="#384157" />
            <stop offset="0.867708" stop-color="#4D525D" />
        </linearGradient>
        <linearGradient id="paint10_linear_26" x1="914.116" y1="410.032" x2="914.92" y2="439.421"
            gradientUnits="userSpaceOnUse">
            <stop stop-color="#293656" />
            <stop offset="0.0001" stop-color="#384157" />
            <stop offset="0.867708" stop-color="#4D525D" />
        </linearGradient>
        <linearGradient id="paint11_linear_26" x1="860.477" y1="388.003" x2="861.045" y2="409.057"
            gradientUnits="userSpaceOnUse">
            <stop stop-color="#293656" />
            <stop offset="0.0001" stop-color="#384157" />
            <stop offset="0.867708" stop-color="#4D525D" />
        </linearGradient>
        <linearGradient id="paint12_linear_26" x1="1139.83" y1="110.828" x2="1135.34" y2="109.017"
            gradientUnits="userSpaceOnUse">
            <stop stop-color="#6AAEFF" stop-opacity="0.8" />
            <stop offset="0.661735" stop-color="#7B61FF" stop-opacity="0.1" />
        </linearGradient>
        <linearGradient id="paint13_linear_26" x1="1155.63" y1="120.401" x2="1151.14" y2="118.589"
            gradientUnits="userSpaceOnUse">
            <stop stop-color="#6AAEFF" stop-opacity="0.8" />
            <stop offset="0.661735" stop-color="#7B61FF" stop-opacity="0.1" />
        </linearGradient>
        <radialGradient id="paint14_radial_26" cx="0" cy="0" r="1" gradientUnits="userSpaceOnUse"
            gradientTransform="translate(639 437) rotate(90) scale(75.7286)">
            <stop stop-color="#886BFF" />
            <stop offset="1" stop-color="#EFCFFF" stop-opacity="0" />
        </radialGradient>
        <radialGradient id="paint15_radial_26" cx="0" cy="0" r="1" gradientUnits="userSpaceOnUse"
            gradientTransform="translate(639 437) rotate(90) scale(38.807)">
            <stop stop-color="#4A63E7" stop-opacity="0.5" />
            <stop offset="1" stop-color="#E1CFFF" stop-opacity="0" />
        </radialGradient>
        <radialGradient id="paint16_radial_26" cx="0" cy="0" r="1" gradientUnits="userSpaceOnUse"
            gradientTransform="translate(639 437) rotate(90) scale(19)">
            <stop stop-color="#8289FF" stop-opacity="0" />
            <stop offset="1" stop-color="#C4BFFF" stop-opacity="0.1" />
            <stop offset="1" stop-color="#C4BFFF" stop-opacity="0.15" />
        </radialGradient>
        <linearGradient id="paint17_linear_26" x1="639.5" y1="247" x2="639.5" y2="437" gradientUnits="userSpaceOnUse">
            <stop stop-color="#FFA337" />
            <stop offset="0.393173" stop-color="#2AF6FF" />
        </linearGradient>
        <linearGradient id="paint18_linear_26" x1="650" y1="196.5" x2="774" y2="259.5" gradientUnits="userSpaceOnUse">
            <stop offset="0.135842" stop-color="#FFA337" stop-opacity="0.6" />
            <stop offset="0.818046" stop-color="#3717B4" stop-opacity="0.5" />
        </linearGradient>
        <radialGradient id="paint19_radial_26" cx="0" cy="0" r="1" gradientUnits="userSpaceOnUse"
            gradientTransform="translate(862 714) rotate(90) scale(79)">
            <stop stop-color="#5359E8" />
            <stop offset="1" stop-color="#EFCFFF" stop-opacity="0" />
        </radialGradient>
        <radialGradient id="paint20_radial_26" cx="0" cy="0" r="1" gradientUnits="userSpaceOnUse"
            gradientTransform="translate(862 714) rotate(90) scale(38.807)">
            <stop stop-color="#4A63E7" stop-opacity="0.5" />
            <stop offset="1" stop-color="#E1CFFF" stop-opacity="0" />
        </radialGradient>
        <radialGradient id="paint21_radial_26" cx="0" cy="0" r="1" gradientUnits="userSpaceOnUse"
            gradientTransform="translate(862 714) rotate(90) scale(19)">
            <stop stop-color="#8289FF" stop-opacity="0" />
            <stop offset="1" stop-color="#C4BFFF" stop-opacity="0.1" />
            <stop offset="1" stop-color="#C4BFFF" stop-opacity="0.15" />
        </radialGradient>
        <linearGradient id="paint22_linear_26" x1="862.5" y1="594" x2="862.5" y2="714" gradientUnits="userSpaceOnUse">
            <stop stop-color="#FFA337" />
            <stop offset="1" stop-color="#2AF2FF" />
        </linearGradient>
        <linearGradient id="paint23_linear_26" x1="868" y1="564.5" x2="1019.73" y2="741.511"
            gradientUnits="userSpaceOnUse">
            <stop offset="0.135842" stop-color="#FFA337" stop-opacity="0.6" />
            <stop offset="0.818046" stop-color="#3717B4" stop-opacity="0.5" />
        </linearGradient>
        <radialGradient id="paint24_radial_26" cx="0" cy="0" r="1" gradientUnits="userSpaceOnUse"
            gradientTransform="translate(848 504) rotate(90) scale(81.7719)">
            <stop stop-color="#8C53E8" />
            <stop offset="1" stop-color="#EFCFFF" stop-opacity="0" />
        </radialGradient>
        <radialGradient id="paint25_radial_26" cx="0" cy="0" r="1" gradientUnits="userSpaceOnUse"
            gradientTransform="translate(848 504) rotate(90) scale(38.807)">
            <stop stop-color="#4A63E7" stop-opacity="0.5" />
            <stop offset="1" stop-color="#E1CFFF" stop-opacity="0" />
        </radialGradient>
        <radialGradient id="paint26_radial_26" cx="0" cy="0" r="1" gradientUnits="userSpaceOnUse"
            gradientTransform="translate(848 504) rotate(90) scale(19)">
            <stop stop-color="#8289FF" stop-opacity="0" />
            <stop offset="1" stop-color="#C4BFFF" stop-opacity="0.1" />
            <stop offset="1" stop-color="#C4BFFF" stop-opacity="0.15" />
        </radialGradient>
        <linearGradient id="paint27_linear_26" x1="95774.9" y1="314.833" x2="95774.9" y2="503.996"
            gradientUnits="userSpaceOnUse">
            <stop stop-color="#FFA337" />
            <stop offset="1" stop-color="#2AF2FF" />
        </linearGradient>
        <linearGradient id="paint28_linear_26" x1="855" y1="296.5" x2="991.745" y2="380.227"
            gradientUnits="userSpaceOnUse">
            <stop offset="0.135842" stop-color="#FFA337" stop-opacity="0.6" />
            <stop offset="0.818046" stop-color="#3717B4" stop-opacity="0.5" />
        </linearGradient>
    </defs>





<style>
    <!-- .path {
        stroke-dasharray: 1000;
        stroke-dashoffset: 1000;
        animation: dash 20s linear infinite;
    }

    @keyframes dash {
        to {
            stroke-dashoffset: -1010;
        }
    } -->

    .dot {
         animation: opacitydot 5s linear infinite;
    }
    @keyframes opacitydot {
        0% {
            opacity: 0;
        }

        50% {
            opacity: 0.3;
        }

        100% {
            opacity: 0;
        }
    }


    .dashline {
        stroke-dasharray: 4;
        stroke-dashoffset: 4;
        animation: dash 10s linear infinite;
    }
    @keyframes dash {
        to {
            stroke-dashoffset: -210;
        }
    }

    .city {
        animation: city 3s ease-in-out infinite;
    }
    
     @keyframes city {
        0% {transform:translateX(0)}
        50% {transform:translateX(10px)}
        100% {transform:translateX(0)}
    }
    
    </style>


</svg>