<svg width="1554" height="720" viewBox="0 0 1554 720" fill="none" xmlns="http://www.w3.org/2000/svg">
<g opacity="0.2">
<path fill-rule="evenodd" clip-rule="evenodd" d="M9.97447 600.957L354.001 795.005C353.733 795.239 353.464 795.55 353.061 795.861C350.239 798.426 352.389 799.048 355.681 800.253C359.78 801.847 353.061 806.278 359.847 805.384C367.776 804.374 362.132 808.105 364.819 809.582C366.634 810.632 369.321 811.176 366.97 812.692C365.894 813.392 369.993 814.13 368.448 815.413C367.574 816.152 365.29 816.774 367.642 817.512C370.531 818.406 371.404 819.456 373.219 820.894C374.361 821.71 375.033 822.332 376.242 823.032C377.384 823.693 379.064 823.498 380.543 823.576C382.491 823.615 382.827 823.498 383.768 824.431C385.38 825.986 387.732 824.781 390.084 825.131C391.428 825.364 392.772 826.219 394.115 826.608C395.527 827.036 395.93 826.414 397.274 826.258C399.356 826.064 401.977 827.269 403.724 826.647C404.665 826.336 404.732 825.675 405.202 825.17C405.471 824.859 405.74 824.548 406.076 824.276L613.029 940.58C626.871 939.57 641.452 939.375 642.527 929.269C643.132 924.332 647.365 920.717 655.227 918.812C662.954 916.907 666.582 919.473 671.42 914.731C675.787 913.137 677.534 913.836 680.289 910.688C682.44 908.2 684.321 905.324 687.345 903.186C691.914 899.998 699.977 901.009 703.404 896.616C704.008 895.8 704.613 891.019 707.435 892.574C713.819 896.189 709.787 888.026 714.826 889.075C717.447 889.58 717.783 885.732 718.925 884.449C720.941 882.273 722.218 879.59 724.637 877.647C727.795 876.209 729.071 875.859 733.103 875.703C736.194 875.548 738.21 873.915 740.225 872.749C742.308 871.544 744.257 871.972 745.937 871.155C749.767 869.406 752.186 867.618 757.494 867.501C763.608 867.385 770.059 867.151 775.434 865.286C782.154 862.953 781.011 857.317 782.96 853.469C787.395 850.592 788.201 844.606 790.015 840.758C791.561 837.453 792.367 834.344 791.964 830.923C791.628 828.396 796.734 827.463 798.481 825.209C799.96 823.343 800.497 821.944 801.236 820.039C801.707 818.834 802.916 818.523 803.857 817.512C805.738 815.569 804.529 814.247 808.023 812.614C811.786 810.826 811.046 813.742 811.987 809.621C814.809 805.889 814.272 804.49 808.963 802.197C803.454 799.787 796.466 793.412 788.671 793.8C779.063 794.306 768.715 791.429 759.308 791.896C753.328 793.023 745.198 791.896 739.889 793.8C736.866 794.85 734.581 796.327 731.692 797.454C727.391 799.087 722.755 800.214 718.186 801.614C715.7 803.285 708.242 803.868 704.546 803.829C696.08 803.829 689.898 806.861 684.254 810.204C678.878 813.392 681.633 818.251 676.527 821.594C674.376 822.915 669.135 825.481 665.574 825.053C660.938 824.47 657.78 822.177 653.009 821.438C651.061 821.166 649.314 820.466 647.298 820.622C646.021 820.739 643.401 821.244 642.46 820.7C644.61 819.456 647.701 819.145 650.389 819.767C656.839 821.399 662.618 822.954 669.471 821.477C673.637 820.622 675.519 817.201 676.728 815.024C678.878 811.215 680.76 808.883 684.321 805.423C689.36 802.819 695.072 798.737 701.589 797.61C717.111 794.928 718.858 793.606 724.637 784.743C725.98 782.644 731.221 778.99 734.178 777.513C739.419 774.87 739.15 771.682 742.375 768.495L761.593 757.611C766.027 755.123 769.387 754.656 763.205 752.246C760.719 751.275 756.284 750.964 753.328 750.575C749.162 750.031 742.846 747.154 738.814 747.854C733.976 748.709 729.609 751.78 724.368 750.225C718.388 746.221 717.38 752.169 710.325 751.43C707.973 751.158 713.684 749.797 714.154 749.525C720.202 745.949 719.933 747.271 727.19 748.126C736.261 749.176 739.755 741.634 745.668 739.458C748.624 738.369 753.462 735.959 757.158 736.464C762.265 737.164 764.683 734.754 767.371 732.344C771.47 730.206 774.426 728.573 768.648 726.863C765.423 725.93 763.877 727.368 761.257 728.107C759.308 728.69 756.687 728.573 754.806 728.107C753.395 727.757 757.695 726.747 758.099 726.513C762.6 724.22 760.383 724.803 766.229 724.764C768.11 724.764 771.873 724.453 772.612 723.248C767.842 719.866 757.964 720.372 751.178 719.866C745.332 719.439 745.735 718.817 741.771 716.601C736.328 713.53 733.237 714.385 725.913 714.346C724.301 714.424 722.822 713.802 721.21 713.724C717.245 713.53 716.103 713.258 713.147 711.625C709.317 709.487 706.965 712.714 703.202 712.792C699.574 712.869 696.483 713.802 693.459 712.053C694.265 711.742 697.222 711.742 698.23 711.781C700.918 711.859 704.815 710.77 706.629 709.721C710.795 707.388 710.459 707.583 715.498 708.943C718.388 711.159 729.407 711.47 733.775 710.809C740.292 709.837 743.854 708.71 749.632 706.922C753.664 705.678 757.695 704.901 762.063 704.162C766.632 703.462 767.909 703.657 769.118 701.247C770.126 699.186 772.948 699.808 775.569 699.925C778.256 700.003 782.691 695.338 779.466 694.638C774.494 693.55 776.241 695.183 774.158 691.956C773.15 690.363 772.343 690.829 769.857 690.79C767.035 690.79 768.984 687.33 770.193 687.02C772.612 686.475 775.703 689.507 777.517 688.691C780.541 687.175 776.375 686.242 774.023 686.514C772.679 686.67 770.462 685.387 769.79 684.765C769.454 684.415 778.458 685.348 780.339 685.97C782.49 686.67 784.371 688.38 787.126 688.186C791.292 687.875 789.276 686.475 789.612 684.959C789.814 683.988 796.6 684.415 798.414 684.532C803.722 684.882 800.968 685.698 805.268 683.132C804.394 682.627 796.734 682.627 794.92 682.433C787.26 681.5 776.241 678.779 771.672 674.814C771.336 674.542 771.336 674.542 771.873 674.697L775.837 675.669C779.533 676.563 791.695 677.924 794.92 675.98C796.197 675.241 788.201 674.503 787.126 674.114C784.64 673.22 785.513 671.704 783.43 670.81C781.414 669.955 773.687 666.495 780.675 668.206L794.786 671.704C797.809 672.443 803.05 670.188 803.79 668.594C803.991 668.167 800.968 667.273 800.296 666.884C798.078 665.523 793.778 663.891 798.414 663.541C805.201 662.958 811.651 664.124 818.706 662.997C824.754 661.986 821.663 658.721 819.244 656.933C818.774 656.583 815.145 652.54 816.623 653.395L821.932 656.544C825.358 658.604 827.643 657.749 828.718 660.859C829.86 664.163 829.323 663.152 834.497 662.958C836.244 661.325 839.805 661.442 842.089 660.742C843.635 660.237 842.896 659.654 843.702 659.187C845.046 658.488 848.742 658.604 850.892 657.516C851.765 657.088 856.469 655.3 855.931 654.523C853.579 651.063 856.939 653.007 860.836 652.54C862.18 652.385 866.749 651.53 866.413 650.791C864.868 647.876 871.52 648.459 874.544 648.42C877.164 648.381 878.911 647.215 880.053 645.854C881.868 643.561 882.472 643.911 885.563 642.822C888.721 642.939 900.077 643.133 902.16 642.084C905.049 640.645 908.207 637.186 910.492 635.242C914.053 632.249 920.772 632.016 924.938 629.761C930.112 626.924 927.021 627.701 927.357 624.708C928.902 623.814 929.642 622.687 930.986 621.909C936.227 622.298 930.65 626.069 940.796 624.63C949.665 623.386 953.898 620.005 961.357 617.322C963.91 615.923 967.807 615.69 970.764 614.835C971.637 614.563 974.526 612.658 975.736 613.357C977.147 614.174 976.677 614.524 978.961 614.757C982.321 615.068 980.103 616.506 981.649 617.4C981.85 617.517 986.352 618.566 986.621 618.566C988.368 618.489 990.115 617.4 991.728 617.089C995.759 616.234 1006.58 613.941 1007.85 617.556C1008.39 618.255 1009.94 619.305 1011.28 618.683C1015.72 619.072 1018.47 622.454 1023.31 622.609C1027 622.726 1032.51 623.114 1036.08 623.775C1038.9 624.319 1042.86 624.825 1045.48 624.008C1049.18 622.881 1053.48 622.181 1057.38 623.425C1061.81 624.825 1065.37 623.309 1069.27 624.397C1071.08 624.747 1073.1 626.457 1074.85 626.457C1076.86 626.457 1076.26 624.553 1078.94 625.097C1080.49 625.447 1082.03 626.496 1083.58 626.691C1085.8 626.963 1084.99 624.864 1085.53 624.242C1086.47 624.319 1088.69 625.68 1088.89 626.185C1089.49 627.468 1083.65 630.15 1089.9 631.2C1092.92 631.705 1095.07 633.104 1098.56 633.571C1105.42 634.504 1109.05 634.426 1114.22 631.355C1116.24 630.189 1119.6 630.578 1121.75 629.256C1124.7 627.468 1125.11 627.623 1129 627.079C1134.92 626.535 1143.65 625.058 1142.24 620.51C1141.57 618.255 1140.22 619.655 1138.81 618.139C1137.27 616.545 1137.67 616.623 1140.09 615.768C1142.31 616.506 1146.88 619.694 1144.73 621.248C1143.72 621.987 1142.51 624.397 1142.11 625.408C1141.77 626.302 1144.73 625.602 1145.73 626.496C1146.47 627.157 1145.6 627.585 1146.94 628.362C1148.49 629.256 1157.49 630.344 1155.81 631.938L1155.88 631.977C1155.48 632.444 1157.16 632.405 1157.96 631.705C1159.37 630.5 1160.45 628.79 1163.67 629.178C1167.3 629.645 1168.65 630.111 1171.87 631.277C1174.96 632.988 1184.97 634.115 1189.34 634.076C1194.78 634.037 1194.05 633.532 1191.56 632.094C1189.68 631.005 1183.76 630.928 1188.6 629.295C1192.03 628.168 1193.98 629.684 1197.67 629.878C1201.84 630.111 1202.71 629.139 1206.41 628.945C1207.75 628.867 1212.46 628.634 1212.66 627.429C1212.79 626.418 1208.49 626.341 1209.84 625.019C1211.11 623.814 1217.7 624.047 1219.44 624.98C1222.06 626.418 1222.4 623.425 1225.63 624.358C1230.46 625.758 1234.5 623.659 1238.33 625.175C1242.36 626.729 1248.34 625.291 1253.65 626.574C1261.51 627.623 1261.78 632.755 1271.25 630.539C1273.94 629.917 1283.81 630.655 1287.51 630.694C1293.22 630.733 1294.23 626.963 1300.28 629.45C1310.83 633.843 1301.76 627.429 1308.34 624.786C1309.89 624.203 1312.71 624.669 1314.39 624.397C1316.81 624.008 1313.72 622.454 1313.51 621.793C1313.25 620.704 1316.13 621.287 1316.94 621.443C1318.69 621.676 1318.28 622.22 1318.22 623.114C1318.15 623.853 1322.79 620.316 1323.06 620.238C1325.68 619.577 1332.26 622.298 1334.75 621.093C1336.96 619.966 1334.21 618.294 1335.42 616.817C1336.36 615.651 1338.98 616.39 1340.66 614.407C1344.29 610.831 1343.55 610.481 1342.47 607.06C1343.48 606.477 1344.69 607.488 1345.77 607.566C1348.05 606.555 1348.59 605.156 1352.22 604.145C1354.3 603.562 1356.92 604.922 1357.86 603.523C1360.08 600.297 1364.98 602.124 1369.28 601.89C1376.54 601.502 1384.33 596.06 1386.28 592.289C1388.37 588.13 1400.33 589.218 1395.35 583.154C1395.42 582.416 1392.87 580.705 1393.81 580.161C1395.02 580.316 1397.3 581.949 1398.71 581.211C1400.33 580.355 1401.33 577.362 1404.09 578.179C1408.12 579.422 1404.43 579.461 1402.75 581.055C1403.28 581.521 1406.17 582.182 1407.31 582.843C1410.94 584.864 1417.66 578.412 1420.55 577.284C1423.98 575.924 1427.54 574.719 1431.84 574.874C1436.21 574.991 1434.53 574.486 1435.2 572.464C1437.89 564.535 1448.5 562.202 1459.59 559.52C1461.81 558.781 1469.74 557.304 1469.27 555.788C1468.26 552.329 1470.95 553.262 1473.7 551.901C1476.72 550.385 1482.5 552.718 1485.06 551.785C1485.33 551.707 1485.73 549.919 1486.27 549.452C1487.34 548.597 1492.58 550.774 1493.86 548.014C1494.73 546.187 1493.66 545.954 1496.35 544.399C1500.11 542.144 1503.47 538.801 1507.57 536.974C1512.2 534.914 1517.85 534.603 1522.62 532.932C1524.84 532.193 1527.12 531.26 1529.4 532.115C1530.95 532.699 1532.09 532.349 1533.64 532.699C1534.78 532.893 1537.2 534.137 1538.54 533.282C1540.76 531.766 1532.49 529.317 1540.02 528.306C1544.52 527.723 1546.81 526.09 1549.76 524.302C1549.83 524.341 1549.83 524.341 1549.97 524.263C1550.77 524.73 1551.44 527.062 1551.11 527.723C1549.63 530.91 1543.78 530.794 1542.31 533.515C1541.9 534.292 1540.89 534.875 1540.09 535.575C1539.21 536.314 1538.74 536.974 1540.76 536.741C1541.9 536.625 1541.7 537.441 1542.57 537.713C1544.25 538.218 1546.47 536.547 1548.89 536.858C1556.21 537.83 1552.05 534.487 1555.07 533.748C1559.98 532.621 1557.29 533.709 1560.11 534.642L1563.07 534.564C1566.29 533.165 1573.55 534.331 1573.62 531.416C1573.62 530.638 1574.76 530.211 1575.5 529.628C1578.45 527.295 1579.93 530.716 1583.83 529.705C1586.85 528.967 1583.9 526.324 1585.78 526.246C1586.79 526.207 1588.74 526.946 1589.27 526.479C1590.15 525.663 1588.94 525.196 1589.61 524.341C1591.56 522.048 1591.49 518.044 1598.28 520.337C1600.7 518.86 1603.45 517.655 1601.84 515.634C1602.11 514.623 1603.58 514.157 1603.52 513.185C1603.45 512.369 1602.78 512.524 1602.11 511.98C1600.7 510.775 1605.8 507.432 1607.89 507.082C1610.04 506.693 1611.45 505.1 1611.18 503.856C1610.71 501.096 1612.39 500.668 1615.01 498.686C1618.37 496.198 1610.3 495.809 1608.09 495.382C1604.66 493.088 1604.32 493.749 1600.63 495.965C1597.87 497.558 1591.62 499.463 1587.79 500.046C1584.7 500.513 1581.75 500.59 1578.99 501.64C1576.64 502.534 1571.53 506.499 1568.98 506.033C1566.36 505.605 1563.2 501.99 1563.81 500.707C1564.34 499.541 1565.22 497.636 1567.03 496.975C1569.79 495.926 1571.8 496.004 1574.36 494.526C1582.76 492.622 1591.02 490.095 1593.37 484.847C1595.45 480.299 1599.08 475.868 1601.23 471.281C1601.37 471.048 1602.31 468.871 1600.7 469.338C1597.94 470.154 1595.86 473.924 1595.05 475.557C1593.91 477.928 1591.62 478.55 1588.94 480.26C1587.39 481.232 1587.32 482.515 1585.51 483.409C1582.69 486.83 1577.92 486.091 1574.09 483.953C1571.87 482.671 1567.97 488.735 1566.29 489.007C1554.67 490.678 1552.45 498.725 1537.33 497.831C1535.12 497.714 1531.29 498.841 1528.67 498.958C1523.16 499.191 1526.31 501.951 1523.36 503.584C1522.48 504.089 1519.59 502.806 1518.25 502.884C1515.76 503.078 1512.87 504.827 1510.72 505.527C1507.03 508.132 1507.7 509.375 1501.92 510.619C1498.5 511.358 1495.61 511.241 1492.18 510.969C1490.63 510.853 1490.97 513.379 1488.55 512.058C1484.65 509.881 1484.12 511.436 1480.08 510.814C1478.27 510.542 1477.06 510.542 1475.25 510.736C1473.57 510.93 1470.95 512.291 1469.54 512.096C1466.78 511.747 1464.83 511.086 1461.88 511.164C1454.55 511.436 1464.76 503.273 1464.9 502.651C1465.84 502.029 1469.27 499.968 1469.13 499.191C1469 497.481 1470.74 497.792 1471.95 496.626C1472.76 495.926 1472.89 495.071 1473.57 494.371C1474.57 493.321 1475.65 492.777 1476.19 491.533C1476.39 490.95 1477.6 488.385 1478.2 488.19C1478.61 488.035 1481.63 487.685 1480.42 486.908C1479.48 486.286 1478.14 486.208 1477.2 485.508C1476.05 484.614 1475.58 484.497 1474.04 485.314C1471.95 486.441 1471.48 486.402 1470.01 485.081C1469.27 484.497 1467.99 484.925 1466.91 484.925C1465.44 485.158 1461.94 489.59 1460.46 490.6C1457.17 493.049 1453.54 491.805 1450.12 493.866C1445.21 496.781 1437.22 498.53 1434.33 502.534C1431.91 505.877 1430.09 507.237 1423.31 507.432C1416.72 507.587 1420.55 514.001 1411.55 511.98C1409.13 513.068 1408.26 512.563 1405.23 513.535C1402.61 513.651 1399.18 514.157 1396.63 514.623C1393 515.245 1391.19 517.383 1387.83 518.316C1382.25 519.832 1375.06 517.461 1370.09 515.828C1365.79 514.429 1369.35 512.369 1367.81 510.075C1365.72 506.926 1361.36 504.944 1359.54 501.484C1360.35 499.93 1363.44 499.852 1363.24 497.947C1363.03 496.587 1361.35 495.77 1361.02 494.488C1360.82 493.827 1360.88 493.399 1359.61 493.904C1358.06 494.488 1357.05 495.459 1355.44 496.004C1355.17 495.848 1355.04 493.904 1354.5 493.36C1353.56 492.35 1352.49 491.572 1351.07 490.756C1347.92 489.007 1344.96 491.805 1342.47 492.855C1341.33 493.36 1340.86 492.777 1339.85 493.671C1338.85 494.565 1339.18 495.615 1337.43 496.159C1335.82 496.703 1334.81 497.364 1333.34 497.908C1331.99 498.452 1329.98 497.753 1328.77 497.364C1327.62 498.025 1329.1 501.446 1328.09 502.728C1329.84 508.326 1311.09 511.552 1315.06 515.167C1316.81 516.722 1310.69 519.404 1309.68 520.687C1307.33 523.525 1304.17 527.606 1298.19 528.345C1294.83 528.734 1293.36 530.91 1290.94 531.066C1283.08 531.649 1275.68 530.483 1269.3 527.878C1268.7 527.606 1266.61 526.246 1266.01 526.44C1261.24 527.878 1260.16 525.857 1255.53 524.419C1253.38 524.03 1250.89 521.892 1249.75 520.765C1248.4 519.366 1246.05 520.26 1243.77 519.793C1242.49 519.521 1240.61 518.899 1239.33 518.938C1236.85 518.899 1234.83 520.609 1232.41 520.454C1229.25 520.26 1225.22 519.327 1222.47 520.687C1217.29 523.214 1216.62 524.613 1209.03 523.486C1201.3 522.359 1202.51 519.482 1197.34 517.5C1194.58 516.45 1192.16 516.917 1188.8 515.284C1183.5 511.902 1179.33 510.036 1171.54 509.026C1165.82 508.287 1160.18 506.343 1156.28 503.778C1153.66 502.029 1152.12 501.757 1151.18 504.944C1150.71 506.616 1149.5 506.46 1147.21 507.393C1145.06 508.326 1144.26 510.192 1141.77 510.542C1138.81 510.93 1135.99 509.764 1133.44 508.987C1132.09 508.598 1124.9 510.269 1122.75 510.425C1115.83 510.464 1119.73 514.818 1113.68 514.507C1108.04 514.196 1110.79 518.666 1105.42 518.666C1102.06 518.666 1099.84 517.305 1097.35 516.178C1092.99 514.196 1091.11 514.662 1085.93 514.39C1080.69 514.157 1091.31 517.189 1083.31 518.16C1079.88 518.588 1072.76 513.068 1067.05 514.973C1060.87 517.072 1064.83 517.5 1058.05 515.362C1053.81 514.079 1050.92 516.45 1047.7 516.372C1045.75 516.333 1044.54 514.779 1042.46 516.139C1039.17 518.277 1038.96 516.994 1034.46 517.266C1031.37 517.189 1029.83 517.072 1027.88 518.588C1024.58 521.037 1023.78 518.782 1021.76 519.249C1019.81 519.754 1021.23 520.648 1020.62 521.387C1019.41 522.786 1017.33 521.659 1015.72 522.281C1013.63 523.097 1012.69 520.92 1010.14 520.998C1004.36 521.154 1003.82 518.433 999.455 518.394C996.902 518.394 997.103 516.644 995.02 516.528C991.661 516.372 991.728 515.945 989.779 514.273C988.301 513.029 985.277 511.669 982.455 511.902C979.23 512.135 974.459 513.418 971.839 511.669C969.487 509.142 969.084 509.764 965.321 509.142C962.902 508.753 964.515 506.888 963.305 506.266C961.222 507.082 962.297 506.849 961.222 508.17C960.886 508.52 959.811 509.997 958.669 509.492C958.535 509.57 952.823 509.531 951.479 509.764C948.59 510.269 945.634 508.87 943.349 508.015C937.302 505.683 934.547 504.633 931.053 500.901C928.835 498.452 925.812 498.491 929.238 496.431C931.993 494.76 939.385 488.618 939.653 486.519C941.199 485.78 942.475 484.964 944.626 485.042C945.701 485.119 947.582 485.508 948.59 485.236C951.479 484.497 953.294 482.049 954.906 480.571C956.317 479.211 957.795 479.211 959.946 478.589C961.827 478.045 963.641 477.462 963.372 476.062C965.187 471.048 969.689 472.719 974.862 469.804C978.491 467.783 983.194 467.705 982.052 464.09C981.38 461.913 983.329 462.107 985.277 460.902C986.621 460.125 987.629 459.231 989.174 458.492C990.787 457.793 992.332 457.365 993.273 456.199C997.372 453.594 1000.19 450.64 1001.87 447.414C1002.55 446.092 998.649 441.505 996.297 442.866C994.012 444.187 991.862 443.255 991.526 441.661C991.19 440.067 987.495 438.629 985.613 437.54C984.135 436.685 984.135 435.985 983.194 435.053C979.095 431.282 972.847 434.586 969.084 431.476C965.657 428.639 963.91 430.505 959.139 430.932C949.732 433.731 946.037 431.515 937.57 429.96C933.673 429.261 919.496 427.978 916.203 429.261C910.76 431.399 908.879 428.833 904.176 429.377C900.816 429.766 900.144 431.399 897.255 432.448C894.097 434.353 891.275 434.042 887.445 434.547C884.757 434.936 887.713 437.657 883.48 437.385C881.8 437.268 880.322 438.357 880.591 439.29C881.397 442.244 881.868 441.894 877.634 443.954C875.014 445.237 869.638 450.135 866.077 449.474C865.137 449.318 861.911 447.608 861.508 447.997C859.963 449.28 861.105 451.184 858.35 452.156C852.639 454.061 843.836 451.145 840.208 452.389C837.05 453.439 833.489 454.566 832.884 456.626C831.473 461.33 826.165 456.937 822.469 457.831C816.623 459.581 812.122 462.263 805.268 462.574C798.683 462.885 793.173 463.507 786.924 464.789C784.371 465.334 778.055 464.09 777.584 464.284H777.316C774.494 465.606 772.478 469.104 769.32 469.532C766.094 469.998 762.197 468.754 761.122 471.32C760.114 473.613 747.012 477.85 743.249 477.151C741.636 477.617 740.897 478.589 739.285 479.211C736.597 480.222 732.498 480.105 730.012 481.154C728.534 482.632 726.048 485.547 723.091 485.081C716.103 483.992 721.613 491.766 715.297 491.222C708.981 490.678 709.048 491.961 706.629 495.148C704.344 498.258 695.341 496.159 692.586 494.487C690.503 493.205 691.443 491.028 688.823 490.134C685.665 489.084 683.044 488.968 683.246 486.13C683.313 484.925 683.179 481.271 680.894 480.805C678.005 480.222 675.183 477.889 672.898 476.49C670.882 475.246 671.487 474.041 670.412 472.719C668.396 470.232 665.171 471.32 661.744 470.348C658.049 469.299 655.764 468.754 653.412 466.616C650.456 463.818 648.306 458.531 640.914 461.719C637.622 463.157 631.239 463.507 627.274 463.468C620.622 463.429 612.761 464.323 606.445 462.846C600.397 461.058 595.425 463.157 588.235 462.03C580.911 460.825 573.654 462.768 566.465 463.04C559.275 463.312 557.528 463.546 554.908 468.016C553.564 470.27 551.078 470.776 547.651 471.825C540.864 473.885 534.615 476.023 527.157 475.285C523.058 474.857 522.991 473.963 519.766 473.108C518.691 473.419 517.213 473.419 516.003 473.652C512.912 473.652 510.224 473.03 507.066 473.38C504.849 473.652 501.758 477.773 499.003 475.712C497.659 474.702 499.81 473.069 498.063 472.525C494.77 471.475 473.067 476.568 470.379 478.2C465.205 481.504 461.443 483.526 453.379 482.126C451.095 481.738 449.281 480.222 447.87 479.172C446.727 478.356 445.383 477.967 444.107 477.462C440.344 477.85 439 475.44 435.305 477.656C432.281 479.483 428.921 480.727 425.965 482.515C424.89 483.137 421.396 484.225 421.127 484.847C420.589 485.78 421.194 486.597 420.321 487.568C418.036 488.89 412.997 487.996 418.036 491.3C422 493.904 414.408 494.099 412.257 494.876C408.965 496.081 410.376 497.986 405.807 497.053C400.364 495.926 398.752 499.891 394.855 502.068C389.748 504.944 381.416 502.301 375.369 502.456C371.337 502.534 368.649 504.244 364.887 504.633C361.258 505.022 359.31 503.817 355.883 504.244C351.381 504.827 349.365 508.015 344.594 507.199C339.085 504.089 341.1 508.987 335.187 510.386C330.081 511.63 321.48 509.764 315.97 509.609C310.864 509.453 309.318 512.757 303.943 512.058C302.33 511.824 300.314 514.001 299.239 514.545C292.453 518.316 286.405 521.037 278.006 523.253C274.042 524.302 271.757 526.557 268.398 527.567C263.224 533.359 254.556 534.409 245.687 537.052C237.959 539.346 229.964 543.272 222.169 544.749C216.122 545.915 213.098 545.798 208.126 548.675C202.28 552.134 194.956 552.64 188.237 554.894C178.83 557.849 169.356 559.365 161.091 562.98C158.739 564.029 153.767 563.485 152.49 564.301C149.87 565.895 148.257 570.093 143.554 566.05C141.403 564.185 135.558 566.323 131.526 565.234C127.495 567.644 126.621 573.436 118.692 573.281C111.368 573.086 110.024 572.153 104.246 575.419C98.8033 577.557 88.254 578.762 81.8035 580.161C75.0842 581.638 69.5072 583.387 62.2504 584.165C57.211 584.748 55.5984 587.313 51.0292 587.935L38.8002 589.568C33.2232 590.306 28.1837 592.755 23.8834 594.155C20.5909 596.137 19.1799 596.254 15.2827 596.954C12.3262 597.498 11.5199 599.519 9.97447 600.957Z" fill="url(#paint0_linear_37)"/>
<path fill-rule="evenodd" clip-rule="evenodd" d="M1622.4 450.405C1620.04 450.988 1617.42 451.338 1615.27 452.038C1612.85 452.815 1610.57 453.826 1608.08 454.565C1604.25 455.148 1600.02 459.307 1597.53 459.19C1596.53 459.151 1590.95 456.392 1590.41 455.847C1589.34 454.759 1590.88 453.476 1590.81 452.349C1590.68 451.105 1585.37 451.921 1584.16 451.999C1578.65 452.388 1587.79 455.031 1583.29 455.847C1582.15 456.042 1578.59 455.07 1577.38 454.837C1570.39 453.437 1566.76 450.327 1558.5 451.921C1553.12 452.932 1553.66 454.798 1548.82 452.31C1545.73 450.677 1539.88 450.405 1545.19 448.578C1547.14 447.917 1553.59 447.373 1555.61 447.995C1556.61 448.345 1559.64 449.084 1560.71 449.006C1562.53 448.889 1563.8 447.296 1565.42 446.751C1567.63 446.013 1571.53 448.19 1573.48 447.062C1575.83 447.412 1579.73 448.501 1582.15 448.034C1584.57 447.568 1586.72 446.712 1588.8 445.896C1593.03 444.302 1588.4 447.917 1592.97 448.539C1597.13 449.161 1597.67 448.539 1601.43 447.917C1603.25 447.645 1605.26 447.956 1606.81 447.373C1611.78 445.43 1607.88 445.041 1605.06 443.486C1603.38 442.514 1605.6 438.044 1605.33 436.567C1606.94 435.245 1607.61 434.157 1608.62 432.641C1609.9 430.814 1615.61 434.351 1616.82 435.206C1621.19 438.355 1622.53 441.232 1624.75 444.924C1625.62 446.285 1626.76 447.257 1628.44 448.306C1631.13 450.017 1626.43 449.783 1624.81 450.017L1622.4 450.405Z" fill="url(#paint1_linear_37)"/>
<path fill-rule="evenodd" clip-rule="evenodd" d="M1505.76 459.11C1509.45 455.262 1507.91 453.824 1501.66 453.085C1499.51 452.852 1498.97 453.474 1497.09 454.018C1494.13 454.951 1495.07 454.018 1493.39 453.124C1491.18 451.841 1487.35 453.357 1484.99 451.142C1472.43 439.441 1513.42 444.261 1514.56 435.127C1515.23 430.229 1527.8 434.31 1532.23 433.611C1535.99 433.066 1538.95 432.444 1540.56 434.932C1542.44 437.731 1540.63 436.448 1545.53 436.409C1547.48 437.537 1553.26 435.204 1552.79 437.809C1552.66 438.819 1550.51 440.297 1550.98 441.191C1551.45 442.007 1552.39 443.484 1551.11 444.223C1549.36 443.989 1548.09 440.297 1545.27 441.385C1543.79 441.929 1543.65 443.406 1542.51 443.756C1540.7 444.339 1542.98 444.806 1543.05 445.622C1541.77 446.361 1539.02 446.555 1537.4 447.021C1534.31 447.877 1532.1 450.947 1529.21 452.308C1524.17 454.601 1519.19 451.647 1515.63 456.584C1514.63 458.022 1503.94 466.768 1505.29 460.626L1505.76 459.11Z" fill="url(#paint2_linear_37)"/>
<path fill-rule="evenodd" clip-rule="evenodd" d="M1467.38 465.994C1464.49 465.877 1461.6 465.372 1458.98 464.867C1455.02 464.128 1455.42 467.704 1450.72 464.283C1449.64 463.506 1447.49 462.884 1446.75 462.146C1445.14 460.28 1445.21 457.364 1445.74 455.421C1446.08 454.216 1446.42 453.011 1447.76 452.078C1448.3 451.689 1450.25 451.961 1451.19 451.883C1453.07 451.65 1454.21 450.756 1455.89 450.251C1457.1 449.862 1462.61 449.473 1464.15 449.745C1466.3 450.134 1469.33 451.261 1471.14 452C1475.31 453.71 1479.07 452.544 1479.88 456.198C1480.08 456.937 1480.82 458.22 1481.69 458.725C1484.11 460.046 1485.99 457.248 1486.66 459.502C1487 460.707 1488.61 461.64 1485.99 462.534C1485.05 462.845 1482.9 462.69 1482.5 463.156C1481.69 464.322 1479.61 466.227 1477.26 464.944C1474.37 463.351 1473.96 463.817 1470.6 465.216L1467.38 465.994Z" fill="url(#paint3_linear_37)"/>
<path fill-rule="evenodd" clip-rule="evenodd" d="M1702.62 7.34795C1699.19 6.53164 1692.68 5.48209 1688.98 5.13224C1686.43 6.60937 1684.88 7.9699 1680.65 7.15359C1678.3 6.726 1673.12 5.90967 1670.77 6.10402C1668.96 6.22064 1668.15 8.55294 1666.13 7.07582C1663.85 5.4432 1662.37 7.07585 1659.62 6.02631C1657.47 6.18179 1657.33 9.05831 1654.71 9.87462C1652.43 10.5743 1648.87 8.82507 1646.98 10.2245C1647.79 12.8677 1644.5 12.5179 1641.34 12.6345C1635.9 13.1398 1626.69 12.0903 1622.66 9.83571C1619.03 7.81438 1613.12 6.33726 1608.62 8.55295C1603.91 10.8853 1602.44 8.00878 1598.4 8.78622C1596.39 9.17493 1594.71 9.68022 1592.49 9.87458C1590.41 10.0689 1588.32 11.4295 1586.58 11.3517C1583.62 11.274 1581.81 9.60252 1579.39 8.82508C1576.3 7.65893 1575.09 6.02631 1571.19 6.88149C1567.56 7.65893 1565.55 5.55985 1562.39 5.05451C1560.1 4.6658 1559.23 5.55986 1557.21 5.48212C1554.66 5.40438 1554.86 3.11088 1551.37 4.66576C1547.94 6.18176 1546.67 1.40052 1544.99 2.91652C1544.18 3.61622 1544.72 6.10403 1542.57 5.79306C1539.88 5.40434 1539.81 6.84263 1537.06 7.42571C1534.37 7.96991 1531.95 10.069 1530.34 11.3129C1527.45 13.6063 1524.63 12.3624 1520.39 12.79C1516.16 13.2176 1513.07 14.1505 1508.84 13.6452C1505.21 13.1787 1501.18 13.8006 1502.65 16.4439C1503.53 17.9599 1508.63 16.7938 1510.99 17.2991C1511.05 17.338 1526.24 19.1261 1519.79 21.0697C1515.49 22.3136 1520.33 22.0803 1522.07 23.091C1524.22 24.3349 1523.62 25.8509 1525.5 27.0171C1527.52 28.2609 1529.67 29.5049 1531.01 31.0597C1532.15 32.3425 1532.69 35.7632 1537.33 34.3249C1540.82 34.0917 1542.1 34.0529 1545.46 35.0635C1547.47 35.6855 1547.47 37.0849 1549.15 38.0567C1553.12 40.2723 1557.68 39.8059 1562.19 39.2228C1565.28 38.8341 1569.51 39.8836 1573.27 39.5726C1577.31 39.2616 1588.06 37.3959 1591.21 38.7564C1593.77 39.8448 1595.31 41.5163 1599.01 41.1664C1603.24 40.7388 1606.74 39.3394 1611.04 38.873C1612.65 38.4065 1614.87 38.6009 1616.34 38.0567C1621.85 36.0353 1624.47 33.5087 1631.8 35.2579C1636.37 36.3463 1639.12 37.94 1642.15 40.2335L1647.79 44.5094C1649.74 46.0254 1644.57 48.0078 1647.32 48.2022C1650.61 48.3966 1653.37 48.9019 1656.93 48.7853C1660.69 48.6298 1664.52 48.2799 1668.22 48.7075L1679.64 50.1069C1682.19 50.4179 1684.21 48.552 1688.04 48.4354C1696.71 48.0856 1704.64 45.831 1711.49 42.6435C1715.59 40.7388 1720.16 40.0391 1724.39 38.5231C1728.56 37.046 1725.87 27.95 1728.42 24.918C1729.77 23.3631 1734.94 25.812 1733.06 22.8578C1732.59 22.1192 1730.84 18.854 1731.78 18.3098C1733.13 18.7762 1738.16 22.5468 1738.84 22.1581C1736.62 18.4653 1738.03 15.5499 1730.03 14.6558C1720.83 13.6063 1718.68 9.71912 1710.15 7.65892L1702.62 7.34795Z" fill="url(#paint4_linear_37)"/>
<path fill-rule="evenodd" clip-rule="evenodd" d="M1487.74 18.1492C1484.65 17.4495 1481.63 17.2551 1479.08 15.9335C1476.99 14.8839 1474.78 14.8451 1472.56 14.0288C1471.15 13.5235 1471.55 11.2689 1469.94 10.2582C1468.86 9.55856 1461.27 5.39925 1461 6.72089C1460.8 7.45945 1460.67 9.09208 1459.19 9.4808C1457.57 9.94726 1457.44 6.8375 1457.04 6.37104C1456.16 5.08827 1454.69 1.51206 1455.76 0.268158C1456.77 -0.936868 1459.46 -3.58016 1461.94 -2.60836C1464.76 -1.51995 1467.52 -1.63657 1469.87 -0.820267C1471.89 -0.120575 1472.69 1.51204 1474.84 2.28947C1477.8 3.45563 1479.01 2.13398 1480.55 2.56157C1488.21 4.81613 1492.18 11.1523 1498.23 14.573C1499.03 15.0395 1501.32 16.5166 1500.11 17.2163C1499.44 17.605 1497.08 16.3999 1497.02 17.2162C1496.95 18.188 1498.43 19.3542 1497.55 20.2483C1496.28 21.531 1492.72 20.015 1491.24 19.3153L1487.74 18.1492Z" fill="url(#paint5_linear_37)"/>
<path fill-rule="evenodd" clip-rule="evenodd" d="M1234.69 224.642C1235.02 220.949 1241.2 214.03 1237.78 211.192C1235.9 209.638 1234.01 209.249 1234.42 207.072C1234.89 205.09 1233.07 203.885 1235.9 202.174C1238.52 200.658 1240.94 196.693 1235.16 196.227C1232.07 195.994 1222.52 201.669 1220.44 195.644C1219.64 193.234 1231.6 187.17 1234.69 187.869C1239.46 188.997 1240.26 187.131 1238.52 184.332C1234.15 177.063 1265.19 183.904 1260.96 172.204C1261.77 171.271 1262.17 170.105 1263.31 169.289C1263.98 168.744 1265.06 168.2 1265.46 167.578C1266 166.723 1266.13 165.479 1266.47 164.585C1267.14 162.797 1265.12 158.988 1267.81 157.899C1269.76 157.083 1269.83 155.645 1269.63 154.362C1269.22 152.263 1266.87 150.358 1264.79 148.687C1261.97 147.365 1250.28 145.732 1247.25 146.782C1245.03 147.52 1243.56 147.52 1241.27 146.976C1238.38 146.315 1235.96 147.559 1233.28 147.326C1230.25 147.054 1226.96 144.76 1224.41 143.75C1222.86 143.089 1214.93 138.58 1215.47 137.647C1216.54 135.703 1220.58 137.491 1220.64 135.12C1225.35 133.021 1227.16 131.816 1232.74 130.689C1236.9 129.834 1233.95 126.568 1237.11 125.83C1239.46 125.247 1240.13 124.003 1239.39 122.565C1238.31 120.543 1238.25 118.561 1238.11 116.462C1238.05 113.78 1236.97 111.758 1235.22 109.271C1237.04 104.723 1229.92 103.945 1226.76 100.952C1223.73 98.1921 1219.17 95.3933 1213.39 94.8491C1209.89 94.5381 1206.67 94.3049 1204.72 92.4779C1202.77 90.651 1199.75 87.6578 1199.48 85.5587C1197.46 84.2371 1196.72 78.9894 1192.62 82.6822C1190 84.9757 1184.36 89.3293 1179.19 89.0572C1175.15 88.824 1173.21 92.6723 1171.66 91.8559C1170.45 91.234 1160.84 88.3186 1163.93 87.5412C1166.22 86.997 1167.63 87.8133 1169.98 86.4528C1167.9 84.1594 1161.24 83.654 1157.01 83.8484C1151.84 84.1205 1161.31 89.9901 1156.88 90.6121C1153.58 91.0397 1156.21 91.1563 1154.39 92.5168C1152.58 93.7218 1139.81 96.5206 1149.55 97.6478C1155.06 98.2698 1154.79 99.5137 1156.88 102.507C1158.42 104.723 1152.64 106.044 1149.69 106.977C1142.09 109.271 1142.57 107.055 1136.32 106.005C1132.55 105.383 1122.94 111.719 1119.18 112.575C1115.42 113.43 1111.32 116.501 1108.5 118.211C1107.29 118.911 1104.2 119.455 1103.79 119.844C1102.25 121.204 1104.06 122.72 1102.85 123.964C1104 125.791 1108.83 124.858 1110.98 127.035C1113.74 129.873 1115.89 126.996 1118.11 128.279C1119.25 128.94 1120.46 130.65 1122.14 130.689C1124.62 130.806 1126.91 130.106 1129.33 130.184C1132.76 130.3 1137.46 131.155 1140.55 132.088C1142.09 132.594 1142.23 133.993 1144.38 134.693C1146.66 135.47 1149.02 135.742 1151.5 136.248C1155.8 136.714 1157.48 136.053 1160.51 138.269C1162.66 139.824 1163.06 142.001 1165.48 143.245C1171.59 146.393 1176.03 143.206 1178.98 148.881C1180.33 151.446 1182.61 152.924 1182.07 155.8C1181.6 158.638 1175.56 156.927 1171.86 158.21C1167.9 159.571 1170.18 161.437 1168.03 162.836C1166.15 164.08 1161.98 164.08 1159.5 165.207C1154.66 167.306 1153.18 165.674 1156 169.483C1157.08 170.96 1153.85 175.858 1152.24 177.102C1152.11 179.745 1152.17 181.494 1152.85 184.06C1153.45 186.276 1153.65 187.869 1152.51 190.085C1150.16 194.555 1151.7 199.57 1156.61 203.263C1159.5 205.478 1164.27 207.849 1166.69 210.104C1169.17 211.465 1169.11 212.436 1169.04 214.263C1169.04 215.818 1167.02 217.451 1167.09 218.578C1167.16 219.55 1168.97 219.744 1167.9 220.91C1166.69 222.31 1164.6 223.282 1161.92 223.593C1158.22 224.02 1157.82 222.776 1154.79 224.681C1150.96 227.13 1150.02 227.83 1153.11 230.628C1156.21 233.427 1152.24 236.498 1149.42 238.83C1146.93 240.813 1145.12 240.541 1141.29 239.491C1139.14 238.48 1137.32 238.675 1135.11 239.569C1132.76 240.541 1129.87 240.191 1127.98 240.968C1123.35 242.873 1119.52 245.633 1119.92 248.976C1120.19 251.075 1118.58 253.641 1118.51 255.934C1118.31 261.026 1116.49 258.655 1111.45 261.415C1105.34 264.797 1103.26 266.779 1094.52 263.747C1090.22 262.27 1088.21 261.648 1083.23 261.182C1079.47 261.182 1073.42 257.683 1070.2 258.772C1070 258.655 1069.46 258.577 1069.73 258.344C1068.79 256.789 1074.16 255.39 1068.45 253.096C1064.76 251.58 1059.72 251.775 1060.86 248.471C1062.07 245.205 1071.07 235.021 1056.89 237.47C1052.12 238.286 1044.53 242.679 1045 245.672C1045.14 246.682 1049.44 249.248 1051.12 249.52C1056.56 250.414 1052.26 254.068 1056.49 254.107C1059.11 254.146 1060.32 253.757 1061.87 255.195C1062.81 256.439 1063.82 257.878 1064.15 259.238C1064.49 260.676 1062.87 260.754 1062.07 261.765C1061.53 262.464 1062.87 267.051 1064.15 267.323L1069.86 268.451C1072.28 268.917 1075.98 266.857 1076.51 267.246C1078.73 268.684 1080.88 275.292 1078.93 276.73C1078.26 279.685 1076.85 279.957 1073.09 281.434C1068.79 283.066 1070.4 281.045 1070.47 284.505C1070.53 287.342 1063.55 294.417 1059.11 289.208C1056.29 285.865 1056.83 290.919 1054.74 292.279C1052.73 293.601 1050.85 293.601 1049.5 295.467C1047.89 297.643 1051.65 299.509 1049.23 301.142L1043.99 304.718C1039.69 307.672 1042.11 304.018 1039.22 308.255C1038.08 310.005 1029.82 315.641 1027.4 316.963C1027.06 317.157 1025.52 318.906 1024.78 318.168C1024.31 317.662 1023.9 317.118 1023.1 316.807C1022.02 316.418 1017.45 317.74 1016.18 318.09L998.437 322.288C993.599 323.454 991.583 322.677 989.769 325.748C987.955 328.741 984.326 330.684 986.14 333.833C987.148 335.582 982.646 336.01 981.101 337.137C977.607 338.614 974.919 337.137 971.828 337.915C968.603 338.77 970.888 341.024 965.848 341.374C959.599 341.802 965.311 349.382 960.742 350.703C956.307 352.025 952.141 349.537 948.714 350.82C946.362 351.714 944.884 351.559 942.331 352.103C935.141 353.697 938.501 359.372 940.718 362.132C941.928 363.687 946.228 365.863 946.564 367.224C947.773 371.733 962.354 372.472 968.872 371.189C971.224 370.217 973.307 369.168 976.129 368.779C978.48 368.429 978.615 366.641 981.101 366.369C982.579 366.213 991.852 367.224 990.508 364.503C989.903 363.376 990.172 360.266 993.532 360.421C997.63 360.616 998.773 360.966 1001.73 358.866C1004.22 357.04 1004.89 358.517 1006.7 357.545C1012.68 354.241 1011.2 357.817 1015.17 358.633C1016.38 358.866 1016.44 357.117 1016.58 356.806C1017.39 355.174 1020.34 355.018 1022.56 355.213C1023.63 355.29 1026.93 354.085 1026.86 354.902C1026.66 357.195 1027.87 358.05 1030.49 355.912C1032.03 354.629 1037.27 354.241 1039.89 353.191C1043.59 351.753 1044.8 352.142 1047.55 349.77C1050.85 347.011 1050.04 351.753 1054.74 351.442C1056.56 351.325 1061.53 352.802 1061.4 353.891C1061.13 357.467 1064.22 353.502 1065.5 352.997C1073.36 349.926 1062.67 348.41 1070.4 344.873C1075.37 342.618 1072.68 337.953 1078.26 335.971C1088 332.511 1093.58 330.918 1104.8 331.578C1106.75 331.695 1108.43 332.045 1110.31 332.434C1113 332.978 1114.34 331.423 1116.83 333.017C1119.25 334.494 1122 333.056 1125.1 332.9C1133.09 331.617 1131.14 329.946 1134.37 326.681C1136.18 324.854 1141.36 323.726 1143.91 321.394C1146.26 319.256 1149.96 318.673 1153.11 317.313C1155.53 316.302 1153.38 313.814 1155.67 312.415C1156.54 311.909 1168.43 311.87 1162.66 309.538C1158.56 307.867 1163.93 307.633 1166.42 308.294C1172.8 309.888 1168.37 300.481 1173.27 300.442C1176.63 300.442 1177.17 298.576 1179.99 300.131C1182.07 301.336 1185.23 296.71 1186.17 296.088L1193.77 292.085C1195.92 290.919 1195.45 289.092 1198 287.692C1201.36 285.826 1200.42 278.752 1202.03 276.031C1202.9 274.437 1201.69 271.016 1205.12 270.278C1207.67 269.733 1213.39 264.797 1214.46 262.931C1216.41 259.704 1212.78 258.305 1209.49 256.4C1208.95 255.467 1207.2 254.379 1208.75 253.485C1209.76 253.835 1213.05 254.107 1214.33 254.224C1215.81 254.379 1219.43 247.46 1221.11 246.177C1224.67 243.417 1225.88 245.827 1228.64 244.467C1231.33 243.067 1229.18 236.459 1231.06 233.894C1232.07 232.611 1235.29 232.766 1235.76 231.483C1236.3 230.162 1235.16 228.49 1235.16 227.091L1234.69 224.642Z" fill="url(#paint6_linear_37)"/>
<path fill-rule="evenodd" clip-rule="evenodd" d="M1283.55 71.754C1282.14 69.8492 1283.48 68.2943 1282.68 66.4285C1282.07 65.1457 1279.45 64.7181 1278.85 63.2799C1278.31 61.9583 1279.39 61.1031 1279.12 60.1701C1278.85 59.2372 1276.09 58.3432 1275.02 57.6435C1272.06 55.8554 1270.85 56.7106 1267.09 56.8661C1263.19 57.0215 1263.73 52.5901 1263.59 51.113C1263.53 46.9537 1266.69 46.2152 1259.5 43.844C1258.22 43.4164 1257.61 42.2891 1256.61 41.6283C1253.72 39.7235 1253.72 38.7129 1249.22 38.5963C1246.39 38.5185 1242.83 40.3456 1239.88 39.5681C1232.01 37.4302 1230.07 37.469 1221.4 37.1969C1218.44 37.1192 1212.53 34.3981 1211.18 34.7091C1209.3 35.1756 1210.24 36.9637 1209.03 37.6634C1206.55 39.1016 1205.07 38.4019 1202.18 38.3631C1198.08 38.3242 1184.85 31.5994 1188.34 37.9743C1189.82 40.7731 1181.69 41.3562 1177.92 42.0559C1175.03 43.1054 1169.26 42.2502 1167.71 43.533C1164.82 45.8264 1160.99 46.4873 1156.36 45.36C1154.47 44.8935 1154.27 42.9111 1152.53 42.6778C1149.37 42.328 1145.87 42.328 1142.78 41.5506C1135.79 39.8402 1141.37 43.7662 1136.6 44.9713C1135.59 45.2434 1121.48 44.3104 1120.54 43.9217C1116.78 42.3668 1116.78 42.3669 1112.28 43.5719C1107.98 44.738 1103.74 45.4766 1098.97 46.0597C1092.32 47.0315 1088.96 47.0315 1082.44 46.1374C1077.87 45.5155 1072.5 46.1374 1068.6 45.5155C1067.46 45.3211 1062.96 43.6496 1062.49 43.7662C1059.4 44.6214 1056.71 47.2647 1054.02 47.8867C1052.54 48.1976 1050.86 47.2258 1048.91 47.8089C1046.97 48.392 1045.22 50.4911 1043.07 50.4133C1037.69 50.1801 1035.88 57.2936 1028.02 52.9011C1024.79 53.4453 1025.73 56.6328 1019.89 55.1945C1015.18 54.0284 1012.7 53.7563 1007.93 54.9613C1004.63 55.9331 1001.21 56.9049 997.579 57.0604C994.353 57.2159 992.875 57.0604 990.658 58.6542C986.761 61.4529 976.01 57.0215 972.65 60.209C968.552 63.9796 967.88 61.8028 962.235 63.0467C956.121 64.4072 959.01 69.4993 948.259 68.8774C945.437 68.7219 943.489 66.895 941.07 66.9727C939.054 67.0505 932.2 69.3828 930.588 70.1602C927.564 70.5101 925.75 72.1038 922.793 70.9376C921.718 70.5489 919.501 70.2768 918.627 70.7822C917.485 71.443 916.141 71.9871 915.066 72.7646C913.454 73.9307 911.438 73.9307 909.086 73.4254C906.398 72.8812 904.45 72.6091 901.56 72.8035C899.41 73.1922 897.462 74.3195 895.311 74.3195C894.035 74.2806 892.489 73.6975 891.146 73.6198C885.031 73.2699 889.734 75.2135 890.541 76.8461C892.221 80.228 896.386 77.2737 898.469 75.991C901.157 74.3584 901.224 76.2631 902.635 77.0794C903.778 77.7402 905.525 76.2631 907.07 77.1571C909.959 78.7509 904.92 78.8675 904.315 79.0618C903.106 79.4505 903.71 83.2211 901.56 84.465C900.821 84.8926 895.782 86.2531 896.386 86.603C897.663 87.3416 899.007 88.7409 900.956 88.3911C905.861 87.497 908.884 85.7478 911.841 83.4932C914.529 81.4719 916.276 77.1182 922.39 77.6236C924.406 77.2348 925.615 76.1465 927.631 75.991C931.394 75.68 932.536 76.4963 935.761 74.5527C939.927 72.0649 945.236 75.5245 949.267 73.1144C952.492 71.1708 957.263 73.6975 961.295 72.2204C968.081 69.6937 976.01 68.8386 983.737 67.6335C987.634 67.0116 990.12 66.1953 993.077 67.9834C995.294 69.3439 1003.02 67.8279 1005.24 67.0116C1008.6 66.4674 1011.02 64.0573 1014.65 63.7464C1020.29 63.2799 1026.2 63.9796 1031.78 64.4849C1042.93 65.4956 1050.93 61.5695 1061.55 61.1808C1076.33 60.6366 1080.09 56.7494 1091.38 52.0071C1094.47 51.2296 1096.96 50.0246 1100.45 49.9469C1102.13 49.908 1105.76 50.6077 1106.77 50.2578C1111.4 48.8973 1110.66 48.081 1116.17 49.2472C1119.53 49.9469 1122.49 49.0139 1125.72 48.6252C1128 48.3142 1132.1 51.6183 1136.13 51.6183L1154.68 51.6184C1157.43 52.2014 1157.77 51.1519 1159.78 51.3073C1164.49 51.6183 1169.79 52.8234 1174.77 53.2121C1183.43 53.8729 1190.83 57.5269 1199.16 57.7601C1205.34 57.9156 1206.08 57.7212 1209.03 60.831C1210.92 62.7746 1216.36 62.7357 1218.91 64.8348C1220.59 66.1175 1222.81 67.3226 1224.76 68.4498C1227.45 69.927 1226.71 72.2982 1228.39 73.9697C1228.65 74.2806 1231.61 74.2806 1232.55 74.5138C1234.63 75.0969 1236.52 77.5847 1239.81 77.4681C1241.89 77.3515 1243.24 76.6518 1244.98 77.6624C1247 78.8286 1253.05 82.0161 1256 81.3941C1259.9 80.539 1262.18 78.6731 1266.75 80.6167C1268.77 80.9277 1271.19 81.3942 1273.34 81.1609C1275.82 80.8888 1278.51 79.9559 1281.13 80.539C1281.94 80.6945 1282.81 80.8888 1283.42 81.2387C1284.02 81.5885 1286.04 82.7546 1286.37 81.5496C1286.71 80.0336 1282.48 80.228 1283.89 78.09C1284.49 77.196 1285.57 76.4963 1285.77 75.5245C1285.84 75.0192 1285.77 73.2699 1285.23 72.8812L1283.55 71.754Z" fill="url(#paint7_linear_37)"/>
<path fill-rule="evenodd" clip-rule="evenodd" d="M828.923 114.98C827.915 115.252 818.24 112.22 815.686 111.987C811.722 113.503 810.714 115.407 805.675 116.224C803.995 115.485 799.829 116.34 803.524 114.747C808.497 112.57 803.928 107.672 809.706 105.34C817.635 102.152 810.916 96.2436 823.749 95.9715C829.326 95.8549 830.065 93.2505 834.769 92.8618C840.01 92.3953 841.219 90.685 845.52 90.063C847.132 90.7627 850.761 92.3176 852.844 92.2787C857.279 92.1232 854.725 93.3671 857.211 94.8831C861.243 97.3709 864.267 97.8762 861.109 101.103C860.504 101.763 861.377 102.891 860.235 103.629C857.279 105.417 857.01 103.94 853.852 106.311L845.117 113.075C841.018 116.224 836.785 115.485 830.67 115.524L828.923 114.98Z" fill="url(#paint8_linear_37)"/>
<path fill-rule="evenodd" clip-rule="evenodd" d="M899.199 396.338C895.167 396.26 881.259 390.312 887.373 388.019C889.792 387.086 891.203 385.181 894.361 385.842C902.357 387.436 906.187 381.955 912.772 381.255C923.724 380.128 929.1 380.517 934.005 386.62C936.021 389.107 941.53 394.472 937.566 396.843C935.214 395.949 932.93 393.694 929.637 394.511C924.665 395.677 923.12 400.225 915.997 397.581C911.361 395.91 904.507 398.242 901.551 396.765L899.199 396.338Z" fill="url(#paint9_linear_37)"/>
<path fill-rule="evenodd" clip-rule="evenodd" d="M827.925 405.15C826.582 405.228 822.617 403.323 822.214 402.468C821.744 401.263 817.443 403.285 816.167 403.246C814.084 403.129 812.135 403.168 810.186 403.051C807.499 402.974 806.827 404.062 806.894 405.5C806.827 406.394 806.491 407.055 806.356 407.91C806.222 408.765 804.878 409.543 804.005 410.204C802.93 411.137 802.123 411.525 802.93 412.692C804.609 413.586 806.155 415.024 807.902 415.723C808.641 415.996 812.74 417.978 813.143 417.823C815.562 416.967 815.226 416.307 818.317 416.54C821.609 416.812 825.439 416.54 828.866 416.423C831.419 416.345 834.712 416.307 834.242 414.324C833.906 412.653 841.7 409.776 836.19 409.543C833.973 409.426 834.51 407.716 833.838 406.861C832.763 405.384 832.159 405.5 829.605 405.5L827.925 405.15Z" fill="url(#paint10_linear_37)"/>
<path d="M803.998 27.899C805.345 28.6784 804.943 29.5397 803.1 29.8132C801.28 30.1003 798.704 29.7038 797.356 28.9245C796.009 28.1451 796.411 27.2837 798.255 27.0103C800.074 26.7232 802.651 27.1197 803.998 27.899Z" fill="url(#paint11_linear_37)"/>
<path d="M833.755 23.6752C835.102 24.4545 834.7 25.3159 832.856 25.5893C831.037 25.8764 828.46 25.4799 827.113 24.7006C825.766 23.9212 826.168 23.0599 828.011 22.7864C829.831 22.4993 832.407 22.8958 833.755 23.6752Z" fill="url(#paint12_linear_37)"/>
</g>
<defs>
<linearGradient id="paint0_linear_37" x1="363.453" y1="815.461" x2="823.884" y2="19.5719" gradientUnits="userSpaceOnUse">
<stop stop-color="#BFC8F6"/>
<stop offset="1" stop-color="#DFD4FF"/>
</linearGradient>
<linearGradient id="paint1_linear_37" x1="1564.06" y1="462.234" x2="1589.04" y2="419.053" gradientUnits="userSpaceOnUse">
<stop stop-color="#BFC8F6"/>
<stop offset="1" stop-color="#DFD4FF"/>
</linearGradient>
<linearGradient id="paint2_linear_37" x1="1495.56" y1="457.371" x2="1518.74" y2="417.297" gradientUnits="userSpaceOnUse">
<stop stop-color="#BFC8F6"/>
<stop offset="1" stop-color="#DFD4FF"/>
</linearGradient>
<linearGradient id="paint3_linear_37" x1="1452.61" y1="465.618" x2="1464.12" y2="445.726" gradientUnits="userSpaceOnUse">
<stop stop-color="#BFC8F6"/>
<stop offset="1" stop-color="#DFD4FF"/>
</linearGradient>
<linearGradient id="paint4_linear_37" x1="1566.68" y1="53.6193" x2="1625.21" y2="-47.5621" gradientUnits="userSpaceOnUse">
<stop stop-color="#BFC8F6"/>
<stop offset="1" stop-color="#DFD4FF"/>
</linearGradient>
<linearGradient id="paint5_linear_37" x1="1467.96" y1="14.9203" x2="1476.75" y2="-0.28079" gradientUnits="userSpaceOnUse">
<stop stop-color="#BFC8F6"/>
<stop offset="1" stop-color="#DFD4FF"/>
</linearGradient>
<linearGradient id="paint6_linear_37" x1="906.186" y1="344.818" x2="1092.95" y2="21.9799" gradientUnits="userSpaceOnUse">
<stop stop-color="#BFC8F6"/>
<stop offset="1" stop-color="#DFD4FF"/>
</linearGradient>
<linearGradient id="paint7_linear_37" x1="984.157" y1="137.468" x2="1094.19" y2="-52.7276" gradientUnits="userSpaceOnUse">
<stop stop-color="#BFC8F6"/>
<stop offset="1" stop-color="#DFD4FF"/>
</linearGradient>
<linearGradient id="paint8_linear_37" x1="807.523" y1="118.829" x2="830.918" y2="78.389" gradientUnits="userSpaceOnUse">
<stop stop-color="#BFC8F6"/>
<stop offset="1" stop-color="#DFD4FF"/>
</linearGradient>
<linearGradient id="paint9_linear_37" x1="900.442" y1="399.349" x2="914.965" y2="374.244" gradientUnits="userSpaceOnUse">
<stop stop-color="#BFC8F6"/>
<stop offset="1" stop-color="#DFD4FF"/>
</linearGradient>
<linearGradient id="paint10_linear_37" x1="808.944" y1="416.419" x2="819.514" y2="398.149" gradientUnits="userSpaceOnUse">
<stop stop-color="#BFC8F6"/>
<stop offset="1" stop-color="#DFD4FF"/>
</linearGradient>
<linearGradient id="paint11_linear_37" x1="798.574" y1="29.6281" x2="800.684" y2="25.9819" gradientUnits="userSpaceOnUse">
<stop stop-color="#BFC8F6"/>
<stop offset="1" stop-color="#DFD4FF"/>
</linearGradient>
<linearGradient id="paint12_linear_37" x1="828.331" y1="25.4042" x2="830.44" y2="21.758" gradientUnits="userSpaceOnUse">
<stop stop-color="#BFC8F6"/>
<stop offset="1" stop-color="#DFD4FF"/>
</linearGradient>
</defs>
</svg>
