<svg width="570" height="441" viewBox="0 0 570 441" fill="none" xmlns="http://www.w3.org/2000/svg">
    <line x1="431.167" y1="325.185" x2="431.167" y2="98.5186" stroke="url(#paint0_linear_45)" stroke-dasharray="2 2" />
    <line x1="353.583" y1="191.419" x2="425.752" y2="233.085" stroke="url(#paint1_linear_45)" stroke-dasharray="2 2" />
    <line x1="431.916" y1="328.086" x2="504.085" y2="369.752" stroke="url(#paint2_linear_45)" stroke-dasharray="2 2" />
    <line x1="431.916" y1="98.0855" x2="504.085" y2="139.752" stroke="url(#paint3_linear_45)" stroke-dasharray="2 2" />
    <line x1="431.916" y1="213.086" x2="504.085" y2="254.752" stroke="url(#paint4_linear_45)" stroke-dasharray="2 2" />
    <g>
        <path
            d="M525.189 128.74C524.289 128.22 522.843 128.22 521.942 128.74L484.333 143.649C484.333 143.649 484.333 150.661 484.333 150.999C484.333 151.337 484.558 151.674 485.008 151.934L527.475 176.453C528.375 176.972 529.821 176.972 530.721 176.453L567.664 155.129C568.019 154.93 568.357 154.133 568.322 153.804C568.262 153.293 568.322 146.739 568.322 146.739L525.189 128.74Z"
            fill="url(#paint5_linear_45)" />
        <path
            d="M567.664 145.908L525.189 121.39C524.289 120.87 522.843 120.87 521.942 121.39L485.008 142.714C484.108 143.233 484.108 144.073 485.008 144.584L527.475 169.103C528.375 169.622 529.821 169.622 530.721 169.103L567.664 147.779C568.556 147.268 568.556 146.428 567.664 145.908Z"
            fill="url(#paint6_linear_45)" />
        <path
            d="M540.901 143.051L538.425 141.623C538.192 141.493 537.819 141.493 537.586 141.623L533.404 144.038C533.17 144.168 533.17 144.384 533.404 144.523L535.88 145.951C536.114 146.081 536.486 146.081 536.72 145.951L540.901 143.536C541.135 143.397 541.135 143.181 540.901 143.051Z"
            fill="white" />
        <path
            d="M548.817 138.48L546.34 137.051C546.107 136.921 545.734 136.921 545.501 137.051L541.319 139.467C541.085 139.597 541.085 139.813 541.319 139.952L543.795 141.38C544.029 141.51 544.401 141.51 544.635 141.38L548.817 138.965C549.05 138.826 549.05 138.61 548.817 138.48Z"
            fill="white" />
        <path
            d="M532.989 147.613L530.513 146.185C530.279 146.055 529.907 146.055 529.673 146.185L525.492 148.6C525.258 148.73 525.258 148.947 525.492 149.085L527.968 150.514C528.202 150.644 528.574 150.644 528.808 150.514L532.989 148.098C533.214 147.968 533.214 147.752 532.989 147.613Z"
            fill="white" />
        <path
            d="M546.096 146.046L543.62 144.618C543.386 144.488 543.014 144.488 542.78 144.618L538.598 147.033C538.364 147.163 538.364 147.38 538.598 147.518L541.074 148.947C541.308 149.077 541.68 149.077 541.914 148.947L546.096 146.531C546.33 146.393 546.33 146.176 546.096 146.046Z"
            fill="white" />
        <path
            d="M554.01 141.475L551.534 140.047C551.3 139.917 550.928 139.917 550.694 140.047L546.512 142.462C546.278 142.592 546.278 142.808 546.512 142.947L548.988 144.376C549.222 144.505 549.594 144.505 549.828 144.376L554.01 141.96C554.244 141.83 554.244 141.614 554.01 141.475Z"
            fill="white" />
        <path
            d="M538.184 150.618L535.708 149.189C535.474 149.059 535.102 149.059 534.868 149.189L530.686 151.605C530.452 151.735 530.452 151.951 530.686 152.09L533.162 153.518C533.396 153.648 533.768 153.648 534.002 153.518L538.184 151.103C538.409 150.964 538.409 150.748 538.184 150.618Z"
            fill="white" />
        <path
            d="M535.707 140.047L533.231 138.618C532.997 138.488 532.625 138.488 532.391 138.618L528.209 141.034C527.976 141.164 527.976 141.38 528.209 141.519L530.686 142.947C530.919 143.077 531.292 143.077 531.525 142.947L535.707 140.532C535.941 140.393 535.941 140.185 535.707 140.047Z"
            fill="white" />
        <path
            d="M543.621 135.475L541.145 134.047C540.911 133.917 540.539 133.917 540.305 134.047L536.124 136.462C535.89 136.592 535.89 136.809 536.124 136.947L538.6 138.376C538.833 138.506 539.206 138.506 539.439 138.376L543.621 135.96C543.855 135.83 543.855 135.614 543.621 135.475Z"
            fill="white" />
        <path
            d="M527.794 144.618L525.318 143.189C525.084 143.06 524.712 143.06 524.478 143.189L520.296 145.605C520.063 145.735 520.063 145.951 520.296 146.09L522.773 147.518C523.006 147.648 523.379 147.648 523.612 147.518L527.794 145.103C528.019 144.964 528.019 144.748 527.794 144.618Z"
            fill="white" />
        <path d="M506.107 135.632L512.289 139.199L531.96 127.84L525.778 124.273L506.107 135.632Z"
            fill="url(#paint7_linear_45)" />
        <path
            d="M503.693 135.952C501.702 134.8 498.472 134.8 496.481 135.952L486.767 138.549C486.767 138.549 486.802 141.96 486.758 142.679C486.715 143.467 487.209 144.263 488.248 144.861L525.874 166.583C527.866 167.734 531.095 167.734 533.086 166.583L541.32 161.83C542.315 161.258 542.809 160.505 542.809 159.752C542.809 158.999 542.809 155.388 542.809 155.388L503.693 135.952Z"
            fill="url(#paint8_linear_45)" />
        <path
            d="M541.319 153.311L503.692 131.589C501.701 130.437 498.471 130.437 496.48 131.589L488.246 136.342C486.255 137.493 486.255 139.355 488.246 140.506L525.873 162.229C527.864 163.38 531.094 163.38 533.085 162.229L541.319 157.475C543.31 156.324 543.31 154.463 541.319 153.311Z"
            fill="url(#paint9_linear_45)" />
    </g>
    <g>
        <path
            d="M525.189 242.073C524.289 241.554 522.843 241.554 521.942 242.073L484.333 256.982C484.333 256.982 484.333 263.995 484.333 264.333C484.333 264.67 484.558 265.008 485.008 265.268L527.475 289.786C528.375 290.306 529.821 290.306 530.721 289.786L567.664 268.462C568.019 268.263 568.357 267.467 568.322 267.138C568.262 266.627 568.322 260.073 568.322 260.073L525.189 242.073Z"
            fill="url(#paint10_linear_45)" />
        <path
            d="M567.664 259.242L525.189 234.723C524.289 234.203 522.843 234.203 521.942 234.723L485.008 256.047C484.108 256.566 484.108 257.406 485.008 257.917L527.475 282.436C528.375 282.955 529.821 282.955 530.721 282.436L567.664 261.112C568.556 260.601 568.556 259.761 567.664 259.242Z"
            fill="url(#paint11_linear_45)" />
        <path
            d="M540.901 256.385L538.425 254.956C538.192 254.826 537.819 254.826 537.586 254.956L533.404 257.372C533.17 257.501 533.17 257.718 533.404 257.856L535.88 259.285C536.114 259.415 536.486 259.415 536.72 259.285L540.901 256.869C541.135 256.731 541.135 256.514 540.901 256.385Z"
            fill="white" />
        <path
            d="M548.817 251.813L546.34 250.385C546.107 250.255 545.734 250.255 545.501 250.385L541.319 252.8C541.085 252.93 541.085 253.147 541.319 253.285L543.795 254.714C544.029 254.844 544.401 254.844 544.635 254.714L548.817 252.298C549.05 252.16 549.05 251.943 548.817 251.813Z"
            fill="white" />
        <path
            d="M532.989 260.947L530.513 259.518C530.279 259.388 529.907 259.388 529.673 259.518L525.492 261.934C525.258 262.064 525.258 262.28 525.492 262.419L527.968 263.847C528.202 263.977 528.574 263.977 528.808 263.847L532.989 261.432C533.214 261.302 533.214 261.085 532.989 260.947Z"
            fill="white" />
        <path
            d="M546.096 259.38L543.62 257.951C543.386 257.822 543.014 257.822 542.78 257.951L538.598 260.367C538.364 260.497 538.364 260.713 538.598 260.852L541.074 262.28C541.308 262.41 541.68 262.41 541.914 262.28L546.096 259.865C546.33 259.726 546.33 259.51 546.096 259.38Z"
            fill="white" />
        <path
            d="M554.01 254.809L551.534 253.38C551.3 253.25 550.928 253.25 550.694 253.38L546.512 255.796C546.278 255.926 546.278 256.142 546.512 256.28L548.988 257.709C549.222 257.839 549.594 257.839 549.828 257.709L554.01 255.293C554.244 255.164 554.244 254.947 554.01 254.809Z"
            fill="white" />
        <path
            d="M538.184 263.951L535.708 262.523C535.474 262.393 535.102 262.393 534.868 262.523L530.686 264.938C530.452 265.068 530.452 265.285 530.686 265.423L533.162 266.852C533.396 266.981 533.768 266.981 534.002 266.852L538.184 264.436C538.409 264.298 538.409 264.081 538.184 263.951Z"
            fill="white" />
        <path
            d="M535.707 253.38L533.231 251.952C532.997 251.822 532.625 251.822 532.391 251.952L528.209 254.367C527.976 254.497 527.976 254.713 528.209 254.852L530.686 256.281C530.919 256.41 531.292 256.41 531.525 256.281L535.707 253.865C535.941 253.726 535.941 253.519 535.707 253.38Z"
            fill="white" />
        <path
            d="M543.621 248.809L541.145 247.38C540.911 247.25 540.539 247.25 540.305 247.38L536.124 249.796C535.89 249.926 535.89 250.142 536.124 250.281L538.6 251.709C538.833 251.839 539.206 251.839 539.439 251.709L543.621 249.294C543.855 249.164 543.855 248.947 543.621 248.809Z"
            fill="white" />
        <path
            d="M527.794 257.951L525.318 256.523C525.084 256.393 524.712 256.393 524.478 256.523L520.296 258.938C520.063 259.068 520.063 259.285 520.296 259.423L522.773 260.852C523.006 260.982 523.379 260.982 523.612 260.852L527.794 258.436C528.019 258.298 528.019 258.081 527.794 257.951Z"
            fill="white" />
        <path d="M506.107 248.965L512.289 252.532L531.96 241.173L525.778 237.606L506.107 248.965Z"
            fill="url(#paint12_linear_45)" />
        <path
            d="M503.693 249.285C501.702 248.134 498.472 248.134 496.481 249.285L486.767 251.882C486.767 251.882 486.802 255.294 486.758 256.012C486.715 256.8 487.209 257.596 488.248 258.194L525.874 279.916C527.866 281.068 531.095 281.068 533.086 279.916L541.32 275.163C542.315 274.592 542.809 273.838 542.809 273.085C542.809 272.332 542.809 268.722 542.809 268.722L503.693 249.285Z"
            fill="url(#paint13_linear_45)" />
        <path
            d="M541.319 266.644L503.692 244.922C501.701 243.77 498.471 243.77 496.48 244.922L488.246 249.675C486.255 250.826 486.255 252.688 488.246 253.839L525.873 275.562C527.864 276.713 531.094 276.713 533.085 275.562L541.319 270.809C543.31 269.657 543.31 267.796 541.319 266.644Z"
            fill="url(#paint14_linear_45)" />
    </g>
    <g>
        <path
            d="M525.189 355.406C524.289 354.887 522.843 354.887 521.942 355.406L484.333 370.315C484.333 370.315 484.333 377.328 484.333 377.666C484.333 378.003 484.558 378.341 485.008 378.601L527.475 403.12C528.375 403.639 529.821 403.639 530.721 403.12L567.664 381.795C568.019 381.596 568.357 380.8 568.322 380.471C568.262 379.96 568.322 373.406 568.322 373.406L525.189 355.406Z"
            fill="url(#paint15_linear_45)" />
        <path
            d="M567.664 372.575L525.189 348.056C524.289 347.537 522.843 347.537 521.942 348.056L485.008 369.38C484.108 369.9 484.108 370.74 485.008 371.25L527.475 395.769C528.375 396.289 529.821 396.289 530.721 395.769L567.664 374.445C568.556 373.934 568.556 373.094 567.664 372.575Z"
            fill="url(#paint16_linear_45)" />
        <path
            d="M540.901 369.718L538.425 368.289C538.192 368.159 537.819 368.159 537.586 368.289L533.404 370.705C533.17 370.834 533.17 371.051 533.404 371.189L535.88 372.618C536.114 372.748 536.486 372.748 536.72 372.618L540.901 370.202C541.135 370.064 541.135 369.847 540.901 369.718Z"
            fill="white" />
        <path
            d="M548.817 365.146L546.34 363.718C546.107 363.588 545.734 363.588 545.501 363.718L541.319 366.133C541.085 366.263 541.085 366.48 541.319 366.618L543.795 368.047C544.029 368.177 544.401 368.177 544.635 368.047L548.817 365.631C549.05 365.493 549.05 365.276 548.817 365.146Z"
            fill="white" />
        <path
            d="M532.989 374.28L530.513 372.851C530.279 372.721 529.907 372.721 529.673 372.851L525.492 375.267C525.258 375.397 525.258 375.613 525.492 375.752L527.968 377.18C528.202 377.31 528.574 377.31 528.808 377.18L532.989 374.765C533.214 374.635 533.214 374.418 532.989 374.28Z"
            fill="white" />
        <path
            d="M546.096 372.713L543.62 371.284C543.386 371.155 543.014 371.155 542.78 371.284L538.598 373.7C538.364 373.83 538.364 374.046 538.598 374.185L541.074 375.613C541.308 375.743 541.68 375.743 541.914 375.613L546.096 373.198C546.33 373.059 546.33 372.843 546.096 372.713Z"
            fill="white" />
        <path
            d="M554.01 368.142L551.534 366.713C551.3 366.583 550.928 366.583 550.694 366.713L546.512 369.129C546.278 369.259 546.278 369.475 546.512 369.613L548.988 371.042C549.222 371.172 549.594 371.172 549.828 371.042L554.01 368.626C554.244 368.497 554.244 368.28 554.01 368.142Z"
            fill="white" />
        <path
            d="M538.184 377.284L535.708 375.856C535.474 375.726 535.102 375.726 534.868 375.856L530.686 378.271C530.452 378.401 530.452 378.618 530.686 378.756L533.162 380.185C533.396 380.314 533.768 380.314 534.002 380.185L538.184 377.769C538.409 377.631 538.409 377.414 538.184 377.284Z"
            fill="white" />
        <path
            d="M535.707 366.713L533.231 365.285C532.997 365.155 532.625 365.155 532.391 365.285L528.209 367.7C527.976 367.83 527.976 368.046 528.209 368.185L530.686 369.614C530.919 369.743 531.292 369.743 531.525 369.614L535.707 367.198C535.941 367.06 535.941 366.852 535.707 366.713Z"
            fill="white" />
        <path
            d="M543.621 362.142L541.145 360.713C540.911 360.584 540.539 360.584 540.305 360.713L536.124 363.129C535.89 363.259 535.89 363.475 536.124 363.614L538.6 365.042C538.833 365.172 539.206 365.172 539.439 365.042L543.621 362.627C543.855 362.497 543.855 362.28 543.621 362.142Z"
            fill="white" />
        <path
            d="M527.794 371.284L525.318 369.856C525.084 369.726 524.712 369.726 524.478 369.856L520.296 372.271C520.063 372.401 520.063 372.618 520.296 372.756L522.773 374.185C523.006 374.315 523.379 374.315 523.612 374.185L527.794 371.769C528.019 371.631 528.019 371.414 527.794 371.284Z"
            fill="white" />
        <path d="M506.107 362.298L512.289 365.865L531.96 354.506L525.778 350.939L506.107 362.298Z"
            fill="url(#paint17_linear_45)" />
        <path
            d="M503.693 362.618C501.702 361.467 498.472 361.467 496.481 362.618L486.767 365.216C486.767 365.216 486.802 368.627 486.758 369.345C486.715 370.133 487.209 370.93 488.248 371.527L525.874 393.25C527.866 394.401 531.095 394.401 533.086 393.25L541.32 388.496C542.315 387.925 542.809 387.172 542.809 386.419C542.809 385.665 542.809 382.055 542.809 382.055L503.693 362.618Z"
            fill="url(#paint18_linear_45)" />
        <path
            d="M541.319 379.978L503.692 358.255C501.701 357.104 498.471 357.104 496.48 358.255L488.246 363.008C486.255 364.16 486.255 366.021 488.246 367.173L525.873 388.895C527.864 390.047 531.094 390.047 533.085 388.895L541.319 384.142C543.31 382.991 543.31 381.129 541.319 379.978Z"
            fill="url(#paint19_linear_45)" />
    </g>
    <path opacity="0.5" class="shadow-house"
        d="M353.732 286.302L315.125 264.288C313.71 263.475 313.888 262.046 315.522 261.109L337.734 248.284C339.361 247.34 341.829 247.238 343.245 248.058L381.851 270.072C383.267 270.886 383.089 272.315 381.455 273.251L359.242 286.077C357.608 287.014 355.14 287.116 353.732 286.302Z"
        fill="url(#paint20_linear_45)" />
    <g class="hose" style="animation-delay:0.3s">
        <path
            d="M385.289 252.764V162.636L349.458 153.256L342.861 149.448C341.343 148.573 338.697 148.683 336.954 149.694L330.794 153.249L311.686 153.236L317.346 240.246C317.305 240.841 317.633 241.409 318.358 241.832L354.114 268.81C355.632 269.685 358.278 269.576 360.021 268.564L383.854 254.809C384.859 254.221 385.344 253.469 385.289 252.764Z"
            fill="#396CAA" />
        <path
            d="M385.289 252.764V162.636L349.458 153.256L342.861 149.448C341.343 148.573 338.697 148.683 336.954 149.694L330.794 153.249L311.686 153.236L317.346 240.246C317.305 240.841 317.633 241.409 318.358 241.832L354.114 268.81C355.632 269.685 358.278 269.576 360.021 268.564L383.854 254.809C384.859 254.221 385.344 253.469 385.289 252.764Z"
            fill="url(#paint21_linear_45)" />
        <path
            d="M340.113 148.861C339.005 148.888 337.857 149.168 336.948 149.695L330.788 153.25L311.679 153.236V243.61C311.638 244.205 311.966 244.773 312.691 245.196L354.108 268.81C354.832 269.227 355.824 269.419 356.849 269.398L357.273 178.457L340.113 148.861Z"
            fill="#D4ECFF" />
        <path d="M354.49 268.995C355.796 269.555 357.69 269.521 359.214 268.94V177.383H354.49V268.995Z"
            fill="url(#paint22_linear_45)" />
        <path
            d="M354.107 178.47L312.69 154.856C311.173 153.981 311.364 152.456 313.114 151.444L336.947 137.689C338.697 136.677 341.343 136.568 342.854 137.443L384.271 161.057C385.788 161.932 385.597 163.456 383.847 164.468L360.021 178.223C358.271 179.228 355.625 179.338 354.107 178.47Z"
            fill="url(#paint23_linear_45)" />
        <path
            d="M383.847 162.786L360.021 176.549C358.271 177.56 355.625 177.67 354.114 176.795L312.698 153.181C312.363 152.982 312.11 152.757 311.939 152.511C311.419 153.345 311.651 154.254 312.698 154.856L354.114 178.47C355.632 179.345 358.278 179.235 360.021 178.224L383.854 164.468C385.214 163.682 385.624 162.588 385.037 161.727C384.79 162.103 384.401 162.472 383.847 162.786Z"
            fill="#FAFDFF" />
        <path
            d="M355.283 168.899L327.711 152.915C327 152.504 327.089 151.793 327.909 151.315L339.06 144.875C339.88 144.403 341.117 144.348 341.822 144.758L369.394 160.743C370.105 161.153 370.016 161.864 369.196 162.342L358.045 168.783C357.225 169.254 355.987 169.302 355.283 168.899Z"
            fill="url(#paint24_linear_45)" />
        <path
            d="M340.393 153.633L338.793 152.71C338.697 152.655 338.704 152.553 338.82 152.491L340.365 151.602C340.482 151.534 340.652 151.527 340.748 151.589L342.348 152.512C342.444 152.566 342.437 152.669 342.321 152.73L340.776 153.619C340.666 153.681 340.495 153.687 340.393 153.633Z"
            fill="#D4ECFF" />
        <path
            d="M345.732 156.702L344.132 155.779C344.036 155.724 344.043 155.621 344.159 155.56L345.704 154.671C345.82 154.603 345.991 154.596 346.087 154.657L347.687 155.58C347.783 155.635 347.776 155.738 347.659 155.799L346.114 156.688C345.998 156.749 345.827 156.756 345.732 156.702Z"
            fill="#D4ECFF" />
        <path
            d="M351.07 159.765L349.471 158.842C349.375 158.788 349.382 158.685 349.498 158.624L351.043 157.735C351.159 157.666 351.33 157.66 351.426 157.721L353.026 158.644C353.121 158.699 353.115 158.801 352.998 158.863L351.453 159.752C351.337 159.82 351.166 159.827 351.07 159.765Z"
            fill="#D4ECFF" />
        <path
            d="M356.411 162.835L354.811 161.912C354.716 161.858 354.723 161.755 354.839 161.694L356.384 160.805C356.5 160.737 356.671 160.73 356.767 160.791L358.367 161.714C358.462 161.769 358.455 161.871 358.339 161.933L356.794 162.822C356.678 162.89 356.507 162.897 356.411 162.835Z"
            fill="#D4ECFF" />
        <path
            d="M327.704 152.915L327.738 152.935C327.793 152.894 327.841 152.86 327.902 152.819L339.053 146.379C339.873 145.907 341.111 145.852 341.815 146.262L369.36 162.226C370.016 161.761 370.05 161.119 369.394 160.743L341.822 144.758C341.111 144.348 339.873 144.403 339.06 144.875L327.909 151.315C327.089 151.786 327 152.504 327.704 152.915Z"
            fill="#5793CE" />
        <path
            d="M364.67 196.327L380.347 187.351C381.229 186.838 381.946 185.478 381.946 184.302V178.696C381.946 177.52 381.229 176.98 380.347 177.485L364.67 186.462C363.788 186.968 363.07 188.335 363.07 189.511V195.117C363.077 196.293 363.788 196.833 364.67 196.327Z"
            fill="url(#paint25_linear_45)" />
        <path
            d="M381.126 177.314C381.372 177.547 381.529 177.943 381.529 178.483V184.089C381.529 185.265 380.811 186.633 379.93 187.139L364.253 196.115C363.973 196.279 363.706 196.32 363.474 196.286C363.768 196.559 364.191 196.601 364.67 196.327L380.347 187.35C381.229 186.845 381.946 185.477 381.946 184.301V178.695C381.946 177.888 381.611 177.396 381.126 177.314Z"
            fill="white" />
        <path
            d="M369.388 190.236L370.823 189.409C371.015 189.299 371.172 188.999 371.172 188.746V187.207C371.172 186.948 371.015 186.831 370.823 186.941L369.388 187.768C369.196 187.877 369.039 188.178 369.039 188.431V189.969C369.039 190.229 369.196 190.345 369.388 190.236Z"
            fill="#396CAA" />
        <path
            d="M374.193 187.46L375.629 186.633C375.821 186.523 375.978 186.223 375.978 185.97V184.425C375.978 184.165 375.821 184.049 375.629 184.158L374.193 184.985C374.002 185.095 373.845 185.395 373.845 185.648V187.187C373.852 187.453 374.002 187.569 374.193 187.46Z"
            fill="white" />
        <path
            d="M364.67 236.842L380.347 227.865C381.229 227.353 381.946 225.992 381.946 224.816V219.21C381.946 218.034 381.229 217.494 380.347 218L364.67 226.977C363.788 227.489 363.07 228.85 363.07 230.026V235.632C363.077 236.808 363.788 237.348 364.67 236.842Z"
            fill="url(#paint26_linear_45)" />
        <path
            d="M381.126 217.83C381.372 218.063 381.529 218.459 381.529 218.999V224.605C381.529 225.781 380.811 227.148 379.93 227.654L364.253 236.631C363.973 236.795 363.706 236.836 363.474 236.802C363.768 237.075 364.191 237.116 364.67 236.843L380.347 227.866C381.229 227.36 381.946 225.993 381.946 224.817V219.211C381.946 218.404 381.611 217.912 381.126 217.83Z"
            fill="white" />
        <path
            d="M369.388 230.752L370.823 229.925C371.015 229.815 371.172 229.514 371.172 229.261V227.723C371.172 227.463 371.015 227.347 370.823 227.463L369.388 228.291C369.196 228.4 369.039 228.701 369.039 228.954V230.492C369.039 230.745 369.196 230.861 369.388 230.752Z"
            fill="#396CAA" />
        <path
            d="M374.193 227.976L375.629 227.148C375.821 227.039 375.978 226.738 375.978 226.485V224.947C375.978 224.687 375.821 224.571 375.629 224.687L374.193 225.514C374.002 225.624 373.845 225.925 373.845 226.178V227.716C373.852 227.969 374.002 228.085 374.193 227.976Z"
            fill="#396CAA" />
        <path
            d="M364.67 257.099L380.347 248.122C381.229 247.61 381.946 246.249 381.946 245.073V239.467C381.946 238.291 381.229 237.751 380.347 238.257L364.67 247.234C363.788 247.74 363.07 249.107 363.07 250.283V255.889C363.077 257.065 363.788 257.605 364.67 257.099Z"
            fill="url(#paint27_linear_45)" />
        <path
            d="M381.126 238.086C381.372 238.319 381.529 238.715 381.529 239.255V244.862C381.529 246.037 380.811 247.405 379.93 247.911L364.253 256.887C363.973 257.051 363.706 257.092 363.474 257.058C363.768 257.332 364.191 257.373 364.67 257.099L380.347 248.123C381.229 247.617 381.946 246.249 381.946 245.074V239.467C381.946 238.661 381.611 238.168 381.126 238.086Z"
            fill="white" />
        <path
            d="M369.388 251.009L370.823 250.182C371.015 250.072 371.172 249.772 371.172 249.519V247.98C371.172 247.721 371.015 247.604 370.823 247.721L369.388 248.548C369.196 248.657 369.039 248.958 369.039 249.211V250.742C369.039 251.002 369.196 251.118 369.388 251.009Z"
            fill="white" />
        <path
            d="M374.193 248.233L375.629 247.405C375.821 247.296 375.978 246.995 375.978 246.742V245.204C375.978 244.944 375.821 244.828 375.629 244.944L374.193 245.771C374.002 245.881 373.845 246.182 373.845 246.435V247.973C373.852 248.226 374.002 248.342 374.193 248.233Z"
            fill="#396CAA" />
        <path
            d="M364.67 216.585L380.347 207.608C381.229 207.096 381.946 205.735 381.946 204.559V198.953C381.946 197.777 381.229 197.237 380.347 197.743L364.67 206.713C363.788 207.219 363.07 208.586 363.07 209.762V215.368C363.077 216.551 363.788 217.091 364.67 216.585Z"
            fill="url(#paint28_linear_45)" />
        <path
            d="M381.126 197.572C381.372 197.804 381.529 198.201 381.529 198.741V204.347C381.529 205.523 380.811 206.89 379.93 207.396L364.253 216.372C363.973 216.537 363.706 216.578 363.474 216.543C363.768 216.817 364.191 216.858 364.67 216.584L380.347 207.608C381.229 207.102 381.946 205.735 381.946 204.559V198.953C381.946 198.146 381.611 197.654 381.126 197.572Z"
            fill="white" />
        <path
            d="M369.388 210.493L370.823 209.666C371.015 209.556 371.172 209.256 371.172 209.003V207.464C371.172 207.205 371.015 207.088 370.823 207.205L369.388 208.032C369.196 208.141 369.039 208.442 369.039 208.695V210.233C369.039 210.486 369.196 210.602 369.388 210.493Z"
            fill="white" />
        <path
            d="M374.193 207.717L375.629 206.89C375.821 206.78 375.978 206.479 375.978 206.227V204.688C375.978 204.428 375.821 204.312 375.629 204.422L374.193 205.249C374.002 205.358 373.845 205.659 373.845 205.912V207.45C373.852 207.71 374.002 207.826 374.193 207.717Z"
            fill="white" />
        <path
            d="M351.092 190.586L314.919 169.699C314.112 169.235 313.456 167.977 313.456 166.896V159.998C313.456 158.918 314.112 158.426 314.919 158.891L351.092 179.777C351.899 180.242 352.555 181.5 352.555 182.58V189.478C352.562 190.558 351.906 191.05 351.092 190.586Z"
            fill="url(#paint29_linear_45)" />
        <path opacity="0.4"
            d="M350.054 188.166L315.959 168.483C315.549 168.243 315.214 167.608 315.214 167.061V161.878C315.214 161.332 315.549 161.079 315.959 161.318L350.054 181.001C350.464 181.24 350.799 181.876 350.799 182.423V187.605C350.799 188.152 350.464 188.405 350.054 188.166Z"
            fill="#D4ECFF" />
        <path
            d="M323.068 169.966L317.982 167.026C317.585 166.794 317.257 166.178 317.257 165.645C317.257 165.112 317.578 164.866 317.982 165.098L323.068 168.038C323.465 168.27 323.793 168.886 323.793 169.419C323.786 169.952 323.465 170.191 323.068 169.966Z"
            fill="#D4ECFF" />
        <path
            d="M327.403 171.504C327.403 172.037 327.027 172.249 326.568 171.982C326.11 171.716 325.734 171.073 325.734 170.54C325.734 170.006 326.11 169.794 326.568 170.061C327.027 170.328 327.403 170.97 327.403 171.504Z"
            fill="#211053" />
        <path
            d="M330.343 173.2C330.343 173.734 329.967 173.946 329.509 173.679C329.051 173.412 328.675 172.77 328.675 172.236C328.675 171.703 329.051 171.491 329.509 171.758C329.967 172.025 330.343 172.674 330.343 173.2Z"
            fill="#211053" />
        <path
            d="M333.282 174.902C333.282 175.435 332.906 175.647 332.448 175.38C331.99 175.114 331.614 174.471 331.614 173.938C331.614 173.404 331.99 173.192 332.448 173.459C332.913 173.726 333.282 174.368 333.282 174.902Z"
            fill="#D4ECFF" />
        <path
            d="M336.23 176.598C336.23 177.132 335.854 177.344 335.396 177.077C334.938 176.81 334.562 176.168 334.562 175.634C334.562 175.101 334.938 174.889 335.396 175.156C335.854 175.422 336.23 176.072 336.23 176.598Z"
            fill="#211053" />
        <path
            d="M348.617 185.28L346.901 184.289C346.648 184.139 346.437 183.742 346.437 183.4V181.589C346.437 181.247 346.642 181.09 346.901 181.24L348.617 182.231C348.87 182.382 349.082 182.778 349.082 183.12V184.932C349.082 185.274 348.877 185.431 348.617 185.28Z"
            fill="#211053" />
        <path
            d="M351.092 202.747L314.919 181.861C314.112 181.396 313.456 180.138 313.456 179.058V172.159C313.456 171.079 314.112 170.587 314.919 171.052L351.092 191.938C351.899 192.403 352.555 193.661 352.555 194.741V201.639C352.562 202.719 351.906 203.212 351.092 202.747Z"
            fill="url(#paint30_linear_45)" />
        <path opacity="0.4"
            d="M350.054 200.327L315.959 180.644C315.549 180.405 315.214 179.769 315.214 179.222V174.04C315.214 173.493 315.549 173.24 315.959 173.479L350.054 193.162C350.464 193.402 350.799 194.037 350.799 194.584V199.767C350.799 200.313 350.464 200.566 350.054 200.327Z"
            fill="#D4ECFF" />
        <path
            d="M323.068 182.127L317.982 179.187C317.585 178.955 317.257 178.339 317.257 177.806C317.257 177.273 317.578 177.027 317.982 177.259L323.068 180.199C323.465 180.431 323.793 181.047 323.793 181.58C323.786 182.113 323.465 182.353 323.068 182.127Z"
            fill="#D4ECFF" />
        <path
            d="M327.403 183.666C327.403 184.199 327.027 184.411 326.568 184.144C326.11 183.878 325.734 183.235 325.734 182.702C325.734 182.169 326.11 181.957 326.568 182.223C327.027 182.49 327.403 183.132 327.403 183.666Z"
            fill="white" />
        <path
            d="M330.343 185.361C330.343 185.895 329.967 186.107 329.509 185.84C329.051 185.573 328.675 184.931 328.675 184.397C328.675 183.864 329.051 183.652 329.509 183.919C329.967 184.185 330.343 184.835 330.343 185.361Z"
            fill="#211053" />
        <path
            d="M333.282 187.064C333.282 187.597 332.906 187.809 332.448 187.542C331.99 187.276 331.614 186.633 331.614 186.1C331.614 185.566 331.99 185.355 332.448 185.621C332.913 185.888 333.282 186.53 333.282 187.064Z"
            fill="#D4ECFF" />
        <path
            d="M336.23 188.759C336.23 189.293 335.854 189.504 335.396 189.238C334.938 188.971 334.562 188.329 334.562 187.795C334.562 187.262 334.938 187.05 335.396 187.317C335.854 187.583 336.23 188.233 336.23 188.759Z"
            fill="#211053" />
        <path
            d="M348.617 197.443L346.901 196.451C346.648 196.301 346.437 195.905 346.437 195.563V193.751C346.437 193.409 346.642 193.252 346.901 193.402L348.617 194.394C348.87 194.544 349.082 194.941 349.082 195.282V197.094C349.082 197.436 348.877 197.593 348.617 197.443Z"
            fill="#211053" />
        <path
            d="M351.092 214.909L314.919 194.023C314.112 193.558 313.456 192.3 313.456 191.22V184.322C313.456 183.241 314.112 182.749 314.919 183.214L351.092 204.1C351.899 204.565 352.555 205.823 352.555 206.903V213.801C352.562 214.882 351.906 215.374 351.092 214.909Z"
            fill="url(#paint31_linear_45)" />
        <path opacity="0.4"
            d="M350.054 212.489L315.959 192.806C315.549 192.567 315.214 191.931 315.214 191.384V186.202C315.214 185.655 315.549 185.402 315.959 185.642L350.054 205.324C350.464 205.564 350.799 206.199 350.799 206.746V211.929C350.799 212.476 350.464 212.729 350.054 212.489Z"
            fill="#D4ECFF" />
        <path
            d="M323.068 194.289L317.982 191.349C317.585 191.117 317.257 190.502 317.257 189.968C317.257 189.435 317.578 189.189 317.982 189.421L323.068 192.361C323.465 192.594 323.793 193.209 323.793 193.742C323.786 194.275 323.465 194.515 323.068 194.289Z"
            fill="#D4ECFF" />
        <path
            d="M327.403 195.828C327.403 196.361 327.027 196.573 326.568 196.306C326.11 196.04 325.734 195.397 325.734 194.864C325.734 194.331 326.11 194.119 326.568 194.385C327.027 194.652 327.403 195.295 327.403 195.828Z"
            fill="white" />
        <path
            d="M330.343 197.523C330.343 198.057 329.967 198.269 329.509 198.002C329.051 197.735 328.675 197.093 328.675 196.559C328.675 196.026 329.051 195.814 329.509 196.081C329.967 196.348 330.343 196.997 330.343 197.523Z"
            fill="#211053" />
        <path
            d="M333.282 199.226C333.282 199.759 332.906 199.971 332.448 199.705C331.99 199.438 331.614 198.795 331.614 198.262C331.614 197.729 331.99 197.517 332.448 197.784C332.913 198.05 333.282 198.693 333.282 199.226Z"
            fill="#D4ECFF" />
        <path
            d="M336.23 200.922C336.23 201.455 335.854 201.667 335.396 201.4C334.938 201.134 334.562 200.491 334.562 199.958C334.562 199.424 334.938 199.212 335.396 199.479C335.854 199.746 336.23 200.395 336.23 200.922Z"
            fill="#211053" />
        <path
            d="M348.617 209.605L346.901 208.614C346.648 208.463 346.437 208.067 346.437 207.725V205.913C346.437 205.571 346.642 205.414 346.901 205.564L348.617 206.556C348.87 206.706 349.082 207.103 349.082 207.445V209.256C349.082 209.598 348.877 209.755 348.617 209.605Z"
            fill="#211053" />
        <path
            d="M351.092 227.072L314.919 206.186C314.112 205.721 313.456 204.463 313.456 203.382V196.484C313.456 195.404 314.112 194.912 314.919 195.377L351.092 216.263C351.899 216.728 352.555 217.986 352.555 219.066V225.964C352.562 227.044 351.906 227.536 351.092 227.072Z"
            fill="url(#paint32_linear_45)" />
        <path opacity="0.4"
            d="M350.054 224.651L315.959 204.969C315.549 204.729 315.214 204.093 315.214 203.547V198.364C315.214 197.817 315.549 197.564 315.959 197.804L350.054 217.487C350.464 217.726 350.799 218.362 350.799 218.909V224.091C350.799 224.638 350.464 224.891 350.054 224.651Z"
            fill="#D4ECFF" />
        <path
            d="M323.068 206.452L317.982 203.512C317.585 203.28 317.257 202.664 317.257 202.131C317.257 201.598 317.578 201.352 317.982 201.584L323.068 204.524C323.465 204.756 323.793 205.372 323.793 205.905C323.786 206.438 323.465 206.678 323.068 206.452Z"
            fill="#D4ECFF" />
        <path
            d="M327.403 207.99C327.403 208.523 327.027 208.735 326.568 208.468C326.11 208.202 325.734 207.559 325.734 207.026C325.734 206.493 326.11 206.281 326.568 206.547C327.027 206.814 327.403 207.456 327.403 207.99Z"
            fill="#211053" />
        <path
            d="M330.343 209.686C330.343 210.219 329.967 210.431 329.509 210.165C329.051 209.898 328.675 209.255 328.675 208.722C328.675 208.189 329.051 207.977 329.509 208.243C329.967 208.51 330.343 209.16 330.343 209.686Z"
            fill="#211053" />
        <path
            d="M333.282 211.388C333.282 211.921 332.906 212.133 332.448 211.866C331.99 211.6 331.614 210.957 331.614 210.424C331.614 209.89 331.99 209.679 332.448 209.945C332.913 210.212 333.282 210.854 333.282 211.388Z"
            fill="#D4ECFF" />
        <path
            d="M336.23 213.084C336.23 213.617 335.854 213.829 335.396 213.563C334.938 213.296 334.562 212.653 334.562 212.12C334.562 211.587 334.938 211.375 335.396 211.641C335.854 211.908 336.23 212.558 336.23 213.084Z"
            fill="#211053" />
        <path
            d="M348.617 221.767L346.901 220.775C346.648 220.625 346.437 220.229 346.437 219.887V218.075C346.437 217.733 346.642 217.576 346.901 217.726L348.617 218.718C348.87 218.868 349.082 219.265 349.082 219.606V221.418C349.082 221.76 348.877 221.917 348.617 221.767Z"
            fill="#D4ECFF" />
        <path
            d="M351.092 239.234L314.919 218.348C314.112 217.883 313.456 216.626 313.456 215.545V208.647C313.456 207.567 314.112 207.075 314.919 207.54L351.092 228.426C351.899 228.891 352.555 230.148 352.555 231.229V238.127C352.562 239.207 351.906 239.699 351.092 239.234Z"
            fill="url(#paint33_linear_45)" />
        <path opacity="0.4"
            d="M350.054 236.814L315.959 217.131C315.549 216.891 315.214 216.256 315.214 215.709V210.526C315.214 209.979 315.549 209.727 315.959 209.966L350.054 229.649C350.464 229.888 350.799 230.524 350.799 231.071V236.253C350.799 236.8 350.464 237.053 350.054 236.814Z"
            fill="#D4ECFF" />
        <path
            d="M323.068 218.614L317.982 215.674C317.585 215.442 317.257 214.827 317.257 214.293C317.257 213.76 317.578 213.514 317.982 213.746L323.068 216.686C323.465 216.919 323.793 217.534 323.793 218.067C323.786 218.6 323.465 218.84 323.068 218.614Z"
            fill="#D4ECFF" />
        <path
            d="M327.403 220.153C327.403 220.686 327.027 220.898 326.568 220.631C326.11 220.365 325.734 219.722 325.734 219.189C325.734 218.656 326.11 218.444 326.568 218.71C327.027 218.977 327.403 219.62 327.403 220.153Z"
            fill="#211053" />
        <path
            d="M330.343 221.849C330.343 222.382 329.967 222.594 329.509 222.327C329.051 222.061 328.675 221.418 328.675 220.885C328.675 220.351 329.051 220.139 329.509 220.406C329.967 220.673 330.343 221.322 330.343 221.849Z"
            fill="white" />
        <path
            d="M333.282 223.551C333.282 224.084 332.906 224.296 332.448 224.029C331.99 223.763 331.614 223.12 331.614 222.587C331.614 222.054 331.99 221.842 332.448 222.108C332.913 222.375 333.282 223.017 333.282 223.551Z"
            fill="#D4ECFF" />
        <path
            d="M336.23 225.246C336.23 225.78 335.854 225.992 335.396 225.725C334.938 225.458 334.562 224.816 334.562 224.282C334.562 223.749 334.938 223.537 335.396 223.804C335.854 224.07 336.23 224.72 336.23 225.246Z"
            fill="white" />
        <path
            d="M348.617 233.93L346.901 232.939C346.648 232.788 346.437 232.392 346.437 232.05V230.238C346.437 229.896 346.642 229.739 346.901 229.889L348.617 230.881C348.87 231.031 349.082 231.428 349.082 231.769V233.581C349.082 233.923 348.877 234.08 348.617 233.93Z"
            fill="#D4ECFF" />
        <path
            d="M351.092 251.397L314.919 230.511C314.112 230.046 313.456 228.788 313.456 227.708V220.81C313.456 219.73 314.112 219.238 314.919 219.702L351.092 240.588C351.899 241.053 352.555 242.311 352.555 243.392V250.29C352.562 251.37 351.906 251.862 351.092 251.397Z"
            fill="url(#paint34_linear_45)" />
        <path opacity="0.4"
            d="M350.054 248.977L315.959 229.294C315.549 229.055 315.214 228.419 315.214 227.872V222.69C315.214 222.143 315.549 221.89 315.959 222.129L350.054 241.812C350.464 242.052 350.799 242.687 350.799 243.234V248.417C350.799 248.963 350.464 249.216 350.054 248.977Z"
            fill="#D4ECFF" />
        <path
            d="M323.068 230.777L317.982 227.838C317.585 227.605 317.257 226.99 317.257 226.457C317.257 225.923 317.578 225.677 317.982 225.91L323.068 228.849C323.465 229.082 323.793 229.697 323.793 230.23C323.786 230.764 323.465 231.003 323.068 230.777Z"
            fill="#D4ECFF" />
        <path
            d="M327.403 232.316C327.403 232.85 327.027 233.062 326.568 232.795C326.11 232.528 325.734 231.886 325.734 231.352C325.734 230.819 326.11 230.607 326.568 230.874C327.027 231.14 327.403 231.783 327.403 232.316Z"
            fill="#211053" />
        <path
            d="M330.343 234.012C330.343 234.545 329.967 234.757 329.509 234.49C329.051 234.224 328.675 233.581 328.675 233.048C328.675 232.514 329.051 232.303 329.509 232.569C329.967 232.836 330.343 233.485 330.343 234.012Z"
            fill="#211053" />
        <path
            d="M333.282 235.714C333.282 236.248 332.906 236.46 332.448 236.193C331.99 235.926 331.614 235.284 331.614 234.75C331.614 234.217 331.99 234.005 332.448 234.272C332.913 234.538 333.282 235.181 333.282 235.714Z"
            fill="#D4ECFF" />
        <path
            d="M336.23 237.409C336.23 237.942 335.854 238.154 335.396 237.888C334.938 237.621 334.562 236.978 334.562 236.445C334.562 235.912 334.938 235.7 335.396 235.966C335.854 236.233 336.23 236.883 336.23 237.409Z"
            fill="#211053" />
        <path
            d="M348.617 246.093L346.901 245.102C346.648 244.951 346.437 244.555 346.437 244.213V242.401C346.437 242.059 346.642 241.902 346.901 242.052L348.617 243.044C348.87 243.194 349.082 243.591 349.082 243.933V245.744C349.082 246.086 348.877 246.243 348.617 246.093Z"
            fill="#211053" />
        <path
            d="M351.092 263.56L314.919 242.674C314.112 242.209 313.456 240.951 313.456 239.871V232.973C313.456 231.892 314.112 231.4 314.919 231.865L351.092 252.751C351.899 253.216 352.555 254.474 352.555 255.554V262.452C352.562 263.533 351.906 264.025 351.092 263.56Z"
            fill="url(#paint35_linear_45)" />
        <path opacity="0.4"
            d="M350.054 261.14L315.959 241.457C315.549 241.218 315.214 240.582 315.214 240.035V234.853C315.214 234.306 315.549 234.053 315.959 234.292L350.054 253.975C350.464 254.214 350.799 254.85 350.799 255.397V260.579C350.799 261.126 350.464 261.379 350.054 261.14Z"
            fill="#D4ECFF" />
        <path
            d="M323.068 242.94L317.982 240C317.585 239.768 317.257 239.153 317.257 238.619C317.257 238.086 317.578 237.84 317.982 238.073L323.068 241.012C323.465 241.245 323.793 241.86 323.793 242.393C323.786 242.926 323.465 243.166 323.068 242.94Z"
            fill="#D4ECFF" />
        <path
            d="M327.403 244.479C327.403 245.012 327.027 245.224 326.568 244.957C326.11 244.691 325.734 244.048 325.734 243.515C325.734 242.982 326.11 242.77 326.568 243.036C327.027 243.303 327.403 243.945 327.403 244.479Z"
            fill="white" />
        <path
            d="M330.343 246.175C330.343 246.708 329.967 246.92 329.509 246.653C329.051 246.386 328.675 245.744 328.675 245.211C328.675 244.677 329.051 244.465 329.509 244.732C329.967 244.999 330.343 245.648 330.343 246.175Z"
            fill="#211053" />
        <path
            d="M333.282 247.876C333.282 248.409 332.906 248.621 332.448 248.354C331.99 248.088 331.614 247.445 331.614 246.912C331.614 246.378 331.99 246.167 332.448 246.433C332.913 246.693 333.282 247.342 333.282 247.876Z"
            fill="#D4ECFF" />
        <path
            d="M336.23 249.571C336.23 250.104 335.854 250.316 335.396 250.049C334.938 249.783 334.562 249.14 334.562 248.607C334.562 248.074 334.938 247.862 335.396 248.128C335.854 248.395 336.23 249.044 336.23 249.571Z"
            fill="#211053" />
        <path
            d="M348.617 258.255L346.901 257.264C346.648 257.113 346.437 256.717 346.437 256.375V254.563C346.437 254.221 346.642 254.064 346.901 254.214L348.617 255.206C348.87 255.356 349.082 255.753 349.082 256.094V257.906C349.082 258.248 348.877 258.405 348.617 258.255Z"
            fill="#D4ECFF" />
    </g>
    <line x1="194.75" y1="193.086" x2="339.088" y2="109.752" stroke="url(#paint36_linear_45)" stroke-dasharray="2 2" />
    <g opacity="0.7">
        <path opacity="0.4"
            d="M165.719 319.141C152.529 311.685 131.206 311.636 118.115 319.044C105.024 326.451 105.074 338.586 118.264 346.042L224.282 406.229C237.472 413.685 258.795 413.734 271.886 406.326C284.977 398.919 284.928 386.784 271.737 379.328L165.719 319.141Z"
            fill="url(#paint37_linear_45)" />
    </g>
    <g class="cloud">
        <path
            d="M215.539 301.524C210.788 298.8 206.32 297.385 202.243 297.102C202.243 296.819 202.278 296.571 202.278 296.288C202.278 256.132 173.843 207.238 138.813 187.036C110.626 170.797 86.7643 178.121 78.4677 202.462C76.3049 200.834 74.1067 199.278 71.8375 197.969C48.7205 184.666 30 195.315 30 221.779C30 248.243 48.7205 280.509 71.8375 293.811C83.396 300.463 201.853 368.71 215.539 376.599C233.656 387.036 248.335 378.687 248.335 357.954C248.335 337.222 233.621 311.961 215.539 301.524Z"
            fill="url(#paint38_linear_45)" />
        <path
            d="M253.158 279.73C248.407 277.006 243.939 275.59 239.862 275.307C239.862 275.024 239.897 274.777 239.897 274.494C239.897 234.338 211.462 185.444 176.432 165.242C148.245 149.003 124.383 156.326 116.087 180.668C113.924 179.04 111.726 177.483 109.457 176.174C86.3397 162.872 67.6191 173.521 67.6191 199.985C67.6191 226.448 86.3751 258.715 109.492 272.053C121.051 278.704 239.507 346.951 253.193 354.84C271.311 365.277 285.99 356.928 285.99 336.195C285.954 315.428 271.276 290.167 253.158 279.73Z"
            fill="url(#paint39_linear_45)" />
        <path d="M155.156 228.996L159.765 231.65V226.343L155.156 223.689V228.996Z" fill="#B9B3FF" />
        <path d="M146.472 223.972L151.081 226.625V221.354L146.472 218.7V223.972Z" fill="#905CFF" />
        <path d="M137.783 218.983L142.428 221.637V216.365L137.783 213.677V218.983Z" fill="#905CFF" />
        <path d="M129.132 213.995L133.741 216.649V211.342L129.132 208.688V213.995Z" fill="#B9B3FF" />
        <path d="M120.445 208.971L125.055 211.624V206.353L120.445 203.699V208.971Z" fill="#B9B3FF" />
        <path d="M111.76 203.983L116.369 206.636V201.365L111.76 198.676V203.983Z" fill="#B9B3FF" />
        <path d="M103.072 198.994L107.682 201.648V196.341L103.072 193.688V198.994Z" fill="#B9B3FF" />
        <path d="M85.7334 188.982L90.3426 191.635V186.364L85.7334 183.675V188.982Z" fill="#905CFF" />
        <path d="M77.0479 183.993L81.6571 186.647V181.34L77.0479 178.687V183.993Z" fill="#905CFF" />
        <path d="M155.156 238.371L159.765 241.06V235.753L155.156 233.1V238.371Z" fill="#B9B3FF" />
        <path d="M146.472 233.382L151.081 236.036V230.764L146.472 228.075V233.382Z" fill="#B9B3FF" />
        <path d="M137.783 228.394L142.428 231.048V225.741L137.783 223.087V228.394Z" fill="#B9B3FF" />
        <path d="M129.132 223.37L133.741 226.059V220.752L129.132 218.099V223.37Z" fill="#905CFF" />
        <path d="M120.445 218.382L125.055 221.035V215.764L120.445 213.075V218.382Z" fill="#905CFF" />
        <path d="M111.76 213.393L116.369 216.047V210.74L111.76 208.086V213.393Z" fill="#B9B3FF" />
        <path d="M94.3857 203.381L99.0304 206.034V200.763L94.3857 198.074V203.381Z" fill="#905CFF" />
        <path d="M85.7334 198.392L90.3426 201.046V195.739L85.7334 193.085V198.392Z" fill="#905CFF" />
        <path d="M155.157 247.641L159.766 250.294V245.023L155.157 242.369V247.641Z" fill="#B9B3FF" />
        <path d="M137.784 237.628L142.429 240.317V235.01L137.784 232.357V237.628Z" fill="#905CFF" />
        <path d="M129.133 232.64L133.742 235.294V230.022L129.133 227.369V232.64Z" fill="#905CFF" />
        <path d="M111.761 222.628L116.37 225.317V220.01L111.761 217.356V222.628Z" fill="#905CFF" />
        <path d="M103.073 217.64L107.682 220.293V215.022L103.073 212.368V217.64Z" fill="#905CFF" />
        <path d="M94.3867 212.65L99.0314 215.304V210.032L94.3867 207.344V212.65Z" fill="#905CFF" />
        <path d="M155.158 257.052L159.767 259.705V254.434L155.158 251.745V257.052Z" fill="#905CFF" />
        <path d="M146.471 252.064L151.08 254.717V249.41L146.471 246.757V252.064Z" fill="#B9B3FF" />
        <path d="M137.784 247.039L142.429 249.693V244.421L137.784 241.768V247.039Z" fill="#B9B3FF" />
        <path d="M120.447 237.063L125.056 239.716V234.409L120.447 231.756V237.063Z" fill="#B9B3FF" />
        <path d="M111.761 232.038L116.37 234.692V229.42L111.761 226.767V232.038Z" fill="#B9B3FF" />
        <path d="M103.073 227.05L107.682 229.703V224.432L103.073 221.743V227.05Z" fill="#B9B3FF" />
        <path d="M94.3857 222.062L99.0304 224.715V219.408L94.3857 216.755V222.062Z" fill="#905CFF" />
        <path d="M85.7363 217.038L90.3455 219.691V214.42L85.7363 211.766V217.038Z" fill="#B9B3FF" />
        <path d="M77.0488 212.049L81.658 214.703V209.431L77.0488 206.742V212.049Z" fill="#905CFF" />
        <path d="M155.156 266.392L159.765 269.046V263.739L155.156 261.085V266.392Z" fill="#B9B3FF" />
        <path d="M146.472 261.368L151.081 264.057V258.75L146.472 256.097V261.368Z" fill="#905CFF" />
        <path d="M137.783 256.38L142.428 259.033V253.762L137.783 251.073V256.38Z" fill="#905CFF" />
        <path d="M129.132 251.391L133.741 254.045V248.738L129.132 246.084V251.391Z" fill="#B9B3FF" />
        <path d="M120.445 246.367L125.055 249.056V243.749L120.445 241.096V246.367Z" fill="#905CFF" />
        <path d="M111.76 241.379L116.369 244.032V238.761L111.76 236.072V241.379Z" fill="#905CFF" />
        <path d="M94.3857 231.367L99.0304 234.055V228.748L94.3857 226.095V231.367Z" fill="#B9B3FF" />
        <path d="M85.7334 226.378L90.3426 229.031V223.76L85.7334 221.071V226.378Z" fill="#905CFF" />
        <path d="M77.0479 221.39L81.6571 224.043V218.736L77.0479 216.083V221.39Z" fill="#905CFF" />
        <path d="M155.156 275.767L159.765 278.456V273.149L155.156 270.496V275.767Z" fill="#B9B3FF" />
        <path d="M146.472 270.779L151.081 273.432V268.161L146.472 265.507V270.779Z" fill="#B9B3FF" />
        <path d="M129.132 260.766L133.741 263.455V258.148L129.132 255.495V260.766Z" fill="#905CFF" />
        <path d="M120.445 255.777L125.055 258.431V253.159L120.445 250.506V255.777Z" fill="#B9B3FF" />
        <path d="M111.76 250.789L116.369 253.443V248.136L111.76 245.482V250.789Z" fill="#B9B3FF" />
        <path d="M103.072 245.766L107.682 248.455V243.148L103.072 240.494V245.766Z" fill="#B9B3FF" />
        <path d="M94.3857 240.777L99.0304 243.43V238.159L94.3857 235.505V240.777Z" fill="#905CFF" />
        <path d="M85.7334 235.788L90.3426 238.442V233.135L85.7334 230.481V235.788Z" fill="#905CFF" />
        <path d="M77.0479 230.765L81.6571 233.454V228.147L77.0479 225.493V230.765Z" fill="#B9B3FF" />
        <path d="M155.156 285.356L159.765 288.044V282.737L155.156 280.084V285.356Z" fill="#905CFF" />
        <path d="M146.472 280.366L151.081 283.02V277.748L146.472 275.06V280.366Z" fill="#905CFF" />
        <path d="M137.783 275.378L142.428 278.032V272.725L137.783 270.071V275.378Z" fill="#905CFF" />
        <path d="M129.132 270.355L133.741 273.043V267.736L129.132 265.083V270.355Z" fill="#905CFF" />
        <path d="M120.445 265.366L125.055 268.019V262.748L120.445 260.059V265.366Z" fill="#905CFF" />
        <path d="M111.76 260.377L116.369 263.031V257.724L111.76 255.071V260.377Z" fill="#905CFF" />
        <path d="M103.072 255.354L107.682 258.043V252.736L103.072 250.082V255.354Z" fill="#905CFF" />
        <path d="M94.3857 250.365L99.0304 253.018V247.747L94.3857 245.058V250.365Z" fill="#B9B3FF" />
        <path d="M85.7334 245.376L90.3426 248.03V242.723L85.7334 240.07V245.376Z" fill="#905CFF" />
        <path d="M155.156 294.766L159.765 297.419V292.148L155.156 289.494V294.766Z" fill="#905CFF" />
        <path d="M146.472 289.777L151.081 292.431V287.124L146.472 284.47V289.777Z" fill="#905CFF" />
        <path d="M129.132 279.765L133.741 282.419V277.147L129.132 274.494V279.765Z" fill="#905CFF" />
        <path d="M120.445 274.776L125.055 277.43V272.123L120.445 269.469V274.776Z" fill="#B9B3FF" />
        <path d="M111.76 269.753L116.369 272.442V267.135L111.76 264.481V269.753Z" fill="#905CFF" />
        <path d="M103.072 264.764L107.682 267.418V262.146L103.072 259.457V264.764Z" fill="#905CFF" />
        <path d="M94.3857 259.775L99.0304 262.429V257.122L94.3857 254.469V259.775Z" fill="#905CFF" />
        <path d="M259.114 270.355L263.723 273.008V267.736L259.114 265.048V270.355Z" fill="#B9B3FF" />
        <path d="M241.741 260.342L246.386 263.031V257.724L241.741 255.071V260.342Z" fill="#905CFF" />
        <path d="M215.718 245.341L220.327 247.995V242.723L215.718 240.07V245.341Z" fill="#905CFF" />
        <path d="M207.03 240.353L211.675 243.006V237.735L207.03 235.046V240.353Z" fill="#905CFF" />
        <path d="M198.345 235.364L202.989 238.018V232.711L198.345 230.057V235.364Z" fill="#905CFF" />
        <path d="M172.32 220.363L176.93 223.017V217.71L172.32 215.056V220.363Z" fill="#B9B3FF" />
        <path d="M163.633 215.339L168.277 217.993V212.721L163.633 210.068V215.339Z" fill="#B9B3FF" />
        <path d="M259.114 279.765L263.723 282.419V277.112L259.114 274.458V279.765Z" fill="#905CFF" />
        <path d="M241.741 269.753L246.386 272.406V267.135L241.741 264.446V269.753Z" fill="#B9B3FF" />
        <path d="M224.403 259.74L229.013 262.429V257.122L224.403 254.469V259.74Z" fill="#B9B3FF" />
        <path d="M215.718 254.752L220.327 257.405V252.134L215.718 249.445V254.752Z" fill="#B9B3FF" />
        <path d="M207.03 249.764L211.675 252.417V247.11L207.03 244.457V249.764Z" fill="#B9B3FF" />
        <path d="M198.345 244.739L202.989 247.428V242.121L198.345 239.468V244.739Z" fill="#905CFF" />
        <path d="M189.691 239.751L194.301 242.404V237.133L189.691 234.444V239.751Z" fill="#905CFF" />
        <path d="M181.006 234.762L185.615 237.416V232.109L181.006 229.456V234.762Z" fill="#905CFF" />
        <path d="M172.32 229.738L176.93 232.427V227.12L172.32 224.467V229.738Z" fill="#905CFF" />
        <path d="M163.633 224.75L168.277 227.404V222.132L163.633 219.443V224.75Z" fill="#905CFF" />
        <path d="M259.114 289.07L263.723 291.759V286.452L259.114 283.798V289.07Z" fill="#B9B3FF" />
        <path d="M250.43 284.081L255.074 286.735V281.463L250.43 278.81V284.081Z" fill="#905CFF" />
        <path d="M241.741 279.093L246.386 281.746V276.439L241.741 273.786V279.093Z" fill="#905CFF" />
        <path d="M233.09 274.069L237.699 276.758V271.451L233.09 268.798V274.069Z" fill="#905CFF" />
        <path d="M224.403 269.08L229.013 271.734V266.462L224.403 263.809V269.08Z" fill="#905CFF" />
        <path d="M215.718 264.092L220.327 266.746V261.439L215.718 258.785V264.092Z" fill="#905CFF" />
        <path d="M198.344 254.08L202.988 256.733V251.462L198.344 248.808V254.08Z" fill="#B9B3FF" />
        <path d="M189.691 249.091L194.301 251.744V246.437L189.691 243.784V249.091Z" fill="#905CFF" />
        <path d="M181.006 244.067L185.615 246.756V241.449L181.006 238.796V244.067Z" fill="#905CFF" />
        <path d="M172.32 239.078L176.93 241.732V236.46L172.32 233.807V239.078Z" fill="#905CFF" />
        <path d="M163.634 234.09L168.278 236.744V231.437L163.634 228.783V234.09Z" fill="#B9B3FF" />
        <path d="M259.114 298.481L263.723 301.134V295.863L259.114 293.209V298.481Z" fill="#B9B3FF" />
        <path d="M250.43 293.492L255.074 296.145V290.874L250.43 288.185V293.492Z" fill="#B9B3FF" />
        <path d="M233.09 283.48L237.699 286.133V280.862L233.09 278.208V283.48Z" fill="#905CFF" />
        <path d="M224.403 278.492L229.013 281.145V275.873L224.403 273.185V278.492Z" fill="#B9B3FF" />
        <path d="M215.718 273.503L220.327 276.156V270.85L215.718 268.196V273.503Z" fill="#B9B3FF" />
        <path d="M198.345 263.49L202.989 266.144V260.872L198.345 258.183V263.49Z" fill="#905CFF" />
        <path d="M189.691 258.502L194.301 261.155V255.848L189.691 253.195V258.502Z" fill="#905CFF" />
        <path d="M181.006 253.478L185.615 256.132V250.86L181.006 248.207V253.478Z" fill="#B9B3FF" />
        <path d="M163.633 243.466L168.277 246.155V240.848L163.633 238.194V243.466Z" fill="#B9B3FF" />
        <path d="M259.114 307.751L263.723 310.404V305.133L259.114 302.444V307.751Z" fill="#B9B3FF" />
        <path d="M241.741 297.739L246.386 300.427V295.12L241.741 292.467V297.739Z" fill="#905CFF" />
        <path d="M215.718 282.738L220.327 285.426V280.12L215.718 277.466V282.738Z" fill="#905CFF" />
        <path d="M207.03 277.749L211.675 280.403V275.131L207.03 272.442V277.749Z" fill="#905CFF" />
        <path d="M198.344 272.76L202.988 275.414V270.107L198.344 267.453V272.76Z" fill="#905CFF" />
        <path d="M172.32 257.759L176.93 260.413V255.106L172.32 252.452V257.759Z" fill="#B9B3FF" />
        <path d="M163.634 252.736L168.278 255.424V250.118L163.634 247.464V252.736Z" fill="#B9B3FF" />
        <path d="M259.114 317.161L263.723 319.815V314.508L259.114 311.854V317.161Z" fill="#905CFF" />
        <path d="M241.741 307.149L246.386 309.802V304.531L241.741 301.877V307.149Z" fill="#B9B3FF" />
        <path d="M224.403 297.137L229.013 299.825V294.518L224.403 291.865V297.137Z" fill="#B9B3FF" />
        <path d="M215.718 292.148L220.327 294.802V289.53L215.718 286.877V292.148Z" fill="#B9B3FF" />
        <path d="M207.03 287.16L211.675 289.813V284.506L207.03 281.853V287.16Z" fill="#B9B3FF" />
        <path d="M198.345 282.135L202.989 284.824V279.517L198.345 276.864V282.135Z" fill="#905CFF" />
        <path d="M189.691 277.147L194.301 279.801V274.529L189.691 271.876V277.147Z" fill="#905CFF" />
        <path d="M181.006 272.159L185.615 274.813V269.506L181.006 266.852V272.159Z" fill="#905CFF" />
        <path d="M172.32 267.135L176.93 269.824V264.517L172.32 261.863V267.135Z" fill="#905CFF" />
        <path d="M163.633 262.147L168.277 264.8V259.528L163.633 256.875V262.147Z" fill="#905CFF" />
        <path d="M259.114 326.467L263.723 329.155V323.849L259.114 321.195V326.467Z" fill="#B9B3FF" />
        <path d="M250.43 321.478L255.074 324.132V318.86L250.43 316.207V321.478Z" fill="#905CFF" />
        <path d="M241.741 316.49L246.386 319.143V313.871L241.741 311.183V316.49Z" fill="#905CFF" />
        <path d="M233.09 311.466L237.699 314.155V308.848L233.09 306.194V311.466Z" fill="#905CFF" />
        <path d="M224.403 306.477L229.013 309.13V303.859L224.403 301.205V306.477Z" fill="#905CFF" />
        <path d="M215.718 301.489L220.327 304.142V298.87L215.718 296.182V301.489Z" fill="#905CFF" />
        <path d="M198.344 291.476L202.988 294.13V288.858L198.344 286.205V291.476Z" fill="#B9B3FF" />
        <path d="M189.691 286.488L194.301 289.141V283.834L189.691 281.181V286.488Z" fill="#905CFF" />
        <path d="M181.006 281.464L185.615 284.153V278.846L181.006 276.193V281.464Z" fill="#905CFF" />
        <path d="M172.32 276.475L176.93 279.129V273.857L172.32 271.204V276.475Z" fill="#905CFF" />
        <path d="M163.634 271.487L168.278 274.141V268.834L163.634 266.18V271.487Z" fill="#B9B3FF" />
        <path d="M259.114 335.877L263.723 338.531V333.259L259.114 330.606V335.877Z" fill="#B9B3FF" />
        <path d="M250.43 330.888L255.074 333.542V328.27L250.43 325.582V330.888Z" fill="#B9B3FF" />
        <path d="M233.09 320.877L237.699 323.53V318.259L233.09 315.605V320.877Z" fill="#905CFF" />
        <path d="M224.403 315.888L229.013 318.541V313.27L224.403 310.581V315.888Z" fill="#B9B3FF" />
        <path d="M215.718 310.9L220.327 313.553V308.246L215.718 305.593V310.9Z" fill="#B9B3FF" />
        <path d="M198.345 300.887L202.989 303.54V298.269L198.345 295.58V300.887Z" fill="#905CFF" />
        <path d="M189.691 295.899L194.301 298.552V293.245L189.691 290.592V295.899Z" fill="#905CFF" />
        <path d="M181.006 290.875L185.615 293.529V288.257L181.006 285.604V290.875Z" fill="#B9B3FF" />
        <path d="M163.633 280.898L168.277 283.551V278.244L163.633 275.591V280.898Z" fill="#B9B3FF" />
        <path d="M259.114 345.465L263.723 348.118V342.847L259.114 340.193V345.465Z" fill="#B9B3FF" />
        <path d="M250.43 340.476L255.074 343.13V337.823L250.43 335.169V340.476Z" fill="#905CFF" />
        <path d="M241.741 335.452L246.386 338.141V332.834L241.741 330.181V335.452Z" fill="#905CFF" />
        <path d="M233.09 330.464L237.699 333.118V327.846L233.09 325.193V330.464Z" fill="#905CFF" />
        <path d="M224.403 325.475L229.013 328.129V322.822L224.403 320.168V325.475Z" fill="#905CFF" />
        <path d="M215.718 320.452L220.327 323.141V317.834L215.718 315.18V320.452Z" fill="#905CFF" />
        <path d="M198.344 310.474L202.988 313.128V307.821L198.344 305.167V310.474Z" fill="#B9B3FF" />
        <path d="M189.691 305.451L194.301 308.14V302.833L189.691 300.179V305.451Z" fill="#905CFF" />
        <path d="M181.006 300.462L185.615 303.116V297.844L181.006 295.191V300.462Z" fill="#905CFF" />
        <path d="M172.32 295.474L176.93 298.127V292.82L172.32 290.167V295.474Z" fill="#905CFF" />
        <path d="M163.634 290.45L168.278 293.139V287.832L163.634 285.178V290.45Z" fill="#B9B3FF" />
        <path d="M259.114 354.876L263.723 357.529V352.257L259.114 349.569V354.876Z" fill="#B9B3FF" />
        <path d="M250.43 349.887L255.074 352.54V347.233L250.43 344.58V349.887Z" fill="#B9B3FF" />
        <path d="M233.09 339.875L237.699 342.528V337.257L233.09 334.568V339.875Z" fill="#905CFF" />
        <path d="M224.403 334.886L229.013 337.539V332.233L224.403 329.579V334.886Z" fill="#B9B3FF" />
        <path d="M215.718 329.862L220.327 332.516V327.244L215.718 324.591V329.862Z" fill="#B9B3FF" />
        <path d="M198.345 319.885L202.989 322.538V317.231L198.345 314.578V319.885Z" fill="#905CFF" />
        <path d="M189.691 314.861L194.301 317.515V312.243L189.691 309.59V314.861Z" fill="#905CFF" />
        <path d="M181.006 309.873L185.615 312.527V307.255L181.006 304.566V309.873Z" fill="#B9B3FF" />
        <path d="M163.633 299.86L168.277 302.514V297.242L163.633 294.589V299.86Z" fill="#905CFF" />
        <path d="M155.158 210.245L159.767 212.898V207.627L155.158 204.973V210.245Z" fill="#B9B3FF" />
        <path d="M137.785 200.232L142.43 202.921V197.614L137.785 194.961V200.232Z" fill="#905CFF" />
        <path d="M111.762 185.231L116.371 187.92V182.613L111.762 179.96V185.231Z" fill="#905CFF" />
        <path d="M103.074 180.243L107.683 182.897V177.625L103.074 174.972V180.243Z" fill="#905CFF" />
        <path d="M94.3877 175.254L99.0324 177.908V172.601L94.3877 169.947V175.254Z" fill="#905CFF" />
        <path d="M155.157 219.656L159.766 222.309V217.038L155.157 214.349V219.656Z" fill="#905CFF" />
        <path d="M137.783 209.643L142.428 212.297V207.025L137.783 204.372V209.643Z" fill="#B9B3FF" />
        <path d="M120.447 199.666L125.056 202.319V197.012L120.447 194.359V199.666Z" fill="#B9B3FF" />
        <path d="M111.76 194.642L116.369 197.296V192.024L111.76 189.371V194.642Z" fill="#B9B3FF" />
        <path d="M103.072 189.654L107.681 192.307V187.036L103.072 184.347V189.654Z" fill="#B9B3FF" />
        <path d="M94.3867 184.665L99.0314 187.319V182.012L94.3867 179.358V184.665Z" fill="#905CFF" />
        <path d="M85.7354 179.641L90.3446 182.295V177.023L85.7354 174.37V179.641Z" fill="#905CFF" />
        <path d="M81.3408 211.873L138.885 173.627L94.4594 184.807L81.3408 205.221V211.873Z"
            fill="url(#paint40_linear_45)" />
        <path
            d="M312.333 320.912C312.333 300.179 297.654 274.919 279.537 264.482C274.786 261.757 270.318 260.342 266.241 260.059C266.241 259.776 266.276 259.528 266.276 259.245C266.276 219.09 237.841 170.195 202.811 149.994C183.133 138.672 166.008 140.194 153.918 148.225L133.673 159.759C122.256 153.85 112.009 153.886 104.812 158.839L44.1475 194.006C51.5222 190.786 61.2016 191.848 71.8382 197.968C74.1074 199.277 76.3056 200.799 78.4684 202.461C86.765 178.12 110.627 170.797 138.814 187.036C173.879 207.238 202.279 256.132 202.279 296.288C202.279 296.571 202.244 296.818 202.244 297.101C206.321 297.384 210.788 298.8 215.539 301.524C233.657 311.961 248.336 337.222 248.336 357.954C248.336 366.728 245.712 373.273 241.28 377.13L301.696 342.564L301.661 342.493C308.22 339.38 312.333 331.879 312.333 320.912Z"
            fill="url(#paint41_linear_45)" />
        <path
            d="M215.539 301.524C210.788 298.8 206.32 297.385 202.243 297.102C202.243 296.819 202.278 296.571 202.278 296.288C202.278 256.132 173.843 207.238 138.813 187.036C110.626 170.797 86.7643 178.121 78.4677 202.462C76.3049 200.834 74.1067 199.278 71.8375 197.969C48.7205 184.666 30 195.315 30 221.779C30 248.243 48.7205 280.509 71.8375 293.811C83.396 300.463 201.853 368.71 215.539 376.599C233.656 387.036 248.335 378.687 248.335 357.954C248.3 337.222 233.621 311.961 215.539 301.524ZM238.798 371.434C236.706 374.052 233.834 375.361 230.217 375.361C226.707 375.361 222.594 374.087 218.375 371.646L74.674 288.858C53.1879 276.475 35.7083 246.403 35.7083 221.814C35.7083 206.92 42.1967 198.004 53.0106 198.004C57.7617 198.004 63.2927 199.702 68.9302 202.957C70.7384 204.018 72.7239 205.327 74.9576 207.026L81.3041 211.837L83.8569 204.266C88.2889 191.246 97.6846 184.064 110.307 184.064C118.036 184.064 126.9 186.789 135.87 191.989C169.269 211.236 196.464 258.007 196.464 296.253C196.428 296.536 196.428 296.783 196.428 297.031L196.393 302.444L201.782 302.798C205.115 303.01 208.767 304.248 212.596 306.442C228.799 315.782 242.485 339.345 242.485 357.883C242.556 363.721 241.279 368.391 238.798 371.434Z"
            fill="url(#paint42_linear_45)" />
    </g>
    <path
        d="M312.434 39.9313C313.428 39.323 314.53 38.8994 315.731 38.6876C318.462 38.1825 321.683 38.7256 325.148 40.4526C325.593 40.6753 326.055 40.9197 326.511 41.1858C334.929 46.0464 342.108 56.3217 344.884 66.5318C347.594 65.8421 350.923 66.4232 354.523 68.5032C362.203 72.9349 368.655 82.7159 370.496 91.981C371.381 92.3341 372.283 92.7685 373.2 93.3008C382.004 98.3841 389.276 110.115 390.465 120.586V120.591C390.574 121.574 390.634 122.535 390.634 123.491C390.634 128.504 389.042 132.175 386.419 134.179L403.706 122.41C403.711 122.41 403.717 122.41 403.722 122.4L404.857 121.623C404.868 121.618 404.879 121.607 404.89 121.596L405.791 120.743C405.818 120.711 405.846 120.683 405.873 120.656C407.768 118.533 408.876 115.28 408.876 111.092C408.876 99.9753 401.072 86.4578 391.443 80.902C390.525 80.3698 389.618 79.9299 388.738 79.5823C386.897 70.3117 380.445 60.5361 372.766 56.1045C369.171 54.0245 365.841 53.4433 363.131 54.1331C360.351 43.923 353.291 33.4359 344.753 28.787C335.944 23.9915 328.298 29.6017 328.194 29.7374L314.454 38.6278C314.449 38.6278 314.449 38.6278 314.449 38.6278L312.434 39.9313Z"
        fill="#6548F7" />
    <path
        d="M344.886 66.5263C347.596 65.8366 350.925 66.4231 354.531 68.5032C362.205 72.9348 368.662 82.7159 370.498 91.9864L388.74 79.5877C386.899 70.3171 380.447 60.536 372.768 56.1044C369.173 54.0244 365.844 53.4433 363.128 54.1276L344.886 66.5263Z"
        fill="url(#paint43_linear_45)" />
    <path
        d="M370.497 91.9867C371.382 92.3342 372.284 92.7741 373.207 93.3064C382.011 98.3897 389.283 110.12 390.472 120.591V120.597C390.575 121.574 390.64 122.541 390.64 123.497C390.64 128.509 389.049 132.186 386.426 134.185L403.713 122.416C403.718 122.416 403.723 122.416 403.729 122.4L404.864 121.629C404.875 121.623 404.886 121.607 404.902 121.596L405.798 120.749C405.825 120.716 405.858 120.689 405.88 120.662C407.775 118.538 408.883 115.285 408.883 111.098C408.883 99.9864 401.079 86.4634 391.455 80.9076C390.537 80.3754 389.63 79.9355 388.75 79.5879L370.497 91.9867Z"
        fill="url(#paint44_linear_45)" />
    <path
        d="M291.96 52.0745C295.099 50.3746 299.379 50.6842 304.104 53.4051C304.435 53.5951 304.761 53.7907 305.087 54.0079C305.755 54.4315 306.412 54.904 307.058 55.4036C306.961 54.4206 306.901 53.4594 306.901 52.5035C306.901 44.5961 310.409 39.6594 315.731 38.6873C313.722 38.4755 311.892 38.8014 310.339 39.6051L310.306 39.6323L308.715 40.713L291.96 52.0745Z"
        fill="url(#paint45_linear_45)" />
    <path
        d="M312.436 39.9367C313.43 39.3284 314.538 38.9048 315.732 38.693C318.47 38.1879 321.685 38.731 325.15 40.4526C325.6 40.6753 326.057 40.9197 326.513 41.1858C334.931 46.0464 342.11 56.3163 344.886 66.5264L363.128 54.1276C360.347 43.9175 353.293 33.4359 344.75 28.787C335.941 23.9915 328.294 29.6017 328.196 29.7374L314.456 38.6224C314.451 38.6224 314.451 38.6224 314.451 38.6224L312.436 39.9367Z"
        fill="url(#paint46_linear_45)" />
    <path d="M341.666 100.185V151.852" stroke="url(#paint47_linear_45)" stroke-dasharray="2 2" />
    <path d="M346.666 103.519V155.185" stroke="url(#paint48_linear_45)" stroke-dasharray="2 2" />
    <path d="M351.666 106.852V158.518" stroke="url(#paint49_linear_45)" stroke-dasharray="2 2" />
    <path d="M356.666 110.185V161.852" stroke="url(#paint50_linear_45)" stroke-dasharray="2 2" />
    <path
        d="M304.099 53.4052C305.109 53.9863 306.092 54.6598 307.059 55.4092C306.961 54.4317 306.901 53.4595 306.901 52.5091C306.901 40.0018 315.683 34.9347 326.512 41.1857C334.935 46.0464 342.11 56.3216 344.89 66.5317C347.6 65.8366 350.929 66.4231 354.525 68.5032C362.204 72.9348 368.656 82.7213 370.497 91.9864C371.377 92.3394 372.284 92.7739 373.202 93.3061C382.831 98.8619 390.635 112.385 390.635 123.496C390.635 134.614 382.831 139.121 373.202 133.56L304.099 93.6645C294.47 88.1087 286.666 74.5912 286.666 63.4741C286.666 52.3516 294.47 47.844 304.099 53.4052Z"
        fill="url(#paint51_linear_45)" />
    <path
        d="M304.099 53.4052C305.109 53.9863 306.092 54.6598 307.059 55.4092C306.961 54.4317 306.901 53.4595 306.901 52.5091C306.901 40.0018 315.683 34.9347 326.512 41.1857C334.935 46.0464 342.11 56.3216 344.89 66.5317C347.6 65.8366 350.929 66.4231 354.525 68.5032C362.204 72.9348 368.656 82.7213 370.497 91.9864C371.377 92.3394 372.284 92.7739 373.202 93.3061C382.831 98.8619 390.635 112.385 390.635 123.496C390.635 134.614 382.831 139.121 373.202 133.56L304.099 93.6645C294.47 88.1087 286.666 74.5912 286.666 63.4741C286.666 52.3516 294.47 47.844 304.099 53.4052Z"
        fill="url(#paint52_linear_45)" />
    <path class="opcity"
        d="M344.676 90.5886C341.235 84.6304 336.682 79.8261 331.815 77.0149C326.969 74.2036 322.395 73.763 318.955 75.7351L315.85 70.3853C320.108 67.9307 325.773 68.4762 331.815 71.9588C337.836 75.4414 343.522 81.4206 347.78 88.8054L344.676 90.5886Z"
        fill="url(#paint53_linear_45)" />
    <path class="opcity" style="animation-delay: 0.3s"
        d="M339.41 93.5469C335.34 86.5187 328.27 82.4277 324.221 84.7774L321.116 79.4067C326.823 76.1129 336.788 81.8613 342.515 91.7636L339.41 93.5469Z"
        fill="url(#paint54_linear_45)" />
    <path class="opcity" style="animation-delay: 0.6s"
        d="M334.522 96.6099C333.074 94.1134 330.535 92.6448 329.109 93.484L326.004 88.1132C329.109 86.309 334.543 89.4349 337.648 94.8267L334.522 96.6099Z"
        fill="url(#paint55_linear_45)" />
    <path
        d="M333.619 100.323C333.619 101.477 332.801 101.939 331.815 101.372C330.808 100.806 330.011 99.4003 330.011 98.2464C330.011 97.0925 330.829 96.631 331.815 97.1974C332.822 97.7639 333.619 99.1695 333.619 100.323Z"
        fill="url(#paint56_linear_45)" />
    <defs>
        <linearGradient id="paint0_linear_45" x1="407.917" y1="296.582" x2="411.994" y2="126.866"
            gradientUnits="userSpaceOnUse">
            <stop stop-color="#B5A7FF" />
            <stop offset="0.484375" stop-color="#7B61FF" />
            <stop offset="1" stop-color="#5793CE" />
        </linearGradient>
        <linearGradient id="paint1_linear_45" x1="374.315" y1="176.541" x2="428.103" y2="208.232"
            gradientUnits="userSpaceOnUse">
            <stop stop-color="#B5A7FF" />
            <stop offset="0.484375" stop-color="#7B61FF" />
            <stop offset="1" stop-color="#5793CE" />
        </linearGradient>
        <linearGradient id="paint2_linear_45" x1="452.648" y1="313.208" x2="506.436" y2="344.899"
            gradientUnits="userSpaceOnUse">
            <stop stop-color="#B5A7FF" />
            <stop offset="0.484375" stop-color="#7B61FF" />
            <stop offset="1" stop-color="#5793CE" />
        </linearGradient>
        <linearGradient id="paint3_linear_45" x1="452.648" y1="83.2081" x2="506.436" y2="114.899"
            gradientUnits="userSpaceOnUse">
            <stop stop-color="#B5A7FF" />
            <stop offset="0.484375" stop-color="#7B61FF" />
            <stop offset="1" stop-color="#5793CE" />
        </linearGradient>
        <linearGradient id="paint4_linear_45" x1="452.648" y1="198.208" x2="506.436" y2="229.899"
            gradientUnits="userSpaceOnUse">
            <stop stop-color="#B5A7FF" />
            <stop offset="0.484375" stop-color="#7B61FF" />
            <stop offset="1" stop-color="#5793CE" />
        </linearGradient>
        <linearGradient id="paint5_linear_45" x1="500.708" y1="168.292" x2="530.8" y2="124.917"
            gradientUnits="userSpaceOnUse">
            <stop stop-color="#351053" />
            <stop offset="1" stop-color="#814DB2" />
        </linearGradient>
        <linearGradient id="paint6_linear_45" x1="494.933" y1="-1030.71" x2="557.864" y2="-1030.7"
            gradientUnits="userSpaceOnUse">
            <stop stop-color="#B5A7FF" />
            <stop offset="0.484375" stop-color="#7B61FF" />
            <stop offset="1" stop-color="#5793CE" />
        </linearGradient>
        <linearGradient id="paint7_linear_45" x1="506.112" y1="131.735" x2="531.959" y2="131.735"
            gradientUnits="userSpaceOnUse">
            <stop stop-color="#C0BFF6" />
            <stop offset="0.2938" stop-color="#C5C4F7" />
            <stop offset="0.6399" stop-color="#D3D2F9" />
            <stop offset="1" stop-color="#E9E9FD" />
        </linearGradient>
        <linearGradient id="paint8_linear_45" x1="497.684" y1="161.741" x2="517.763" y2="132.795"
            gradientUnits="userSpaceOnUse">
            <stop stop-color="#351053" />
            <stop offset="1" stop-color="#814DB2" />
        </linearGradient>
        <linearGradient id="paint9_linear_45" x1="493.827" y1="-638.005" x2="535.825" y2="-637.997"
            gradientUnits="userSpaceOnUse">
            <stop stop-color="#B5A7FF" />
            <stop offset="0.484375" stop-color="#7B61FF" />
            <stop offset="1" stop-color="#5793CE" />
        </linearGradient>
        <linearGradient id="paint10_linear_45" x1="500.708" y1="281.626" x2="530.8" y2="238.25"
            gradientUnits="userSpaceOnUse">
            <stop stop-color="#351053" />
            <stop offset="1" stop-color="#814DB2" />
        </linearGradient>
        <linearGradient id="paint11_linear_45" x1="494.933" y1="-917.373" x2="557.864" y2="-917.362"
            gradientUnits="userSpaceOnUse">
            <stop stop-color="#B5A7FF" />
            <stop offset="0.484375" stop-color="#7B61FF" />
            <stop offset="1" stop-color="#5793CE" />
        </linearGradient>
        <linearGradient id="paint12_linear_45" x1="506.112" y1="245.068" x2="531.959" y2="245.068"
            gradientUnits="userSpaceOnUse">
            <stop stop-color="#C0BFF6" />
            <stop offset="0.2938" stop-color="#C5C4F7" />
            <stop offset="0.6399" stop-color="#D3D2F9" />
            <stop offset="1" stop-color="#E9E9FD" />
        </linearGradient>
        <linearGradient id="paint13_linear_45" x1="497.684" y1="275.074" x2="517.763" y2="246.128"
            gradientUnits="userSpaceOnUse">
            <stop stop-color="#351053" />
            <stop offset="1" stop-color="#814DB2" />
        </linearGradient>
        <linearGradient id="paint14_linear_45" x1="493.827" y1="-524.672" x2="535.825" y2="-524.664"
            gradientUnits="userSpaceOnUse">
            <stop stop-color="#B5A7FF" />
            <stop offset="0.484375" stop-color="#7B61FF" />
            <stop offset="1" stop-color="#5793CE" />
        </linearGradient>
        <linearGradient id="paint15_linear_45" x1="500.708" y1="394.959" x2="530.8" y2="351.583"
            gradientUnits="userSpaceOnUse">
            <stop stop-color="#351053" />
            <stop offset="1" stop-color="#814DB2" />
        </linearGradient>
        <linearGradient id="paint16_linear_45" x1="494.933" y1="-804.04" x2="557.864" y2="-804.029"
            gradientUnits="userSpaceOnUse">
            <stop stop-color="#B5A7FF" />
            <stop offset="0.484375" stop-color="#7B61FF" />
            <stop offset="1" stop-color="#5793CE" />
        </linearGradient>
        <linearGradient id="paint17_linear_45" x1="506.112" y1="358.402" x2="531.959" y2="358.402"
            gradientUnits="userSpaceOnUse">
            <stop stop-color="#C0BFF6" />
            <stop offset="0.2938" stop-color="#C5C4F7" />
            <stop offset="0.6399" stop-color="#D3D2F9" />
            <stop offset="1" stop-color="#E9E9FD" />
        </linearGradient>
        <linearGradient id="paint18_linear_45" x1="497.684" y1="388.407" x2="517.763" y2="359.461"
            gradientUnits="userSpaceOnUse">
            <stop stop-color="#351053" />
            <stop offset="1" stop-color="#814DB2" />
        </linearGradient>
        <linearGradient id="paint19_linear_45" x1="493.827" y1="-411.338" x2="535.825" y2="-411.33"
            gradientUnits="userSpaceOnUse">
            <stop stop-color="#B5A7FF" />
            <stop offset="0.484375" stop-color="#7B61FF" />
            <stop offset="1" stop-color="#5793CE" />
        </linearGradient>
        <linearGradient id="paint20_linear_45" x1="335.084" y1="245.342" x2="335.658" y2="286.724"
            gradientUnits="userSpaceOnUse">
            <stop stop-color="#C3A9D9" />
            <stop offset="1" stop-color="#8C57BC" />
        </linearGradient>
        <linearGradient id="paint21_linear_45" x1="334.114" y1="142.236" x2="339.128" y2="268.836"
            gradientUnits="userSpaceOnUse">
            <stop stop-color="#C3A9D9" />
            <stop offset="1" stop-color="#8C57BC" />
        </linearGradient>
        <linearGradient id="paint22_linear_45" x1="354.491" y1="223.387" x2="359.214" y2="223.387"
            gradientUnits="userSpaceOnUse">
            <stop stop-color="#C0BFF6" />
            <stop offset="0.2938" stop-color="#C5C4F7" />
            <stop offset="0.6399" stop-color="#D3D2F9" />
            <stop offset="1" stop-color="#E9E9FD" />
        </linearGradient>
        <linearGradient id="paint23_linear_45" x1="319.723" y1="133.091" x2="396.434" y2="196.091"
            gradientUnits="userSpaceOnUse">
            <stop stop-color="#DBC2F0" />
            <stop offset="1" stop-color="#C9A2ED" />
        </linearGradient>
        <linearGradient id="paint24_linear_45" x1="335.544" y1="164.818" x2="350.88" y2="142.775"
            gradientUnits="userSpaceOnUse">
            <stop stop-color="#351053" />
            <stop offset="1" stop-color="#814DB2" />
        </linearGradient>
        <linearGradient id="paint25_linear_45" x1="366.75" y1="193.128" x2="379.23" y2="182.929"
            gradientUnits="userSpaceOnUse">
            <stop stop-color="#351053" />
            <stop offset="1" stop-color="#814DB2" />
        </linearGradient>
        <linearGradient id="paint26_linear_45" x1="366.75" y1="233.643" x2="379.23" y2="223.444"
            gradientUnits="userSpaceOnUse">
            <stop stop-color="#351053" />
            <stop offset="1" stop-color="#814DB2" />
        </linearGradient>
        <linearGradient id="paint27_linear_45" x1="366.75" y1="253.9" x2="379.23" y2="243.701"
            gradientUnits="userSpaceOnUse">
            <stop stop-color="#351053" />
            <stop offset="1" stop-color="#814DB2" />
        </linearGradient>
        <linearGradient id="paint28_linear_45" x1="366.75" y1="213.385" x2="379.229" y2="203.187"
            gradientUnits="userSpaceOnUse">
            <stop stop-color="#351053" />
            <stop offset="1" stop-color="#814DB2" />
        </linearGradient>
        <linearGradient id="paint29_linear_45" x1="325.37" y1="156.955" x2="326.038" y2="190.65"
            gradientUnits="userSpaceOnUse">
            <stop stop-color="#C3A9D9" />
            <stop offset="1" stop-color="#8C57BC" />
        </linearGradient>
        <linearGradient id="paint30_linear_45" x1="325.37" y1="169.117" x2="326.038" y2="202.811"
            gradientUnits="userSpaceOnUse">
            <stop stop-color="#C3A9D9" />
            <stop offset="1" stop-color="#8C57BC" />
        </linearGradient>
        <linearGradient id="paint31_linear_45" x1="325.37" y1="181.279" x2="326.038" y2="214.973"
            gradientUnits="userSpaceOnUse">
            <stop stop-color="#C3A9D9" />
            <stop offset="1" stop-color="#8C57BC" />
        </linearGradient>
        <linearGradient id="paint32_linear_45" x1="325.37" y1="193.441" x2="326.038" y2="227.136"
            gradientUnits="userSpaceOnUse">
            <stop stop-color="#C3A9D9" />
            <stop offset="1" stop-color="#8C57BC" />
        </linearGradient>
        <linearGradient id="paint33_linear_45" x1="325.37" y1="205.604" x2="326.038" y2="239.299"
            gradientUnits="userSpaceOnUse">
            <stop stop-color="#C3A9D9" />
            <stop offset="1" stop-color="#8C57BC" />
        </linearGradient>
        <linearGradient id="paint34_linear_45" x1="325.37" y1="217.767" x2="326.038" y2="251.462"
            gradientUnits="userSpaceOnUse">
            <stop stop-color="#C3A9D9" />
            <stop offset="1" stop-color="#8C57BC" />
        </linearGradient>
        <linearGradient id="paint35_linear_45" x1="325.37" y1="229.93" x2="326.038" y2="263.624"
            gradientUnits="userSpaceOnUse">
            <stop stop-color="#C3A9D9" />
            <stop offset="1" stop-color="#8C57BC" />
        </linearGradient>
        <linearGradient id="paint36_linear_45" x1="201.339" y1="162.434" x2="310.543" y2="101.932"
            gradientUnits="userSpaceOnUse">
            <stop stop-color="#B5A7FF" />
            <stop offset="0.484375" stop-color="#7B61FF" />
            <stop offset="1" stop-color="#5793CE" />
        </linearGradient>
        <linearGradient id="paint37_linear_45" x1="108.362" y1="362.682" x2="281.663" y2="362.682"
            gradientUnits="userSpaceOnUse">
            <stop stop-color="#C0BFF6" />
            <stop offset="0.2938" stop-color="#C5C4F7" />
            <stop offset="0.6399" stop-color="#D3D2F9" />
            <stop offset="1" stop-color="#E9E9FD" />
        </linearGradient>
        <linearGradient id="paint38_linear_45" x1="30.0353" y1="279.719" x2="248.33" y2="279.719"
            gradientUnits="userSpaceOnUse">
            <stop stop-color="#C0BFF6" />
            <stop offset="0.2938" stop-color="#C5C4F7" />
            <stop offset="0.6399" stop-color="#D3D2F9" />
            <stop offset="1" stop-color="#E9E9FD" />
        </linearGradient>
        <linearGradient id="paint39_linear_45" x1="110.191" y1="323.582" x2="243.729" y2="203.907"
            gradientUnits="userSpaceOnUse">
            <stop stop-color="#351053" />
            <stop offset="1" stop-color="#814DB2" />
        </linearGradient>
        <linearGradient id="paint40_linear_45" x1="100.999" y1="180.108" x2="143.488" y2="239.223"
            gradientUnits="userSpaceOnUse">
            <stop offset="0.0253" stop-color="#AFB6E5" />
            <stop offset="0.1023" stop-color="#B1B8E6" />
            <stop offset="0.1403" stop-color="#B9BFEA" />
            <stop offset="0.1697" stop-color="#C6CCF0" />
            <stop offset="0.1946" stop-color="#D8DDF9" />
            <stop offset="0.2071" stop-color="#E5E9FF" />
            <stop offset="0.2441" stop-color="#E1E5FD" />
            <stop offset="0.2844" stop-color="#D3D8F7" />
            <stop offset="0.3262" stop-color="#BEC4EC" />
            <stop offset="0.3485" stop-color="#AFB6E5" />
            <stop offset="0.3732" stop-color="#B3BAE7" />
            <stop offset="0.6869" stop-color="#E5E9FF" />
            <stop offset="0.9697" stop-color="#E5E9FF" />
        </linearGradient>
        <linearGradient id="paint41_linear_45" x1="118.495" y1="150.202" x2="250.595" y2="369.656"
            gradientUnits="userSpaceOnUse">
            <stop stop-color="#AFB6E5" />
            <stop offset="0.00757559" stop-color="#B5BBE8" />
            <stop offset="0.0172" stop-color="#C4CAEF" />
            <stop offset="0.028" stop-color="#DEE3FC" />
            <stop offset="0.0303" stop-color="#E5E9FF" />
            <stop offset="0.0509" stop-color="#E3E7FE" />
            <stop offset="0.0583" stop-color="#DCE1FB" />
            <stop offset="0.0636" stop-color="#D1D6F5" />
            <stop offset="0.0678" stop-color="#C0C6ED" />
            <stop offset="0.0707" stop-color="#AFB6E5" />
            <stop offset="0.0915" stop-color="#B9BFE8" />
            <stop offset="0.1271" stop-color="#D4D8F1" />
            <stop offset="0.1717" stop-color="white" />
            <stop offset="0.2338" stop-color="#F5F7FF" />
            <stop offset="0.303" stop-color="#E5E9FF" />
            <stop offset="0.3402" stop-color="#DBDFFA" />
            <stop offset="0.4463" stop-color="#C3C9EE" />
            <stop offset="0.5444" stop-color="#B4BBE7" />
            <stop offset="0.6263" stop-color="#AFB6E5" />
            <stop offset="0.6468" stop-color="#B1B8E6" />
            <stop offset="0.6542" stop-color="#B8BEE9" />
            <stop offset="0.6595" stop-color="#C3C9EF" />
            <stop offset="0.6638" stop-color="#D4D9F7" />
            <stop offset="0.6667" stop-color="#E5E9FF" />
            <stop offset="0.7778" stop-color="white" />
            <stop offset="0.8127" stop-color="#E6E9F7" />
            <stop offset="0.8642" stop-color="#C8CDED" />
            <stop offset="0.9083" stop-color="#B6BCE7" />
            <stop offset="0.9394" stop-color="#AFB6E5" />
            <stop offset="0.9554" stop-color="#B2B9E6" />
            <stop offset="0.9659" stop-color="#BBC1EB" />
            <stop offset="0.9748" stop-color="#C9CFF2" />
            <stop offset="0.9829" stop-color="#DFE3FC" />
            <stop offset="0.9848" stop-color="#E5E9FF" />
        </linearGradient>
        <linearGradient id="paint42_linear_45" x1="55.1305" y1="330.398" x2="284.184" y2="213.339"
            gradientUnits="userSpaceOnUse">
            <stop stop-color="#AFB6E5" />
            <stop offset="0.1449" stop-color="#B6BCE8" />
            <stop offset="0.3485" stop-color="#C8CDF1" />
            <stop offset="0.5808" stop-color="#E5E9FF" />
            <stop offset="0.9546" stop-color="#F5F4FC" />
            <stop offset="1" stop-color="#F7F6FB" />
        </linearGradient>
        <linearGradient id="paint43_linear_45" x1="388.733" y1="72.9194" x2="344.887" y2="72.9194"
            gradientUnits="userSpaceOnUse">
            <stop stop-color="#C0BFF6" />
            <stop offset="0.2938" stop-color="#C5C4F7" />
            <stop offset="0.6399" stop-color="#D3D2F9" />
            <stop offset="1" stop-color="#E9E9FD" />
        </linearGradient>
        <linearGradient id="paint44_linear_45" x1="408.877" y1="106.885" x2="370.498" y2="106.885"
            gradientUnits="userSpaceOnUse">
            <stop stop-color="#C0BFF6" />
            <stop offset="0.2938" stop-color="#C5C4F7" />
            <stop offset="0.6399" stop-color="#D3D2F9" />
            <stop offset="1" stop-color="#E9E9FD" />
        </linearGradient>
        <linearGradient id="paint45_linear_45" x1="315.728" y1="47.0135" x2="291.961" y2="47.0135"
            gradientUnits="userSpaceOnUse">
            <stop stop-color="#C0BFF6" />
            <stop offset="0.2938" stop-color="#C5C4F7" />
            <stop offset="0.6399" stop-color="#D3D2F9" />
            <stop offset="1" stop-color="#E9E9FD" />
        </linearGradient>
        <linearGradient id="paint46_linear_45" x1="363.12" y1="46.688" x2="312.437" y2="46.688"
            gradientUnits="userSpaceOnUse">
            <stop stop-color="#C0BFF6" />
            <stop offset="0.2938" stop-color="#C5C4F7" />
            <stop offset="0.6399" stop-color="#D3D2F9" />
            <stop offset="1" stop-color="#E9E9FD" />
        </linearGradient>
        <linearGradient id="paint47_linear_45" x1="341.861" y1="142.742" x2="342.963" y2="142.724"
            gradientUnits="userSpaceOnUse">
            <stop stop-color="#351053" />
            <stop offset="1" stop-color="#814DB2" />
        </linearGradient>
        <linearGradient id="paint48_linear_45" x1="346.861" y1="146.075" x2="347.963" y2="146.057"
            gradientUnits="userSpaceOnUse">
            <stop stop-color="#351053" />
            <stop offset="1" stop-color="#814DB2" />
        </linearGradient>
        <linearGradient id="paint49_linear_45" x1="351.861" y1="149.408" x2="352.963" y2="149.39"
            gradientUnits="userSpaceOnUse">
            <stop stop-color="#351053" />
            <stop offset="1" stop-color="#814DB2" />
        </linearGradient>
        <linearGradient id="paint50_linear_45" x1="356.861" y1="152.741" x2="357.963" y2="152.724"
            gradientUnits="userSpaceOnUse">
            <stop stop-color="#351053" />
            <stop offset="1" stop-color="#814DB2" />
        </linearGradient>
        <linearGradient id="paint51_linear_45" x1="377.515" y1="-2275.58" x2="299.623" y2="-2275.57"
            gradientUnits="userSpaceOnUse">
            <stop stop-color="#B5A7FF" />
            <stop offset="0.484375" stop-color="#7B61FF" />
            <stop offset="1" stop-color="#5793CE" />
        </linearGradient>
        <linearGradient id="paint52_linear_45" x1="370.366" y1="118.762" x2="306.268" y2="61.8425"
            gradientUnits="userSpaceOnUse">
            <stop stop-color="#351053" />
            <stop offset="1" stop-color="#814DB2" />
        </linearGradient>
        <linearGradient id="paint53_linear_45" x1="315.855" y1="79.7311" x2="347.78" y2="79.7311"
            gradientUnits="userSpaceOnUse">
            <stop stop-color="#C0BFF6" />
            <stop offset="0.2938" stop-color="#C5C4F7" />
            <stop offset="0.6399" stop-color="#D3D2F9" />
            <stop offset="1" stop-color="#E9E9FD" />
        </linearGradient>
        <linearGradient id="paint54_linear_45" x1="321.12" y1="86.0104" x2="342.515" y2="86.0104"
            gradientUnits="userSpaceOnUse">
            <stop stop-color="#C0BFF6" />
            <stop offset="0.2938" stop-color="#C5C4F7" />
            <stop offset="0.6399" stop-color="#D3D2F9" />
            <stop offset="1" stop-color="#E9E9FD" />
        </linearGradient>
        <linearGradient id="paint55_linear_45" x1="326.006" y1="92.1049" x2="337.647" y2="92.1049"
            gradientUnits="userSpaceOnUse">
            <stop stop-color="#C0BFF6" />
            <stop offset="0.2938" stop-color="#C5C4F7" />
            <stop offset="0.6399" stop-color="#D3D2F9" />
            <stop offset="1" stop-color="#E9E9FD" />
        </linearGradient>
        <linearGradient id="paint56_linear_45" x1="330.011" y1="99.2848" x2="333.619" y2="99.2848"
            gradientUnits="userSpaceOnUse">
            <stop stop-color="#C0BFF6" />
            <stop offset="0.2938" stop-color="#C5C4F7" />
            <stop offset="0.6399" stop-color="#D3D2F9" />
            <stop offset="1" stop-color="#E9E9FD" />
        </linearGradient>
    </defs>


    <style>
        line {
            animation: line 20s linear infinite;
        }

        @keyframes line {
            to {
                stroke-dashoffset: -300;
            }
        }

        .opcity {
            animation: opacity 3s ease-in-out infinite;
        }

        @keyframes opacity {
            0% {
                opacity: 0
            }

            50% {
                opacity: 1
            }

            100% {
                opacity: 0
            }
        }

        .cloud {
            animation: cloud 3s ease-in-out infinite;
        }   
        .hose {
            animation: house 3s ease-in-out infinite;
        }

        @keyframes cloud {
            0% {
                transform: translateY(0)
            }
            50% {
                transform: translateY(10px)
            }
            100% {
                transform: translateY(0)
            }
        }
        @keyframes house {
            0% {
                transform: translateY(0)
            }
            50% {
                transform: translateY(5px)
            }
            100% {
                transform: translateY(0)
            }
        }

        
    </style>




</svg>