<svg width="210" height="139" viewBox="0 0 210 139" fill="none" xmlns="http://www.w3.org/2000/svg">
<path d="M206.131 78.8445L114.938 131.084C108.794 134.604 101.215 134.604 95.062 131.084L3.86868 78.8445C-1.28956 75.8923 -1.28956 68.5031 3.86868 65.551L95.062 13.3112C101.206 9.79129 108.785 9.79129 114.938 13.3112L206.131 65.551C211.29 68.5031 211.29 75.8923 206.131 78.8445Z" fill="white"/>
<path d="M209.995 72.1979V76.9056C209.995 79.491 208.71 82.0763 206.131 83.5612L114.937 135.801C108.785 139.33 101.206 139.33 95.0615 135.801L3.86819 83.5612C1.28908 82.0763 0.00390625 79.4997 0.00390625 76.9144V72.1979C0.00390625 72.9927 0.127152 73.7875 0.373621 74.5474C0.44404 74.792 0.540857 75.0278 0.637684 75.2549C1.26266 76.6873 2.33657 77.9625 3.86819 78.8359L95.0615 131.076C101.206 134.604 108.785 134.604 114.937 131.076L206.131 78.8359C207.601 77.9974 208.648 76.7921 209.282 75.4295C209.414 75.1413 209.537 74.8444 209.625 74.5387C209.872 73.7875 209.995 72.9927 209.995 72.1979Z" fill="url(#paint0_linear_68)"/>
<g opacity="0.5">
<path opacity="0.0323" d="M21.464 78.8095L80.7749 44.8856C81.4879 44.4751 82.3682 44.4577 83.0988 44.842L123.977 66.04C125.659 66.9134 125.711 69.2892 124.074 70.2325L63.0204 105.37C62.2722 105.798 61.3479 105.798 60.5997 105.37L21.464 82.9583C19.8531 82.0325 19.8531 79.7354 21.464 78.8095Z" fill="#F8F8F8"/>
<path opacity="0.0645" d="M21.6408 78.5737L80.6171 44.8419C81.3301 44.4314 82.2016 44.414 82.9322 44.7983L123.503 65.8392C125.184 66.7126 125.237 69.0795 123.599 70.0229L62.889 104.96C62.1408 105.388 61.2253 105.388 60.4771 104.96L21.6408 82.7138C20.0299 81.788 20.0299 79.4908 21.6408 78.5737Z" fill="#F1F1F1"/>
<path opacity="0.0968" d="M21.807 78.3292L80.449 44.7894C81.162 44.3789 82.0334 44.3615 82.764 44.7458L123.026 65.6208C124.708 66.4942 124.752 68.8525 123.114 69.7958L62.7561 104.532C62.0078 104.96 61.0924 104.96 60.353 104.532L21.807 82.4606C20.205 81.5435 20.205 79.2463 21.807 78.3292Z" fill="#EAE9E9"/>
<path opacity="0.129" d="M21.9837 78.0932L80.2823 44.7456C80.9953 44.3351 81.8668 44.3176 82.5886 44.7019L122.534 65.4197C124.207 66.2844 124.259 68.6427 122.622 69.586L62.6158 104.121C61.8764 104.549 60.9609 104.549 60.2127 104.121L21.9661 82.2158C20.3816 81.2987 20.3904 79.0016 21.9837 78.0932Z" fill="#E3E2E2"/>
<path opacity="0.1613" d="M22.1598 77.8488L80.1239 44.6933C80.8369 44.2915 81.6996 44.2741 82.4302 44.6496L122.068 65.2015C123.74 66.0662 123.793 68.4244 122.156 69.359L62.5014 103.685C61.762 104.113 60.8465 104.113 60.1071 103.685L22.1598 81.9539C20.5665 81.0455 20.5665 78.7659 22.1598 77.8488Z" fill="#DCDBDB"/>
<path opacity="0.1935" d="M22.3357 77.613L79.9654 44.6585C80.6695 44.2568 81.541 44.2393 82.2628 44.6148L121.592 65.0094C123.256 65.8741 123.309 68.2236 121.68 69.1582L62.3692 103.283C61.6298 103.711 60.7144 103.711 59.975 103.283L22.3269 81.7181C20.7424 80.801 20.7424 78.5213 22.3357 77.613Z" fill="#D4D4D4"/>
<path opacity="0.2258" d="M22.5113 77.3683L79.8065 44.606C80.5107 44.2043 81.3822 44.1868 82.104 44.5624L121.116 64.791C122.78 65.6557 122.833 67.9964 121.204 68.931L62.2456 102.855C61.5062 103.283 60.5995 103.283 59.8601 102.855L22.5113 81.4647C20.9181 80.5564 20.9181 78.2767 22.5113 77.3683Z" fill="#CDCCCD"/>
<path opacity="0.2581" d="M22.6871 77.1327L79.6477 44.5624C80.3519 44.1607 81.2146 44.1432 81.9364 44.5188L120.641 64.5902C122.304 65.4549 122.348 67.787 120.729 68.7215L62.1221 102.445C61.3827 102.873 60.476 102.873 59.7366 102.445L22.6871 81.2203C21.0939 80.312 21.0939 78.0323 22.6871 77.1327Z" fill="#C6C5C5"/>
<path opacity="0.2903" d="M22.8551 76.888L79.4724 44.51C80.1766 44.1082 81.0392 44.0907 81.761 44.4663L120.148 64.3805C121.803 65.2364 121.856 67.5685 120.236 68.5031L61.9819 102.025C61.2513 102.445 60.3447 102.453 59.6053 102.025L22.8463 80.9757C21.2707 80.0586 21.2794 77.7964 22.8551 76.888Z" fill="#BFBEBE"/>
<path opacity="0.3226" d="M23.0304 76.6521L79.3132 44.4663C80.0174 44.0645 80.8713 44.047 81.5931 44.4226L119.672 64.1708C121.327 65.0267 121.38 67.3588 119.76 68.2846L61.858 101.606C61.1274 102.025 60.2207 102.025 59.4901 101.606L23.0304 80.7222C21.4547 79.8139 21.4547 77.5517 23.0304 76.6521Z" fill="#B8B7B7"/>
<path opacity="0.3548" d="M23.2073 76.4078L79.1556 44.4139C79.8598 44.0121 80.7137 43.9946 81.4267 44.3702L119.198 63.9613C120.844 64.8173 120.897 67.1406 119.286 68.0665L61.7268 101.187C60.9962 101.606 60.0895 101.606 59.3589 101.187L23.1984 80.4779C21.6316 79.5696 21.6316 77.3074 23.2073 76.4078Z" fill="#B1B0B0"/>
<path opacity="0.3871" d="M23.3829 76.1719L78.9967 44.3704C79.6921 43.9687 80.5548 43.9512 81.2678 44.3268L118.722 63.7517C120.368 64.6077 120.421 66.9223 118.81 67.8481L61.6031 100.768C60.8725 101.187 59.9746 101.187 59.244 100.768L23.3829 80.2246C21.8073 79.3162 21.8073 77.0715 23.3829 76.1719Z" fill="#AAA8A9"/>
<path opacity="0.4194" d="M23.5598 75.9272L78.8304 44.3177C79.5258 43.9159 80.3796 43.8985 81.0926 44.274L118.239 63.5419C119.885 64.3979 119.929 66.7038 118.327 67.6296L61.472 100.348C60.7414 100.768 59.8435 100.768 59.1129 100.348L23.551 79.9799C21.9841 79.0716 21.9842 76.8268 23.5598 75.9272Z" fill="#A3A1A1"/>
<path opacity="0.4516" d="M23.7259 75.6913L78.662 44.2741C79.3574 43.8724 80.2112 43.8549 80.9242 44.2304L117.763 63.3323C119.4 64.1796 119.453 66.4941 117.851 67.4112L61.3476 99.929C60.617 100.348 59.7191 100.348 58.9973 99.929L23.7259 79.7266C22.1591 78.8269 22.1591 76.5822 23.7259 75.6913Z" fill="#9C9A9A"/>
<path opacity="0.4839" d="M23.9032 75.4469L78.5047 44.2218C79.2001 43.8288 80.054 43.8113 80.7581 44.1781L117.279 63.1228C118.917 63.97 118.97 66.2759 117.368 67.193L61.2079 99.5098C60.4861 99.929 59.5883 99.929 58.8577 99.5098L23.8856 79.4821C22.3451 78.5825 22.3451 76.3378 23.9032 75.4469Z" fill="#959393"/>
<path opacity="0.5161" d="M24.0787 75.2108L78.3458 44.1779C79.0412 43.7848 79.8862 43.7674 80.5992 44.1342L116.812 62.9129C118.441 63.7601 118.494 66.0572 116.9 66.9743L61.093 99.0903C60.3712 99.5095 59.4733 99.5095 58.7515 99.0903L24.0787 79.2285C22.5206 78.3289 22.5206 76.1016 24.0787 75.2108Z" fill="#8D8B8C"/>
<path opacity="0.5484" d="M24.2545 74.9666L78.1871 44.1257C78.8825 43.7327 79.7275 43.7152 80.4317 44.0821L116.337 62.7036C117.965 63.5508 118.018 65.8392 116.425 66.7563L60.9695 98.6715C60.2477 99.0907 59.3586 99.0907 58.628 98.6715L24.2545 78.9843C22.6964 78.0847 22.6964 75.8574 24.2545 74.9666Z" fill="#868485"/>
<path opacity="0.5806" d="M24.4302 74.7219L78.0195 44.0732C78.7061 43.6802 79.5512 43.6627 80.2642 44.0296L115.852 62.4852C117.481 63.3237 117.525 65.6208 115.94 66.5291L60.8372 98.2434C60.1154 98.6627 59.2263 98.6627 58.5045 98.2434L24.4302 78.7222C22.8722 77.8401 22.8722 75.6128 24.4302 74.7219Z" fill="#7F7D7E"/>
<path opacity="0.6129" d="M24.606 74.4863L77.8608 44.0297C78.5474 43.6366 79.3925 43.6191 80.0966 43.986L115.377 62.2844C116.997 63.1229 117.049 65.4113 115.465 66.3197L60.7137 97.8332C59.9919 98.2437 59.1028 98.2524 58.3898 97.8332L24.606 78.4866C23.048 77.587 23.048 75.3685 24.606 74.4863Z" fill="#787676"/>
<path opacity="0.6452" d="M24.7736 74.2417L77.6939 43.9772C78.3805 43.5841 79.2255 43.5667 79.9297 43.9335L114.893 62.066C116.513 62.9045 116.565 65.1841 114.981 66.0925L60.5731 97.3964C59.8513 97.8069 58.9711 97.8069 58.2493 97.3964L24.7648 78.2158C23.2332 77.3423 23.2332 75.1326 24.7736 74.2417Z" fill="#716E6F"/>
<path opacity="0.6774" d="M24.9493 74.0056L77.5351 43.9335C78.2217 43.5404 79.0579 43.523 79.7621 43.8898L114.417 61.8649C116.028 62.7034 116.081 64.9743 114.505 65.8827L60.4496 96.9855C59.7366 97.396 58.8475 97.396 58.1345 96.9855L24.9493 77.9797C23.4088 77.0975 23.4088 74.8877 24.9493 74.0056Z" fill="#6A6768"/>
<path opacity="0.7097" d="M25.1262 73.7611L77.3687 43.8811C78.0552 43.4881 78.8914 43.4706 79.5868 43.8374L113.934 61.6466C115.545 62.4851 115.598 64.756 114.022 65.6557L60.3183 96.5575C59.6053 96.9681 58.7251 96.9681 58.0033 96.5575L25.1173 77.7177C23.5857 76.853 23.5857 74.6433 25.1262 73.7611Z" fill="#636061"/>
<path opacity="0.7419" d="M25.3018 73.5253L77.2099 43.8374C77.8965 43.4444 78.7327 43.4269 79.4281 43.7937L113.458 61.4458C115.069 62.2755 115.113 64.5464 113.546 65.4461L60.1948 96.1471C59.4818 96.5576 58.6015 96.5576 57.8885 96.1471L25.3018 77.4819C23.7614 76.5998 23.7614 74.4075 25.3018 73.5253Z" fill="#5C595A"/>
<path opacity="0.7742" d="M25.4777 73.2808L77.0514 43.7849C77.7292 43.3919 78.5653 43.3744 79.2607 43.7412L112.983 61.2274C114.585 62.0572 114.638 64.3194 113.071 65.219L60.0626 95.7194C59.3496 96.1299 58.4694 96.1299 57.7564 95.7194L25.4689 77.22C23.9373 76.3553 23.9373 74.163 25.4777 73.2808Z" fill="#555252"/>
<path opacity="0.8065" d="M25.645 73.0447L76.8841 43.7411C77.5619 43.3481 78.3981 43.3393 79.0935 43.6974L112.508 61.0263C114.11 61.8561 114.162 64.1095 112.596 65.0092L59.9394 95.3085C59.2264 95.719 58.355 95.719 57.642 95.3085L25.645 76.9839C24.1222 76.1105 24.1222 73.9182 25.645 73.0447Z" fill="#4E4A4B"/>
<path opacity="0.8387" d="M25.8208 72.8003L76.7254 43.689C77.4032 43.3047 78.2306 43.2872 78.926 43.6454L112.023 60.8082C113.616 61.6379 113.669 63.8826 112.111 64.7822L59.8071 94.8805C59.0941 95.291 58.2226 95.291 57.5184 94.8805L25.8208 76.722C24.298 75.866 24.298 73.6737 25.8208 72.8003Z" fill="#464344"/>
<path opacity="0.871" d="M25.9976 72.5644L76.5589 43.6451C77.2367 43.2608 78.0641 43.2433 78.7595 43.6014L111.549 60.6071C113.142 61.4369 113.195 63.6816 111.637 64.5725L59.6845 94.4701C58.9804 94.8806 58.1089 94.8806 57.3959 94.4701L25.9976 76.4862C24.4748 75.6127 24.4748 73.4379 25.9976 72.5644Z" fill="#3F3C3D"/>
<path opacity="0.9032" d="M26.1733 72.3206L76.4 43.5937C77.0778 43.2094 77.9053 43.1919 78.5919 43.55L111.073 60.3896C112.666 61.2107 112.71 63.4554 111.161 64.3463L59.561 94.0427C58.8568 94.4445 57.9853 94.4532 57.2811 94.0427L26.182 76.2336C24.6504 75.3689 24.6504 73.1941 26.1733 72.3206Z" fill="#383536"/>
<path opacity="0.9355" d="M26.3501 72.0849L76.2424 43.5499C76.9202 43.1655 77.7388 43.1481 78.4342 43.5062L110.598 60.1888C112.183 61.0098 112.236 63.2458 110.686 64.1367L59.4298 93.6325C58.7256 94.0343 57.8541 94.0343 57.1499 93.6325L26.3501 75.9892C24.8273 75.1245 24.8273 72.9496 26.3501 72.0849Z" fill="#312D2E"/>
<path opacity="0.9677" d="M26.5255 71.8397L76.0833 43.4969C76.7523 43.1126 77.5797 43.0951 78.2663 43.4532L110.122 59.9698C111.707 60.7908 111.76 63.018 110.21 63.9089L59.3059 93.2037C58.6017 93.6055 57.739 93.6055 57.0348 93.2037L26.5255 75.7352C25.0027 74.8705 25.0115 72.7044 26.5255 71.8397Z" fill="#2A2627"/>
<path opacity="0.5" d="M26.6935 71.6036L75.908 43.4529C76.577 43.0686 77.4044 43.0512 78.091 43.4093L109.63 59.7686C111.206 60.5897 111.259 62.8169 109.718 63.6991L59.1657 92.7931C58.4615 93.1949 57.5989 93.1949 56.8947 92.7931L26.6847 75.4904C25.1883 74.6257 25.1883 72.4683 26.6935 71.6036Z" fill="#231F20"/>
</g>
<g opacity="0.3">
<path opacity="0.3" d="M76.1094 1.66809L21.5254 32.9369L57.9147 53.7857L112.499 22.5169L76.1094 1.66809Z" fill="#A4A4A4"/>
</g>
<path d="M76.1094 0L21.5254 31.2687L57.9147 52.1087L112.499 20.84L76.1094 0Z" fill="url(#paint1_linear_68)"/>
<path d="M21.5254 31.2686V72.9137L57.9148 93.7624V52.1086L21.5254 31.2686Z" fill="url(#paint2_linear_68)"/>
<path d="M112.499 20.8401V62.3455L57.915 93.7627V52.1089L112.499 20.8401Z" fill="url(#paint3_linear_68)"/>
<path d="M57.9155 82.9584L41.0499 74.2937L41.0059 73.4989L57.9155 82.1723V82.9584Z" fill="#2B6AAE"/>
<path d="M57.915 82.9584V82.1723L94.1371 62.2144L94.093 63.0179L57.915 82.9584Z" fill="#2A6EB9"/>
<path d="M84.0498 60.6247L84.085 59.8298L112.499 44.903V45.6803L84.0498 60.6247Z" fill="#2A6EB9"/>
<path d="M37.4314 69.2191L21.5254 59.8734V59.0786L37.4666 68.4417L37.4314 69.2191Z" fill="#2B6AAE"/>
<path d="M57.9145 61.4109L47.4482 56.2838L47.4395 55.5151L57.9145 60.651V61.4109Z" fill="#2B6AAE"/>
<path d="M57.915 61.4109V60.651L73.4777 52.502L73.4601 53.2793L57.915 61.4109Z" fill="#2A6EB9"/>
<path d="M90.2642 39.0774L89.9209 38.4834L112.499 25.6611V26.4472L90.2642 39.0774Z" fill="#2A6EB9"/>
<path d="M33.2767 43.6891L21.5254 36.7015V35.8979L33.2855 42.903L33.2767 43.6891Z" fill="#2B6AAE"/>
<path d="M74.3486 9.20581L93.309 19.7309" stroke="white" stroke-width="0.7829" stroke-miterlimit="10"/>
<path d="M65.7764 10.2714L76.4978 16.6561" stroke="white" stroke-width="0.7829" stroke-miterlimit="10"/>
<path d="M62.5449 12.5161L85.2112 26.0541" stroke="white" stroke-width="0.7829" stroke-miterlimit="10"/>
<path d="M62.5449 17.1278L81.6287 28.7268" stroke="white" stroke-width="0.7829" stroke-miterlimit="10"/>
<path d="M51.9385 20.8401L73.6365 33.933" stroke="white" stroke-width="0.7829" stroke-miterlimit="10"/>
<path d="M46.4453 23.6437L64.2175 33.9327" stroke="white" stroke-width="0.7829" stroke-miterlimit="10"/>
<path d="M43.585 26.0541L65.7759 39.8456" stroke="white" stroke-width="0.7829" stroke-miterlimit="10"/>
<path d="M37.0273 29.3213L61.947 44.3438" stroke="white" stroke-width="0.7829" stroke-miterlimit="10"/>
<path d="M57.915 68.433V67.6644L86.8662 52.502L87.1919 53.1046L57.915 68.433Z" fill="url(#paint4_linear_68)"/>
<path d="M57.9153 68.4329L41.0498 59.9347V59.1661L57.9153 67.6643V68.4329Z" fill="url(#paint5_linear_68)"/>
<path d="M112.027 31.1233L84.7334 46.7512L85.0766 47.3413L112.37 31.7133L112.027 31.1233Z" fill="url(#paint6_linear_68)"/>
<path d="M47.1141 83.8841L21.5254 69.7783V69.001L47.079 83.0892L47.1141 83.8841Z" fill="url(#paint7_linear_68)"/>
<path d="M21.5256 52.0648L17.5469 53.4187L55.9255 75.8309L83.8117 62.2141L57.9149 72.9136L21.5256 52.0648Z" fill="url(#paint8_linear_68)"/>
<path d="M112.498 32.9541L120.984 36.6401L92.5342 51.5062L112.216 38.78L112.498 32.9541Z" fill="url(#paint9_linear_68)"/>
<g opacity="0.5">
<path opacity="0.0323" d="M88.0812 101.03L147.392 67.1059C148.105 66.6953 148.985 66.6779 149.716 67.0622L190.595 88.2603C192.276 89.1337 192.329 91.5095 190.691 92.4528L129.638 127.591C128.889 128.019 127.965 128.019 127.217 127.591L88.0812 105.179C86.4703 104.253 86.4703 101.947 88.0812 101.03Z" fill="#F8F8F8"/>
<path opacity="0.0645" d="M88.2579 100.785L147.234 67.0534C147.947 66.6428 148.819 66.6254 149.549 67.0097L190.12 88.0507C191.801 88.9241 191.854 91.2911 190.217 92.2344L129.506 127.172C128.758 127.6 127.843 127.6 127.094 127.172L88.2579 104.925C86.6471 104.008 86.6471 101.702 88.2579 100.785Z" fill="#F1F1F1"/>
<path opacity="0.0968" d="M88.4249 100.55L147.067 67.0098C147.78 66.5993 148.651 66.5818 149.382 66.9661L189.644 87.8412C191.325 88.7146 191.369 91.0728 189.741 92.0162L129.383 126.753C128.634 127.181 127.719 127.181 126.98 126.753L88.4425 104.681C86.8229 103.755 86.8229 101.467 88.4249 100.55Z" fill="#EAE9E9"/>
<path opacity="0.129" d="M88.6011 100.305L146.909 66.9573C147.622 66.5468 148.493 66.5293 149.215 66.9136L189.16 87.6314C190.833 88.4961 190.886 90.8544 189.248 91.7977L129.242 126.333C128.503 126.761 127.587 126.761 126.839 126.333L88.5923 104.427C86.999 103.51 86.999 101.222 88.6011 100.305Z" fill="#E3E2E2"/>
<path opacity="0.1613" d="M88.777 100.069L146.741 66.9138C147.454 66.512 148.317 66.4945 149.047 66.8701L188.685 87.4218C190.357 88.2865 190.41 90.6448 188.773 91.5794L129.119 125.905C128.379 126.333 127.464 126.333 126.724 125.905L88.777 104.174C87.1837 103.266 87.1837 100.977 88.777 100.069Z" fill="#DCDBDB"/>
<path opacity="0.1935" d="M88.9529 99.8247L146.583 66.8702C147.287 66.4684 148.158 66.4509 148.88 66.8265L188.209 87.2211C189.873 88.0858 189.926 90.4353 188.297 91.3699L128.986 125.495C128.247 125.923 127.332 125.923 126.592 125.495L88.9441 103.93C87.3596 103.013 87.3596 100.733 88.9529 99.8247Z" fill="#D4D4D4"/>
<path opacity="0.2258" d="M89.1285 99.5886L146.424 66.8263C147.128 66.4245 147.999 66.407 148.721 66.7826L187.734 87.0112C189.397 87.8759 189.45 90.2167 187.822 91.1512L128.863 125.075C128.123 125.503 127.217 125.503 126.477 125.075L89.1285 103.685C87.5353 102.768 87.5353 100.497 89.1285 99.5886Z" fill="#CDCCCD"/>
<path opacity="0.2581" d="M89.2967 99.3444L146.257 66.7741C146.962 66.3724 147.824 66.3549 148.546 66.7304L187.25 86.8019C188.914 87.6666 188.958 89.9986 187.338 90.9332L128.732 124.656C127.992 125.084 127.086 125.084 126.346 124.656L89.2967 103.432C87.7123 102.524 87.7123 100.253 89.2967 99.3444Z" fill="#C6C5C5"/>
<path opacity="0.2903" d="M89.4726 99.0995L146.09 66.7216C146.794 66.3198 147.657 66.3024 148.379 66.678L186.766 86.5921C188.421 87.448 188.474 89.7801 186.854 90.7146L128.6 124.237C127.869 124.656 126.962 124.665 126.223 124.237L89.4638 103.187C87.8882 102.279 87.8882 100.008 89.4726 99.0995Z" fill="#BFBEBE"/>
<path opacity="0.3226" d="M89.6475 98.8637L145.93 66.6779C146.635 66.2761 147.488 66.2587 148.21 66.6343L186.29 86.3824C187.944 87.2384 187.997 89.5704 186.378 90.4963L128.475 123.818C127.745 124.237 126.838 124.237 126.107 123.818L89.6475 102.934C88.0719 102.026 88.0719 99.7634 89.6475 98.8637Z" fill="#B8B7B7"/>
<path opacity="0.3548" d="M89.8244 98.6193L145.773 66.6256C146.477 66.2238 147.331 66.2063 148.044 66.5819L185.815 86.1729C187.461 87.0289 187.514 89.3522 185.903 90.278L128.344 123.398C127.613 123.818 126.707 123.818 125.976 123.398L89.8157 102.689C88.2488 101.781 88.2488 99.5276 89.8244 98.6193Z" fill="#B1B0B0"/>
<path opacity="0.3871" d="M90.0001 98.3835L145.614 66.5821C146.309 66.1803 147.172 66.1629 147.885 66.5384L185.339 85.9634C186.985 86.8194 187.038 89.1339 185.427 90.0598L128.22 122.979C127.49 123.398 126.592 123.398 125.861 122.979L90.0001 102.436C88.4245 101.537 88.4245 99.2832 90.0001 98.3835Z" fill="#AAA8A9"/>
<path opacity="0.4194" d="M90.1768 98.1388L145.447 66.5294C146.143 66.1276 146.997 66.1101 147.71 66.4857L184.856 85.7536C186.502 86.6095 186.546 88.9154 184.944 89.8412L128.098 122.551C127.367 122.97 126.469 122.97 125.739 122.551L90.1768 102.183C88.6012 101.292 88.6012 99.0384 90.1768 98.1388Z" fill="#A3A1A1"/>
<path opacity="0.4516" d="M90.3431 97.903L145.279 66.4858C145.975 66.084 146.828 66.0665 147.541 66.4421L184.38 85.544C186.017 86.3912 186.07 88.7058 184.468 89.6229L127.965 122.141C127.234 122.56 126.336 122.56 125.615 122.141L90.3431 101.938C88.7763 101.039 88.7763 98.7939 90.3431 97.903Z" fill="#9C9A9A"/>
<path opacity="0.4839" d="M90.5204 97.6584L145.122 66.4335C145.817 66.0404 146.671 66.023 147.375 66.3898L183.897 85.3344C185.534 86.1816 185.587 88.4874 183.985 89.4045L127.825 121.721C127.103 122.14 126.205 122.14 125.475 121.721L90.5027 101.694C88.9623 100.794 88.9623 98.558 90.5204 97.6584Z" fill="#959393"/>
<path opacity="0.5161" d="M90.6959 97.4224L144.963 66.3895C145.658 65.9965 146.503 65.979 147.216 66.3458L183.43 85.1246C185.058 85.9718 185.111 88.2689 183.518 89.186L127.71 121.302C126.988 121.721 126.09 121.721 125.369 121.302L90.6959 101.44C89.1378 100.549 89.1378 98.3133 90.6959 97.4224Z" fill="#8D8B8C"/>
<path opacity="0.5484" d="M90.8726 97.1782L144.805 66.3374C145.501 65.9444 146.346 65.9269 147.05 66.2937L182.955 84.9153C184.583 85.7625 184.636 88.0509 183.043 88.968L127.588 120.883C126.866 121.302 125.977 121.302 125.246 120.883L90.8726 101.196C89.3146 100.296 89.3146 98.0691 90.8726 97.1782Z" fill="#868485"/>
<path opacity="0.5806" d="M91.0474 96.9422L144.637 66.2935C145.323 65.9004 146.168 65.883 146.881 66.2498L182.47 84.7054C184.098 85.5439 184.142 87.841 182.558 88.7494L127.454 120.464C126.733 120.883 125.844 120.883 125.122 120.464L91.0474 100.942C89.4894 100.052 89.4894 97.833 91.0474 96.9422Z" fill="#7F7D7E"/>
<path opacity="0.6129" d="M91.2147 96.6977L144.469 66.2413C145.156 65.8483 146.001 65.8308 146.705 66.1977L181.986 84.4959C183.605 85.3344 183.658 87.6228 182.074 88.5312L127.322 120.044C126.601 120.455 125.711 120.455 124.998 120.044L91.2147 100.698C89.6654 99.8071 89.6654 97.5886 91.2147 96.6977Z" fill="#787676"/>
<path opacity="0.6452" d="M91.3912 96.4619L144.311 66.1974C144.998 65.8044 145.843 65.7869 146.547 66.1537L181.511 84.2862C183.13 85.1247 183.183 87.4044 181.599 88.3127L127.191 119.617C126.469 120.027 125.589 120.027 124.867 119.617L91.3824 100.436C89.8419 99.5626 89.8508 97.344 91.3912 96.4619Z" fill="#716E6F"/>
<path opacity="0.6774" d="M91.5665 96.2173L144.152 66.1452C144.839 65.7521 145.675 65.7346 146.379 66.1015L181.035 84.0766C182.645 84.9151 182.698 87.186 181.123 88.0944L127.067 119.197C126.354 119.608 125.465 119.608 124.752 119.197L91.5665 100.191C90.026 99.3092 90.026 97.0994 91.5665 96.2173Z" fill="#6A6768"/>
<path opacity="0.7097" d="M91.7433 95.9814L143.986 66.1016C144.672 65.7085 145.509 65.6911 146.204 66.0579L180.551 83.867C182.162 84.7055 182.215 86.9764 180.639 87.876L126.936 118.778C126.223 119.188 125.342 119.188 124.62 118.778L91.7345 99.938C90.2029 99.0646 90.2029 96.8635 91.7433 95.9814Z" fill="#636061"/>
<path opacity="0.7419" d="M91.919 95.7369L143.827 66.0491C144.514 65.656 145.35 65.6386 146.045 66.0054L180.076 83.6574C181.686 84.4872 181.73 86.7581 180.164 87.6577L126.812 118.359C126.099 118.769 125.219 118.769 124.506 118.359L91.919 99.6936C90.3786 98.8201 90.3786 96.6191 91.919 95.7369Z" fill="#5C595A"/>
<path opacity="0.7742" d="M92.0959 95.5011L143.669 66.0055C144.347 65.6125 145.183 65.595 145.879 65.9618L179.601 83.4478C181.203 84.2776 181.256 86.5397 179.689 87.4394L126.681 117.939C125.968 118.35 125.087 118.35 124.374 117.939L92.0871 99.4403C90.5554 98.5756 90.5555 96.3745 92.0959 95.5011Z" fill="#555252"/>
<path opacity="0.8065" d="M92.2626 95.2564L143.502 65.9528C144.179 65.5598 145.016 65.551 145.711 65.9091L179.125 83.238C180.727 84.0677 180.78 86.3212 179.213 87.2208L126.557 117.52C125.844 117.931 124.972 117.931 124.259 117.52L92.2626 99.1956C90.731 98.3222 90.7398 96.1298 92.2626 95.2564Z" fill="#4E4A4B"/>
<path opacity="0.8387" d="M92.439 95.0208L143.344 65.9092C144.021 65.5249 144.849 65.5075 145.544 65.8656L178.641 83.0286C180.235 83.8583 180.287 86.103 178.729 87.0027L126.425 117.101C125.712 117.512 124.841 117.512 124.137 117.101L92.439 98.9426C90.9162 98.0779 90.9162 95.8943 92.439 95.0208Z" fill="#464344"/>
<path opacity="0.871" d="M92.6148 94.7761L143.176 65.8567C143.854 65.4724 144.681 65.455 145.377 65.8131L178.166 82.8188C179.759 83.6486 179.812 85.8933 178.254 86.7842L126.302 116.682C125.598 117.092 124.726 117.092 124.013 116.682L92.6148 98.6978C91.092 97.8331 91.092 95.6496 92.6148 94.7761Z" fill="#3F3C3D"/>
<path opacity="0.9032" d="M92.7914 94.5403L143.018 65.8132C143.696 65.4289 144.523 65.4114 145.21 65.7695L177.691 82.6092C179.284 83.4302 179.328 85.675 177.779 86.5658L126.179 116.262C125.475 116.664 124.604 116.673 123.899 116.262L92.8002 98.4532C91.2686 97.5798 91.2686 95.405 92.7914 94.5403Z" fill="#383536"/>
<path opacity="0.9355" d="M92.9673 94.2966L142.86 65.7615C143.537 65.3772 144.356 65.3597 145.051 65.7179L177.216 82.4004C178.8 83.2215 178.853 85.4574 177.304 86.3483L126.047 115.844C125.343 116.246 124.471 116.246 123.767 115.844L92.9673 98.2008C91.4445 97.3361 91.4445 95.17 92.9673 94.2966Z" fill="#312D2E"/>
<path opacity="0.9677" d="M93.1336 94.0603L142.691 65.7173C143.36 65.333 144.188 65.3156 144.874 65.6737L176.73 82.1903C178.315 83.0113 178.368 85.2386 176.818 86.1295L125.914 115.424C125.21 115.826 124.347 115.826 123.643 115.424L93.1336 97.9558C91.6195 97.0911 91.6195 94.925 93.1336 94.0603Z" fill="#2A2627"/>
<path opacity="0.5" d="M93.3107 93.8153L142.525 65.6646C143.194 65.2803 144.022 65.2628 144.708 65.6209L176.247 81.9803C177.832 82.8013 177.876 85.0286 176.335 85.9107L125.783 115.005C125.079 115.407 124.216 115.407 123.512 115.005L93.3019 97.7021C91.8055 96.8461 91.8055 94.68 93.3107 93.8153Z" fill="#231F20"/>
</g>
<g opacity="0.3">
<path opacity="0.3" d="M142.727 23.8887L88.1426 55.1574L124.532 75.9974L179.116 44.7287L142.727 23.8887Z" fill="#A4A4A4"/>
</g>
<path d="M142.727 22.2117L88.1426 53.4805L124.532 74.3292L179.116 43.0604L142.727 22.2117Z" fill="url(#paint10_linear_68)"/>
<path d="M88.1426 53.4802V95.1253L124.532 115.974V74.329L88.1426 53.4802Z" fill="url(#paint11_linear_68)"/>
<path d="M179.116 43.0603V84.5569L124.532 115.974V74.329L179.116 43.0603Z" fill="url(#paint12_linear_68)"/>
<path d="M124.533 105.17L107.667 96.5145L107.623 95.7197L124.533 104.384V105.17Z" fill="#2B6AAE"/>
<path d="M124.532 105.17V104.384L160.754 84.426L160.71 85.2383L124.532 105.17Z" fill="#2A6EB9"/>
<path d="M150.667 82.8362L150.693 82.0501L179.116 67.1233V67.8919L150.667 82.8362Z" fill="#2A6EB9"/>
<path d="M104.049 91.4308L88.1426 82.0851V81.2903L104.084 90.6621L104.049 91.4308Z" fill="#2B6AAE"/>
<path d="M124.532 83.6225L114.065 78.4954L114.048 77.7268L124.532 82.8627V83.6225Z" fill="#2B6AAE"/>
<path d="M124.532 83.6225V82.8627L140.095 74.7136L140.077 75.4997L124.532 83.6225Z" fill="#2A6EB9"/>
<path d="M156.881 61.2976L156.538 60.7037L179.116 47.8728V48.6589L156.881 61.2976Z" fill="#2A6EB9"/>
<path d="M99.8939 65.9094L88.1426 58.9131V58.1183L99.9027 65.1146L99.8939 65.9094Z" fill="#2B6AAE"/>
<path d="M140.966 31.4175L159.926 41.9509" stroke="white" stroke-width="0.7829" stroke-miterlimit="10"/>
<path d="M132.394 32.483L143.115 38.8766" stroke="white" stroke-width="0.7829" stroke-miterlimit="10"/>
<path d="M129.162 34.7368L151.828 48.2658" stroke="white" stroke-width="0.7829" stroke-miterlimit="10"/>
<path d="M129.162 39.3483L148.246 50.939" stroke="white" stroke-width="0.7829" stroke-miterlimit="10"/>
<path d="M118.546 43.0603L140.253 56.1444" stroke="white" stroke-width="0.7829" stroke-miterlimit="10"/>
<path d="M113.062 45.8551L130.834 56.1444" stroke="white" stroke-width="0.7829" stroke-miterlimit="10"/>
<path d="M110.202 48.2657L132.393 62.0661" stroke="white" stroke-width="0.7829" stroke-miterlimit="10"/>
<path d="M103.645 51.5327L128.564 66.5644" stroke="white" stroke-width="0.7829" stroke-miterlimit="10"/>
<path d="M124.532 90.6446V89.876L153.483 74.7136L153.809 75.325L124.532 90.6446Z" fill="url(#paint13_linear_68)"/>
<path d="M124.532 90.6446L107.667 82.1464V81.3778L124.532 89.876V90.6446Z" fill="url(#paint14_linear_68)"/>
<path d="M178.643 53.3542L151.35 68.9827L151.693 69.5727L178.986 53.9443L178.643 53.3542Z" fill="url(#paint15_linear_68)"/>
<path d="M113.731 106.105L88.1426 91.9987V91.2126L113.696 105.301L113.731 106.105Z" fill="url(#paint16_linear_68)"/>
<path d="M88.1428 74.2856L84.1641 75.6307L122.543 98.0426L150.429 84.426L124.532 95.1254L88.1428 74.2856Z" fill="url(#paint17_linear_68)"/>
<path d="M179.115 55.1658L187.592 58.8604L159.151 73.7176L178.834 61.0003L179.115 55.1658Z" fill="url(#paint18_linear_68)"/>
<defs>
<linearGradient id="paint0_linear_68" x1="0.0378988" y1="105.321" x2="209.99" y2="105.321" gradientUnits="userSpaceOnUse">
<stop stop-color="#C0BFF6"/>
<stop offset="0.2938" stop-color="#C5C4F7"/>
<stop offset="0.6399" stop-color="#D3D2F9"/>
<stop offset="1" stop-color="#E9E9FD"/>
</linearGradient>
<linearGradient id="paint1_linear_68" x1="23.5399" y1="26.0527" x2="118.095" y2="26.0527" gradientUnits="userSpaceOnUse">
<stop offset="0.0556" stop-color="#746CF5"/>
<stop offset="0.505208" stop-color="#C9BFFF"/>
<stop offset="1" stop-color="#746CF5"/>
</linearGradient>
<linearGradient id="paint2_linear_68" x1="22.3312" y1="62.5135" x2="60.1535" y2="62.5135" gradientUnits="userSpaceOnUse">
<stop offset="0.0556" stop-color="#746CF5"/>
<stop offset="0.505208" stop-color="#C9BFFF"/>
<stop offset="1" stop-color="#746CF5"/>
</linearGradient>
<linearGradient id="paint3_linear_68" x1="64.803" y1="-1711.1" x2="105.696" y2="-1711.09" gradientUnits="userSpaceOnUse">
<stop stop-color="#B5A7FF"/>
<stop offset="0.484375" stop-color="#7B61FF"/>
<stop offset="1" stop-color="#5793CE"/>
</linearGradient>
<linearGradient id="paint4_linear_68" x1="61.6095" y1="-325.865" x2="83.5432" y2="-325.861" gradientUnits="userSpaceOnUse">
<stop stop-color="#B5A7FF"/>
<stop offset="0.484375" stop-color="#7B61FF"/>
<stop offset="1" stop-color="#5793CE"/>
</linearGradient>
<linearGradient id="paint5_linear_68" x1="43.1781" y1="-160.923" x2="55.8133" y2="-160.921" gradientUnits="userSpaceOnUse">
<stop stop-color="#B5A7FF"/>
<stop offset="0.484375" stop-color="#7B61FF"/>
<stop offset="1" stop-color="#5793CE"/>
</linearGradient>
<linearGradient id="paint6_linear_68" x1="80.0275" y1="30.7654" x2="100.453" y2="19.0194" gradientUnits="userSpaceOnUse">
<stop stop-color="#B5A7FF"/>
<stop offset="0.484375" stop-color="#7B61FF"/>
<stop offset="1" stop-color="#5793CE"/>
</linearGradient>
<linearGradient id="paint7_linear_68" x1="24.7545" y1="-284.477" x2="43.925" y2="-284.474" gradientUnits="userSpaceOnUse">
<stop stop-color="#B5A7FF"/>
<stop offset="0.484375" stop-color="#7B61FF"/>
<stop offset="1" stop-color="#5793CE"/>
</linearGradient>
<linearGradient id="paint8_linear_68" x1="25.9089" y1="-512.386" x2="75.5532" y2="-512.371" gradientUnits="userSpaceOnUse">
<stop stop-color="#B5A7FF"/>
<stop offset="0.484375" stop-color="#7B61FF"/>
<stop offset="1" stop-color="#5793CE"/>
</linearGradient>
<linearGradient id="paint9_linear_68" x1="96.1242" y1="-407.663" x2="117.438" y2="-407.66" gradientUnits="userSpaceOnUse">
<stop stop-color="#B5A7FF"/>
<stop offset="0.484375" stop-color="#7B61FF"/>
<stop offset="1" stop-color="#5793CE"/>
</linearGradient>
<linearGradient id="paint10_linear_68" x1="90.1571" y1="48.2688" x2="184.713" y2="48.2688" gradientUnits="userSpaceOnUse">
<stop offset="0.0556" stop-color="#746CF5"/>
<stop offset="0.505208" stop-color="#C9BFFF"/>
<stop offset="1" stop-color="#746CF5"/>
</linearGradient>
<linearGradient id="paint11_linear_68" x1="88.9484" y1="84.7251" x2="126.771" y2="84.7251" gradientUnits="userSpaceOnUse">
<stop offset="0.0556" stop-color="#746CF5"/>
<stop offset="0.505208" stop-color="#C9BFFF"/>
<stop offset="1" stop-color="#746CF5"/>
</linearGradient>
<linearGradient id="paint12_linear_68" x1="131.42" y1="-1688.67" x2="172.313" y2="-1688.66" gradientUnits="userSpaceOnUse">
<stop stop-color="#B5A7FF"/>
<stop offset="0.484375" stop-color="#7B61FF"/>
<stop offset="1" stop-color="#5793CE"/>
</linearGradient>
<linearGradient id="paint13_linear_68" x1="128.227" y1="-303.653" x2="150.16" y2="-303.649" gradientUnits="userSpaceOnUse">
<stop stop-color="#B5A7FF"/>
<stop offset="0.484375" stop-color="#7B61FF"/>
<stop offset="1" stop-color="#5793CE"/>
</linearGradient>
<linearGradient id="paint14_linear_68" x1="109.795" y1="-138.712" x2="122.431" y2="-138.709" gradientUnits="userSpaceOnUse">
<stop stop-color="#B5A7FF"/>
<stop offset="0.484375" stop-color="#7B61FF"/>
<stop offset="1" stop-color="#5793CE"/>
</linearGradient>
<linearGradient id="paint15_linear_68" x1="146.644" y1="52.9963" x2="167.07" y2="41.2504" gradientUnits="userSpaceOnUse">
<stop stop-color="#B5A7FF"/>
<stop offset="0.484375" stop-color="#7B61FF"/>
<stop offset="1" stop-color="#5793CE"/>
</linearGradient>
<linearGradient id="paint16_linear_68" x1="91.3716" y1="-262.475" x2="110.542" y2="-262.472" gradientUnits="userSpaceOnUse">
<stop stop-color="#B5A7FF"/>
<stop offset="0.484375" stop-color="#7B61FF"/>
<stop offset="1" stop-color="#5793CE"/>
</linearGradient>
<linearGradient id="paint17_linear_68" x1="92.5261" y1="-489.949" x2="142.17" y2="-489.935" gradientUnits="userSpaceOnUse">
<stop stop-color="#B5A7FF"/>
<stop offset="0.484375" stop-color="#7B61FF"/>
<stop offset="1" stop-color="#5793CE"/>
</linearGradient>
<linearGradient id="paint18_linear_68" x1="162.74" y1="-385.445" x2="184.048" y2="-385.442" gradientUnits="userSpaceOnUse">
<stop stop-color="#B5A7FF"/>
<stop offset="0.484375" stop-color="#7B61FF"/>
<stop offset="1" stop-color="#5793CE"/>
</linearGradient>
</defs>
</svg>
