<svg width="210" height="186" viewBox="0 0 210 186" fill="none" xmlns="http://www.w3.org/2000/svg">
<path d="M206.132 125.868L114.937 178.11C108.792 181.634 101.216 181.634 95.0627 178.11L3.86806 125.868C-1.28935 122.91 -1.28935 115.529 3.86806 112.572L95.0627 60.3287C101.208 56.8054 108.784 56.8054 114.937 60.3287L206.132 112.572C211.289 115.529 211.289 122.91 206.132 125.868Z" fill="white"/>
<path d="M209.996 119.22V123.923C209.996 126.505 208.711 129.096 206.132 130.578L114.937 182.821C108.784 186.345 101.208 186.345 95.0626 182.821L3.86795 130.578C1.28924 129.096 0.00390625 126.513 0.00390625 123.931V119.22C0.00390625 120.017 0.1244 120.806 0.373434 121.571C0.445734 121.818 0.534115 122.049 0.638548 122.28C1.26515 123.715 2.33358 124.983 3.86795 125.86L95.0626 178.102C101.208 181.626 108.784 181.626 114.937 178.102L206.132 125.86C207.602 125.023 208.654 123.819 209.281 122.456C209.409 122.169 209.538 121.866 209.626 121.571C209.875 120.806 209.996 120.017 209.996 119.22Z" fill="url(#paint0_linear_68)"/>
<g opacity="0.5">
<path opacity="0.0244" d="M62.7198 80.3123C65.668 78.6384 69.2911 78.6463 72.2313 80.3203L164.647 133.097C171.026 136.74 171.018 145.867 164.623 149.494C161.675 151.168 158.052 151.16 155.111 149.478L62.7038 96.709C56.3172 93.0661 56.3333 83.9392 62.7198 80.3123Z" fill="#FAFAFA"/>
<path opacity="0.0488" d="M62.7445 80.448C65.6284 78.8139 69.1711 78.8139 72.0551 80.456L164.471 133.233C170.713 136.796 170.705 145.732 164.447 149.279C161.563 150.913 158.02 150.913 155.144 149.263L62.7203 96.4859C56.4784 92.9228 56.4865 83.9951 62.7445 80.448Z" fill="#F4F4F4"/>
<path opacity="0.0732" d="M62.7601 80.5751C65.5798 78.9729 69.0502 78.9809 71.8619 80.5831L164.278 133.36C170.383 136.844 170.375 145.58 164.254 149.056C161.434 150.658 157.971 150.65 155.152 149.04L62.736 96.2624C56.6307 92.779 56.6467 84.0426 62.7601 80.5751Z" fill="#EFEFEF"/>
<path opacity="0.0976" d="M62.7757 80.7025C65.5312 79.1402 68.9213 79.1402 71.6767 80.7105L164.092 133.488C170.061 136.899 170.053 145.436 164.068 148.824C161.313 150.387 157.923 150.387 155.175 148.808L62.7596 96.0311C56.7909 92.6274 56.7989 84.0903 62.7757 80.7025Z" fill="#EAE9E9"/>
<path opacity="0.122" d="M62.7925 80.8304C65.4917 79.3 68.8014 79.3079 71.4846 80.8384L163.9 133.615C169.733 136.947 169.716 145.285 163.876 148.601C161.185 150.131 157.875 150.123 155.184 148.585L62.7684 95.8081C56.9442 92.4841 56.9522 84.1464 62.7925 80.8304Z" fill="#E4E4E4"/>
<path opacity="0.1463" d="M62.8081 80.9576C65.4431 79.467 68.6725 79.467 71.2994 80.9655L163.715 133.742C169.411 136.995 169.395 145.141 163.691 148.377C161.064 149.868 157.827 149.868 155.2 148.37L62.784 95.5926C57.0964 92.3403 57.1125 84.1939 62.8081 80.9576Z" fill="#DFDEDE"/>
<path opacity="0.1707" d="M62.8317 81.085C65.4024 79.6262 68.5515 79.6342 71.1222 81.0929L163.538 133.87C169.097 137.042 169.081 144.99 163.514 148.154C160.951 149.613 157.794 149.605 155.231 148.146L62.8157 95.3692C57.2566 92.1888 57.2646 84.2415 62.8317 81.085Z" fill="#D9D9D9"/>
<path opacity="0.1951" d="M62.8485 81.2126C65.3549 79.7937 68.4316 79.7937 70.93 81.2206L163.346 133.997C168.768 137.09 168.752 144.846 163.33 147.923C160.823 149.342 157.746 149.342 155.248 147.915L62.8324 95.1382C57.4099 92.0454 57.4179 84.2895 62.8485 81.2126Z" fill="#D4D3D3"/>
<path opacity="0.2195" d="M62.8641 81.3398C65.3062 79.9528 68.3026 79.9607 70.7448 81.3477L163.161 134.125C168.447 137.146 168.43 144.702 163.144 147.7C160.702 149.087 157.706 149.079 155.272 147.692L62.8561 94.9146C57.5621 91.9015 57.5781 84.3449 62.8641 81.3398Z" fill="#CFCECE"/>
<path opacity="0.2439" d="M62.8798 81.4674C65.2576 80.1203 68.1818 80.1203 70.5516 81.4754L162.967 134.252C168.117 137.194 168.101 144.551 162.951 147.477C160.573 148.824 157.657 148.824 155.279 147.469L62.8637 94.6915C57.7223 91.7502 57.7304 84.3928 62.8798 81.4674Z" fill="#C9C8C9"/>
<path opacity="0.2683" d="M62.9054 81.5958C65.219 80.2806 68.0628 80.2886 70.3764 81.6038L162.792 134.381C167.805 137.242 167.789 144.409 162.776 147.254C160.462 148.57 157.619 148.562 155.313 147.246L62.8974 94.4693C57.8765 91.6076 57.8846 84.4415 62.9054 81.5958Z" fill="#C4C3C3"/>
<path opacity="0.2927" d="M62.9211 81.7233C65.1704 80.4479 67.942 80.4479 70.1833 81.7313L162.599 134.508C167.467 137.29 167.459 144.257 162.583 147.031C160.334 148.306 157.57 148.306 155.321 147.023L62.905 94.246C58.0288 91.4641 58.0448 84.4973 62.9211 81.7233Z" fill="#BFBDBE"/>
<path opacity="0.3171" d="M62.9367 81.8508C65.1218 80.6073 67.813 80.6153 69.9981 81.8588L162.414 134.636C167.146 137.338 167.137 144.114 162.398 146.8C160.213 148.043 157.521 148.035 155.344 146.792L62.9207 94.0148C58.189 91.3126 58.1971 84.5451 62.9367 81.8508Z" fill="#B9B8B8"/>
<path opacity="0.3415" d="M62.9535 81.9785C65.0823 80.7749 67.6851 80.7749 69.8059 81.9865L162.222 134.763C166.817 137.386 166.809 143.962 162.206 146.576C160.085 147.78 157.474 147.78 155.353 146.569L62.9374 93.7917C58.3423 91.1692 58.3503 84.593 62.9535 81.9785Z" fill="#B4B3B3"/>
<path opacity="0.3659" d="M62.977 82.106C65.0416 80.9343 67.5721 80.9422 69.6286 82.114L162.044 134.891C166.503 137.442 166.495 143.819 162.028 146.354C159.972 147.525 157.441 147.518 155.385 146.346L62.9689 93.5686C58.5024 91.0258 58.5104 84.6408 62.977 82.106Z" fill="#AFADAD"/>
<path opacity="0.3902" d="M62.9928 82.2335C64.9931 81.1016 67.4432 81.1016 69.4355 82.2415L161.851 135.018C166.173 137.49 166.165 143.667 161.835 146.13C159.843 147.262 157.385 147.262 155.392 146.122L62.9767 93.3453C58.6547 90.8742 58.6628 84.6966 62.9928 82.2335Z" fill="#A9A8A8"/>
<path opacity="0.4146" d="M63.0095 82.369C64.9455 81.269 67.3234 81.277 69.2514 82.377L161.667 135.154C165.853 137.545 165.845 143.532 161.651 145.907C159.715 147.007 157.345 146.999 155.409 145.899L62.9934 93.1221C58.808 90.7308 58.8161 84.7444 63.0095 82.369Z" fill="#A4A2A3"/>
<path opacity="0.439" d="M63.025 82.4965C64.8968 81.4364 67.1943 81.4364 69.0581 82.5045L161.474 135.282C165.523 137.593 165.515 143.389 161.458 145.684C159.586 146.744 157.288 146.744 155.425 145.676L63.017 92.8989C58.9682 90.5873 58.9762 84.7922 63.025 82.4965Z" fill="#9E9D9D"/>
<path opacity="0.4634" d="M63.0408 82.624C64.8483 81.5957 67.0655 81.6037 68.873 82.632L161.289 135.409C165.201 137.641 165.193 143.237 161.273 145.461C159.465 146.489 157.248 146.481 155.44 145.453L63.0247 92.6757C59.1205 90.4358 59.1285 84.848 63.0408 82.624Z" fill="#999798"/>
<path opacity="0.4878" d="M63.0654 82.7517C64.8087 81.7633 66.9536 81.7633 68.6968 82.7597L161.113 135.537C164.888 137.689 164.88 143.093 161.096 145.237C159.353 146.226 157.208 146.226 155.473 145.23L63.0574 92.4526C59.2737 90.2924 59.2817 84.896 63.0654 82.7517Z" fill="#949292"/>
<path opacity="0.5122" d="M63.081 82.8792C64.76 81.9227 66.8246 81.9307 68.5036 82.8872L160.919 135.664C164.558 137.745 164.55 142.942 160.903 145.006C159.224 145.963 157.16 145.955 155.481 144.998L63.065 92.2214C59.4339 90.1489 59.4419 84.9438 63.081 82.8792Z" fill="#8E8C8D"/>
<path opacity="0.5366" d="M63.0968 83.0067C64.7115 82.09 66.7037 82.09 68.3184 83.0147L160.734 135.792C164.237 137.792 164.229 142.798 160.718 144.783C159.103 145.7 157.119 145.7 155.504 144.775L63.0887 91.9982C59.5862 89.9974 59.5942 84.9915 63.0968 83.0067Z" fill="#898787"/>
<path opacity="0.561" d="M63.1144 83.1342C64.6649 82.2494 66.5768 82.2574 68.1273 83.1422L160.543 135.919C163.909 137.84 163.901 142.647 160.527 144.56C158.977 145.445 157.065 145.437 155.514 144.552L63.1064 91.775C59.7405 89.8539 59.7484 85.0473 63.1144 83.1342Z" fill="#848182"/>
<path opacity="0.5854" d="M63.138 83.2619C64.6322 82.417 66.4638 82.417 67.9499 83.2699L160.366 136.047C163.587 137.888 163.587 142.504 160.358 144.337C158.871 145.182 157.04 145.182 155.554 144.329L63.138 91.5519C59.9005 89.7106 59.9086 85.0953 63.138 83.2619Z" fill="#7E7C7C"/>
<path opacity="0.6098" d="M63.1537 83.3894C64.5837 82.5764 66.3349 82.5843 67.7568 83.3974L160.173 136.174C163.257 137.936 163.257 142.352 160.164 144.113C158.735 144.926 156.983 144.919 155.561 144.105L63.1457 91.3287C60.0529 89.5591 60.0609 85.1431 63.1537 83.3894Z" fill="#797677"/>
<path opacity="0.6341" d="M63.1703 83.5169C64.536 82.7437 66.207 82.7437 67.5726 83.5249L159.988 136.302C162.937 137.984 162.937 142.208 159.98 143.882C158.615 144.656 156.944 144.656 155.586 143.874L63.1703 91.0975C60.2141 89.4155 60.2141 85.1988 63.1703 83.5169Z" fill="#737172"/>
<path opacity="0.6585" d="M63.186 83.6442C64.4874 82.9028 66.086 82.9108 67.3794 83.6521L159.795 136.429C162.607 138.04 162.607 142.057 159.787 143.659C158.486 144.393 156.887 144.393 155.594 143.651L63.178 90.874C60.3663 89.2718 60.3743 85.2464 63.186 83.6442Z" fill="#6E6B6C"/>
<path opacity="0.6829" d="M63.2018 83.7721C64.4389 83.0707 65.9572 83.0706 67.1943 83.7801L159.61 136.557C162.285 138.088 162.277 141.914 159.602 143.436C158.365 144.138 156.847 144.138 155.609 143.428L63.1937 90.6512C60.5186 89.1207 60.5267 85.2946 63.2018 83.7721Z" fill="#696667"/>
<path opacity="0.7073" d="M63.2264 83.8996C64.3992 83.23 65.8453 83.238 67.0101 83.9076L159.426 136.685C161.964 138.135 161.956 141.77 159.418 143.213C158.245 143.875 156.807 143.875 155.634 143.205L63.2183 90.428C60.6798 88.9772 60.6798 85.3424 63.2264 83.8996Z" fill="#636161"/>
<path opacity="0.7317" d="M63.242 84.0269C64.3506 83.3971 65.7163 83.3971 66.8249 84.0269L159.241 136.804C161.643 138.175 161.635 141.611 159.233 142.974C158.124 143.604 156.758 143.604 155.65 142.966L63.234 90.1886C60.832 88.8335 60.8401 85.3979 63.242 84.0269Z" fill="#5E5B5C"/>
<path opacity="0.7561" d="M63.2578 84.1546C64.3021 83.5568 65.5874 83.5647 66.6317 84.1546L159.048 136.932C161.313 138.223 161.305 141.467 159.039 142.751C157.995 143.34 156.71 143.34 155.665 142.743L63.2497 89.9656C60.9843 88.6822 60.9924 85.4459 63.2578 84.1546Z" fill="#595656"/>
<path opacity="0.7805" d="M63.2744 84.2901C64.2545 83.7321 65.4675 83.7321 66.4476 84.2901L158.863 137.067C160.992 138.279 160.984 141.324 158.855 142.535C157.875 143.093 156.662 143.093 155.682 142.527L63.2664 89.7504C61.1455 88.5388 61.1456 85.4938 63.2744 84.2901Z" fill="#535051"/>
<path opacity="0.8049" d="M63.298 84.4176C64.2218 83.8915 65.3465 83.8995 66.2704 84.4176L158.686 137.195C160.678 138.335 160.67 141.18 158.678 142.312C157.762 142.83 156.63 142.83 155.714 142.304L63.298 89.5271C61.2977 88.3952 61.3057 85.5495 63.298 84.4176Z" fill="#4E4B4C"/>
<path opacity="0.8293" d="M63.3138 84.5451C64.1733 84.0589 65.2257 84.0589 66.0772 84.5451L158.493 137.322C160.349 138.382 160.341 141.029 158.485 142.081C157.625 142.567 156.581 142.567 155.722 142.081L63.3058 89.3039C61.4501 88.2437 61.458 85.5973 63.3138 84.5451Z" fill="#494546"/>
<path opacity="0.8537" d="M63.3304 84.6728C64.1257 84.2185 65.0977 84.2265 65.893 84.6728L158.309 137.45C160.028 138.43 160.02 140.885 158.301 141.858C157.505 142.304 156.533 142.304 155.746 141.858L63.3304 89.0809C61.6112 88.1004 61.6112 85.6453 63.3304 84.6728Z" fill="#434041"/>
<path opacity="0.878" d="M63.347 84.8001C64.078 84.3856 64.9778 84.3856 65.7008 84.8001L158.116 137.577C159.699 138.478 159.691 140.734 158.108 141.635C157.377 142.049 156.486 142.049 155.755 141.635L63.347 88.8574C61.7644 87.9567 61.7725 85.6928 63.347 84.8001Z" fill="#3E3A3B"/>
<path opacity="0.9024" d="M63.3706 84.9278C64.0374 84.5452 64.8568 84.5532 65.5236 84.9278L157.939 137.705C159.377 138.526 159.377 140.591 157.931 141.412C157.265 141.786 156.445 141.786 155.786 141.412L63.3706 88.6344C61.9246 87.8054 61.9246 85.7488 63.3706 84.9278Z" fill="#383536"/>
<path opacity="0.9268" d="M63.3874 85.0553C63.9899 84.7125 64.7289 84.7125 65.3314 85.0553L157.747 137.832C159.049 138.574 159.049 140.447 157.739 141.188C157.137 141.531 156.398 141.531 155.795 141.188L63.3793 88.4111C62.0779 87.6618 62.0779 85.7966 63.3874 85.0553Z" fill="#332F30"/>
<path opacity="0.9512" d="M63.4031 85.183C63.9414 84.8801 64.6081 84.8801 65.1463 85.183L157.562 137.96C158.727 138.629 158.727 140.295 157.554 140.957C157.016 141.26 156.349 141.26 155.811 140.957L63.3951 88.1801C62.2302 87.5185 62.2303 85.8446 63.4031 85.183Z" fill="#2E2A2B"/>
<path opacity="0.9756" d="M63.4187 85.3103C63.8926 85.0392 64.4791 85.0392 64.9531 85.3103L157.369 138.087C158.397 138.677 158.397 140.152 157.369 140.734C156.895 141.005 156.308 141.005 155.834 140.734L63.4187 87.9567C62.3904 87.3668 62.3904 85.9001 63.4187 85.3103Z" fill="#282425"/>
<path opacity="0.5" d="M63.4354 85.4379C63.8451 85.2068 64.3592 85.2068 64.7689 85.4379L157.185 138.215C158.076 138.725 158.076 140 157.185 140.511C156.775 140.742 156.269 140.742 155.851 140.511L63.4354 87.7336C62.5437 87.2235 62.5437 85.9481 63.4354 85.4379Z" fill="#231F20"/>
</g>
<path d="M60.623 3.20749C60.856 3.33503 65.9893 0.154541 65.9893 0.154541V85.2944L60.623 88.3474V3.20749Z" fill="#1D4D81"/>
<path d="M65.9893 0.162598V85.3025L161.53 139.953V67.0565L97.8335 30.5646V21.8362C97.8335 19.7158 96.6928 17.747 94.8371 16.6868L65.9893 0.162598Z" fill="#2A6EB9"/>
<path d="M60.623 3.20737V88.3553L107.642 115.25L156.164 143.006V70.1093L92.4673 33.6173V24.8889C92.4673 22.7686 91.3265 20.7997 89.4708 19.7396L60.623 3.20737Z" fill="url(#paint1_linear_68)"/>
<path d="M156.164 70.1095L161.53 67.0565V139.953L156.164 143.006V70.1095Z" fill="url(#paint2_linear_68)"/>
<g opacity="0.5">
<path opacity="0.0244" d="M40.5324 93.1622C43.4807 91.4882 47.1037 91.4962 50.0439 93.1702L142.46 145.947C148.838 149.59 148.83 158.717 142.436 162.344C139.487 164.018 135.864 164.01 132.924 162.328L40.5083 109.559C34.1298 105.916 34.1379 96.7891 40.5324 93.1622Z" fill="#FAFAFA"/>
<path opacity="0.0488" d="M40.549 93.2896C43.433 91.6555 46.9757 91.6555 49.8597 93.2975L142.275 146.074C148.517 149.637 148.509 158.573 142.251 162.12C139.367 163.754 135.825 163.754 132.949 162.104L40.5329 109.327C34.283 105.764 34.2991 96.8367 40.549 93.2896Z" fill="#F4F4F4"/>
<path opacity="0.0732" d="M40.5648 93.4167C43.3845 91.8145 46.8549 91.8225 49.6666 93.4247L142.082 146.202C148.188 149.686 148.18 158.422 142.058 161.897C139.239 163.5 135.776 163.492 132.956 161.881L40.5407 109.104C34.4353 105.621 34.4514 96.8842 40.5648 93.4167Z" fill="#EFEFEF"/>
<path opacity="0.0976" d="M40.5804 93.5444C43.3359 91.982 46.7259 91.982 49.4814 93.5523L141.897 146.329C147.866 149.741 147.858 158.278 141.873 161.666C139.118 163.228 135.728 163.228 132.98 161.65L40.5644 108.873C34.5956 105.477 34.6036 96.9401 40.5804 93.5444Z" fill="#EAE9E9"/>
<path opacity="0.122" d="M40.5981 93.6725C43.2973 92.142 46.607 92.15 49.2902 93.6805L141.706 146.458C147.538 149.79 147.522 158.127 141.682 161.443C138.991 162.974 135.681 162.966 132.99 161.427L40.574 108.65C34.7498 105.326 34.7658 96.9885 40.5981 93.6725Z" fill="#E4E4E4"/>
<path opacity="0.1463" d="M40.6207 93.7991C43.2557 92.3085 46.4851 92.3085 49.112 93.8071L141.528 146.584C147.223 149.836 147.207 157.983 141.504 161.219C138.877 162.71 135.639 162.71 133.012 161.211L40.5966 108.434C34.909 105.182 34.917 97.0354 40.6207 93.7991Z" fill="#DFDEDE"/>
<path opacity="0.1707" d="M40.6364 93.9268C43.2071 92.4681 46.3562 92.476 48.9268 93.9348L141.343 146.712C146.902 149.884 146.886 157.831 141.318 160.996C138.756 162.455 135.599 162.447 133.036 160.988L40.6204 108.211C35.0613 105.039 35.0693 97.0834 40.6364 93.9268Z" fill="#D9D9D9"/>
<path opacity="0.1951" d="M40.654 94.055C43.1604 92.6361 46.2372 92.6361 48.7356 94.0629L141.151 146.84C146.574 149.933 146.558 157.689 141.135 160.766C138.629 162.185 135.552 162.185 133.054 160.758L40.638 107.981C35.2154 104.888 35.2315 97.1398 40.654 94.055Z" fill="#D4D3D3"/>
<path opacity="0.2195" d="M40.6697 94.1824C43.1118 92.7955 46.1082 92.8034 48.5504 94.1904L140.966 146.967C146.252 149.989 146.236 157.545 140.95 160.542C138.508 161.929 135.511 161.921 133.077 160.534L40.6616 107.757C35.3757 104.744 35.3837 97.1876 40.6697 94.1824Z" fill="#CFCECE"/>
<path opacity="0.2439" d="M40.6924 94.3092C43.0703 92.9621 45.9944 92.9621 48.3643 94.3172L140.78 147.094C145.929 150.036 145.913 157.393 140.764 160.318C138.386 161.666 135.47 161.666 133.092 160.31L40.6764 107.533C35.527 104.6 35.535 97.2346 40.6924 94.3092Z" fill="#C9C8C9"/>
<path opacity="0.2683" d="M40.7101 94.4376C43.0237 93.1224 45.8675 93.1304 48.1811 94.4456L140.597 147.222C145.61 150.084 145.594 157.25 140.581 160.096C138.267 161.411 135.423 161.403 133.118 160.088L40.6941 107.311C35.6812 104.449 35.6893 97.2913 40.7101 94.4376Z" fill="#C4C3C3"/>
<path opacity="0.2927" d="M40.7257 94.5649C42.975 93.2895 45.7465 93.2895 47.9878 94.5729L140.404 147.35C145.272 150.132 145.264 157.099 140.388 159.865C138.138 161.14 135.375 161.14 133.125 159.857L40.7096 107.088C35.8414 104.306 35.8494 97.3389 40.7257 94.5649Z" fill="#BFBDBE"/>
<path opacity="0.3171" d="M40.7414 94.7007C42.9265 93.4572 45.6177 93.4652 47.8027 94.7087L140.218 147.486C144.95 150.188 144.942 156.963 140.202 159.65C138.017 160.893 135.326 160.885 133.149 159.642L40.7334 106.865C35.9937 104.162 36.0017 97.387 40.7414 94.7007Z" fill="#B9B8B8"/>
<path opacity="0.3415" d="M40.7671 94.8282C42.8959 93.6245 45.4987 93.6245 47.6195 94.8361L140.035 147.613C144.63 150.236 144.622 156.812 140.019 159.426C137.898 160.63 135.288 160.63 133.167 159.418L40.751 106.641C36.1479 104.011 36.1559 97.4347 40.7671 94.8282Z" fill="#B4B3B3"/>
<path opacity="0.3659" d="M40.7826 94.9557C42.8472 93.7839 45.3777 93.7919 47.4343 94.9636L139.85 147.741C144.308 150.291 144.3 156.668 139.834 159.203C137.777 160.375 135.247 160.367 133.19 159.195L40.7746 106.418C36.3081 103.867 36.3161 97.4905 40.7826 94.9557Z" fill="#AFADAD"/>
<path opacity="0.3902" d="M40.7984 95.0834C42.7987 93.9515 45.2489 93.9515 47.2412 95.0914L139.657 147.868C143.979 150.339 143.971 156.517 139.641 158.98C137.649 160.112 135.19 160.112 133.198 158.972L40.7823 106.195C36.4604 103.724 36.4684 97.5385 40.7984 95.0834Z" fill="#A9A8A8"/>
<path opacity="0.4146" d="M40.815 95.2109C42.7511 94.1108 45.129 94.1188 47.057 95.2188L139.473 147.996C143.658 150.387 143.65 156.373 139.457 158.749C137.521 159.849 135.151 159.841 133.215 158.741L40.799 105.964C36.6216 103.573 36.6216 97.5863 40.815 95.2109Z" fill="#A4A2A3"/>
<path opacity="0.439" d="M40.8307 95.3381C42.7025 94.2779 45 94.2779 46.8637 95.3461L139.28 148.123C143.328 150.435 143.32 156.23 139.263 158.526C137.392 159.586 135.094 159.586 133.23 158.518L40.8146 105.741C36.7738 103.429 36.7819 97.6418 40.8307 95.3381Z" fill="#9E9D9D"/>
<path opacity="0.4634" d="M40.8544 95.4658C42.6619 94.4376 44.8791 94.4455 46.6866 95.4738L139.102 148.251C143.015 150.483 143.007 156.078 139.086 158.302C137.279 159.331 135.062 159.323 133.254 158.294L40.8383 105.517C36.9261 103.286 36.9341 97.6898 40.8544 95.4658Z" fill="#999798"/>
<path opacity="0.4878" d="M40.871 95.5936C42.6143 94.6051 44.7592 94.6051 46.5024 95.6015L138.918 148.378C142.694 150.531 142.686 155.935 138.902 158.079C137.159 159.068 135.014 159.068 133.279 158.071L40.855 105.294C37.0873 103.134 37.0873 97.7378 40.871 95.5936Z" fill="#949292"/>
<path opacity="0.5122" d="M40.8867 95.7211C42.5657 94.7645 44.6302 94.7725 46.3092 95.729L138.725 148.506C142.364 150.587 142.356 155.784 138.709 157.848C137.03 158.805 134.965 158.797 133.286 157.84L40.8706 105.063C37.2396 102.991 37.2476 97.7856 40.8867 95.7211Z" fill="#8E8C8D"/>
<path opacity="0.5366" d="M40.9024 95.8483C42.5171 94.9316 44.5094 94.9316 46.1241 95.8563L138.54 148.634C142.042 150.634 142.034 155.64 138.524 157.625C136.909 158.542 134.925 158.542 133.31 157.617L40.8944 104.84C37.3918 102.847 37.3999 97.8411 40.9024 95.8483Z" fill="#898787"/>
<path opacity="0.561" d="M40.9271 95.9763C42.4775 95.0915 44.3894 95.0994 45.9399 95.9842L138.356 148.761C141.722 150.682 141.714 155.489 138.34 157.402C136.789 158.287 134.877 158.279 133.327 157.394L40.911 104.617C37.553 102.696 37.553 97.8893 40.9271 95.9763Z" fill="#848182"/>
<path opacity="0.5854" d="M40.9426 96.1038C42.4369 95.2588 44.2685 95.2588 45.7546 96.1117L138.17 148.889C141.392 150.73 141.392 155.345 138.162 157.179C136.676 158.023 134.845 158.023 133.358 157.171L40.9426 104.394C37.7052 102.552 37.7132 97.9371 40.9426 96.1038Z" fill="#7E7C7C"/>
<path opacity="0.6098" d="M40.9584 96.231C42.3883 95.4179 44.1396 95.4259 45.5615 96.239L137.977 149.016C141.062 150.778 141.062 155.194 137.969 156.956C136.539 157.769 134.788 157.761 133.366 156.948L40.9504 104.17C37.8576 102.409 37.8656 97.9926 40.9584 96.231Z" fill="#797677"/>
<path opacity="0.6341" d="M40.975 96.3587C42.3407 95.5855 44.0116 95.5855 45.3773 96.3667L137.793 149.144C140.741 150.826 140.741 155.05 137.785 156.724C136.419 157.497 134.748 157.497 133.391 156.716L40.975 103.939C38.0187 102.257 38.0187 98.0406 40.975 96.3587Z" fill="#737172"/>
<path opacity="0.6585" d="M40.9987 96.4865C42.3001 95.7452 43.8987 95.7531 45.1921 96.4944L137.608 149.271C140.42 150.882 140.42 154.899 137.6 156.501C136.298 157.235 134.7 157.235 133.406 156.493L40.9906 103.716C38.1709 102.114 38.179 98.0887 40.9987 96.4865Z" fill="#6E6B6C"/>
<path opacity="0.6829" d="M41.0163 96.6215C42.2534 95.92 43.7717 95.92 45.0089 96.6295L137.425 149.406C140.1 150.937 140.092 154.763 137.417 156.286C136.179 156.987 134.661 156.987 133.424 156.278L41.0083 103.501C38.3332 101.97 38.3331 98.136 41.0163 96.6215Z" fill="#696667"/>
<path opacity="0.7073" d="M41.032 96.7493C42.2049 96.0797 43.6509 96.0876 44.8157 96.7572L137.231 149.534C139.77 150.985 139.762 154.62 137.223 156.062C136.051 156.724 134.613 156.724 133.44 156.054L41.024 103.278C38.4855 101.819 38.4855 98.192 41.032 96.7493Z" fill="#636161"/>
<path opacity="0.7317" d="M41.0477 96.8767C42.1563 96.247 43.522 96.247 44.6306 96.8767L137.046 149.654C139.448 151.025 139.44 154.46 137.038 155.823C135.93 156.453 134.564 156.453 133.455 155.815L41.0397 103.038C38.6377 101.675 38.6457 98.2398 41.0477 96.8767Z" fill="#5E5B5C"/>
<path opacity="0.7561" d="M41.0633 97.0042C42.1077 96.4064 43.393 96.4144 44.4374 97.0042L136.853 149.781C139.119 151.073 139.11 154.317 136.845 155.6C135.801 156.19 134.515 156.19 133.471 155.592L41.0553 102.815C38.7979 101.532 38.7979 98.2876 41.0633 97.0042Z" fill="#595656"/>
<path opacity="0.7805" d="M41.088 97.132C42.0681 96.574 43.2811 96.574 44.2612 97.132L136.677 149.909C138.806 151.121 138.798 154.166 136.669 155.377C135.689 155.935 134.476 155.935 133.496 155.369L41.08 102.592C38.9512 101.381 38.9512 98.3436 41.088 97.132Z" fill="#535051"/>
<path opacity="0.8049" d="M41.1037 97.2597C42.0275 96.7336 43.1522 96.7416 44.076 97.2597L136.492 150.037C138.484 151.176 138.476 154.022 136.484 155.154C135.568 155.672 134.435 155.672 133.519 155.146L41.0957 102.377C39.1034 101.237 39.1114 98.3916 41.1037 97.2597Z" fill="#4E4B4C"/>
<path opacity="0.8293" d="M41.1194 97.3869C41.9789 96.9007 43.0313 96.9007 43.8828 97.3869L136.299 150.164C138.154 151.224 138.146 153.87 136.29 154.923C135.431 155.409 134.387 155.409 133.527 154.923L41.1113 102.146C39.2636 101.094 39.2636 98.4391 41.1194 97.3869Z" fill="#494546"/>
<path opacity="0.8537" d="M41.136 97.5144C41.9313 97.0601 42.9034 97.068 43.6987 97.5144L136.114 150.291C137.834 151.272 137.826 153.727 136.106 154.699C135.311 155.146 134.339 155.146 133.552 154.699L41.136 101.922C39.4169 100.942 39.4169 98.4869 41.136 97.5144Z" fill="#434041"/>
<path opacity="0.878" d="M41.1597 97.6421C41.8907 97.2276 42.7905 97.2276 43.5135 97.6421L135.929 150.419C137.512 151.32 137.504 153.576 135.921 154.476C135.19 154.891 134.298 154.891 133.567 154.476L41.1517 101.699C39.5691 100.799 39.5771 98.5429 41.1597 97.6421Z" fill="#3E3A3B"/>
<path opacity="0.9024" d="M41.1753 97.7696C41.8421 97.387 42.6615 97.395 43.3283 97.7696L135.744 150.547C137.182 151.368 137.182 153.432 135.736 154.253C135.069 154.628 134.25 154.628 133.591 154.253L41.1753 101.476C39.7293 100.655 39.7293 98.5907 41.1753 97.7696Z" fill="#383536"/>
<path opacity="0.9268" d="M41.1921 97.8971C41.7946 97.5544 42.5337 97.5544 43.1362 97.8971L135.552 150.674C136.853 151.415 136.853 153.288 135.544 154.03C134.941 154.372 134.202 154.372 133.6 154.03L41.184 101.253C39.8826 100.504 39.8826 98.6384 41.1921 97.8971Z" fill="#332F30"/>
<path opacity="0.9512" d="M41.2077 98.0245C41.7459 97.7216 42.4127 97.7216 42.9509 98.0245L135.367 150.802C136.532 151.471 136.532 153.137 135.359 153.799C134.82 154.102 134.154 154.102 133.615 153.799L41.2077 101.03C40.0348 100.36 40.0429 98.6941 41.2077 98.0245Z" fill="#2E2A2B"/>
<path opacity="0.9756" d="M41.2234 98.1521C41.6973 97.8811 42.2838 97.8811 42.7577 98.1521L135.173 150.929C136.202 151.519 136.202 152.994 135.173 153.576C134.699 153.847 134.113 153.847 133.639 153.576L41.2234 100.799C40.1951 100.217 40.1951 98.742 41.2234 98.1521Z" fill="#282425"/>
<path opacity="0.5" d="M41.248 98.2795C41.6577 98.0483 42.1719 98.0483 42.5816 98.2795L134.997 151.057C135.889 151.567 135.889 152.842 134.997 153.352C134.588 153.584 134.082 153.584 133.664 153.352L41.248 100.575C40.3483 100.065 40.3483 98.7897 41.248 98.2795Z" fill="#231F20"/>
</g>
<path d="M38.4287 16.0574C38.6617 16.1929 43.795 13.0044 43.795 13.0044V98.1443L38.4287 101.197V16.0574Z" fill="#1D4D81"/>
<path d="M43.7949 13.0044V98.1443L139.336 152.795V79.8984L75.6392 43.4064V34.678C75.6392 32.5577 74.4984 30.5888 72.6427 29.5286L43.7949 13.0044Z" fill="#2A6EB9"/>
<path d="M38.4287 16.0572V101.197L85.448 128.092L133.969 155.847V82.9512L70.2729 46.4592V37.7308C70.2729 35.6105 69.1322 33.6416 67.2765 32.5814L38.4287 16.0572Z" fill="url(#paint3_linear_68)"/>
<path d="M133.97 82.9513L139.336 79.8983V152.794L133.97 155.847V82.9513Z" fill="url(#paint4_linear_68)"/>
<defs>
<linearGradient id="paint0_linear_68" x1="0.0378989" y1="152.34" x2="209.991" y2="152.34" gradientUnits="userSpaceOnUse">
<stop stop-color="#C0BFF6"/>
<stop offset="0.2938" stop-color="#C5C4F7"/>
<stop offset="0.6399" stop-color="#D3D2F9"/>
<stop offset="1" stop-color="#E9E9FD"/>
</linearGradient>
<linearGradient id="paint1_linear_68" x1="62.7387" y1="73.102" x2="162.041" y2="73.102" gradientUnits="userSpaceOnUse">
<stop offset="0.0556" stop-color="#746CF5"/>
<stop offset="0.505208" stop-color="#C9BFFF"/>
<stop offset="1" stop-color="#746CF5"/>
</linearGradient>
<linearGradient id="paint2_linear_68" x1="156.841" y1="-1736.76" x2="160.862" y2="-1736.76" gradientUnits="userSpaceOnUse">
<stop stop-color="#B5A7FF"/>
<stop offset="0.484375" stop-color="#7B61FF"/>
<stop offset="1" stop-color="#5793CE"/>
</linearGradient>
<linearGradient id="paint3_linear_68" x1="40.5444" y1="85.9478" x2="139.847" y2="85.9478" gradientUnits="userSpaceOnUse">
<stop offset="0.0556" stop-color="#746CF5"/>
<stop offset="0.505208" stop-color="#C9BFFF"/>
<stop offset="1" stop-color="#746CF5"/>
</linearGradient>
<linearGradient id="paint4_linear_68" x1="134.647" y1="-1723.92" x2="138.667" y2="-1723.92" gradientUnits="userSpaceOnUse">
<stop stop-color="#B5A7FF"/>
<stop offset="0.484375" stop-color="#7B61FF"/>
<stop offset="1" stop-color="#5793CE"/>
</linearGradient>
</defs>
</svg>
