<svg width="570" height="676" viewBox="0 0 570 676" fill="none" xmlns="http://www.w3.org/2000/svg">
    <g clip-path="url(#clip0_275_13477)">
        <path
            d="M54.533 410.697C54.3108 410.697 54.0683 410.637 53.8663 410.515L34.3483 398.966C33.0754 398.217 32.3279 396.882 32.3481 395.405C32.3683 393.929 33.1562 392.614 34.4494 391.886L176.773 312.433C181.42 309.844 184.309 304.928 184.309 299.608V223.553C184.309 222.279 184.976 221.126 186.087 220.479C187.198 219.832 188.512 219.832 189.623 220.479L203.079 228.246C203.706 228.61 203.928 229.419 203.564 230.046C203.201 230.673 202.413 230.896 201.766 230.532L188.31 222.765C187.905 222.522 187.542 222.684 187.4 222.765C187.259 222.845 186.936 223.088 186.936 223.553V299.608C186.936 305.879 183.541 311.684 178.066 314.739L35.7425 394.192C35.0757 394.556 34.9949 395.183 34.9949 395.446C34.9949 395.709 35.0555 396.336 35.7021 396.72L55.22 408.27C55.8463 408.634 56.0484 409.443 55.6847 410.07C55.422 410.475 54.9977 410.697 54.533 410.697Z"
            fill="url(#paint0_linear_275_13477)" />
        <path fill-rule="evenodd" clip-rule="evenodd"
            d="M46.5726 400.26C44.4511 401.494 42.7539 404.467 42.7539 406.915C42.764 408.142 43.201 408.998 43.8991 409.394L43.8954 409.4L64.175 421.041L69.5618 411.635L49.4735 400.104C48.7698 399.576 47.7315 399.586 46.5726 400.26Z"
            fill="#5793CE" />
        <path fill-rule="evenodd" clip-rule="evenodd"
            d="M46.5726 400.26C44.4511 401.494 42.7539 404.467 42.7539 406.915C42.764 408.142 43.201 408.998 43.8991 409.394L43.8954 409.4L64.175 421.041L69.5618 411.635L49.4735 400.104C48.7698 399.576 47.7315 399.586 46.5726 400.26Z"
            fill="url(#paint1_linear_275_13477)" />
        <path opacity="0.5"
            d="M66.2321 409.706L59.3625 405.762C56.5136 407.805 54.2911 411.688 53.9678 415.167L60.8374 419.112C63.6661 417.069 65.9089 413.185 66.2321 409.706Z"
            fill="black" />
        <path fill-rule="evenodd" clip-rule="evenodd"
            d="M63.3019 407.117C59.8671 409.12 57.099 413.934 57.1193 417.898C57.1293 419.878 57.8295 421.267 58.9532 421.913L58.9394 421.937L90.7522 440.198L99.4856 424.95L67.972 406.861C66.83 406.02 65.1585 406.039 63.3019 407.117Z"
            fill="#5793CE" />
        <path fill-rule="evenodd" clip-rule="evenodd"
            d="M63.3019 407.117C59.8671 409.12 57.099 413.934 57.1193 417.898C57.1293 419.878 57.8295 421.267 58.9532 421.913L58.9394 421.937L90.7522 440.198L99.4856 424.95L67.972 406.861C66.83 406.02 65.1585 406.039 63.3019 407.117Z"
            fill="url(#paint2_linear_275_13477)" />
        <path
            d="M49.1585 404.407C48.1685 403.84 48.1685 402.91 49.1585 402.323C50.1486 401.737 51.765 401.737 52.755 402.303C53.7451 402.869 53.7451 403.8 52.755 404.386C51.765 404.973 50.1486 404.973 49.1585 404.407Z"
            fill="#D4ECFF" />
        <path d="M218.164 244.637L223.551 235.232L203.271 223.591L197.884 232.996L218.164 244.637Z" fill="#5793CE" />
        <path
            d="M196.755 230.512C196.755 228.064 198.452 225.091 200.574 223.857C202.695 222.623 204.413 223.614 204.413 226.062C204.413 228.509 202.715 231.483 200.594 232.716C198.472 233.95 196.755 232.959 196.755 230.512Z"
            fill="#5793CE" />
        <path d="M244.768 263.79L253.501 248.542L221.688 230.281L212.955 245.529L244.768 263.79Z" fill="#5793CE" />
        <path
            d="M220.213 233.323L213.343 229.379C210.494 231.422 208.272 235.306 207.948 238.785L214.818 242.729C217.667 240.686 219.889 236.802 220.213 233.323Z"
            fill="#396CAA" />
        <path
            d="M211.12 241.495C211.1 237.531 213.868 232.716 217.303 230.714C220.718 228.732 223.506 230.33 223.526 234.274C223.546 238.218 220.778 243.053 217.343 245.055C213.909 247.058 211.12 245.46 211.12 241.495Z"
            fill="#5793CE" />
        <path
            d="M203.16 228.003C202.169 227.437 202.169 226.506 203.16 225.92C204.15 225.354 205.766 225.333 206.756 225.9C207.746 226.466 207.746 227.396 206.756 227.983C205.746 228.57 204.15 228.57 203.16 228.003Z"
            fill="#D4ECFF" />
        <path
            d="M281.656 276.63C281.212 276.63 280.767 276.387 280.525 275.983C280.161 275.356 280.383 274.546 281.01 274.182L330.067 245.824C334.189 243.437 336.755 238.987 336.755 234.213V160.161C336.755 158.704 337.503 157.389 338.775 156.661C340.048 155.933 341.544 155.933 342.816 156.661L422.1 202.658V140.843C422.1 140.115 422.686 139.529 423.414 139.529C424.141 139.529 424.727 140.115 424.727 140.843V204.944C424.727 205.409 424.485 205.854 424.06 206.077C423.656 206.319 423.151 206.319 422.747 206.077L341.463 158.947C340.836 158.583 340.271 158.826 340.069 158.947C339.867 159.068 339.361 159.432 339.361 160.161V234.233C339.361 239.937 336.29 245.257 331.36 248.109L282.303 276.468C282.101 276.569 281.858 276.63 281.656 276.63Z"
            fill="#5793CE" />
        <path
            d="M379.771 331.831C379.326 331.831 378.881 331.588 378.639 331.183C378.275 330.556 378.498 329.747 379.124 329.383L440.143 294.127C444.265 291.74 446.831 287.29 446.831 282.516V154.942C446.831 154.214 447.416 153.627 448.144 153.627C448.871 153.627 449.457 154.214 449.457 154.942V282.516C449.457 288.22 446.386 293.54 441.456 296.392L380.437 331.649C380.215 331.79 379.993 331.831 379.771 331.831Z"
            fill="#5793CE" />
        <path
            d="M489.161 393.16C488.676 393.16 488.191 392.897 487.928 392.452C487.544 391.785 487.767 390.915 488.454 390.531L543.775 358.551C547.896 356.184 550.442 351.755 550.422 347.001L550.24 287.452C550.22 282.719 547.674 278.329 543.593 275.963L472.189 234.8C471.744 234.557 471.481 234.072 471.481 233.566V169.061C471.481 168.272 472.108 167.645 472.896 167.645C473.684 167.645 474.31 168.272 474.31 169.061V232.757L545.007 273.515C549.977 276.367 553.069 281.707 553.069 287.452L553.251 347.001C553.271 352.766 550.179 358.126 545.189 361.019L489.868 392.998C489.646 393.099 489.403 393.16 489.161 393.16Z"
            fill="#5793CE" />
        <path d="M478.311 165.136H467.481V188.54H478.311V165.136Z" fill="#5793CE" />
        <path
            d="M476.715 190.744C474.593 191.958 471.178 191.958 469.057 190.744C466.935 189.531 466.935 187.548 469.057 186.315C471.178 185.101 474.593 185.101 476.715 186.315C478.836 187.548 478.836 189.531 476.715 190.744Z"
            fill="#5793CE" />
        <path d="M481.664 132.51H464.106V169.223H481.664V132.51Z" fill="#5793CE" />
        <path
            d="M467.48 168.98V176.909C470.653 178.365 475.138 178.365 478.31 176.909V168.98C475.118 167.523 470.653 167.523 467.48 168.98Z"
            fill="#396CAA" />
        <path
            d="M479.098 172.803C475.663 174.785 470.107 174.785 466.692 172.803C463.258 170.82 463.258 167.604 466.692 165.622C470.127 163.64 475.684 163.64 479.098 165.622C482.513 167.624 482.513 170.82 479.098 172.803Z"
            fill="#5793CE" />
        <path d="M453.54 151.018H442.71V174.421H453.54V151.018Z" fill="#5793CE" />
        <path
            d="M451.964 176.646C449.842 177.86 446.427 177.86 444.306 176.646C442.184 175.432 442.184 173.45 444.306 172.216C446.427 170.982 449.842 171.003 451.964 172.216C454.085 173.43 454.085 175.412 451.964 176.646Z"
            fill="#5793CE" />
        <path d="M456.914 118.411H439.355V155.124H456.914V118.411Z" fill="#5793CE" />
        <path
            d="M442.71 154.881V162.81C445.882 164.267 450.368 164.267 453.54 162.81V154.881C450.368 153.425 445.902 153.425 442.71 154.881Z"
            fill="#396CAA" />
        <path
            d="M454.328 158.704C450.893 160.686 445.336 160.686 441.922 158.704C438.487 156.722 438.487 153.506 441.922 151.523C445.357 149.541 450.913 149.541 454.328 151.523C457.762 153.506 457.762 156.722 454.328 158.704Z"
            fill="#5793CE" />
        <path d="M428.789 136.919H417.959V160.323H428.789V136.919Z" fill="#5793CE" />
        <path
            d="M427.192 162.527C425.071 163.741 421.656 163.741 419.534 162.527C417.413 161.314 417.413 159.331 419.534 158.098C421.656 156.864 425.071 156.884 427.192 158.098C429.314 159.331 429.314 161.314 427.192 162.527Z"
            fill="#5793CE" />
        <path d="M432.142 104.313H414.584V141.026H432.142V104.313Z" fill="#5793CE" />
        <path
            d="M417.958 140.762V148.692C421.13 150.148 425.616 150.148 428.788 148.692V140.762C425.616 139.306 421.13 139.306 417.958 140.762Z"
            fill="#396CAA" />
        <path
            d="M423.373 146.082C428.216 146.082 432.142 143.809 432.142 141.005C432.142 138.201 428.216 135.928 423.373 135.928C418.53 135.928 414.604 138.201 414.604 141.005C414.604 143.809 418.53 146.082 423.373 146.082Z"
            fill="#5793CE" />
        <path d="M539.673 197.601L563.211 183.725L540.784 155.71L534.904 165.359L539.673 197.601Z"
            fill="url(#paint3_linear_275_13477)" />
        <path
            d="M368.78 43.8933L406.341 22.25C406.341 22.25 404.927 43.8326 404.927 43.8933C404.927 43.954 383.348 50.5684 383.348 50.5684L368.78 43.8933Z"
            fill="url(#paint4_linear_275_13477)" />
        <path
            d="M546.219 127.169C543.35 125.511 540.622 124.56 538.097 124.156C534.318 104.232 520.458 83.0737 503.95 73.5264C498.98 70.6541 494.252 69.1168 489.969 68.7932C487.706 44.6417 470.936 17.1931 450.569 5.42072C439.921 -0.728408 430.283 -1.4566 423.151 2.3057V2.28548L422.808 2.48775C422.626 2.58889 422.444 2.69002 422.262 2.79116L400.117 15.8783L407.472 21.7038C400.865 24.5963 396.683 32.0198 396.683 42.983C396.683 63.2104 410.866 87.7867 428.364 97.9004L546.219 182.148C559.352 189.733 570 183.584 570 168.393C570 153.222 559.352 134.755 546.219 127.169Z"
            fill="url(#paint5_linear_275_13477)" />
        <path
            d="M397.774 34.0831L448.61 4.34883C438.75 -0.809163 429.819 -1.23394 423.132 2.30586V2.28563L422.788 2.4879C422.606 2.58904 422.424 2.69018 422.243 2.79131L400.098 15.8784L407.453 21.7039C402.846 23.7267 399.411 27.9744 397.774 34.0831Z"
            fill="url(#paint6_linear_275_13477)" />
        <path
            d="M491.666 121.567L528.762 99.7817C522.398 88.7577 513.649 79.1497 503.951 73.5265C502.657 72.7781 501.405 72.1308 500.152 71.5645L452.974 99.1951L491.666 121.567Z"
            fill="url(#paint7_linear_275_13477)" />
        <path opacity="0.5"
            d="M410.563 18.3261L427.091 27.8734L457.358 10.0328C455.156 8.3135 452.873 6.75599 450.549 5.42098C446.892 3.2971 443.336 1.84073 439.962 0.970947L410.563 18.3261Z"
            fill="#C3A9D9" />
        <path opacity="0.5"
            d="M524.661 93.3494L495.061 110.806L505.365 122.295L532.237 106.416C530.096 101.885 527.55 97.4758 524.661 93.3494Z"
            fill="#C3A9D9" />
        <path
            d="M522.963 140.884C520.094 139.225 517.367 138.274 514.841 137.87C511.063 117.946 497.202 96.7881 480.695 87.2407C475.724 84.3684 470.996 82.8312 466.713 82.5075C464.45 58.356 447.68 30.9074 427.313 19.135C405.411 6.47269 387.651 16.728 387.651 42.0527C387.651 42.9022 387.671 43.772 387.712 44.6418C371.689 37.1981 359.183 45.5925 359.183 64.586C359.183 84.8134 373.366 109.39 390.864 119.503L522.984 195.862C536.117 203.447 546.765 197.298 546.765 182.107C546.745 166.937 536.097 148.469 522.963 140.884Z"
            fill="url(#paint8_linear_275_13477)" />
        <path
            d="M387.691 44.6418C387.651 43.772 387.631 42.9023 387.631 42.0527C387.631 42.0122 387.631 41.9718 387.631 41.9516C378.781 38.5129 371.184 40.0097 366.396 45.5318C371.588 41.2638 379.125 40.6772 387.691 44.6418Z"
            fill="white" />
        <path
            d="M524.883 139.003C522.014 137.344 519.286 136.393 516.76 135.989C512.982 116.065 499.121 94.907 482.614 85.3597C477.644 82.4874 472.916 80.9501 468.632 80.6265C466.369 56.4749 449.599 29.0263 429.233 17.254C415.594 9.36531 403.552 10.3767 396.42 18.3867C403.694 12.1567 414.827 11.9342 427.313 19.1351C447.68 30.9075 464.45 58.3561 466.713 82.5076C470.996 82.8313 475.724 84.3685 480.695 87.2408C497.202 96.7882 511.062 117.946 514.841 137.87C517.387 138.275 520.114 139.225 522.963 140.884C536.096 148.469 546.744 166.937 546.744 182.128C546.744 187.609 545.35 191.897 542.946 194.79C546.502 192.039 548.664 187.063 548.664 180.226C548.664 165.056 538.016 146.588 524.883 139.003Z"
            fill="white" />
        <path
            d="M384.904 50.6898L394.845 55.3016L394.339 44.3586C394.299 43.5899 394.279 42.8213 394.279 42.0729C394.279 32.3031 397.229 25.2235 402.583 22.1287C407.937 19.0339 415.534 20.025 424 24.9201C442.185 35.4383 458.045 61.0057 460.106 83.1548L460.632 88.7375L466.208 89.1623C469.643 89.4253 473.401 90.7198 477.382 93.0257C491.828 101.38 504.84 120.778 508.335 139.144L509.204 143.736L513.831 144.464C515.67 144.747 517.63 145.496 519.67 146.669C530.763 153.081 540.138 169.324 540.138 182.148C540.138 186.942 538.804 190.461 536.501 191.816C534.177 193.151 530.48 192.545 526.318 190.158L394.198 113.799C378.822 104.919 365.851 82.4063 365.851 64.6264C365.851 57.648 367.911 52.3484 371.488 50.0627C372.963 49.112 374.741 48.6468 376.761 48.6468C379.145 48.6063 381.934 49.2941 384.904 50.6898Z"
            fill="url(#paint9_linear_275_13477)" />
        <g class="arrow" animation-delay="0s">
            <path d="M450.853 133.582L454.328 131.822L450.893 129.213L450.853 133.582Z" fill="#5793CE" />
            <path d="M440.387 86.4517L443.761 84.7324L443.822 86.5124L440.387 86.4517Z" fill="#5793CE" />
            <path d="M460.793 122.558L464.308 120.778L457.52 114.305L460.793 122.558Z" fill="#5793CE" />
            <path
                d="M453.318 131.721L436.81 121.992C435.982 121.506 435.295 120.252 435.295 119.22L435.356 100.105L454.894 111.615L454.833 130.73C454.833 131.761 454.146 132.206 453.318 131.721Z"
                fill="url(#paint10_linear_275_13477)" />
            <path
                d="M443.72 84.7527L425.899 96.2419C425.152 96.7274 425.758 98.5478 426.91 99.2153L445.114 109.956L463.319 120.697C464.471 121.364 465.097 120.292 464.329 118.917L446.63 86.4923C445.862 85.0561 444.488 84.2471 443.72 84.7527Z"
                fill="url(#paint11_linear_275_13477)" />
            <path
                d="M449.782 133.501L433.274 123.772C432.446 123.286 431.759 122.032 431.759 121L431.819 101.885L451.358 113.395L451.297 132.51C451.297 133.541 450.61 133.986 449.782 133.501Z"
                fill="#D4ECFF" />
            <path
                d="M440.184 86.5328L422.363 98.022C421.616 98.5074 422.222 100.328 423.374 100.995L441.578 111.736L459.783 122.477C460.935 123.144 461.561 122.072 460.793 120.697L443.094 88.2724C442.326 86.8564 440.952 86.0473 440.184 86.5328Z"
                fill="#D4ECFF" />
        </g>
        <path
            d="M421.838 158.239C421.838 159.392 421.03 159.857 420.039 159.271C419.049 158.704 418.241 157.309 418.241 156.156C418.241 155.003 419.049 154.537 420.039 155.124C421.03 155.69 421.838 157.086 421.838 158.239Z"
            fill="#D4ECFF" />




        <path opacity="0.5" class="shadowbox"
            d="M275.877 414.46L325.42 385.818C328.451 384.058 328.087 380.983 324.571 378.961L276.746 351.31C273.231 349.287 267.917 349.065 264.886 350.824L215.344 379.466C212.313 381.226 212.677 384.301 216.192 386.323L264.017 413.974C267.533 415.997 272.847 416.22 275.877 414.46Z"
            fill="url(#paint12_linear_275_13477)" />
        <g class="box">
            <path
                d="M198.897 357.661V336.24L246.883 336.22L263.471 326.632C267.27 324.427 273.938 324.711 278.322 327.239L293.799 336.18L341.826 336.159V358.187C341.927 359.684 341.099 361.12 339.28 362.172L277.251 398.035C273.453 400.24 266.785 399.957 262.401 397.428L202.513 362.799C199.988 361.322 198.755 359.441 198.897 357.661Z"
                fill="url(#paint13_linear_275_13477)" />
            <path
                d="M270.382 325.156C273.17 325.216 276.059 325.924 278.343 327.239L293.819 336.18L341.847 336.159V358.187C341.948 359.684 341.119 361.12 339.301 362.172L277.272 398.035C275.433 399.087 272.948 399.572 270.382 399.512V325.156Z"
                fill="url(#paint14_linear_275_13477)" />
            <path
                d="M336.411 336.159H341.846V358.187C341.947 359.684 341.119 361.12 339.3 362.172L336.411 363.83V336.159Z"
                fill="#5793CE" />
            <path d="M276.322 398.5C273.028 399.916 268.28 399.835 264.441 398.359V373.337H276.322V398.5Z"
                fill="#5793CE" />
            <path
                d="M277.272 376.068L339.301 340.205C343.099 338 342.635 334.157 338.23 331.628L278.343 296.999C273.938 294.45 267.291 294.187 263.492 296.392L201.463 332.255C197.665 334.46 198.129 338.303 202.534 340.832L262.421 375.461C266.806 377.99 273.473 378.273 277.272 376.068Z"
                fill="#D4ECFF" />
            <path
                d="M276.16 369.616L328.147 339.578C331.34 337.737 330.935 334.521 327.258 332.377L277.069 303.371C273.392 301.247 267.815 301.004 264.623 302.845L212.636 332.883C209.443 334.723 209.848 337.939 213.525 340.084L263.714 369.09C267.391 371.234 272.968 371.456 276.16 369.616Z"
                fill="#5793CE" />
            <path
                d="M221.728 363.325C221.728 364.923 222.859 366.865 224.233 367.674C225.607 368.483 226.738 367.815 226.738 366.217C226.738 364.619 225.607 362.677 224.233 361.868C222.859 361.059 221.728 361.727 221.728 363.325Z"
                fill="#D4ECFF" />
            <path
                d="M213.666 358.652C213.666 360.25 214.797 362.192 216.171 363.001C217.545 363.81 218.677 363.143 218.677 361.545C218.677 359.947 217.545 358.005 216.171 357.196C214.777 356.407 213.666 357.054 213.666 358.652Z"
                fill="#D4ECFF" />
            <path
                d="M205.604 354C205.604 355.598 206.736 357.54 208.11 358.349C209.484 359.158 210.615 358.49 210.615 356.893C210.615 355.295 209.484 353.353 208.11 352.544C206.716 351.755 205.604 352.402 205.604 354Z"
                fill="#D4ECFF" />
            <path
                d="M198.897 323.416V301.995L246.883 301.975L263.471 292.387C267.27 290.183 273.938 290.466 278.322 292.994L293.799 301.935L341.826 301.914V323.942C341.927 325.439 341.099 326.875 339.28 327.927L277.251 363.79C273.453 365.995 266.785 365.712 262.401 363.183L202.513 328.554C199.988 327.077 198.755 325.196 198.897 323.416Z"
                fill="url(#paint15_linear_275_13477)" />
            <path
                d="M270.382 290.911C273.17 290.971 276.059 291.679 278.343 292.994L293.819 301.935L341.847 301.914V323.942C341.948 325.439 341.119 326.875 339.301 327.927L277.272 363.79C275.433 364.842 272.948 365.327 270.382 365.267V290.911Z"
                fill="url(#paint16_linear_275_13477)" />
            <path
                d="M336.411 301.914H341.846V323.942C341.947 325.439 341.119 326.875 339.3 327.927L336.411 329.585V301.914Z"
                fill="#5793CE" />
            <path d="M276.322 364.255C273.028 365.671 268.28 365.59 264.441 364.114V339.092H276.322V364.255Z"
                fill="#5793CE" />
            <path
                d="M277.272 341.823L339.301 305.96C343.099 303.755 342.635 299.912 338.23 297.384L278.343 262.754C273.938 260.206 267.291 259.943 263.492 262.147L201.463 298.011C197.665 300.215 198.129 304.059 202.534 306.587L262.421 341.216C266.806 343.765 273.473 344.028 277.272 341.823Z"
                fill="#D4ECFF" />
            <path
                d="M276.16 335.371L328.147 305.333C331.34 303.492 330.935 300.276 327.258 298.132L277.069 269.126C273.392 267.002 267.815 266.759 264.623 268.6L212.636 298.638C209.443 300.478 209.848 303.695 213.525 305.839L263.714 334.845C267.391 336.989 272.968 337.232 276.16 335.371Z"
                fill="#5793CE" />
            <path
                d="M221.728 329.08C221.728 330.678 222.859 332.62 224.233 333.429C225.607 334.238 226.738 333.57 226.738 331.972C226.738 330.374 225.607 328.433 224.233 327.623C222.859 326.814 221.728 327.482 221.728 329.08Z"
                fill="#D4ECFF" />
            <path
                d="M213.666 324.407C213.666 326.005 214.797 327.947 216.171 328.756C217.545 329.565 218.677 328.898 218.677 327.3C218.677 325.702 217.545 323.76 216.171 322.951C214.777 322.162 213.666 322.809 213.666 324.407Z"
                fill="#5793CE" />
            <path
                d="M205.604 319.755C205.604 321.353 206.736 323.295 208.11 324.104C209.484 324.913 210.615 324.246 210.615 322.648C210.615 321.05 209.484 319.108 208.11 318.299C206.716 317.51 205.604 318.157 205.604 319.755Z"
                fill="#5793CE" />
            <path
                d="M198.897 289.171V267.75L246.883 267.73L263.471 258.142C267.27 255.937 273.938 256.221 278.322 258.749L293.799 267.69L341.826 267.669V289.697C341.927 291.194 341.099 292.63 339.28 293.682L277.251 329.545C273.453 331.75 266.785 331.467 262.401 328.938L202.513 294.309C199.988 292.852 198.755 290.951 198.897 289.171Z"
                fill="url(#paint17_linear_275_13477)" />
            <path
                d="M270.382 256.666C273.17 256.726 276.059 257.434 278.343 258.749L293.819 267.689L341.847 267.669V289.697C341.948 291.194 341.119 292.63 339.301 293.682L277.272 329.545C275.433 330.597 272.948 331.082 270.382 331.021V256.666Z"
                fill="url(#paint18_linear_275_13477)" />
            <path
                d="M336.411 267.669H341.846V289.697C341.947 291.194 341.119 292.63 339.3 293.682L336.411 295.341V267.669Z"
                fill="#5793CE" />
            <path d="M276.322 330.01C273.028 331.426 268.28 331.345 264.441 329.869V304.847H276.322V330.01Z"
                fill="#5793CE" />
            <path
                d="M277.272 307.598L339.301 271.735C343.099 269.53 342.635 265.687 338.23 263.159L278.343 228.529C273.938 225.981 267.291 225.718 263.492 227.922L201.463 263.786C197.665 265.99 198.129 269.834 202.534 272.362L262.421 306.991C266.806 309.52 273.473 309.783 277.272 307.598Z"
                fill="url(#paint19_linear_275_13477)" />
            <path
                d="M202.513 268.135L262.4 302.764C266.805 305.313 273.452 305.576 277.251 303.371L339.28 267.508C340.129 267.022 340.755 266.436 341.179 265.829C342.493 267.932 341.886 270.218 339.28 271.735L277.251 307.598C273.452 309.803 266.785 309.52 262.4 306.991L202.513 272.362C199.099 270.38 198.068 267.629 199.543 265.465C200.149 266.415 201.139 267.346 202.513 268.135Z"
                fill="white" />
            <path
                d="M221.728 294.835C221.728 296.433 222.859 298.375 224.233 299.184C225.607 299.993 226.738 299.325 226.738 297.727C226.738 296.129 225.607 294.187 224.233 293.378C222.859 292.569 221.728 293.237 221.728 294.835Z"
                fill="#5793CE" />
            <path
                d="M213.666 290.182C213.666 291.78 214.797 293.722 216.171 294.531C217.545 295.34 218.677 294.673 218.677 293.075C218.677 291.477 217.545 289.535 216.171 288.726C214.777 287.917 213.666 288.584 213.666 290.182Z"
                fill="#D4ECFF" />
            <path
                d="M205.604 285.51C205.604 287.108 206.736 289.05 208.11 289.859C209.484 290.668 210.615 290 210.615 288.402C210.615 286.805 209.484 284.863 208.11 284.054C206.716 283.265 205.604 283.912 205.604 285.51Z"
                fill="#D4ECFF" />
            <path
                d="M273.594 285.368L302.628 268.6C304.406 267.568 304.184 265.768 302.123 264.574L274.099 248.372C272.038 247.179 268.926 247.057 267.148 248.089L238.114 264.858C236.336 265.889 236.558 267.689 238.619 268.883L266.643 285.085C268.704 286.258 271.816 286.4 273.594 285.368Z"
                fill="url(#paint20_linear_275_13477)" />
            <path
                d="M270.826 271.31L274.846 268.984C275.089 268.843 275.069 268.6 274.786 268.438L270.907 266.193C270.624 266.031 270.199 266.011 269.937 266.152L265.916 268.478C265.673 268.62 265.694 268.863 265.977 269.025L269.856 271.27C270.139 271.432 270.583 271.452 270.826 271.31Z"
                fill="#D4ECFF" />
            <path
                d="M302.628 268.579L302.547 268.62C302.406 268.519 302.284 268.418 302.123 268.337L274.098 252.135C272.038 250.941 268.926 250.82 267.148 251.851L238.194 268.579C236.558 267.406 236.457 265.808 238.114 264.858L267.148 248.089C268.926 247.057 272.038 247.179 274.098 248.372L302.123 264.574C304.184 265.748 304.406 267.548 302.628 268.579Z"
                fill="#396CAA" />
        </g>


        <path opacity="0.5" class="shadowbox"
            d="M385.267 476.072L434.809 447.43C437.84 445.671 437.476 442.596 433.961 440.573L386.136 412.922C382.62 410.9 377.306 410.677 374.276 412.437L324.733 441.079C321.703 442.839 322.066 445.913 325.582 447.936L373.407 475.587C376.922 477.61 382.236 477.832 385.267 476.072Z"
            fill="url(#paint21_linear_275_13477)" />
        <g class="box">
            <path
                d="M308.286 419.274V397.853L356.273 397.833L372.861 388.245C376.66 386.04 383.327 386.323 387.712 388.852L403.189 397.792L451.216 397.772V419.799C451.317 421.296 450.488 422.732 448.67 423.784L386.641 459.647C382.842 461.852 376.175 461.569 371.79 459.041L311.903 424.411C309.377 422.935 308.145 421.054 308.286 419.274Z"
                fill="url(#paint22_linear_275_13477)" />
            <path
                d="M379.771 386.768C382.56 386.829 385.449 387.537 387.732 388.851L403.209 397.792L451.236 397.772V419.799C451.337 421.296 450.509 422.732 448.69 423.784L386.661 459.647C384.823 460.699 382.338 461.185 379.771 461.124V386.768Z"
                fill="url(#paint23_linear_275_13477)" />
            <path
                d="M445.801 397.772H451.236V419.799C451.337 421.296 450.509 422.732 448.69 423.784L445.801 425.443V397.772Z"
                fill="#5793CE" />
            <path d="M385.712 460.113C382.418 461.529 377.67 461.448 373.831 459.971V434.95H385.712V460.113Z"
                fill="#5793CE" />
            <path
                d="M386.662 437.681L448.691 401.817C452.489 399.613 452.024 395.769 447.62 393.241L387.732 358.632C383.328 356.083 376.68 355.82 372.882 358.025L310.853 393.888C307.054 396.093 307.519 399.936 311.924 402.465L371.811 437.094C376.216 439.602 382.863 439.885 386.662 437.681Z"
                fill="#D4ECFF" />
            <path
                d="M385.55 431.228L437.537 401.19C440.729 399.35 440.325 396.134 436.648 393.989L386.459 364.983C382.782 362.859 377.205 362.617 374.013 364.457L322.025 394.495C318.833 396.336 319.237 399.552 322.915 401.696L373.103 430.702C376.781 432.846 382.357 433.069 385.55 431.228Z"
                fill="#5793CE" />
            <path
                d="M331.117 424.937C331.117 426.535 332.249 428.477 333.623 429.286C334.996 430.095 336.128 429.428 336.128 427.83C336.128 426.232 334.996 424.29 333.623 423.481C332.228 422.692 331.117 423.339 331.117 424.937Z"
                fill="#D4ECFF" />
            <path
                d="M323.056 420.265C323.056 421.863 324.187 423.805 325.561 424.614C326.935 425.423 328.066 424.755 328.066 423.157C328.066 421.559 326.935 419.618 325.561 418.809C324.187 417.999 323.056 418.667 323.056 420.265Z"
                fill="#5793CE" />
            <path
                d="M314.994 415.613C314.994 417.21 316.126 419.152 317.5 419.961C318.873 420.771 320.005 420.103 320.005 418.505C320.005 416.907 318.873 414.965 317.5 414.156C316.105 413.367 314.994 414.015 314.994 415.613Z"
                fill="#D4ECFF" />
            <path
                d="M308.286 385.029V363.608L356.273 363.588L372.861 354C376.66 351.795 383.327 352.078 387.712 354.607L403.189 363.547L451.216 363.527V385.555C451.317 387.051 450.488 388.488 448.67 389.539L386.641 425.403C382.842 427.607 376.175 427.324 371.79 424.796L311.903 390.167C309.377 388.69 308.145 386.809 308.286 385.029Z"
                fill="url(#paint24_linear_275_13477)" />
            <path
                d="M379.771 352.523C382.56 352.584 385.449 353.292 387.732 354.607L403.209 363.547L451.236 363.527V385.555C451.337 387.051 450.509 388.488 448.69 389.539L386.661 425.403C384.823 426.454 382.338 426.94 379.771 426.879V352.523Z"
                fill="url(#paint25_linear_275_13477)" />
            <path
                d="M445.801 363.527H451.236V385.554C451.337 387.051 450.509 388.487 448.69 389.539L445.801 391.198V363.527Z"
                fill="#5793CE" />
            <path d="M385.712 425.868C382.418 427.284 377.67 427.203 373.831 425.726V400.705H385.712V425.868Z"
                fill="#5793CE" />
            <path
                d="M386.662 403.436L448.691 367.572C452.489 365.368 452.024 361.524 447.62 358.996L387.732 324.367C383.328 321.818 376.68 321.555 372.882 323.76L310.853 359.623C307.054 361.828 307.519 365.671 311.924 368.2L371.811 402.829C376.216 405.377 382.863 405.64 386.662 403.436Z"
                fill="#D4ECFF" />
            <path
                d="M385.55 396.983L437.537 366.946C440.729 365.105 440.325 361.889 436.648 359.745L386.459 330.738C382.782 328.615 377.205 328.372 374.013 330.213L322.025 360.25C318.833 362.091 319.237 365.307 322.915 367.451L373.103 396.457C376.781 398.601 382.357 398.844 385.55 396.983Z"
                fill="#5793CE" />
            <path
                d="M331.117 390.693C331.117 392.291 332.249 394.232 333.623 395.042C334.996 395.851 336.128 395.183 336.128 393.585C336.128 391.987 334.996 390.045 333.623 389.236C332.228 388.447 331.117 389.095 331.117 390.693Z"
                fill="#D4ECFF" />
            <path
                d="M323.056 386.02C323.056 387.618 324.187 389.56 325.561 390.369C326.935 391.178 328.066 390.511 328.066 388.913C328.066 387.315 326.935 385.373 325.561 384.564C324.167 383.775 323.056 384.422 323.056 386.02Z"
                fill="#D4ECFF" />
            <path
                d="M314.994 381.368C314.994 382.966 316.126 384.907 317.5 385.717C318.873 386.526 320.005 385.858 320.005 384.26C320.005 382.662 318.873 380.72 317.5 379.911C316.105 379.122 314.994 379.77 314.994 381.368Z"
                fill="#5793CE" />
            <path
                d="M308.286 350.784V329.363L356.273 329.343L372.861 319.755C376.66 317.55 383.327 317.833 387.712 320.362L403.189 329.302L451.216 329.282V351.31C451.317 352.806 450.488 354.242 448.67 355.294L386.641 391.158C382.842 393.362 376.175 393.079 371.79 390.551L311.903 355.921C309.377 354.465 308.145 352.564 308.286 350.784Z"
                fill="url(#paint26_linear_275_13477)" />
            <path
                d="M379.771 318.278C382.56 318.339 385.449 319.047 387.732 320.362L403.209 329.302L451.236 329.282V351.31C451.337 352.806 450.509 354.243 448.69 355.294L386.661 391.158C384.823 392.209 382.338 392.695 379.771 392.634V318.278Z"
                fill="url(#paint27_linear_275_13477)" />
            <path
                d="M445.801 329.282H451.236V351.31C451.337 352.806 450.509 354.243 448.69 355.294L445.801 356.953V329.282Z"
                fill="#5793CE" />
            <path d="M385.712 391.623C382.418 393.039 377.67 392.958 373.831 391.481V366.46H385.712V391.623Z"
                fill="#5793CE" />
            <path
                d="M386.662 369.211L448.691 333.348C452.489 331.143 452.024 327.3 447.62 324.771L387.732 290.142C383.328 287.593 376.68 287.33 372.882 289.535L310.853 325.398C307.054 327.603 307.519 331.446 311.924 333.975L371.811 368.604C376.216 371.132 382.863 371.395 386.662 369.211Z"
                fill="url(#paint28_linear_275_13477)" />
            <path
                d="M311.903 329.747L371.79 364.377C376.195 366.925 382.842 367.188 386.641 364.983L448.67 329.12C449.518 328.635 450.145 328.048 450.569 327.441C451.882 329.545 451.276 331.831 448.67 333.348L386.641 369.211C382.842 371.416 376.175 371.132 371.79 368.604L311.903 333.975C308.488 331.992 307.458 329.241 308.933 327.077C309.539 328.028 310.529 328.958 311.903 329.747Z"
                fill="white" />
            <path
                d="M331.117 356.447C331.117 358.045 332.249 359.987 333.623 360.796C334.996 361.605 336.128 360.938 336.128 359.34C336.128 357.742 334.996 355.8 333.623 354.991C332.228 354.202 331.117 354.849 331.117 356.447Z"
                fill="#5793CE" />
            <path
                d="M323.056 351.795C323.056 353.393 324.187 355.335 325.561 356.144C326.935 356.953 328.066 356.285 328.066 354.688C328.066 353.09 326.935 351.148 325.561 350.339C324.187 349.529 323.056 350.197 323.056 351.795Z"
                fill="#5793CE" />
            <path
                d="M314.994 347.123C314.994 348.72 316.126 350.662 317.5 351.471C318.873 352.28 320.005 351.613 320.005 350.015C320.005 348.417 318.873 346.475 317.5 345.666C316.105 344.877 314.994 345.525 314.994 347.123Z"
                fill="#D4ECFF" />
            <path
                d="M383.004 346.981L412.038 330.212C413.816 329.181 413.594 327.381 411.533 326.187L383.509 309.985C381.448 308.792 378.337 308.67 376.559 309.702L347.524 326.47C345.746 327.502 345.968 329.302 348.029 330.496L376.053 346.698C378.094 347.871 381.206 348.013 383.004 346.981Z"
                fill="url(#paint29_linear_275_13477)" />
            <path
                d="M380.215 332.923L384.236 330.597C384.479 330.455 384.458 330.213 384.176 330.051L380.296 327.806C380.013 327.644 379.589 327.624 379.326 327.765L375.306 330.091C375.063 330.233 375.083 330.476 375.366 330.637L379.246 332.883C379.549 333.044 379.973 333.065 380.215 332.923Z"
                fill="#D4ECFF" />
            <path
                d="M412.018 330.192L411.938 330.233C411.796 330.132 411.675 330.03 411.513 329.949L383.489 313.747C381.428 312.554 378.317 312.433 376.539 313.464L347.585 330.192C345.948 329.019 345.847 327.421 347.504 326.47L376.539 309.702C378.317 308.67 381.428 308.792 383.489 309.985L411.513 326.187C413.574 327.36 413.796 329.161 412.018 330.192Z"
                fill="#396CAA" />
            <path
                d="M392.177 408.553C392.177 409.706 392.985 410.171 393.975 409.585C394.965 409.018 395.773 407.623 395.773 406.47C395.773 405.317 394.965 404.851 393.975 405.438C392.985 406.004 392.177 407.4 392.177 408.553Z"
                fill="#D4ECFF" />
            <path
                d="M397.753 405.357C397.753 406.51 398.561 406.975 399.551 406.389C400.541 405.822 401.349 404.427 401.349 403.274C401.349 402.121 400.541 401.656 399.551 402.242C398.561 402.809 397.753 404.204 397.753 405.357Z"
                fill="#D4ECFF" />
            <path
                d="M392.177 415.289C392.177 416.442 392.985 416.907 393.975 416.32C394.965 415.754 395.773 414.358 395.773 413.205C395.773 412.052 394.965 411.587 393.975 412.174C392.985 412.74 392.177 414.136 392.177 415.289Z"
                fill="#D4ECFF" />
            <path
                d="M397.753 412.093C397.753 413.246 398.561 413.711 399.551 413.124C400.541 412.558 401.349 411.162 401.349 410.009C401.349 408.856 400.541 408.391 399.551 408.978C398.561 409.544 397.753 410.94 397.753 412.093Z"
                fill="#5793CE" />
        </g>



        <path opacity="0.5" class="shadowbox"
            d="M494.676 537.685L544.219 509.043C547.249 507.283 546.886 504.209 543.37 502.186L495.545 474.535C492.029 472.512 486.716 472.29 483.685 474.05L434.142 502.692C431.112 504.451 431.475 507.526 434.991 509.549L482.816 537.2C486.311 539.222 491.625 539.445 494.676 537.685Z"
            fill="url(#paint30_linear_275_13477)" />
        <g class="box">
            <path
                d="M417.696 480.886V459.466L465.682 459.445L482.27 449.858C486.069 447.653 492.737 447.936 497.121 450.464L512.598 459.405L560.625 459.385V481.412C560.726 482.909 559.898 484.345 558.079 485.397L496.05 521.26C492.252 523.465 485.584 523.182 481.2 520.653L421.312 486.024C418.767 484.548 417.554 482.666 417.696 480.886Z"
                fill="url(#paint31_linear_275_13477)" />
            <path
                d="M489.16 448.381C491.948 448.442 494.838 449.149 497.121 450.464L512.598 459.405L560.625 459.385V481.412C560.726 482.909 559.897 484.345 558.079 485.397L496.05 521.26C494.211 522.312 491.726 522.797 489.16 522.737V448.381Z"
                fill="url(#paint32_linear_275_13477)" />
            <path
                d="M555.21 459.385H560.645V481.412C560.746 482.909 559.918 484.345 558.099 485.397L555.21 487.056V459.385Z"
                fill="#5793CE" />
            <path d="M495.101 521.726C491.808 523.142 487.06 523.061 483.221 521.584V496.563H495.101V521.726Z"
                fill="#5793CE" />
            <path
                d="M496.05 499.293L558.079 463.43C561.878 461.225 561.413 457.382 557.008 454.854L497.121 420.224C492.716 417.676 486.069 417.413 482.271 419.618L420.242 455.481C416.443 457.686 416.908 461.529 421.312 464.057L481.2 498.686C485.604 501.215 492.252 501.498 496.05 499.293Z"
                fill="#D4ECFF" />
            <path
                d="M494.939 492.841L546.926 462.803C550.119 460.963 549.715 457.746 546.037 455.602L495.828 426.596C492.151 424.472 486.574 424.23 483.382 426.07L431.395 456.108C428.202 457.949 428.606 461.165 432.284 463.309L482.473 492.315C486.17 494.459 491.747 494.682 494.939 492.841Z"
                fill="#5793CE" />
            <path
                d="M440.507 486.55C440.507 488.148 441.638 490.09 443.012 490.899C444.386 491.708 445.518 491.041 445.518 489.443C445.518 487.845 444.386 485.903 443.012 485.094C441.618 484.305 440.507 484.952 440.507 486.55Z"
                fill="#D4ECFF" />
            <path
                d="M432.445 481.878C432.445 483.476 433.577 485.417 434.951 486.227C436.325 487.036 437.456 486.368 437.456 484.77C437.456 483.172 436.325 481.23 434.951 480.421C433.557 479.632 432.445 480.28 432.445 481.878Z"
                fill="#5793CE" />
            <path
                d="M424.384 477.225C424.384 478.823 425.515 480.765 426.889 481.574C428.263 482.383 429.395 481.716 429.395 480.118C429.395 478.52 428.263 476.578 426.889 475.769C425.495 474.98 424.384 475.627 424.384 477.225Z"
                fill="#D4ECFF" />
            <path
                d="M417.696 446.642V425.221L465.682 425.2L482.27 415.613C486.069 413.408 492.737 413.691 497.121 416.22L512.598 425.16L560.625 425.14V447.167C560.726 448.664 559.898 450.1 558.079 451.152L496.05 487.015C492.252 489.22 485.584 488.937 481.2 486.409L421.312 451.779C418.767 450.303 417.554 448.422 417.696 446.642Z"
                fill="url(#paint33_linear_275_13477)" />
            <path
                d="M489.16 414.136C491.948 414.197 494.838 414.905 497.121 416.219L512.598 425.16L560.625 425.14V447.167C560.726 448.664 559.897 450.1 558.079 451.152L496.05 487.015C494.211 488.067 491.726 488.553 489.16 488.492V414.136Z"
                fill="url(#paint34_linear_275_13477)" />
            <path
                d="M555.21 425.14H560.645V447.167C560.746 448.664 559.918 450.1 558.099 451.152L555.21 452.811V425.14Z"
                fill="#5793CE" />
            <path d="M495.101 487.481C491.808 488.896 487.06 488.816 483.221 487.339V462.318H495.101V487.481Z"
                fill="#5793CE" />
            <path
                d="M496.05 465.048L558.079 429.185C561.878 426.98 561.413 423.137 557.008 420.609L497.121 385.98C492.716 383.431 486.069 383.168 482.271 385.373L420.242 421.236C416.443 423.441 416.908 427.284 421.312 429.812L481.2 464.442C485.604 466.99 492.252 467.253 496.05 465.048Z"
                fill="#D4ECFF" />
            <path
                d="M494.939 458.596L546.927 428.558C550.119 426.718 549.715 423.501 546.037 421.357L495.849 392.351C492.171 390.227 486.595 389.985 483.402 391.825L431.415 421.863C428.223 423.704 428.627 426.92 432.304 429.064L482.493 458.07C486.17 460.214 491.747 460.457 494.939 458.596Z"
                fill="#5793CE" />
            <path
                d="M440.507 452.305C440.507 453.903 441.638 455.845 443.012 456.654C444.386 457.463 445.518 456.796 445.518 455.198C445.518 453.6 444.386 451.658 443.012 450.849C441.618 450.06 440.507 450.707 440.507 452.305Z"
                fill="#5793CE" />
            <path
                d="M432.445 447.633C432.445 449.231 433.577 451.173 434.951 451.982C436.325 452.791 437.456 452.123 437.456 450.525C437.456 448.927 436.325 446.985 434.951 446.176C433.557 445.388 432.445 446.035 432.445 447.633Z"
                fill="#5793CE" />
            <path
                d="M424.384 442.98C424.384 444.578 425.515 446.52 426.889 447.329C428.263 448.138 429.395 447.471 429.395 445.873C429.395 444.275 428.263 442.333 426.889 441.524C425.495 440.735 424.384 441.382 424.384 442.98Z"
                fill="#D4ECFF" />
            <path
                d="M417.696 412.396V390.976L465.682 390.955L482.27 381.368C486.069 379.163 492.737 379.446 497.121 381.974L512.598 390.915L560.625 390.895V412.922C560.726 414.419 559.898 415.855 558.079 416.907L496.05 452.77C492.252 454.975 485.584 454.692 481.2 452.164L421.312 417.534C418.767 416.078 417.554 414.176 417.696 412.396Z"
                fill="url(#paint35_linear_275_13477)" />
            <path
                d="M489.16 379.891C491.948 379.952 494.838 380.66 497.121 381.975L512.598 390.915L560.625 390.895V412.922C560.726 414.419 559.897 415.855 558.079 416.907L496.05 452.77C494.211 453.822 491.726 454.308 489.16 454.247V379.891Z"
                fill="url(#paint36_linear_275_13477)" />
            <path
                d="M555.21 390.895H560.645V412.922C560.746 414.419 559.918 415.855 558.099 416.907L555.21 418.566V390.895Z"
                fill="#5793CE" />
            <path d="M495.101 453.235C491.808 454.651 487.06 454.57 483.221 453.094V428.073H495.101V453.235Z"
                fill="#5793CE" />
            <path
                d="M496.05 430.824L558.079 394.96C561.878 392.756 561.413 388.912 557.008 386.384L497.121 351.755C492.716 349.206 486.069 348.943 482.271 351.148L420.242 387.011C416.443 389.216 416.908 393.059 421.312 395.587L481.2 430.217C485.604 432.745 492.252 433.008 496.05 430.824Z"
                fill="url(#paint37_linear_275_13477)" />
            <path
                d="M421.312 391.36L481.199 425.989C485.604 428.538 492.251 428.801 496.05 426.596L558.079 390.733C558.927 390.247 559.554 389.661 559.978 389.054C561.291 391.158 560.685 393.443 558.079 394.96L496.05 430.824C492.251 433.028 485.584 432.745 481.199 430.217L421.312 395.587C417.897 393.605 416.867 390.854 418.342 388.69C418.928 389.641 419.918 390.571 421.312 391.36Z"
                fill="white" />
            <path
                d="M440.507 418.06C440.507 419.658 441.638 421.6 443.012 422.409C444.386 423.218 445.518 422.551 445.518 420.953C445.518 419.355 444.386 417.413 443.012 416.604C441.618 415.815 440.507 416.462 440.507 418.06Z"
                fill="#D4ECFF" />
            <path
                d="M432.445 413.408C432.445 415.006 433.577 416.948 434.951 417.757C436.325 418.566 437.456 417.898 437.456 416.3C437.456 414.702 436.325 412.76 434.951 411.951C433.557 411.142 432.445 411.81 432.445 413.408Z"
                fill="#D4ECFF" />
            <path
                d="M424.384 408.735C424.384 410.333 425.515 412.275 426.889 413.084C428.263 413.893 429.395 413.226 429.395 411.628C429.395 410.03 428.263 408.088 426.889 407.279C425.495 406.49 424.384 407.137 424.384 408.735Z"
                fill="#5793CE" />
            <path
                d="M492.393 408.594L521.427 391.825C523.205 390.793 522.983 388.993 520.922 387.8L492.898 371.598C490.837 370.404 487.725 370.283 485.947 371.314L456.913 388.083C455.135 389.115 455.357 390.915 457.418 392.108L485.442 408.31C487.483 409.484 490.615 409.625 492.393 408.594Z"
                fill="url(#paint38_linear_275_13477)" />
            <path
                d="M489.604 394.535L493.625 392.209C493.867 392.068 493.847 391.825 493.564 391.663L489.685 389.418C489.402 389.256 488.978 389.236 488.715 389.377L484.694 391.704C484.452 391.845 484.472 392.088 484.755 392.25L488.634 394.495C488.937 394.657 489.362 394.677 489.604 394.535Z"
                fill="#D4ECFF" />
            <path
                d="M521.407 391.805L521.326 391.845C521.185 391.744 521.064 391.643 520.902 391.562L492.878 375.36C490.817 374.166 487.705 374.045 485.927 375.077L456.974 391.805C455.337 390.632 455.236 389.034 456.893 388.083L485.927 371.314C487.705 370.283 490.817 370.404 492.878 371.598L520.902 387.8C522.963 388.973 523.205 390.773 521.407 391.805Z"
                fill="#396CAA" />
            <path
                d="M500.778 436.406C500.778 437.559 501.587 438.024 502.577 437.438C503.567 436.871 504.375 435.476 504.375 434.323C504.375 433.17 503.567 432.705 502.577 433.291C501.587 433.878 500.778 435.274 500.778 436.406Z"
                fill="#D4ECFF" />
            <path
                d="M506.354 433.21C506.354 434.363 507.163 434.829 508.153 434.242C509.143 433.676 509.951 432.28 509.951 431.127C509.951 429.974 509.143 429.509 508.153 430.095C507.163 430.662 506.354 432.057 506.354 433.21Z"
                fill="#D4ECFF" />
            <path
                d="M500.778 443.142C500.778 444.295 501.587 444.76 502.577 444.174C503.567 443.607 504.375 442.212 504.375 441.059C504.375 439.906 503.567 439.44 502.577 440.027C501.587 440.614 500.778 442.009 500.778 443.142Z"
                fill="#D4ECFF" />
            <path
                d="M506.354 439.946C506.354 441.099 507.163 441.564 508.153 440.978C509.143 440.411 509.951 439.016 509.951 437.863C509.951 436.71 509.143 436.244 508.153 436.831C507.163 437.397 506.354 438.793 506.354 439.946Z"
                fill="#5793CE" />
            <path
                d="M500.778 470.651C500.778 471.804 501.587 472.269 502.577 471.683C503.567 471.116 504.375 469.721 504.375 468.568C504.375 467.415 503.567 466.95 502.577 467.536C501.587 468.102 500.778 469.498 500.778 470.651Z"
                fill="#5793CE" />
            <path
                d="M506.354 467.455C506.354 468.608 507.163 469.074 508.153 468.487C509.143 467.921 509.951 466.525 509.951 465.372C509.951 464.219 509.143 463.754 508.153 464.34C507.163 464.907 506.354 466.302 506.354 467.455Z"
                fill="#D4ECFF" />
            <path
                d="M500.778 477.387C500.778 478.54 501.587 479.005 502.577 478.419C503.567 477.852 504.375 476.457 504.375 475.304C504.375 474.151 503.567 473.685 502.577 474.272C501.587 474.838 500.778 476.234 500.778 477.387Z"
                fill="#5793CE" />
            <path
                d="M506.354 474.191C506.354 475.344 507.163 475.809 508.153 475.223C509.143 474.656 509.951 473.26 509.951 472.108C509.951 470.955 509.143 470.489 508.153 471.076C507.163 471.642 506.354 473.038 506.354 474.191Z"
                fill="#D4ECFF" />
            <path
                d="M500.778 504.896C500.778 506.049 501.587 506.514 502.577 505.928C503.567 505.361 504.375 503.966 504.375 502.813C504.375 501.66 503.567 501.195 502.577 501.781C501.587 502.348 500.778 503.743 500.778 504.896Z"
                fill="#D4ECFF" />
            <path
                d="M506.354 501.7C506.354 502.853 507.163 503.319 508.153 502.732C509.143 502.166 509.951 500.77 509.951 499.617C509.951 498.464 509.143 497.999 508.153 498.585C507.163 499.152 506.354 500.547 506.354 501.7Z"
                fill="#5793CE" />
            <path
                d="M500.778 511.632C500.778 512.785 501.587 513.25 502.577 512.664C503.567 512.097 504.375 510.702 504.375 509.549C504.375 508.396 503.567 507.93 502.577 508.517C501.587 509.083 500.778 510.479 500.778 511.632Z"
                fill="#D4ECFF" />
            <path
                d="M506.354 508.436C506.354 509.589 507.163 510.054 508.153 509.468C509.143 508.901 509.951 507.506 509.951 506.353C509.951 505.2 509.143 504.734 508.153 505.321C507.163 505.887 506.354 507.283 506.354 508.436Z"
                fill="#D4ECFF" />
        </g>





        <g class="arrow">
            <path d="M499 327.482L503.041 325.864L499.909 323.436L499 327.482Z" fill="url(#paint39_linear_275_13477)" />
            <path d="M496.999 283.831L500.899 282.233L500.636 283.892L496.999 283.831Z" fill="#5793CE" />
            <path d="M511.648 317.267L515.729 315.628L509.789 309.641L511.648 317.267Z"
                fill="url(#paint40_linear_275_13477)" />
            <path
                d="M501.97 325.742L486.372 316.741C485.584 316.276 485.099 315.123 485.301 314.172L489.039 296.453L507.486 307.113L503.748 324.832C503.566 325.803 502.758 326.207 501.97 325.742Z"
                fill="url(#paint41_linear_275_13477)" />
            <path
                d="M500.858 282.253L479.785 292.893C478.895 293.338 479.178 295.017 480.269 295.644L497.464 305.575L514.658 315.507C515.749 316.134 516.618 315.123 516.072 313.848L503.586 283.831C503.061 282.557 501.767 281.808 500.858 282.253Z"
                fill="url(#paint42_linear_275_13477)" />
            <path fill-rule="evenodd" clip-rule="evenodd"
                d="M475.703 294.551L496.777 283.912C497.686 283.447 498.979 284.195 499.505 285.49L511.991 315.507C512.537 316.781 511.668 317.793 510.577 317.166L502.605 312.561L499.666 326.49C499.484 327.441 498.676 327.866 497.888 327.401L482.29 318.399C481.502 317.934 481.017 316.781 481.219 315.831L484.157 301.905L476.188 297.302C475.097 296.675 474.814 294.996 475.703 294.551Z"
                fill="#D4ECFF" />
            <path fill-rule="evenodd" clip-rule="evenodd"
                d="M475.703 294.551L496.777 283.912C497.686 283.447 498.979 284.195 499.505 285.49L511.991 315.507C512.537 316.781 511.668 317.793 510.577 317.166L502.605 312.561L499.666 326.49C499.484 327.441 498.676 327.866 497.888 327.401L482.29 318.399C481.502 317.934 481.017 316.781 481.219 315.831L484.157 301.905L476.188 297.302C475.097 296.675 474.814 294.996 475.703 294.551Z"
                fill="url(#paint43_linear_275_13477)" />
        </g>

        <g class="arrow">
            <path d="M390.844 265.363L394.865 263.745L391.733 261.318L390.844 265.363Z"
                fill="url(#paint44_linear_275_13477)" />
            <path d="M388.822 221.712L392.742 220.115L392.459 221.773L388.822 221.712Z" fill="#5793CE" />
            <path d="M403.471 255.148L407.553 253.51L401.612 247.523L403.471 255.148Z"
                fill="url(#paint45_linear_275_13477)" />
            <path
                d="M393.814 263.624L378.215 254.623C377.427 254.157 376.942 253.004 377.145 252.054L380.882 234.334L399.329 244.994L395.592 262.714C395.41 263.684 394.602 264.089 393.814 263.624Z"
                fill="url(#paint46_linear_275_13477)" />
            <path
                d="M392.702 220.135L371.628 230.774C370.739 231.219 371.022 232.898 372.113 233.525L389.308 243.457L406.502 253.389C407.593 254.016 408.462 253.004 407.916 251.73L395.43 221.713C394.904 220.438 393.611 219.69 392.702 220.135Z"
                fill="url(#paint47_linear_275_13477)" />
            <path fill-rule="evenodd" clip-rule="evenodd"
                d="M367.527 232.433L388.6 221.793C389.51 221.328 390.803 222.077 391.328 223.371L403.815 253.389C404.36 254.663 403.491 255.674 402.4 255.047L394.428 250.443L391.49 264.372C391.308 265.323 390.52 265.747 389.712 265.282L374.114 256.281C373.326 255.816 372.841 254.663 373.043 253.712L375.98 239.787L368.012 235.184C366.921 234.557 366.638 232.878 367.527 232.433Z"
                fill="#D4ECFF" />
            <path fill-rule="evenodd" clip-rule="evenodd"
                d="M367.527 232.433L388.6 221.793C389.51 221.328 390.803 222.077 391.328 223.371L403.815 253.389C404.36 254.663 403.491 255.674 402.4 255.047L394.428 250.443L391.49 264.372C391.308 265.323 390.52 265.747 389.712 265.282L374.114 256.281C373.326 255.816 372.841 254.663 373.043 253.712L375.98 239.787L368.012 235.184C366.921 234.557 366.638 232.878 367.527 232.433Z"
                fill="url(#paint48_linear_275_13477)" />
        </g>


        <path opacity="0.5"
            d="M15.719 510.499L132.887 443.102C142.121 437.782 158.244 438.49 168.892 444.679L409.169 584.228C419.817 590.418 420.948 599.722 411.715 605.042L294.546 672.44C285.313 677.76 269.189 677.052 258.541 670.862L18.2648 531.313C7.61687 525.144 6.4854 515.819 15.719 510.499Z"
            fill="url(#paint49_linear_275_13477)" />
        <path
            d="M299.194 650.17L419.171 581.154C424.424 578.14 427.071 574.115 427.192 569.867L427.293 549.194L423.434 555.849C421.595 553.685 419.09 551.622 415.897 549.781L174.328 409.443C160.649 401.494 139.919 400.584 128.018 407.42L8.04159 476.436C6.76868 477.165 5.65741 477.953 4.68757 478.803L0.0808611 472.897L4.15584e-05 492.335C-0.161598 497.695 3.65713 503.379 11.2946 507.809L252.884 648.127C266.583 656.096 287.314 657.006 299.194 650.17Z"
            fill="url(#paint50_linear_275_13477)" />
        <path
            d="M8.14231 461.084L128.119 392.068C139.999 385.231 160.73 386.141 174.428 394.091L416.018 534.408C429.697 542.358 431.172 554.352 419.291 561.189L299.315 630.205C287.434 637.042 266.704 636.132 253.005 628.182L11.3953 487.845C-2.28341 479.895 -3.75836 467.921 8.14231 461.084Z"
            fill="url(#paint51_linear_275_13477)" />
        <path
            d="M419.272 561.169L299.295 630.185C287.415 637.022 266.685 636.112 252.986 628.162L11.3958 487.845C4.76864 484.001 1.03074 479.187 0.262953 474.495C-0.686676 480.239 3.07143 486.55 11.3958 491.384L252.986 631.702C266.664 639.651 287.395 640.562 299.295 633.725L419.272 564.709C425.394 561.189 427.96 556.294 427.132 551.278C426.525 555.02 423.939 558.499 419.272 561.169Z"
            fill="white" />
        <path
            d="M15.719 463.855L132.887 396.457C142.121 391.138 158.244 391.845 168.892 398.035L409.169 537.584C419.817 543.773 420.948 553.078 411.715 558.398L294.546 625.796C285.313 631.115 269.189 630.408 258.541 624.218L18.2648 484.669C7.61687 478.479 6.4854 469.175 15.719 463.855Z"
            fill="white" />
        <path
            d="M446.67 171.65C446.67 172.803 445.862 173.268 444.871 172.681C443.881 172.115 443.073 170.719 443.073 169.566C443.073 168.413 443.881 167.948 444.871 168.535C445.882 169.121 446.67 170.517 446.67 171.65Z"
            fill="#D4ECFF" />
        <path
            d="M471.521 185.081C471.521 186.234 470.713 186.699 469.723 186.112C468.733 185.546 467.925 184.15 467.925 182.997C467.925 181.844 468.733 181.379 469.723 181.966C470.713 182.552 471.521 183.948 471.521 185.081Z"
            fill="#D4ECFF" />
        <path class="textfr" style="animation-delay: 0.1s"
            d="M204.473 488.371L161.093 463.309C159.477 462.378 159.679 460.76 161.538 459.688C163.397 458.616 166.205 458.495 167.821 459.425L211.201 484.487C212.818 485.417 212.616 487.036 210.757 488.108C208.898 489.18 206.089 489.301 204.473 488.371Z"
            fill="url(#paint52_linear_275_13477)" />
        <path class="textfr" style="animation-delay: 0.2s"
            d="M163.356 479.875L147.879 470.935C146.263 470.004 146.465 468.386 148.324 467.314C150.183 466.242 152.991 466.12 154.608 467.051L170.085 475.991C171.701 476.922 171.499 478.54 169.64 479.612C167.781 480.684 164.973 480.806 163.356 479.875Z"
            fill="url(#paint53_linear_275_13477)" />
        <path class="textfr" style="animation-delay: 0.4s"
            d="M189.34 494.884L173.863 485.943C172.246 485.013 172.448 483.395 174.307 482.323C176.166 481.251 178.975 481.129 180.591 482.06L196.068 491C197.684 491.931 197.482 493.549 195.623 494.621C193.744 495.693 190.936 495.814 189.34 494.884Z"
            fill="url(#paint54_linear_275_13477)" />
        <path class="textfr" style="animation-delay: 0.8s"
            d="M241.832 525.225L199.826 500.952C198.209 500.022 198.411 498.404 200.27 497.331C202.129 496.259 204.937 496.138 206.554 497.069L248.56 521.341C250.176 522.272 249.974 523.89 248.115 524.962C246.256 526.054 243.448 526.156 241.832 525.225Z"
            fill="url(#paint55_linear_275_13477)" />
        <path class="textfr" style="animation-delay: 1s"
            d="M188.875 509.893L134.685 478.581C133.069 477.65 133.271 476.032 135.129 474.96C136.988 473.888 139.797 473.766 141.413 474.697L195.603 506.009C197.219 506.939 197.017 508.558 195.158 509.63C193.299 510.702 190.491 510.823 188.875 509.893Z"
            fill="url(#paint56_linear_275_13477)" />
        <path class="textfr" style="animation-delay: 1.1s"
            d="M254.056 562.848L121.492 486.227C119.875 485.296 120.077 483.678 121.936 482.606C123.795 481.534 126.603 481.412 128.22 482.343L260.784 558.964C262.401 559.895 262.198 561.513 260.34 562.585C258.461 563.657 255.652 563.778 254.056 562.848Z"
            fill="url(#paint57_linear_275_13477)" />
        <path class="textfr" style="animation-delay: 1.4s"
            d="M292.728 539.384L216.455 495.288C214.838 494.358 215.04 492.74 216.899 491.668C218.758 490.596 221.566 490.474 223.183 491.405L299.456 535.5C301.073 536.431 300.871 538.049 299.012 539.121C297.153 540.193 294.344 540.315 292.728 539.384Z"
            fill="url(#paint58_linear_275_13477)" />
        <!-- <path
            d="M161.235 611.374L150.082 604.941C148.971 604.294 148.082 602.575 148.082 601.098C148.082 599.621 148.991 598.934 150.082 599.581L161.235 606.013C162.347 606.661 163.236 608.38 163.236 609.856C163.236 611.333 162.347 612.021 161.235 611.374Z"
            fill="#D4ECFF" />
        <path
            d="M178.793 621.548L167.64 615.115C166.529 614.468 165.64 612.749 165.64 611.272C165.64 609.796 166.549 609.108 167.64 609.755L178.793 616.188C179.904 616.835 180.793 618.554 180.793 620.031C180.793 621.507 179.904 622.195 178.793 621.548Z"
            fill="#D4ECFF" /> -->
        <path
            d="M400.663 583.702C400.663 586.028 399.026 588.86 397.006 590.033C394.985 591.207 393.349 590.256 393.349 587.93C393.349 585.604 394.985 582.772 397.006 581.599C399.026 580.425 400.663 581.376 400.663 583.702Z"
            fill="#B2D3EA" />
        <!-- <path
            d="M306.346 279.785L310.367 277.459C310.609 277.318 310.589 277.075 310.306 276.913L306.427 274.668C306.144 274.506 305.72 274.486 305.457 274.627L301.436 276.954C301.194 277.095 301.214 277.338 301.497 277.5L305.376 279.745C305.659 279.907 306.084 279.927 306.346 279.785Z"
            fill="#396CAA" />
        <path
            d="M297.073 285.126L301.094 282.799C301.336 282.658 301.316 282.415 301.033 282.253L297.154 280.008C296.871 279.846 296.446 279.826 296.184 279.967L292.163 282.294C291.921 282.435 291.941 282.678 292.224 282.84L296.103 285.085C296.406 285.247 296.83 285.267 297.073 285.126Z"
            fill="#396CAA" />
        <path
            d="M287.819 290.486L291.84 288.16C292.082 288.018 292.062 287.775 291.779 287.614L287.9 285.368C287.617 285.206 287.192 285.186 286.93 285.328L282.909 287.654C282.667 287.796 282.687 288.038 282.97 288.2L286.849 290.445C287.152 290.607 287.576 290.627 287.819 290.486Z"
            fill="#396CAA" /> -->
        <!-- <path
            d="M253.308 247.968L257.329 245.642C257.571 245.5 257.551 245.257 257.268 245.095L253.389 242.85C253.106 242.688 252.682 242.668 252.419 242.81L248.398 245.136C248.156 245.278 248.176 245.52 248.459 245.682L252.338 247.927C252.621 248.089 253.045 248.109 253.308 247.968Z"
            fill="#396CAA" />
        <path
            d="M244.035 253.308L248.055 250.982C248.298 250.84 248.278 250.597 247.995 250.436L244.115 248.19C243.833 248.028 243.408 248.008 243.146 248.15L239.125 250.476C238.882 250.618 238.903 250.86 239.186 251.022L243.065 253.267C243.368 253.429 243.792 253.449 244.035 253.308Z"
            fill="#396CAA" />
        <path
            d="M234.781 258.668L238.802 256.342C239.044 256.2 239.024 255.958 238.741 255.796L234.862 253.551C234.579 253.389 234.154 253.369 233.892 253.51L229.871 255.836C229.629 255.978 229.649 256.221 229.932 256.382L233.811 258.628C234.114 258.79 234.538 258.81 234.781 258.668Z"
            fill="#396CAA" /> -->
    </g>
    <defs>
        <linearGradient id="paint0_linear_275_13477" x1="51.1034" y1="202.999" x2="304.714" y2="310.295"
            gradientUnits="userSpaceOnUse">
            <stop stop-color="#DBC2F0" />
            <stop offset="1" stop-color="#C9A2ED" />
        </linearGradient>
        <linearGradient id="paint1_linear_275_13477" x1="47.9802" y1="417.283" x2="62.0844" y2="402.518"
            gradientUnits="userSpaceOnUse">
            <stop stop-color="#351053" />
            <stop offset="1" stop-color="#814DB2" />
        </linearGradient>
        <linearGradient id="paint2_linear_275_13477" x1="65.3786" y1="434.215" x2="87.8426" y2="410.874"
            gradientUnits="userSpaceOnUse">
            <stop stop-color="#351053" />
            <stop offset="1" stop-color="#814DB2" />
        </linearGradient>
        <linearGradient id="paint3_linear_275_13477" x1="540.423" y1="190.215" x2="564.137" y2="176.88"
            gradientUnits="userSpaceOnUse">
            <stop stop-color="#351053" />
            <stop offset="1" stop-color="#814DB2" />
        </linearGradient>
        <linearGradient id="paint4_linear_275_13477" x1="376.103" y1="45.5751" x2="394.773" y2="24.9672"
            gradientUnits="userSpaceOnUse">
            <stop stop-color="#351053" />
            <stop offset="1" stop-color="#814DB2" />
        </linearGradient>
        <linearGradient id="paint5_linear_275_13477" x1="342.364" y1="-35.0971" x2="556.177" y2="291.704"
            gradientUnits="userSpaceOnUse">
            <stop offset="0.216475" stop-color="#9B66CD" />
            <stop offset="1" stop-color="#46197B" />
        </linearGradient>
        <linearGradient id="paint6_linear_275_13477" x1="381.842" y1="-6.4538" x2="411.963" y2="66.9936"
            gradientUnits="userSpaceOnUse">
            <stop offset="0.216475" stop-color="#9B66CD" />
            <stop offset="1" stop-color="#46197B" />
        </linearGradient>
        <linearGradient id="paint7_linear_275_13477" x1="429.221" y1="62.0967" x2="472.903" y2="170.342"
            gradientUnits="userSpaceOnUse">
            <stop offset="0.216475" stop-color="#9B66CD" />
            <stop offset="1" stop-color="#46197B" />
        </linearGradient>
        <linearGradient id="paint8_linear_275_13477" x1="452.974" y1="13.7095" x2="452.974" y2="199.11"
            gradientUnits="userSpaceOnUse">
            <stop stop-color="#E1CEF2" />
            <stop offset="1" stop-color="#D3B4EF" />
        </linearGradient>
        <linearGradient id="paint9_linear_275_13477" x1="418.957" y1="10.9046" x2="423.281" y2="191.885"
            gradientUnits="userSpaceOnUse">
            <stop stop-color="#C3A9D9" />
            <stop offset="1" stop-color="#8C57BC" />
        </linearGradient>
        <linearGradient id="paint10_linear_275_13477" x1="429.153" y1="94.082" x2="469.192" y2="134.412"
            gradientUnits="userSpaceOnUse">
            <stop offset="0.216475" stop-color="#9B66CD" />
            <stop offset="1" stop-color="#46197B" />
        </linearGradient>
        <linearGradient id="paint11_linear_275_13477" x1="413.317" y1="77.7285" x2="452.555" y2="146.823"
            gradientUnits="userSpaceOnUse">
            <stop offset="0.216475" stop-color="#9B66CD" />
            <stop offset="1" stop-color="#46197B" />
        </linearGradient>
        <linearGradient id="paint12_linear_275_13477" x1="248.083" y1="346.01" x2="249.054" y2="415.434"
            gradientUnits="userSpaceOnUse">
            <stop stop-color="#C3A9D9" />
            <stop offset="1" stop-color="#8C57BC" />
        </linearGradient>
        <linearGradient id="paint13_linear_275_13477" x1="226.754" y1="386.407" x2="271.053" y2="315.554"
            gradientUnits="userSpaceOnUse">
            <stop stop-color="#351053" />
            <stop offset="1" stop-color="#814DB2" />
        </linearGradient>
        <linearGradient id="paint14_linear_275_13477" x1="284.316" y1="386.405" x2="332.377" y2="347.962"
            gradientUnits="userSpaceOnUse">
            <stop stop-color="#351053" />
            <stop offset="1" stop-color="#814DB2" />
        </linearGradient>
        <linearGradient id="paint15_linear_275_13477" x1="226.754" y1="352.163" x2="271.053" y2="281.309"
            gradientUnits="userSpaceOnUse">
            <stop stop-color="#351053" />
            <stop offset="1" stop-color="#814DB2" />
        </linearGradient>
        <linearGradient id="paint16_linear_275_13477" x1="284.316" y1="352.16" x2="332.377" y2="313.717"
            gradientUnits="userSpaceOnUse">
            <stop stop-color="#351053" />
            <stop offset="1" stop-color="#814DB2" />
        </linearGradient>
        <linearGradient id="paint17_linear_275_13477" x1="226.754" y1="317.917" x2="271.053" y2="247.064"
            gradientUnits="userSpaceOnUse">
            <stop stop-color="#351053" />
            <stop offset="1" stop-color="#814DB2" />
        </linearGradient>
        <linearGradient id="paint18_linear_275_13477" x1="284.316" y1="317.915" x2="332.377" y2="279.472"
            gradientUnits="userSpaceOnUse">
            <stop stop-color="#351053" />
            <stop offset="1" stop-color="#814DB2" />
        </linearGradient>
        <linearGradient id="paint19_linear_275_13477" x1="214.541" y1="219.063" x2="364.514" y2="341.192"
            gradientUnits="userSpaceOnUse">
            <stop stop-color="#DBC2F0" />
            <stop offset="1" stop-color="#C9A2ED" />
        </linearGradient>
        <linearGradient id="paint20_linear_275_13477" x1="249.959" y1="279.242" x2="273.966" y2="244.674"
            gradientUnits="userSpaceOnUse">
            <stop stop-color="#351053" />
            <stop offset="1" stop-color="#814DB2" />
        </linearGradient>
        <linearGradient id="paint21_linear_275_13477" x1="357.473" y1="407.623" x2="358.444" y2="477.046"
            gradientUnits="userSpaceOnUse">
            <stop stop-color="#C3A9D9" />
            <stop offset="1" stop-color="#8C57BC" />
        </linearGradient>
        <linearGradient id="paint22_linear_275_13477" x1="336.144" y1="448.02" x2="380.443" y2="377.167"
            gradientUnits="userSpaceOnUse">
            <stop stop-color="#351053" />
            <stop offset="1" stop-color="#814DB2" />
        </linearGradient>
        <linearGradient id="paint23_linear_275_13477" x1="393.705" y1="448.017" x2="441.766" y2="409.574"
            gradientUnits="userSpaceOnUse">
            <stop stop-color="#351053" />
            <stop offset="1" stop-color="#814DB2" />
        </linearGradient>
        <linearGradient id="paint24_linear_275_13477" x1="336.144" y1="413.775" x2="380.443" y2="342.922"
            gradientUnits="userSpaceOnUse">
            <stop stop-color="#351053" />
            <stop offset="1" stop-color="#814DB2" />
        </linearGradient>
        <linearGradient id="paint25_linear_275_13477" x1="393.705" y1="413.772" x2="441.766" y2="375.33"
            gradientUnits="userSpaceOnUse">
            <stop stop-color="#351053" />
            <stop offset="1" stop-color="#814DB2" />
        </linearGradient>
        <linearGradient id="paint26_linear_275_13477" x1="336.144" y1="379.53" x2="380.443" y2="308.677"
            gradientUnits="userSpaceOnUse">
            <stop stop-color="#351053" />
            <stop offset="1" stop-color="#814DB2" />
        </linearGradient>
        <linearGradient id="paint27_linear_275_13477" x1="393.705" y1="379.527" x2="441.766" y2="341.085"
            gradientUnits="userSpaceOnUse">
            <stop stop-color="#351053" />
            <stop offset="1" stop-color="#814DB2" />
        </linearGradient>
        <linearGradient id="paint28_linear_275_13477" x1="323.931" y1="280.676" x2="473.903" y2="402.804"
            gradientUnits="userSpaceOnUse">
            <stop stop-color="#DBC2F0" />
            <stop offset="1" stop-color="#C9A2ED" />
        </linearGradient>
        <linearGradient id="paint29_linear_275_13477" x1="359.369" y1="340.855" x2="383.376" y2="306.287"
            gradientUnits="userSpaceOnUse">
            <stop stop-color="#351053" />
            <stop offset="1" stop-color="#814DB2" />
        </linearGradient>
        <linearGradient id="paint30_linear_275_13477" x1="466.882" y1="469.236" x2="467.853" y2="538.659"
            gradientUnits="userSpaceOnUse">
            <stop stop-color="#C3A9D9" />
            <stop offset="1" stop-color="#8C57BC" />
        </linearGradient>
        <linearGradient id="paint31_linear_275_13477" x1="445.553" y1="509.633" x2="489.852" y2="438.78"
            gradientUnits="userSpaceOnUse">
            <stop stop-color="#351053" />
            <stop offset="1" stop-color="#814DB2" />
        </linearGradient>
        <linearGradient id="paint32_linear_275_13477" x1="503.094" y1="509.63" x2="551.155" y2="471.187"
            gradientUnits="userSpaceOnUse">
            <stop stop-color="#351053" />
            <stop offset="1" stop-color="#814DB2" />
        </linearGradient>
        <linearGradient id="paint33_linear_275_13477" x1="445.553" y1="475.388" x2="489.852" y2="404.535"
            gradientUnits="userSpaceOnUse">
            <stop stop-color="#351053" />
            <stop offset="1" stop-color="#814DB2" />
        </linearGradient>
        <linearGradient id="paint34_linear_275_13477" x1="503.094" y1="475.385" x2="551.155" y2="436.942"
            gradientUnits="userSpaceOnUse">
            <stop stop-color="#351053" />
            <stop offset="1" stop-color="#814DB2" />
        </linearGradient>
        <linearGradient id="paint35_linear_275_13477" x1="445.553" y1="441.143" x2="489.852" y2="370.29"
            gradientUnits="userSpaceOnUse">
            <stop stop-color="#351053" />
            <stop offset="1" stop-color="#814DB2" />
        </linearGradient>
        <linearGradient id="paint36_linear_275_13477" x1="503.094" y1="441.14" x2="551.155" y2="402.698"
            gradientUnits="userSpaceOnUse">
            <stop stop-color="#351053" />
            <stop offset="1" stop-color="#814DB2" />
        </linearGradient>
        <linearGradient id="paint37_linear_275_13477" x1="433.32" y1="342.289" x2="583.292" y2="464.417"
            gradientUnits="userSpaceOnUse">
            <stop stop-color="#DBC2F0" />
            <stop offset="1" stop-color="#C9A2ED" />
        </linearGradient>
        <linearGradient id="paint38_linear_275_13477" x1="468.758" y1="402.468" x2="492.765" y2="367.899"
            gradientUnits="userSpaceOnUse">
            <stop stop-color="#351053" />
            <stop offset="1" stop-color="#814DB2" />
        </linearGradient>
        <linearGradient id="paint39_linear_275_13477" x1="497.734" y1="322.67" x2="502.269" y2="330.077"
            gradientUnits="userSpaceOnUse">
            <stop offset="0.216475" stop-color="#9B66CD" />
            <stop offset="1" stop-color="#46197B" />
        </linearGradient>
        <linearGradient id="paint40_linear_275_13477" x1="507.927" y1="308.197" x2="517.252" y2="320.072"
            gradientUnits="userSpaceOnUse">
            <stop offset="0.216475" stop-color="#9B66CD" />
            <stop offset="1" stop-color="#46197B" />
        </linearGradient>
        <linearGradient id="paint41_linear_275_13477" x1="478.288" y1="290.871" x2="514.598" y2="335.634"
            gradientUnits="userSpaceOnUse">
            <stop offset="0.216475" stop-color="#9B66CD" />
            <stop offset="1" stop-color="#46197B" />
        </linearGradient>
        <linearGradient id="paint42_linear_275_13477" x1="467.666" y1="275.767" x2="503.536" y2="340.367"
            gradientUnits="userSpaceOnUse">
            <stop offset="0.216475" stop-color="#9B66CD" />
            <stop offset="1" stop-color="#46197B" />
        </linearGradient>
        <linearGradient id="paint43_linear_275_13477" x1="486.445" y1="281.366" x2="487.764" y2="327.419"
            gradientUnits="userSpaceOnUse">
            <stop stop-color="#C3A9D9" />
            <stop offset="1" stop-color="#8C57BC" />
        </linearGradient>
        <linearGradient id="paint44_linear_275_13477" x1="389.584" y1="260.552" x2="394.129" y2="267.938"
            gradientUnits="userSpaceOnUse">
            <stop offset="0.216475" stop-color="#9B66CD" />
            <stop offset="1" stop-color="#46197B" />
        </linearGradient>
        <linearGradient id="paint45_linear_275_13477" x1="399.751" y1="246.079" x2="409.075" y2="257.954"
            gradientUnits="userSpaceOnUse">
            <stop offset="0.216475" stop-color="#9B66CD" />
            <stop offset="1" stop-color="#46197B" />
        </linearGradient>
        <linearGradient id="paint46_linear_275_13477" x1="370.131" y1="228.752" x2="406.442" y2="273.515"
            gradientUnits="userSpaceOnUse">
            <stop offset="0.216475" stop-color="#9B66CD" />
            <stop offset="1" stop-color="#46197B" />
        </linearGradient>
        <linearGradient id="paint47_linear_275_13477" x1="359.51" y1="213.649" x2="395.38" y2="278.248"
            gradientUnits="userSpaceOnUse">
            <stop offset="0.216475" stop-color="#9B66CD" />
            <stop offset="1" stop-color="#46197B" />
        </linearGradient>
        <linearGradient id="paint48_linear_275_13477" x1="378.268" y1="219.248" x2="379.588" y2="265.301"
            gradientUnits="userSpaceOnUse">
            <stop stop-color="#C3A9D9" />
            <stop offset="1" stop-color="#8C57BC" />
        </linearGradient>
        <linearGradient id="paint49_linear_275_13477" x1="133.942" y1="426.543" x2="137.424" y2="675.242"
            gradientUnits="userSpaceOnUse">
            <stop stop-color="#C3A9D9" />
            <stop offset="1" stop-color="#8C57BC" />
        </linearGradient>
        <linearGradient id="paint50_linear_275_13477" x1="83.2985" y1="610.335" x2="240.753" y2="388.085"
            gradientUnits="userSpaceOnUse">
            <stop stop-color="#351053" />
            <stop offset="1" stop-color="#814DB2" />
        </linearGradient>
        <linearGradient id="paint51_linear_275_13477" x1="46.847" y1="365.441" x2="495.487" y2="730.278"
            gradientUnits="userSpaceOnUse">
            <stop stop-color="#DBC2F0" />
            <stop offset="1" stop-color="#C9A2ED" />
        </linearGradient>
        <linearGradient id="paint52_linear_275_13477" x1="186.147" y1="458.799" x2="186.147" y2="488.997"
            gradientUnits="userSpaceOnUse">
            <stop stop-color="#E1CEF2" />
            <stop offset="1" stop-color="#D3B4EF" />
        </linearGradient>
        <linearGradient id="paint53_linear_275_13477" x1="158.982" y1="466.425" x2="158.982" y2="480.501"
            gradientUnits="userSpaceOnUse">
            <stop stop-color="#E1CEF2" />
            <stop offset="1" stop-color="#D3B4EF" />
        </linearGradient>
        <linearGradient id="paint54_linear_275_13477" x1="180.202" y1="480.66" x2="180.409" y2="495.465"
            gradientUnits="userSpaceOnUse">
            <stop stop-color="#C3A9D9" />
            <stop offset="1" stop-color="#8C57BC" />
        </linearGradient>
        <linearGradient id="paint55_linear_275_13477" x1="224.193" y1="496.442" x2="224.193" y2="525.858"
            gradientUnits="userSpaceOnUse">
            <stop stop-color="#E1CEF2" />
            <stop offset="1" stop-color="#D3B4EF" />
        </linearGradient>
        <linearGradient id="paint56_linear_275_13477" x1="165.144" y1="474.071" x2="165.144" y2="510.519"
            gradientUnits="userSpaceOnUse">
            <stop stop-color="#E1CEF2" />
            <stop offset="1" stop-color="#D3B4EF" />
        </linearGradient>
        <linearGradient id="paint57_linear_275_13477" x1="163.509" y1="477.226" x2="164.71" y2="563.209"
            gradientUnits="userSpaceOnUse">
            <stop stop-color="#C3A9D9" />
            <stop offset="1" stop-color="#8C57BC" />
        </linearGradient>
        <linearGradient id="paint58_linear_275_13477" x1="257.955" y1="490.778" x2="257.955" y2="540.01"
            gradientUnits="userSpaceOnUse">
            <stop stop-color="#E1CEF2" />
            <stop offset="1" stop-color="#D3B4EF" />
        </linearGradient>
        <clipPath id="clip0_275_13477">
            <rect width="570" height="676" fill="white" />
        </clipPath>
    </defs>



    <style>
        .box {
            animation: movebox 4s ease-in-out infinite;
        }

        .shadowbox {
            animation: moveshadow 4s ease-in-out infinite;
        }

        @keyframes movebox {
            0% {
                transform: translateY(5px);
            }

            50% {
                transform: translateY(-10px);
            }

            100% {
                transform: translateY(5px);
            }
        }

        @keyframes moveshadow {
            0% {
                transform: translate(-3px, 3px);
            }

            50% {
                transform: translate(3px, -3px);
            }

            100% {
                transform: translate(-3px, 3px);
            }
        }

        .arrow {
            animation: arrow 4s ease-in-out infinite;
        }

        @keyframes arrow {
            0% {
                transform: translateY(-5px);
            }

            50% {
                transform: translateY(5px);
            }

            100% {
                transform: translateY(-5px);
            }
        }

        .textfr {
            animation: text 2s ease-in-out infinite;
            opacity: 0;
        }

        @keyframes text {
            0% {
               opacity: 0;
            }

            50% {
                opacity: 1;
            }

            100% {
               opacity: 0;
            }
        }
    </style>
</svg>