<svg width="570" height="652" viewBox="0 0 570 652" fill="none" xmlns="http://www.w3.org/2000/svg">
    <path class="shadow1"
        d="M434.116 468.27L326.916 406.37C322.992 404.094 323.474 400.133 328.007 397.524L441.648 331.757C446.182 329.129 453.047 328.851 456.97 331.127L564.189 393.027C568.112 395.304 567.631 399.264 563.098 401.873L449.457 467.64C444.905 470.25 438.039 470.546 434.116 468.27Z"
        fill="url(#paint0_linear_275_13294)" />
    <path opacity="0.2" class="shadow2"
        d="M440.797 447.932C437.744 447.932 434.783 447.285 432.544 445.989L325.325 384.09C322.623 382.535 321.087 380.129 321.087 377.502C321.087 374.522 323.03 371.71 326.435 369.748L440.057 303.98C445.553 300.798 453.695 300.52 458.562 303.351L565.763 365.251C568.465 366.806 570.001 369.211 570.001 371.839C570.001 374.8 568.058 377.631 564.653 379.593L451.031 445.36C448.088 447.063 444.35 447.932 440.797 447.932ZM435.708 440.475C438.651 442.177 444.332 441.881 447.866 439.846L561.488 374.078C563.08 373.153 563.653 372.228 563.653 371.821C563.653 371.58 563.32 371.154 562.599 370.729L455.379 308.829C452.437 307.126 446.756 307.422 443.221 309.458L329.599 375.226C328.008 376.151 327.434 377.076 327.434 377.483C327.434 377.724 327.767 378.149 328.507 378.575L435.708 440.475Z"
        fill="#9179D6" />


    <g class="server">
        <path
            d="M441.851 142.448C441.851 142.448 382.986 148.055 347.53 150.776L441.555 418.565L565.929 346.839C565.947 346.82 565.966 346.82 565.984 346.802L566.206 346.672V346.653C567.761 345.673 568.742 343.526 568.742 340.51V78.7904C568.742 76.0332 567.909 73.0538 566.577 70.4446L441.851 142.448Z"
            fill="url(#paint1_linear_275_13294)" />
        <path
            d="M561.063 64.0602L451.678 0.920408C449.772 -0.1714 448.033 -0.263926 446.7 0.494788L321.827 72.5356L327.712 94.3163L359.023 183.493L364.926 186.898L566.614 70.4445C565.208 67.6687 563.246 65.3186 561.063 64.0602Z"
            fill="url(#paint2_linear_275_13294)" />
        <path
            d="M436.282 418.343L326.897 355.184C322.641 352.723 319.199 346.135 319.199 340.473V78.7164C319.199 73.0538 322.641 70.4446 326.897 72.8872L436.282 136.046C440.538 138.507 443.98 145.095 443.98 150.757V412.513C443.98 418.176 440.538 420.785 436.282 418.343Z"
            fill="url(#paint3_linear_275_13294)" />
        <path
            d="M438.632 134.732L329.247 71.5734C326.786 70.1485 324.603 70.426 323.196 72.0175C324.307 71.8509 325.565 72.11 326.916 72.8872L436.3 136.046C440.556 138.507 443.998 145.095 443.998 150.757V412.513C443.998 414.901 443.388 416.733 442.351 417.898C444.72 417.528 446.349 415.086 446.349 411.2V149.443C446.33 143.781 442.888 137.193 438.632 134.732Z"
            fill="white" />
        <path
            d="M429.398 402.576L333.782 347.375C330.062 345.228 327.046 339.473 327.046 334.514V91.4108C327.046 86.4514 330.062 84.1753 333.782 86.3219L429.398 141.523C433.118 143.67 436.134 149.425 436.134 154.384V397.487C436.134 402.447 433.118 404.723 429.398 402.576Z"
            fill="url(#paint4_linear_275_13294)" />
        <path
            d="M429.398 402.576L333.782 347.375C330.062 345.228 327.046 339.473 327.046 334.514V91.4108C327.046 86.4514 330.062 84.1753 333.782 86.3219L429.398 141.523C433.118 143.67 436.134 149.425 436.134 154.384V397.487C436.134 402.447 433.118 404.723 429.398 402.576Z"
            fill="url(#paint5_linear_275_13294)" />
        <path
            d="M429.398 402.576L333.782 347.375C330.062 345.228 327.046 339.473 327.046 334.514V91.4108C327.046 86.4514 330.062 84.1753 333.782 86.3219L429.398 141.523C433.118 143.67 436.134 149.425 436.134 154.384V397.487C436.134 402.447 433.118 404.723 429.398 402.576Z"
            fill="white" />
        <path
            d="M432.526 400.744L336.909 345.543C333.19 343.396 330.173 337.641 330.173 332.682V89.5789C330.173 87.8949 330.525 86.5255 331.136 85.5262C328.73 85.5077 327.046 87.7099 327.046 91.4294V334.514C327.046 339.473 330.062 345.228 333.782 347.375L429.398 402.576C431.841 403.982 433.987 403.483 435.172 401.54C434.358 401.54 433.469 401.281 432.526 400.744Z"
            fill="url(#paint6_linear_275_13294)" />
        <path
            d="M429.398 290.971L393.849 270.449L337.168 303.166L436.115 360.292V303.814C436.134 298.873 433.118 293.118 429.398 290.971Z"
            fill="white" />
        <path
            d="M429.398 241.155L393.849 220.633L337.168 253.35L436.115 310.476V253.998C436.134 249.057 433.118 243.302 429.398 241.155Z"
            fill="white" />
        <path
            d="M429.399 191.339L393.85 170.817L337.188 203.553L436.135 260.678V204.2C436.135 199.259 433.119 193.486 429.399 191.339Z"
            fill="white" />
        <path
            d="M429.399 141.542L393.869 121.019L337.188 153.737L436.135 210.862V154.403C436.135 149.443 433.119 143.688 429.399 141.542Z"
            fill="white" />
        <path
            d="M429.398 141.542L350.714 96.1113L337.168 103.939L436.115 161.065V154.403C436.134 149.443 433.118 143.688 429.398 141.542Z"
            fill="white" />
        <path d="M436.135 161.065L337.188 103.92V135.416L436.135 192.542V161.065Z"
            fill="url(#paint7_linear_275_13294)" />
        <path d="M436.135 210.881L337.188 153.737V185.232L436.135 242.358V210.881Z"
            fill="url(#paint8_linear_275_13294)" />
        <path d="M436.135 260.678L337.188 203.553V235.03L436.135 292.174V260.678Z"
            fill="url(#paint9_linear_275_13294)" />
        <path d="M436.135 310.494L337.188 253.369V284.846L436.135 341.99V310.494Z"
            fill="url(#paint10_linear_275_13294)" />
        <path d="M436.135 360.31L337.188 303.185V334.662L436.135 391.788V360.31Z"
            fill="url(#paint11_linear_275_13294)" />
        <path
            d="M427.399 181.328L352.86 138.303C350.75 137.082 349.048 133.825 349.048 131.03V122.592C349.048 119.779 350.75 118.502 352.86 119.705L427.399 162.73C429.509 163.951 431.211 167.208 431.211 170.002V178.441C431.211 181.254 429.509 182.53 427.399 181.328Z"
            fill="#1B2338" />
        <path opacity="0.3"
            d="M356.635 136.675C354.525 135.453 352.823 132.197 352.823 129.402V120.964C352.823 120.52 352.878 120.113 352.971 119.761L352.878 119.706C350.769 118.484 349.066 119.78 349.066 122.592V131.031C349.066 133.844 350.769 137.1 352.878 138.303L427.418 181.328C429.194 182.346 430.656 181.587 431.082 179.662L356.635 136.675Z"
            fill="#06033E" />
        <path
            d="M404.028 158.215L359.171 132.326C358.431 131.901 357.839 130.753 357.839 129.772C357.839 128.792 358.431 128.329 359.171 128.755L404.028 154.643C404.768 155.069 405.36 156.216 405.36 157.197C405.36 158.196 404.768 158.641 404.028 158.215Z"
            fill="white" />
        <path
            d="M427.399 230.829L352.86 187.804C350.75 186.583 349.048 183.326 349.048 180.532V172.093C349.048 169.281 350.75 168.004 352.86 169.206L427.399 212.231C429.509 213.452 431.211 216.709 431.211 219.504V227.942C431.211 230.755 429.509 232.05 427.399 230.829Z"
            fill="#1B2338" />
        <path opacity="0.3"
            d="M356.635 186.176C354.525 184.955 352.823 181.698 352.823 178.904V170.465C352.823 170.021 352.878 169.614 352.971 169.262L352.878 169.207C350.769 167.985 349.066 169.281 349.066 172.094V180.532C349.066 183.345 350.769 186.602 352.878 187.805L427.418 230.829C429.194 231.847 430.656 231.088 431.082 229.164L356.635 186.176Z"
            fill="#06033E" />
        <path
            d="M404.028 207.716L359.171 181.827C358.431 181.402 357.839 180.254 357.839 179.274C357.839 178.293 358.431 177.83 359.171 178.256L404.028 204.145C404.768 204.57 405.36 205.718 405.36 206.698C405.36 207.698 404.768 208.142 404.028 207.716Z"
            fill="white" />
        <path
            d="M427.399 280.793L352.86 237.768C350.75 236.547 349.048 233.29 349.048 230.496V222.057C349.048 219.245 350.75 217.968 352.86 219.171L427.399 262.195C429.509 263.417 431.211 266.673 431.211 269.468V277.906C431.211 280.719 429.509 282.014 427.399 280.793Z"
            fill="#1B2338" />
        <path opacity="0.3"
            d="M356.635 236.14C354.525 234.919 352.823 231.662 352.823 228.868V220.429C352.823 219.985 352.878 219.578 352.971 219.226L352.878 219.171C350.769 217.95 349.066 219.245 349.066 222.058V230.496C349.066 233.309 350.769 236.566 352.878 237.769L427.418 280.793C429.194 281.811 430.656 281.052 431.082 279.128L356.635 236.14Z"
            fill="#06033E" />
        <path
            d="M404.028 257.68L359.171 231.792C358.431 231.366 357.839 230.219 357.839 229.238C357.839 228.257 358.431 227.794 359.171 228.22L404.028 254.109C404.768 254.534 405.36 255.682 405.36 256.663C405.36 257.662 404.768 258.106 404.028 257.68Z"
            fill="#D4ECFF" />
        <path
            d="M427.399 331.22L352.86 288.195C350.75 286.974 349.048 283.717 349.048 280.923V272.484C349.048 269.671 350.75 268.395 352.86 269.597L427.399 312.622C429.509 313.843 431.211 317.1 431.211 319.894V328.333C431.211 331.146 429.509 332.441 427.399 331.22Z"
            fill="#1B2338" />
        <path opacity="0.3"
            d="M356.635 286.567C354.525 285.346 352.823 282.089 352.823 279.294V270.856C352.823 270.412 352.878 270.005 352.971 269.653L352.878 269.598C350.769 268.376 349.066 269.672 349.066 272.484V280.923C349.066 283.736 350.769 286.993 352.878 288.195L427.418 331.22C429.194 332.238 430.656 331.479 431.082 329.555L356.635 286.567Z"
            fill="#06033E" />
        <path
            d="M404.028 308.107L359.171 282.218C358.431 281.793 357.839 280.645 357.839 279.665C357.839 278.684 358.431 278.221 359.171 278.647L404.028 304.536C404.768 304.961 405.36 306.108 405.36 307.089C405.36 308.089 404.768 308.533 404.028 308.107Z"
            fill="#FF2C9C" />
        <path
            d="M427.399 380.647L352.86 337.623C350.75 336.401 349.048 333.145 349.048 330.35V321.912C349.048 319.099 350.75 317.822 352.86 319.025L427.399 362.05C429.509 363.271 431.211 366.528 431.211 369.322V377.761C431.211 380.573 429.509 381.869 427.399 380.647Z"
            fill="#1B2338" />
        <path opacity="0.3"
            d="M356.635 336.012C354.525 334.791 352.823 331.534 352.823 328.74V320.302C352.823 319.857 352.878 319.45 352.971 319.099L352.878 319.043C350.769 317.822 349.066 319.117 349.066 321.93V330.368C349.066 333.181 350.769 336.438 352.878 337.641L427.418 380.666C429.194 381.683 430.656 380.925 431.082 379L356.635 336.012Z"
            fill="#06033E" />
        <path
            d="M404.028 357.535L359.171 331.646C358.431 331.22 357.839 330.073 357.839 329.092C357.839 328.111 358.431 327.649 359.171 328.074L404.028 353.963C404.768 354.389 405.36 355.536 405.36 356.517C405.36 357.516 404.768 357.96 404.028 357.535Z"
            fill="#D4ECFF" />
        <path opacity="0.5" d="M337.186 103.92L344.976 108.417V139.913L337.186 135.416V103.92Z" fill="#173D7A" />
        <path opacity="0.5" d="M337.186 153.737L344.976 158.233V189.729L337.186 185.232V153.737Z" fill="#173D7A" />
        <path opacity="0.5" d="M337.186 203.552L344.976 208.049V239.527L337.186 235.03V203.552Z" fill="#173D7A" />
        <path opacity="0.5" d="M337.186 253.369L344.976 257.865V289.343L337.186 284.846V253.369Z" fill="#173D7A" />
        <path opacity="0.5" d="M337.186 303.185L344.976 307.681V339.159L337.186 334.662V303.185Z" fill="#173D7A" />
        <path
            d="M412.854 161.324C412.854 162.323 412.151 162.73 411.281 162.23C410.411 161.731 409.708 160.509 409.708 159.492C409.708 158.492 410.411 158.085 411.281 158.585C412.151 159.085 412.854 160.324 412.854 161.324Z"
            fill="#D4ECFF" />
        <path
            d="M419.535 165.191C419.535 166.19 418.831 166.598 417.962 166.098C417.092 165.598 416.389 164.377 416.389 163.359C416.389 162.36 417.092 161.953 417.962 162.452C418.831 162.952 419.535 164.173 419.535 165.191Z"
            fill="#FF2C9C" />
        <path
            d="M425.792 170.059C426.412 169.701 426.413 168.543 425.794 167.472C425.176 166.401 424.172 165.823 423.552 166.181C422.933 166.539 422.932 167.697 423.55 168.768C424.169 169.839 425.173 170.417 425.792 170.059Z"
            fill="#D4ECFF" />
        <path
            d="M412.854 211.103C412.854 212.102 412.151 212.509 411.281 212.01C410.411 211.51 409.708 210.289 409.708 209.271C409.708 208.271 410.411 207.864 411.281 208.364C412.151 208.882 412.854 210.103 412.854 211.103Z"
            fill="#FF2C9C" />
        <path
            d="M419.535 214.97C419.535 215.97 418.831 216.377 417.962 215.877C417.092 215.377 416.389 214.156 416.389 213.138C416.389 212.121 417.092 211.732 417.962 212.232C418.831 212.75 419.535 213.971 419.535 214.97Z"
            fill="#D4ECFF" />
        <path
            d="M426.233 218.838C426.233 219.837 425.53 220.244 424.66 219.745C423.79 219.245 423.087 218.024 423.087 217.006C423.087 216.007 423.79 215.599 424.66 216.099C425.53 216.599 426.233 217.82 426.233 218.838Z"
            fill="white" />
        <path
            d="M412.854 261.27C412.854 262.27 412.151 262.677 411.281 262.177C410.411 261.677 409.708 260.456 409.708 259.438C409.708 258.421 410.411 258.032 411.281 258.532C412.151 259.05 412.854 260.271 412.854 261.27Z"
            fill="white" />
        <path
            d="M419.535 265.138C419.535 266.137 418.831 266.544 417.962 266.045C417.092 265.545 416.389 264.324 416.389 263.306C416.389 262.307 417.092 261.899 417.962 262.399C418.831 262.899 419.535 264.12 419.535 265.138Z"
            fill="#FF2C9C" />
        <path
            d="M426.233 269.006C426.233 270.005 425.53 270.412 424.66 269.912C423.79 269.413 423.087 268.191 423.087 267.174C423.087 266.174 423.79 265.767 424.66 266.267C425.53 266.766 426.233 267.988 426.233 269.006Z"
            fill="white" />
        <path
            d="M412.854 310.698C412.854 311.697 412.151 312.104 411.281 311.604C410.411 311.105 409.708 309.883 409.708 308.866C409.708 307.866 410.411 307.459 411.281 307.959C412.151 308.477 412.854 309.698 412.854 310.698Z"
            fill="white" />
        <path
            d="M419.535 314.565C419.535 315.565 418.831 315.972 417.962 315.472C417.092 314.972 416.389 313.751 416.389 312.733C416.389 311.716 417.092 311.327 417.962 311.827C418.831 312.345 419.535 313.566 419.535 314.565Z"
            fill="#D4ECFF" />
        <path
            d="M426.233 318.433C426.233 319.432 425.53 319.839 424.66 319.34C423.79 318.84 423.087 317.619 423.087 316.601C423.087 315.583 423.79 315.195 424.66 315.694C425.53 316.194 426.233 317.415 426.233 318.433Z"
            fill="#D4ECFF" />
        <path
            d="M412.854 360.81C412.854 361.809 412.151 362.216 411.281 361.717C410.411 361.217 409.708 359.996 409.708 358.978C409.708 357.978 410.411 357.571 411.281 358.071C412.151 358.589 412.854 359.81 412.854 360.81Z"
            fill="white" />
        <path
            d="M419.535 364.678C419.535 365.677 418.831 366.084 417.962 365.584C417.092 365.085 416.389 363.863 416.389 362.845C416.389 361.846 417.092 361.439 417.962 361.939C418.831 362.438 419.535 363.678 419.535 364.678Z"
            fill="#FF2C9C" />
        <path
            d="M425.795 369.549C426.415 369.192 426.415 368.034 425.797 366.963C425.179 365.892 424.175 365.313 423.555 365.671C422.936 366.029 422.935 367.187 423.553 368.258C424.172 369.329 425.175 369.907 425.795 369.549Z"
            fill="#D4ECFF" />
        <path opacity="0.2"
            d="M460.469 382.961V160.065L460.931 159.806L554.087 106.03V328.907L553.624 329.166L460.469 382.961ZM462.301 161.139V379.759L552.218 327.852V109.231L462.301 161.139Z"
            fill="black" />
        <path
            d="M529.862 206.31L488.096 230.422C485.283 232.051 483.007 230.33 483.007 226.573V203.423C483.007 199.685 485.283 195.336 488.096 193.708L529.862 169.596C532.675 167.967 534.951 169.688 534.951 173.445V196.595C534.951 200.351 532.675 204.682 529.862 206.31Z"
            fill="url(#paint12_linear_275_13294)" />
        <path opacity="0.2"
            d="M530.881 169.152C531.121 169.799 531.251 170.576 531.251 171.465V194.615C531.251 198.353 528.975 202.702 526.162 204.33L484.396 228.442C484.044 228.646 483.711 228.794 483.378 228.886C484.137 230.94 485.95 231.644 488.078 230.404L529.845 206.292C532.657 204.663 534.934 200.333 534.934 196.576V173.445C534.952 170.169 533.213 168.448 530.881 169.152Z"
            fill="black" />
        <path
            d="M522.24 192.357C523.018 191.913 523.647 192.265 523.647 193.171V198.445C523.647 199.333 523.018 200.425 522.24 200.869C521.463 201.314 520.834 200.962 520.834 200.055V194.781C520.852 193.893 521.463 192.801 522.24 192.357Z"
            fill="white" />
        <path
            d="M516.243 196.484C517.021 196.04 517.65 196.391 517.65 197.298V201.906C517.65 202.794 517.021 203.886 516.243 204.33C515.466 204.774 514.837 204.422 514.837 203.516V198.908C514.855 198.02 515.485 196.928 516.243 196.484Z"
            fill="#D4ECFF" />
        <path
            d="M510.266 194.8C511.043 194.356 511.672 194.707 511.672 195.614V205.385C511.672 206.273 511.043 207.365 510.266 207.809C509.489 208.253 508.859 207.901 508.859 206.995V197.224C508.859 196.317 509.489 195.244 510.266 194.8Z"
            fill="#FF2C9C" />
        <path
            d="M504.271 192.616C505.048 192.172 505.677 192.524 505.677 193.43V208.827C505.677 209.715 505.048 210.807 504.271 211.251C503.493 211.695 502.864 211.343 502.864 210.437V195.04C502.864 194.152 503.493 193.06 504.271 192.616Z"
            fill="#D4ECFF" />
        <path
            d="M498.276 197.705C499.053 197.261 499.682 197.613 499.682 198.519V212.306C499.682 213.194 499.053 214.286 498.276 214.73C497.498 215.174 496.869 214.822 496.869 213.916V200.129C496.888 199.223 497.498 198.149 498.276 197.705Z"
            fill="#D4ECFF" />
        <path
            d="M492.279 207.457C493.057 207.013 493.686 207.365 493.686 208.272V215.748C493.686 216.636 493.057 217.728 492.279 218.172C491.502 218.616 490.873 218.264 490.873 217.358V209.882C490.892 208.975 491.521 207.901 492.279 207.457Z"
            fill="white" />
        <path
            d="M520.87 189.692C520.87 190.562 521.481 190.932 522.24 190.488C522.998 190.044 523.609 188.989 523.609 188.101C523.609 187.231 522.998 186.861 522.24 187.305C521.481 187.749 520.87 188.823 520.87 189.692Z"
            fill="#FF2C9C" />
        <path
            d="M520.87 184.733C520.87 185.603 521.481 185.973 522.24 185.529C522.998 185.085 523.609 184.03 523.609 183.142C523.609 182.253 522.998 181.902 522.24 182.346C521.481 182.79 520.87 183.863 520.87 184.733Z"
            fill="white" />
    </g>




    <path class="cloudshadow1" d="M193.82 633.882L2.94531 523.823L58.5742 491.702L249.448 601.779L193.82 633.882Z"
        fill="url(#paint13_linear_275_13294)" />
    <path opacity="0.2" class="cloudshadow2"
        d="M193.819 608.559C193.306 608.559 192.809 608.422 192.347 608.165L1.47248 498.089C0.565022 497.558 0 496.599 0 495.538C0 494.493 0.565022 493.517 1.47248 492.986L57.1013 460.866C58.0088 460.335 59.1217 460.335 60.0463 460.866L250.921 570.942C251.828 571.473 252.393 572.432 252.393 573.493C252.393 574.538 251.828 575.514 250.921 576.044L195.292 608.165C194.829 608.422 194.333 608.559 193.819 608.559ZM8.81774 495.538L193.802 602.224L243.541 573.51L58.5738 466.824L8.81774 495.538Z"
        fill="#9179D6" />
    <g class="cloud">
        <path
            d="M91.9946 518.121C90.6934 518.121 89.6318 517.06 89.6318 515.758V441.244C89.6318 439.943 90.6934 438.881 91.9946 438.881C93.2959 438.881 94.3575 439.943 94.3575 441.244V515.758C94.3403 517.077 93.2959 518.121 91.9946 518.121Z"
            fill="#396CAA" />
        <path
            d="M80.3184 432.82V483.158C80.3184 484.888 81.4655 486.6 83.7427 487.918C88.2971 490.555 95.6767 490.555 100.231 487.918C102.508 486.6 103.638 484.888 103.638 483.158V432.82H80.3184Z"
            fill="url(#paint14_radial_275_13294)" />
        <path
            d="M80.3184 441.09V458.126C87.1671 461.26 96.8067 461.26 103.638 458.126V441.09C96.8067 437.974 87.1671 437.974 80.3184 441.09Z"
            fill="#396CAA" />
        <path
            d="M110.88 362.655H73.0752V441.604C73.0752 444.394 74.9243 447.185 78.6055 449.326C85.9851 453.589 97.9532 453.589 105.333 449.326C109.031 447.202 110.863 444.394 110.863 441.604V362.655H110.88Z"
            fill="url(#paint15_radial_275_13294)" />
        <path
            d="M88.7069 475.505C88.7069 477.816 87.0803 478.758 85.0771 477.594C83.0738 476.43 81.4473 473.622 81.4473 471.31C81.4473 468.999 83.0738 468.057 85.0771 469.221C87.0974 470.368 88.7069 473.193 88.7069 475.505Z"
            fill="#D4ECFF" />
        <path
            d="M165.277 560.498C163.976 560.498 162.914 559.436 162.914 558.135V483.621C162.914 482.319 163.976 481.258 165.277 481.258C166.578 481.258 167.64 482.319 167.64 483.621V558.135C167.64 559.436 166.578 560.498 165.277 560.498Z"
            fill="#396CAA" />
        <path
            d="M153.617 475.18V525.518C153.617 527.247 154.764 528.959 157.042 530.278C161.596 532.915 168.975 532.915 173.53 530.278C175.807 528.959 176.954 527.247 176.954 525.518V475.18H153.617Z"
            fill="url(#paint16_radial_275_13294)" />
        <path
            d="M153.617 483.467V500.503C160.466 503.636 170.106 503.636 176.937 500.503V483.467C170.106 480.333 160.466 480.333 153.617 483.467Z"
            fill="#396CAA" />
        <path
            d="M184.179 405.031H146.374V483.98C146.374 486.771 148.223 489.562 151.904 491.702C159.284 495.966 171.252 495.966 178.632 491.702C182.33 489.579 184.162 486.771 184.162 483.98V405.031H184.179Z"
            fill="url(#paint17_radial_275_13294)" />
        <path
            d="M162.006 517.864C162.006 520.176 160.379 521.117 158.376 519.953C156.373 518.789 154.746 515.981 154.746 513.669C154.746 511.358 156.373 510.416 158.376 511.581C160.379 512.728 162.006 515.553 162.006 517.864Z"
            fill="#D4ECFF" />
        <path
            d="M19.5527 305.519L69.7197 276.652C69.7197 276.652 67.8363 305.468 67.8363 305.519C67.8363 305.571 39.0203 314.44 39.0203 314.44L19.5527 305.519Z"
            fill="url(#paint18_linear_275_13294)" />
        <path
            d="M288.331 471.67C288.331 451.414 274.103 426.776 256.57 416.64C252.752 414.431 249.105 413.147 245.715 412.616C240.664 386.026 222.155 357.792 200.102 345.054C193.459 341.218 187.158 339.181 181.439 338.736C178.426 306.512 156.013 269.889 128.807 254.188C114.596 245.987 101.703 245.011 92.1832 250.045V250.027L91.7209 250.301C91.4812 250.438 91.2415 250.575 91.0018 250.712L61.4153 268.194L71.2432 275.967C62.4255 279.819 56.8438 289.716 56.8438 304.355C56.8438 331.339 75.7805 364.144 99.1518 377.636L243.386 480.641L247.838 510.656L279 492.301C279.034 492.284 279.051 492.267 279.085 492.25L279.274 492.147C284.855 488.706 288.331 481.652 288.331 471.67Z"
            fill="url(#paint19_linear_275_13294)" />
        <path
            d="M58.2822 292.438L126.187 252.767C113.004 245.884 101.087 245.319 92.1663 250.045V250.027L91.704 250.301C91.4643 250.438 91.2246 250.575 90.9849 250.712L61.3984 268.194L71.2263 275.967C65.0625 278.621 60.4909 284.288 58.2822 292.438Z"
            fill="url(#paint20_linear_275_13294)" />
        <path
            d="M183.683 409.158L233.234 380.085C224.741 365.394 213.03 352.553 200.086 345.071C198.374 344.078 196.678 343.222 195.018 342.468L131.992 379.332L183.683 409.158Z"
            fill="url(#paint21_linear_275_13294)" />
        <path opacity="0.5"
            d="M75.3525 271.413L97.4397 284.168L137.881 260.352C134.937 258.058 131.889 255.986 128.79 254.188C123.893 251.363 119.15 249.411 114.664 248.247L75.3525 271.413Z"
            fill="url(#paint22_linear_275_13294)" />
        <path opacity="0.5"
            d="M227.772 371.524L188.221 394.827L201.97 410.168L237.874 388.971C235.049 382.893 231.625 377.003 227.772 371.524Z"
            fill="url(#paint23_linear_275_13294)" />
        <path
            d="M225.494 434.943C221.676 432.735 218.029 431.45 214.639 430.92C209.588 404.329 191.079 376.095 169.026 363.357C162.4 359.522 156.082 357.484 150.364 357.039C147.35 324.816 124.938 288.192 97.7311 272.474C68.4698 255.575 44.7561 269.272 44.7561 303.054C44.7561 304.201 44.7903 305.348 44.8417 306.512C23.4394 296.582 6.72852 307.762 6.72852 333.12C6.72852 360.104 25.6653 392.909 49.0366 406.401L225.511 508.293C243.061 518.429 257.289 510.211 257.289 489.956C257.255 469.701 243.044 445.062 225.494 434.943Z"
            fill="url(#paint24_linear_275_13294)" />
        <path
            d="M44.8241 306.529C44.7728 305.365 44.7385 304.218 44.7385 303.071C44.7385 303.019 44.7385 302.968 44.7385 302.934C32.9244 298.345 22.7541 300.331 16.3848 307.711C23.3191 302.009 33.3867 301.222 44.8241 306.529Z"
            fill="white" />
        <path
            d="M228.079 432.426C224.261 430.218 220.614 428.933 217.224 428.403C212.173 401.812 193.665 373.579 171.612 360.84C164.985 357.005 158.668 354.967 152.949 354.522C149.935 322.299 127.523 285.675 100.316 269.957C82.0815 259.427 66.0041 260.78 56.4844 271.464C66.1925 263.16 81.0713 262.852 97.748 272.474C124.955 288.175 147.367 324.798 150.381 357.022C156.099 357.467 162.417 359.504 169.043 363.34C191.096 376.078 209.605 404.312 214.656 430.902C218.046 431.433 221.693 432.717 225.511 434.926C243.061 445.062 257.272 469.683 257.272 489.956C257.272 497.267 255.406 502.985 252.204 506.855C256.964 503.191 259.858 496.548 259.858 487.439C259.84 467.184 245.629 442.545 228.079 432.426Z"
            fill="white" />
        <path
            d="M41.0926 314.577L54.362 320.724L53.6943 306.119C53.6429 305.091 53.6087 304.081 53.6087 303.071C53.6087 290.024 57.5467 280.573 64.6865 276.447C71.8263 272.32 81.9967 273.639 93.28 280.162C117.559 294.185 138.756 328.309 141.512 357.861L142.214 365.309L149.662 365.874C154.251 366.233 159.268 367.963 164.575 371.028C183.872 382.157 201.25 408.045 205.907 432.563L207.072 438.693L213.236 439.652C215.701 440.046 218.321 441.022 221.026 442.597C235.836 451.158 248.352 472.834 248.352 489.939C248.352 496.342 246.572 501.034 243.49 502.831C240.391 504.612 235.443 503.807 229.895 500.606L53.4546 398.731C32.9255 386.882 15.5811 356.834 15.5811 333.137C15.5811 323.84 18.3206 316.751 23.1147 313.686C25.0837 312.437 27.4636 311.803 30.1517 311.803C33.4049 311.82 37.1203 312.745 41.0926 314.577Z"
            fill="url(#paint25_linear_275_13294)" />
        <path d="M129.165 425.184L133.822 422.838L129.251 419.38L129.165 425.184Z"
            fill="url(#paint26_linear_275_13294)" />
        <path d="M115.194 362.295L119.715 360.018L119.8 362.381L115.194 362.295Z" fill="#5793CE" />
        <path d="M142.453 410.476L147.161 408.113L138.087 399.484L142.453 410.476Z"
            fill="url(#paint27_linear_275_13294)" />
        <path
            d="M132.47 422.701L110.434 409.723C109.322 409.072 108.414 407.412 108.414 406.025L108.483 380.513L134.576 395.871L134.508 421.383C134.491 422.77 133.583 423.352 132.47 422.701Z"
            fill="url(#paint28_linear_275_13294)" />
        <path
            d="M119.663 360.035L95.8641 375.359C94.8539 376.01 95.6757 378.424 97.1996 379.332L121.513 393.645L145.826 407.959C147.367 408.867 148.188 407.411 147.178 405.579L123.533 362.312C122.523 360.463 120.691 359.385 119.663 360.035Z"
            fill="url(#paint29_linear_275_13294)" />
        <path
            d="M127.745 425.081L105.709 412.103C104.596 411.452 103.688 409.791 103.688 408.404L103.757 382.893L129.851 398.251L129.782 423.763C129.765 425.15 128.858 425.732 127.745 425.081Z"
            fill="#D4ECFF" />
        <path
            d="M114.938 362.415L91.1385 377.739C90.1283 378.39 90.9501 380.804 92.474 381.711L116.787 396.025L141.1 410.339C142.641 411.247 143.463 409.791 142.453 407.959L118.807 364.692C117.797 362.843 115.965 361.765 114.938 362.415Z"
            fill="#D4ECFF" />
    </g>




    <path class="boxshadow1" style="animation-delay:.7s"
        d="M91.8785 178.342L50.0752 154.193L91.8785 130.062L133.682 154.193L91.8785 178.342Z"
        fill="url(#paint30_linear_275_13294)" />
    <path class="boxshadow2" style="animation-delay:.7s" opacity="0.2"
        d="M91.8778 163.39C91.3226 163.39 90.786 163.242 90.2863 162.964L48.4831 138.833C47.5023 138.26 46.8916 137.205 46.8916 136.076C46.8916 134.947 47.5023 133.892 48.4831 133.319L90.2863 109.188C91.2671 108.614 92.4885 108.614 93.4692 109.188L135.273 133.319C136.253 133.892 136.864 134.929 136.864 136.076C136.864 137.223 136.253 138.26 135.273 138.833L93.4692 162.964C92.9696 163.242 92.4329 163.39 91.8778 163.39ZM56.4218 136.076L91.8778 156.543L127.334 136.076L91.8778 115.609L56.4218 136.076Z"
        fill="#9179D6" />

    <g class="box" style="animation-delay:.7s">
        <path d="M133.68 117.219L91.877 141.35V93.0883L133.68 68.939V117.219Z" fill="url(#paint31_linear_275_13294)" />
        <path d="M91.8785 93.0882L50.0752 68.9389L91.8785 44.8081L133.682 68.9389L91.8785 93.0882Z"
            fill="url(#paint32_linear_275_13294)" />
        <path d="M91.8785 141.35L50.0752 117.219V68.939L91.8785 93.0883V141.35Z"
            fill="url(#paint33_linear_275_13294)" />
        <path d="M76.8144 115.276L65.1191 108.522V95.0312L76.8144 101.767V115.276Z" fill="white" />
    </g>
    <path class="" style="animation-delay:1.2s"
        d="M393.03 651.412L351.227 627.281L393.03 603.15L434.833 627.281L393.03 651.412Z"
        fill="url(#paint34_linear_275_13294)" />
    <path class="boxshadow2" opacity="0.2" style="animation-delay:1.2s"
        d="M393.029 636.478C392.474 636.478 391.937 636.33 391.438 636.053L349.634 611.922C348.654 611.348 348.043 610.312 348.043 609.165C348.043 608.036 348.654 606.981 349.634 606.407L391.438 582.277C392.418 581.703 393.64 581.703 394.621 582.277L436.424 606.407C437.405 606.981 438.015 608.017 438.015 609.165C438.015 610.294 437.405 611.348 436.424 611.922L394.621 636.053C394.139 636.33 393.584 636.478 393.029 636.478ZM357.592 609.146L393.048 629.613L428.504 609.146L393.029 588.698L357.592 609.146Z"
        fill="black" />
    <g class="box" style="animation-delay:1.2s">
        <path d="M434.832 590.289L393.028 614.439V566.159L434.832 542.028V590.289Z"
            fill="url(#paint35_linear_275_13294)" />
        <path d="M393.03 566.159L351.227 542.028L393.03 517.897L434.833 542.028L393.03 566.159Z"
            fill="url(#paint36_linear_275_13294)" />
        <path d="M393.03 614.439L351.227 590.289V542.028L393.03 566.159V614.439Z"
            fill="url(#paint37_linear_275_13294)" />
        <path d="M377.984 588.365L366.289 581.61V568.102L377.984 574.856V588.365Z" fill="white" />
    </g>
    <path class="boxshadow1" style="animation-delay:.4s"
        d="M207.546 270.042L165.743 245.893L207.546 221.762L249.35 245.893L207.546 270.042Z"
        fill="url(#paint38_linear_275_13294)" />
    <path class="boxshadow2" opacity="0.2" style="animation-delay:.4s"
        d="M207.546 255.09C206.991 255.09 206.454 254.942 205.954 254.664L164.151 230.533C163.17 229.959 162.56 228.923 162.56 227.776C162.56 226.647 163.17 225.592 164.151 225.019L205.954 200.888C206.935 200.314 208.156 200.314 209.137 200.888L250.94 225.019C251.921 225.592 252.532 226.629 252.532 227.776C252.532 228.905 251.921 229.959 250.94 230.533L209.137 254.664C208.656 254.942 208.101 255.09 207.546 255.09ZM172.108 227.776L207.564 248.243L243.002 227.776L207.546 207.309L172.108 227.776Z"
        fill="#9179D6" />
    <g class="box" style="animation-delay:.4s">
        <path d="M249.348 208.919L207.545 233.05V184.788L249.348 160.639V208.919Z"
            fill="url(#paint39_linear_275_13294)" />
        <path d="M207.546 184.788L165.743 160.639L207.546 136.508L249.35 160.639L207.546 184.788Z"
            fill="url(#paint40_linear_275_13294)" />
        <path d="M207.546 233.05L165.743 208.919V160.639L207.546 184.788V233.05Z"
            fill="url(#paint41_linear_275_13294)" />
        <path d="M192.501 206.976L180.806 200.221V186.731L192.501 193.467V206.976Z" fill="white" />
    </g>
    <defs>
        <linearGradient id="paint0_linear_275_13294" x1="445.552" y1="329.587" x2="445.552" y2="469.803"
            gradientUnits="userSpaceOnUse">
            <stop stop-color="#E1CEF2" />
            <stop offset="1" stop-color="#D3B4EF" />
        </linearGradient>
        <linearGradient id="paint1_linear_275_13294" x1="390.656" y1="357.182" x2="581.273" y2="256.381"
            gradientUnits="userSpaceOnUse">
            <stop stop-color="#351053" />
            <stop offset="1" stop-color="#814DB2" />
        </linearGradient>
        <linearGradient id="paint2_linear_275_13294" x1="328.889" y1="43.857" x2="622.623" y2="93.7841"
            gradientUnits="userSpaceOnUse">
            <stop stop-color="#F0F8FF" />
            <stop offset="1" stop-color="#9EC4E2" />
        </linearGradient>
        <linearGradient id="paint3_linear_275_13294" x1="357.221" y1="52.895" x2="381.698" y2="416.555"
            gradientUnits="userSpaceOnUse">
            <stop stop-color="#C3A9D9" />
            <stop offset="1" stop-color="#8C57BC" />
        </linearGradient>
        <linearGradient id="paint4_linear_275_13294" x1="322.836" y1="228.281" x2="422.308" y2="212.887"
            gradientUnits="userSpaceOnUse">
            <stop stop-color="#3919BB" />
            <stop offset="1" stop-color="#6507FA" />
        </linearGradient>
        <linearGradient id="paint5_linear_275_13294" x1="322.836" y1="228.281" x2="422.308" y2="212.887"
            gradientUnits="userSpaceOnUse">
            <stop stop-color="#3919BB" />
            <stop offset="1" stop-color="#6507FA" />
        </linearGradient>
        <linearGradient id="paint6_linear_275_13294" x1="348.125" y1="347.333" x2="458.506" y2="316.085"
            gradientUnits="userSpaceOnUse">
            <stop stop-color="#351053" />
            <stop offset="1" stop-color="#814DB2" />
        </linearGradient>
        <linearGradient id="paint7_linear_275_13294" x1="367.338" y1="99.0526" x2="369.356" y2="192.229"
            gradientUnits="userSpaceOnUse">
            <stop stop-color="#C3A9D9" />
            <stop offset="1" stop-color="#8C57BC" />
        </linearGradient>
        <linearGradient id="paint8_linear_275_13294" x1="367.338" y1="148.869" x2="369.356" y2="242.045"
            gradientUnits="userSpaceOnUse">
            <stop stop-color="#C3A9D9" />
            <stop offset="1" stop-color="#8C57BC" />
        </linearGradient>
        <linearGradient id="paint9_linear_275_13294" x1="367.338" y1="198.685" x2="369.356" y2="291.861"
            gradientUnits="userSpaceOnUse">
            <stop stop-color="#C3A9D9" />
            <stop offset="1" stop-color="#8C57BC" />
        </linearGradient>
        <linearGradient id="paint10_linear_275_13294" x1="367.338" y1="248.501" x2="369.356" y2="341.677"
            gradientUnits="userSpaceOnUse">
            <stop stop-color="#C3A9D9" />
            <stop offset="1" stop-color="#8C57BC" />
        </linearGradient>
        <linearGradient id="paint11_linear_275_13294" x1="367.338" y1="298.318" x2="369.355" y2="391.475"
            gradientUnits="userSpaceOnUse">
            <stop stop-color="#C3A9D9" />
            <stop offset="1" stop-color="#8C57BC" />
        </linearGradient>
        <linearGradient id="paint12_linear_275_13294" x1="493.134" y1="220.094" x2="531.697" y2="193.231"
            gradientUnits="userSpaceOnUse">
            <stop stop-color="#351053" />
            <stop offset="1" stop-color="#814DB2" />
        </linearGradient>
        <linearGradient id="paint13_linear_275_13294" x1="126.197" y1="491.702" x2="126.197" y2="633.882"
            gradientUnits="userSpaceOnUse">
            <stop stop-color="#E1CEF2" />
            <stop offset="1" stop-color="#D3B4EF" />
        </linearGradient>
        <radialGradient id="paint14_radial_275_13294" cx="0" cy="0" r="1" gradientUnits="userSpaceOnUse"
            gradientTransform="translate(78.8774 480.675) scale(21.7978)">
            <stop stop-color="#699DD1" />
            <stop offset="0.2662" stop-color="#6396CC" />
            <stop offset="0.6412" stop-color="#5184BD" />
            <stop offset="1" stop-color="#396CAA" />
        </radialGradient>
        <radialGradient id="paint15_radial_275_13294" cx="0" cy="0" r="1" gradientUnits="userSpaceOnUse"
            gradientTransform="translate(66.6858 457.277) scale(34.467)">
            <stop stop-color="#699DD1" />
            <stop offset="0.2662" stop-color="#6396CC" />
            <stop offset="0.6412" stop-color="#5184BD" />
            <stop offset="1" stop-color="#396CAA" />
        </radialGradient>
        <radialGradient id="paint16_radial_275_13294" cx="0" cy="0" r="1" gradientUnits="userSpaceOnUse"
            gradientTransform="translate(152.172 523.04) scale(21.7978)">
            <stop stop-color="#699DD1" />
            <stop offset="0.2662" stop-color="#6396CC" />
            <stop offset="0.6412" stop-color="#5184BD" />
            <stop offset="1" stop-color="#396CAA" />
        </radialGradient>
        <radialGradient id="paint17_radial_275_13294" cx="0" cy="0" r="1" gradientUnits="userSpaceOnUse"
            gradientTransform="translate(139.98 499.643) scale(34.467)">
            <stop stop-color="#699DD1" />
            <stop offset="0.2662" stop-color="#6396CC" />
            <stop offset="0.6412" stop-color="#5184BD" />
            <stop offset="1" stop-color="#396CAA" />
        </radialGradient>
        <linearGradient id="paint18_linear_275_13294" x1="29.333" y1="307.777" x2="54.2437" y2="280.255"
            gradientUnits="userSpaceOnUse">
            <stop stop-color="#351053" />
            <stop offset="1" stop-color="#814DB2" />
        </linearGradient>
        <linearGradient id="paint19_linear_275_13294" x1="101.973" y1="464.16" x2="268.399" y2="342.575"
            gradientUnits="userSpaceOnUse">
            <stop stop-color="#351053" />
            <stop offset="1" stop-color="#814DB2" />
        </linearGradient>
        <linearGradient id="paint20_linear_275_13294" x1="71.5206" y1="284.42" x2="100.949" y2="247.849"
            gradientUnits="userSpaceOnUse">
            <stop stop-color="#351053" />
            <stop offset="1" stop-color="#814DB2" />
        </linearGradient>
        <linearGradient id="paint21_linear_275_13294" x1="151.73" y1="397.399" x2="194.731" y2="343.072"
            gradientUnits="userSpaceOnUse">
            <stop stop-color="#351053" />
            <stop offset="1" stop-color="#814DB2" />
        </linearGradient>
        <linearGradient id="paint22_linear_275_13294" x1="94.4056" y1="246.274" x2="94.9305" y2="284.052"
            gradientUnits="userSpaceOnUse">
            <stop stop-color="#C3A9D9" />
            <stop offset="1" stop-color="#8C57BC" />
        </linearGradient>
        <linearGradient id="paint23_linear_275_13294" x1="203.35" y1="369.402" x2="204.115" y2="410.036"
            gradientUnits="userSpaceOnUse">
            <stop stop-color="#C3A9D9" />
            <stop offset="1" stop-color="#8C57BC" />
        </linearGradient>
        <linearGradient id="paint24_linear_275_13294" x1="6.71379" y1="388.944" x2="257.263" y2="388.944"
            gradientUnits="userSpaceOnUse">
            <stop stop-color="#D4ECFF" />
            <stop offset="0.2385" stop-color="#D0EAFE" />
            <stop offset="0.4599" stop-color="#C5E2F9" />
            <stop offset="0.6745" stop-color="#B2D6F2" />
            <stop offset="0.8837" stop-color="#98C4E7" />
            <stop offset="1" stop-color="#86B8E0" />
        </linearGradient>
        <linearGradient id="paint25_linear_275_13294" x1="86.5084" y1="261.472" x2="92.2699" y2="502.923"
            gradientUnits="userSpaceOnUse">
            <stop stop-color="#C3A9D9" />
            <stop offset="1" stop-color="#8C57BC" />
        </linearGradient>
        <linearGradient id="paint26_linear_275_13294" x1="130.073" y1="424.16" x2="133.625" y2="421.789"
            gradientUnits="userSpaceOnUse">
            <stop stop-color="#351053" />
            <stop offset="1" stop-color="#814DB2" />
        </linearGradient>
        <linearGradient id="paint27_linear_275_13294" x1="139.856" y1="408.538" x2="146.654" y2="403.868"
            gradientUnits="userSpaceOnUse">
            <stop stop-color="#351053" />
            <stop offset="1" stop-color="#814DB2" />
        </linearGradient>
        <linearGradient id="paint28_linear_275_13294" x1="113.514" y1="415.482" x2="136.355" y2="403.768"
            gradientUnits="userSpaceOnUse">
            <stop stop-color="#351053" />
            <stop offset="1" stop-color="#814DB2" />
        </linearGradient>
        <linearGradient id="paint29_linear_275_13294" x1="105.596" y1="399.704" x2="137.471" y2="371.089"
            gradientUnits="userSpaceOnUse">
            <stop stop-color="#351053" />
            <stop offset="1" stop-color="#814DB2" />
        </linearGradient>
        <linearGradient id="paint30_linear_275_13294" x1="91.8785" y1="130.062" x2="91.8785" y2="178.342"
            gradientUnits="userSpaceOnUse">
            <stop stop-color="#E1CEF2" />
            <stop offset="1" stop-color="#D3B4EF" />
        </linearGradient>
        <linearGradient id="paint31_linear_275_13294" x1="100.027" y1="128.582" x2="137.477" y2="110.589"
            gradientUnits="userSpaceOnUse">
            <stop stop-color="#351053" />
            <stop offset="1" stop-color="#814DB2" />
        </linearGradient>
        <linearGradient id="paint32_linear_275_13294" x1="52.4873" y1="56.1374" x2="150.747" y2="78.2199"
            gradientUnits="userSpaceOnUse">
            <stop stop-color="#F0F8FF" />
            <stop offset="1" stop-color="#9EC4E2" />
        </linearGradient>
        <linearGradient id="paint33_linear_275_13294" x1="70.9768" y1="68.939" x2="70.9768" y2="141.35"
            gradientUnits="userSpaceOnUse">
            <stop stop-color="#E1CEF2" />
            <stop offset="1" stop-color="#D3B4EF" />
        </linearGradient>
        <linearGradient id="paint34_linear_275_13294" x1="393.03" y1="603.15" x2="393.03" y2="651.412"
            gradientUnits="userSpaceOnUse">
            <stop stop-color="#E1CEF2" />
            <stop offset="1" stop-color="#D3B4EF" />
        </linearGradient>
        <linearGradient id="paint35_linear_275_13294" x1="401.178" y1="601.671" x2="438.629" y2="583.678"
            gradientUnits="userSpaceOnUse">
            <stop stop-color="#351053" />
            <stop offset="1" stop-color="#814DB2" />
        </linearGradient>
        <linearGradient id="paint36_linear_275_13294" x1="353.639" y1="529.222" x2="451.895" y2="551.312"
            gradientUnits="userSpaceOnUse">
            <stop stop-color="#F0F8FF" />
            <stop offset="1" stop-color="#9EC4E2" />
        </linearGradient>
        <linearGradient id="paint37_linear_275_13294" x1="372.128" y1="542.028" x2="372.128" y2="614.439"
            gradientUnits="userSpaceOnUse">
            <stop stop-color="#E1CEF2" />
            <stop offset="1" stop-color="#D3B4EF" />
        </linearGradient>
        <linearGradient id="paint38_linear_275_13294" x1="207.546" y1="221.762" x2="207.546" y2="270.042"
            gradientUnits="userSpaceOnUse">
            <stop stop-color="#E1CEF2" />
            <stop offset="1" stop-color="#D3B4EF" />
        </linearGradient>
        <linearGradient id="paint39_linear_275_13294" x1="215.695" y1="220.282" x2="253.145" y2="202.289"
            gradientUnits="userSpaceOnUse">
            <stop stop-color="#351053" />
            <stop offset="1" stop-color="#814DB2" />
        </linearGradient>
        <linearGradient id="paint40_linear_275_13294" x1="207.546" y1="136.508" x2="207.546" y2="184.788"
            gradientUnits="userSpaceOnUse">
            <stop stop-color="#E1CEF2" />
            <stop offset="1" stop-color="#D3B4EF" />
        </linearGradient>
        <linearGradient id="paint41_linear_275_13294" x1="186.645" y1="160.639" x2="186.645" y2="233.05"
            gradientUnits="userSpaceOnUse">
            <stop stop-color="#E1CEF2" />
            <stop offset="1" stop-color="#D3B4EF" />
        </linearGradient>
    </defs>


    <style>
        .server {
            animation: server 3s ease-in-out infinite;
        }

        @keyframes server {
            0% {
                transform: translateY(0)
            }

            50% {
                transform: translateY(10px)
            }

            100% {
                transform: translateY(0)
            }
        }

        .shadow1 {
            animation: shadow1 3s ease-in-out infinite;
        }

        .shadow2 {
            animation: shadow2 3s ease-in-out infinite;
        }

        @keyframes shadow1 {
            0% {
                transform: translateY(0)
            }

            50% {
                transform: translateY(-4px)
            }

            100% {
                transform: translateY(0)
            }
        }

        @keyframes shadow2 {
            0% {
                transform: translateY(0)
            }

            50% {
                transform: translateY(-2px)
            }

            100% {
                transform: translateY(0)
            }
        }

        .box {
            animation: box 3s ease-in-out infinite;
        }

        .boxshadow1 {
            animation: boxshadow1 3s ease-in-out infinite;
        }

        .boxshadow2 {
            animation: boxshadow2 3s ease-in-out infinite;
        }

        @keyframes box {
            0% {
                transform: translateY(0)
            }

            50% {
                transform: translateY(8px)
            }

            100% {
                transform: translateY(0)
            }
        }


        @keyframes boxshadow1 {
            0% {
                transform: translateY(0)
            }

            50% {
                transform: translateY(4px)
            }

            100% {
                transform: translateY(0)
            }
        }

        @keyframes boxshadow2 {
            0% {
                transform: translateY(0)
            }

            50% {
                transform: translateY(2px)
            }

            100% {
                transform: translateY(0)
            }
        }

        .cloud {
            animation: cloud 3s ease-in-out infinite;
        }

        .cloudshadow1 {
            animation: cloudshadow1 3s ease-in-out infinite;
        }

        .cloudshadow2 {
            animation: cloudshadow2 3s ease-in-out infinite;
        }


        @keyframes cloud {
            0% {
                transform: translateY(0)
            }

            50% {
                transform: translateY(8px)
            }

            100% {
                transform: translateY(0)
            }
        }

        @keyframes cloudshadow1 {
            0% {
                transform: translateY(0)
            }

            50% {
                transform: translateY(-8px)
            }

            100% {
                transform: translateY(0)
            }
        }

        @keyframes cloudshadow2 {
            0% {
                transform: translateY(0)
            }

            50% {
                transform: translateY(-13px)
            }

            100% {
                transform: translateY(0)
            }
        }
    </style>
</svg>