<svg width="327" height="259" viewBox="0 0 327 259" fill="none" xmlns="http://www.w3.org/2000/svg">
    <path class="line" d="M247 169L324.5 213L246.5 257.5L41 139L117.5 95L-23 13.5"
        stroke="url(#paint0_linear_285_16026)" stroke-width="2" />
    <path opacity="0.4" class="shadow"
        d="M223.648 199.644L170.988 169.233C167.764 167.359 168.167 164.115 171.895 161.958L222.741 132.596C226.469 130.439 232.112 130.197 235.356 132.072L288.015 162.482C291.24 164.356 290.837 167.601 287.108 169.757L236.263 199.12C232.515 201.276 226.872 201.498 223.648 199.644Z"
        fill="url(#paint1_linear_285_16026)" />
    <g class="figure">
        <path
            d="M305.468 139.327V116.574L254.461 116.554L236.828 106.377C232.777 104.039 225.703 104.341 221.048 107.022L204.603 116.514L153.536 116.494V139.891C153.415 141.463 154.302 142.994 156.257 144.123L222.197 182.191C226.247 184.529 233.321 184.227 237.976 181.547L301.639 144.788C304.319 143.216 305.629 141.201 305.468 139.327Z"
            fill="url(#paint2_linear_285_16026)" />
        <path
            d="M229.492 104.805C226.529 104.886 223.466 105.631 221.027 107.022L204.583 116.514L153.516 116.494V139.891C153.395 141.463 154.282 142.995 156.236 144.123L222.176 182.192C224.111 183.32 226.771 183.824 229.512 183.764V104.805H229.492Z"
            fill="url(#paint3_linear_285_16026)" />
        <path d="M159.3 116.494H153.516V139.891C153.395 141.463 154.282 142.994 156.236 144.123L159.3 145.896V116.494Z"
            fill="url(#paint4_linear_285_16026)" />
        <path d="M223.185 182.695C226.671 184.187 231.729 184.106 235.8 182.554V155.993H223.185V182.695Z"
            fill="url(#paint5_linear_285_16026)" />
        <path
            d="M222.176 158.875L156.237 120.806C152.186 118.469 152.69 114.398 157.365 111.697L221.028 74.9386C225.703 72.2382 232.777 71.9561 236.807 74.2938L302.747 112.362C306.798 114.7 306.294 118.771 301.618 121.471L237.956 158.23C233.28 160.91 226.227 161.213 222.176 158.875Z"
            fill="url(#paint6_linear_285_16026)" />
        <path
            d="M223.365 152.023L168.107 120.121C164.721 118.166 165.144 114.74 169.054 112.483L222.398 81.6695C226.308 79.4123 232.233 79.1705 235.638 81.1253L290.897 113.027C294.283 114.982 293.86 118.408 289.95 120.665L236.606 151.479C232.676 153.736 226.751 153.978 223.365 152.023Z"
            fill="white" />
        <path
            d="M281.224 145.332C281.224 147.025 280.035 149.101 278.563 149.947C277.092 150.794 275.903 150.109 275.903 148.416C275.903 146.723 277.092 144.647 278.563 143.801C280.035 142.954 281.224 143.64 281.224 145.332Z"
            fill="#D4ECFF" />
        <path
            d="M289.788 140.375C289.788 142.068 288.599 144.143 287.128 144.99C285.657 145.836 284.468 145.151 284.468 143.458C284.468 141.765 285.657 139.69 287.128 138.843C288.599 137.997 289.788 138.682 289.788 140.375Z"
            fill="#D4ECFF" />
        <path
            d="M298.354 135.437C298.354 137.13 297.165 139.206 295.693 140.052C294.222 140.899 293.033 140.213 293.033 138.521C293.033 136.828 294.222 134.752 295.693 133.906C297.165 133.059 298.354 133.744 298.354 135.437Z"
            fill="#D4ECFF" />
        <path
            d="M305.468 102.971V80.2187L254.461 80.1985L236.828 70.0214C232.777 67.6836 225.703 67.9859 221.048 70.6663L204.603 80.1582L153.536 80.1381V103.535C153.415 105.107 154.302 106.639 156.257 107.767L222.197 145.836C226.247 148.174 233.321 147.871 237.976 145.191L301.639 108.433C304.319 106.861 305.629 104.845 305.468 102.971Z"
            fill="url(#paint7_linear_285_16026)" />
        <path
            d="M229.492 68.4497C226.529 68.5303 223.466 69.276 221.027 70.6665L204.583 80.1584L153.516 80.1383V103.536C153.395 105.108 154.282 106.639 156.236 107.768L222.176 145.836C224.111 146.965 226.771 147.469 229.512 147.408V68.4497H229.492Z"
            fill="url(#paint8_linear_285_16026)" />
        <path d="M159.3 80.1382H153.516V103.535C153.395 105.107 154.282 106.639 156.236 107.768L159.3 109.541V80.1382Z"
            fill="url(#paint9_linear_285_16026)" />
        <path d="M223.185 146.32C226.671 147.811 231.729 147.731 235.8 146.179V119.617H223.185V146.32Z"
            fill="url(#paint10_linear_285_16026)" />
        <path
            d="M222.176 122.519L156.237 84.4508C152.186 82.113 152.69 78.0422 157.365 75.3418L221.028 38.5832C225.703 35.8827 232.777 35.6006 236.807 37.9383L302.747 76.0068C306.798 78.3445 306.294 82.4154 301.618 85.1158L237.956 121.874C233.28 124.555 226.227 124.857 222.176 122.519Z"
            fill="url(#paint11_linear_285_16026)" />
        <path
            d="M223.365 115.667L168.107 83.7657C164.721 81.8108 165.144 78.3849 169.054 76.1277L222.398 45.3143C226.308 43.0572 232.233 42.8153 235.638 44.7701L290.897 76.6719C294.283 78.6267 293.86 82.0527 289.95 84.3098L236.606 115.123C232.676 117.38 226.751 117.622 223.365 115.667Z"
            fill="white" />
        <path
            d="M281.224 108.977C281.224 110.67 280.035 112.745 278.563 113.592C277.092 114.438 275.903 113.753 275.903 112.06C275.903 110.367 277.092 108.291 278.563 107.445C280.035 106.578 281.224 107.284 281.224 108.977Z"
            fill="#D4ECFF" />
        <path
            d="M289.788 104.019C289.788 105.712 288.599 107.788 287.128 108.634C285.657 109.481 284.468 108.796 284.468 107.103C284.468 105.41 285.657 103.334 287.128 102.488C288.599 101.641 289.788 102.327 289.788 104.019Z"
            fill="#D4ECFF" />
        <path
            d="M298.354 99.0817C298.354 100.774 297.165 102.85 295.693 103.697C294.222 104.543 293.033 103.858 293.033 102.165C293.033 100.472 294.222 98.3965 295.693 97.55C297.165 96.6835 298.354 97.3888 298.354 99.0817Z"
            fill="#D4ECFF" />
        <path
            d="M305.468 66.6156V43.8632L254.461 43.843L236.828 33.6659C232.777 31.3282 225.703 31.6304 221.048 34.3108L204.603 43.8027L153.536 43.7826V67.1799C153.415 68.7518 154.302 70.2834 156.257 71.4119L222.197 109.48C226.247 111.818 233.321 111.516 237.976 108.836L301.639 72.077C304.319 70.5051 305.629 68.4898 305.468 66.6156Z"
            fill="url(#paint12_linear_285_16026)" />
        <path
            d="M229.492 32.094C226.529 32.1746 223.466 32.9202 221.027 34.3107L204.583 43.8027L153.516 43.7826V67.1799C153.395 68.7518 154.282 70.2834 156.236 71.4119L222.176 109.48C224.111 110.609 226.771 111.113 229.512 111.052V32.094H229.492Z"
            fill="url(#paint13_linear_285_16026)" />
        <path d="M159.3 43.7827H153.516V67.1801C153.395 68.752 154.282 70.2835 156.236 71.4121L159.3 73.1855V43.7827Z"
            fill="url(#paint14_linear_285_16026)" />
        <path d="M223.185 109.964C226.671 111.455 231.729 111.375 235.8 109.823V83.2617H223.185V109.964Z"
            fill="url(#paint15_linear_285_16026)" />
        <path
            d="M222.176 86.1639L156.237 48.0954C152.186 45.7577 152.69 41.6868 157.365 38.9863L221.028 2.22774C225.703 -0.472724 232.777 -0.754877 236.807 1.58284L302.767 39.6312C306.818 41.9689 306.314 46.0398 301.639 48.7402L237.976 85.4989C233.281 88.1994 226.227 88.5016 222.176 86.1639Z"
            fill="url(#paint16_linear_285_16026)" />
        <path
            d="M301.619 44.2663L237.956 81.025C233.281 83.7254 226.207 84.0075 222.177 81.6698L156.237 43.6013C155.33 43.0773 154.665 42.4727 154.222 41.8077C152.831 44.0446 153.456 46.463 156.237 48.0752L222.177 86.1437C226.227 88.4814 233.301 88.1792 237.956 85.4989L301.619 48.7402C305.246 46.6443 306.355 43.7222 304.763 41.4248C304.138 42.4526 303.09 43.4199 301.619 44.2663Z"
            fill="white" />
        <path
            d="M281.224 72.6212C281.224 74.3141 280.035 76.3898 278.563 77.2363C277.092 78.0827 275.903 77.3975 275.903 75.7046C275.903 74.0118 277.092 71.936 278.563 71.0896C280.035 70.223 281.224 70.9082 281.224 72.6212Z"
            fill="#D4ECFF" />
        <path
            d="M289.788 67.6636C289.788 69.3565 288.599 71.4322 287.128 72.2786C285.657 73.125 284.468 72.4398 284.468 70.747C284.468 69.0542 285.657 66.9784 287.128 66.132C288.599 65.2856 289.788 65.9708 289.788 67.6636Z"
            fill="#D4ECFF" />
        <path
            d="M298.354 62.7261C298.354 64.419 297.165 66.4947 295.693 67.3411C294.222 68.1875 293.033 67.5023 293.033 65.8095C293.033 64.1167 294.222 62.041 295.693 61.1946C297.165 60.328 298.354 61.0333 298.354 62.7261Z"
            fill="#D4ECFF" />
        <path
            d="M226.066 62.5649L195.213 44.7499C193.318 43.6617 193.56 41.7472 195.737 40.4775L225.522 23.2671C227.699 21.9975 231.024 21.8765 232.918 22.9648L263.772 40.7798C265.667 41.8681 265.425 43.7826 263.248 45.0522L233.463 62.2627C231.266 63.5121 227.961 63.6532 226.066 62.5649Z"
            fill="url(#paint17_linear_285_16026)" />
        <path
            d="M229.029 47.6523L224.757 45.1936C224.495 45.0324 224.535 44.7704 224.837 44.6092L228.969 42.2312C229.271 42.0498 229.734 42.0296 229.996 42.1908L234.269 44.6495C234.531 44.8107 234.49 45.0727 234.188 45.2339L230.057 47.6119C229.755 47.7731 229.291 47.7933 229.029 47.6523Z"
            fill="#D4ECFF" />
        <path
            d="M195.213 44.7501L195.293 44.7904C195.434 44.6896 195.575 44.5889 195.737 44.4881L225.522 27.2776C227.719 26.008 231.024 25.8871 232.918 26.9754L263.692 44.7299C265.445 43.4805 265.526 41.7876 263.772 40.7598L232.918 22.9448C231.024 21.8566 227.719 21.9976 225.522 23.2471L195.737 40.4576C193.56 41.7473 193.318 43.6417 195.213 44.7501Z"
            fill="url(#paint18_linear_285_16026)" />
    </g>
    <defs>
        <linearGradient id="paint0_linear_285_16026" x1="-12.9743" y1="70.7564" x2="401.885" y2="147.434"
            gradientUnits="userSpaceOnUse">
            <stop stop-color="#F0F8FF" />
            <stop offset="1" stop-color="#9EC4E2" />
        </linearGradient>
        <linearGradient id="paint1_linear_285_16026" x1="205.797" y1="126.959" x2="206.827" y2="200.671"
            gradientUnits="userSpaceOnUse">
            <stop stop-color="#C3A9D9" />
            <stop offset="1" stop-color="#8C57BC" />
        </linearGradient>
        <linearGradient id="paint2_linear_285_16026" x1="183.15" y1="169.843" x2="230.157" y2="94.5664"
            gradientUnits="userSpaceOnUse">
            <stop stop-color="#351053" />
            <stop offset="1" stop-color="#814DB2" />
        </linearGradient>
        <linearGradient id="paint3_linear_285_16026" x1="168.323" y1="169.845" x2="219.375" y2="128.951"
            gradientUnits="userSpaceOnUse">
            <stop stop-color="#351053" />
            <stop offset="1" stop-color="#814DB2" />
        </linearGradient>
        <linearGradient id="paint4_linear_285_16026" x1="155.271" y1="114.879" x2="159.01" y2="145.348"
            gradientUnits="userSpaceOnUse">
            <stop stop-color="#C3A9D9" />
            <stop offset="1" stop-color="#8C57BC" />
        </linearGradient>
        <linearGradient id="paint5_linear_285_16026" x1="227.029" y1="154.467" x2="228.58" y2="183.6"
            gradientUnits="userSpaceOnUse">
            <stop stop-color="#C3A9D9" />
            <stop offset="1" stop-color="#8C57BC" />
        </linearGradient>
        <linearGradient id="paint6_linear_285_16026" x1="229.492" y1="72.7109" x2="229.492" y2="160.451"
            gradientUnits="userSpaceOnUse">
            <stop stop-color="#E1CEF2" />
            <stop offset="1" stop-color="#D3B4EF" />
        </linearGradient>
        <linearGradient id="paint7_linear_285_16026" x1="183.15" y1="133.488" x2="230.157" y2="58.211"
            gradientUnits="userSpaceOnUse">
            <stop stop-color="#351053" />
            <stop offset="1" stop-color="#814DB2" />
        </linearGradient>
        <linearGradient id="paint8_linear_285_16026" x1="168.323" y1="133.49" x2="219.375" y2="92.5953"
            gradientUnits="userSpaceOnUse">
            <stop stop-color="#351053" />
            <stop offset="1" stop-color="#814DB2" />
        </linearGradient>
        <linearGradient id="paint9_linear_285_16026" x1="155.271" y1="78.5231" x2="159.01" y2="108.993"
            gradientUnits="userSpaceOnUse">
            <stop stop-color="#C3A9D9" />
            <stop offset="1" stop-color="#8C57BC" />
        </linearGradient>
        <linearGradient id="paint10_linear_285_16026" x1="227.029" y1="118.092" x2="228.58" y2="147.225"
            gradientUnits="userSpaceOnUse">
            <stop stop-color="#C3A9D9" />
            <stop offset="1" stop-color="#8C57BC" />
        </linearGradient>
        <linearGradient id="paint11_linear_285_16026" x1="229.492" y1="36.3555" x2="229.492" y2="124.095"
            gradientUnits="userSpaceOnUse">
            <stop stop-color="#E1CEF2" />
            <stop offset="1" stop-color="#D3B4EF" />
        </linearGradient>
        <linearGradient id="paint12_linear_285_16026" x1="183.15" y1="97.1325" x2="230.157" y2="21.8554"
            gradientUnits="userSpaceOnUse">
            <stop stop-color="#351053" />
            <stop offset="1" stop-color="#814DB2" />
        </linearGradient>
        <linearGradient id="paint13_linear_285_16026" x1="168.323" y1="97.1339" x2="219.375" y2="56.2395"
            gradientUnits="userSpaceOnUse">
            <stop stop-color="#351053" />
            <stop offset="1" stop-color="#814DB2" />
        </linearGradient>
        <linearGradient id="paint14_linear_285_16026" x1="155.271" y1="42.1677" x2="159.01" y2="72.6373"
            gradientUnits="userSpaceOnUse">
            <stop stop-color="#C3A9D9" />
            <stop offset="1" stop-color="#8C57BC" />
        </linearGradient>
        <linearGradient id="paint15_linear_285_16026" x1="229.492" y1="83.2617" x2="229.492" y2="111.036"
            gradientUnits="userSpaceOnUse">
            <stop stop-color="#E1CEF2" />
            <stop offset="1" stop-color="#D3B4EF" />
        </linearGradient>
        <linearGradient id="paint16_linear_285_16026" x1="153.525" y1="43.8665" x2="305.5" y2="43.8665"
            gradientUnits="userSpaceOnUse">
            <stop stop-color="#C0BFF6" />
            <stop offset="0.2938" stop-color="#C5C4F7" />
            <stop offset="0.6399" stop-color="#D3D2F9" />
            <stop offset="1" stop-color="#E9E9FD" />
        </linearGradient>
        <linearGradient id="paint17_linear_285_16026" x1="215.604" y1="19.9685" x2="216.207" y2="63.165"
            gradientUnits="userSpaceOnUse">
            <stop stop-color="#C3A9D9" />
            <stop offset="1" stop-color="#8C57BC" />
        </linearGradient>
        <linearGradient id="paint18_linear_285_16026" x1="207.798" y1="40.8091" x2="217.762" y2="14.6934"
            gradientUnits="userSpaceOnUse">
            <stop stop-color="#351053" />
            <stop offset="1" stop-color="#814DB2" />
        </linearGradient>
    </defs>


    <style>
        .line {
            stroke-dasharray: 1000;
            stroke-dashoffset: 1000;
            animation: dash 10s linear infinite;
        }

        @keyframes dash {
            to {
                stroke-dashoffset: -1010;
            }
        }

        .figure {
            animation: move 4s ease-in-out infinite;
        }
        @keyframes move {
            0% {
                transform:translateY(0);
            }
            50% {
                transform:translateY(10px);
            }
            100% {
                transform:translateY(0);
            }
        }
        .shadow {
            animation: shadow 4s ease-in-out infinite;
        }
        @keyframes shadow {
            0% {
                transform:translateY(0);
            }
            50% {
                transform:translateY(-2px);
            }
            100% {
                transform:translateY(0);
            }
        }
    </style>
</svg>