<svg width="481" height="232" viewBox="0 0 481 232" fill="none" xmlns="http://www.w3.org/2000/svg">
    <path class="line" d="M178 192L228 221L345.5 152.5L282.5 115.5L480.5 1" stroke="url(#paint0_linear_285_15859)"
        stroke-width="2" />
    <path class="line" d="M147.5 182.501L78.5585 224.593L2 180.186L164.197 86.0007L217.598 117.139L341 46.5"
        stroke="url(#paint1_linear_285_15859)" stroke-width="2" />
    <path opacity="0.4" class="shadow"
        d="M149.148 230.644L96.4885 200.233C93.264 198.359 93.6671 195.115 97.3953 192.958L148.241 163.596C151.969 161.439 157.612 161.198 160.856 163.072L213.515 193.482C216.74 195.356 216.337 198.601 212.608 200.757L161.763 230.12C158.015 232.276 152.372 232.498 149.148 230.644Z"
        fill="url(#paint2_linear_285_15859)" />
    <g class="figure">
        <path
            d="M230.968 170.327V147.574L179.961 147.554L162.328 137.377C158.277 135.039 151.203 135.342 146.548 138.022L130.103 147.514L79.0363 147.494V170.891C78.9153 172.463 79.8021 173.995 81.7569 175.123L147.697 213.192C151.747 215.529 158.821 215.227 163.476 212.547L227.139 175.788C229.819 174.216 231.129 172.201 230.968 170.327Z"
            fill="url(#paint3_linear_285_15859)" />
        <path
            d="M154.992 135.805C152.029 135.886 148.966 136.631 146.527 138.022L130.083 147.514L79.0158 147.494V170.891C78.8948 172.463 79.7816 173.995 81.7364 175.123L147.676 213.192C149.611 214.32 152.271 214.824 155.012 214.764V135.805H154.992Z"
            fill="url(#paint4_linear_285_15859)" />
        <path
            d="M84.7996 147.494H79.0158V170.891C78.8948 172.463 79.7816 173.995 81.7364 175.123L84.7996 176.897V147.494Z"
            fill="url(#paint5_linear_285_15859)" />
        <path d="M148.685 213.695C152.171 215.187 157.229 215.106 161.3 213.554V186.993H148.685V213.695Z"
            fill="url(#paint6_linear_285_15859)" />
        <path
            d="M147.676 189.875L81.7366 151.806C77.6859 149.469 78.1897 145.398 82.8652 142.697L146.528 105.939C151.203 103.238 158.277 102.956 162.307 105.294L228.247 143.362C232.298 145.7 231.794 149.771 227.118 152.471L163.456 189.23C158.78 191.91 151.727 192.213 147.676 189.875Z"
            fill="url(#paint7_linear_285_15859)" />
        <path
            d="M148.865 183.023L93.6066 151.121C90.2209 149.166 90.6441 145.741 94.5537 143.483L147.898 112.67C151.808 110.413 157.733 110.171 161.138 112.126L216.397 144.028C219.783 145.982 219.36 149.408 215.45 151.665L162.106 182.479C158.176 184.736 152.251 184.978 148.865 183.023Z"
            fill="white" />
        <path
            d="M206.724 176.332C206.724 178.025 205.535 180.101 204.063 180.947C202.592 181.794 201.403 181.109 201.403 179.416C201.403 177.723 202.592 175.647 204.063 174.801C205.535 173.954 206.724 174.64 206.724 176.332Z"
            fill="#D4ECFF" />
        <path
            d="M215.288 171.375C215.288 173.068 214.099 175.143 212.628 175.99C211.157 176.836 209.968 176.151 209.968 174.458C209.968 172.765 211.157 170.69 212.628 169.843C214.099 168.997 215.288 169.682 215.288 171.375Z"
            fill="#D4ECFF" />
        <path
            d="M223.854 166.437C223.854 168.13 222.665 170.206 221.193 171.052C219.722 171.899 218.533 171.213 218.533 169.521C218.533 167.828 219.722 165.752 221.193 164.906C222.665 164.059 223.854 164.744 223.854 166.437Z"
            fill="#D4ECFF" />
        <path
            d="M230.968 133.971V111.219L179.961 111.199L162.328 101.021C158.277 98.6838 151.203 98.9861 146.548 101.666L130.103 111.158L79.0363 111.138V134.536C78.9153 136.107 79.8021 137.639 81.7569 138.768L147.697 176.836C151.747 179.174 158.821 178.872 163.476 176.191L227.139 139.433C229.819 137.861 231.129 135.845 230.968 133.971Z"
            fill="url(#paint8_linear_285_15859)" />
        <path
            d="M154.992 99.4496C152.029 99.5302 148.966 100.276 146.527 101.666L130.083 111.158L79.0158 111.138V134.536C78.8948 136.107 79.7816 137.639 81.7364 138.768L147.676 176.836C149.611 177.965 152.271 178.469 155.012 178.408V99.4496H154.992Z"
            fill="url(#paint9_linear_285_15859)" />
        <path
            d="M84.7996 111.138H79.0158V134.535C78.8948 136.107 79.7816 137.639 81.7364 138.768L84.7996 140.541V111.138Z"
            fill="url(#paint10_linear_285_15859)" />
        <path d="M148.685 177.32C152.171 178.811 157.229 178.731 161.3 177.179V150.617H148.685V177.32Z"
            fill="url(#paint11_linear_285_15859)" />
        <path
            d="M147.676 153.519L81.7366 115.451C77.6859 113.113 78.1897 109.042 82.8652 106.342L146.528 69.5833C151.203 66.8829 158.277 66.6007 162.307 68.9384L228.247 107.007C232.298 109.345 231.794 113.415 227.118 116.116L163.456 152.875C158.78 155.555 151.727 155.857 147.676 153.519Z"
            fill="url(#paint12_linear_285_15859)" />
        <path
            d="M148.865 146.667L93.6066 114.766C90.2209 112.811 90.6441 109.385 94.5537 107.128L147.898 76.3143C151.808 74.0572 157.733 73.8153 161.138 75.7701L216.397 107.672C219.783 109.627 219.36 113.053 215.45 115.31L162.106 146.123C158.176 148.38 152.251 148.622 148.865 146.667Z"
            fill="white" />
        <path
            d="M206.724 139.977C206.724 141.67 205.535 143.745 204.063 144.592C202.592 145.438 201.403 144.753 201.403 143.06C201.403 141.367 202.592 139.291 204.063 138.445C205.535 137.578 206.724 138.284 206.724 139.977Z"
            fill="#D4ECFF" />
        <path
            d="M215.288 135.019C215.288 136.712 214.099 138.788 212.628 139.634C211.157 140.481 209.968 139.795 209.968 138.103C209.968 136.41 211.157 134.334 212.628 133.488C214.099 132.641 215.288 133.326 215.288 135.019Z"
            fill="#D4ECFF" />
        <path
            d="M223.854 130.082C223.854 131.775 222.665 133.85 221.193 134.697C219.722 135.543 218.533 134.858 218.533 133.165C218.533 131.472 219.722 129.397 221.193 128.55C222.665 127.684 223.854 128.389 223.854 130.082Z"
            fill="#D4ECFF" />
        <path
            d="M230.968 97.6158V74.8633L179.961 74.8431L162.328 64.666C158.277 62.3283 151.203 62.6306 146.548 65.3109L130.103 74.8029L79.0363 74.7827V98.18C78.9153 99.7519 79.8021 101.284 81.7569 102.412L147.697 140.481C151.747 142.818 158.821 142.516 163.476 139.836L227.139 103.077C229.819 101.505 231.129 99.49 230.968 97.6158Z"
            fill="url(#paint13_linear_285_15859)" />
        <path
            d="M154.992 63.0941C152.029 63.1747 148.966 63.9203 146.527 65.3109L130.083 74.8029L79.0158 74.7827V98.18C78.8948 99.7519 79.7816 101.284 81.7364 102.412L147.676 140.481C149.611 141.609 152.271 142.113 155.012 142.053V63.0941H154.992Z"
            fill="url(#paint14_linear_285_15859)" />
        <path
            d="M84.7996 74.7827H79.0158V98.1801C78.8948 99.752 79.7816 101.284 81.7364 102.412L84.7996 104.186V74.7827Z"
            fill="url(#paint15_linear_285_15859)" />
        <path d="M148.685 140.964C152.171 142.456 157.229 142.375 161.3 140.823V114.262H148.685V140.964Z"
            fill="url(#paint16_linear_285_15859)" />
        <path
            d="M147.676 117.164L81.7366 79.0954C77.6859 76.7577 78.1897 72.6868 82.8652 69.9863L146.528 33.2277C151.203 30.5273 158.277 30.2451 162.307 32.5828L228.267 70.6312C232.318 72.9689 231.814 77.0398 227.139 79.7402L163.476 116.499C158.781 119.199 151.727 119.502 147.676 117.164Z"
            fill="url(#paint17_linear_285_15859)" />
        <path
            d="M227.119 75.2663L163.456 112.025C158.781 114.725 151.707 115.008 147.677 112.67L81.737 74.6013C80.8301 74.0773 80.1651 73.4727 79.7217 72.8077C78.3312 75.0446 78.9559 77.463 81.737 79.0752L147.677 117.144C151.727 119.481 158.801 119.179 163.456 116.499L227.119 79.7402C230.746 77.6443 231.855 74.7222 230.263 72.4248C229.638 73.4526 228.59 74.4199 227.119 75.2663Z"
            fill="white" />
        <path
            d="M206.724 103.621C206.724 105.314 205.535 107.39 204.063 108.236C202.592 109.083 201.403 108.397 201.403 106.705C201.403 105.012 202.592 102.936 204.063 102.09C205.535 101.223 206.724 101.908 206.724 103.621Z"
            fill="#D4ECFF" />
        <path
            d="M215.288 98.6636C215.288 100.356 214.099 102.432 212.628 103.279C211.157 104.125 209.968 103.44 209.968 101.747C209.968 100.054 211.157 97.9784 212.628 97.132C214.099 96.2856 215.288 96.9708 215.288 98.6636Z"
            fill="#D4ECFF" />
        <path
            d="M223.854 93.7263C223.854 95.4191 222.665 97.4948 221.193 98.3412C219.722 99.1877 218.533 98.5024 218.533 96.8096C218.533 95.1168 219.722 93.0411 221.193 92.1947C222.665 91.3281 223.854 92.0334 223.854 93.7263Z"
            fill="#D4ECFF" />
        <path
            d="M151.566 93.5649L120.713 75.7499C118.818 74.6617 119.06 72.7472 121.237 71.4775L151.022 54.2671C153.199 52.9975 156.524 52.8765 158.418 53.9648L189.272 71.7798C191.167 72.8681 190.925 74.7826 188.748 76.0522L158.963 93.2627C156.766 94.5121 153.461 94.6532 151.566 93.5649Z"
            fill="url(#paint18_linear_285_15859)" />
        <path
            d="M154.529 78.652L150.257 76.1934C149.995 76.0322 150.035 75.7702 150.337 75.6089L154.469 73.2309C154.771 73.0496 155.234 73.0294 155.496 73.1906L159.769 75.6492C160.031 75.8105 159.99 76.0725 159.688 76.2337L155.557 78.6117C155.255 78.7729 154.791 78.7931 154.529 78.652Z"
            fill="#D4ECFF" />
        <path
            d="M120.713 75.75L120.793 75.7903C120.934 75.6895 121.075 75.5888 121.237 75.488L151.022 58.2775C153.219 57.0079 156.524 56.887 158.418 57.9752L189.192 75.7298C190.945 74.4804 191.026 72.7875 189.272 71.7597L158.418 53.9447C156.524 52.8564 153.219 52.9975 151.022 54.247L121.237 71.4574C119.06 72.7472 118.818 74.6416 120.713 75.75Z"
            fill="url(#paint19_linear_285_15859)" />
    </g>
    <defs>
        <linearGradient id="paint0_linear_285_15859" x1="475" y1="-48" x2="225.5" y2="198.5"
            gradientUnits="userSpaceOnUse">
            <stop stop-color="#B6C9F2" stop-opacity="0" />
            <stop offset="1" stop-color="#B6C9F2" />
        </linearGradient>
        <linearGradient id="paint1_linear_285_15859" x1="403.519" y1="43.7257" x2="215.934" y2="344.751"
            gradientUnits="userSpaceOnUse">
            <stop stop-color="#B6C9F2" stop-opacity="0" />
            <stop offset="1" stop-color="#B6C9F2" />
        </linearGradient>
        <linearGradient id="paint2_linear_285_15859" x1="131.297" y1="157.959" x2="132.327" y2="231.671"
            gradientUnits="userSpaceOnUse">
            <stop stop-color="#C3A9D9" />
            <stop offset="1" stop-color="#8C57BC" />
        </linearGradient>
        <linearGradient id="paint3_linear_285_15859" x1="108.65" y1="200.844" x2="155.657" y2="125.567"
            gradientUnits="userSpaceOnUse">
            <stop stop-color="#351053" />
            <stop offset="1" stop-color="#814DB2" />
        </linearGradient>
        <linearGradient id="paint4_linear_285_15859" x1="93.8227" y1="200.845" x2="144.875" y2="159.951"
            gradientUnits="userSpaceOnUse">
            <stop stop-color="#351053" />
            <stop offset="1" stop-color="#814DB2" />
        </linearGradient>
        <linearGradient id="paint5_linear_285_15859" x1="80.7706" y1="145.879" x2="84.5096" y2="176.348"
            gradientUnits="userSpaceOnUse">
            <stop stop-color="#C3A9D9" />
            <stop offset="1" stop-color="#8C57BC" />
        </linearGradient>
        <linearGradient id="paint6_linear_285_15859" x1="152.529" y1="185.467" x2="154.08" y2="214.601"
            gradientUnits="userSpaceOnUse">
            <stop stop-color="#C3A9D9" />
            <stop offset="1" stop-color="#8C57BC" />
        </linearGradient>
        <linearGradient id="paint7_linear_285_15859" x1="154.992" y1="103.711" x2="154.992" y2="191.451"
            gradientUnits="userSpaceOnUse">
            <stop stop-color="#E1CEF2" />
            <stop offset="1" stop-color="#D3B4EF" />
        </linearGradient>
        <linearGradient id="paint8_linear_285_15859" x1="108.65" y1="164.488" x2="155.657" y2="89.2111"
            gradientUnits="userSpaceOnUse">
            <stop stop-color="#351053" />
            <stop offset="1" stop-color="#814DB2" />
        </linearGradient>
        <linearGradient id="paint9_linear_285_15859" x1="93.8227" y1="164.49" x2="144.875" y2="123.595"
            gradientUnits="userSpaceOnUse">
            <stop stop-color="#351053" />
            <stop offset="1" stop-color="#814DB2" />
        </linearGradient>
        <linearGradient id="paint10_linear_285_15859" x1="80.7706" y1="109.523" x2="84.5096" y2="139.993"
            gradientUnits="userSpaceOnUse">
            <stop stop-color="#C3A9D9" />
            <stop offset="1" stop-color="#8C57BC" />
        </linearGradient>
        <linearGradient id="paint11_linear_285_15859" x1="152.529" y1="149.092" x2="154.08" y2="178.225"
            gradientUnits="userSpaceOnUse">
            <stop stop-color="#C3A9D9" />
            <stop offset="1" stop-color="#8C57BC" />
        </linearGradient>
        <linearGradient id="paint12_linear_285_15859" x1="154.992" y1="67.3556" x2="154.992" y2="155.095"
            gradientUnits="userSpaceOnUse">
            <stop stop-color="#E1CEF2" />
            <stop offset="1" stop-color="#D3B4EF" />
        </linearGradient>
        <linearGradient id="paint13_linear_285_15859" x1="108.65" y1="128.133" x2="155.657" y2="52.8556"
            gradientUnits="userSpaceOnUse">
            <stop stop-color="#351053" />
            <stop offset="1" stop-color="#814DB2" />
        </linearGradient>
        <linearGradient id="paint14_linear_285_15859" x1="93.8227" y1="128.134" x2="144.875" y2="87.2396"
            gradientUnits="userSpaceOnUse">
            <stop stop-color="#351053" />
            <stop offset="1" stop-color="#814DB2" />
        </linearGradient>
        <linearGradient id="paint15_linear_285_15859" x1="80.7706" y1="73.1677" x2="84.5096" y2="103.637"
            gradientUnits="userSpaceOnUse">
            <stop stop-color="#C3A9D9" />
            <stop offset="1" stop-color="#8C57BC" />
        </linearGradient>
        <linearGradient id="paint16_linear_285_15859" x1="154.992" y1="114.262" x2="154.992" y2="142.036"
            gradientUnits="userSpaceOnUse">
            <stop stop-color="#E1CEF2" />
            <stop offset="1" stop-color="#D3B4EF" />
        </linearGradient>
        <linearGradient id="paint17_linear_285_15859" x1="79.0246" y1="74.8665" x2="231" y2="74.8665"
            gradientUnits="userSpaceOnUse">
            <stop stop-color="#C0BFF6" />
            <stop offset="0.2938" stop-color="#C5C4F7" />
            <stop offset="0.6399" stop-color="#D3D2F9" />
            <stop offset="1" stop-color="#E9E9FD" />
        </linearGradient>
        <linearGradient id="paint18_linear_285_15859" x1="141.104" y1="50.9685" x2="141.707" y2="94.165"
            gradientUnits="userSpaceOnUse">
            <stop stop-color="#C3A9D9" />
            <stop offset="1" stop-color="#8C57BC" />
        </linearGradient>
        <linearGradient id="paint19_linear_285_15859" x1="133.298" y1="71.809" x2="143.262" y2="45.6933"
            gradientUnits="userSpaceOnUse">
            <stop stop-color="#351053" />
            <stop offset="1" stop-color="#814DB2" />
        </linearGradient>
    </defs>



    <style>
        .line {
            stroke-dasharray: 1000;
            stroke-dashoffset: 1000;
            animation: dash 10s linear infinite;
        }

        @keyframes dash {
            to {
                stroke-dashoffset: -1010;
            }
        }

        .figure {
            animation: move 4s ease-in-out infinite;
        }

        @keyframes move {
            0% {
                transform: translateY(0);
            }

            50% {
                transform: translateY(10px);
            }

            100% {
                transform: translateY(0);
            }
        }

        .shadow {
            animation: shadow 4s ease-in-out infinite;
        }

        @keyframes shadow {
            0% {
                transform: translateY(0);
            }

            50% {
                transform: translateY(-2px);
            }

            100% {
                transform: translateY(0);
            }
        }
    </style>



</svg>