<svg width="515" height="286" viewBox="0 0 515 286" fill="none" xmlns="http://www.w3.org/2000/svg">
<g clip-path="url(#clip0_514_27017)">
<line x1="44.5234" y1="17.134" x2="950.023" y2="539.924" stroke="url(#paint0_linear_514_27017)" stroke-width="2"/>
<path d="M17.0234 115L82.5234 153L95.5234 145.5L813.523 560" stroke="url(#paint1_linear_514_27017)" stroke-width="2"/>
<path d="M118.023 90.5L184.523 128.5L157.023 144.5L902.523 573" stroke="url(#paint2_linear_514_27017)" stroke-width="2"/>
<path d="M176.023 19L218.023 42L183.523 62.5L1050.52 565" stroke="url(#paint3_linear_514_27017)" stroke-width="2"/>
<path d="M231.023 9.5L274.523 35L241.023 55L1041.02 517" stroke="url(#paint4_linear_514_27017)" stroke-width="2"/>
<circle r="6" transform="matrix(0.866044 -0.499967 0.866044 0.499967 12.1246 112.941)" stroke="url(#paint5_linear_514_27017)" stroke-width="2"/>
<circle r="6" transform="matrix(0.866044 -0.499967 0.866044 0.499967 112.148 88.9995)" stroke="url(#paint6_linear_514_27017)" stroke-width="2"/>
<circle r="6" transform="matrix(0.866044 -0.499967 0.866044 0.499967 39.1481 13.9995)" stroke="url(#paint7_linear_514_27017)" stroke-width="2"/>
<circle r="6" transform="matrix(0.866044 -0.499967 0.866044 0.499967 171.148 13.9995)" stroke="url(#paint8_linear_514_27017)" stroke-width="2"/>
<circle r="6" transform="matrix(0.866044 -0.499967 0.866044 0.499967 227.148 6.99951)" stroke="url(#paint9_linear_514_27017)" stroke-width="2"/>
</g>
<defs>
<linearGradient id="paint0_linear_514_27017" x1="24.671" y1="6.82685" x2="22.7949" y2="10.1764" gradientUnits="userSpaceOnUse">
<stop stop-color="#C0BFF6"/>
<stop offset="0.453766" stop-color="#C5C4F7"/>
<stop offset="0.651904" stop-color="#E9E9FD" stop-opacity="0"/>
</linearGradient>
<linearGradient id="paint1_linear_514_27017" x1="0.000487578" y1="115" x2="415" y2="229" gradientUnits="userSpaceOnUse">
<stop stop-color="#C0BFF6"/>
<stop offset="0.2938" stop-color="#C5C4F7"/>
<stop offset="0.825952" stop-color="#E9E9FD" stop-opacity="0"/>
</linearGradient>
<linearGradient id="paint2_linear_514_27017" x1="101.257" y1="90.5" x2="406.861" y2="249.882" gradientUnits="userSpaceOnUse">
<stop stop-color="#C0BFF6"/>
<stop offset="0.2938" stop-color="#C5C4F7"/>
<stop offset="0.825952" stop-color="#E9E9FD" stop-opacity="0"/>
</linearGradient>
<linearGradient id="paint3_linear_514_27017" x1="157.333" y1="19" x2="898.939" y2="374.07" gradientUnits="userSpaceOnUse">
<stop stop-color="#C0BFF6"/>
<stop offset="0.240342" stop-color="#E9E9FD" stop-opacity="0"/>
</linearGradient>
<linearGradient id="paint4_linear_514_27017" x1="213.712" y1="9.5" x2="632.175" y2="221.13" gradientUnits="userSpaceOnUse">
<stop stop-color="#C0BFF6"/>
<stop offset="0.825952" stop-color="#E9E9FD" stop-opacity="0"/>
</linearGradient>
<linearGradient id="paint5_linear_514_27017" x1="0.00226627" y1="6.9996" x2="13.9997" y2="6.9996" gradientUnits="userSpaceOnUse">
<stop stop-color="#C0BFF6"/>
<stop offset="0.2938" stop-color="#C5C4F7"/>
<stop offset="0.6399" stop-color="#D3D2F9"/>
<stop offset="1" stop-color="#E9E9FD"/>
</linearGradient>
<linearGradient id="paint6_linear_514_27017" x1="0.00226627" y1="6.9996" x2="13.9997" y2="6.9996" gradientUnits="userSpaceOnUse">
<stop stop-color="#C0BFF6"/>
<stop offset="0.2938" stop-color="#C5C4F7"/>
<stop offset="0.6399" stop-color="#D3D2F9"/>
<stop offset="1" stop-color="#E9E9FD"/>
</linearGradient>
<linearGradient id="paint7_linear_514_27017" x1="0.00226627" y1="6.9996" x2="13.9997" y2="6.9996" gradientUnits="userSpaceOnUse">
<stop stop-color="#C0BFF6"/>
<stop offset="0.2938" stop-color="#C5C4F7"/>
<stop offset="0.6399" stop-color="#D3D2F9"/>
<stop offset="1" stop-color="#E9E9FD"/>
</linearGradient>
<linearGradient id="paint8_linear_514_27017" x1="0.00226627" y1="6.9996" x2="13.9997" y2="6.9996" gradientUnits="userSpaceOnUse">
<stop stop-color="#C0BFF6"/>
<stop offset="0.2938" stop-color="#C5C4F7"/>
<stop offset="0.6399" stop-color="#D3D2F9"/>
<stop offset="1" stop-color="#E9E9FD"/>
</linearGradient>
<linearGradient id="paint9_linear_514_27017" x1="0.00226627" y1="6.9996" x2="13.9997" y2="6.9996" gradientUnits="userSpaceOnUse">
<stop stop-color="#C0BFF6"/>
<stop offset="0.2938" stop-color="#C5C4F7"/>
<stop offset="0.6399" stop-color="#D3D2F9"/>
<stop offset="1" stop-color="#E9E9FD"/>
</linearGradient>
<clipPath id="clip0_514_27017">
<rect width="515" height="286" fill="white"/>
</clipPath>
</defs>
</svg>
