<svg width="512" height="358" viewBox="0 0 512 358" fill="none" xmlns="http://www.w3.org/2000/svg">
    <g clip-path="url(#clip0_463_27898)" class="figure">
        <path d="M466.006 164.746L465.94 187.154L490.853 172.635L490.919 150.227L466.006 164.746Z"
            fill="url(#paint0_linear_463_27898)" />
        <path d="M472.022 169.387V180.591L474.467 181.983V170.779L472.022 169.387Z"
            fill="url(#paint1_linear_463_27898)" />
        <path class="opacitya" fill-rule="evenodd" clip-rule="evenodd"
            d="M192.167 166.006C193.29 165.144 194.612 164.348 195.933 163.553C217.608 150.89 253.094 150.89 274.967 163.42V163.591L285.01 169.387L284.944 180.591L274.9 174.757V174.586C253.087 161.962 217.652 161.975 195.999 174.624C187.673 179.464 182.585 185.497 180.668 191.795C179.941 189.408 179.743 187.022 179.941 184.635C179.974 184.403 179.991 184.171 180.008 183.939C180.024 183.707 180.041 183.475 180.074 183.243C180.12 182.869 180.232 182.463 180.341 182.07L180.341 182.07L180.341 182.07C180.386 181.905 180.431 181.742 180.47 181.585C180.536 181.122 180.668 180.658 180.8 180.194L180.801 180.193C180.933 179.663 181.197 179.066 181.461 178.536C181.66 178.138 181.858 177.674 182.056 177.21L182.056 177.21C182.265 176.792 182.555 176.332 182.831 175.896L182.833 175.892C182.906 175.777 182.978 175.663 183.047 175.553L183.048 175.552C183.312 175.088 183.576 174.624 183.84 174.227C184.237 173.696 184.633 173.166 185.096 172.636C185.224 172.481 185.342 172.317 185.461 172.151L185.462 172.151L185.462 172.151C185.651 171.888 185.844 171.62 186.087 171.376C186.351 171.111 186.631 170.846 186.912 170.582L186.912 170.582L186.912 170.582L186.912 170.581L186.912 170.581L186.912 170.581L186.912 170.581L186.912 170.581L186.912 170.581L186.913 170.581L186.913 170.581L186.913 170.581L186.913 170.581L186.913 170.581L186.913 170.58L186.913 170.58L186.913 170.58C187.194 170.315 187.475 170.05 187.739 169.785L188.862 168.658C189.251 168.307 189.686 167.979 190.126 167.646C190.434 167.414 190.744 167.18 191.043 166.934C191.169 166.829 191.287 166.724 191.404 166.621L191.406 166.619L191.407 166.619L191.407 166.619L191.407 166.619L191.407 166.619L191.407 166.619L191.407 166.618L191.407 166.618L191.408 166.618L191.408 166.618L191.408 166.618L191.408 166.618C191.658 166.397 191.897 166.186 192.167 166.006ZM490.721 191.464C490.737 191.712 490.754 191.961 490.787 192.193C490.853 192.723 490.919 193.253 490.919 193.916C490.919 195.839 490.655 197.762 490.06 199.618C488.21 193.253 482.989 187.088 474.465 182.116L474.531 170.912L474.531 170.912C475.853 171.707 477.174 172.503 478.364 173.365C478.562 173.497 478.743 173.646 478.925 173.796C479.107 173.945 479.289 174.094 479.487 174.226C480.214 174.757 481.007 175.353 481.668 175.95L482.791 177.077C482.965 177.251 483.146 177.426 483.329 177.602L483.329 177.603C483.704 177.964 484.088 178.334 484.443 178.735C484.707 179 484.913 179.265 485.119 179.53C485.221 179.663 485.324 179.795 485.434 179.928C485.897 180.458 486.359 181.055 486.756 181.585C486.961 181.832 487.115 182.105 487.266 182.371L487.266 182.371L487.266 182.372C487.358 182.534 487.449 182.694 487.549 182.845C487.675 183.073 487.811 183.291 487.945 183.506L487.945 183.507L487.946 183.508C488.163 183.857 488.377 184.2 488.54 184.569C488.726 184.849 488.847 185.162 488.971 185.485C489.023 185.62 489.076 185.758 489.135 185.895C489.197 186.035 489.259 186.172 489.321 186.307L489.323 186.312C489.521 186.748 489.711 187.164 489.862 187.618C489.99 187.918 490.062 188.244 490.134 188.563L490.134 188.564C490.173 188.739 490.211 188.912 490.258 189.077C490.297 189.233 490.342 189.395 490.387 189.56L490.388 189.561C490.496 189.954 490.608 190.361 490.655 190.734C490.688 190.966 490.704 191.214 490.721 191.462L490.721 191.464ZM176.437 214.469C175.843 214.071 175.314 213.607 174.785 213.143C173.967 212.541 173.149 211.894 172.368 211.276C172.203 211.146 172.039 211.016 171.878 210.889C171.58 210.624 171.316 210.359 171.06 210.102L171.06 210.102L171.06 210.101L171.06 210.101C170.804 209.844 170.556 209.596 170.292 209.364C169.499 208.635 168.706 207.905 167.979 207.11C167.748 206.845 167.533 206.563 167.318 206.281C167.103 205.999 166.889 205.717 166.657 205.452C166.404 205.114 166.128 204.788 165.853 204.464L165.852 204.463L165.852 204.463C165.48 204.024 165.111 203.589 164.807 203.132C164.526 202.709 164.279 202.287 164.017 201.841C163.909 201.657 163.799 201.469 163.684 201.276L163.636 201.2L163.501 200.99L163.497 200.983C163.085 200.337 162.649 199.654 162.362 199.022C162.123 198.542 161.953 198.097 161.777 197.636C161.71 197.46 161.642 197.282 161.569 197.099C161.511 196.972 161.451 196.842 161.391 196.711C161.106 196.094 160.807 195.447 160.644 194.845C160.446 194.182 160.313 193.519 160.181 192.856C160.123 192.643 160.06 192.424 159.995 192.203L159.995 192.201C159.839 191.666 159.68 191.117 159.587 190.602C159.498 190.16 159.469 189.718 159.44 189.276C159.425 189.055 159.41 188.834 159.388 188.613C159.365 188.338 159.335 188.072 159.304 187.807V187.807C159.247 187.306 159.19 186.814 159.19 186.293V197.364C159.124 208.833 166.657 220.303 181.724 228.988L181.724 228.887V229.054L191.769 234.888L277.939 284.809L278.005 273.605L191.835 223.684L181.789 217.887L181.79 217.783C179.874 216.789 178.089 215.662 176.437 214.469ZM284.944 180.591L285.011 169.387L371.181 219.308L371.115 230.512L284.944 180.591ZM371.115 230.512L371.181 219.308L381.292 225.142L381.226 236.346L371.115 230.512ZM16.9819 287.726V276.918L16.9182 287.726L14.5392 289.118L14.6053 277.914L16.9819 276.523V276.522C38.7228 263.859 74.0764 263.859 95.9494 276.522V276.522L98.5925 278.047V289.251L95.8832 287.726L95.8834 287.687C74.0711 275.063 38.7008 275.076 16.9819 287.726ZM0 280.699V269.495L14.604 277.914L14.5379 289.118L0 280.699ZM277.94 284.809L278.006 273.605L288.116 279.505C289.438 280.234 290.759 281.096 291.949 282.024C292.147 282.157 292.329 282.306 292.51 282.455C292.692 282.604 292.874 282.753 293.072 282.886C293.865 283.416 294.658 284.013 295.319 284.61C295.517 284.776 295.699 284.958 295.881 285.14C296.062 285.322 296.244 285.505 296.442 285.671C296.643 285.872 296.844 286.066 297.042 286.257L297.042 286.258C297.431 286.633 297.81 286.999 298.16 287.394C298.425 287.659 298.63 287.925 298.836 288.19C298.939 288.322 299.041 288.455 299.152 288.588L299.152 288.588C299.614 289.118 300.077 289.648 300.473 290.245C300.738 290.643 301.002 291.107 301.266 291.571L301.318 291.654L301.39 291.768L301.482 291.914L301.483 291.915L301.483 291.915C301.759 292.351 302.049 292.81 302.257 293.228C302.444 293.509 302.564 293.822 302.689 294.145C302.717 294.218 302.745 294.291 302.775 294.365C302.789 294.4 302.803 294.436 302.817 294.471C302.829 294.499 302.84 294.527 302.852 294.554C302.915 294.697 302.978 294.835 303.041 294.972C303.239 295.408 303.428 295.824 303.579 296.278C303.638 296.513 303.683 296.734 303.727 296.949L303.727 296.95L303.728 296.951C303.783 297.22 303.836 297.478 303.909 297.736C303.949 297.893 303.993 298.056 304.039 298.221C304.147 298.614 304.259 299.02 304.306 299.394C304.339 299.626 304.356 299.875 304.372 300.123C304.389 300.372 304.405 300.62 304.438 300.852C304.438 301.118 304.471 301.399 304.504 301.681C304.537 301.963 304.57 302.245 304.57 302.51C304.57 304.432 304.306 306.355 303.711 308.211C301.861 301.847 296.64 295.681 288.116 290.709V279.531L288.05 290.643L277.94 284.809ZM98.593 289.251V278.047L192.231 332.277L192.165 343.481L98.593 289.251ZM192.232 332.277L192.166 343.481L194.875 345.006V333.802L192.232 332.277ZM324.196 309.008L324.196 309.007C324.284 308.521 324.431 308.035 324.578 307.548C324.651 307.305 324.725 307.062 324.791 306.819C324.879 306.377 324.908 305.935 324.938 305.493C324.952 305.272 324.967 305.051 324.989 304.83C325.012 304.578 325.043 304.333 325.073 304.091C325.128 303.657 325.182 303.231 325.187 302.781L325.121 313.913C325.121 325.183 317.72 336.454 302.984 345.072C273.247 362.375 224.809 362.375 194.94 345.072V333.868C224.809 351.171 273.313 351.171 302.984 333.868C304.834 332.741 306.618 331.614 308.204 330.487C308.263 330.441 308.321 330.396 308.379 330.351L308.528 330.235C308.995 329.873 309.425 329.539 309.856 329.161C310.848 328.432 311.839 327.702 312.698 326.907C313.094 326.553 313.432 326.2 313.77 325.846L313.77 325.846C313.939 325.669 314.108 325.493 314.284 325.316C314.526 325.073 314.776 324.83 315.025 324.586L315.026 324.586L315.026 324.586C315.525 324.1 316.024 323.614 316.464 323.128C316.852 322.739 317.168 322.315 317.492 321.881L317.492 321.881L317.494 321.878C317.611 321.721 317.729 321.563 317.852 321.404L317.853 321.403C318.448 320.674 319.042 319.945 319.57 319.217C319.84 318.869 320.042 318.5 320.242 318.134C320.385 317.871 320.528 317.61 320.694 317.36C320.868 317.061 321.042 316.771 321.212 316.487L321.213 316.485C321.496 316.015 321.768 315.561 322.015 315.106C322.224 314.729 322.38 314.325 322.534 313.928C322.623 313.697 322.711 313.469 322.808 313.25C323.139 312.521 323.469 311.725 323.733 310.996C323.932 310.333 324.064 309.67 324.196 309.008ZM511.207 197.099C511.223 196.767 511.24 196.436 511.273 196.104C511.33 195.473 511.437 194.891 511.55 194.273C511.568 194.177 511.586 194.081 511.603 193.983L511.537 205.187C511.537 216.457 504.136 227.728 489.4 236.346C459.663 253.65 411.226 253.65 381.357 236.346V225.142C411.292 242.512 459.729 242.446 489.4 225.142C491.25 224.015 492.968 222.888 494.62 221.761C494.885 221.562 495.116 221.363 495.347 221.165C495.579 220.966 495.81 220.767 496.074 220.568C497.132 219.772 498.189 218.977 499.114 218.181C499.51 217.828 499.848 217.474 500.186 217.121C500.355 216.944 500.524 216.767 500.7 216.59C500.942 216.347 501.192 216.104 501.442 215.861C501.941 215.375 502.44 214.888 502.881 214.402C503.268 214.013 503.585 213.589 503.908 213.155C504.026 212.997 504.145 212.838 504.268 212.679L504.269 212.678C504.863 211.949 505.458 211.22 505.986 210.491C506.256 210.144 506.458 209.774 506.658 209.408C506.801 209.145 506.944 208.884 507.11 208.634C507.284 208.335 507.458 208.046 507.628 207.762C507.911 207.29 508.184 206.835 508.432 206.38C508.641 206.003 508.797 205.599 508.95 205.202C509.039 204.972 509.127 204.743 509.224 204.524C509.555 203.795 509.885 203.066 510.15 202.27C510.348 201.673 510.48 201.01 510.612 200.347C510.81 199.618 511.009 198.823 511.141 198.093C511.174 197.762 511.19 197.43 511.207 197.099Z"
            fill="url(#paint2_linear_463_27898)" />
        <path
            d="M179.874 184.701C179.94 184.237 179.94 183.773 180.006 183.309C180.072 182.779 180.271 182.182 180.403 181.652C180.535 181.188 180.601 180.724 180.733 180.26C180.931 179.729 181.196 179.133 181.394 178.602C181.592 178.138 181.724 177.674 181.989 177.276C182.253 176.746 182.649 176.149 182.98 175.619C183.244 175.155 183.442 174.757 183.773 174.293C184.169 173.763 184.632 173.232 185.028 172.702C185.359 172.304 185.689 171.84 186.02 171.442C186.482 170.912 187.077 170.381 187.672 169.851C188.068 169.453 188.399 169.056 188.795 168.724C189.456 168.127 190.249 167.597 190.976 167C191.372 166.735 191.703 166.404 192.099 166.072C193.289 165.21 194.544 164.415 195.866 163.619C217.541 150.957 253.026 150.957 274.833 163.619L284.944 169.453L371.114 219.374L381.225 225.208C411.093 242.512 459.531 242.512 489.268 225.208C491.118 224.148 492.836 223.021 494.488 221.827C495.017 221.43 495.48 221.032 495.942 220.634C496.999 219.838 498.057 219.043 498.982 218.247C499.577 217.717 500.039 217.187 500.568 216.656C501.295 215.927 502.088 215.198 502.749 214.468C503.277 213.872 503.674 213.341 504.136 212.745C504.731 212.015 505.326 211.286 505.854 210.557C506.251 209.96 506.581 209.364 506.978 208.701C507.44 207.971 507.903 207.242 508.299 206.447C508.63 205.85 508.828 205.187 509.092 204.59C509.423 203.861 509.753 203.065 510.018 202.336C510.216 201.673 510.348 201.01 510.48 200.414C510.678 199.684 510.877 198.889 511.009 198.16C511.141 197.497 511.141 196.834 511.141 196.171C512.198 184.038 504.797 171.707 488.805 162.426L486.36 161.034L471.888 169.453L474.333 170.845C475.721 171.641 476.977 172.437 478.166 173.298C478.563 173.564 478.893 173.895 479.29 174.16C480.016 174.757 480.809 175.287 481.47 175.884C481.867 176.215 482.197 176.613 482.594 177.011C483.188 177.541 483.783 178.072 484.246 178.668C484.642 179.066 484.907 179.464 485.237 179.862C485.7 180.392 486.162 180.989 486.559 181.519C486.823 181.917 487.087 182.381 487.352 182.779C487.682 183.375 488.078 183.906 488.343 184.503C488.541 184.967 488.739 185.431 488.938 185.828C489.202 186.425 489.466 186.955 489.664 187.552C489.797 188.016 489.929 188.547 490.061 189.011C490.193 189.541 490.391 190.138 490.457 190.668C490.523 191.132 490.523 191.663 490.59 192.127C490.656 192.657 490.722 193.254 490.722 193.784C490.722 195.707 490.391 197.629 489.863 199.485C487.946 205.784 482.858 211.817 474.532 216.656C452.857 229.319 417.371 229.319 395.564 216.656L385.454 210.822L299.283 160.901L289.173 155.067C259.304 137.764 210.8 137.764 181.13 155.067C166.327 163.685 158.992 175.022 158.992 186.359C158.992 187.088 159.124 187.884 159.19 188.679C159.257 189.342 159.257 190.005 159.389 190.668C159.521 191.464 159.785 192.193 159.983 192.922C160.182 193.585 160.248 194.248 160.446 194.911C160.71 195.64 161.041 196.436 161.371 197.165C161.636 197.828 161.834 198.425 162.164 199.088C162.561 199.817 163.089 200.613 163.486 201.342C163.882 201.938 164.147 202.535 164.609 203.198C165.138 203.994 165.799 204.723 166.459 205.518C166.922 206.049 167.319 206.645 167.781 207.176C168.508 207.971 169.301 208.701 170.094 209.43C170.623 209.96 171.085 210.491 171.68 210.955C172.539 211.75 173.596 212.48 174.587 213.209C175.182 213.673 175.645 214.137 176.24 214.535C177.892 215.728 179.61 216.855 181.526 217.916L191.637 223.75L277.807 273.671L287.917 279.505C289.305 280.301 290.561 281.096 291.75 281.958C292.147 282.223 292.477 282.555 292.874 282.82C293.6 283.417 294.393 283.947 295.12 284.544C295.517 284.875 295.847 285.273 296.244 285.604C296.838 286.201 297.433 286.731 297.962 287.328C298.292 287.726 298.623 288.124 298.953 288.521C299.416 289.052 299.878 289.648 300.275 290.179C300.605 290.643 300.803 291.041 301.068 291.505C301.398 292.035 301.794 292.632 302.059 293.162C302.257 293.626 302.455 294.09 302.654 294.488C302.918 295.085 303.182 295.615 303.38 296.212C303.513 296.676 303.645 297.14 303.711 297.67C303.843 298.201 304.041 298.797 304.107 299.328C304.173 299.792 304.173 300.322 304.24 300.786C304.306 301.317 304.372 301.913 304.372 302.444C304.372 304.366 304.041 306.289 303.513 308.145C301.596 314.443 296.508 320.476 288.182 325.316C266.507 337.978 231.021 337.978 209.214 325.316L206.571 323.791L112.933 269.561L110.29 268.036C80.4213 250.733 31.9835 250.733 2.24677 268.036L0 269.494L14.5379 277.914L16.9169 276.522C38.6577 263.859 74.0774 263.859 95.8844 276.522L98.5276 278.047L192.099 332.277L194.742 333.802C224.611 351.105 273.115 351.105 302.786 333.802C304.636 332.741 306.354 331.614 308.006 330.421C308.601 330.023 309.13 329.559 309.658 329.095C310.649 328.365 311.641 327.636 312.5 326.841C313.094 326.31 313.557 325.78 314.086 325.25C314.813 324.52 315.606 323.791 316.266 323.062C316.795 322.465 317.192 321.935 317.654 321.338C318.249 320.609 318.844 319.88 319.372 319.15C319.769 318.554 320.099 317.957 320.496 317.294C320.958 316.565 321.421 315.835 321.817 315.04C322.148 314.443 322.346 313.78 322.61 313.184C322.941 312.454 323.271 311.659 323.535 310.93C323.734 310.267 323.866 309.604 323.998 308.941C324.196 308.211 324.394 307.482 324.527 306.687C324.659 306.024 324.659 305.361 324.725 304.698C325.782 292.565 318.381 280.234 302.389 270.953L292.477 265.185L206.307 215.264L196.196 209.43C187.672 204.458 182.517 198.292 180.601 191.928C179.874 189.541 179.676 187.154 179.874 184.701Z"
            fill="url(#paint3_linear_463_27898)" />
        <path
            d="M14.4716 277.848C14.4716 277.848 17.5774 275.66 24.1195 272.743C30.6615 269.892 40.9042 266.909 54.3187 266.445C67.5351 266.047 84.5841 268.036 100.51 278.113C116.568 287.328 134.674 297.67 154.432 309.007C164.345 314.642 174.587 320.542 185.292 326.642C190.711 329.691 195.865 332.94 201.548 335.724C207.165 338.243 213.179 340.431 219.391 342.022C231.88 345.072 245.294 346.332 258.841 345.271C272.322 344.276 286.133 341.293 298.754 334.995C304.966 331.879 311.046 327.901 315.804 322.598C320.561 317.294 323.998 310.664 324.196 303.438C324.526 296.278 321.487 289.184 316.861 283.615C312.169 277.98 306.09 273.605 299.547 270.025C273.643 255.174 247.277 240.059 220.91 224.943L201.152 213.673C194.61 210.093 187.539 206.115 182.98 199.552C180.733 196.303 179.015 192.524 178.618 188.48C178.156 184.502 179.015 180.259 180.733 176.812C184.499 169.519 190.843 164.613 197.584 161.1C211.262 154.006 226.726 151.951 241.528 152.746C248.929 153.211 256.33 154.47 263.335 156.724C270.405 158.912 276.881 162.757 282.961 166.271C307.609 180.525 331.399 194.381 353.999 207.441C365.299 213.872 376.202 220.568 386.907 226.335C397.612 231.639 409.243 234.49 420.345 235.948C442.68 238.6 463.826 235.551 480.677 228.457C489.069 224.877 496.404 220.103 501.823 214.402C507.242 208.767 510.348 201.806 510.678 195.309C511.074 188.745 508.894 183.044 506.251 178.735C503.541 174.425 500.369 171.309 497.726 168.989C495.017 166.669 492.77 165.144 491.25 164.149C489.73 163.155 488.871 162.691 488.871 162.691L489.003 162.293C489.003 162.293 489.796 162.757 491.382 163.752C492.968 164.746 495.281 166.205 498.056 168.459C500.832 170.713 504.07 173.829 506.977 178.204C509.819 182.58 512.264 188.414 512 195.309C511.801 202.137 508.63 209.562 503.013 215.529C497.462 221.562 489.995 226.468 481.47 230.247C464.355 237.805 442.878 241.119 420.014 238.733C408.582 237.407 396.753 234.689 385.387 229.252C374.352 223.485 363.647 216.855 352.281 210.424C329.681 197.364 305.891 183.574 281.243 169.321C275.031 165.674 269.084 162.094 262.344 159.973C255.669 157.785 248.532 156.459 241.396 155.995C227.122 155.067 212.055 157.122 199.037 163.752C192.561 167 186.482 171.773 183.244 178.005C179.808 184.436 180.733 192.259 184.962 198.159C189.125 204.259 195.601 208.038 202.275 211.816L221.902 223.352C248.136 238.666 274.304 254.047 300.142 269.096C306.618 272.809 313.028 277.052 317.852 282.82C322.676 288.521 326.046 295.88 325.716 303.504C325.584 311.062 322.015 318.222 317.191 323.658C312.235 329.227 306.156 333.338 299.746 336.652C286.926 343.282 272.85 346.464 259.172 347.591C245.427 348.785 231.748 347.658 218.928 344.674C212.518 343.149 206.372 341.028 200.359 338.31C194.676 335.525 189.191 332.277 183.971 329.161C173.398 322.929 163.155 316.962 153.309 311.195C133.683 299.659 115.642 289.118 99.6507 279.77C84.1215 269.693 67.5351 267.771 54.4509 267.771C41.2346 267.903 30.9919 270.621 24.516 273.207C21.2119 274.466 18.8329 275.859 17.1809 276.654C15.5949 277.582 14.7359 278.046 14.7359 278.046L14.4716 277.848Z"
            fill="url(#paint4_linear_463_27898)" />
        <path
            d="M265.779 35.5348C265.647 36.3304 265.382 37.0596 265.184 37.8552C264.986 38.5181 264.92 39.1811 264.655 39.8441C264.391 40.5733 264.061 41.3689 263.73 42.0981C263.466 42.7611 263.268 43.3578 262.937 44.0207C262.541 44.75 262.012 45.5456 261.616 46.2748C261.219 46.8715 260.955 47.4681 260.492 48.1311C259.964 48.9267 259.303 49.6559 258.642 50.4515C258.179 50.9818 257.783 51.5785 257.32 52.1089C256.593 52.9044 255.8 53.6337 255.007 54.363C254.479 54.8933 254.016 55.4237 253.421 55.8878C252.496 56.6833 251.505 57.4126 250.514 58.1418C249.919 58.6059 249.457 59.07 248.862 59.4678C247.21 60.6611 245.492 61.7881 243.575 62.8489L233.465 68.683L147.361 118.538L137.25 124.372C135.862 125.167 134.607 125.963 133.417 126.825C133.021 127.09 132.69 127.421 132.294 127.687C131.567 128.283 130.774 128.814 130.047 129.41C129.651 129.742 129.32 130.14 128.924 130.471C128.329 131.001 127.734 131.598 127.206 132.195C126.875 132.593 126.545 132.99 126.214 133.388C125.752 133.919 125.289 134.515 124.893 135.046C124.562 135.51 124.364 135.907 124.1 136.371C123.769 136.902 123.373 137.499 123.109 138.029C122.91 138.493 122.712 138.957 122.514 139.355C122.25 139.951 121.985 140.482 121.787 141.079C121.655 141.543 121.523 142.007 121.457 142.537C121.324 143.067 121.126 143.664 121.06 144.194C120.994 144.659 120.994 145.189 120.928 145.653C120.862 146.183 120.796 146.78 120.796 147.31C120.796 149.233 121.126 151.156 121.655 153.012C123.571 146.581 128.726 140.416 137.25 135.51L147.361 129.676L233.531 79.7544L243.641 73.9204C258.708 65.2355 266.175 53.7663 266.175 42.297V31.093C266.175 31.1593 266.175 31.1593 266.175 31.2255C266.175 32.0211 266.043 32.7504 265.977 33.5459C265.911 34.2089 265.911 34.8718 265.779 35.5348Z"
            fill="url(#paint5_linear_463_27898)" />
        <path
            d="M425.299 114.361L410.827 122.781L410.761 122.847L410.695 122.98C410.695 122.98 409.902 122.516 408.382 121.654C408.316 121.654 408.316 121.587 408.25 121.587C406.598 120.792 404.219 119.4 400.915 118.14C394.373 115.488 384.13 112.77 370.98 112.704C358.953 112.704 343.887 114.427 329.415 122.582C328.556 123.112 327.631 123.576 326.771 124.107C326.441 124.306 326.111 124.438 325.846 124.637C309.855 133.985 291.88 144.526 272.188 156.061C262.342 161.829 252.099 167.796 241.526 174.028C238.817 175.619 235.975 177.276 233.134 178.867C232.275 179.331 231.35 179.796 230.491 180.26C228.706 181.254 226.922 182.248 225.072 183.11C219.125 185.762 212.979 187.884 206.503 189.475C193.683 192.458 180.004 193.585 166.259 192.392C152.514 191.265 138.505 188.083 125.685 181.453C119.275 178.138 113.196 174.028 108.24 168.459C104.473 164.216 101.499 158.846 100.31 153.144V158.647C100.31 169.917 107.711 181.188 122.447 189.806C152.118 207.11 200.556 207.11 230.491 189.806L233.134 188.281L326.771 134.051L329.415 132.526C351.222 119.864 386.641 119.864 408.382 132.526L410.761 133.918L425.299 125.499V114.361Z"
            fill="url(#paint6_linear_463_27898)" />
        <path
            d="M242.188 22.8058C239.28 17.3032 234.192 12.994 228.575 9.81177V19.2258C228.84 19.3584 229.236 19.491 229.5 19.6899C236.901 23.9992 241.593 29.3029 243.906 34.8718C244.633 30.7614 244.17 26.5847 242.188 22.8058Z"
            fill="url(#paint7_linear_463_27898)" />
        <path
            d="M422.92 112.969C393.249 95.6655 344.811 95.6655 314.876 112.969L312.233 114.494L218.595 168.724L215.952 170.249C194.145 182.911 158.659 182.911 136.985 170.249C128.658 165.409 123.57 159.376 121.654 153.078C121.059 151.222 120.795 149.299 120.795 147.377C120.795 146.846 120.861 146.25 120.927 145.719C120.993 145.255 120.993 144.725 121.059 144.261C121.125 143.73 121.323 143.134 121.456 142.603C121.588 142.139 121.654 141.675 121.786 141.145C121.984 140.548 122.249 140.018 122.513 139.421C122.711 138.957 122.843 138.493 123.108 138.095C123.372 137.565 123.768 136.968 124.099 136.438C124.363 135.974 124.627 135.51 124.892 135.112C125.288 134.515 125.751 133.985 126.213 133.454C126.544 133.057 126.808 132.659 127.205 132.261C127.733 131.664 128.328 131.134 128.923 130.537C129.319 130.206 129.65 129.808 130.046 129.477C130.707 128.88 131.5 128.283 132.293 127.753C132.689 127.488 133.02 127.156 133.416 126.891C134.606 126.029 135.927 125.234 137.249 124.438L147.36 118.604L233.53 68.6829L243.64 62.8488C245.491 61.7881 247.275 60.6611 248.927 59.4677C249.522 59.0699 250.05 58.6059 250.579 58.1418C251.57 57.4125 252.561 56.617 253.487 55.8877C254.081 55.3574 254.544 54.827 255.072 54.3629C255.865 53.6336 256.658 52.9044 257.385 52.1088C257.848 51.5785 258.244 50.9818 258.707 50.4514C259.368 49.6559 260.029 48.9266 260.557 48.1311C260.954 47.5344 261.284 46.9377 261.681 46.2748C262.143 45.5455 262.672 44.7499 263.002 44.0207C263.333 43.3577 263.531 42.7611 263.795 42.0981C264.126 41.3688 264.522 40.5733 264.72 39.844C264.919 39.1811 265.051 38.5181 265.249 37.8551C265.447 37.1259 265.712 36.3303 265.844 35.5348C265.976 34.8718 265.976 34.2088 266.042 33.5459C266.108 32.7503 266.24 32.0211 266.24 31.2255C266.24 19.8888 258.905 8.61847 244.103 -0.0663452L230.424 7.35884C236.173 10.7399 241.46 15.2481 244.698 21.6125C246.416 25.0599 247.275 29.3029 246.812 33.2807C246.416 37.3248 244.764 41.1036 242.451 44.3522C237.891 50.9155 230.754 54.827 224.278 58.4733L204.52 69.7437C178.154 84.8592 151.853 99.9748 125.883 114.825C119.341 118.405 113.261 122.714 108.57 128.416C103.944 133.985 100.838 141.078 101.235 148.238C101.433 155.465 104.869 162.094 109.627 167.398C114.385 172.635 120.464 176.68 126.676 179.795C139.231 186.094 153.109 189.143 166.589 190.071C180.136 191.132 193.484 189.873 205.974 186.823C212.252 185.298 218.265 183.11 223.816 180.525C229.499 177.674 234.719 174.492 240.072 171.442C250.711 165.343 261.02 159.443 270.932 153.807C290.69 142.471 308.797 132.128 324.855 122.913C340.846 112.836 357.895 110.847 371.046 111.245C384.46 111.709 394.703 114.759 401.245 117.543C407.787 120.394 410.893 122.648 410.893 122.648V122.714L425.365 114.295L422.92 112.969Z"
            fill="url(#paint8_linear_463_27898)" />
        <path
            d="M401.18 117.61C394.638 114.759 384.395 111.776 370.981 111.311C357.764 110.914 340.715 112.903 324.79 122.98C308.732 132.195 290.626 142.537 270.867 153.874C261.021 159.509 250.712 165.409 240.007 171.508C234.588 174.558 229.434 177.807 223.751 180.591C218.134 183.11 212.121 185.298 205.909 186.889C193.42 189.939 180.005 191.199 166.524 190.138C153.044 189.143 139.233 186.16 126.611 179.862C120.399 176.746 114.32 172.768 109.562 167.464C104.804 162.161 101.368 155.531 101.17 148.305C100.839 141.145 103.879 134.051 108.505 128.482C113.197 122.847 119.276 118.471 125.818 114.891C151.788 100.041 178.089 84.9255 204.455 69.81L224.214 58.5396C230.756 54.9596 237.826 50.9818 242.386 44.4185C244.633 41.17 246.351 37.3911 246.747 33.347C247.21 29.3692 246.351 25.1263 244.633 21.6789C241.329 15.3144 236.042 10.8726 230.359 7.42517L228.575 8.41962V9.81184C234.192 12.9941 239.28 17.3033 242.188 22.8059C244.17 26.5185 244.633 30.7615 243.906 34.8055C243.377 37.7226 242.188 40.507 240.404 43.0263C236.24 49.1255 229.764 52.9044 223.156 56.6833L203.53 68.2189C177.296 83.5333 151.127 98.9141 125.289 113.963C118.813 117.61 112.404 121.919 107.58 127.687C102.756 133.388 99.3855 140.747 99.7159 148.371C99.7159 150.028 99.9803 151.62 100.311 153.211C101.5 158.912 104.474 164.282 108.24 168.525C113.197 174.094 119.276 178.204 125.686 181.519C138.506 188.149 152.581 191.331 166.26 192.458C180.005 193.651 193.684 192.524 206.504 189.541C212.914 188.016 219.059 185.895 225.073 183.177C226.923 182.315 228.707 181.32 230.491 180.326C231.35 179.862 232.276 179.398 233.135 178.934C235.976 177.343 238.752 175.685 241.527 174.094C252.1 167.862 262.343 161.896 272.189 156.128C291.815 144.592 309.855 134.051 325.847 124.703C326.177 124.504 326.508 124.372 326.772 124.173C327.631 123.643 328.556 123.112 329.415 122.648C343.887 114.494 358.954 112.77 370.981 112.77C384.197 112.903 394.44 115.621 400.916 118.206C404.22 119.466 406.599 120.858 408.251 121.654C408.317 121.654 408.317 121.72 408.383 121.72C409.903 122.582 410.696 123.046 410.696 123.046L410.762 122.913L410.828 122.847V122.781C410.828 122.714 407.722 120.527 401.18 117.61Z"
            fill="url(#paint9_linear_463_27898)" />
        <path d="M412.217 103.422L404.75 99.113L379.837 113.698L397.613 124.04L422.592 109.455L412.217 103.422Z"
            fill="url(#paint10_linear_463_27898)" />
        <path d="M397.614 124.04L397.548 146.382L422.526 131.863L422.592 109.455L397.614 124.04Z"
            fill="url(#paint11_linear_463_27898)" />
        <path d="M379.838 113.698L379.772 136.04L397.548 146.382L397.614 124.041L379.838 113.698Z"
            fill="url(#paint12_linear_463_27898)" />
        <path
            d="M397.679 122.582L379.837 113.698L397.084 124.902L397.679 125.234L398.207 124.902C406.402 119.864 414.53 114.693 422.592 109.323C414.199 113.566 405.873 118.007 397.679 122.582Z"
            fill="url(#paint13_linear_463_27898)" />
        <path
            d="M397.15 132.99C396.819 132.725 396.621 132.327 396.291 132.062C395.696 131.399 395.035 130.802 394.572 130.139C394.308 129.742 394.176 129.278 393.912 128.88C393.581 128.283 393.185 127.686 392.986 127.09C392.854 126.626 392.854 126.162 392.722 125.698C392.59 125.101 392.458 124.504 392.458 123.974L392.392 146.382C392.392 150.625 395.167 154.868 400.718 158.05L400.784 135.642C399.396 134.78 398.207 133.918 397.15 132.99Z"
            fill="url(#paint14_linear_463_27898)" />
        <path d="M480.543 144.194V135.576L473.142 139.885L480.543 144.194Z" fill="url(#paint15_linear_463_27898)" />
        <path d="M440.696 158.78L440.63 181.188L448.097 176.812L448.163 154.47L440.696 158.78Z"
            fill="url(#paint16_linear_463_27898)" />
        <path d="M400.783 135.576L400.717 157.984L440.63 181.188L440.696 158.779L400.783 135.576Z"
            fill="url(#paint17_linear_463_27898)" />
        <path d="M448.163 154.47L448.097 176.812L465.939 187.154L466.005 164.746L448.163 154.47Z"
            fill="url(#paint18_linear_463_27898)" />
        <path
            d="M392.787 125.698C392.853 126.162 392.853 126.626 393.051 127.09C393.25 127.686 393.646 128.283 393.976 128.88C394.175 129.278 394.307 129.742 394.637 130.139C395.1 130.802 395.761 131.465 396.355 132.062C396.686 132.393 396.884 132.725 397.214 132.99C398.272 133.918 399.461 134.78 400.849 135.576L440.696 158.779L448.163 154.404L466.005 164.746L490.984 150.227L480.609 144.194L473.142 139.885L480.609 135.509L440.696 112.306C429.594 105.875 411.686 105.875 400.717 112.306C395.232 115.488 392.457 119.731 392.457 123.908C392.457 124.504 392.655 125.101 392.787 125.698Z"
            fill="url(#paint19_linear_463_27898)" />
        <path
            d="M392.786 125.565C392.984 127.289 394.173 128.614 394.966 129.94C396.288 131.134 397.081 132.393 398.601 133.189C400.055 134.117 401.31 134.979 402.896 135.708L407.323 138.095L424.967 147.708C436.598 154.404 430.056 150.293 441.554 157.254H439.968L447.435 152.945L448.228 152.481L448.955 152.945C454.902 156.393 460.783 159.973 466.599 163.619H465.409C473.868 158.978 482.326 154.404 490.917 150.094C482.855 155.464 474.727 160.636 466.533 165.674L466.004 166.006L465.409 165.674C459.33 162.426 453.316 159.111 447.369 155.663H448.889L441.488 160.105L440.695 160.569L439.836 160.105C428.139 153.608 434.946 157.056 423.381 150.293L406.266 139.752L402.037 137.1C400.583 136.239 399.195 135.111 397.94 134.117C396.552 133.255 395.561 131.531 394.438 130.404C393.777 128.747 392.719 127.289 392.786 125.565Z"
            fill="url(#paint20_linear_463_27898)" />
        <g opacity="0.7">
            <path opacity="0.7"
                d="M415.983 166.801L412.481 164.746V142.272L452.857 119.598L456.359 121.654L415.983 144.327V166.801Z"
                fill="url(#paint21_linear_463_27898)" />
        </g>
    </g>
    <defs>
        <linearGradient id="paint0_linear_463_27898" x1="469.092" y1="-726.802" x2="487.806" y2="-726.8"
            gradientUnits="userSpaceOnUse">
            <stop stop-color="#B5A7FF" />
            <stop offset="0.484375" stop-color="#7B61FF" />
            <stop offset="1" stop-color="#5793CE" />
        </linearGradient>
        <linearGradient id="paint1_linear_463_27898" x1="472.33" y1="-129.779" x2="474.162" y2="-129.779"
            gradientUnits="userSpaceOnUse">
            <stop stop-color="#B5A7FF" />
            <stop offset="0.484375" stop-color="#7B61FF" />
            <stop offset="1" stop-color="#5793CE" />
        </linearGradient>
        <linearGradient id="paint2_linear_463_27898" x1="11.3291" y1="256.038" x2="543.078" y2="256.038"
            gradientUnits="userSpaceOnUse">
            <stop offset="0.0556" stop-color="#746CF5" />
            <stop offset="0.505208" stop-color="#C9BFFF" />
            <stop offset="1" stop-color="#746CF5" />
        </linearGradient>
        <linearGradient id="paint3_linear_463_27898" x1="64.5137" y1="-4719.36" x2="447.525" y2="-4719.26"
            gradientUnits="userSpaceOnUse">
            <stop stop-color="#B5A7FF" />
            <stop offset="0.484375" stop-color="#7B61FF" />
            <stop offset="1" stop-color="#5793CE" />
        </linearGradient>
        <linearGradient id="paint4_linear_463_27898" x1="25.4894" y1="250.316" x2="542.629" y2="250.316"
            gradientUnits="userSpaceOnUse">
            <stop offset="0.0556" stop-color="#746CF5" />
            <stop offset="0.505208" stop-color="#C9BFFF" />
            <stop offset="1" stop-color="#746CF5" />
        </linearGradient>
        <linearGradient id="paint5_linear_463_27898" x1="124.015" y1="92.0485" x2="275.119" y2="92.0485"
            gradientUnits="userSpaceOnUse">
            <stop offset="0.0556" stop-color="#746CF5" />
            <stop offset="0.505208" stop-color="#C9BFFF" />
            <stop offset="1" stop-color="#746CF5" />
        </linearGradient>
        <linearGradient id="paint6_linear_463_27898" x1="107.507" y1="157.741" x2="445.293" y2="157.741"
            gradientUnits="userSpaceOnUse">
            <stop offset="0.0556" stop-color="#746CF5" />
            <stop offset="0.505208" stop-color="#C9BFFF" />
            <stop offset="1" stop-color="#746CF5" />
        </linearGradient>
        <linearGradient id="paint7_linear_463_27898" x1="228.922" y1="22.341" x2="245.194" y2="22.341"
            gradientUnits="userSpaceOnUse">
            <stop offset="0.0556" stop-color="#746CF5" />
            <stop offset="0.505208" stop-color="#C9BFFF" />
            <stop offset="1" stop-color="#746CF5" />
        </linearGradient>
        <linearGradient id="paint8_linear_463_27898" x1="142.107" y1="-4524.69" x2="384.964" y2="-4524.65"
            gradientUnits="userSpaceOnUse">
            <stop stop-color="#B5A7FF" />
            <stop offset="0.484375" stop-color="#7B61FF" />
            <stop offset="1" stop-color="#5793CE" />
        </linearGradient>
        <linearGradient id="paint9_linear_463_27898" x1="106.583" y1="100.17" x2="429.969" y2="100.17"
            gradientUnits="userSpaceOnUse">
            <stop offset="0.0556" stop-color="#746CF5" />
            <stop offset="0.505208" stop-color="#C9BFFF" />
            <stop offset="1" stop-color="#746CF5" />
        </linearGradient>
        <linearGradient id="paint10_linear_463_27898" x1="385.232" y1="-492.921" x2="417.263" y2="-492.915"
            gradientUnits="userSpaceOnUse">
            <stop stop-color="#B5A7FF" />
            <stop offset="0.484375" stop-color="#7B61FF" />
            <stop offset="1" stop-color="#5793CE" />
        </linearGradient>
        <linearGradient id="paint11_linear_463_27898" x1="400.708" y1="-767.574" x2="419.471" y2="-767.572"
            gradientUnits="userSpaceOnUse">
            <stop stop-color="#B5A7FF" />
            <stop offset="0.484375" stop-color="#7B61FF" />
            <stop offset="1" stop-color="#5793CE" />
        </linearGradient>
        <linearGradient id="paint12_linear_463_27898" x1="380.167" y1="130.039" x2="398.712" y2="130.039"
            gradientUnits="userSpaceOnUse">
            <stop offset="0.0556" stop-color="#746CF5" />
            <stop offset="0.505208" stop-color="#C9BFFF" />
            <stop offset="1" stop-color="#746CF5" />
        </linearGradient>
        <linearGradient id="paint13_linear_463_27898" x1="380.784" y1="117.278" x2="425.222" y2="117.278"
            gradientUnits="userSpaceOnUse">
            <stop offset="0.0556" stop-color="#746CF5" />
            <stop offset="0.505208" stop-color="#C9BFFF" />
            <stop offset="1" stop-color="#746CF5" />
        </linearGradient>
        <linearGradient id="paint14_linear_463_27898" x1="392.578" y1="141.011" x2="401.3" y2="141.011"
            gradientUnits="userSpaceOnUse">
            <stop offset="0.0556" stop-color="#746CF5" />
            <stop offset="0.505208" stop-color="#C9BFFF" />
            <stop offset="1" stop-color="#746CF5" />
        </linearGradient>
        <linearGradient id="paint15_linear_463_27898" x1="474.076" y1="-69.1164" x2="479.621" y2="-69.1159"
            gradientUnits="userSpaceOnUse">
            <stop stop-color="#B5A7FF" />
            <stop offset="0.484375" stop-color="#7B61FF" />
            <stop offset="1" stop-color="#5793CE" />
        </linearGradient>
        <linearGradient id="paint16_linear_463_27898" x1="441.581" y1="-480.077" x2="447.225" y2="-480.076"
            gradientUnits="userSpaceOnUse">
            <stop stop-color="#B5A7FF" />
            <stop offset="0.484375" stop-color="#7B61FF" />
            <stop offset="1" stop-color="#5793CE" />
        </linearGradient>
        <linearGradient id="paint17_linear_463_27898" x1="401.602" y1="158.38" x2="443.156" y2="158.38"
            gradientUnits="userSpaceOnUse">
            <stop offset="0.0556" stop-color="#746CF5" />
            <stop offset="0.505208" stop-color="#C9BFFF" />
            <stop offset="1" stop-color="#746CF5" />
        </linearGradient>
        <linearGradient id="paint18_linear_463_27898" x1="448.493" y1="170.811" x2="467.106" y2="170.811"
            gradientUnits="userSpaceOnUse">
            <stop offset="0.0556" stop-color="#746CF5" />
            <stop offset="0.505208" stop-color="#C9BFFF" />
            <stop offset="1" stop-color="#746CF5" />
        </linearGradient>
        <linearGradient id="paint19_linear_463_27898" x1="404.89" y1="-1252.54" x2="478.705" y2="-1252.53"
            gradientUnits="userSpaceOnUse">
            <stop stop-color="#B5A7FF" />
            <stop offset="0.484375" stop-color="#7B61FF" />
            <stop offset="1" stop-color="#5793CE" />
        </linearGradient>
        <linearGradient id="paint20_linear_463_27898" x1="394.956" y1="145.784" x2="496.954" y2="145.784"
            gradientUnits="userSpaceOnUse">
            <stop offset="0.0556" stop-color="#746CF5" />
            <stop offset="0.505208" stop-color="#C9BFFF" />
            <stop offset="1" stop-color="#746CF5" />
        </linearGradient>
        <linearGradient id="paint21_linear_463_27898" x1="418.018" y1="-1001.49" x2="450.89" y2="-1001.48"
            gradientUnits="userSpaceOnUse">
            <stop stop-color="#483B89" />
            <stop offset="0.484375" stop-color="#403189" />
            <stop offset="1" stop-color="#1C4976" />
        </linearGradient>
        <clipPath id="clip0_463_27898">
            <rect width="512" height="358" fill="white" />
        </clipPath>
    </defs>


    <style>
        .opacitya {
            animation: opacity 3s ease-in-out infinite;
        }

        @keyframes opacity {
            0% {
               opacity: 1;
            }
            50% {
                opacity: 0.6;
            }
            100% {
                opacity: 1;
            }
        }

    </style>
</svg>