<svg width="554" height="451" viewBox="0 0 554 451" fill="none" xmlns="http://www.w3.org/2000/svg">
    <g clip-path="url(#clip0_463_28063)" class="land">
        <path
            d="M195.31 441.4C195.44 441.01 195.52 440.6 195.55 440.18C195.74 437.87 194.45 435.74 192.02 434.34L191.89 434.27L191.76 434.21C191.31 434 190.92 433.82 190.56 433.67L188.55 432.19C187.57 431.47 186.96 431.13 186.51 430.87L186.3 430.75C185.86 430.49 185.46 430.21 185.06 429.94C184.49 429.54 183.9 429.13 183.22 428.74C181.06 427.55 179 426.88 176.67 426.6C174.51 426.35 172.43 425.88 170.22 425.37C169.23 425.15 168.24 424.92 167.24 424.72C164.74 424.21 162.39 423.28 159.82 421.8C159.31 421.51 158.81 421.2 158.33 420.89L158.22 420.82C155.39 419.16 152.81 418.41 149.87 418.36C148.96 418.35 148.38 418.22 147.73 417.9C145.48 416.8 143.1 416.75 140.99 416.7C140.67 416.69 140.36 416.69 140.05 416.67C138.78 416.63 138.19 416.43 137.91 416.27C137.84 416.23 137.79 416.19 137.74 416.15L137.53 415.96L137.29 415.81C135.5 414.66 134.21 414.31 133.04 414.05C131.41 413.7 129.73 413.35 128 413.06C128.11 412.53 128.12 412 128.03 411.47C127.9 410.76 127.45 409.41 125.86 408.44L125.4 408.15C125.02 407.91 124.64 407.68 124.25 407.45C122.82 406.63 120.82 405.69 117.89 405.69H117.52C117.27 405.69 116.64 405.52 116.18 405.39C115.67 405.25 115.08 405.09 114.46 404.98C113.45 404.81 112.45 404.53 111.39 404.24C109.79 403.8 108.15 403.34 106.32 403.2C105.13 403.11 104.23 402.87 103.54 402.48C102.93 402.13 102.44 401.63 101.86 401.01L102.43 399.85L100.42 398.07C99.51 397.27 98.95 396.81 98.4 396.35C97.87 395.92 97.31 395.46 96.63 395.02C98.02 392.99 97.27 390.91 95.9 389.77C95.53 389.47 95.32 389.14 95 388.58L95.05 388.46C95.06 388.46 95.18 388.29 95.45 388.06C97.07 386.71 97.82 384.89 97.58 382.94C97.52 382.52 97.6 381.95 97.68 381.29C97.75 380.77 97.81 380.26 97.84 379.74C97.87 379.48 98.33 378.65 98.64 378.1C98.69 378.02 98.73 377.94 98.78 377.86L99.86 377.94L100.84 376.13C100.94 376.1 101.36 375.97 101.36 375.97C106.64 374.37 107.58 371.13 107.65 369.28C108 369.01 108.3 368.74 108.56 368.51C108.95 368.16 109.13 368.01 109.35 367.91C109.86 367.68 112.21 366.46 111.96 363.44C112.06 363.41 112.17 363.39 112.29 363.36C112.83 363.29 114.51 363.06 115.51 361.45C115.99 360.66 116.87 359.81 117.81 358.91C119.08 357.68 120.52 356.29 121.48 354.53C123.47 350.83 123.16 347.09 120.6 343.95C120.57 343.88 120.55 343.81 120.53 343.74C120.4 343.37 120.22 342.85 119.9 342.3C120.08 341.44 120.1 340.7 120.11 340.16C120.11 339.97 120.1 339.79 120.13 339.62L120.93 335.75L116.99 335.4C115.83 335.3 115.37 335.22 115.19 335.18C113.98 334.46 113.17 334.17 112.38 333.91L112.23 333.86C112.06 333.8 111.91 333.75 111.77 333.69C111.84 333.52 111.89 333.35 111.94 333.18C112.17 333.21 112.38 333.24 112.56 333.28C112.9 333.35 113.26 333.44 113.62 333.52C115.17 333.88 116.93 334.29 118.88 334.29C119.34 334.29 119.81 334.27 120.29 334.22L124.43 333.78L123.45 330.26L124.78 329.8L121.88 325.95C121.41 325.33 120.83 324.81 120.14 324.39C120.39 323.97 120.59 323.5 120.71 322.98L121.33 320.38L120.1 319.7C119.99 319.12 119.74 318.57 119.37 318.07L118.92 317.48L118.27 317.12C117.36 316.62 116.49 316.15 115.37 316.02C115.35 315.95 115.34 315.88 115.31 315.81C116.09 315.52 116.99 314.98 117.54 313.86C118.05 312.81 118.05 311.59 117.53 310.51L117.17 309.75L116.74 309.42C117.1 308.95 117.38 308.39 117.55 307.77C117.77 306.94 117.74 306.12 117.5 305.38C118.19 304.89 118.76 304.2 119.02 303.12C119.09 302.81 119.14 302.52 119.16 302.24C119.54 302.07 119.91 301.85 120.27 301.59C120.28 301.59 120.49 301.51 121.06 301.51C121.65 301.51 122.38 301.59 123.08 301.67C123.43 301.71 123.78 301.75 124.11 301.78L124.49 301.82C125.64 301.93 126.82 302.04 128.06 302.04C128.7 302.04 129.3 302.01 129.88 301.95C130.31 302.41 130.76 302.71 131.06 302.9L131.19 302.99L132.5 304.02L134.09 303.63C136.46 303.11 137.31 301.71 137.61 300.64L137.86 299.73C138.35 299.53 138.76 299.37 139.17 299.21C139.56 299.1 139.81 299.08 139.99 299.08C140.24 299.08 140.47 299.11 140.68 299.13C141.09 299.17 141.47 299.2 141.87 299.2C142.08 299.2 142.28 299.19 142.49 299.17L153.67 298.22L147.34 294.56L157.06 290.06L144.28 288.76C143.71 288.7 143.15 288.62 142.61 288.54C141.86 288.43 141.08 288.31 140.27 288.25C140.11 287.08 139.49 286.21 138.87 285.56C138.98 285.21 139.05 284.84 139.06 284.46C139.12 282.74 138.16 281.18 136.43 280.19C136.15 280.03 135.85 279.88 135.54 279.76C135.54 279.74 135.53 279.73 135.53 279.71C135.95 279.35 136.31 278.9 136.57 278.37L137.57 276.37L137.42 276.18C138.11 275.83 138.73 275.36 139.25 274.77C139.41 274.69 139.69 274.56 139.88 274.46C140.9 273.99 142.64 273.19 143.5 271.44C144.1 270.94 144.96 270.08 145.27 268.74C145.46 267.92 145.45 267.12 145.26 266.38C145.77 266.24 146.26 266.05 146.73 265.8C146.89 265.72 147.1 265.66 147.31 265.59C147.84 265.41 148.61 265.14 149.36 264.67C149.47 264.67 149.57 264.68 149.67 264.68C150.97 264.68 151.89 264.26 152.53 263.77C155.33 263.57 157.36 262.79 158.61 261.43C158.86 261.44 159.1 261.45 159.34 261.45C161.1 261.45 162.55 261.13 163.79 260.47L166.43 259.07L165.93 257.58C166 257.52 166.08 257.46 166.15 257.4C166.19 257.4 166.23 257.4 166.28 257.4C166.63 257.4 166.92 257.48 167.35 257.59L167.66 257.67L167.77 257.71C168.18 257.88 168.93 258.18 169.89 258.18C170.8 258.18 171.69 257.91 172.47 257.38C172.22 258.09 172.16 258.91 172.42 259.86L172.45 259.97C172.87 261.29 173.98 262.48 175.75 263.5C176.4 263.88 177.4 264.36 178.43 264.54C178.69 264.59 178.94 264.61 179.17 264.61C179.18 264.63 179.2 264.65 179.21 264.66C179.3 266.06 179.86 267.18 180.29 268.02C180.43 268.29 180.61 268.66 180.66 268.82L180.98 269.96L181.93 270.67C183.3 271.7 184.98 272.26 186.65 272.26C187.29 272.26 187.91 272.18 188.5 272.01C189.64 271.7 191.07 271.62 192.59 271.53C193.58 271.48 194.61 271.42 195.65 271.29C195.68 271.29 195.71 271.29 195.73 271.29C196.09 271.29 196.38 271.32 196.68 271.35C197.2 271.4 197.79 271.46 198.44 271.46C199.04 271.46 199.59 271.41 200.11 271.31C200.46 271.27 200.78 271.21 201.07 271.13C201.5 271.17 201.9 271.19 202.27 271.19C203.96 271.19 205.3 270.75 206.26 269.89C206.57 269.83 207.11 269.8 207.48 269.78C207.75 269.76 208.02 269.74 208.29 269.72L208.86 269.67C209.95 269.59 211.3 269.48 212.58 268.82C212.59 268.82 212.75 268.77 213.17 268.77C213.63 268.77 214.09 268.82 214.56 268.86C215.06 268.9 215.56 268.95 216.04 268.97H216.22C220.49 268.91 223.26 268.58 225.65 266.99C225.85 266.87 226.66 266.62 227.92 266.62C228.78 266.62 229.64 266.73 230.34 266.94C231.2 267.2 232.07 267.33 232.91 267.33C233.74 267.33 234.53 267.2 235.27 266.95C236.14 266.65 237.32 266.5 238.57 266.34C239.27 266.25 239.96 266.16 240.63 266.05C242.67 265.71 244.18 265.11 245.51 264.11C247.78 262.42 248.52 260.22 248.92 258.5C249.6 255.39 246.93 253.62 245.79 252.86C245.79 252.86 245.78 252.85 245.78 252.84C245.35 250.97 244.16 249.65 243.21 248.6L242.95 248.31C241.76 246.99 240.35 245.93 238.99 244.91C237.58 243.85 235.97 242.65 235.51 241.7L235.15 240.98L234.52 240.48C233.45 239.64 232.59 239.33 231.86 239.11C230.68 238.75 229.48 238.36 228.69 237.91C228.33 237.7 228.19 237.55 228.14 237.5C227.64 236.9 227.06 236.4 226.41 236.03C225.57 235.55 224.64 235.26 223.63 235.19C222.9 235.13 222.55 234.99 222.41 234.91C222.19 234.78 222.01 234.52 221.61 233.9L221.47 233.68C221.1 233.1 220.48 232.12 219.22 231.39C218.86 231.18 218.47 231.01 218.05 230.86C217.69 229.9 216.9 228.87 215.32 227.95C214.73 227.62 214.14 227.4 213.53 227.3C213.49 226.85 213.37 226.41 213.17 226.02C213.82 226.25 214.58 226.44 215.43 226.44C215.89 226.44 216.33 226.39 216.76 226.28C217.03 226.55 217.36 226.81 217.75 227.03C218.51 227.47 219.35 227.69 220.26 227.69C220.67 227.69 221.09 227.65 221.52 227.55C222.16 227.68 222.77 227.7 223.28 227.72L223.92 229.08L226.54 228.65C226.72 228.62 226.86 228.6 226.97 228.58C228.32 229.39 229.49 230.06 230.93 230.47C231.4 230.83 231.82 231.13 232.31 231.42C233.64 232.19 235.14 232.61 236.46 232.99C237.12 233.18 237.74 233.35 238.27 233.55L238.6 233.67C239.63 234.05 240.9 234.53 242.58 234.54C244.03 234.54 245.93 234.24 247.18 232.83C247.63 232.32 247.94 231.7 248.09 231.06C248.62 231.15 249.17 231.19 249.75 231.19C250.46 231.19 251.12 231.13 251.82 231.07L252 231.02C253.35 230.92 254.86 230.86 256.32 230.8C256.36 230.83 256.4 230.85 256.43 230.88C256.69 231.06 256.87 231.18 257.08 231.3C261.07 233.49 263.66 234.25 266.4 234.97C266.45 234.98 266.49 235 266.53 235.01C267.22 235.67 267.68 236.06 268.28 236.41C269.84 237.31 271.58 237.47 272.92 237.51C273.3 237.52 273.66 237.56 274.03 237.59C274.61 237.65 275.26 237.71 275.96 237.71C276.46 237.71 276.93 237.68 277.37 237.61C278.74 238.14 279.98 238.42 281.02 238.66C281.75 238.82 282.45 238.98 282.85 239.16C283.56 239.47 284.03 239.7 284.4 239.92C285.04 240.29 285.19 240.5 285.19 240.51C285.7 241.27 286.35 241.88 287.12 242.32C288.06 242.86 289.15 243.13 290.37 243.13C290.59 243.13 290.83 243.12 291.08 243.1L291.58 243.06C291.58 243.06 292.32 242.78 292.42 242.75C293.33 243.35 293.8 243.65 294.22 243.89C295.68 244.73 296.95 245.09 298.46 245.09C299.55 245.09 300.7 244.91 302.44 244.63L303.14 244.52C304.03 244.38 304.75 244.12 305.32 243.9C305.77 243.73 306.06 243.63 306.23 243.63C306.29 243.63 306.36 243.64 306.44 243.66L308.03 244.02L309.34 243.04C309.64 242.82 309.88 242.74 310.25 242.74C310.77 242.74 311.48 242.9 312.43 243.22C313.06 243.44 313.68 243.55 314.27 243.55C315.23 243.55 316.1 243.25 316.79 242.73C317.74 242.68 318.66 242.44 319.53 242.02C320.06 242.13 320.76 242.26 321.47 242.26C322.77 242.26 323.69 241.86 324.33 241.39C324.54 241.36 324.74 241.33 324.93 241.29C325.27 241.68 325.68 242.02 326.18 242.3C326.83 242.68 327.61 242.94 328.55 243.11C329.4 243.25 330.23 243.32 331.05 243.32C332.25 243.32 333.46 243.18 334.75 242.9C334.78 242.91 334.83 242.93 334.89 242.94C335.25 243.03 335.6 243.11 335.98 243.15C336.1 243.16 336.46 243.33 336.73 243.44C337.57 243.81 338.72 244.32 340.25 244.32C340.33 244.32 340.42 244.32 340.5 244.32C342.19 245.13 343.34 245.51 344.3 245.84L344.91 246.05C345.84 246.38 347.24 246.87 348.81 246.87C349.59 246.87 350.34 246.75 351.06 246.52C351.38 246.55 351.7 246.58 352.02 246.58C353.13 246.58 354.1 246.28 354.92 245.68L356.73 244.36C356.75 244.36 356.77 244.35 356.79 244.35C357.18 244.29 357.56 244.23 357.96 244.18L359.26 244.03L359.45 243.82C360.06 244.33 360.5 244.63 361 244.92C361.82 245.39 362.68 245.75 363.45 246.06C363.9 246.25 364.36 246.43 364.78 246.64C365.78 247.13 366.77 247.37 367.75 247.37C368.91 247.37 370 247.03 370.92 246.39C371.93 246.89 373.2 247.14 374.73 247.14C376.51 247.14 377.87 246.83 378.83 246.19C379.16 246.21 379.48 246.23 379.81 246.24C380.77 246.28 381.59 246.32 382.22 246.56C383.1 246.9 384.3 247.11 385.32 247.11C385.85 247.11 386.32 247.06 386.76 246.95C387.19 246.84 387.62 246.79 388.09 246.79C389.27 246.79 390.54 247.1 392.01 247.46C392.71 247.64 393.47 247.81 394.31 247.81C395.06 247.81 395.76 247.67 396.39 247.4C398.24 248.58 399.78 249.07 401.53 249.07C401.73 249.07 401.93 249.06 402.14 249.05C402.24 249.05 402.47 249.04 402.49 249.04C402.91 249.53 403.44 249.94 404.09 250.32C404.48 250.55 404.94 250.77 405.4 250.98C406.25 251.38 407.25 251.86 408.14 252.38C409.07 252.92 409.76 253.42 410.25 253.9L410.51 254.16L410.82 254.36C412.39 255.39 413.83 255.64 415.02 255.75C417.51 255.98 419.68 256.51 421.44 257.32C421.8 257.48 422.15 257.66 422.48 257.84L424.87 259.17L425.41 258.6C425.42 258.6 425.42 258.61 425.43 258.61C426.1 259 426.81 259.29 427.59 259.51C427.93 260.17 428.36 260.67 428.67 261.04C428.7 261.07 428.73 261.1 428.75 261.14L428.95 261.98L429.99 262.74C433.72 265.48 435.32 267.09 436.57 268.66L436.82 268.98C437.39 269.73 438.17 270.76 439.56 271.56C440.23 271.95 440.98 272.24 441.8 272.44C443.24 273.76 444.35 274.85 445.02 275.82C445.04 277.64 445.93 279.24 447.41 280.09L447.71 280.26C447.69 280.48 447.68 280.71 447.69 280.96C447.22 281.81 446.11 284.02 447.65 286.43C447.74 286.6 447.85 286.89 447.98 287.2C448.19 287.7 448.41 288.23 448.68 288.74C448.98 290.72 450.54 292.05 451.3 292.71C451.39 292.79 451.51 292.89 451.61 292.98C451.68 293.26 451.77 293.49 451.85 293.68C451.97 295.67 453.44 296.99 454.28 297.74C455.51 298.82 456.32 299.91 457.15 301.57C457.34 301.95 457.5 302.33 457.66 302.71C458.48 304.63 459.6 307.25 463.05 309.25C464.05 309.81 464.36 310.2 464.84 310.79C465 310.99 465.15 311.18 465.31 311.36C465.44 311.51 465.54 311.64 465.64 311.77C466.1 312.37 466.79 313.27 467.99 313.96C468.43 314.21 468.9 314.42 469.4 314.57C467.46 315.73 465.55 316.91 463.69 318.09C460.39 320.22 458.48 323.19 457.99 326.94C457.91 327.56 457.9 328.13 457.9 328.63C457.9 328.9 457.9 329.3 457.87 329.48C457.45 329.96 457.07 330.26 456.58 330.51L456.4 330.59C455.79 330.87 454.58 331.44 453.92 332.75C453.91 332.75 453.76 332.75 453.76 332.75C452.87 332.75 452.15 332.95 451.59 333.21C450.61 332.38 449.43 331.93 448.21 331.93C447.97 331.93 447.76 331.95 447.57 331.97C446.52 332.09 445.59 332.41 444.83 332.89C443.85 332.54 442.68 332.36 441.3 332.35C439.69 332.35 438.35 332.94 437.5 334C437 334.63 436.72 335.37 436.67 336.14C436.65 336.17 436.42 336.43 436.33 336.54C435.16 337.77 435.05 339 435.17 339.83C435.27 340.56 435.59 341.23 436.07 341.78C436.02 342.18 436 342.58 436.01 342.98C435.98 343.09 435.94 343.19 435.9 343.3C433.13 344.18 430.9 344.87 428.36 345.06C426.17 345.21 424.46 345.83 423.27 346.89C423.22 346.9 423.17 346.91 423.12 346.91C422.72 346.98 422.32 347.05 421.95 347.15L421.5 347.27C420.41 347.55 418.69 347.99 417.68 349.5C417.67 349.5 417.65 349.5 417.63 349.5C417.05 349.5 416.46 349.54 415.84 349.61C414.99 349.7 414.2 349.86 413.32 350.04L412.71 350.17L412.18 350.5C410.72 351.41 409.66 351.77 408.4 351.77C407.89 351.77 407.33 351.71 406.7 351.6C405.67 351.41 404.56 351.31 403.5 351.31C402.65 351.31 401.83 351.37 401.06 351.5C400.93 351.52 400.83 351.53 400.73 351.53C400.22 351.53 399.59 351.33 398.85 351.09C398.8 351.07 398.74 351.06 398.69 351.04C398.26 350.25 397.62 349.6 396.76 349.11C396.3 348.84 395.77 348.61 395.14 348.41C391.65 347.27 388.01 346.69 384.31 346.69C382.13 346.69 379.89 346.89 377.63 347.29C376.41 347.5 375.48 347.88 374.78 348.34C374.24 347.8 373.68 347.36 373.22 346.99L372.84 346.69L372.65 346.58C369.85 344.87 367.51 344.78 365.63 344.7C365.26 344.69 364.69 344.54 364.13 344.4C363.7 344.29 363.28 344.18 362.85 344.09C362.38 344 361.94 343.95 361.52 343.95C360.09 343.95 359.15 344.48 358.57 344.99C358.22 343.76 357.41 342.74 356.22 342.05C356.01 341.93 355.79 341.82 355.55 341.72C355.24 340.89 354.65 340.18 353.85 339.72C352.86 339.15 351.81 339.07 350.99 339.07C350.89 339.03 350.7 338.94 350.56 338.87C350.41 338.8 350.26 338.72 350.12 338.65C349.09 338.18 348.07 337.95 347.05 337.95C346.42 337.95 345.78 338.04 345.15 338.21L336.48 340.62L344.33 344.66C344.38 346.13 345.12 347.64 346.39 348.81C346.4 348.82 346.42 348.84 346.43 348.85C346.42 348.86 346.41 348.87 346.41 348.88C343.71 352.24 344.19 355.13 345.11 356.99C344.84 356.89 344.58 356.8 344.31 356.7C342.06 355.88 339.52 354.94 336.45 354.94C335.75 354.94 335.04 354.99 334.35 355.09C334.26 355.1 334.18 355.11 334.12 355.11C334.1 355.1 334.06 355.08 334 355.05C332.56 354.29 330.92 353.88 329.29 353.88C327.69 353.88 326.18 354.28 324.93 355.02C324.85 355.02 324.77 355.01 324.68 355.01C324.32 354.49 323.83 354.03 323.23 353.66C322.13 353.02 320.87 352.7 319.59 352.7C318.87 352.7 317.9 352.8 316.95 353.22C316.45 353.08 315.91 353.02 315.31 353.02C315.08 353.02 314.84 353.03 314.61 353.05L314.11 353.08C312.46 353.19 309.33 353.38 307.77 355.67C306.62 355.76 305.56 355.94 304.54 356.11L304.24 356.16C301.85 356.55 300.25 357.48 299.46 358.91C299.26 358.93 298.97 358.95 298.59 358.97C294.92 359.1 291.6 359.84 288.77 360.54L288.67 360.56C286.31 361.07 285.47 362.44 285.17 363.47C284.98 363.61 284.59 363.84 283.8 364.21C280.4 365.79 277.82 367.72 275.32 369.59C274.74 370.02 274.16 370.46 273.56 370.89L273.14 371.19L272.83 371.6C271.84 372.89 271.08 374.02 270.41 375.02C269.51 376.35 268.8 377.4 267.92 378.31L267.3 378.95C265.16 381.17 263.3 383.08 260.25 384.47C259.96 384.6 259.66 384.71 259.36 384.83C258.01 385.35 256.16 386.05 255.04 387.83L255.01 387.85C254.64 388.29 253.88 389.21 253.75 390.58C253.72 390.91 253.14 391.76 252.72 392.37C252.09 393.29 251.35 394.39 250.89 395.72C248.49 397.33 247.84 399.17 247.71 400.47C247.54 402.26 248.21 403.99 249.73 405.64L249.12 406L249.07 406.25L248.69 406.45C248.09 406.79 247.5 407.1 246.94 407.4C245.28 408.27 243.68 409.11 242.47 410.34C242.34 410.33 242.22 410.33 242.09 410.33C240.45 410.33 239.05 411.04 238.21 412.21C238.2 412.21 238.19 412.22 238.18 412.22C234 413.69 231.35 415.99 229.01 418.23C228.91 418.28 228.81 418.33 228.71 418.38L228.59 418.44C226.37 419.51 223.96 420.98 223.22 423.67C223.03 424.37 222.92 425.3 223.15 426.38C221.73 427.14 221.06 428.11 220.72 428.89C220.44 429.55 220.32 430.26 220.36 430.96C220.03 431.91 219.97 432.75 219.94 433.33C219.32 433.92 218.75 434.54 218.28 435.05C218.11 435.11 217.85 435.17 217.66 435.22C216.65 435.48 215.27 435.83 214.17 436.95C213.95 437.17 213.28 437.54 212.74 437.85C212.2 438.15 211.58 438.5 211 438.9C210.7 439.11 210.18 439.26 209.42 439.35L209.3 439.36C208.12 439.51 206.81 439.67 205.57 440.27C204.41 440.2 203.15 440.12 201.9 440.12C200.15 440.15 197.63 440.3 195.31 441.4Z"
            fill="url(#paint0_linear_463_28063)" />
    </g>
    <g opacity="0.7" class="lines">
        <path
            d="M11.999 317L228.999 450L279.999 349.5L493.499 348.5L473.499 218.5L541.499 160.5L378.177 158.496L246.999 155.5L223.999 245.5L11.999 317Z"
            stroke="url(#paint1_linear_463_28063)" />
        <path d="M12.5005 317L273.696 270.3" stroke="url(#paint2_linear_463_28063)" />
        <path d="M222.499 244L273.696 269.758L378.999 159.5" stroke="url(#paint3_linear_463_28063)" />
        <path d="M472.5 218L377.999 158.5" stroke="url(#paint4_linear_463_28063)" />
        <path d="M492.999 347L273.695 270.3M273.695 270.3L280.999 350L198 310.5L273.695 270.3Z"
            stroke="url(#paint5_linear_463_28063)" />
        <path d="M11.5 317.5L197.73 311.094" stroke="url(#paint6_linear_463_28063)" />
        <path d="M197 310L228.5 449" stroke="url(#paint7_linear_463_28063)" />
    </g>
    <g clip-path="url(#clip1_463_28063)">
        <ellipse opacity="0.5" cx="541.902" cy="159.927" rx="11.9024" ry="11.9274"
            fill="url(#paint8_linear_463_28063)" />
        <path opacity="0.3"
            d="M548.976 159.927C548.976 163.844 545.808 167.018 541.902 167.018C537.996 167.018 534.828 163.844 534.828 159.927C534.828 156.011 537.996 152.837 541.902 152.837C545.808 152.837 548.976 156.011 548.976 159.927Z"
            fill="white" stroke="white" />
        <ellipse cx="541.902" cy="159.927" rx="3.24612" ry="3.25293" fill="white" />
    </g>
    <g clip-path="url(#clip2_463_28063)">
        <ellipse opacity="0.5" cx="492.902" cy="346.927" rx="11.9024" ry="11.9274"
            fill="url(#paint9_linear_463_28063)" />
        <path opacity="0.3"
            d="M499.976 346.927C499.976 350.844 496.808 354.018 492.902 354.018C488.996 354.018 485.828 350.844 485.828 346.927C485.828 343.011 488.996 339.837 492.902 339.837C496.808 339.837 499.976 343.011 499.976 346.927Z"
            fill="white" stroke="white" />
        <ellipse cx="492.902" cy="346.927" rx="3.24612" ry="3.25293" fill="white" />
    </g>
    <g clip-path="url(#clip3_463_28063)">
        <ellipse opacity="0.5" cx="377.902" cy="157.927" rx="11.9024" ry="11.9274"
            fill="url(#paint10_linear_463_28063)" />
        <path opacity="0.3"
            d="M384.976 157.927C384.976 161.844 381.808 165.018 377.902 165.018C373.996 165.018 370.827 161.844 370.827 157.927C370.827 154.011 373.996 150.837 377.902 150.837C381.808 150.837 384.976 154.011 384.976 157.927Z"
            fill="white" stroke="white" />
        <ellipse cx="377.902" cy="157.927" rx="3.24612" ry="3.25293" fill="white" />
    </g>
    <g clip-path="url(#clip4_463_28063)">
        <ellipse opacity="0.5" cx="273.696" cy="270.3" rx="11.9024" ry="11.9274"
            fill="url(#paint11_linear_463_28063)" />
        <path opacity="0.3"
            d="M280.77 270.3C280.77 274.217 277.602 277.39 273.696 277.39C269.79 277.39 266.621 274.217 266.621 270.3C266.621 266.383 269.79 263.21 273.696 263.21C277.602 263.21 280.77 266.383 280.77 270.3Z"
            fill="white" stroke="white" />
        <ellipse cx="273.696" cy="270.3" rx="3.24611" ry="3.25293" fill="white" />
    </g>
    <g clip-path="url(#clip5_463_28063)">
        <ellipse opacity="0.5" cx="197.902" cy="310.927" rx="11.9024" ry="11.9274"
            fill="url(#paint12_linear_463_28063)" />
        <path opacity="0.3"
            d="M204.977 310.927C204.977 314.844 201.808 318.018 197.902 318.018C193.996 318.018 190.828 314.844 190.828 310.927C190.828 307.011 193.996 303.837 197.902 303.837C201.808 303.837 204.977 307.011 204.977 310.927Z"
            fill="white" stroke="white" />
        <ellipse cx="197.902" cy="310.927" rx="3.24612" ry="3.25294" fill="white" />
    </g>
    <g clip-path="url(#clip6_463_28063)">
        <ellipse opacity="0.5" cx="11.9024" cy="316.927" rx="11.9024" ry="11.9274"
            fill="url(#paint13_linear_463_28063)" />
        <path opacity="0.3"
            d="M18.9767 316.927C18.9767 320.844 15.8084 324.018 11.9024 324.018C7.99638 324.018 4.82812 320.844 4.82812 316.927C4.82812 313.011 7.99638 309.837 11.9024 309.837C15.8084 309.837 18.9767 313.011 18.9767 316.927Z"
            fill="white" stroke="white" />
        <ellipse cx="11.9024" cy="316.927" rx="3.24612" ry="3.25294" fill="white" />
    </g>
    <g clip-path="url(#clip7_463_28063)">
        <ellipse opacity="0.5" cx="280.902" cy="349.927" rx="11.9024" ry="11.9274"
            fill="url(#paint14_linear_463_28063)" />
        <path opacity="0.3"
            d="M287.976 349.927C287.976 353.844 284.808 357.018 280.902 357.018C276.996 357.018 273.828 353.844 273.828 349.927C273.828 346.011 276.996 342.837 280.902 342.837C284.808 342.837 287.976 346.011 287.976 349.927Z"
            fill="white" stroke="white" />
        <ellipse cx="280.902" cy="349.927" rx="3.24612" ry="3.25293" fill="white" />
    </g>
    <g clip-path="url(#clip8_463_28063)">
        <ellipse opacity="0.5" cx="246.902" cy="154.927" rx="11.9024" ry="11.9274"
            fill="url(#paint15_linear_463_28063)" />
        <path opacity="0.3"
            d="M253.976 154.927C253.976 158.844 250.808 162.018 246.902 162.018C242.996 162.018 239.828 158.844 239.828 154.927C239.828 151.011 242.996 147.837 246.902 147.837C250.808 147.837 253.976 151.011 253.976 154.927Z"
            fill="white" stroke="white" />
        <ellipse cx="246.902" cy="154.927" rx="3.24612" ry="3.25293" fill="white" />
    </g>
    <g clip-path="url(#clip9_463_28063)">
        <ellipse opacity="0.5" cx="222.902" cy="243.927" rx="11.9024" ry="11.9274"
            fill="url(#paint16_linear_463_28063)" />
        <path opacity="0.3"
            d="M229.976 243.927C229.976 247.844 226.808 251.018 222.902 251.018C218.996 251.018 215.828 247.844 215.828 243.927C215.828 240.011 218.996 236.837 222.902 236.837C226.808 236.837 229.976 240.011 229.976 243.927Z"
            fill="white" stroke="white" />
        <ellipse cx="222.902" cy="243.927" rx="3.24611" ry="3.25293" fill="white" />
    </g>
    <g clip-path="url(#clip10_463_28063)" id="satellite">
        <path
            d="M203.462 206.667L78.1075 134.205C70.3154 129.709 64 117.628 64 107.251V14.4878C64 4.08749 70.3154 -0.681219 78.1075 3.815L203.439 76.2767C211.231 80.7729 217.547 92.8537 217.547 103.231V195.994C217.57 206.394 211.254 211.163 203.462 206.667Z"
            fill="url(#paint17_linear_463_28063)" />
        <path
            d="M207.46 74.1649L82.128 1.70313C79.0385 -0.0908159 76.1761 -0.40873 73.8589 0.476888C73.5636 0.590429 69.6335 2.67958 69.3381 2.83854V2.86125C71.7462 1.68042 74.7903 1.9075 78.1298 3.8377L203.462 76.2994C211.254 80.7956 217.569 92.8764 217.569 103.254V196.017C217.569 202.511 215.116 206.803 211.367 208.029C211.663 208.052 212.049 207.939 212.594 207.598C212.776 207.484 217.047 205.077 217.206 204.964C219.886 203.079 221.567 199.219 221.567 193.882V101.119C221.567 90.7191 215.252 78.6611 207.46 74.1649Z"
            fill="url(#paint18_linear_463_28063)" />
        <path
            d="M204.143 75.9361L78.7885 3.47435C75.5854 1.63499 72.6548 1.3625 70.2922 2.38436C72.3141 2.06645 74.6313 2.54332 77.1075 3.97393L202.439 76.4357C210.231 80.9319 216.547 93.0126 216.547 103.39V196.153C216.547 202.284 214.343 206.44 210.936 207.916C215.297 207.235 218.251 202.761 218.251 195.654V102.913C218.251 92.513 211.935 80.4323 204.143 75.9361Z"
            fill="white" />
        <path fill-rule="evenodd" clip-rule="evenodd"
            d="M82.2649 11.7174V28.5896L68.748 20.8461V14.5106C68.748 10.7183 69.9066 6.90332 72.4964 6.90332C73.4051 6.90332 74.5183 7.26665 75.7223 7.9479L82.2649 11.7174ZM115.273 64.9681L100.075 56.2254V40.3524L115.273 49.0723V64.9681ZM83.583 64.1279L98.7582 72.8478V56.9748L83.583 48.2549V64.1279ZM98.7582 90.2422V74.3692L83.583 65.6266V81.4996L98.7582 90.2422ZM98.7582 107.637V91.7637L83.583 83.0211V98.8941L98.7582 107.637ZM100.075 92.5131L115.273 101.256V117.129L100.075 108.386V92.5131ZM116.567 65.7174L131.765 74.4601V58.5644L116.567 49.8444V65.7174ZM115.273 66.4668V82.3398L100.075 73.6199V57.7242L115.273 66.4668ZM115.273 134.5V118.627L100.075 109.885V125.781L115.273 134.5ZM116.567 119.377L131.765 128.119V143.992L116.567 135.273V119.377ZM197.737 148.693L182.562 139.973V155.846L197.737 164.566V148.693ZM182.562 138.452V122.579L197.737 131.321V147.194L182.562 138.452ZM166.069 130.481V146.354L181.245 155.097V139.201L166.069 130.481ZM182.562 121.057V105.184L197.737 113.927V129.8L182.562 121.057ZM164.752 147.103L149.554 138.361V154.257L164.752 162.976V147.103ZM166.069 147.853L181.245 156.595V172.468L166.069 163.726V147.853ZM148.258 137.611L133.061 128.869V144.765L148.258 153.484V137.611ZM148.258 102.845V118.718L133.061 109.976V94.1026L148.258 102.845ZM116.567 83.1119L131.765 91.8318V75.9588L116.567 67.2162V83.1119ZM149.554 86.2002L164.752 94.9428V110.816L149.554 102.073V86.2002ZM133.061 92.6039L148.258 101.324V85.4508L133.061 76.7082V92.6039ZM116.567 84.6106L131.765 93.3532V109.226L116.567 100.484V84.6106ZM100.075 90.9916L115.273 99.7343V83.8613L100.075 75.1187V90.9916ZM131.765 110.725V126.621L116.567 117.878V102.005L131.765 110.725ZM164.752 129.709L149.554 120.989V136.862L164.752 145.605V129.709ZM166.069 94.1934V78.3204L181.245 87.0404V102.913L166.069 94.1934ZM149.554 84.7014L164.752 93.4441V77.5484L149.554 68.8284V84.7014ZM166.069 111.565V95.6922L181.245 104.435V120.308L166.069 111.565ZM149.554 103.595V119.468L164.752 128.21V112.337L149.554 103.595ZM148.258 83.9521L133.061 75.2094V59.3364L148.258 68.0564V83.9521ZM181.245 121.829L166.069 113.087V128.96L181.245 137.702V121.829ZM133.061 111.497L148.258 120.217V136.113L133.061 127.37V111.497ZM148.258 155.006L133.061 146.263V160.479L148.258 169.244V155.006ZM182.562 173.218V157.345L197.737 166.087V181.96L182.562 173.218ZM182.562 87.8125V103.686L197.737 112.405V96.5324L182.562 87.8125ZM182.562 174.739L197.737 183.482V197.856L182.562 189.091V174.739ZM199.055 149.442V165.338L212.799 173.241V157.368L199.055 149.442ZM116.567 136.771L131.765 145.514V159.707L116.567 150.941V136.771ZM164.752 164.498L149.554 155.755V170.016L164.752 178.781V164.498ZM166.069 165.247L181.245 173.99V188.319L166.069 179.553V165.247ZM212.799 174.762L199.055 166.837V182.71L212.799 190.635V174.762ZM82.2646 117.038L68.8613 109.34C69.611 117.56 74.6315 126.712 80.4926 130.095L82.2646 131.117V117.038ZM199.055 198.628V184.231L212.821 192.134V195.994C212.821 199.786 211.663 203.601 209.073 203.601C208.164 203.601 207.051 203.238 205.847 202.557L199.055 198.628ZM199.055 97.2818V113.178L212.799 121.08V105.207L199.055 97.2818ZM199.055 130.549V114.676L212.799 122.601V138.474L199.055 130.549ZM199.055 95.7831L212.821 103.708V103.254C212.821 94.5568 207.437 84.0884 201.077 80.4096L199.055 79.2288V95.7831ZM199.055 147.944V132.071L212.799 139.973V155.869L199.055 147.944ZM115.273 136.022L100.075 127.279V141.404L115.273 150.192V136.022ZM131.765 57.0657L116.567 48.323V31.5644L131.765 40.3297V57.0657ZM133.061 57.815L148.258 66.5577V49.8672L133.061 41.0791V57.815ZM115.273 47.5736L100.075 38.831V22.0269L115.273 30.7923V47.5736ZM149.554 67.307L164.752 76.0497V59.4046L149.554 50.6165V67.307ZM98.7582 126.53V140.654L83.583 131.866V117.787L98.7582 126.53ZM182.562 69.6913V86.291L197.737 95.0336V78.4794L182.562 69.6913ZM181.245 85.5416L166.069 76.799V60.1539L181.245 68.942V85.5416ZM83.583 29.339L98.7582 38.0816V21.2549L83.583 12.4895V29.339ZM82.2646 82.2717V98.1447L68.7705 90.3785V74.4828L82.2646 82.2717ZM82.2646 99.6435L68.7705 91.8773V107.251C68.7705 107.342 68.7762 107.427 68.7819 107.512C68.7875 107.597 68.7932 107.682 68.7932 107.773L82.2874 115.539V99.6435H82.2646ZM98.7582 39.6031V55.4761L83.583 46.7334V30.8604L98.7582 39.6031ZM98.7582 109.135L83.583 100.416V116.289L98.7582 125.008V109.135ZM82.2646 45.984L68.7705 38.2179V22.3221L82.2646 30.0883V45.984ZM82.2646 80.7503V64.8773L68.7705 57.1111V72.9841L82.2646 80.7503ZM82.2646 47.4828V63.3558L68.7705 55.5896V39.7166L82.2646 47.4828Z"
            fill="url(#paint19_linear_463_28063)" />
        <path d="M268.116 118.945L289.13 151.6L348.763 86.3137L268.116 118.945Z"
            fill="url(#paint20_linear_463_28063)" />
        <path
            d="M343.425 145.082C343.425 158.73 338.699 168.404 331.044 173.104C330.816 173.241 301.511 183.459 301.306 183.573C294.264 187.501 298.762 178.577 288.085 172.423C266.594 160.024 249.17 129.982 249.17 105.32C249.17 93.1262 237.902 93.0354 244.808 88.9479C244.99 88.8344 268.253 65.6948 268.48 65.5812C276.431 61.2667 287.313 62.0614 299.285 68.9874C323.66 83.0438 343.425 117.106 343.425 145.082Z"
            fill="url(#paint21_linear_463_28063)" />
        <path
            d="M311.256 159.162C311.256 183.823 293.832 193.746 272.341 181.347C250.851 168.949 233.427 138.906 233.427 114.245C233.427 89.5837 250.851 79.6603 272.341 92.0589C293.832 104.458 311.256 134.5 311.256 159.162Z"
            fill="url(#paint22_linear_463_28063)" />
        <path
            d="M297.064 182.353C311.21 174.087 311.061 147.523 296.731 123.022C282.401 98.5204 259.317 85.3594 245.172 93.6259C231.026 101.892 231.175 128.456 245.505 152.957C259.835 177.459 282.919 190.62 297.064 182.353Z"
            fill="#828ABD" />
        <path
            d="M274.205 91.1279C263.891 85.1784 254.531 84.3836 247.58 87.8579C254.077 86.0413 262.119 87.4038 270.842 92.4223C292.333 104.821 309.757 134.864 309.757 159.525C309.757 172.355 305.032 181.188 297.467 184.981C306.963 182.324 313.12 172.877 313.12 158.231C313.12 133.569 295.695 103.527 274.205 91.1279Z"
            fill="url(#paint23_radial_463_28063)" />
        <path
            d="M311.256 159.162C311.256 183.823 293.832 193.746 272.341 181.347C250.851 168.949 233.427 138.906 233.427 114.245C233.427 89.5837 250.851 79.6603 272.341 92.0589C293.832 104.458 311.256 134.5 311.256 159.162Z"
            fill="url(#paint24_linear_463_28063)" />
        <path
            d="M297.064 182.353C311.21 174.087 311.061 147.523 296.731 123.022C282.401 98.5204 259.317 85.3594 245.172 93.6259C231.026 101.892 231.175 128.456 245.505 152.957C259.834 177.459 282.918 190.62 297.064 182.353Z"
            fill="#3F4054" />
        <path
            d="M274.205 91.1279C263.891 85.1784 254.531 84.3836 247.58 87.8579C254.077 86.0413 262.119 87.4038 270.842 92.4223C292.333 104.821 309.757 134.864 309.757 159.525C309.757 172.355 305.032 181.188 297.467 184.981C306.963 182.324 313.12 172.877 313.12 158.231C313.12 133.569 295.695 103.527 274.205 91.1279Z"
            fill="url(#paint25_linear_463_28063)" />
        <path
            d="M337.336 148.193C337.336 120.399 317.64 86.4273 293.401 72.4618C283.746 66.8983 274.5 65.1043 266.799 67.2162C265.776 68.2153 264.368 69.6232 262.732 71.2128C262.846 71.1901 262.982 71.1674 263.096 71.0993C270.888 66.8756 281.224 68.0791 292.265 74.4374C315.868 88.0623 335.064 121.148 335.064 148.216C335.064 160.751 330.93 170.198 323.456 174.762C323.024 175.012 322.842 175.511 322.956 175.966C324.842 175.307 326.523 174.717 327.886 174.24C333.974 168.722 337.336 159.661 337.336 148.193Z"
            fill="#CED3F4" />
        <path
            d="M344.629 97.0774C348.781 97.0774 352.148 93.7122 352.148 89.561C352.148 85.4098 348.781 82.0446 344.629 82.0446C340.476 82.0446 337.109 85.4098 337.109 89.561C337.109 93.7122 340.476 97.0774 344.629 97.0774Z"
            fill="url(#paint26_radial_463_28063)" />
        <path
            d="M301.033 160.751C301.033 171.265 297.399 178.713 291.515 182.301C291.333 182.415 220.659 224.13 220.478 224.22C214.344 227.649 218.274 219.86 208.937 214.479C190.173 203.647 174.975 177.442 174.975 155.914C174.975 145.264 165.138 145.196 171.158 141.631C171.317 141.54 243.172 99.6434 243.354 99.5526C249.465 96.2372 257.848 96.8503 267.071 102.164C285.813 113.019 301.033 139.246 301.033 160.751Z"
            fill="url(#paint27_linear_463_28063)" />
        <path
            d="M229.155 202.943C229.155 224.447 213.957 233.122 195.193 222.29C176.428 211.458 161.23 185.253 161.23 163.726C161.23 142.221 176.428 133.547 195.193 144.379C213.935 155.21 229.155 181.438 229.155 202.943Z"
            fill="url(#paint28_linear_463_28063)" />
        <path
            d="M196.805 143.584C187.809 138.384 179.654 137.702 173.565 140.722C179.222 139.133 186.264 140.314 193.875 144.719C212.639 155.551 227.837 181.756 227.837 203.283C227.837 214.479 223.703 222.199 217.115 225.492C225.407 223.176 230.768 214.933 230.768 202.148C230.768 180.621 215.57 154.393 196.805 143.584Z"
            fill="url(#paint29_linear_463_28063)" />
        <path d="M183.635 141.025L181.454 141.659L206.135 226.404L208.316 225.769L183.635 141.025Z" fill="#CED3F4" />
        <path
            d="M225.861 188.478L164.024 181.279L164.297 179.031L225.384 186.139L297.67 144.696L298.806 146.672L225.861 188.478Z"
            fill="#CED3F4" />
        <path d="M165.256 150.454L163.598 152.006L224.514 216.994L226.172 215.442L165.256 150.454Z" fill="#CED3F4" />
        <path d="M206.892 155.815L180.844 210.671L182.896 211.645L208.944 156.789L206.892 155.815Z" fill="#CED3F4" />
        <path d="M172.723 142.659L170.751 143.786L217.082 224.844L219.055 223.718L172.723 142.659Z" fill="#CED3F4" />
        <path d="M218.029 169.845L170.672 195.64L171.759 197.634L219.116 171.839L218.029 169.845Z" fill="#CED3F4" />
        <path d="M162.333 163.223L161.179 165.179L227.412 204.227L228.566 202.271L162.333 163.223Z" fill="#CED3F4" />
        <path d="M194.135 145.927L193.394 221.499L195.666 221.522L196.407 145.949L194.135 145.927Z" fill="#CED3F4" />
        <path
            d="M211.708 193.428C211.708 203.965 204.257 208.211 195.079 202.897C185.902 197.606 178.45 184.754 178.45 174.24C178.45 163.703 185.902 159.457 195.079 164.77C204.257 170.061 211.708 182.892 211.708 193.428Z"
            fill="#3F4054" />
        <path
            d="M206.666 194.495C206.666 198.924 205.144 202.057 202.668 203.556C202.599 203.601 181.563 215.977 181.495 216.023C178.905 217.476 180.564 214.183 176.633 211.935C168.751 207.371 162.344 196.357 162.344 187.297C162.344 182.823 158.21 182.778 160.731 181.279C160.799 181.234 182.313 168.79 182.404 168.744C184.971 167.359 188.492 167.609 192.377 169.857C200.26 174.399 206.666 185.435 206.666 194.495Z"
            fill="url(#paint30_linear_463_28063)" />
        <path
            d="M185.13 207.076C185.13 216.136 178.723 219.77 170.84 215.228C162.957 210.664 156.551 199.65 156.551 190.59C156.551 181.529 162.957 177.896 170.84 182.437C178.746 186.979 185.13 198.015 185.13 207.076Z"
            fill="url(#paint31_linear_463_28063)" />
        <path
            d="M171.522 182.074C167.728 179.894 164.298 179.599 161.753 180.871C164.139 180.212 167.092 180.712 170.295 182.551C178.178 187.115 184.584 198.129 184.584 207.189C184.584 211.913 182.858 215.137 180.064 216.545C183.562 215.569 185.811 212.094 185.811 206.712C185.811 197.675 179.428 186.638 171.522 182.074Z"
            fill="url(#paint32_linear_463_28063)" />
        <g opacity="0.7">
            <path opacity="0.0909"
                d="M303.305 120.58C288.562 112.065 276.59 118.877 276.59 135.795V220.11C276.59 237.028 288.539 257.647 303.305 266.162L392.698 318.936C407.442 327.452 424.843 319.776 424.843 302.859V218.543C424.843 201.626 407.442 181.87 392.698 173.354L303.305 120.58Z"
                fill="#AFB6E5" />
            <path opacity="0.1818"
                d="M303.056 121.421C288.449 113.018 276.635 119.74 276.635 136.476V219.542C276.635 236.278 288.471 256.67 303.056 265.095L391.767 317.369C406.352 325.794 423.072 318.277 423.072 301.542V218.475C423.072 201.739 406.352 182.119 391.767 173.695L303.056 121.421Z"
                fill="#AFB6E5" />
            <path opacity="0.2727"
                d="M302.783 122.283C288.357 113.95 276.658 120.626 276.658 137.18V219.02C276.658 235.574 288.357 255.739 302.783 264.05L390.813 315.825C405.238 324.159 421.277 316.801 421.277 300.247V218.43C421.277 201.876 405.238 182.415 390.813 174.081L302.783 122.283Z"
                fill="#AFB6E5" />
            <path opacity="0.3636"
                d="M302.51 123.146C288.244 114.926 276.68 121.511 276.68 137.861V218.452C276.68 234.802 288.244 254.74 302.51 262.983L389.859 314.281C404.125 322.501 419.482 315.325 419.482 298.953V218.362C419.482 202.012 404.125 182.664 389.859 174.444L302.51 123.146Z"
                fill="#AFB6E5" />
            <path opacity="0.4545"
                d="M302.237 124.009C288.13 115.88 276.703 122.397 276.703 138.565V217.93C276.703 234.098 288.13 253.809 302.237 261.939L388.904 312.737C403.012 320.866 417.687 313.849 417.687 297.681V218.316C417.687 202.148 402.989 182.96 388.904 174.83L302.237 124.009Z"
                fill="#AFB6E5" />
            <path opacity="0.5455"
                d="M301.988 124.872C288.062 116.833 276.749 123.26 276.749 139.246V217.363C276.749 233.349 288.04 252.833 301.988 260.871L387.951 311.17C401.876 319.209 415.893 312.351 415.893 296.364V218.248C415.893 202.262 401.876 183.209 387.951 175.171L301.988 124.872Z"
                fill="#AFB6E5" />
            <path opacity="0.6364"
                d="M301.715 125.735C287.948 117.787 276.771 124.146 276.771 139.95V216.84C276.771 232.645 287.926 251.879 301.715 259.827L386.996 309.648C400.763 317.596 414.098 310.897 414.098 295.093V218.203C414.098 202.398 400.763 183.505 386.996 175.557L301.715 125.735Z"
                fill="#AFB6E5" />
            <path opacity="0.7273"
                d="M301.442 126.598C287.835 118.741 276.794 125.031 276.794 140.632V216.273C276.794 231.873 287.835 250.902 301.442 258.76L386.042 308.082C399.65 315.939 412.303 309.399 412.303 293.775V218.135C412.303 202.534 399.65 183.754 386.042 175.92L301.442 126.598Z"
                fill="#AFB6E5" />
            <path opacity="0.8182"
                d="M301.17 127.461C287.722 119.695 276.817 125.917 276.817 141.336V215.75C276.817 231.169 287.722 249.971 301.17 257.715L385.089 306.537C398.537 314.304 410.509 307.923 410.509 292.504V218.066C410.509 202.648 398.514 184.027 385.089 176.261L301.17 127.461Z"
                fill="#AFB6E5" />
            <path opacity="0.9091"
                d="M300.92 128.324C287.63 120.648 276.885 126.802 276.885 142.017V215.183C276.885 230.42 287.653 248.972 300.92 256.648L384.156 304.971C397.446 312.646 408.737 306.424 408.737 291.187V218.021C408.737 202.784 397.423 184.322 384.156 176.647L300.92 128.324Z"
                fill="#AFB6E5" />
            <path opacity="0.7"
                d="M300.648 129.187C287.54 121.625 276.908 127.688 276.908 142.721V214.66C276.908 229.716 287.54 248.041 300.648 255.603L383.203 303.449C396.311 311.011 406.943 304.948 406.943 289.915V217.953C406.943 202.897 396.311 184.572 383.203 177.01L300.648 129.187Z"
                fill="#AFB6E5" />
        </g>
        <path
            d="M392.289 315.053L266.957 242.591C259.165 238.095 252.85 226.014 252.85 215.637V122.851C252.85 112.451 259.165 107.682 266.957 112.178L392.289 184.64C400.081 189.136 406.396 201.217 406.396 211.595V304.357C406.419 314.78 400.081 319.549 392.289 315.053Z"
            fill="url(#paint33_linear_463_28063)" />
        <path
            d="M396.287 182.528L270.955 110.066C267.866 108.295 265.026 107.955 262.686 108.863C262.391 108.976 258.461 111.066 258.188 111.225L258.165 111.247C260.573 110.066 263.617 110.294 266.957 112.224L392.289 184.685C400.081 189.182 406.396 201.262 406.396 211.64V304.403C406.396 310.897 403.943 315.189 400.195 316.415C400.49 316.438 400.876 316.325 401.421 315.984C401.603 315.87 405.874 313.463 406.033 313.35C408.714 311.465 410.395 307.605 410.395 302.268V209.483C410.417 199.105 404.079 187.024 396.287 182.528Z"
            fill="url(#paint34_linear_463_28063)" />
        <path
            d="M392.97 184.322L267.638 111.86C264.435 110.021 261.504 109.749 259.142 110.77C261.164 110.452 263.481 110.929 265.957 112.36L391.289 184.822C399.081 189.318 405.396 201.399 405.396 211.776V304.539C405.396 310.67 403.193 314.826 399.785 316.302C404.147 315.621 407.1 311.147 407.1 304.04V211.277C407.078 200.876 400.762 188.818 392.97 184.322Z"
            fill="white" />
        <path fill-rule="evenodd" clip-rule="evenodd"
            d="M271.114 120.081V136.953L257.598 129.209V122.874C257.598 119.082 258.756 115.267 261.346 115.267C262.255 115.267 263.368 115.63 264.572 116.311L271.114 120.081ZM304.1 173.331L288.925 164.589V148.716L304.1 157.458V173.331ZM272.408 172.491L287.606 181.234V165.361L272.408 156.618V172.491ZM287.606 198.606V182.733L272.408 174.013V189.886L287.606 198.606ZM287.606 216V200.127L272.408 191.384V207.257L287.606 216ZM288.925 200.876L304.1 209.619V225.492L288.925 216.749V200.876ZM305.417 174.081L320.592 182.823V166.95L305.417 158.208V174.081ZM304.1 174.853V190.726L288.925 181.983V166.11L304.1 174.853ZM304.1 242.886V227.013L288.925 218.271V234.144L304.1 242.886ZM305.417 227.763L320.592 236.483V252.378L305.417 243.636V227.763ZM386.564 257.079L371.389 248.336V264.209L386.564 272.952V257.079ZM371.389 246.815V230.942L386.564 239.685V255.558L371.389 246.815ZM354.896 238.844V254.717L370.071 263.46V247.587L354.896 238.844ZM371.389 229.443V213.57L386.564 222.29V238.163L371.389 229.443ZM353.579 255.467L338.403 246.747V262.62L353.579 271.363V255.467ZM354.896 256.239L370.071 264.959V280.854L354.896 272.112V256.239ZM337.085 245.975L321.91 237.255V253.128L337.085 261.87V245.975ZM337.085 211.209V227.082L321.91 218.362V202.466L337.085 211.209ZM305.417 191.475L320.592 200.218V184.345L305.417 175.602V191.475ZM338.403 194.586L353.579 203.306V219.202L338.403 210.459V194.586ZM321.91 200.967L337.085 209.71V193.814L321.91 185.094V200.967ZM305.417 192.974L320.592 201.717V217.59L305.417 208.87V192.974ZM288.925 199.378L304.1 208.098V192.225L288.925 183.505V199.378ZM320.592 219.111V234.984L305.417 226.241V210.368L320.592 219.111ZM353.579 238.095L338.403 229.352V245.225L353.579 253.968V238.095ZM354.896 202.557V186.684L370.071 195.426V211.299L354.896 202.557ZM338.403 193.065L353.579 201.807V185.934L338.403 177.192V193.065ZM354.896 219.951V204.078L370.071 212.798V228.694L354.896 219.951ZM338.403 211.958V227.854L353.579 236.574V220.701L338.403 211.958ZM337.085 192.315L321.91 183.573V167.7L337.085 176.442V192.315ZM370.071 230.193L354.896 221.45V237.323L370.071 246.066V230.193ZM321.91 219.86L337.085 228.603V244.476L321.91 235.733V219.86ZM337.085 263.369L321.91 254.627V268.842L337.085 277.63V263.369ZM371.389 281.604V265.731L386.564 274.451V290.347L371.389 281.604ZM371.389 196.176V212.049L386.564 220.791V204.918L371.389 196.176ZM371.389 283.103L386.564 291.845V306.242L371.389 297.454V283.103ZM387.881 257.828V273.701L401.648 281.627V265.731L387.881 257.828ZM305.417 245.157L320.592 253.877V268.093L305.417 259.304V245.157ZM353.579 272.861L338.403 264.119V278.379L353.579 287.167V272.861ZM354.896 273.611L370.071 282.353V296.705L354.896 287.917V273.611ZM401.648 283.125L387.881 275.223V291.096L401.648 298.998V283.125ZM271.114 225.401L257.711 217.703C258.461 225.923 263.481 235.075 269.342 238.458L271.114 239.48V225.401ZM387.881 306.992V292.595L401.648 300.52V304.38C401.648 308.172 400.489 311.987 397.899 311.987C396.99 311.987 395.877 311.601 394.673 310.92L387.881 306.992ZM387.881 205.668V221.541L401.648 229.466V213.57L387.881 205.668ZM387.881 238.935V223.04L401.648 230.965V246.838L387.881 238.935ZM387.881 204.146L401.648 212.072V211.617C401.648 202.92 396.264 192.452 389.903 188.773L387.881 187.592V204.146ZM387.881 256.307V240.434L401.648 248.359V264.232L387.881 256.307ZM304.1 244.385L288.925 235.665V249.767L304.1 258.555V244.385ZM320.592 165.429L305.417 156.709V139.928L320.592 148.693V165.429ZM321.91 166.201L337.085 174.921V158.23L321.91 149.465V166.201ZM304.1 155.937L288.925 147.217V130.39L304.1 139.178V155.937ZM338.403 175.693L353.579 184.413V167.768L338.403 159.003V175.693ZM287.606 234.893V249.018L272.408 240.23V226.173L287.606 234.893ZM371.389 178.077V194.654L386.564 203.397V186.843L371.389 178.077ZM370.071 193.905L354.896 185.162V168.54L370.071 177.305V193.905ZM272.408 137.725L287.606 146.445V129.641L272.408 120.853V137.725ZM271.114 190.635V206.508L257.598 198.742V182.869L271.114 190.635ZM271.114 208.029L257.62 200.263V215.637C257.62 215.727 257.626 215.813 257.631 215.898L257.631 215.898C257.637 215.983 257.643 216.068 257.643 216.159L271.137 223.925V208.029H271.114ZM287.606 147.966V163.839L272.408 155.097V139.224L287.606 147.966ZM287.606 217.521L272.408 208.779V224.652L287.606 233.394V217.521ZM271.114 154.347L257.598 146.581V130.708L271.114 138.474V154.347ZM271.517 188.662V172.766L258 165V180.873L271.517 188.662ZM271.114 155.869V171.742L257.598 163.976V148.08L271.114 155.869Z"
            fill="url(#paint35_linear_463_28063)" />
    </g>
    <defs>
        <linearGradient id="paint0_linear_463_28063" x1="423.5" y1="257.5" x2="163" y2="384"
            gradientUnits="userSpaceOnUse">
            <stop stop-color="#4D525D" />
            <stop offset="1" stop-color="#41495A" />
        </linearGradient>
        <linearGradient id="paint1_linear_463_28063" x1="305.16" y1="35.3293" x2="93.3807" y2="485.344"
            gradientUnits="userSpaceOnUse">
            <stop stop-color="#DFE1F7" />
            <stop offset="0.293986" stop-color="#9594D7" />
            <stop offset="1" stop-color="#CBCBEC" />
        </linearGradient>
        <linearGradient id="paint2_linear_463_28063" x1="145.481" y1="144.324" x2="274.427" y2="276.703"
            gradientUnits="userSpaceOnUse">
            <stop offset="0.130831" stop-color="#DFE1F7" />
            <stop offset="1" stop-color="#4341AD" />
        </linearGradient>
        <linearGradient id="paint3_linear_463_28063" x1="268.015" y1="163.496" x2="268.015" y2="269.758"
            gradientUnits="userSpaceOnUse">
            <stop stop-color="#DFE1F7" />
            <stop offset="1" stop-color="#8B8AEA" />
        </linearGradient>
        <linearGradient id="paint4_linear_463_28063" x1="415.713" y1="106.569" x2="415.713" y2="210.121"
            gradientUnits="userSpaceOnUse">
            <stop stop-color="#DFE1F7" />
            <stop offset="1" stop-color="#7D7CCF" />
        </linearGradient>
        <linearGradient id="paint5_linear_463_28063" x1="376.489" y1="209.579" x2="473.028" y2="400.647"
            gradientUnits="userSpaceOnUse">
            <stop stop-color="#DFE1F7" />
            <stop offset="0.434057" stop-color="#4341AD" />
            <stop offset="1" stop-color="#C4C3FF" />
        </linearGradient>
        <linearGradient id="paint6_linear_463_28063" x1="188.062" y1="318.716" x2="-5.41733" y2="293.311"
            gradientUnits="userSpaceOnUse">
            <stop stop-color="#4341AD" />
            <stop offset="1" stop-color="#DFE1F7" />
        </linearGradient>
        <linearGradient id="paint7_linear_463_28063" x1="127.349" y1="319.636" x2="127.349" y2="432.405"
            gradientUnits="userSpaceOnUse">
            <stop stop-color="#DFE1F7" />
            <stop offset="1" stop-color="#7472CA" />
        </linearGradient>
        <linearGradient id="paint8_linear_463_28063" x1="533.003" y1="-418.56" x2="550.838" y2="-418.558"
            gradientUnits="userSpaceOnUse">
            <stop stop-color="#B5A7FF" />
            <stop offset="0.484375" stop-color="#7B61FF" />
            <stop offset="1" stop-color="#5793CE" />
        </linearGradient>
        <linearGradient id="paint9_linear_463_28063" x1="484.003" y1="-231.56" x2="501.838" y2="-231.558"
            gradientUnits="userSpaceOnUse">
            <stop stop-color="#B5A7FF" />
            <stop offset="0.484375" stop-color="#7B61FF" />
            <stop offset="1" stop-color="#5793CE" />
        </linearGradient>
        <linearGradient id="paint10_linear_463_28063" x1="369.003" y1="-420.56" x2="386.837" y2="-420.558"
            gradientUnits="userSpaceOnUse">
            <stop stop-color="#B5A7FF" />
            <stop offset="0.484375" stop-color="#7B61FF" />
            <stop offset="1" stop-color="#5793CE" />
        </linearGradient>
        <linearGradient id="paint11_linear_463_28063" x1="264.797" y1="-308.188" x2="282.631" y2="-308.186"
            gradientUnits="userSpaceOnUse">
            <stop stop-color="#B5A7FF" />
            <stop offset="0.484375" stop-color="#7B61FF" />
            <stop offset="1" stop-color="#5793CE" />
        </linearGradient>
        <linearGradient id="paint12_linear_463_28063" x1="189.004" y1="-267.561" x2="206.838" y2="-267.559"
            gradientUnits="userSpaceOnUse">
            <stop stop-color="#B5A7FF" />
            <stop offset="0.484375" stop-color="#7B61FF" />
            <stop offset="1" stop-color="#5793CE" />
        </linearGradient>
        <linearGradient id="paint13_linear_463_28063" x1="3.00395" y1="-261.561" x2="20.8381" y2="-261.559"
            gradientUnits="userSpaceOnUse">
            <stop stop-color="#B5A7FF" />
            <stop offset="0.484375" stop-color="#7B61FF" />
            <stop offset="1" stop-color="#5793CE" />
        </linearGradient>
        <linearGradient id="paint14_linear_463_28063" x1="272.003" y1="-228.56" x2="289.838" y2="-228.558"
            gradientUnits="userSpaceOnUse">
            <stop stop-color="#B5A7FF" />
            <stop offset="0.484375" stop-color="#7B61FF" />
            <stop offset="1" stop-color="#5793CE" />
        </linearGradient>
        <linearGradient id="paint15_linear_463_28063" x1="238.003" y1="-423.56" x2="255.838" y2="-423.558"
            gradientUnits="userSpaceOnUse">
            <stop stop-color="#B5A7FF" />
            <stop offset="0.484375" stop-color="#7B61FF" />
            <stop offset="1" stop-color="#5793CE" />
        </linearGradient>
        <linearGradient id="paint16_linear_463_28063" x1="214.003" y1="-334.56" x2="231.838" y2="-334.558"
            gradientUnits="userSpaceOnUse">
            <stop stop-color="#B5A7FF" />
            <stop offset="0.484375" stop-color="#7B61FF" />
            <stop offset="1" stop-color="#5793CE" />
        </linearGradient>
        <linearGradient id="paint17_linear_463_28063" x1="-40.4523" y1="65.4883" x2="290.907" y2="138.236"
            gradientUnits="userSpaceOnUse">
            <stop stop-color="#AFB6E5" />
            <stop offset="0.1449" stop-color="#B6BCE8" />
            <stop offset="0.3485" stop-color="#C8CDF1" />
            <stop offset="0.5808" stop-color="#E5E9FF" />
            <stop offset="0.8551" stop-color="#F5F6FF" />
            <stop offset="1" stop-color="white" />
        </linearGradient>
        <linearGradient id="paint18_linear_463_28063" x1="111.798" y1="-19.1216" x2="224.213" y2="206.191"
            gradientUnits="userSpaceOnUse">
            <stop stop-color="#CDD2F3" />
            <stop offset="0.4343" stop-color="#E5E9FF" />
            <stop offset="0.4834" stop-color="#EFF2FF" />
            <stop offset="0.5354" stop-color="white" />
            <stop offset="0.5905" stop-color="#EBEDF9" />
            <stop offset="0.7024" stop-color="#B9BFE8" />
            <stop offset="0.7222" stop-color="#AFB6E5" />
            <stop offset="0.9091" stop-color="#AFB6E5" />
            <stop offset="0.9503" stop-color="#BAC0EA" />
            <stop offset="1" stop-color="#CDD2F3" />
        </linearGradient>
        <linearGradient id="paint19_linear_463_28063" x1="71.9384" y1="105.246" x2="221.685" y2="105.246"
            gradientUnits="userSpaceOnUse">
            <stop offset="0.0556" stop-color="#746CF5" />
            <stop offset="0.505208" stop-color="#C9BFFF" />
            <stop offset="1" stop-color="#746CF5" />
        </linearGradient>
        <linearGradient id="paint20_linear_463_28063" x1="297.816" y1="93.3473" x2="320.523" y2="120.89"
            gradientUnits="userSpaceOnUse">
            <stop stop-color="#B9BFEA" />
            <stop offset="0.1818" stop-color="#E5E9FF" />
            <stop offset="0.2576" stop-color="#F1F3FF" />
            <stop offset="0.3434" stop-color="#E5E9FF" />
            <stop offset="0.6263" stop-color="#AFB6E5" />
            <stop offset="0.7878" stop-color="#BAC0EA" />
            <stop offset="0.8232" stop-color="#BDC3EC" />
            <stop offset="1" stop-color="#AFB6E5" />
        </linearGradient>
        <linearGradient id="paint21_linear_463_28063" x1="262.823" y1="68.2855" x2="339.018" y2="194.955"
            gradientUnits="userSpaceOnUse">
            <stop stop-color="#B9BFEA" />
            <stop offset="0.1818" stop-color="#E5E9FF" />
            <stop offset="0.2576" stop-color="#F1F3FF" />
            <stop offset="0.3434" stop-color="#E5E9FF" />
            <stop offset="0.6263" stop-color="#AFB6E5" />
            <stop offset="0.7878" stop-color="#BAC0EA" />
            <stop offset="0.8232" stop-color="#BDC3EC" />
            <stop offset="1" stop-color="#AFB6E5" />
        </linearGradient>
        <linearGradient id="paint22_linear_463_28063" x1="164.513" y1="160.865" x2="384.926" y2="111.435"
            gradientUnits="userSpaceOnUse">
            <stop stop-color="#AFB6E5" />
            <stop offset="0.1449" stop-color="#B6BCE8" />
            <stop offset="0.3485" stop-color="#C8CDF1" />
            <stop offset="0.5808" stop-color="#E5E9FF" />
            <stop offset="0.9546" stop-color="#F5F4FC" />
            <stop offset="1" stop-color="#F7F6FB" />
        </linearGradient>
        <radialGradient id="paint23_radial_463_28063" cx="0" cy="0" r="1" gradientUnits="userSpaceOnUse"
            gradientTransform="translate(294.406 118.672) scale(42.0506 42.0335)">
            <stop stop-color="white" />
            <stop offset="0.0152" stop-color="#F7F7F7" />
            <stop offset="0.132" stop-color="#BEBEBE" />
            <stop offset="0.252" stop-color="#8B8B8B" />
            <stop offset="0.3727" stop-color="#606060" />
            <stop offset="0.4942" stop-color="#3E3E3E" />
            <stop offset="0.6167" stop-color="#232323" />
            <stop offset="0.7407" stop-color="#0F0F0F" />
            <stop offset="0.8672" stop-color="#040404" />
            <stop offset="1" />
        </radialGradient>
        <linearGradient id="paint24_linear_463_28063" x1="164.513" y1="160.865" x2="384.926" y2="111.435"
            gradientUnits="userSpaceOnUse">
            <stop stop-color="#AFB6E5" />
            <stop offset="0.1449" stop-color="#B6BCE8" />
            <stop offset="0.3485" stop-color="#C8CDF1" />
            <stop offset="0.5808" stop-color="#E5E9FF" />
            <stop offset="0.9546" stop-color="#F5F4FC" />
            <stop offset="1" stop-color="#F7F6FB" />
        </linearGradient>
        <linearGradient id="paint25_linear_463_28063" x1="255.85" y1="-2269.94" x2="304.951" y2="-2269.93"
            gradientUnits="userSpaceOnUse">
            <stop stop-color="#B5A7FF" />
            <stop offset="0.484375" stop-color="#7B61FF" />
            <stop offset="1" stop-color="#5793CE" />
        </linearGradient>
        <radialGradient id="paint26_radial_463_28063" cx="0" cy="0" r="1" gradientUnits="userSpaceOnUse"
            gradientTransform="translate(344.212 86.5887) scale(10.8133 10.8089)">
            <stop stop-color="#EEF0FD" />
            <stop offset="0.6869" stop-color="#AFB6E5" />
            <stop offset="0.8062" stop-color="#B3B9E7" />
            <stop offset="0.9153" stop-color="#BEC4EC" />
            <stop offset="1" stop-color="#CCD1F3" />
        </radialGradient>
        <linearGradient id="paint27_linear_463_28063" x1="212.622" y1="116.192" x2="271.953" y2="214.827"
            gradientUnits="userSpaceOnUse">
            <stop stop-color="#B9BFEA" />
            <stop offset="0.1818" stop-color="#E5E9FF" />
            <stop offset="0.2576" stop-color="#F1F3FF" />
            <stop offset="0.3434" stop-color="#E5E9FF" />
            <stop offset="0.6263" stop-color="#AFB6E5" />
            <stop offset="0.7878" stop-color="#BAC0EA" />
            <stop offset="0.8232" stop-color="#BDC3EC" />
            <stop offset="1" stop-color="#AFB6E5" />
        </linearGradient>
        <linearGradient id="paint28_linear_463_28063" x1="101.099" y1="204.429" x2="293.43" y2="161.297"
            gradientUnits="userSpaceOnUse">
            <stop stop-color="#AFB6E5" />
            <stop offset="0.1449" stop-color="#B6BCE8" />
            <stop offset="0.3485" stop-color="#C8CDF1" />
            <stop offset="0.5808" stop-color="#E5E9FF" />
            <stop offset="0.9546" stop-color="#F5F4FC" />
            <stop offset="1" stop-color="#F7F6FB" />
        </linearGradient>
        <linearGradient id="paint29_linear_463_28063" x1="180.784" y1="-1917.04" x2="223.639" y2="-1917.03"
            gradientUnits="userSpaceOnUse">
            <stop stop-color="#B5A7FF" />
            <stop offset="0.484375" stop-color="#7B61FF" />
            <stop offset="1" stop-color="#5793CE" />
        </linearGradient>
        <linearGradient id="paint30_linear_463_28063" x1="173.839" y1="173.171" x2="198.771" y2="214.619"
            gradientUnits="userSpaceOnUse">
            <stop stop-color="#B9BFEA" />
            <stop offset="0.2172" stop-color="#E5E9FF" />
            <stop offset="0.2828" stop-color="#F1F3FF" />
            <stop offset="0.3434" stop-color="#E5E9FF" />
            <stop offset="0.6263" stop-color="#AFB6E5" />
            <stop offset="0.7878" stop-color="#BAC0EA" />
            <stop offset="0.8232" stop-color="#BDC3EC" />
            <stop offset="1" stop-color="#AFB6E5" />
        </linearGradient>
        <linearGradient id="paint31_linear_463_28063" x1="131.25" y1="207.692" x2="212.189" y2="189.54"
            gradientUnits="userSpaceOnUse">
            <stop stop-color="#AFB6E5" />
            <stop offset="0.1449" stop-color="#B6BCE8" />
            <stop offset="0.3485" stop-color="#C8CDF1" />
            <stop offset="0.5808" stop-color="#E5E9FF" />
            <stop offset="0.9546" stop-color="#F5F4FC" />
            <stop offset="1" stop-color="#F7F6FB" />
        </linearGradient>
        <linearGradient id="paint32_linear_463_28063" x1="164.789" y1="-685.073" x2="182.813" y2="-685.072"
            gradientUnits="userSpaceOnUse">
            <stop stop-color="#B5A7FF" />
            <stop offset="0.484375" stop-color="#7B61FF" />
            <stop offset="1" stop-color="#5793CE" />
        </linearGradient>
        <linearGradient id="paint33_linear_463_28063" x1="148.383" y1="173.861" x2="479.742" y2="246.608"
            gradientUnits="userSpaceOnUse">
            <stop stop-color="#AFB6E5" />
            <stop offset="0.1449" stop-color="#B6BCE8" />
            <stop offset="0.3485" stop-color="#C8CDF1" />
            <stop offset="0.5808" stop-color="#E5E9FF" />
            <stop offset="0.8551" stop-color="#F5F6FF" />
            <stop offset="1" stop-color="white" />
        </linearGradient>
        <linearGradient id="paint34_linear_463_28063" x1="300.633" y1="89.2508" x2="413.049" y2="314.564"
            gradientUnits="userSpaceOnUse">
            <stop stop-color="#CDD2F3" />
            <stop offset="0.4343" stop-color="#E5E9FF" />
            <stop offset="0.4834" stop-color="#EFF2FF" />
            <stop offset="0.5354" stop-color="white" />
            <stop offset="0.5905" stop-color="#EBEDF9" />
            <stop offset="0.7024" stop-color="#B9BFE8" />
            <stop offset="0.7222" stop-color="#AFB6E5" />
            <stop offset="0.9091" stop-color="#AFB6E5" />
            <stop offset="0.9503" stop-color="#BAC0EA" />
            <stop offset="1" stop-color="#CDD2F3" />
        </linearGradient>
        <linearGradient id="paint35_linear_463_28063" x1="260.788" y1="213.621" x2="410.51" y2="213.621"
            gradientUnits="userSpaceOnUse">
            <stop offset="0.0556" stop-color="#746CF5" />
            <stop offset="0.505208" stop-color="#C9BFFF" />
            <stop offset="1" stop-color="#746CF5" />
        </linearGradient>
        <clipPath id="clip0_463_28063">
            <rect width="374.47" height="215.4" fill="white" transform="translate(95 226)" />
        </clipPath>
        <clipPath id="clip1_463_28063">
            <rect width="23.8049" height="23.8548" fill="white" transform="translate(530 148)" />
        </clipPath>
        <clipPath id="clip2_463_28063">
            <rect width="23.8049" height="23.8548" fill="white" transform="translate(481 335)" />
        </clipPath>
        <clipPath id="clip3_463_28063">
            <rect width="23.8049" height="23.8548" fill="white" transform="translate(365.999 146)" />
        </clipPath>
        <clipPath id="clip4_463_28063">
            <rect width="23.8048" height="23.8548" fill="white" transform="translate(261.793 258.373)" />
        </clipPath>
        <clipPath id="clip5_463_28063">
            <rect width="23.8049" height="23.8549" fill="white" transform="translate(186 299)" />
        </clipPath>
        <clipPath id="clip6_463_28063">
            <rect width="23.8049" height="23.8549" fill="white" transform="translate(0 305)" />
        </clipPath>
        <clipPath id="clip7_463_28063">
            <rect width="23.8049" height="23.8548" fill="white" transform="translate(269 338)" />
        </clipPath>
        <clipPath id="clip8_463_28063">
            <rect width="23.8049" height="23.8548" fill="white" transform="translate(235 143)" />
        </clipPath>
        <clipPath id="clip9_463_28063">
            <rect width="23.8048" height="23.8548" fill="white" transform="translate(211 232)" />
        </clipPath>
        <clipPath id="clip10_463_28063">
            <rect width="366" height="324" fill="white" transform="translate(64)" />
        </clipPath>
    </defs>




    <style>
        <!-- .path {
        stroke-dasharray: 1000;
        stroke-dashoffset: 1000;
        animation: dash 20s linear infinite;
        }

        @keyframes dash {
            to {
                stroke-dashoffset: -1010;
            }
        }
        -->


    #satellite {
        animation: move 12s ease-in-out infinite;
    }

    @keyframes move {
        0% {
            transform: translate(0, 0) rotate(0);
        }
        50% {
             transform: translate(10px, 40px) rotate(-6deg);
        }
        100% {
            transform: translate(0, 0) rotate(0);
        }
    }

    .land {
        animation: move2 15s ease-in-out infinite;
    }

    @keyframes move2 {
        0% {
            transform: translate(0, 0) rotate(0);
        }
        50% {
             transform: translate(-10px, -10px) rotate(3deg);
        }
        100% {
            transform: translate(0, 0) rotate(0);
        }
    }

    .lines path {
        stroke-dasharray: 1000;
        stroke-dashoffset: 1000;
        animation: lineanim 20s linear infinite;
    }

    @keyframes lineanim {
        to {
            stroke-dashoffset: -1010;
        }
    }



    </style>



</svg>