<svg width="191" height="252" viewBox="0 0 191 252" fill="none" xmlns="http://www.w3.org/2000/svg">
    <path class="shadow" opacity="0.5"
        d="M102.655 250.337L168.712 212.204C172.753 209.861 172.268 205.768 167.58 203.075L103.814 166.262C99.1262 163.569 92.041 163.273 88 165.616L21.9435 203.748C17.9025 206.091 18.3874 210.185 23.075 212.878L86.8416 249.691C91.5291 252.384 98.6143 252.68 102.655 250.337Z"
        fill="#B2BEEA" />
    <g class="box">
        <path
            d="M0.0145743 174.718V146.199L63.9967 146.172L86.1143 133.407C91.179 130.472 100.069 130.849 105.915 134.215L126.551 146.118L190.587 146.091V175.418C190.722 177.411 189.617 179.323 187.193 180.723L104.487 228.47C99.4226 231.406 90.5324 231.029 84.6865 227.662L4.83679 181.558C1.46931 179.592 -0.174005 177.088 0.0145743 174.718Z"
            fill="url(#paint0_linear_463_24291)" />
        <path
            d="M95.3276 131.442C99.0453 131.523 102.898 132.465 105.942 134.216L126.578 146.119L190.614 146.092V175.419C190.748 177.411 189.644 179.323 187.219 180.724L104.514 228.471C102.063 229.871 98.749 230.517 95.3276 230.437V131.442Z"
            fill="url(#paint1_linear_463_24291)" />
        <path
            d="M183.367 146.092H190.614V175.418C190.749 177.411 189.644 179.323 187.22 180.724L183.367 182.932V146.092Z"
            fill="#5F1EC9" />
        <path d="M103.248 229.09C98.8567 230.975 92.5258 230.867 87.4072 228.901V195.589H103.248V229.09Z"
            fill="#5F1EC9" />
        <path
            d="M104.516 199.224L187.221 151.478C192.286 148.542 191.666 143.425 185.794 140.059L105.944 93.9821C100.071 90.5889 91.2078 90.2388 86.1431 93.1742L3.43773 140.921C-1.62696 143.856 -1.00734 148.973 4.86554 152.339L84.7153 198.443C90.5882 201.783 99.4513 202.16 104.516 199.224Z"
            fill="#D5D4FF" />
        <path
            d="M103.033 190.634L172.349 150.643C176.605 148.192 176.067 143.91 171.164 141.056L104.245 102.438C99.342 99.6103 91.9066 99.2872 87.6501 101.738L18.334 141.729C14.0775 144.179 14.6163 148.461 19.5193 151.316L86.4379 189.933C91.3409 192.788 98.7763 193.084 103.033 190.634Z"
            fill="#5F1EC9" />
        <path class="dote-violet2"
            d="M30.457 182.259C30.457 184.386 31.9656 186.971 33.7976 188.049C35.6295 189.126 37.1382 188.237 37.1382 186.11C37.1382 183.982 35.6295 181.397 33.7976 180.32C31.9387 179.269 30.457 180.131 30.457 182.259Z"
            fill="#D5D4FF" />
        <path class="dote-violet1"
            d="M19.7075 176.038C19.7075 178.165 21.2161 180.75 23.048 181.827C24.8799 182.905 26.3885 182.016 26.3885 179.889C26.3885 177.761 24.8799 175.176 23.048 174.099C21.2161 173.021 19.7075 173.91 19.7075 176.038Z"
            fill="#5F1EC9" />
        <path class="dote-white1"
            d="M8.95801 169.844C8.95801 171.971 10.4666 174.556 12.2985 175.634C14.1304 176.711 15.639 175.822 15.639 173.695C15.639 171.567 14.1304 168.982 12.2985 167.905C10.4397 166.854 8.95801 167.716 8.95801 169.844Z"
            fill="#D5D4FF" />
        <path
            d="M0.0145743 129.125V100.606L63.9967 100.58L86.1143 87.8147C91.179 84.8794 100.069 85.2564 105.915 88.6226L126.551 100.526L190.587 100.499V129.826C190.722 131.818 189.617 133.73 187.193 135.131L104.487 182.878C99.4226 185.813 90.5324 185.436 84.6865 182.07L4.83679 135.966C1.46931 134 -0.174005 131.495 0.0145743 129.125Z"
            fill="url(#paint2_linear_463_24291)" />
        <path
            d="M95.3276 85.8488C99.0453 85.9295 102.898 86.8721 105.942 88.6225L126.578 100.526L190.614 100.499V129.825C190.748 131.818 189.644 133.73 187.219 135.131L104.514 182.877C102.063 184.278 98.749 184.924 95.3276 184.843V85.8488Z"
            fill="url(#paint3_linear_463_24291)" />
        <path
            d="M183.367 100.499H190.614V129.826C190.749 131.818 189.644 133.73 187.22 135.131L183.367 137.339V100.499Z"
            fill="#5F1EC9" />
        <path d="M103.248 183.497C98.8567 185.382 92.5258 185.274 87.4072 183.309V149.996H103.248V183.497Z"
            fill="#5F1EC9" />
        <path
            d="M104.516 153.632L187.221 105.885C192.286 102.949 191.666 97.8327 185.794 94.4664L105.944 48.3623C100.071 44.9691 91.2078 44.619 86.1431 47.5544L3.43773 95.3013C-1.62696 98.2366 -1.00734 103.353 4.86554 106.72L84.7153 152.824C90.5882 156.217 99.4513 156.567 104.516 153.632Z"
            fill="#D5D4FF" />
        <path
            d="M103.033 145.041L172.349 105.05C176.605 102.599 176.067 98.3173 171.164 95.4627L104.245 56.8451C99.342 54.0174 91.9066 53.6943 87.6501 56.1449L18.334 96.136C14.0775 98.5866 14.6163 102.868 19.5193 105.723L86.4379 144.341C91.3409 147.195 98.7763 147.518 103.033 145.041Z"
            fill="#5F1EC9" />
        <path class="dote-white2"
            d="M30.457 136.666C30.457 138.793 31.9656 141.379 33.7976 142.456C35.6295 143.533 37.1382 142.644 37.1382 140.517C37.1382 138.389 35.6295 135.804 33.7976 134.727C31.9387 133.677 30.457 134.538 30.457 136.666Z"
            fill="#D5D4FF" />
        <path class="dote-white1"
            d="M19.7075 130.445C19.7075 132.572 21.2161 135.158 23.048 136.235C24.8799 137.312 26.3885 136.423 26.3885 134.296C26.3885 132.168 24.8799 129.583 23.048 128.506C21.1892 127.456 19.7075 128.317 19.7075 130.445Z"
            fill="#D5D4FF" />
        <path class="dote-violet1"
            d="M8.95801 124.251C8.95801 126.378 10.4666 128.964 12.2985 130.041C14.1304 131.118 15.639 130.229 15.639 128.102C15.639 125.974 14.1304 123.389 12.2985 122.312C10.4397 121.262 8.95801 122.123 8.95801 124.251Z"
            fill="#5F1EC9" />
        <path
            d="M0.0145743 83.533V55.0142L63.9967 54.9873L86.1143 42.2224C91.179 39.2871 100.069 39.6641 105.915 43.0303L126.551 54.9334L190.587 54.9064V84.2332C190.722 86.226 189.617 88.138 187.193 89.5384L104.487 137.285C99.4226 140.221 90.5324 139.844 84.6865 136.477L4.83679 90.3732C1.46931 88.4343 -0.174005 85.9028 0.0145743 83.533Z"
            fill="url(#paint4_linear_463_24291)" />
        <path
            d="M95.3276 40.2568C99.0453 40.3376 102.898 41.2802 105.942 43.0306L126.578 54.9336L190.614 54.9067V84.2334C190.748 86.2262 189.644 88.1382 187.219 89.5386L104.514 137.285C102.063 138.686 98.749 139.332 95.3276 139.251V40.2568Z"
            fill="url(#paint5_linear_463_24291)" />
        <path
            d="M183.367 54.9065H190.614V84.2333C190.749 86.2261 189.644 88.1381 187.22 89.5385L183.367 91.7468V54.9065Z"
            fill="#5F1EC9" />
        <path d="M103.248 137.905C98.8567 139.79 92.5258 139.682 87.4072 137.716V104.404H103.248V137.905Z"
            fill="#5F1EC9" />
        <path
            d="M104.516 108.066L187.221 60.3194C192.286 57.384 191.666 52.2673 185.794 48.9011L105.944 2.797C100.071 -0.596177 91.2078 -0.946275 86.1431 1.98909L3.43773 49.7359C-1.62696 52.6713 -1.00734 57.788 4.86554 61.1542L84.7153 107.258C90.5882 110.625 99.4513 110.975 104.516 108.066Z"
            fill="#D5D4FF" />
        <path
            d="M4.83753 55.5258L84.6872 101.63C90.5601 105.023 99.4233 105.373 104.488 102.438L187.193 54.691C188.325 54.0447 189.16 53.2637 189.726 52.4558C191.477 55.2566 190.669 58.2996 187.193 60.3194L104.488 108.066C99.4233 111.002 90.5332 110.625 84.6872 107.258L4.83753 61.1542C0.284697 58.5151 -1.08924 54.8526 0.877371 51.9711C1.68557 53.2368 3.00562 54.4756 4.83753 55.5258Z"
            fill="white" />
        <path class="dote-white2"
            d="M30.457 91.0736C30.457 93.201 31.9656 95.7863 33.7976 96.8635C35.6295 97.9407 37.1382 97.052 37.1382 94.9245C37.1382 92.7971 35.6295 90.2118 33.7976 89.1346C31.9387 88.0843 30.457 88.9461 30.457 91.0736Z"
            fill="#5F1EC9" />
        <path class="dote-violet1"
            d="M19.7075 84.8796C19.7075 87.007 21.2161 89.5923 23.048 90.6695C24.8799 91.7467 26.3885 90.8581 26.3885 88.7306C26.3885 86.6031 24.8799 84.0178 23.048 82.9406C21.2161 81.8634 19.7075 82.7521 19.7075 84.8796Z"
            fill="#5F1EC9" />
        <path class="dote-white1"
            d="M8.95801 78.6585C8.95801 80.786 10.4666 83.3713 12.2985 84.4485C14.1304 85.5257 15.639 84.637 15.639 82.5095C15.639 80.382 14.1304 77.7968 12.2985 76.7196C10.4397 75.6693 8.95801 76.5311 8.95801 78.6585Z"
            fill="#D5D4FF" />
        <path
            d="M99.6373 78.4703L138.35 56.1454C140.721 54.7719 140.424 52.3752 137.676 50.7863L100.311 29.2154C97.5629 27.6265 93.4142 27.465 91.0435 28.8384L52.3309 51.1633C49.9602 52.5367 50.2565 54.9335 53.0044 56.5224L90.37 78.0933C93.0909 79.6552 97.2396 79.8437 99.6373 78.4703Z"
            fill="#5F1EC9" />
        <path
            d="M95.9196 59.7539L101.281 56.657C101.604 56.4685 101.577 56.1453 101.2 55.9299L96.0274 52.9407C95.6502 52.7252 95.0845 52.6983 94.7343 52.8868L89.3732 55.9837C89.0499 56.1723 89.0769 56.4954 89.454 56.7109L94.6265 59.7001C95.0306 59.9155 95.5963 59.9424 95.9196 59.7539Z"
            fill="#D5D4FF" />
        <path
            d="M138.323 56.1185L138.215 56.1723C138.027 56.0377 137.865 55.903 137.649 55.7953L100.284 34.2244C97.536 32.6355 93.3873 32.4739 91.0166 33.8474L52.4118 56.1185C50.2297 54.5565 50.095 52.429 52.304 51.1633L91.0166 28.8384C93.3873 27.465 97.536 27.6265 100.284 29.2154L137.649 50.7863C140.397 52.3482 140.694 54.745 138.323 56.1185Z"
            fill="url(#paint6_linear_463_24291)" />
        <path class="dote-white3"
            d="M111.869 160.445C111.869 161.98 112.947 162.6 114.267 161.819C115.587 161.065 116.664 159.206 116.664 157.671C116.664 156.136 115.587 155.517 114.267 156.298C112.947 157.052 111.869 158.91 111.869 160.445Z"
            fill="#D5D4FF" />
        <path class="dote-white2"
            d="M119.304 156.19C119.304 157.725 120.381 158.344 121.701 157.563C123.021 156.809 124.099 154.951 124.099 153.416C124.099 151.881 123.021 151.262 121.701 152.043C120.381 152.797 119.304 154.655 119.304 156.19Z"
            fill="#D5D4FF" />
        <path class="dote-white1"
            d="M111.869 169.412C111.869 170.947 112.947 171.567 114.267 170.786C115.587 170.032 116.664 168.174 116.664 166.639C116.664 165.104 115.587 164.484 114.267 165.265C112.947 166.019 111.869 167.877 111.869 169.412Z"
            fill="#D5D4FF" />
        <path class="dote-violet1"
            d="M119.304 165.158C119.304 166.693 120.381 167.312 121.701 166.531C123.021 165.777 124.099 163.919 124.099 162.384C124.099 160.849 123.021 160.229 121.701 161.01C120.381 161.764 119.304 163.623 119.304 165.158Z"
            fill="#5F1EC9" />
    </g>


    <defs>
        <linearGradient id="paint0_linear_463_24291" x1="24.0517" y1="-2220.4" x2="166.844" y2="-2220.37"
            gradientUnits="userSpaceOnUse">
            <stop stop-color="#B5A7FF" />
            <stop offset="0.484375" stop-color="#7B61FF" />
            <stop offset="1" stop-color="#5793CE" />
        </linearGradient>
        <linearGradient id="paint1_linear_463_24291" x1="107.353" y1="-2219.87" x2="178.748" y2="-2219.87"
            gradientUnits="userSpaceOnUse">
            <stop stop-color="#B5A7FF" />
            <stop offset="0.484375" stop-color="#7B61FF" />
            <stop offset="1" stop-color="#5793CE" />
        </linearGradient>
        <linearGradient id="paint2_linear_463_24291" x1="24.0517" y1="-2265.99" x2="166.844" y2="-2265.96"
            gradientUnits="userSpaceOnUse">
            <stop stop-color="#B5A7FF" />
            <stop offset="0.484375" stop-color="#7B61FF" />
            <stop offset="1" stop-color="#5793CE" />
        </linearGradient>
        <linearGradient id="paint3_linear_463_24291" x1="107.353" y1="-2265.46" x2="178.748" y2="-2265.46"
            gradientUnits="userSpaceOnUse">
            <stop stop-color="#B5A7FF" />
            <stop offset="0.484375" stop-color="#7B61FF" />
            <stop offset="1" stop-color="#5793CE" />
        </linearGradient>
        <linearGradient id="paint4_linear_463_24291" x1="24.0517" y1="-2311.58" x2="166.844" y2="-2311.55"
            gradientUnits="userSpaceOnUse">
            <stop stop-color="#B5A7FF" />
            <stop offset="0.484375" stop-color="#7B61FF" />
            <stop offset="1" stop-color="#5793CE" />
        </linearGradient>
        <linearGradient id="paint5_linear_463_24291" x1="107.353" y1="-2311.05" x2="178.748" y2="-2311.04"
            gradientUnits="userSpaceOnUse">
            <stop stop-color="#B5A7FF" />
            <stop offset="0.484375" stop-color="#7B61FF" />
            <stop offset="1" stop-color="#5793CE" />
        </linearGradient>
        <linearGradient id="paint6_linear_463_24291" x1="61.9678" y1="-643.406" x2="128.804" y2="-643.384"
            gradientUnits="userSpaceOnUse">
            <stop stop-color="#B5A7FF" />
            <stop offset="0.484375" stop-color="#7B61FF" />
            <stop offset="1" stop-color="#5793CE" />
        </linearGradient>
    </defs>




    <style>
         .box {
            animation: move 4s ease-in-out infinite;
        }

        @keyframes move {
            0% {
                transform: translateY(0);
            }
            50% {
                transform: translateY(7px);
            }

            100% {
                transform: translateY(0);
            }
        }

        .shadow {
            animation: shadow 4s ease-in-out infinite;
        }

         @keyframes shadow {
            0% {
                transform: scale(1);
            }
            50% {
                transform: scale(0.99);
            }
            100% {
                transform: scale(1);
            }
        }


        .dote-violet1 {
          animation: 1s linear infinite toWhite;
        }
        .dote-violet2 {
          animation: 1s linear infinite .2s toWhite;
        }
        .dote-white1 {
          animation: 1s linear infinite  toViolet;
        }
        .dote-white2 {
          animation: 1s linear infinite .2s toViolet;
        }
        .dote-white3 {
          animation: 1s linear infinite .4s toViolet;
        }
      
        @keyframes toWhite {
          0% {
            fill: #5f1ec9;
          }
          50% {
            fill: #d5d4ff;
          }
          100% {
            fill: #5f1ec9;
          }
        }
        @keyframes toViolet {
          0% {
            fill: #d5d4ff;
          }
          50% {
            fill: #5f1ec9;
          }
          100% {
            fill: #d5d4ff;
          }
        }
    
    
    </style>



</svg>