<svg width="191" height="252" viewBox="0 0 191 252" fill="none" xmlns="http://www.w3.org/2000/svg">
<path opacity="0.5" d="M102.67 250.337L168.727 212.204C172.767 209.861 172.283 205.768 167.595 203.075L103.828 166.262C99.1408 163.569 92.0557 163.272 88.0147 165.615L21.9581 203.748C17.9172 206.091 18.4021 210.185 23.0896 212.878L86.8563 249.691C91.5169 252.384 98.6021 252.68 102.67 250.337Z" fill="#B2BEEA"/>
<path d="M0.0284522 174.718V146.199L64.0106 146.172L86.1282 133.407C91.1929 130.472 100.083 130.849 105.929 134.215L126.565 146.118L190.601 146.092V175.418C190.736 177.411 189.631 179.323 187.206 180.724L104.501 228.47C99.4365 231.406 90.5463 231.029 84.7004 227.662L4.85071 181.558C1.45629 179.592 -0.160127 177.088 0.0284522 174.718Z" fill="url(#paint0_linear_136_7117)"/>
<path d="M95.3164 131.441C99.0341 131.522 102.886 132.465 105.931 134.215L126.567 146.118L190.603 146.091V175.418C190.737 177.411 189.633 179.323 187.208 180.723L104.503 228.47C102.051 229.871 98.7378 230.517 95.3164 230.436V131.441Z" fill="url(#paint1_linear_136_7117)"/>
<path d="M183.381 146.092H190.628V175.418C190.762 177.411 189.658 179.323 187.233 180.724L183.381 182.932V146.092Z" fill="#5F1EC9"/>
<path d="M103.235 229.09C98.844 230.975 92.5131 230.867 87.3945 228.901V195.589H103.235V229.09Z" fill="#5F1EC9"/>
<path d="M104.502 199.224L187.207 151.478C192.272 148.542 191.652 143.425 185.779 140.059L105.93 93.9551C100.057 90.5619 91.1936 90.2118 86.1289 93.1472L3.42357 140.894C-1.64112 143.829 -1.0215 148.946 4.85138 152.312L84.7011 198.416C90.5739 201.783 99.4371 202.16 104.502 199.224Z" fill="#D5D4FF"/>
<path d="M103.02 190.634L172.336 150.643C176.593 148.192 176.054 143.91 171.151 141.056L104.206 102.438C99.3025 99.6102 91.8671 99.2871 87.6106 101.738L18.2944 141.729C14.0379 144.179 14.5767 148.461 19.4798 151.316L86.3983 189.933C91.3283 192.788 98.7637 193.084 103.02 190.634Z" fill="#5F1EC9"/>
<path d="M30.4434 182.259C30.4434 184.386 31.952 186.971 33.7839 188.049C35.6158 189.126 37.1244 188.237 37.1244 186.11C37.1244 183.982 35.6158 181.397 33.7839 180.32C31.925 179.269 30.4434 180.131 30.4434 182.259Z" fill="#D5D4FF"/>
<path d="M19.6953 176.038C19.6953 178.165 21.2039 180.75 23.0358 181.828C24.8677 182.905 26.3763 182.016 26.3763 179.889C26.3763 177.761 24.8677 175.176 23.0358 174.099C21.177 173.048 19.6953 173.91 19.6953 176.038Z" fill="#5F1EC9"/>
<path d="M8.94531 169.844C8.94531 171.971 10.454 174.556 12.2859 175.634C14.1178 176.711 15.6265 175.822 15.6265 173.695C15.6265 171.567 14.1178 168.982 12.2859 167.905C10.427 166.854 8.94531 167.716 8.94531 169.844Z" fill="#D5D4FF"/>
<path d="M0.0284522 129.125V100.606L64.0106 100.58L86.1282 87.8147C91.1929 84.8794 100.083 85.2564 105.929 88.6226L126.565 100.526L190.601 100.499V129.826C190.736 131.818 189.631 133.73 187.206 135.131L104.501 182.878C99.4365 185.813 90.5463 185.436 84.7004 182.07L4.85071 135.966C1.45629 134 -0.160127 131.495 0.0284522 129.125Z" fill="url(#paint2_linear_136_7117)"/>
<path d="M95.3164 85.8486C99.0341 85.9294 102.886 86.872 105.931 88.6224L126.567 100.525L190.603 100.499V129.825C190.737 131.818 189.633 133.73 187.208 135.13L104.503 182.877C102.051 184.278 98.7378 184.924 95.3164 184.843V85.8486Z" fill="url(#paint3_linear_136_7117)"/>
<path d="M183.381 100.499H190.628V129.826C190.762 131.818 189.658 133.73 187.233 135.131L183.381 137.339V100.499Z" fill="#5F1EC9"/>
<path d="M103.235 183.497C98.844 185.382 92.5131 185.274 87.3945 183.308V149.996H103.235V183.497Z" fill="#5F1EC9"/>
<path d="M104.502 153.632L187.207 105.885C192.272 102.949 191.652 97.8328 185.779 94.4666L105.93 48.3624C100.057 44.9693 91.1936 44.6192 86.1289 47.5545L3.42357 95.3014C-1.64112 98.2367 -1.0215 103.353 4.85138 106.72L84.7011 152.824C90.5739 156.217 99.4371 156.567 104.502 153.632Z" fill="#D5D4FF"/>
<path d="M103.021 145.041L172.337 105.05C176.593 102.599 176.055 98.3174 171.152 95.4628L104.233 56.8452C99.3299 54.0175 91.8945 53.6944 87.638 56.145L18.3218 96.136C14.0653 98.5867 14.6041 102.869 19.5071 105.723L86.4257 144.341C91.3288 147.195 98.7642 147.518 103.021 145.041Z" fill="#5F1EC9"/>
<path d="M30.4434 136.666C30.4434 138.793 31.952 141.379 33.7839 142.456C35.6158 143.533 37.1244 142.644 37.1244 140.517C37.1244 138.389 35.6158 135.804 33.7839 134.727C31.925 133.677 30.4434 134.538 30.4434 136.666Z" fill="#5F1EC9"/>
<path d="M19.6953 130.445C19.6953 132.572 21.2039 135.158 23.0358 136.235C24.8677 137.312 26.3763 136.423 26.3763 134.296C26.3763 132.168 24.8677 129.583 23.0358 128.506C21.177 127.456 19.6953 128.317 19.6953 130.445Z" fill="#5F1EC9"/>
<path d="M8.94531 124.251C8.94531 126.378 10.454 128.964 12.2859 130.041C14.1178 131.118 15.6265 130.229 15.6265 128.102C15.6265 125.974 14.1178 123.389 12.2859 122.312C10.427 121.262 8.94531 122.123 8.94531 124.251Z" fill="#D5D4FF"/>
<path d="M0.0284522 83.533V55.0141L64.0106 54.9872L86.1282 42.2223C91.1929 39.2869 100.083 39.664 105.929 43.0302L126.565 54.9333L190.601 54.9064V84.2331C190.736 86.226 189.631 88.138 187.206 89.5384L104.501 137.285C99.4365 140.221 90.5463 139.844 84.7004 136.477L4.85071 90.3732C1.45629 88.4342 -0.160127 85.9028 0.0284522 83.533Z" fill="url(#paint4_linear_136_7117)"/>
<path d="M95.3164 40.2568C99.0341 40.3376 102.886 41.2802 105.931 43.0306L126.567 54.9337L190.603 54.9067V84.2335C190.737 86.2263 189.633 88.1383 187.208 89.5387L104.503 137.286C102.051 138.686 98.7378 139.332 95.3164 139.251V40.2568Z" fill="url(#paint5_linear_136_7117)"/>
<path d="M183.381 54.9066H190.628V84.2333C190.762 86.2261 189.658 88.1382 187.233 89.5385L183.381 91.7468V54.9066Z" fill="#5F1EC9"/>
<path d="M103.235 137.905C98.844 139.79 92.5131 139.682 87.3945 137.716V104.404H103.235V137.905Z" fill="#5F1EC9"/>
<path d="M104.502 108.066L187.207 60.3194C192.272 57.3841 191.652 52.2674 185.779 48.9011L105.93 2.79698C100.057 -0.596201 91.1936 -0.946258 86.1289 1.98911L3.42357 49.736C-1.64112 52.6713 -1.0215 57.788 4.85138 61.1543L84.7011 107.258C90.5739 110.625 99.4371 110.975 104.502 108.066Z" fill="#D5D4FF"/>
<path d="M4.85218 55.5258L84.7019 101.63C90.5748 105.023 99.438 105.373 104.503 102.438L187.208 54.691C188.339 54.0447 189.175 53.2637 189.74 52.4558C191.491 55.2565 190.683 58.2996 187.208 60.3193L104.503 108.066C99.438 111.002 90.5478 110.625 84.7019 107.258L4.85218 61.1542C0.299346 58.5151 -1.07459 54.8526 0.892019 51.9711C1.67327 53.2368 2.99333 54.4755 4.85218 55.5258Z" fill="white"/>
<path d="M30.4434 91.0735C30.4434 93.201 31.952 95.7862 33.7839 96.8634C35.6158 97.9406 37.1244 97.0519 37.1244 94.9245C37.1244 92.797 35.6158 90.2118 33.7839 89.1346C31.925 88.0843 30.4434 88.9461 30.4434 91.0735Z" fill="#D5D4FF"/>
<path d="M19.6953 84.8795C19.6953 87.007 21.2039 89.5922 23.0358 90.6694C24.8677 91.7466 26.3763 90.8579 26.3763 88.7305C26.3763 86.603 24.8677 84.0178 23.0358 82.9406C21.177 81.8634 19.6953 82.7521 19.6953 84.8795Z" fill="#D5D4FF"/>
<path d="M8.94531 78.6586C8.94531 80.7861 10.454 83.3713 12.2859 84.4485C14.1178 85.5257 15.6265 84.637 15.6265 82.5096C15.6265 80.3821 14.1178 77.7969 12.2859 76.7197C10.427 75.6694 8.94531 76.5312 8.94531 78.6586Z" fill="#5F1EC9"/>
<path d="M99.627 78.4703L138.34 56.1454C140.71 54.7719 140.414 52.3752 137.666 50.7863L100.301 29.2154C97.5527 27.6265 93.4039 27.465 91.0332 28.8384L52.3206 51.1633C49.9499 52.5367 50.2463 54.9335 52.9941 56.5224L90.3597 78.0933C93.0806 79.6552 97.2563 79.8437 99.627 78.4703Z" fill="#5F1EC9"/>
<path d="M95.9089 59.7538L101.27 56.6568C101.593 56.4683 101.566 56.1452 101.189 55.9297L96.0167 52.9405C95.6395 52.7251 95.0738 52.6982 94.7236 52.8867L89.3625 55.9836C89.0392 56.1721 89.0661 56.4953 89.4433 56.7107L94.6158 59.6999C95.0199 59.9153 95.5856 59.9423 95.9089 59.7538Z" fill="#D5D4FF"/>
<path d="M138.312 56.1185L138.204 56.1723C138.016 56.0377 137.854 55.903 137.639 55.7953L100.273 34.2244C97.5253 32.6355 93.3766 32.4739 91.0058 33.8473L52.401 56.1185C50.2189 54.5565 50.0842 52.4291 52.2933 51.1633L91.0058 28.8384C93.3766 27.465 97.5253 27.6265 100.273 29.2154L137.639 50.7863C140.387 52.3483 140.71 54.745 138.312 56.1185Z" fill="url(#paint6_linear_136_7117)"/>
<path d="M110.807 115.499C110.807 117.034 111.884 117.653 113.204 116.872C114.524 116.118 115.602 114.26 115.602 112.725C115.602 111.19 114.524 110.571 113.204 111.352C111.884 112.133 110.807 113.991 110.807 115.499Z" fill="#D5D4FF"/>
<path d="M118.242 111.244C118.242 112.779 119.32 113.398 120.64 112.617C121.96 111.863 123.037 110.005 123.037 108.47C123.037 106.935 121.96 106.316 120.64 107.097C119.32 107.851 118.242 109.709 118.242 111.244Z" fill="#D5D4FF"/>
<path d="M110.807 124.466C110.807 126.001 111.884 126.621 113.204 125.84C114.524 125.086 115.602 123.228 115.602 121.693C115.602 120.158 114.524 119.538 113.204 120.319C111.884 121.1 110.807 122.958 110.807 124.466Z" fill="#D5D4FF"/>
<path d="M118.242 120.212C118.242 121.747 119.32 122.366 120.64 121.585C121.96 120.831 123.037 118.973 123.037 117.438C123.037 115.903 121.96 115.284 120.64 116.065C119.32 116.819 118.242 118.677 118.242 120.212Z" fill="#5F1EC9"/>
<path d="M110.807 161.091C110.807 162.626 111.884 163.246 113.204 162.465C114.524 161.711 115.602 159.852 115.602 158.317C115.602 156.782 114.524 156.163 113.204 156.944C111.884 157.698 110.807 159.556 110.807 161.091Z" fill="#5F1EC9"/>
<path d="M118.242 156.836C118.242 158.371 119.32 158.991 120.64 158.21C121.96 157.456 123.037 155.597 123.037 154.062C123.037 152.527 121.96 151.908 120.64 152.689C119.32 153.443 118.242 155.301 118.242 156.836Z" fill="#D5D4FF"/>
<path d="M110.807 170.059C110.807 171.594 111.884 172.213 113.204 171.432C114.524 170.678 115.602 168.82 115.602 167.285C115.602 165.75 114.524 165.131 113.204 165.911C111.884 166.666 110.807 168.524 110.807 170.059Z" fill="#5F1EC9"/>
<path d="M118.242 165.804C118.242 167.339 119.32 167.959 120.64 167.178C121.96 166.424 123.037 164.565 123.037 163.03C123.037 161.495 121.96 160.876 120.64 161.657C119.32 162.411 118.242 164.269 118.242 165.804Z" fill="#D5D4FF"/>
<path d="M110.807 206.684C110.807 208.219 111.884 208.839 113.204 208.058C114.524 207.304 115.602 205.445 115.602 203.91C115.602 202.375 114.524 201.756 113.204 202.537C111.884 203.291 110.807 205.149 110.807 206.684Z" fill="#D5D4FF"/>
<path d="M118.242 202.429C118.242 203.964 119.32 204.583 120.64 203.802C121.96 203.048 123.037 201.19 123.037 199.655C123.037 198.12 121.96 197.501 120.64 198.282C119.32 199.036 118.242 200.894 118.242 202.429Z" fill="#5F1EC9"/>
<path d="M110.807 215.651C110.807 217.186 111.884 217.806 113.204 217.025C114.524 216.271 115.602 214.413 115.602 212.878C115.602 211.343 114.524 210.723 113.204 211.504C111.884 212.258 110.807 214.116 110.807 215.651Z" fill="#D5D4FF"/>
<path d="M118.242 211.397C118.242 212.932 119.32 213.551 120.64 212.77C121.96 212.016 123.037 210.158 123.037 208.623C123.037 207.088 121.96 206.469 120.64 207.25C119.32 208.004 118.242 209.862 118.242 211.397Z" fill="#D5D4FF"/>
<defs>
<linearGradient id="paint0_linear_136_7117" x1="24.0654" y1="-2220.4" x2="166.858" y2="-2220.37" gradientUnits="userSpaceOnUse">
<stop stop-color="#B5A7FF"/>
<stop offset="0.484375" stop-color="#7B61FF"/>
<stop offset="1" stop-color="#5793CE"/>
</linearGradient>
<linearGradient id="paint1_linear_136_7117" x1="107.342" y1="-2219.87" x2="178.737" y2="-2219.87" gradientUnits="userSpaceOnUse">
<stop stop-color="#B5A7FF"/>
<stop offset="0.484375" stop-color="#7B61FF"/>
<stop offset="1" stop-color="#5793CE"/>
</linearGradient>
<linearGradient id="paint2_linear_136_7117" x1="24.0654" y1="-2265.99" x2="166.858" y2="-2265.96" gradientUnits="userSpaceOnUse">
<stop stop-color="#B5A7FF"/>
<stop offset="0.484375" stop-color="#7B61FF"/>
<stop offset="1" stop-color="#5793CE"/>
</linearGradient>
<linearGradient id="paint3_linear_136_7117" x1="107.342" y1="-2265.46" x2="178.737" y2="-2265.46" gradientUnits="userSpaceOnUse">
<stop stop-color="#B5A7FF"/>
<stop offset="0.484375" stop-color="#7B61FF"/>
<stop offset="1" stop-color="#5793CE"/>
</linearGradient>
<linearGradient id="paint4_linear_136_7117" x1="24.0654" y1="-2311.58" x2="166.858" y2="-2311.56" gradientUnits="userSpaceOnUse">
<stop stop-color="#B5A7FF"/>
<stop offset="0.484375" stop-color="#7B61FF"/>
<stop offset="1" stop-color="#5793CE"/>
</linearGradient>
<linearGradient id="paint5_linear_136_7117" x1="107.342" y1="-2311.06" x2="178.737" y2="-2311.05" gradientUnits="userSpaceOnUse">
<stop stop-color="#B5A7FF"/>
<stop offset="0.484375" stop-color="#7B61FF"/>
<stop offset="1" stop-color="#5793CE"/>
</linearGradient>
<linearGradient id="paint6_linear_136_7117" x1="61.9584" y1="-643.407" x2="128.803" y2="-643.385" gradientUnits="userSpaceOnUse">
<stop stop-color="#B5A7FF"/>
<stop offset="0.484375" stop-color="#7B61FF"/>
<stop offset="1" stop-color="#5793CE"/>
</linearGradient>
</defs>
</svg>
