<svg width="418" height="328" viewBox="0 0 418 328" fill="none"
  xmlns="http://www.w3.org/2000/svg">
  <g clip-path="url(#clip0_154_14774)">
    <g opacity="0.7">
      <path opacity="0.0143" d="M290.09 103.063C280.155 97.3528 262.455 98.2444 250.606 105.08C238.757 111.915 237.183 122.125 247.096 127.836L326.999 173.857C336.912 179.568 354.633 178.676 366.482 171.841C378.331 165.005 379.905 154.816 369.992 149.085L290.09 103.063Z" fill="#AFB6E5"/>
      <path opacity="0.0286" d="M290.366 103.912C280.665 98.3082 263.37 99.1785 251.819 105.823C240.267 112.467 238.778 122.423 248.5 128.027L326.658 173.051C336.359 178.634 353.654 177.785 365.205 171.14C376.735 164.496 378.225 154.54 368.524 148.936L290.366 103.912Z" fill="#AFB6E5"/>
      <path opacity="0.0429" d="M290.622 104.74C281.134 99.2634 264.264 100.091 253.032 106.544C241.799 113.019 240.395 122.72 249.883 128.197L326.339 172.244C335.827 177.721 352.697 176.893 363.929 170.44C375.162 163.965 376.566 154.264 367.078 148.788L290.622 104.74Z" fill="#AFB6E5"/>
      <path opacity="0.0571" d="M290.897 105.589C281.622 100.24 265.178 101.004 254.265 107.288C243.351 113.571 242.011 123.038 251.308 128.388L326.041 171.437C335.316 176.787 351.76 176.023 362.673 169.718C373.587 163.435 374.927 153.967 365.63 148.618L290.897 105.589Z" fill="#AFB6E5"/>
      <path opacity="0.0714" d="M291.153 106.417C282.09 101.195 266.072 101.917 255.477 108.03C244.862 114.144 243.628 123.357 252.691 128.579L325.701 170.631C334.763 175.853 350.782 175.131 361.376 169.017C371.97 162.904 373.225 153.691 364.163 148.469L291.153 106.417Z" fill="#AFB6E5"/>
      <path opacity="0.0857" d="M291.409 107.266C282.559 102.172 266.966 102.83 256.691 108.774C246.395 114.696 245.225 123.675 254.074 128.791L325.361 169.867C334.211 174.961 349.783 174.303 360.079 168.36C370.376 162.437 371.546 153.458 362.696 148.363L291.409 107.266Z" fill="#AFB6E5"/>
      <path opacity="0.1" d="M291.685 108.094C283.048 103.106 267.902 103.742 257.903 109.495C247.926 115.248 246.841 123.972 255.478 128.961L325.042 169.039C333.679 174.006 348.825 173.39 358.824 167.638C368.801 161.885 369.886 153.16 361.249 148.172L291.685 108.094Z" fill="#AFB6E5"/>
      <path opacity="0.1143" d="M291.94 108.943C283.516 104.082 268.795 104.676 259.116 110.238C249.436 115.8 248.436 124.291 256.861 129.152L324.701 168.232C333.125 173.093 347.847 172.499 357.526 166.937C367.184 161.375 368.205 152.884 359.781 148.023L291.94 108.943Z" fill="#AFB6E5"/>
      <path opacity="0.1286" d="M292.217 109.771C284.005 105.037 269.71 105.568 260.349 110.96C250.989 116.352 250.053 124.588 258.265 129.322L324.382 167.425C332.594 172.159 346.889 171.628 356.249 166.237C365.61 160.845 366.546 152.608 358.334 147.875L292.217 109.771Z" fill="#AFB6E5"/>
      <path opacity="0.1429" d="M292.472 110.62C284.473 106.014 270.603 106.502 261.562 111.703C252.52 116.925 251.67 124.906 259.668 129.513L324.084 166.619C332.083 171.225 345.953 170.737 354.994 165.515C364.035 160.314 364.886 152.311 356.887 147.705L292.472 110.62Z" fill="#AFB6E5"/>
      <path opacity="0.1571" d="M292.728 111.448C284.942 106.969 271.497 107.415 262.775 112.446C254.032 117.477 253.266 125.225 261.052 129.704L323.744 165.812C331.53 170.291 344.975 169.845 353.697 164.814C362.44 159.783 363.206 152.035 355.42 147.556L292.728 111.448Z" fill="#AFB6E5"/>
      <path opacity="0.1714" d="M293.005 112.297C285.431 107.924 272.412 108.328 263.988 113.189C255.564 118.05 254.883 125.543 262.456 129.895L323.426 165.027C330.999 169.4 344.018 168.996 352.442 164.135C360.867 159.274 361.547 151.781 353.974 147.429L293.005 112.297Z" fill="#AFB6E5"/>
      <path opacity="0.1857" d="M293.26 113.125C285.899 108.879 273.306 109.24 265.2 113.91C257.095 118.58 256.478 125.84 263.839 130.065L323.085 164.199C330.446 168.444 343.018 168.083 351.145 163.413C359.25 158.743 359.867 151.483 352.506 147.259L293.26 113.125Z" fill="#AFB6E5"/>
      <path opacity="0.2" d="M293.536 113.974C286.388 109.856 274.241 110.153 266.433 114.653C258.626 119.153 258.094 126.159 265.242 130.277L322.765 163.413C329.913 167.531 342.06 167.213 349.867 162.734C357.675 158.234 358.185 151.228 351.059 147.132L293.536 113.974Z" fill="#AFB6E5"/>
      <path opacity="0.2143" d="M293.791 114.802C286.856 110.811 275.134 111.066 267.646 115.375C260.158 119.684 259.711 126.456 266.646 130.447L322.446 162.607C329.381 166.597 341.103 166.343 348.591 162.033C356.079 157.724 356.526 150.974 349.591 146.962L293.791 114.802Z" fill="#AFB6E5"/>
      <path opacity="0.2286" d="M294.068 115.651C287.345 111.788 276.049 112 268.88 116.118C261.711 120.257 261.328 126.753 268.05 130.638L322.149 161.8C328.871 165.663 340.167 165.451 347.336 161.333C354.505 157.194 354.888 150.698 348.166 146.813L294.068 115.651Z" fill="#AFB6E5"/>
      <path opacity="0.2429" d="M294.323 116.479C287.813 112.722 276.943 112.892 270.071 116.861C263.2 120.809 262.924 127.072 269.412 130.829L321.787 160.993C328.296 164.751 339.167 164.581 346.038 160.611C352.91 156.663 353.186 150.401 346.677 146.644L294.323 116.479Z" fill="#AFB6E5"/>
      <path opacity="0.2571" d="M294.579 117.328C288.282 113.698 277.836 113.825 271.284 117.604C264.732 121.383 264.519 127.39 270.816 131.02L321.468 160.187C327.765 163.817 338.21 163.689 344.762 159.911C351.314 156.132 351.527 150.125 345.23 146.495L294.579 117.328Z" fill="#AFB6E5"/>
      <path opacity="0.2714" d="M294.855 118.156C288.771 114.653 278.751 114.738 272.518 118.326C266.285 121.913 266.157 127.687 272.22 131.19L321.149 159.38C327.233 162.883 337.253 162.798 343.486 159.21C349.719 155.623 349.847 149.849 343.784 146.346L294.855 118.156Z" fill="#AFB6E5"/>
      <path opacity="0.2857" d="M295.111 119.005C289.239 115.63 279.645 115.651 273.731 119.069C267.796 122.486 267.753 128.005 273.625 131.381L320.83 158.573C326.701 161.948 336.274 161.927 342.21 158.509C348.145 155.092 348.187 149.573 342.316 146.197L295.111 119.005Z" fill="#AFB6E5"/>
      <path opacity="0.3" d="M295.386 119.833C289.727 116.585 280.58 116.564 274.964 119.791C269.348 123.017 269.369 128.303 275.028 131.551L320.51 157.767C326.169 161.015 335.316 161.036 340.932 157.809C346.549 154.583 346.527 149.297 340.869 146.049L295.386 119.833Z" fill="#AFB6E5"/>
    </g>
    <path d="M334.083 95.8034C331.232 94.1688 328.552 93.3197 326.105 93.1499C326.105 92.9801 326.127 92.8315 326.127 92.6617C326.127 68.5683 309.066 39.2317 288.048 27.1107C271.135 17.3672 256.818 21.7613 251.84 36.3659C250.543 35.3895 249.224 34.4555 247.862 33.67C233.992 25.6884 222.76 32.078 222.76 47.9562C222.76 63.8345 233.992 83.1941 247.862 91.1757C254.797 95.1665 325.871 136.115 334.083 140.848C344.954 147.111 353.761 142.101 353.761 129.661C353.761 117.222 344.932 102.066 334.083 95.8034Z" fill="url(#paint0_linear_154_14774)"/>
    <path d="M356.654 82.7269C353.804 81.0924 351.123 80.2433 348.677 80.0735C348.677 79.9037 348.698 79.7551 348.698 79.5853C348.698 55.4919 331.637 26.1553 310.619 14.0343C293.707 4.29078 279.39 8.6849 274.412 23.2895C273.114 22.3131 271.795 21.379 270.434 20.5936C256.563 12.612 245.331 19.0015 245.331 34.8798C245.331 50.7581 256.585 70.1177 270.455 78.1205C277.39 82.1113 348.464 123.059 356.676 127.793C367.546 134.055 376.353 129.046 376.353 116.606C376.332 104.146 367.525 88.9891 356.654 82.7269Z" fill="url(#paint1_linear_154_14774)"/>
    <path class="dote-azure1" d="M297.854 41.0357L300.619 42.6278V39.4649L297.854 37.8728V41.0357Z" fill="#2AF6FF"/>
    <path class="dote-blue1" d="M287.431 35.0284L290.217 36.6417V33.4576L287.431 31.8655V35.0284Z" fill="#6395FF"/>
    <path  class="dote-blue2" d="M271.816 26.0279L274.582 27.6412V24.4571L271.816 22.865V26.0279Z" fill="#6395FF"/>
    <path  class="dote-blue3" d="M266.604 23.035L269.369 24.6271V21.4641L266.604 19.8721V23.035Z" fill="#6395FF"/>
    <path  class="dote-blue4" d="M261.392 20.0413L264.178 21.6334V18.4493L261.392 16.8572V20.0413Z" fill="#6395FF"/>
    <path  class="dote-blue1" d="M297.854 46.6824L300.619 48.2745V45.1116L297.854 43.4983V46.6824Z" fill="#6395FF"/>
    <path class="dote-azure3" d="M287.429 40.6749L290.216 42.267V39.104L287.429 37.512V40.6749Z" fill="#2AF6FF"/>
    <path class="dote-azure2" d="M277.027 34.6883L279.793 36.2804V33.0962L277.027 31.5042V34.6883Z" fill="#2AF6FF"/>
    <path class="dote-azure1" d="M271.814 31.6742L274.58 33.2662V30.1033L271.814 28.5112V31.6742Z" fill="#2AF6FF"/>
    <path class="dote-azure4" d="M266.602 28.6812L269.367 30.2733V27.1104L266.602 25.4971V28.6812Z" fill="#2AF6FF"/>
    <path class="dote-blue1" d="M261.391 25.6881L264.177 27.2801V24.096L261.391 22.5039V25.6881Z" fill="#6395FF"/>
    <path class="dote-blue2" d="M256.2 22.6737L258.966 24.2657V21.1028L256.2 19.5107V22.6737Z" fill="#6395FF"/>
    <path class="dote-azure1" d="M297.854 52.2864L300.619 53.8785V50.6944L297.854 49.1023V52.2864Z" fill="#2AF6FF"/>
    <path class="dote-blue2" d="M292.643 49.2721L295.408 50.8641V47.7012L292.643 46.1091V49.2721Z" fill="#6395FF"/>
    <path class="dote-blue3" d="M287.43 46.2789L290.216 47.8709V44.708L287.43 43.0947V46.2789Z" fill="#6395FF"/>
    <path class="dote-azure3" d="M282.239 43.286L285.005 44.878V41.6939L282.239 40.1018V43.286Z" fill="#2AF6FF"/>
    <path class="dote-azure4" d="M277.026 40.2713L279.792 41.8634V38.7005L277.026 37.1084V40.2713Z" fill="#2AF6FF"/>
    <path class="dote-azure1" d="M271.815 37.2784L274.581 38.8705V35.7075L271.815 34.0942V37.2784Z" fill="#2AF6FF"/>
    <path class="dote-azure2" d="M266.603 34.2855L269.368 35.8775V32.6934L266.603 31.1013V34.2855Z" fill="#2AF6FF"/>
    <path class="dote-blue1" d="M256.199 28.2779L258.965 29.87V26.7071L256.199 25.0938V28.2779Z" fill="#6395FF"/>
    <path class="dote-blue2" d="M250.988 25.285L253.754 26.8771V23.6929L250.988 22.1008V25.285Z" fill="#6395FF"/>
    <path class="dote-azure1" d="M297.853 57.9115L300.618 59.5248V56.3406L297.853 54.7485V57.9115Z" fill="#2AF6FF"/>
    <path class="dote-azure2" d="M292.642 54.9183L295.407 56.5103V53.3474L292.642 51.7341V54.9183Z" fill="#2AF6FF"/>
    <path class="dote-azure3" d="M287.43 51.9254L290.216 53.5174V50.3333L287.43 48.7412V51.9254Z" fill="#2AF6FF"/>
    <path class="dote-blue2" d="M282.238 48.911L285.004 50.5243V47.3401L282.238 45.748V48.911Z" fill="#6395FF"/>
    <path class="dote-blue3" d="M277.026 45.9178L279.792 47.5099V44.3469L277.026 42.7336V45.9178Z" fill="#6395FF"/>
    <path class="dote-azure2" d="M271.815 42.9249L274.581 44.5169V41.3328L271.815 39.7407V42.9249Z" fill="#2AF6FF"/>
    <path class="dote-blue4" d="M261.391 36.9171L264.177 38.5091V35.3462L261.391 33.7329V36.9171Z" fill="#6395FF"/>
    <path class="dote-blue1" d="M256.199 33.9241L258.965 35.5162V32.3321L256.199 30.74V33.9241Z" fill="#6395FF"/>
    <path class="dote-azure3" d="M297.854 63.4735L300.619 65.0655V61.9026L297.854 60.3105V63.4735Z" fill="#2AF6FF"/>
    <path class="dote-blue2" d="M287.431 57.4661L290.217 59.0794V55.8953L287.431 54.3032V57.4661Z" fill="#6395FF"/>
    <path class="dote-blue3" d="M282.239 54.4732L285.005 56.0653V52.9024L282.239 51.3103V54.4732Z" fill="#6395FF"/>
    <path class="dote-blue4" d="M271.816 48.4657L274.582 50.079V46.8948L271.816 45.3027V48.4657Z" fill="#6395FF"/>
    <path class="dote-blue1" d="M266.604 45.4727L269.369 47.0648V43.9019L266.604 42.3098V45.4727Z" fill="#6395FF"/>
    <path class="dote-blue2" d="M261.392 42.4793L264.178 44.0714V40.9085L261.392 39.2952V42.4793Z" fill="#6395FF"/>
    <path class="dote-blue3" d="M297.854 69.1199L300.62 70.712V67.5491L297.854 65.9358V69.1199Z" fill="#6395FF"/>
    <path class="dote-azure3" d="M292.643 66.127L295.408 67.7191V64.5349L292.643 62.9429V66.127Z" fill="#2AF6FF"/>
    <path class="dote-azure2" d="M287.431 63.1124L290.217 64.7045V61.5415L287.431 59.9495V63.1124Z" fill="#2AF6FF"/>
    <path class="dote-azure1" d="M277.027 57.1265L279.793 58.7186V55.5345L277.027 53.9424V57.1265Z" fill="#2AF6FF"/>
    <path class="dote-azure4" d="M271.816 54.1119L274.582 55.704V52.541L271.816 50.949V54.1119Z" fill="#2AF6FF"/>
    <path class="dote-azure3" d="M266.604 51.119L269.369 52.711V49.5481L266.604 47.9348V51.119Z" fill="#2AF6FF"/>
    <path class="dote-blue1" d="M261.391 48.126L264.177 49.7181V46.534L261.391 44.9419V48.126Z" fill="#6395FF"/>
    <path class="dote-azure2" d="M256.201 45.1114L258.967 46.7035V43.5406L256.201 41.9485V45.1114Z" fill="#2AF6FF"/>
    <path class="dote-blue2" d="M250.989 42.1185L253.755 43.7105V40.5476L250.989 38.9343V42.1185Z" fill="#6395FF"/>
    <path class="dote-azure2" d="M297.854 74.7242L300.619 76.3163V73.1321L297.854 71.54V74.7242Z" fill="#2AF6FF"/>
    <path class="dote-blue3" d="M292.643 71.7098L295.408 73.3231V70.1389L292.643 68.5469V71.7098Z" fill="#6395FF"/>
    <path class="dote-blue4" d="M287.43 68.7166L290.216 70.3087V67.1458L287.43 65.5325V68.7166Z" fill="#6395FF"/>
    <path class="dote-azure1" d="M282.239 65.7237L285.005 67.3158V64.1316L282.239 62.5396V65.7237Z" fill="#2AF6FF"/>
    <path class="dote-blue1" d="M277.026 62.7091L279.792 64.3224V61.1382L277.026 59.5461V62.7091Z" fill="#6395FF"/>
    <path class="dote-blue2" d="M271.815 59.7161L274.581 61.3082V58.1453L271.815 56.532V59.7161Z" fill="#6395FF"/>
    <path class="dote-azure4" d="M261.392 53.7086L264.178 55.3219V52.1377L261.392 50.5457V53.7086Z" fill="#2AF6FF"/>
    <path class="dote-blue3" d="M256.199 50.7156L258.965 52.3077V49.1448L256.199 47.5315V50.7156Z" fill="#6395FF"/>
    <path class="dote-blue4" d="M250.988 47.7227L253.754 49.3148V46.1306L250.988 44.5386V47.7227Z" fill="#6395FF"/>
    <path class="dote-azure3" d="M297.853 80.3489L300.618 81.9623V78.7781L297.853 77.186V80.3489Z" fill="#2AF6FF"/>
    <path class="dote-azure2" d="M292.642 77.356L295.407 78.9481V75.7852L292.642 74.1931V77.356Z" fill="#2AF6FF"/>
    <path class="dote-blue1" d="M282.238 71.3487L285.004 72.962V69.7779L282.238 68.1858V71.3487Z" fill="#6395FF"/>
    <path class="dote-azure1" d="M277.026 68.3553L279.792 69.9474V66.7845L277.026 65.1924V68.3553Z" fill="#2AF6FF"/>
    <path class="dote-azure1" d="M271.815 65.3624L274.581 66.9544V63.7703L271.815 62.1782V65.3624Z" fill="#2AF6FF"/>
    <path class="dote-azure4" d="M266.603 62.3482L269.368 63.9615V60.7774L266.603 59.1853V62.3482Z" fill="#2AF6FF"/>
    <path class="dote-blue2" d="M261.391 59.3548L264.177 60.9469V57.784L261.391 56.1919V59.3548Z" fill="#6395FF"/>
    <path class="dote-blue3" d="M256.199 56.3616L258.965 57.9537V54.7696L256.199 53.1775V56.3616Z" fill="#6395FF"/>
    <path class="dote-azure3" d="M250.988 53.3475L253.754 54.9608V51.7766L250.988 50.1846V53.3475Z" fill="#2AF6FF"/>
    <path class="dote-blue4" d="M297.854 86.1021L300.619 87.7154V84.5313L297.854 82.9392V86.1021Z" fill="#6395FF"/>
    <path class="dote-blue1" d="M292.643 83.1087L295.408 84.7008V81.5379L292.643 79.9246V83.1087Z" fill="#6395FF"/>
    <path class="dote-blue2" d="M287.43 80.1158L290.216 81.7079V78.5237L287.43 76.9316V80.1158Z" fill="#6395FF"/>
    <path class="dote-blue3" d="M282.239 77.1016L285.005 78.7149V75.5308L282.239 73.9387V77.1016Z" fill="#6395FF"/>
    <path class="dote-blue4" d="M277.026 74.1085L279.792 75.7005V72.5376L277.026 70.9243V74.1085Z" fill="#6395FF"/>
    <path class="dote-blue1" d="M271.815 71.1153L274.581 72.7074V69.5232L271.815 67.9312V71.1153Z" fill="#6395FF"/>
    <path class="dote-blue2" d="M266.603 68.1012L269.368 69.7145V66.5303L266.603 64.9382V68.1012Z" fill="#6395FF"/>
    <path class="dote-azure2" d="M261.392 65.1077L264.178 66.6998V63.5369L261.392 61.9236V65.1077Z" fill="#2AF6FF"/>
    <path class="dote-blue3" d="M256.199 62.1148L258.965 63.7069V60.5227L256.199 58.9307V62.1148Z" fill="#6395FF"/>
    <path class="dote-blue4" d="M297.853 91.7484L300.618 93.3404V90.1775L297.853 88.5854V91.7484Z" fill="#6395FF"/>
    <path class="dote-blue1" d="M292.642 88.7552L295.407 90.3473V87.1631L292.642 85.571V88.7552Z" fill="#6395FF"/>
    <path class="dote-blue2" d="M282.238 82.7479L285.004 84.3399V81.177L282.238 79.585V82.7479Z" fill="#6395FF"/>
    <path class="dote-azure1" d="M277.026 79.7547L279.792 81.3468V78.1626L277.026 76.5706V79.7547Z" fill="#2AF6FF"/>
    <path class="dote-blue3" d="M271.815 76.7406L274.581 78.3539V75.1697L271.815 73.5776V76.7406Z" fill="#6395FF"/>
    <path class="dote-blue4" d="M266.603 73.7474L269.368 75.3395V72.1765L266.603 70.5632V73.7474Z" fill="#6395FF"/>
    <path class="dote-blue1" d="M261.391 70.754L264.177 72.346V69.1619L261.391 67.5698V70.754Z" fill="#6395FF"/>
    <path class="dote-azure4" d="M360.228 77.1016L362.993 78.6937V75.5308L360.228 73.9175V77.1016Z" fill="#2AF6FF"/>
    <path class="dote-blue1" d="M349.804 71.0941L352.591 72.7074V69.5232L349.804 67.9312V71.0941Z" fill="#6395FF"/>
    <path class="dote-blue2" d="M334.189 62.0936L336.955 63.6857V60.5227L334.189 58.9307V62.0936Z" fill="#6395FF"/>
    <path class="dote-blue3" d="M328.978 59.1006L331.764 60.6927V57.5298L328.978 55.9165V59.1006Z" fill="#6395FF"/>
    <path class="dote-blue4" d="M323.766 56.1072L326.552 57.6993V54.5152L323.766 52.9231V56.1072Z" fill="#6395FF"/>
    <path class="dote-azure3" d="M308.151 47.1068L310.917 48.6988V45.5147L308.151 43.9226V47.1068Z" fill="#2AF6FF"/>
    <path class="dote-azure2" d="M302.938 44.0926L305.725 45.6847V42.5218L302.938 40.9297V44.0926Z" fill="#2AF6FF"/>
    <path class="dote-blue1" d="M360.228 82.7481L362.993 84.3402V81.156L360.228 79.564V82.7481Z" fill="#6395FF"/>
    <path class="dote-azure1" d="M349.804 76.7405L352.591 78.3326V75.1697L349.804 73.5564V76.7405Z" fill="#2AF6FF"/>
    <path class="dote-azure4" d="M339.4 70.733L342.166 72.3463V69.1621L339.4 67.5701V70.733Z" fill="#2AF6FF"/>
    <path class="dote-azure3" d="M334.189 67.7401L336.955 69.3321V66.1692L334.189 64.5559V67.7401Z" fill="#2AF6FF"/>
    <path class="dote-azure3" d="M328.978 64.7471L331.764 66.3392V63.1551L328.978 61.563V64.7471Z" fill="#2AF6FF"/>
    <path class="dote-blue2" d="M323.766 61.7325L326.552 63.3458V60.1617L323.766 58.5696V61.7325Z" fill="#6395FF"/>
    <path class="dote-blue3" d="M318.573 58.7396L321.339 60.3316V57.1687L318.573 55.5554V58.7396Z" fill="#6395FF"/>
    <path class="dote-blue4" d="M313.362 55.7464L316.128 57.3385V54.1543L313.362 52.5623V55.7464Z" fill="#6395FF"/>
    <path class="dote-blue1" d="M308.151 52.732L310.917 54.3453V51.1612L308.151 49.5691V52.732Z" fill="#6395FF"/>
    <path class="dote-blue2" d="M302.938 49.7391L305.725 51.3312V48.1682L302.938 46.5549V49.7391Z" fill="#6395FF"/>
    <path class="dote-azure2" d="M360.228 88.3309L362.993 89.9442V86.76L360.228 85.168V88.3309Z" fill="#2AF6FF"/>
    <path class="dote-blue3" d="M355.017 85.338L357.803 86.93V83.7671L355.017 82.175V85.338Z" fill="#6395FF"/>
    <path class="dote-blue4" d="M349.804 82.3448L352.591 83.9369V80.7527L349.804 79.1606V82.3448Z" fill="#6395FF"/>
    <path class="dote-blue1" d="M344.613 79.3306L347.379 80.9439V77.7598L344.613 76.1677V79.3306Z" fill="#6395FF"/>
    <path class="dote-blue2" d="M339.4 76.3372L342.166 77.9293V74.7664L339.4 73.1743V76.3372Z" fill="#6395FF"/>
    <path class="dote-blue3" d="M334.189 73.3443L336.955 74.9364V71.7522L334.189 70.1602V73.3443Z" fill="#6395FF"/>
    <path class="dote-azure1" d="M323.766 67.3367L326.552 68.9288V65.7659L323.766 64.1738V67.3367Z" fill="#2AF6FF"/>
    <path class="dote-blue4" d="M318.573 64.3436L321.339 65.9356V62.7515L318.573 61.1594V64.3436Z" fill="#6395FF"/>
    <path class="dote-blue1" d="M313.362 61.3294L316.128 62.9427V59.7586L313.362 58.1665V61.3294Z" fill="#6395FF"/>
    <path class="dote-blue2" d="M308.151 58.336L310.917 59.9281V56.7652L308.151 55.1731V58.336Z" fill="#6395FF"/>
    <path class="dote-azure4" d="M302.939 55.3433L305.726 56.9354V53.7513L302.939 52.1592V55.3433Z" fill="#2AF6FF"/>
    <path class="dote-azure3" d="M360.228 93.9776L362.993 95.5697V92.4068L360.228 90.8147V93.9776Z" fill="#2AF6FF"/>
    <path class="dote-azure2" d="M355.017 90.9842L357.803 92.5763V89.4133L355.017 87.8V90.9842Z" fill="#2AF6FF"/>
    <path class="dote-blue3" d="M344.613 84.9771L347.379 86.5692V83.4063L344.613 81.8142V84.9771Z" fill="#6395FF"/>
    <path class="dote-azure1" d="M339.4 81.9837L342.166 83.5758V80.4129L339.4 78.7996V81.9837Z" fill="#2AF6FF"/>
    <path class="dote-azure4" d="M334.189 78.9908L336.955 80.5829V77.3987L334.189 75.8066V78.9908Z" fill="#2AF6FF"/>
    <path class="dote-blue4" d="M323.766 72.9832L326.552 74.5753V71.4124L323.766 69.7991V72.9832Z" fill="#6395FF"/>
    <path class="dote-blue1" d="M318.573 69.9903L321.339 71.5824V68.3982L318.573 66.8062V69.9903Z" fill="#6395FF"/>
    <path class="dote-azure3" d="M313.362 66.9759L316.128 68.568V65.4051L313.362 63.813V66.9759Z" fill="#2AF6FF"/>
    <path class="dote-azure2" d="M302.938 60.9686L305.725 62.5819V59.3977L302.938 57.8057V60.9686Z" fill="#2AF6FF"/>
    <path class="dote-azure1" d="M360.228 99.5394L362.993 101.131V97.9685L360.228 96.3552V99.5394Z" fill="#2AF6FF"/>
    <path class="dote-blue3" d="M349.804 93.5321L352.591 95.1454V91.9612L349.804 90.3691V93.5321Z" fill="#6395FF"/>
    <path class="dote-blue4" d="M334.189 84.5316L336.955 86.1449V82.9607L334.189 81.3687V84.5316Z" fill="#6395FF"/>
    <path class="dote-blue1" d="M328.978 81.5384L331.764 83.1305V79.9675L328.978 78.3542V81.5384Z" fill="#6395FF"/>
    <path class="dote-blue2" d="M323.766 78.545L326.552 80.1371V76.9529L323.766 75.3608V78.545Z" fill="#6395FF"/>
    <path class="dote-azure4" d="M308.151 69.5445L310.917 71.1366V67.9524L308.151 66.3604V69.5445Z" fill="#2AF6FF"/>
    <path class="dote-azure3" d="M302.939 66.5304L305.726 68.1437V64.9595L302.939 63.3674V66.5304Z" fill="#2AF6FF"/>
    <path class="dote-blue3" d="M360.228 105.186L362.993 106.778V103.594L360.228 102.002V105.186Z" fill="#6395FF"/>
    <path class="dote-azure2" d="M349.804 99.1783L352.591 100.77V97.6075L349.804 96.0154V99.1783Z" fill="#2AF6FF"/>
    <path class="dote-azure1" d="M339.4 93.1707L342.166 94.784V91.5999L339.4 90.0078V93.1707Z" fill="#2AF6FF"/>
    <path class="dote-azure1" d="M334.189 90.1778L336.955 91.7699V88.607L334.189 87.0149V90.1778Z" fill="#2AF6FF"/>
    <path class="dote-azure4" d="M328.978 87.1846L331.764 88.7767V85.5926L328.978 84.0005V87.1846Z" fill="#2AF6FF"/>
    <path class="dote-blue4" d="M323.766 84.1702L326.552 85.7835V82.5994L323.766 81.0073V84.1702Z" fill="#6395FF"/>
    <path class="dote-blue1" d="M318.573 81.1773L321.339 82.7694V79.6065L318.573 78.0144V81.1773Z" fill="#6395FF"/>
    <path class="dote-blue2" d="M313.362 78.1844L316.128 79.7765V76.5923L313.362 75.0002V78.1844Z" fill="#6395FF"/>
    <path class="dote-blue3" d="M308.151 75.1698L310.917 76.7831V73.5989L308.151 72.0068V75.1698Z" fill="#6395FF"/>
    <path class="dote-blue4" d="M302.938 72.1768L305.725 73.7689V70.606L302.938 69.0139V72.1768Z" fill="#6395FF"/>
    <path class="dote-azure3" d="M360.228 110.769L362.993 112.382V109.198L360.228 107.606V110.769Z" fill="#2AF6FF"/>
    <path class="dote-blue1" d="M355.017 107.776L357.803 109.368V106.205L355.017 104.613V107.776Z" fill="#6395FF"/>
    <path class="dote-blue2" d="M349.804 104.783L352.591 106.375V103.212L349.804 101.598V104.783Z" fill="#6395FF"/>
    <path class="dote-blue3" d="M344.613 101.768L347.379 103.382V100.198L344.613 98.6055V101.768Z" fill="#6395FF"/>
    <path class="dote-blue4" d="M339.4 98.775L342.166 100.367V97.2041L339.4 95.6121V98.775Z" fill="#6395FF"/>
    <path class="dote-blue1" d="M334.189 95.7821L336.955 97.3741V94.2112L334.189 92.5979V95.7821Z" fill="#6395FF"/>
    <path class="dote-azure4" d="M323.766 89.7745L326.552 91.3666V88.2036L323.766 86.6116V89.7745Z" fill="#2AF6FF"/>
    <path class="dote-blue2" d="M318.573 86.7816L321.339 88.3736V85.1895L318.573 83.5974V86.7816Z" fill="#6395FF"/>
    <path class="dote-blue3" d="M313.362 83.7674L316.128 85.3807V82.1966L313.362 80.6045V83.7674Z" fill="#6395FF"/>
    <path class="dote-blue4" d="M308.151 80.7742L310.917 82.3663V79.2034L308.151 77.6113V80.7742Z" fill="#6395FF"/>
    <path class="dote-azure3" d="M302.939 77.7811L305.726 79.3732V76.189L302.939 74.5969V77.7811Z" fill="#2AF6FF"/>
    <path class="dote-azure2" d="M360.228 116.415L362.993 118.007V114.845L360.228 113.252V116.415Z" fill="#2AF6FF"/>
    <path class="dote-azure1" d="M355.017 113.422L357.803 115.014V111.851L355.017 110.238V113.422Z" fill="#2AF6FF"/>
    <path class="dote-blue1" d="M344.613 107.415L347.379 109.007V105.844L344.613 104.252V107.415Z" fill="#6395FF"/>
    <path class="dote-azure4" d="M339.4 104.422L342.166 106.014V102.851L339.4 101.238V104.422Z" fill="#2AF6FF"/>
    <path class="dote-azure3" d="M334.189 101.429L336.955 103.021V99.8367L334.189 98.2446V101.429Z" fill="#2AF6FF"/>
    <path class="dote-blue2" d="M323.766 95.421L326.552 97.013V93.8501L323.766 92.2368V95.421Z" fill="#6395FF"/>
    <path class="dote-blue3" d="M318.573 92.428L321.339 94.0201V90.836L318.573 89.2439V92.428Z" fill="#6395FF"/>
    <path class="dote-azure2" d="M313.362 89.4139L316.128 91.006V87.8431L313.362 86.251V89.4139Z" fill="#2AF6FF"/>
    <path class="dote-azure1" d="M302.938 83.4276L305.725 85.0196V81.8355L302.938 80.2434V83.4276Z" fill="#2AF6FF"/>
    <path class="dote-azure4" d="M360.228 122.168L362.993 123.76V120.597L360.228 119.005V122.168Z" fill="#2AF6FF"/>
    <path class="dote-blue4" d="M355.017 119.175L357.803 120.767V117.583L355.017 115.99V119.175Z" fill="#6395FF"/>
    <path class="dote-blue1" d="M349.804 116.16L352.591 117.774V114.59L349.804 112.998V116.16Z" fill="#6395FF"/>
    <path class="dote-blue2" d="M344.613 113.168L347.379 114.76V111.597L344.613 110.005V113.168Z" fill="#6395FF"/>
    <path class="dote-blue3" d="M339.4 110.174L342.166 111.766V108.582L339.4 106.99V110.174Z" fill="#6395FF"/>
    <path class="dote-blue4" d="M334.189 107.16L336.955 108.773V105.589L334.189 103.997V107.16Z" fill="#6395FF"/>
    <path class="dote-azure3" d="M323.766 101.174L326.552 102.766V99.5816L323.766 97.9895V101.174Z" fill="#2AF6FF"/>
    <path class="dote-blue1" d="M318.573 98.1593L321.339 99.7726V96.5884L318.573 94.9963V98.1593Z" fill="#6395FF"/>
    <path class="dote-blue2" d="M313.362 95.1663L316.128 96.7584V93.5955L313.362 92.0034V95.1663Z" fill="#6395FF"/>
    <path class="dote-blue3" d="M308.151 92.1732L310.917 93.7652V90.5811L308.151 88.989V92.1732Z" fill="#6395FF"/>
    <path class="dote-azure2" d="M302.939 89.159L305.726 90.7723V87.5882L302.939 85.9961V89.159Z" fill="#2AF6FF"/>
    <path class="dote-azure1" d="M360.228 127.814L362.993 129.406V126.243L360.228 124.63V127.814Z" fill="#2AF6FF"/>
    <path class="dote-azure4" d="M355.017 124.821L357.803 126.413V123.229L355.017 121.637V124.821Z" fill="#2AF6FF"/>
    <path class="dote-blue4" d="M344.613 118.814L347.379 120.406V117.243L344.613 115.63V118.814Z" fill="#6395FF"/>
    <path class="dote-azure3" d="M339.4 115.821L342.166 117.413V114.229L339.4 112.636V115.821Z" fill="#2AF6FF"/>
    <path class="dote-azure2" d="M334.189 112.806L336.955 114.398V111.235L334.189 109.643V112.806Z" fill="#2AF6FF"/>
    <path class="dote-blue1" d="M323.766 106.82L326.552 108.412V105.228L323.766 103.636V106.82Z" fill="#6395FF"/>
    <path class="dote-blue2" d="M318.573 103.806L321.339 105.398V102.235L318.573 100.643V103.806Z" fill="#6395FF"/>
    <path class="dote-azure1" d="M313.362 100.813L316.128 102.405V99.242L313.362 97.6287V100.813Z" fill="#2AF6FF"/>
    <path class="dote-blue3" d="M302.938 94.8053L305.725 96.3973V93.2344L302.938 91.6423V94.8053Z" fill="#6395FF"/>
    <path d="M253.564 42.0125L288.091 19.0654L261.436 25.7734L253.564 38.0217V42.0125Z" fill="url(#paint2_linear_154_14774)"/>
    <path d="M392.159 107.436C392.159 94.9966 383.352 79.84 372.482 73.5779C369.631 71.9433 366.951 71.0942 364.504 70.9244C364.504 70.7546 364.525 70.606 364.525 70.4362C364.525 46.3428 347.464 17.0062 326.446 4.88519C314.639 -1.90766 304.364 -0.994868 297.11 3.82381L284.963 10.744C278.113 7.19901 271.965 7.22023 267.647 10.1921L231.248 31.2924C235.673 29.3607 241.481 29.9975 247.863 33.6699C249.224 34.4553 250.543 35.3681 251.841 36.3658C256.819 21.7612 271.136 17.3671 288.048 27.1105C309.087 39.2315 326.127 68.5681 326.127 92.6615C326.127 92.8314 326.106 92.9799 326.106 93.1498C328.552 93.3196 331.233 94.1687 334.083 95.8032C344.954 102.065 353.761 117.222 353.761 129.661C353.761 134.926 352.187 138.853 349.528 141.167L385.777 120.427L385.756 120.385C389.692 118.517 392.159 114.017 392.159 107.436Z" fill="url(#paint3_linear_154_14774)"/>
    <path d="M334.323 95.9025C331.473 94.268 328.792 93.4188 326.346 93.249C326.346 93.0792 326.367 92.9306 326.367 92.7608C326.367 68.6674 309.306 39.3308 288.288 27.2098C271.376 17.4663 257.059 21.8604 252.081 36.4651C250.783 35.4886 249.464 34.5546 248.103 33.7692C234.232 25.7876 223 32.1771 223 48.0554C223 63.9336 234.232 83.2933 248.103 91.2749C255.038 95.2657 326.112 136.214 334.323 140.948C345.194 147.21 354.001 142.2 354.001 129.761C353.98 117.321 345.173 102.165 334.323 95.9025ZM348.279 137.848C347.023 139.419 345.3 140.205 343.13 140.205C341.024 140.205 338.557 139.44 336.025 137.976L249.804 88.303C236.913 80.8733 226.425 62.8298 226.425 48.0766C226.425 39.1397 230.318 33.7904 236.806 33.7904C239.657 33.7904 242.976 34.8093 246.358 36.7623C247.443 37.3991 248.634 38.1845 249.975 39.2034L253.782 42.0904L255.314 37.5477C257.973 29.7359 263.611 25.4267 271.184 25.4267C275.822 25.4267 281.14 27.0612 286.522 30.1817C306.562 41.7295 322.878 69.7925 322.878 92.7396C322.857 92.9094 322.857 93.058 322.857 93.2066L322.836 96.4544L326.069 96.6667C328.069 96.794 330.26 97.537 332.558 98.8531C342.279 104.457 350.491 118.595 350.491 129.718C350.533 133.221 349.768 136.023 348.279 137.848Z" fill="url(#paint4_linear_154_14774)"/>
    <path d="M295.792 124.27V145.052L304.812 139.66V118.878L295.792 124.27Z" fill="url(#paint5_linear_154_14774)"/>
    <path d="M295.814 124.27V145.052L272.2 131.742V110.981L295.814 124.27Z" fill="url(#paint6_linear_154_14774)"/>
    <path d="M276.561 130.659V116.416L291.452 124.652V138.917L276.561 130.659Z" fill="url(#paint7_linear_154_14774)"/>
    <path d="M272.2 110.981L295.814 124.27L304.812 118.878L281.156 105.547L272.2 110.981Z" fill="url(#paint8_linear_154_14774)"/>
    <path d="M287.474 129.195C287.474 130.405 287.048 131.275 286.368 131.699C286.368 131.699 285.112 132.421 285.091 132.442C284.368 132.846 284.836 131.933 283.751 131.317C281.56 130.065 279.794 127.008 279.794 124.525C279.794 123.293 278.645 123.272 279.347 122.869C279.369 122.848 280.73 122.126 280.751 122.105C281.453 121.722 282.432 121.786 283.517 122.402C285.708 123.654 287.474 126.711 287.474 129.195Z" fill="url(#paint9_linear_154_14774)"/>
    <path d="M286.112 129.98C286.112 132.485 284.346 133.482 282.155 132.23C279.964 130.978 278.198 127.921 278.198 125.437C278.198 122.932 279.964 121.935 282.155 123.187C284.346 124.439 286.112 127.475 286.112 129.98Z" fill="url(#paint10_linear_154_14774)"/>
    <path d="M285.155 129.789C285.155 130.829 284.793 131.572 284.198 131.933C284.176 131.954 282.304 133.058 282.283 133.079C281.666 133.419 282.07 132.655 281.134 132.103C279.262 131.02 277.752 128.409 277.752 126.265C277.752 125.204 276.773 125.204 277.369 124.843C277.39 124.843 279.39 123.697 279.39 123.697C280.007 123.357 280.837 123.421 281.751 123.952C283.623 125.034 285.155 127.645 285.155 129.789Z" fill="url(#paint11_linear_154_14774)"/>
    <path d="M283.156 130.957C283.156 133.101 281.645 133.971 279.773 132.888C277.901 131.806 276.391 129.195 276.391 127.051C276.391 124.907 277.901 124.036 279.773 125.119C281.624 126.202 283.156 128.813 283.156 130.957Z" fill="url(#paint12_linear_154_14774)"/>
    <path d="M282.348 123.081C281.306 122.486 280.349 122.401 279.646 122.741C280.306 122.55 281.114 122.699 282.008 123.208C284.199 124.461 285.965 127.517 285.965 130.001C285.965 131.296 285.475 132.187 284.71 132.57C285.667 132.294 286.305 131.338 286.305 129.852C286.305 127.39 284.518 124.333 282.348 123.081Z" fill="#E6E7E8"/>
    <path d="M279.901 125.034C279.007 124.525 278.177 124.44 277.561 124.758C278.135 124.609 278.837 124.716 279.603 125.161C281.475 126.244 283.007 128.876 283.007 131.02C283.007 132.145 282.602 132.909 281.922 133.249C282.751 133.016 283.283 132.188 283.283 130.914C283.326 128.749 281.794 126.117 279.901 125.034Z" fill="url(#paint13_radial_154_14774)"/>
    <path class="button" d="M281.56 130.405C281.56 131.636 280.688 132.145 279.603 131.508C278.518 130.893 277.646 129.386 277.646 128.133C277.646 126.881 278.518 126.393 279.603 127.029C280.688 127.645 281.56 129.152 281.56 130.405Z" fill="#2AF6FF"/>
    <g opacity="0.2">
      <path d="M26.7159 283.003L25.2852 280.714L293.593 115.345C294.241 114.941 295.051 115.156 295.456 115.776C295.834 116.422 295.645 117.231 295.024 117.635L26.7159 283.003Z" fill="url(#paint14_linear_154_14774)"/>
      <path d="M166.963 61.0415C168.961 61.0415 170.878 61.4994 172.335 62.3344C174.009 63.3042 174.954 64.7048 174.954 66.1863C174.954 67.6678 174.009 69.0685 172.362 70.0113C169.474 71.6814 164.588 71.6544 161.699 69.9844C160.026 69.0147 159.081 67.614 159.081 66.1055C159.081 64.5971 159.999 63.2233 161.673 62.2806C163.103 61.4994 164.993 61.0415 166.963 61.0415ZM167.044 68.6375C168.529 68.6375 169.987 68.2874 171.013 67.7217C171.795 67.2638 172.254 66.7251 172.254 66.2133C172.254 65.7015 171.795 65.1358 170.986 64.6779C168.907 63.4927 165.047 63.4658 163.022 64.651C162.239 65.1089 161.78 65.6476 161.78 66.1594C161.78 66.6712 162.239 67.2369 163.049 67.6948C164.075 68.2874 165.533 68.6375 167.044 68.6375Z" fill="url(#paint15_linear_154_14774)"/>
      <path d="M221.465 67.2368C223.463 67.2368 225.325 67.6947 226.783 68.5298C228.43 69.4725 229.375 70.8732 229.375 72.3547C229.375 73.8632 228.43 75.2639 226.756 76.2066C223.841 77.8767 218.982 77.8767 216.093 76.2336C214.42 75.2638 213.502 73.917 213.502 72.4086C213.502 70.9002 214.447 69.4995 216.12 68.5298C217.551 67.6947 219.468 67.2368 221.465 67.2368ZM221.384 74.8329C222.896 74.8329 224.354 74.4827 225.406 73.8901C226.216 73.4322 226.675 72.8665 226.675 72.3547C226.675 71.8429 226.216 71.3042 225.433 70.8463C223.382 69.6611 219.522 69.688 217.47 70.8732C216.66 71.3311 216.201 71.8968 216.201 72.4086C216.201 72.9204 216.66 73.4591 217.443 73.917C218.442 74.5096 219.9 74.8329 221.384 74.8329Z" fill="url(#paint16_linear_154_14774)"/>
      <path d="M277.963 141C279.961 141 281.823 141.458 283.281 142.293C284.928 143.236 285.873 144.636 285.873 146.118C285.873 147.626 284.928 149.027 283.254 149.97C280.339 151.64 275.48 151.64 272.591 149.997C270.918 149.027 270 147.68 270 146.172C270 144.663 270.945 143.263 272.618 142.293C274.049 141.458 275.966 141 277.963 141ZM277.882 148.596C279.394 148.596 280.852 148.246 281.904 147.653C282.714 147.195 283.173 146.63 283.173 146.118C283.173 145.606 282.714 145.067 281.931 144.609C279.88 143.424 276.02 143.451 273.968 144.636C273.158 145.094 272.699 145.66 272.699 146.172C272.699 146.684 273.158 147.222 273.941 147.68C274.94 148.273 276.398 148.596 277.882 148.596Z" fill="url(#paint17_linear_154_14774)"/>
      <path d="M375.79 163.75C377.788 163.75 379.651 164.207 381.108 165.042C382.755 165.985 383.7 167.386 383.7 168.867C383.7 170.376 382.755 171.777 381.081 172.719C378.166 174.389 373.307 174.389 370.419 172.746C368.745 171.777 367.827 170.43 367.827 168.921C367.827 167.413 368.772 166.012 370.446 165.042C371.876 164.234 373.793 163.75 375.79 163.75ZM375.709 171.346C377.221 171.346 378.679 170.995 379.732 170.403C380.541 169.945 381 169.379 381 168.867C381 168.356 380.541 167.817 379.759 167.359C377.707 166.174 373.847 166.201 371.795 167.386C370.985 167.844 370.527 168.409 370.527 168.921C370.527 169.433 370.985 169.972 371.768 170.43C372.767 171.022 374.198 171.346 375.709 171.346Z" fill="url(#paint18_linear_154_14774)"/>
      <path d="M131.716 269.003L130.231 266.741L233.125 199.818L207.373 185.865L272.888 147.373L274.238 149.716L212.853 185.757L238.416 199.629L131.716 269.003Z" fill="url(#paint19_linear_154_14774)"/>
      <path d="M74.4997 354L73.123 351.683L288.842 197.716L306.389 207.602L370.041 169.837L371.418 172.154L306.416 210.7L288.869 200.814L74.4997 354Z" fill="url(#paint20_linear_154_14774)"/>
      <path d="M-59.784 274.003L-60 271.337C-60 271.337 178.949 135.709 206.105 119.816L171.444 99.6142L216.201 73.7554L217.55 76.0988L176.816 99.6142L211.45 119.816L209.452 120.975C183.295 136.302 -57.4895 274.003 -59.784 274.003Z" fill="url(#paint21_linear_154_14774)"/>
      <path d="M-19.9345 215.347L-21.2842 213.003L150.416 112.113L120.722 92.8265L163.103 67.9104L164.48 70.2539L125.851 92.9342L155.544 112.248L-19.9345 215.347Z" fill="url(#paint22_linear_154_14774)"/>
    </g>
  </g>
  <defs>
    <linearGradient id="paint0_linear_154_14774" x1="246.666" y1="21.7569" x2="326.545" y2="152.615" gradientUnits="userSpaceOnUse">
      <stop offset="0.0253" stop-color="#AFB6E5"/>
      <stop offset="0.1023" stop-color="#B1B8E6"/>
      <stop offset="0.1403" stop-color="#B9BFEA"/>
      <stop offset="0.1697" stop-color="#C6CCF0"/>
      <stop offset="0.1946" stop-color="#D8DDF9"/>
      <stop offset="0.2071" stop-color="#E5E9FF"/>
      <stop offset="0.2441" stop-color="#E1E5FD"/>
      <stop offset="0.2844" stop-color="#D3D8F7"/>
      <stop offset="0.3262" stop-color="#BEC4EC"/>
      <stop offset="0.3485" stop-color="#AFB6E5"/>
      <stop offset="0.3732" stop-color="#B3BAE7"/>
      <stop offset="0.6869" stop-color="#E5E9FF"/>
      <stop offset="0.9697" stop-color="#E5E9FF"/>
    </linearGradient>
    <linearGradient id="paint1_linear_154_14774" x1="261.865" y1="-2880.8" x2="360.024" y2="-2880.79" gradientUnits="userSpaceOnUse">
      <stop stop-color="#B5A7FF"/>
      <stop offset="0.484375" stop-color="#7B61FF"/>
      <stop offset="1" stop-color="#5793CE"/>
    </linearGradient>
    <linearGradient id="paint2_linear_154_14774" x1="265.36" y1="22.9535" x2="290.853" y2="58.4227" gradientUnits="userSpaceOnUse">
      <stop offset="0.0253" stop-color="#AFB6E5"/>
      <stop offset="0.1023" stop-color="#B1B8E6"/>
      <stop offset="0.1403" stop-color="#B9BFEA"/>
      <stop offset="0.1697" stop-color="#C6CCF0"/>
      <stop offset="0.1946" stop-color="#D8DDF9"/>
      <stop offset="0.2071" stop-color="#E5E9FF"/>
      <stop offset="0.2441" stop-color="#E1E5FD"/>
      <stop offset="0.2844" stop-color="#D3D8F7"/>
      <stop offset="0.3262" stop-color="#BEC4EC"/>
      <stop offset="0.3485" stop-color="#AFB6E5"/>
      <stop offset="0.3732" stop-color="#B3BAE7"/>
      <stop offset="0.6869" stop-color="#E5E9FF"/>
      <stop offset="0.9697" stop-color="#E5E9FF"/>
    </linearGradient>
    <linearGradient id="paint3_linear_154_14774" x1="275.857" y1="5.01001" x2="355.116" y2="136.683" gradientUnits="userSpaceOnUse">
      <stop stop-color="#AFB6E5"/>
      <stop offset="0.00757559" stop-color="#B5BBE8"/>
      <stop offset="0.0172" stop-color="#C4CAEF"/>
      <stop offset="0.028" stop-color="#DEE3FC"/>
      <stop offset="0.0303" stop-color="#E5E9FF"/>
      <stop offset="0.0509" stop-color="#E3E7FE"/>
      <stop offset="0.0583" stop-color="#DCE1FB"/>
      <stop offset="0.0636" stop-color="#D1D6F5"/>
      <stop offset="0.0678" stop-color="#C0C6ED"/>
      <stop offset="0.0707" stop-color="#AFB6E5"/>
      <stop offset="0.0915" stop-color="#B9BFE8"/>
      <stop offset="0.1271" stop-color="#D4D8F1"/>
      <stop offset="0.1717" stop-color="white"/>
      <stop offset="0.2338" stop-color="#F5F7FF"/>
      <stop offset="0.303" stop-color="#E5E9FF"/>
      <stop offset="0.3402" stop-color="#DBDFFA"/>
      <stop offset="0.4463" stop-color="#C3C9EE"/>
      <stop offset="0.5444" stop-color="#B4BBE7"/>
      <stop offset="0.6263" stop-color="#AFB6E5"/>
      <stop offset="0.6468" stop-color="#B1B8E6"/>
      <stop offset="0.6542" stop-color="#B8BEE9"/>
      <stop offset="0.6595" stop-color="#C3C9EF"/>
      <stop offset="0.6638" stop-color="#D4D9F7"/>
      <stop offset="0.6667" stop-color="#E5E9FF"/>
      <stop offset="0.7778" stop-color="white"/>
      <stop offset="0.8127" stop-color="#E6E9F7"/>
      <stop offset="0.8642" stop-color="#C8CDED"/>
      <stop offset="0.9083" stop-color="#B6BCE7"/>
      <stop offset="0.9394" stop-color="#AFB6E5"/>
      <stop offset="0.9554" stop-color="#B2B9E6"/>
      <stop offset="0.9659" stop-color="#BBC1EB"/>
      <stop offset="0.9748" stop-color="#C9CFF2"/>
      <stop offset="0.9829" stop-color="#DFE3FC"/>
      <stop offset="0.9848" stop-color="#E5E9FF"/>
    </linearGradient>
    <linearGradient id="paint4_linear_154_14774" x1="238.078" y1="113.227" x2="375.51" y2="42.9913" gradientUnits="userSpaceOnUse">
      <stop stop-color="#AFB6E5"/>
      <stop offset="0.1449" stop-color="#B6BCE8"/>
      <stop offset="0.3485" stop-color="#C8CDF1"/>
      <stop offset="0.5808" stop-color="#E5E9FF"/>
      <stop offset="0.9546" stop-color="#F5F4FC"/>
      <stop offset="1" stop-color="#F7F6FB"/>
    </linearGradient>
    <linearGradient id="paint5_linear_154_14774" x1="298.041" y1="132.646" x2="327.751" y2="123.731" gradientUnits="userSpaceOnUse">
      <stop stop-color="#AFB6E5"/>
      <stop offset="0.1449" stop-color="#B6BCE8"/>
      <stop offset="0.3485" stop-color="#C8CDF1"/>
      <stop offset="0.5808" stop-color="#E5E9FF"/>
      <stop offset="0.9546" stop-color="#F5F4FC"/>
      <stop offset="1" stop-color="#F7F6FB"/>
    </linearGradient>
    <linearGradient id="paint6_linear_154_14774" x1="245.439" y1="136.643" x2="324.268" y2="118.934" gradientUnits="userSpaceOnUse">
      <stop stop-color="#AFB6E5"/>
      <stop offset="0.1449" stop-color="#B6BCE8"/>
      <stop offset="0.3485" stop-color="#C8CDF1"/>
      <stop offset="0.5808" stop-color="#E5E9FF"/>
      <stop offset="0.9546" stop-color="#F5F4FC"/>
      <stop offset="1" stop-color="#F7F6FB"/>
    </linearGradient>
    <linearGradient id="paint7_linear_154_14774" x1="276.559" y1="127.667" x2="291.447" y2="127.667" gradientUnits="userSpaceOnUse">
      <stop offset="0.0505" stop-color="#5A88E8"/>
      <stop offset="0.2153" stop-color="#517ADA"/>
      <stop offset="1" stop-color="#273B98"/>
    </linearGradient>
    <linearGradient id="paint8_linear_154_14774" x1="299.087" y1="94.8004" x2="286.257" y2="119.304" gradientUnits="userSpaceOnUse">
      <stop stop-color="#AFB6E5"/>
      <stop offset="0.1449" stop-color="#B6BCE8"/>
      <stop offset="0.3485" stop-color="#C8CDF1"/>
      <stop offset="0.5808" stop-color="#E5E9FF"/>
      <stop offset="0.9546" stop-color="#F5F4FC"/>
      <stop offset="1" stop-color="#F7F6FB"/>
    </linearGradient>
    <linearGradient id="paint9_linear_154_14774" x1="286.407" y1="131.632" x2="280.464" y2="121.315" gradientUnits="userSpaceOnUse">
      <stop offset="0.0101" stop-color="#E5E9FF"/>
      <stop offset="0.1132" stop-color="#EFF2FF"/>
      <stop offset="0.2222" stop-color="white"/>
      <stop offset="0.2867" stop-color="#F5F7FF"/>
      <stop offset="0.3586" stop-color="#E5E9FF"/>
      <stop offset="0.3876" stop-color="#DBDFFA"/>
      <stop offset="0.4705" stop-color="#C3C9EE"/>
      <stop offset="0.5472" stop-color="#B4BBE7"/>
      <stop offset="0.6111" stop-color="#AFB6E5"/>
      <stop offset="0.7229" stop-color="#BAC0EA"/>
      <stop offset="0.918" stop-color="#D7DCF8"/>
      <stop offset="1" stop-color="#E5E9FF"/>
    </linearGradient>
    <linearGradient id="paint10_linear_154_14774" x1="280.344" y1="130.813" x2="285.595" y2="121.742" gradientUnits="userSpaceOnUse">
      <stop stop-color="#AFB6E5"/>
      <stop offset="0.1449" stop-color="#B6BCE8"/>
      <stop offset="0.3485" stop-color="#C8CDF1"/>
      <stop offset="0.5808" stop-color="#E5E9FF"/>
      <stop offset="0.9546" stop-color="#F5F4FC"/>
      <stop offset="1" stop-color="#F7F6FB"/>
    </linearGradient>
    <linearGradient id="paint11_linear_154_14774" x1="283.82" y1="132.148" x2="278.72" y2="123.292" gradientUnits="userSpaceOnUse">
      <stop offset="0.0101" stop-color="#E5E9FF"/>
      <stop offset="0.1132" stop-color="#EFF2FF"/>
      <stop offset="0.2222" stop-color="white"/>
      <stop offset="0.2867" stop-color="#F5F7FF"/>
      <stop offset="0.3586" stop-color="#E5E9FF"/>
      <stop offset="0.3876" stop-color="#DBDFFA"/>
      <stop offset="0.4705" stop-color="#C3C9EE"/>
      <stop offset="0.5472" stop-color="#B4BBE7"/>
      <stop offset="0.6111" stop-color="#AFB6E5"/>
      <stop offset="0.7229" stop-color="#BAC0EA"/>
      <stop offset="0.918" stop-color="#D7DCF8"/>
      <stop offset="1" stop-color="#E5E9FF"/>
    </linearGradient>
    <linearGradient id="paint12_linear_154_14774" x1="278.202" y1="131.683" x2="282.709" y2="123.898" gradientUnits="userSpaceOnUse">
      <stop stop-color="#AFB6E5"/>
      <stop offset="0.1449" stop-color="#B6BCE8"/>
      <stop offset="0.3485" stop-color="#C8CDF1"/>
      <stop offset="0.5808" stop-color="#E5E9FF"/>
      <stop offset="0.9546" stop-color="#F5F4FC"/>
      <stop offset="1" stop-color="#F7F6FB"/>
    </linearGradient>
    <radialGradient id="paint13_radial_154_14774" cx="0" cy="0" r="1" gradientUnits="userSpaceOnUse" gradientTransform="translate(281.449 127.703) scale(3.68262 3.67472)">
      <stop stop-color="white"/>
      <stop offset="1"/>
    </radialGradient>
    <linearGradient id="paint14_linear_154_14774" x1="59.4027" y1="-3871.69" x2="261.955" y2="-3871.66" gradientUnits="userSpaceOnUse">
      <stop stop-color="#5793CE" stop-opacity="0"/>
      <stop offset="0.640625" stop-color="#7B61FF"/>
      <stop offset="1" stop-color="#B5A7FF"/>
    </linearGradient>
    <linearGradient id="paint15_linear_154_14774" x1="161.084" y1="-181.424" x2="172.975" y2="-181.422" gradientUnits="userSpaceOnUse">
      <stop stop-color="#B5A7FF"/>
      <stop offset="0.484375" stop-color="#7B61FF"/>
      <stop offset="1" stop-color="#5793CE"/>
    </linearGradient>
    <linearGradient id="paint16_linear_154_14774" x1="215.505" y1="-175.628" x2="227.396" y2="-175.626" gradientUnits="userSpaceOnUse">
      <stop stop-color="#B5A7FF"/>
      <stop offset="0.484375" stop-color="#7B61FF"/>
      <stop offset="1" stop-color="#5793CE"/>
    </linearGradient>
    <linearGradient id="paint17_linear_154_14774" x1="272.003" y1="-101.864" x2="283.894" y2="-101.862" gradientUnits="userSpaceOnUse">
      <stop stop-color="#B5A7FF"/>
      <stop offset="0.484375" stop-color="#7B61FF"/>
      <stop offset="1" stop-color="#5793CE"/>
    </linearGradient>
    <linearGradient id="paint18_linear_154_14774" x1="369.83" y1="-79.1147" x2="381.722" y2="-79.1127" gradientUnits="userSpaceOnUse">
      <stop stop-color="#B5A7FF"/>
      <stop offset="0.484375" stop-color="#7B61FF"/>
      <stop offset="1" stop-color="#5793CE"/>
    </linearGradient>
    <linearGradient id="paint19_linear_154_14774" x1="148.404" y1="-2741.4" x2="256.29" y2="-2741.39" gradientUnits="userSpaceOnUse">
      <stop stop-color="#5793CE" stop-opacity="0"/>
      <stop offset="0.640625" stop-color="#7B61FF"/>
      <stop offset="1" stop-color="#B5A7FF"/>
    </linearGradient>
    <linearGradient id="paint20_linear_154_14774" x1="110.765" y1="-4204.09" x2="334.242" y2="-4204.05" gradientUnits="userSpaceOnUse">
      <stop stop-color="#5793CE" stop-opacity="0"/>
      <stop offset="0.640625" stop-color="#7B61FF"/>
      <stop offset="1" stop-color="#B5A7FF"/>
    </linearGradient>
    <linearGradient id="paint21_linear_154_14774" x1="-24.9757" y1="-4682.2" x2="182.959" y2="-4682.17" gradientUnits="userSpaceOnUse">
      <stop offset="0.359375" stop-color="#5793CE" stop-opacity="0"/>
      <stop offset="0.640625" stop-color="#7B61FF"/>
      <stop offset="1" stop-color="#B5A7FF"/>
    </linearGradient>
    <linearGradient id="paint22_linear_154_14774" x1="2.15747" y1="-3433.75" x2="141.328" y2="-3433.73" gradientUnits="userSpaceOnUse">
      <stop offset="0.489583" stop-color="#5793CE" stop-opacity="0"/>
      <stop offset="0.640625" stop-color="#7B61FF"/>
      <stop offset="1" stop-color="#B5A7FF"/>
    </linearGradient>
    <clipPath id="clip0_154_14774">
      <rect width="418" height="328" fill="white"/>
    </clipPath>
  </defs>



  <style>
  .button {
    animation: 2s linear infinite click;
  }
  
  @keyframes click {
    0% {
      fill: #2AF6FF;
    }
    50% {
      fill: #8f5be2;
    }
    100% {
      fill: #2AF6FF;
    }
  }




  .dote-blue1{
    animation: 1s linear infinite toAzure;
  }
  .dote-blue2{
    animation: 1s linear .2s infinite toAzure;
  }
  .dote-blue3{
    animation: 1s linear .4s infinite toAzure;
  }
  .dote-blue4{
    animation: 1s linear .6s infinite toAzure;
  }
  
  .dote-azure1{
    animation: 1s linear infinite toBlue;
  }
  .dote-azure2{
    animation: 1s linear .2s infinite toBlue;
  }
  .dote-azure3{
    animation: 1s linear .4s infinite toBlue;
  }
  .dote-azure4{
    animation: 1s linear .6s infinite toBlue;
  }
  @keyframes toBlue {
    0% {
      fill: #2AF6FF;
    }
    50% {
      fill: #6395FF;
    }
    100% {
      fill: #2AF6FF;
    }
  }
  @keyframes toAzure {
    0% {
      fill: #6395FF;
    }
    50% {
      fill: #2AF6FF;
    }
    100% {
      fill: #6395FF;
    }
  }

  

  </style>
</svg>
