<svg width="490" height="196" viewBox="0 0 490 196" fill="none" xmlns="http://www.w3.org/2000/svg">
<g opacity="0.76" filter="url(#filter0_d_326_5871)">
<path d="M162.946 140.504H136.97V174H100.968V140.504H15.0637V115.667L90.2582 14.4965H128.995L59.269 110.426H102.107V80.5765H136.97V110.426H162.946V140.504ZM242.345 176.734C229.129 176.734 217.357 173.468 207.027 166.936C196.697 160.404 188.57 150.986 182.646 138.681C176.873 126.225 173.987 111.414 173.987 94.2483C173.987 77.0827 176.873 62.3476 182.646 50.043C188.57 37.5866 196.697 28.0923 207.027 21.5603C217.357 15.0282 229.129 11.7622 242.345 11.7622C255.561 11.7622 267.334 15.0282 277.664 21.5603C287.994 28.0923 296.045 37.5866 301.817 50.043C307.742 62.3476 310.704 77.0827 310.704 94.2483C310.704 111.414 307.742 126.225 301.817 138.681C296.045 150.986 287.994 160.404 277.664 166.936C267.334 173.468 255.561 176.734 242.345 176.734ZM242.345 145.517C252.068 145.517 259.663 141.34 265.132 132.985C270.752 124.63 273.563 111.718 273.563 94.2483C273.563 76.7788 270.752 63.8667 265.132 55.5117C259.663 47.1568 252.068 42.9793 242.345 42.9793C232.775 42.9793 225.18 47.1568 219.559 55.5117C214.091 63.8667 211.356 76.7788 211.356 94.2483C211.356 111.718 214.091 124.63 219.559 132.985C225.18 141.34 232.775 145.517 242.345 145.517ZM474.699 140.504H448.723V174H412.72V140.504H326.816V115.667L402.011 14.4965H440.747L371.022 110.426H413.86V80.5765H448.723V110.426H474.699V140.504Z" fill="url(#paint0_linear_326_5871)"/>
</g>
<defs>
<filter id="filter0_d_326_5871" x="0.0637207" y="0.762207" width="489.635" height="194.972" filterUnits="userSpaceOnUse" color-interpolation-filters="sRGB">
<feFlood flood-opacity="0" result="BackgroundImageFix"/>
<feColorMatrix in="SourceAlpha" type="matrix" values="0 0 0 0 0 0 0 0 0 0 0 0 0 0 0 0 0 0 127 0" result="hardAlpha"/>
<feOffset dy="4"/>
<feGaussianBlur stdDeviation="7.5"/>
<feComposite in2="hardAlpha" operator="out"/>
<feColorMatrix type="matrix" values="0 0 0 0 1 0 0 0 0 1 0 0 0 0 1 0 0 0 0.19 0"/>
<feBlend mode="normal" in2="BackgroundImageFix" result="effect1_dropShadow_326_5871"/>
<feBlend mode="normal" in="SourceGraphic" in2="effect1_dropShadow_326_5871" result="shape"/>
</filter>
<linearGradient id="paint0_linear_326_5871" x1="67.562" y1="-8196.69" x2="421.175" y2="-8196.64" gradientUnits="userSpaceOnUse">
<stop stop-color="#B5A7FF"/>
<stop offset="0.484375" stop-color="#7B61FF"/>
<stop offset="1" stop-color="#5793CE"/>
</linearGradient>
</defs>
</svg>
