<svg width="582" height="677" viewBox="0 0 582 677" fill="none" xmlns="http://www.w3.org/2000/svg">
<path d="M52.0553 329.348V275.589L172.663 275.539L214.356 251.477C223.903 245.943 240.661 246.654 251.681 253L290.58 275.437L411.29 275.386V330.668C411.543 334.425 409.461 338.029 404.891 340.669L248.989 430.673C239.442 436.206 222.684 435.495 211.664 429.15L61.1454 342.242C54.7468 338.537 51.6999 333.816 52.0553 329.348Z" fill="url(#paint0_linear_618_6336)"/>
<path d="M231.672 247.771C238.68 247.923 245.942 249.7 251.68 252.999L290.579 275.437L411.289 275.386V330.668C411.543 334.424 409.461 338.029 404.891 340.668L248.989 430.672C244.368 433.312 238.121 434.53 231.672 434.378V247.771Z" fill="url(#paint1_linear_618_6336)"/>
<path d="M397.68 275.387H411.34V330.669C411.594 334.425 409.512 338.029 404.941 340.669L397.68 344.832V275.387Z" fill="#5F1EC9"/>
<path d="M246.603 431.84C238.325 435.394 226.391 435.191 216.743 431.485V368.69H246.603V431.84Z" fill="#5F1EC9"/>
<path d="M248.989 375.544L404.89 285.539C414.438 280.006 413.27 270.361 402.199 264.016L251.68 177.108C240.61 170.712 223.902 170.052 214.355 175.585L58.4535 265.589C48.9065 271.122 50.0744 280.768 61.145 287.113L211.664 374.021C222.734 380.366 239.442 381.077 248.989 375.544Z" fill="#D5D4FF"/>
<path d="M246.196 359.349L376.859 283.965C384.882 279.346 383.867 271.274 374.624 265.893L248.43 193.098C239.188 187.768 225.172 187.159 217.148 191.778L86.4852 267.162C78.4616 271.782 79.4773 279.853 88.7197 285.234L214.863 358.03C224.156 363.411 238.172 363.969 246.196 359.349Z" fill="#5F1EC9"/>
<path d="M109.388 343.562C109.388 347.573 112.231 352.446 115.685 354.477C119.138 356.507 121.982 354.832 121.982 350.822C121.982 346.811 119.138 341.938 115.685 339.907C112.181 337.928 109.388 339.552 109.388 343.562Z" fill="#D5D4FF"/>
<path d="M89.1255 331.836C89.1255 335.846 91.9693 340.719 95.4225 342.75C98.8757 344.781 101.719 343.105 101.719 339.095C101.719 335.085 98.8757 330.211 95.4225 328.181C91.9185 326.201 89.1255 327.825 89.1255 331.836Z" fill="#5F1EC9"/>
<path d="M68.8638 320.16C68.8638 324.17 71.7076 329.043 75.1608 331.074C78.6141 333.104 81.4579 331.429 81.4579 327.419C81.4579 323.408 78.6141 318.535 75.1608 316.505C71.6568 314.525 68.8638 316.149 68.8638 320.16Z" fill="#D5D4FF"/>
<path d="M52.0553 243.405V189.646L172.663 189.595L214.356 165.533C223.903 160 240.661 160.71 251.681 167.056L290.58 189.494L411.29 189.443V244.725C411.543 248.481 409.461 252.085 404.891 254.725L248.989 344.729C239.442 350.262 222.684 349.552 211.664 343.206L61.1454 256.299C54.7468 252.593 51.6999 247.872 52.0553 243.405Z" fill="url(#paint2_linear_618_6336)"/>
<path d="M231.672 161.827C238.68 161.979 245.942 163.756 251.68 167.056L290.579 189.493L411.289 189.442V244.724C411.543 248.481 409.461 252.085 404.891 254.724L248.989 344.729C244.368 347.368 238.121 348.587 231.672 348.434V161.827Z" fill="url(#paint3_linear_618_6336)"/>
<path d="M397.68 189.443H411.34V244.725C411.594 248.482 409.512 252.086 404.941 254.725L397.68 258.888V189.443Z" fill="#5F1EC9"/>
<path d="M246.603 345.896C238.325 349.45 226.391 349.247 216.743 345.541V282.747H246.603V345.896Z" fill="#5F1EC9"/>
<path d="M248.989 289.6L404.89 199.596C414.438 194.063 413.27 184.417 402.199 178.072L251.68 91.1645C240.61 84.7683 223.902 84.1083 214.355 89.6416L58.4535 179.646C48.9065 185.179 50.0744 194.824 61.145 201.17L211.664 288.077C222.734 294.473 239.442 295.133 248.989 289.6Z" fill="#D5D4FF"/>
<path d="M246.195 273.406L376.858 198.022C384.881 193.403 383.866 185.331 374.623 179.95L248.48 107.155C239.237 101.825 225.222 101.216 217.198 105.835L86.5349 181.219C78.5113 185.839 79.527 193.91 88.7694 199.291L214.913 272.086C224.155 277.467 238.171 278.076 246.195 273.406Z" fill="#5F1EC9"/>
<path d="M109.388 257.619C109.388 261.629 112.231 266.502 115.685 268.533C119.138 270.563 121.982 268.888 121.982 264.878C121.982 260.868 119.138 255.994 115.685 253.964C112.181 251.984 109.388 253.608 109.388 257.619Z" fill="#5F1EC9"/>
<path d="M89.1255 245.892C89.1255 249.902 91.9693 254.776 95.4225 256.806C98.8757 258.837 101.719 257.162 101.719 253.151C101.719 249.141 98.8757 244.268 95.4225 242.237C91.9185 240.257 89.1255 241.882 89.1255 245.892Z" fill="#5F1EC9"/>
<path d="M68.8638 234.216C68.8638 238.226 71.7076 243.1 75.1608 245.13C78.6141 247.161 81.4579 245.486 81.4579 241.475C81.4579 237.465 78.6141 232.592 75.1608 230.561C71.6568 228.581 68.8638 230.206 68.8638 234.216Z" fill="#D5D4FF"/>
<path d="M52.0553 157.462V103.703L172.663 103.652L214.356 79.5904C223.903 74.0571 240.661 74.7679 251.681 81.1133L290.58 103.551L411.29 103.5V158.782C411.543 162.538 409.461 166.143 404.891 168.782L248.989 258.787C239.442 264.32 222.684 263.609 211.664 257.264L61.1454 170.356C54.7468 166.701 51.6999 161.929 52.0553 157.462Z" fill="url(#paint4_linear_618_6336)"/>
<path d="M231.672 75.8851C238.68 76.0374 245.942 77.8141 251.68 81.1138L290.579 103.551L411.289 103.501V158.782C411.543 162.539 409.461 166.143 404.891 168.783L248.989 258.787C244.368 261.427 238.121 262.645 231.672 262.493V75.8851Z" fill="url(#paint5_linear_618_6336)"/>
<path d="M397.68 103.5H411.34V158.782C411.594 162.538 409.512 166.142 404.941 168.782L397.68 172.945V103.5Z" fill="#5F1EC9"/>
<path d="M246.603 259.954C238.325 263.507 226.391 263.304 216.743 259.598V196.803H246.603V259.954Z" fill="#5F1EC9"/>
<path d="M248.989 203.708L404.89 113.704C414.438 108.17 413.27 98.5254 402.199 92.18L251.68 5.27238C240.61 -1.12385 223.902 -1.78372 214.355 3.74953L58.4535 93.7536C48.9065 99.2869 50.0744 108.932 61.145 115.277L211.664 202.185C222.734 208.53 239.442 209.19 248.989 203.708Z" fill="#D5D4FF"/>
<path d="M61.1445 104.667L211.663 191.575C222.734 197.971 239.441 198.631 248.988 193.098L404.89 103.094C407.023 101.875 408.597 100.403 409.664 98.8803C412.964 104.16 411.441 109.896 404.89 113.703L248.988 203.707C239.441 209.241 222.683 208.53 211.663 202.184L61.1445 115.277C52.5622 110.302 49.9723 103.398 53.6795 97.9666C55.1521 100.352 57.6405 102.688 61.1445 104.667Z" fill="white"/>
<path d="M109.388 171.676C109.388 175.686 112.231 180.56 115.685 182.59C119.138 184.621 121.982 182.945 121.982 178.935C121.982 174.925 119.138 170.052 115.685 168.021C112.181 166.041 109.388 167.666 109.388 171.676Z" fill="#D5D4FF"/>
<path d="M89.1255 160C89.1255 164.011 91.9693 168.884 95.4225 170.914C98.8757 172.945 101.719 171.27 101.719 167.259C101.719 163.249 98.8757 158.376 95.4225 156.345C91.9185 154.315 89.1255 155.99 89.1255 160Z" fill="#D5D4FF"/>
<path d="M68.8638 148.273C68.8638 152.284 71.7076 157.157 75.1608 159.187C78.6141 161.218 81.4579 159.543 81.4579 155.533C81.4579 151.522 78.6141 146.649 75.1608 144.618C71.6568 142.639 68.8638 144.263 68.8638 148.273Z" fill="#5F1EC9"/>
<path d="M239.799 147.918L312.774 105.835C317.243 103.246 316.684 98.7281 311.504 95.7331L241.069 55.0714C235.889 52.0763 228.069 51.7717 223.6 54.3607L150.626 96.4438C146.157 99.0327 146.715 103.551 151.895 106.546L222.33 147.207C227.459 150.152 235.331 150.507 239.799 147.918Z" fill="#5F1EC9"/>
<path d="M232.791 112.637L242.896 106.8C243.506 106.444 243.455 105.835 242.744 105.429L232.994 99.7944C232.283 99.3883 231.216 99.3375 230.556 99.6928L220.45 105.531C219.841 105.886 219.892 106.495 220.603 106.901L230.353 112.536C231.115 112.942 232.181 112.993 232.791 112.637Z" fill="#D5D4FF"/>
<path d="M312.722 105.785L312.519 105.886C312.163 105.632 311.859 105.379 311.453 105.175L241.017 64.5137C235.838 61.5186 228.017 61.214 223.548 63.8029L150.777 105.785C146.664 102.84 146.41 98.83 150.574 96.4441L223.548 54.3609C228.017 51.772 235.838 52.0766 241.017 55.0716L311.453 95.7334C316.632 98.6777 317.242 103.196 312.722 105.785Z" fill="url(#paint6_linear_618_6336)"/>
<path d="M260.872 217.719C260.872 220.612 262.903 221.78 265.391 220.307C267.88 218.886 269.911 215.383 269.911 212.49C269.911 209.596 267.88 208.429 265.391 209.901C262.903 211.373 260.872 214.876 260.872 217.719Z" fill="#D5D4FF"/>
<path d="M274.886 209.698C274.886 212.591 276.917 213.759 279.406 212.287C281.894 210.865 283.925 207.363 283.925 204.469C283.925 201.576 281.894 200.408 279.406 201.88C276.917 203.302 274.886 206.804 274.886 209.698Z" fill="#D5D4FF"/>
<path d="M260.872 234.623C260.872 237.516 262.903 238.684 265.391 237.211C267.88 235.79 269.911 232.287 269.911 229.394C269.911 226.5 267.88 225.333 265.391 226.805C262.903 228.277 260.872 231.78 260.872 234.623Z" fill="#D5D4FF"/>
<path d="M274.886 226.602C274.886 229.496 276.917 230.664 279.406 229.191C281.894 227.77 283.925 224.267 283.925 221.374C283.925 218.48 281.894 217.313 279.406 218.785C276.917 220.206 274.886 223.709 274.886 226.602Z" fill="#5F1EC9"/>
<path d="M260.872 303.662C260.872 306.555 262.903 307.723 265.391 306.251C267.88 304.829 269.911 301.326 269.911 298.433C269.911 295.539 267.88 294.372 265.391 295.844C262.903 297.265 260.872 300.768 260.872 303.662Z" fill="#5F1EC9"/>
<path d="M274.886 295.641C274.886 298.534 276.917 299.702 279.406 298.23C281.894 296.808 283.925 293.306 283.925 290.412C283.925 287.519 281.894 286.351 279.406 287.823C276.917 289.244 274.886 292.747 274.886 295.641Z" fill="#D5D4FF"/>
<path d="M260.872 320.565C260.872 323.459 262.903 324.626 265.391 323.154C267.88 321.733 269.911 318.23 269.911 315.337C269.911 312.443 267.88 311.275 265.391 312.748C262.903 314.169 260.872 317.672 260.872 320.565Z" fill="#5F1EC9"/>
<path d="M274.886 312.545C274.886 315.439 276.917 316.606 279.406 315.134C281.894 313.713 283.925 310.21 283.925 307.317C283.925 304.423 281.894 303.255 279.406 304.728C276.917 306.149 274.886 309.652 274.886 312.545Z" fill="#D5D4FF"/>
<path d="M260.872 389.605C260.872 392.499 262.903 393.666 265.391 392.194C267.88 390.773 269.911 387.27 269.911 384.377C269.911 381.483 267.88 380.316 265.391 381.788C262.903 383.209 260.872 386.712 260.872 389.605Z" fill="#D5D4FF"/>
<path d="M274.886 381.584C274.886 384.478 276.917 385.645 279.406 384.173C281.894 382.752 283.925 379.249 283.925 376.356C283.925 373.462 281.894 372.295 279.406 373.767C276.917 375.188 274.886 378.691 274.886 381.584Z" fill="#5F1EC9"/>
<path d="M260.872 406.509C260.872 409.402 262.903 410.57 265.391 409.098C267.88 407.676 269.911 404.174 269.911 401.28C269.911 398.387 267.88 397.219 265.391 398.691C262.903 400.113 260.872 403.615 260.872 406.509Z" fill="#D5D4FF"/>
<path d="M274.886 398.489C274.886 401.382 276.917 402.55 279.406 401.078C281.894 399.656 283.925 396.154 283.925 393.26C283.925 390.367 281.894 389.199 279.406 390.671C276.917 392.093 274.886 395.595 274.886 398.489Z" fill="#D5D4FF"/>
<path opacity="0.5" d="M227.475 467.68L407.543 363.546C418.559 357.148 417.237 345.97 404.459 338.616L230.633 238.085C217.855 230.731 198.541 229.922 187.525 236.32L7.45686 340.454C-3.55873 346.852 -2.23687 358.03 10.5412 365.385L184.367 465.915C197.072 473.269 216.386 474.078 227.475 467.68Z" fill="url(#paint7_radial_618_6336)"/>
<path opacity="0.5" d="M394.475 672.68L574.543 568.546C585.559 562.148 584.237 550.97 571.459 543.616L397.633 443.085C384.855 435.731 365.541 434.922 354.525 441.32L174.457 545.454C163.441 551.852 164.763 563.03 177.541 570.385L351.367 670.915C364.072 678.269 383.386 679.078 394.475 672.68Z" fill="url(#paint8_radial_618_6336)"/>
<path d="M195.055 494.348V440.589L315.663 440.539L357.356 416.477C366.903 410.943 383.661 411.654 394.681 418L433.58 440.437L554.29 440.386V495.668C554.543 499.425 552.461 503.029 547.891 505.669L391.989 595.673C382.442 601.206 365.684 600.495 354.664 594.15L204.145 507.242C197.747 503.537 194.7 498.816 195.055 494.348Z" fill="url(#paint9_linear_618_6336)"/>
<path d="M374.672 412.771C381.68 412.923 388.942 414.7 394.68 417.999L433.579 440.437L554.289 440.386V495.668C554.543 499.424 552.461 503.029 547.891 505.668L391.989 595.672C387.368 598.312 381.121 599.53 374.672 599.378V412.771Z" fill="url(#paint10_linear_618_6336)"/>
<path d="M540.68 440.387H554.34V495.669C554.594 499.425 552.512 503.029 547.941 505.669L540.68 509.832V440.387Z" fill="#5F1EC9"/>
<path d="M389.603 596.84C381.325 600.394 369.391 600.191 359.743 596.485V533.69H389.603V596.84Z" fill="#5F1EC9"/>
<path d="M391.989 540.544L547.89 450.539C557.438 445.006 556.27 435.361 545.199 429.016L394.68 342.108C383.61 335.712 366.902 335.052 357.355 340.585L201.454 430.589C191.906 436.122 193.074 445.768 204.145 452.113L354.664 539.021C365.734 545.366 382.442 546.077 391.989 540.544Z" fill="#D5D4FF"/>
<path d="M389.196 524.349L519.859 448.965C527.882 444.346 526.867 436.274 517.624 430.893L391.43 358.098C382.188 352.768 368.172 352.159 360.148 356.778L229.485 432.162C221.462 436.782 222.477 444.853 231.72 450.234L357.863 523.03C367.156 528.411 381.172 528.969 389.196 524.349Z" fill="#5F1EC9"/>
<path d="M252.388 508.562C252.388 512.573 255.231 517.446 258.685 519.477C262.138 521.507 264.982 519.832 264.982 515.822C264.982 511.811 262.138 506.938 258.685 504.907C255.181 502.928 252.388 504.552 252.388 508.562Z" fill="#D5D4FF"/>
<path d="M232.125 496.836C232.125 500.846 234.969 505.719 238.422 507.75C241.876 509.781 244.719 508.105 244.719 504.095C244.719 500.085 241.876 495.211 238.422 493.181C234.919 491.201 232.125 492.825 232.125 496.836Z" fill="#5F1EC9"/>
<path d="M211.864 485.16C211.864 489.17 214.708 494.043 218.161 496.074C221.614 498.104 224.458 496.429 224.458 492.419C224.458 488.408 221.614 483.535 218.161 481.505C214.657 479.525 211.864 481.149 211.864 485.16Z" fill="#D5D4FF"/>
<path d="M195.055 408.405V354.646L315.663 354.595L357.356 330.533C366.903 325 383.661 325.71 394.681 332.056L433.58 354.494L554.29 354.443V409.725C554.543 413.481 552.461 417.085 547.891 419.725L391.989 509.729C382.442 515.262 365.684 514.552 354.664 508.206L204.145 421.299C197.747 417.593 194.7 412.872 195.055 408.405Z" fill="url(#paint11_linear_618_6336)"/>
<path d="M374.672 326.827C381.68 326.979 388.942 328.756 394.68 332.056L433.579 354.493L554.289 354.442V409.724C554.543 413.481 552.461 417.085 547.891 419.724L391.989 509.729C387.368 512.368 381.121 513.587 374.672 513.434V326.827Z" fill="url(#paint12_linear_618_6336)"/>
<path d="M540.68 354.443H554.34V409.725C554.594 413.482 552.512 417.086 547.941 419.725L540.68 423.888V354.443Z" fill="#5F1EC9"/>
<path d="M389.603 510.896C381.325 514.45 369.391 514.247 359.743 510.541V447.747H389.603V510.896Z" fill="#5F1EC9"/>
<path d="M391.989 454.6L547.89 364.596C557.438 359.063 556.27 349.417 545.199 343.072L394.68 256.165C383.61 249.768 366.902 249.108 357.355 254.642L201.454 344.646C191.906 350.179 193.074 359.824 204.145 366.17L354.664 453.077C365.734 459.473 382.442 460.133 391.989 454.6Z" fill="#D5D4FF"/>
<path d="M389.195 438.406L519.858 363.022C527.881 358.403 526.866 350.331 517.623 344.95L391.48 272.155C382.237 266.825 368.222 266.216 360.198 270.835L229.535 346.219C221.511 350.839 222.527 358.91 231.769 364.291L357.913 437.086C367.155 442.467 381.171 443.076 389.195 438.406Z" fill="#5F1EC9"/>
<path d="M252.388 422.619C252.388 426.629 255.231 431.502 258.685 433.533C262.138 435.563 264.982 433.888 264.982 429.878C264.982 425.868 262.138 420.994 258.685 418.964C255.181 416.984 252.388 418.608 252.388 422.619Z" fill="#5F1EC9"/>
<path d="M232.125 410.892C232.125 414.902 234.969 419.776 238.422 421.806C241.876 423.837 244.719 422.162 244.719 418.151C244.719 414.141 241.876 409.268 238.422 407.237C234.919 405.257 232.125 406.882 232.125 410.892Z" fill="#5F1EC9"/>
<path d="M211.864 399.216C211.864 403.226 214.708 408.1 218.161 410.13C221.614 412.161 224.458 410.486 224.458 406.475C224.458 402.465 221.614 397.592 218.161 395.561C214.657 393.581 211.864 395.206 211.864 399.216Z" fill="#D5D4FF"/>
<path d="M195.055 322.462V268.703L315.663 268.652L357.356 244.59C366.903 239.057 383.661 239.768 394.681 246.113L433.58 268.551L554.29 268.5V323.782C554.543 327.538 552.461 331.143 547.891 333.782L391.989 423.787C382.442 429.32 365.684 428.609 354.664 422.264L204.145 335.356C197.747 331.701 194.7 326.929 195.055 322.462Z" fill="url(#paint13_linear_618_6336)"/>
<path d="M374.672 240.885C381.68 241.037 388.942 242.814 394.68 246.114L433.579 268.551L554.289 268.501V323.782C554.543 327.539 552.461 331.143 547.891 333.783L391.989 423.787C387.368 426.427 381.121 427.645 374.672 427.493V240.885Z" fill="url(#paint14_linear_618_6336)"/>
<path d="M540.68 268.5H554.34V323.782C554.594 327.538 552.512 331.142 547.941 333.782L540.68 337.945V268.5Z" fill="#5F1EC9"/>
<path d="M389.603 424.954C381.325 428.507 369.391 428.304 359.743 424.598V361.803H389.603V424.954Z" fill="#5F1EC9"/>
<path d="M391.989 368.708L547.89 278.704C557.438 273.17 556.27 263.525 545.199 257.18L394.68 170.272C383.61 163.876 366.902 163.216 357.355 168.75L201.454 258.754C191.906 264.287 193.074 273.932 204.145 280.277L354.664 367.185C365.734 373.53 382.442 374.19 391.989 368.708Z" fill="#D5D4FF"/>
<path d="M204.144 269.667L354.663 356.575C365.734 362.971 382.441 363.631 391.988 358.098L547.89 268.094C550.023 266.875 551.597 265.403 552.664 263.88C555.964 269.16 554.441 274.896 547.89 278.703L391.988 368.707C382.441 374.241 365.683 373.53 354.663 367.184L204.144 280.277C195.562 275.302 192.972 268.398 196.679 262.967C198.152 265.352 200.64 267.688 204.144 269.667Z" fill="white"/>
<path d="M252.388 336.676C252.388 340.686 255.231 345.56 258.685 347.59C262.138 349.621 264.982 347.945 264.982 343.935C264.982 339.925 262.138 335.052 258.685 333.021C255.181 331.041 252.388 332.666 252.388 336.676Z" fill="#D5D4FF"/>
<path d="M232.125 325C232.125 329.011 234.969 333.884 238.422 335.914C241.876 337.945 244.719 336.27 244.719 332.259C244.719 328.249 241.876 323.376 238.422 321.345C234.919 319.315 232.125 320.99 232.125 325Z" fill="#D5D4FF"/>
<path d="M211.864 313.273C211.864 317.284 214.708 322.157 218.161 324.187C221.614 326.218 224.458 324.543 224.458 320.533C224.458 316.522 221.614 311.649 218.161 309.618C214.657 307.639 211.864 309.263 211.864 313.273Z" fill="#5F1EC9"/>
<path d="M382.799 312.918L455.774 270.835C460.243 268.246 459.684 263.728 454.504 260.733L384.069 220.071C378.889 217.076 371.069 216.772 366.6 219.361L293.626 261.444C289.157 264.033 289.715 268.551 294.895 271.546L365.33 312.207C370.459 315.152 378.331 315.507 382.799 312.918Z" fill="#5F1EC9"/>
<path d="M375.791 277.637L385.896 271.8C386.506 271.444 386.455 270.835 385.744 270.429L375.994 264.794C375.283 264.388 374.216 264.337 373.556 264.693L363.45 270.531C362.841 270.886 362.892 271.495 363.603 271.901L373.353 277.536C374.115 277.942 375.181 277.993 375.791 277.637Z" fill="#D5D4FF"/>
<path d="M455.722 270.785L455.519 270.886C455.163 270.632 454.859 270.379 454.453 270.175L384.017 229.514C378.838 226.519 371.017 226.214 366.548 228.803L293.777 270.785C289.664 267.84 289.41 263.83 293.574 261.444L366.548 219.361C371.017 216.772 378.838 217.077 384.017 220.072L454.453 260.733C459.632 263.678 460.242 268.196 455.722 270.785Z" fill="url(#paint15_linear_618_6336)"/>
<path d="M403.872 382.719C403.872 385.612 405.903 386.78 408.391 385.307C410.88 383.886 412.911 380.383 412.911 377.49C412.911 374.596 410.88 373.429 408.391 374.901C405.903 376.373 403.872 379.876 403.872 382.719Z" fill="#D5D4FF"/>
<path d="M417.886 374.698C417.886 377.591 419.917 378.759 422.406 377.287C424.894 375.865 426.925 372.363 426.925 369.469C426.925 366.576 424.894 365.408 422.406 366.88C419.917 368.302 417.886 371.804 417.886 374.698Z" fill="#D5D4FF"/>
<path d="M403.872 399.623C403.872 402.516 405.903 403.684 408.391 402.211C410.88 400.79 412.911 397.287 412.911 394.394C412.911 391.5 410.88 390.333 408.391 391.805C405.903 393.277 403.872 396.78 403.872 399.623Z" fill="#D5D4FF"/>
<path d="M417.886 391.602C417.886 394.496 419.917 395.664 422.406 394.191C424.894 392.77 426.925 389.267 426.925 386.374C426.925 383.48 424.894 382.313 422.406 383.785C419.917 385.206 417.886 388.709 417.886 391.602Z" fill="#5F1EC9"/>
<path d="M403.872 468.662C403.872 471.555 405.903 472.723 408.391 471.251C410.88 469.829 412.911 466.327 412.911 463.433C412.911 460.54 410.88 459.372 408.391 460.844C405.903 462.265 403.872 465.768 403.872 468.662Z" fill="#5F1EC9"/>
<path d="M417.886 460.641C417.886 463.534 419.917 464.702 422.406 463.23C424.894 461.808 426.925 458.306 426.925 455.412C426.925 452.519 424.894 451.351 422.406 452.823C419.917 454.244 417.886 457.747 417.886 460.641Z" fill="#D5D4FF"/>
<path d="M403.872 485.565C403.872 488.459 405.903 489.626 408.391 488.154C410.88 486.733 412.911 483.23 412.911 480.337C412.911 477.443 410.88 476.276 408.391 477.748C405.903 479.169 403.872 482.672 403.872 485.565Z" fill="#5F1EC9"/>
<path d="M417.886 477.545C417.886 480.439 419.917 481.606 422.406 480.134C424.894 478.713 426.925 475.21 426.925 472.317C426.925 469.423 424.894 468.255 422.406 469.728C419.917 471.149 417.886 474.652 417.886 477.545Z" fill="#D5D4FF"/>
<path d="M403.872 554.605C403.872 557.499 405.903 558.666 408.391 557.194C410.88 555.773 412.911 552.27 412.911 549.377C412.911 546.483 410.88 545.316 408.391 546.788C405.903 548.209 403.872 551.712 403.872 554.605Z" fill="#D5D4FF"/>
<path d="M417.886 546.584C417.886 549.478 419.917 550.645 422.406 549.173C424.894 547.752 426.925 544.249 426.925 541.356C426.925 538.462 424.894 537.295 422.406 538.767C419.917 540.188 417.886 543.691 417.886 546.584Z" fill="#5F1EC9"/>
<path d="M403.872 571.509C403.872 574.402 405.903 575.57 408.391 574.098C410.88 572.676 412.911 569.174 412.911 566.28C412.911 563.387 410.88 562.219 408.391 563.691C405.903 565.113 403.872 568.615 403.872 571.509Z" fill="#D5D4FF"/>
<path d="M417.886 563.489C417.886 566.382 419.917 567.55 422.406 566.078C424.894 564.656 426.925 561.154 426.925 558.26C426.925 555.367 424.894 554.199 422.406 555.671C419.917 557.093 417.886 560.595 417.886 563.489Z" fill="#D5D4FF"/>
<defs>
<linearGradient id="paint0_linear_618_6336" x1="97.3656" y1="-4185.51" x2="366.533" y2="-4185.46" gradientUnits="userSpaceOnUse">
<stop stop-color="#B5A7FF"/>
<stop offset="0.484375" stop-color="#7B61FF"/>
<stop offset="1" stop-color="#5793CE"/>
</linearGradient>
<linearGradient id="paint1_linear_618_6336" x1="254.341" y1="-4184.52" x2="388.922" y2="-4184.51" gradientUnits="userSpaceOnUse">
<stop stop-color="#B5A7FF"/>
<stop offset="0.484375" stop-color="#7B61FF"/>
<stop offset="1" stop-color="#5793CE"/>
</linearGradient>
<linearGradient id="paint2_linear_618_6336" x1="97.3656" y1="-4271.45" x2="366.533" y2="-4271.4" gradientUnits="userSpaceOnUse">
<stop stop-color="#B5A7FF"/>
<stop offset="0.484375" stop-color="#7B61FF"/>
<stop offset="1" stop-color="#5793CE"/>
</linearGradient>
<linearGradient id="paint3_linear_618_6336" x1="254.341" y1="-4270.46" x2="388.922" y2="-4270.45" gradientUnits="userSpaceOnUse">
<stop stop-color="#B5A7FF"/>
<stop offset="0.484375" stop-color="#7B61FF"/>
<stop offset="1" stop-color="#5793CE"/>
</linearGradient>
<linearGradient id="paint4_linear_618_6336" x1="97.3656" y1="-4357.4" x2="366.533" y2="-4357.34" gradientUnits="userSpaceOnUse">
<stop stop-color="#B5A7FF"/>
<stop offset="0.484375" stop-color="#7B61FF"/>
<stop offset="1" stop-color="#5793CE"/>
</linearGradient>
<linearGradient id="paint5_linear_618_6336" x1="254.341" y1="-4356.4" x2="388.922" y2="-4356.39" gradientUnits="userSpaceOnUse">
<stop stop-color="#B5A7FF"/>
<stop offset="0.484375" stop-color="#7B61FF"/>
<stop offset="1" stop-color="#5793CE"/>
</linearGradient>
<linearGradient id="paint6_linear_618_6336" x1="168.793" y1="-1212.84" x2="294.797" y2="-1212.8" gradientUnits="userSpaceOnUse">
<stop stop-color="#B5A7FF"/>
<stop offset="0.484375" stop-color="#7B61FF"/>
<stop offset="1" stop-color="#5793CE"/>
</linearGradient>
<radialGradient id="paint7_radial_618_6336" cx="0" cy="0" r="1" gradientUnits="userSpaceOnUse" gradientTransform="translate(207.5 352) rotate(90) scale(98.4516 170.239)">
<stop stop-color="#6484F7"/>
<stop offset="1" stop-color="#B2BEEA" stop-opacity="0"/>
</radialGradient>
<radialGradient id="paint8_radial_618_6336" cx="0" cy="0" r="1" gradientUnits="userSpaceOnUse" gradientTransform="translate(374.5 557) rotate(90) scale(98.4516 170.239)">
<stop stop-color="#6484F7"/>
<stop offset="1" stop-color="#B2BEEA" stop-opacity="0"/>
</radialGradient>
<linearGradient id="paint9_linear_618_6336" x1="240.366" y1="-4020.51" x2="509.533" y2="-4020.46" gradientUnits="userSpaceOnUse">
<stop stop-color="#B5A7FF"/>
<stop offset="0.484375" stop-color="#7B61FF"/>
<stop offset="1" stop-color="#5793CE"/>
</linearGradient>
<linearGradient id="paint10_linear_618_6336" x1="397.341" y1="-4019.52" x2="531.922" y2="-4019.51" gradientUnits="userSpaceOnUse">
<stop stop-color="#B5A7FF"/>
<stop offset="0.484375" stop-color="#7B61FF"/>
<stop offset="1" stop-color="#5793CE"/>
</linearGradient>
<linearGradient id="paint11_linear_618_6336" x1="240.366" y1="-4106.45" x2="509.533" y2="-4106.4" gradientUnits="userSpaceOnUse">
<stop stop-color="#B5A7FF"/>
<stop offset="0.484375" stop-color="#7B61FF"/>
<stop offset="1" stop-color="#5793CE"/>
</linearGradient>
<linearGradient id="paint12_linear_618_6336" x1="397.341" y1="-4105.46" x2="531.922" y2="-4105.45" gradientUnits="userSpaceOnUse">
<stop stop-color="#B5A7FF"/>
<stop offset="0.484375" stop-color="#7B61FF"/>
<stop offset="1" stop-color="#5793CE"/>
</linearGradient>
<linearGradient id="paint13_linear_618_6336" x1="240.366" y1="-4192.4" x2="509.533" y2="-4192.34" gradientUnits="userSpaceOnUse">
<stop stop-color="#B5A7FF"/>
<stop offset="0.484375" stop-color="#7B61FF"/>
<stop offset="1" stop-color="#5793CE"/>
</linearGradient>
<linearGradient id="paint14_linear_618_6336" x1="397.341" y1="-4191.4" x2="531.922" y2="-4191.39" gradientUnits="userSpaceOnUse">
<stop stop-color="#B5A7FF"/>
<stop offset="0.484375" stop-color="#7B61FF"/>
<stop offset="1" stop-color="#5793CE"/>
</linearGradient>
<linearGradient id="paint15_linear_618_6336" x1="311.793" y1="-1047.84" x2="437.797" y2="-1047.8" gradientUnits="userSpaceOnUse">
<stop stop-color="#B5A7FF"/>
<stop offset="0.484375" stop-color="#7B61FF"/>
<stop offset="1" stop-color="#5793CE"/>
</linearGradient>
</defs>
</svg>
