<svg width="130" height="130" viewBox="0 0 130 130" fill="none" xmlns="http://www.w3.org/2000/svg">
<path d="M114.109 103.105C113.778 103.105 113.443 103.016 113.15 102.838L107.388 99.3845L107.736 98.8032L113.498 102.257C113.871 102.482 114.338 102.482 114.711 102.265L124.088 96.7795C124.236 96.6904 124.325 96.5376 124.321 96.3637C124.317 96.1897 124.223 96.0413 124.075 95.9564L111.576 89.2657L111.894 88.6675L124.393 95.3582C124.766 95.5576 124.991 95.9267 125 96.351C125.008 96.7752 124.792 97.1528 124.431 97.365L115.055 102.851C114.762 103.02 114.436 103.105 114.109 103.105Z" fill="#C2ACD5"/>
<path opacity="0.5" d="M100.736 103.457L89.6497 97.0552C88.9709 96.6607 89.0557 95.9776 89.8406 95.5236L100.545 89.342C101.33 88.8881 102.518 88.8372 103.201 89.2317L114.287 95.6339C114.966 96.0285 114.881 96.7116 114.096 97.1655L103.392 103.347C102.607 103.801 101.415 103.848 100.736 103.457Z" fill="url(#paint0_linear_607_19927)"/>
<path d="M117.961 90.7588V85.9688L107.223 85.9646L103.511 83.822C102.658 83.3299 101.169 83.3935 100.189 83.9578L96.7266 85.9561L85.9757 85.9519V90.8776C85.9502 91.2085 86.1369 91.531 86.5484 91.7686L100.43 99.783C101.283 100.275 102.772 100.211 103.752 99.6472L117.155 91.9086C117.719 91.5776 117.995 91.1534 117.961 90.7588Z" fill="url(#paint1_linear_607_19927)"/>
<path d="M101.966 83.4912C101.342 83.5082 100.698 83.6652 100.184 83.9579L96.7222 85.9562L85.9713 85.952V90.8777C85.9458 91.2086 86.1325 91.5311 86.544 91.7687L100.426 99.7831C100.833 100.021 101.393 100.127 101.97 100.114V83.4912H101.966Z" fill="url(#paint2_linear_607_19927)"/>
<path d="M87.1889 85.9517H85.9713V90.8774C85.9458 91.2083 86.1325 91.5308 86.544 91.7684L87.1889 92.1417V85.9517Z" fill="#5793CE"/>
<path d="M100.638 99.8852C101.372 100.199 102.437 100.182 103.294 99.8555V94.2637H100.638V99.8852Z" fill="#5793CE"/>
<path d="M100.426 94.8746L86.5441 86.8602C85.6914 86.368 85.7974 85.511 86.7817 84.9425L100.184 77.2039C101.169 76.6353 102.658 76.5759 103.506 77.0681L117.388 85.0825C118.241 85.5747 118.135 86.4317 117.151 87.0002L103.748 94.7388C102.764 95.3031 101.279 95.3668 100.426 94.8746Z" fill="#D4ECFF"/>
<path d="M100.676 93.4314L89.0431 86.7152C88.3303 86.3037 88.4194 85.5825 89.2425 85.1073L100.473 78.6202C101.296 78.145 102.543 78.0941 103.26 78.5057L114.894 85.2218C115.606 85.6334 115.517 86.3546 114.694 86.8298L103.464 93.3168C102.637 93.792 101.389 93.8429 100.676 93.4314Z" fill="#5793CE"/>
<path d="M112.857 92.0227C112.857 92.3791 112.607 92.8161 112.297 92.9943C111.987 93.1725 111.737 93.0283 111.737 92.6719C111.737 92.3155 111.987 91.8785 112.297 91.7003C112.607 91.5179 112.857 91.6664 112.857 92.0227Z" fill="#D4ECFF"/>
<path d="M114.66 90.9794C114.66 91.3358 114.41 91.7728 114.1 91.951C113.79 92.1291 113.54 91.9849 113.54 91.6285C113.54 91.2721 113.79 90.8351 114.1 90.6569C114.41 90.4787 114.66 90.623 114.66 90.9794Z" fill="#D4ECFF"/>
<path d="M116.463 89.9397C116.463 90.2961 116.213 90.7331 115.903 90.9113C115.594 91.0895 115.343 90.9452 115.343 90.5889C115.343 90.2325 115.594 89.7955 115.903 89.6173C116.213 89.4349 116.463 89.5833 116.463 89.9397Z" fill="#D4ECFF"/>
<path d="M117.961 83.1055V78.3155L107.223 78.3113L103.511 76.1687C102.658 75.6766 101.169 75.7402 100.189 76.3045L96.7266 78.3028L85.9757 78.2985V83.2243C85.9502 83.5552 86.1369 83.8777 86.5484 84.1152L100.43 92.1297C101.283 92.6218 102.772 92.5582 103.752 91.9939L117.155 84.2553C117.719 83.9243 117.995 83.5001 117.961 83.1055Z" fill="url(#paint3_linear_607_19927)"/>
<path d="M101.966 75.8379C101.342 75.8549 100.698 76.0118 100.184 76.3046L96.7222 78.3029L85.9713 78.2986V83.2244C85.9458 83.5553 86.1325 83.8778 86.544 84.1154L100.426 92.1298C100.833 92.3674 101.393 92.4734 101.97 92.4607V75.8379H101.966Z" fill="url(#paint4_linear_607_19927)"/>
<path d="M87.1889 78.2983H85.9713V83.2241C85.9458 83.555 86.1325 83.8775 86.544 84.1151L87.1889 84.4884V78.2983Z" fill="#5793CE"/>
<path d="M100.638 92.2309C101.372 92.5449 102.437 92.5279 103.294 92.2012V86.6094H100.638V92.2309Z" fill="#5793CE"/>
<path d="M100.426 87.2203L86.5441 79.2059C85.6914 78.7137 85.7974 77.8567 86.7817 77.2882L100.184 69.5496C101.169 68.981 102.658 68.9216 103.506 69.4138L117.388 77.4282C118.241 77.9204 118.135 78.7774 117.151 79.3459L103.748 87.0845C102.764 87.6488 101.279 87.7125 100.426 87.2203Z" fill="#D4ECFF"/>
<path d="M100.676 85.7776L89.0431 79.0614C88.3303 78.6499 88.4194 77.9287 89.2425 77.4535L100.473 70.9664C101.296 70.4912 102.543 70.4403 103.26 70.8519L114.894 77.568C115.606 77.9796 115.517 78.7008 114.694 79.176L103.464 85.663C102.637 86.1382 101.389 86.1891 100.676 85.7776Z" fill="#5793CE"/>
<path d="M112.857 84.3694C112.857 84.7258 112.607 85.1628 112.297 85.341C111.987 85.5192 111.737 85.3749 111.737 85.0185C111.737 84.6622 111.987 84.2252 112.297 84.047C112.607 83.8645 112.857 84.013 112.857 84.3694Z" fill="#D4ECFF"/>
<path d="M114.66 83.3256C114.66 83.682 114.41 84.119 114.1 84.2971C113.791 84.4753 113.54 84.3311 113.54 83.9747C113.54 83.6183 113.791 83.1813 114.1 83.0031C114.41 82.8249 114.66 82.9692 114.66 83.3256Z" fill="#D4ECFF"/>
<path d="M116.463 82.2864C116.463 82.6428 116.213 83.0798 115.903 83.258C115.594 83.4362 115.343 83.2919 115.343 82.9355C115.343 82.5792 115.594 82.1422 115.903 81.964C116.213 81.7815 116.463 81.93 116.463 82.2864Z" fill="#D4ECFF"/>
<path d="M117.961 75.4517V70.6617L107.223 70.6575L103.511 68.5149C102.658 68.0228 101.169 68.0864 100.189 68.6507L96.7266 70.649L85.9757 70.6447V75.5705C85.9502 75.9014 86.1369 76.2238 86.5484 76.4614L100.43 84.4758C101.283 84.968 102.772 84.9043 103.752 84.3401L117.155 76.6014C117.719 76.2705 117.995 75.8462 117.961 75.4517Z" fill="url(#paint5_linear_607_19927)"/>
<path d="M101.966 68.1836C101.342 68.2006 100.698 68.3575 100.184 68.6503L96.7222 70.6486L85.9713 70.6443V75.5701C85.9458 75.901 86.1325 76.2235 86.544 76.4611L100.426 84.4755C100.833 84.7131 101.393 84.8191 101.97 84.8064V68.1836H101.966Z" fill="url(#paint6_linear_607_19927)"/>
<path d="M87.1889 70.644H85.9713V75.5698C85.9458 75.9007 86.1325 76.2231 86.544 76.4607L87.1889 76.8341V70.644Z" fill="#5793CE"/>
<path d="M100.638 84.5771C101.372 84.8911 102.437 84.8741 103.294 84.5474V78.9556H100.638V84.5771Z" fill="#5793CE"/>
<path d="M100.426 79.567L86.5441 71.5526C85.6914 71.0604 85.7974 70.2034 86.7817 69.6349L100.184 61.8962C101.169 61.3277 102.658 61.2683 103.506 61.7605L117.388 69.7749C118.241 70.267 118.135 71.1241 117.151 71.6926L103.748 79.4312C102.764 79.9955 101.279 80.0591 100.426 79.567Z" fill="#D4ECFF"/>
<path d="M117.155 70.7463L103.752 78.4849C102.768 79.0535 101.279 79.1129 100.43 78.6207L86.544 70.6106C86.3531 70.5002 86.2131 70.373 86.1198 70.233C85.827 70.7039 85.9586 71.213 86.544 71.5524L100.426 79.5668C101.279 80.059 102.768 79.9953 103.748 79.4311L117.151 71.6924C117.914 71.2512 118.148 70.636 117.813 70.1523C117.685 70.3602 117.46 70.5681 117.155 70.7463Z" fill="white"/>
<path d="M112.857 76.7154C112.857 77.0718 112.607 77.5088 112.297 77.687C111.987 77.8652 111.737 77.7209 111.737 77.3645C111.737 77.0082 111.987 76.5712 112.297 76.393C112.607 76.2105 112.857 76.3548 112.857 76.7154Z" fill="#D4ECFF"/>
<path d="M114.66 75.6718C114.66 76.0281 114.41 76.4651 114.1 76.6433C113.791 76.8215 113.54 76.6773 113.54 76.3209C113.54 75.9645 113.791 75.5275 114.1 75.3493C114.41 75.1711 114.66 75.3154 114.66 75.6718Z" fill="#D4ECFF"/>
<path d="M116.463 74.6324C116.463 74.9888 116.213 75.4258 115.903 75.604C115.594 75.7822 115.343 75.6379 115.343 75.2815C115.343 74.9251 115.594 74.4881 115.903 74.31C116.213 74.1275 116.463 74.2718 116.463 74.6324Z" fill="#D4ECFF"/>
<path d="M101.245 74.5982L94.7495 70.8476C94.3507 70.6185 94.4016 70.2155 94.8598 69.9482L101.131 66.3249C101.593 66.0576 102.289 66.0322 102.688 66.2613L109.183 70.0118C109.582 70.2409 109.531 70.644 109.073 70.9113L102.802 74.5345C102.34 74.7976 101.644 74.8273 101.245 74.5982Z" fill="url(#paint7_linear_607_19927)"/>
<path d="M101.869 71.4545L100.969 70.9369C100.914 70.9072 100.923 70.8478 100.986 70.8139L101.856 70.3132C101.92 70.2751 102.017 70.2708 102.072 70.3048L102.972 70.8224C103.027 70.8563 103.018 70.9114 102.955 70.9454L102.085 71.446C102.021 71.4842 101.924 71.4885 101.869 71.4545Z" fill="#D4ECFF"/>
<path d="M94.7495 70.8485L94.7665 70.857C94.7962 70.8358 94.8259 70.8145 94.8598 70.7933L101.131 67.1701C101.593 66.9028 102.289 66.8773 102.688 67.1064L109.166 70.8443C109.535 70.5812 109.552 70.2248 109.183 70.0084L102.688 66.2579C102.289 66.0288 101.593 66.0585 101.131 66.3215L94.8598 69.9448C94.4016 70.2163 94.3507 70.6151 94.7495 70.8485Z" fill="#396CAA"/>
<path opacity="0.5" d="M75.7678 126.423L51.8094 112.762C50.9312 112.257 51.0415 111.37 52.0555 110.789L65.8399 102.83C66.8497 102.244 68.3813 102.181 69.2595 102.69L93.2179 116.351C94.0961 116.856 93.9858 117.743 92.9718 118.324L79.1874 126.283C78.1734 126.864 76.6418 126.928 75.7678 126.423Z" fill="url(#paint8_linear_607_19927)"/>
<path d="M95.3519 111.748V55.8164L73.1161 49.9954L69.0219 47.6323C68.08 47.0892 66.4381 47.1571 65.3562 47.785L61.5336 49.9912L49.6753 49.9827L53.1882 103.979C53.1628 104.348 53.3664 104.7 53.8161 104.964L76.0053 121.705C76.9472 122.248 78.5891 122.18 79.671 121.552L94.4609 113.016C95.0846 112.651 95.3859 112.185 95.3519 111.748Z" fill="#396CAA"/>
<path d="M95.3519 111.748V55.8164L73.1161 49.9954L69.0219 47.6323C68.08 47.0892 66.4381 47.1571 65.3562 47.785L61.5336 49.9912L49.6753 49.9827L53.1882 103.979C53.1628 104.348 53.3664 104.7 53.8161 104.964L76.0053 121.705C76.9472 122.248 78.5891 122.18 79.671 121.552L94.4609 113.016C95.0846 112.651 95.3859 112.185 95.3519 111.748Z" fill="url(#paint9_linear_607_19927)"/>
<path d="M67.3163 47.2676C66.629 47.2845 65.9163 47.4585 65.352 47.7852L61.5293 49.9914L49.6711 49.9829V106.067C49.6456 106.436 49.8493 106.788 50.299 107.051L76.0011 121.705C76.4508 121.964 77.066 122.083 77.7024 122.07L77.9654 65.6341L67.3163 47.2676Z" fill="#D4ECFF"/>
<path d="M76.2388 121.82C77.0491 122.168 78.2243 122.146 79.1705 121.786V64.9678H76.2388V121.82Z" fill="#5793CE"/>
<path d="M76.0012 65.6421L50.299 50.9879C49.3572 50.4449 49.476 49.4987 50.5621 48.8708L65.352 40.3346C66.4382 39.7066 68.0801 39.6388 69.0177 40.1818L94.7198 54.836C95.6617 55.3791 95.5429 56.3252 94.4568 56.9531L79.6711 65.4894C78.5849 66.113 76.943 66.1809 76.0012 65.6421Z" fill="url(#paint10_linear_607_19927)"/>
<path d="M94.4567 55.9095L79.671 64.45C78.5849 65.0779 76.943 65.1458 76.0053 64.6027L50.3032 49.9485C50.0953 49.8255 49.9384 49.6855 49.8323 49.5327C49.5098 50.0503 49.6541 50.6146 50.3032 50.988L76.0053 65.6421C76.9472 66.1852 78.5891 66.1173 79.671 65.4894L94.461 56.9531C95.3053 56.4652 95.5598 55.7864 95.195 55.2518C95.0422 55.4852 94.8004 55.7143 94.4567 55.9095Z" fill="#FAFDFF"/>
<path d="M76.7307 59.7028L59.62 49.7834C59.1788 49.5288 59.2339 49.0876 59.7431 48.7906L66.6629 44.794C67.172 44.5013 67.9399 44.4673 68.3769 44.7219L85.4876 54.6413C85.9289 54.8958 85.8737 55.337 85.3646 55.634L78.4448 59.6306C77.9356 59.9234 77.1677 59.9531 76.7307 59.7028Z" fill="url(#paint11_linear_607_19927)"/>
<path d="M67.4905 50.2291L66.4977 49.6563C66.4383 49.6224 66.4425 49.5587 66.5147 49.5205L67.4735 48.969C67.5456 48.9266 67.6517 48.9223 67.7111 48.9605L68.7039 49.5333C68.7633 49.5672 68.759 49.6308 68.6869 49.669L67.7281 50.2206C67.6602 50.2588 67.5541 50.263 67.4905 50.2291Z" fill="#D4ECFF"/>
<path d="M70.804 52.1336L69.8112 51.5608C69.7518 51.5269 69.756 51.4633 69.8281 51.4251L70.787 50.8735C70.8591 50.8311 70.9652 50.8269 71.0246 50.865L72.0174 51.4378C72.0768 51.4717 72.0725 51.5354 72.0004 51.5736L71.0416 52.1251C70.9694 52.1633 70.8634 52.1676 70.804 52.1336Z" fill="#D4ECFF"/>
<path d="M74.1174 54.0347L73.1247 53.462C73.0653 53.428 73.0695 53.3644 73.1416 53.3262L74.1005 52.7746C74.1726 52.7322 74.2787 52.728 74.3381 52.7662L75.3308 53.3389C75.3902 53.3729 75.386 53.4365 75.3139 53.4747L74.355 54.0262C74.2829 54.0687 74.1768 54.0729 74.1174 54.0347Z" fill="#D4ECFF"/>
<path d="M77.4312 55.9402L76.4384 55.3675C76.379 55.3335 76.3832 55.2699 76.4553 55.2317L77.4142 54.6802C77.4863 54.6377 77.5924 54.6335 77.6518 54.6717L78.6446 55.2444C78.704 55.2784 78.6997 55.342 78.6276 55.3802L77.6687 55.9318C77.5966 55.9742 77.4906 55.9784 77.4312 55.9402Z" fill="#D4ECFF"/>
<path d="M59.616 49.7834L59.6372 49.7961C59.6711 49.7707 59.7008 49.7494 59.739 49.724L66.6588 45.7274C67.1679 45.4346 67.9359 45.4007 68.3729 45.6553L85.4666 55.5619C85.8739 55.2734 85.8951 54.8746 85.4878 54.6412L68.3771 44.7219C67.9359 44.4673 67.1679 44.5013 66.6631 44.794L59.7433 48.7906C59.2341 49.0833 59.179 49.5288 59.616 49.7834Z" fill="#5793CE"/>
<path d="M82.556 76.7242L92.2845 71.1535C92.8318 70.8353 93.2772 69.991 93.2772 69.2613V65.7823C93.2772 65.0526 92.8318 64.7174 92.2845 65.0313L82.556 70.602C82.0087 70.9159 81.5632 71.7645 81.5632 72.4942V75.9732C81.5675 76.7029 82.0087 77.0381 82.556 76.7242Z" fill="url(#paint12_linear_607_19927)"/>
<path d="M92.7681 64.9253C92.9208 65.0695 93.0184 65.3156 93.0184 65.6508V69.1298C93.0184 69.8595 92.5729 70.7081 92.0256 71.022L82.2971 76.5926C82.1232 76.6945 81.9577 76.7199 81.8135 76.6987C81.9959 76.8684 82.259 76.8939 82.5559 76.7242L92.2844 71.1535C92.8317 70.8396 93.2772 69.991 93.2772 69.2613V65.7823C93.2772 65.2817 93.0693 64.9762 92.7681 64.9253Z" fill="white"/>
<path d="M85.4835 72.9444L86.3744 72.4311C86.4932 72.3632 86.5908 72.1765 86.5908 72.0196V71.065C86.5908 70.9037 86.4932 70.8316 86.3744 70.8995L85.4835 71.4128C85.3647 71.4807 85.2671 71.6674 85.2671 71.8244V72.779C85.2671 72.9402 85.3647 73.0123 85.4835 72.9444Z" fill="#396CAA"/>
<path d="M88.4661 71.2216L89.3571 70.7083C89.4759 70.6404 89.5735 70.4537 89.5735 70.2967V69.3379C89.5735 69.1767 89.4759 69.1046 89.3571 69.1724L88.4661 69.6858C88.3473 69.7537 88.2498 69.9404 88.2498 70.0973V71.0519C88.254 71.2174 88.3473 71.2895 88.4661 71.2216Z" fill="white"/>
<path d="M82.556 101.867L92.2845 96.2961C92.8318 95.9779 93.2772 95.1336 93.2772 94.4039V90.9249C93.2772 90.1951 92.8318 89.86 92.2845 90.1739L82.556 95.7446C82.0087 96.0628 81.5632 96.907 81.5632 97.6368V101.116C81.5675 101.846 82.0087 102.181 82.556 101.867Z" fill="url(#paint13_linear_607_19927)"/>
<path d="M92.7681 90.0684C92.9208 90.2126 93.0184 90.4587 93.0184 90.7939V94.2729C93.0184 95.0026 92.5729 95.8511 92.0256 96.1651L82.2971 101.736C82.1232 101.838 81.9577 101.863 81.8135 101.842C81.9959 102.011 82.259 102.037 82.5559 101.867L92.2844 96.2966C92.8317 95.9826 93.2772 95.1341 93.2772 94.4044V90.9254C93.2772 90.4247 93.0693 90.1193 92.7681 90.0684Z" fill="white"/>
<path d="M85.4835 98.0873L86.3744 97.5739C86.4932 97.506 86.5908 97.3193 86.5908 97.1624V96.2078C86.5908 96.0465 86.4932 95.9744 86.3744 96.0465L85.4835 96.5599C85.3647 96.6278 85.2671 96.8145 85.2671 96.9714V97.9261C85.2671 98.083 85.3647 98.1552 85.4835 98.0873Z" fill="#396CAA"/>
<path d="M88.4661 96.3646L89.3571 95.8512C89.4759 95.7834 89.5735 95.5967 89.5735 95.4397V94.4851C89.5735 94.3239 89.4759 94.2517 89.3571 94.3239L88.4661 94.8372C88.3473 94.9051 88.2498 95.0918 88.2498 95.2488V96.2034C88.254 96.3604 88.3473 96.4325 88.4661 96.3646Z" fill="#396CAA"/>
<path d="M82.556 114.438L92.2845 108.867C92.8318 108.549 93.2772 107.704 93.2772 106.975V103.496C93.2772 102.766 92.8318 102.431 92.2845 102.745L82.556 108.315C82.0087 108.629 81.5632 109.478 81.5632 110.208V113.687C81.5675 114.416 82.0087 114.751 82.556 114.438Z" fill="url(#paint14_linear_607_19927)"/>
<path d="M92.7681 102.639C92.9208 102.783 93.0184 103.029 93.0184 103.364V106.843C93.0184 107.573 92.5729 108.421 92.0256 108.735L82.2971 114.306C82.1232 114.408 81.9577 114.433 81.8135 114.412C81.9959 114.582 82.259 114.607 82.5559 114.438L92.2844 108.867C92.8317 108.553 93.2772 107.704 93.2772 106.975V103.496C93.2772 102.995 93.0693 102.69 92.7681 102.639Z" fill="white"/>
<path d="M85.4835 110.658L86.3744 110.145C86.4932 110.077 86.5908 109.89 86.5908 109.733V108.779C86.5908 108.617 86.4932 108.545 86.3744 108.617L85.4835 109.131C85.3647 109.199 85.2671 109.385 85.2671 109.542V110.493C85.2671 110.654 85.3647 110.726 85.4835 110.658Z" fill="white"/>
<path d="M88.4661 108.935L89.3571 108.422C89.4759 108.354 89.5735 108.167 89.5735 108.01V107.056C89.5735 106.895 89.4759 106.823 89.3571 106.895L88.4661 107.408C88.3473 107.476 88.2498 107.663 88.2498 107.82V108.774C88.254 108.931 88.3473 109.003 88.4661 108.935Z" fill="#396CAA"/>
<path d="M82.556 89.2954L92.2845 83.7248C92.8318 83.4066 93.2772 82.5623 93.2772 81.8326V78.3536C93.2772 77.6238 92.8318 77.2887 92.2845 77.6026L82.556 83.169C82.0087 83.483 81.5632 84.3315 81.5632 85.0613V88.5402C81.5675 89.2742 82.0087 89.6094 82.556 89.2954Z" fill="url(#paint15_linear_607_19927)"/>
<path d="M92.7681 77.4961C92.9208 77.6403 93.0184 77.8864 93.0184 78.2216V81.7006C93.0184 82.4303 92.5729 83.2789 92.0256 83.5928L82.2971 89.1635C82.1232 89.2653 81.9577 89.2907 81.8135 89.2695C81.9959 89.4392 82.259 89.4647 82.5559 89.295L92.2844 83.7243C92.8317 83.4104 93.2772 82.5618 93.2772 81.8321V78.3531C93.2772 77.8525 93.0693 77.547 92.7681 77.4961Z" fill="white"/>
<path d="M85.4835 85.5145L86.3744 85.0011C86.4932 84.9333 86.5908 84.7466 86.5908 84.5896V83.635C86.5908 83.4738 86.4932 83.4017 86.3744 83.4738L85.4835 83.9871C85.3647 84.055 85.2671 84.2417 85.2671 84.3987V85.3533C85.2671 85.5103 85.3647 85.5824 85.4835 85.5145Z" fill="white"/>
<path d="M88.4661 83.7921L89.3571 83.2787C89.4759 83.2108 89.5735 83.0242 89.5735 82.8672V81.9126C89.5735 81.7514 89.4759 81.6793 89.3571 81.7471L88.4661 82.2605C88.3473 82.3284 88.2498 82.5151 88.2498 82.672V83.6266C88.254 83.7878 88.3473 83.86 88.4661 83.7921Z" fill="white"/>
<path d="M74.1301 73.161L51.6821 60.1996C51.1815 59.9111 50.7742 59.1304 50.7742 58.4601V54.1792C50.7742 53.5089 51.1815 53.2034 51.6821 53.4919L74.1301 66.4533C74.6307 66.7418 75.038 67.5224 75.038 68.1928V72.4736C75.0423 73.144 74.635 73.4495 74.1301 73.161Z" fill="url(#paint16_linear_607_19927)"/>
<path opacity="0.4" d="M73.4852 71.6594L52.327 59.4447C52.0724 59.2963 51.8645 58.9017 51.8645 58.5623V55.3463C51.8645 55.0069 52.0724 54.8499 52.327 54.9984L73.4852 67.2131C73.7397 67.3616 73.9476 67.7562 73.9476 68.0956V71.3115C73.9476 71.6509 73.7397 71.8079 73.4852 71.6594Z" fill="#D4ECFF"/>
<path d="M56.7393 60.3652L53.5828 58.5409C53.3367 58.3966 53.1331 58.0148 53.1331 57.6838C53.1331 57.3529 53.3325 57.2002 53.5828 57.3444L56.7393 59.1688C56.9854 59.313 57.1891 59.6949 57.1891 60.0258C57.1848 60.3567 56.9854 60.5052 56.7393 60.3652Z" fill="#D4ECFF"/>
<path d="M59.4292 61.3196C59.4292 61.6506 59.1959 61.7821 58.9116 61.6166C58.6274 61.4512 58.394 61.0524 58.394 60.7214C58.394 60.3905 58.6274 60.259 58.9116 60.4244C59.1959 60.5899 59.4292 60.9887 59.4292 61.3196Z" fill="#211053"/>
<path d="M61.2535 62.3724C61.2535 62.7033 61.0201 62.8348 60.7359 62.6694C60.4516 62.5039 60.2183 62.1051 60.2183 61.7742C60.2183 61.4432 60.4516 61.3117 60.7359 61.4772C61.0201 61.6426 61.2535 62.0457 61.2535 62.3724Z" fill="#211053"/>
<path d="M63.0779 63.428C63.0779 63.759 62.8446 63.8905 62.5603 63.725C62.2761 63.5596 62.0427 63.1608 62.0427 62.8298C62.0427 62.4989 62.2761 62.3674 62.5603 62.5328C62.8488 62.6983 63.0779 63.0971 63.0779 63.428Z" fill="#D4ECFF"/>
<path d="M64.9066 64.4808C64.9066 64.8117 64.6732 64.9432 64.3889 64.7778C64.1047 64.6123 63.8713 64.2135 63.8713 63.8826C63.8713 63.5516 64.1047 63.4201 64.3889 63.5856C64.6732 63.751 64.9066 64.1541 64.9066 64.4808Z" fill="#211053"/>
<path d="M72.5941 69.869L71.5292 69.2538C71.3722 69.1605 71.2407 68.9144 71.2407 68.7023V67.578C71.2407 67.3658 71.368 67.2683 71.5292 67.3616L72.5941 67.9768C72.7511 68.0701 72.8826 68.3162 72.8826 68.5283V69.6526C72.8826 69.8648 72.7554 69.9624 72.5941 69.869Z" fill="#211053"/>
<path d="M74.1301 80.7078L51.6821 67.7465C51.1815 67.458 50.7742 66.6773 50.7742 66.007V61.7261C50.7742 61.0558 51.1815 60.7503 51.6821 61.0388L74.1301 74.0002C74.6307 74.2887 75.038 75.0693 75.038 75.7397V80.0205C75.0423 80.6909 74.635 80.9963 74.1301 80.7078Z" fill="url(#paint17_linear_607_19927)"/>
<path opacity="0.4" d="M73.4852 79.2063L52.327 66.9916C52.0724 66.8431 51.8645 66.4486 51.8645 66.1091V62.8932C51.8645 62.5538 52.0724 62.3968 52.327 62.5453L73.4852 74.76C73.7397 74.9085 73.9476 75.303 73.9476 75.6424V78.8584C73.9476 79.1978 73.7397 79.3548 73.4852 79.2063Z" fill="#D4ECFF"/>
<path d="M56.7393 67.9121L53.5828 66.0877C53.3367 65.9435 53.1331 65.5616 53.1331 65.2307C53.1331 64.8998 53.3325 64.7471 53.5828 64.8913L56.7393 66.7157C56.9854 66.8599 57.1891 67.2417 57.1891 67.5727C57.1848 67.9036 56.9854 68.0521 56.7393 67.9121Z" fill="#D4ECFF"/>
<path d="M59.4292 68.867C59.4292 69.1979 59.1959 69.3295 58.9116 69.164C58.6274 68.9985 58.394 68.5997 58.394 68.2688C58.394 67.9379 58.6274 67.8063 58.9116 67.9718C59.1959 68.1373 59.4292 68.5361 59.4292 68.867Z" fill="white"/>
<path d="M61.2535 69.9193C61.2535 70.2502 61.0201 70.3817 60.7359 70.2163C60.4516 70.0508 60.2183 69.652 60.2183 69.321C60.2183 68.9901 60.4516 68.8586 60.7359 69.024C61.0201 69.1895 61.2535 69.5926 61.2535 69.9193Z" fill="#211053"/>
<path d="M63.0779 70.9754C63.0779 71.3063 62.8446 71.4379 62.5603 71.2724C62.2761 71.1069 62.0427 70.7081 62.0427 70.3772C62.0427 70.0463 62.2761 69.9147 62.5603 70.0802C62.8488 70.2457 63.0779 70.6445 63.0779 70.9754Z" fill="#D4ECFF"/>
<path d="M64.9066 72.0277C64.9066 72.3586 64.6732 72.4901 64.3889 72.3246C64.1047 72.1592 63.8713 71.7604 63.8713 71.4294C63.8713 71.0985 64.1047 70.967 64.3889 71.1324C64.6732 71.2979 64.9066 71.701 64.9066 72.0277Z" fill="#211053"/>
<path d="M72.5941 77.4164L71.5292 76.8012C71.3722 76.7079 71.2407 76.4618 71.2407 76.2496V75.1253C71.2407 74.9132 71.368 74.8156 71.5292 74.909L72.5941 75.5242C72.7511 75.6175 72.8826 75.8636 72.8826 76.0757V77.2C72.8826 77.4121 72.7554 77.5097 72.5941 77.4164Z" fill="#211053"/>
<path d="M74.1301 88.2557L51.6821 75.2943C51.1815 75.0058 50.7742 74.2252 50.7742 73.5548V69.274C50.7742 68.6036 51.1815 68.2982 51.6821 68.5867L74.1301 81.548C74.6307 81.8365 75.038 82.6172 75.038 83.2875V87.5684C75.0423 88.2387 74.635 88.5442 74.1301 88.2557Z" fill="url(#paint18_linear_607_19927)"/>
<path opacity="0.4" d="M73.4852 86.7541L52.327 74.5395C52.0724 74.391 51.8645 73.9964 51.8645 73.657V70.4411C51.8645 70.1016 52.0724 69.9447 52.327 70.0932L73.4852 82.3078C73.7397 82.4563 73.9476 82.8509 73.9476 83.1903V86.4062C73.9476 86.7456 73.7397 86.9026 73.4852 86.7541Z" fill="#D4ECFF"/>
<path d="M56.7393 75.46L53.5828 73.6356C53.3367 73.4913 53.1331 73.1095 53.1331 72.7786C53.1331 72.4476 53.3325 72.2949 53.5828 72.4392L56.7393 74.2635C56.9854 74.4078 57.1891 74.7896 57.1891 75.1205C57.1848 75.4515 56.9854 75.6 56.7393 75.46Z" fill="#D4ECFF"/>
<path d="M59.4292 76.4144C59.4292 76.7453 59.1959 76.8768 58.9116 76.7114C58.6274 76.5459 58.394 76.1471 58.394 75.8162C58.394 75.4852 58.6274 75.3537 58.9116 75.5192C59.1959 75.6846 59.4292 76.0834 59.4292 76.4144Z" fill="white"/>
<path d="M61.2535 77.4671C61.2535 77.798 61.0201 77.9296 60.7359 77.7641C60.4516 77.5986 60.2183 77.1998 60.2183 76.8689C60.2183 76.538 60.4516 76.4064 60.7359 76.5719C61.0201 76.7374 61.2535 77.1404 61.2535 77.4671Z" fill="#211053"/>
<path d="M63.0779 78.5233C63.0779 78.8542 62.8446 78.9857 62.5603 78.8202C62.2761 78.6548 62.0427 78.256 62.0427 77.925C62.0427 77.5941 62.2761 77.4626 62.5603 77.628C62.8488 77.7935 63.0779 78.1923 63.0779 78.5233Z" fill="#D4ECFF"/>
<path d="M64.9066 79.5755C64.9066 79.9064 64.6732 80.0379 64.3889 79.8725C64.1047 79.707 63.8713 79.3082 63.8713 78.9773C63.8713 78.6464 64.1047 78.5148 64.3889 78.6803C64.6732 78.8458 64.9066 79.2488 64.9066 79.5755Z" fill="#211053"/>
<path d="M72.5941 84.9642L71.5292 84.3491C71.3722 84.2557 71.2407 84.0096 71.2407 83.7975V82.6732C71.2407 82.4611 71.368 82.3635 71.5292 82.4568L72.5941 83.072C72.7511 83.1653 72.8826 83.4114 72.8826 83.6236V84.7479C72.8826 84.96 72.7554 85.0576 72.5941 84.9642Z" fill="#211053"/>
<path d="M74.1301 95.8035L51.6821 82.8422C51.1815 82.5537 50.7742 81.773 50.7742 81.1027V76.8218C50.7742 76.1515 51.1815 75.846 51.6821 76.1345L74.1301 89.0959C74.6307 89.3844 75.038 90.165 75.038 90.8354V95.1162C75.0423 95.7866 74.635 96.092 74.1301 95.8035Z" fill="url(#paint19_linear_607_19927)"/>
<path opacity="0.4" d="M73.4852 94.302L52.327 82.0873C52.0724 81.9388 51.8645 81.5443 51.8645 81.2049V77.9889C51.8645 77.6495 52.0724 77.4925 52.327 77.641L73.4852 89.8557C73.7397 90.0042 73.9476 90.3987 73.9476 90.7381V93.9541C73.9476 94.2935 73.7397 94.4505 73.4852 94.302Z" fill="#D4ECFF"/>
<path d="M56.7393 83.0078L53.5828 81.1834C53.3367 81.0392 53.1331 80.6573 53.1331 80.3264C53.1331 79.9955 53.3325 79.8428 53.5828 79.987L56.7393 81.8114C56.9854 81.9556 57.1891 82.3374 57.1891 82.6684C57.1848 82.9993 56.9854 83.1478 56.7393 83.0078Z" fill="#D4ECFF"/>
<path d="M59.4292 83.9617C59.4292 84.2927 59.1959 84.4242 58.9116 84.2587C58.6274 84.0933 58.394 83.6944 58.394 83.3635C58.394 83.0326 58.6274 82.9011 58.9116 83.0665C59.1959 83.232 59.4292 83.6308 59.4292 83.9617Z" fill="#211053"/>
<path d="M61.2535 85.0149C61.2535 85.3459 61.0201 85.4774 60.7359 85.3119C60.4516 85.1465 60.2183 84.7477 60.2183 84.4167C60.2183 84.0858 60.4516 83.9543 60.7359 84.1197C61.0201 84.2852 61.2535 84.6883 61.2535 85.0149Z" fill="#211053"/>
<path d="M63.0779 86.0706C63.0779 86.4016 62.8446 86.5331 62.5603 86.3676C62.2761 86.2022 62.0427 85.8033 62.0427 85.4724C62.0427 85.1415 62.2761 85.0099 62.5603 85.1754C62.8488 85.3409 63.0779 85.7397 63.0779 86.0706Z" fill="#D4ECFF"/>
<path d="M64.9066 87.1234C64.9066 87.4543 64.6732 87.5858 64.3889 87.4204C64.1047 87.2549 63.8713 86.8561 63.8713 86.5251C63.8713 86.1942 64.1047 86.0627 64.3889 86.2281C64.6732 86.3936 64.9066 86.7967 64.9066 87.1234Z" fill="#211053"/>
<path d="M72.5941 92.5116L71.5292 91.8964C71.3722 91.8031 71.2407 91.557 71.2407 91.3449V90.2206C71.2407 90.0084 71.368 89.9108 71.5292 90.0042L72.5941 90.6194C72.7511 90.7127 72.8826 90.9588 72.8826 91.1709V92.2952C72.8826 92.5074 72.7554 92.6049 72.5941 92.5116Z" fill="#D4ECFF"/>
<path d="M74.1301 103.351L51.6821 90.39C51.1815 90.1015 50.7742 89.3209 50.7742 88.6505V84.3697C50.7742 83.6993 51.1815 83.3939 51.6821 83.6824L74.1301 96.6437C74.6307 96.9322 75.038 97.7129 75.038 98.3832V102.664C75.0423 103.334 74.635 103.64 74.1301 103.351Z" fill="url(#paint20_linear_607_19927)"/>
<path opacity="0.4" d="M73.4852 101.849L52.327 89.6347C52.0724 89.4862 51.8645 89.0916 51.8645 88.7522V85.5363C51.8645 85.1969 52.0724 85.0399 52.327 85.1884L73.4852 97.403C73.7397 97.5515 73.9476 97.9461 73.9476 98.2855V101.501C73.9476 101.841 73.7397 101.998 73.4852 101.849Z" fill="#D4ECFF"/>
<path d="M56.7393 90.5547L53.5828 88.7303C53.3367 88.5861 53.1331 88.2042 53.1331 87.8733C53.1331 87.5424 53.3325 87.3896 53.5828 87.5339L56.7393 89.3582C56.9854 89.5025 57.1891 89.8843 57.1891 90.2152C57.1848 90.5462 56.9854 90.6947 56.7393 90.5547Z" fill="#D4ECFF"/>
<path d="M59.4292 91.5096C59.4292 91.8405 59.1959 91.972 58.9116 91.8066C58.6274 91.6411 58.394 91.2423 58.394 90.9114C58.394 90.5804 58.6274 90.4489 58.9116 90.6144C59.1959 90.7798 59.4292 91.1786 59.4292 91.5096Z" fill="#211053"/>
<path d="M61.2535 92.5618C61.2535 92.8927 61.0201 93.0243 60.7359 92.8588C60.4516 92.6933 60.2183 92.2945 60.2183 91.9636C60.2183 91.6327 60.4516 91.5012 60.7359 91.6666C61.0201 91.8321 61.2535 92.2351 61.2535 92.5618Z" fill="white"/>
<path d="M63.0779 93.6185C63.0779 93.9494 62.8446 94.0809 62.5603 93.9154C62.2761 93.75 62.0427 93.3512 62.0427 93.0202C62.0427 92.6893 62.2761 92.5578 62.5603 92.7233C62.8488 92.8887 63.0779 93.2875 63.0779 93.6185Z" fill="#D4ECFF"/>
<path d="M64.9066 94.6707C64.9066 95.0016 64.6732 95.1332 64.3889 94.9677C64.1047 94.8022 63.8713 94.4034 63.8713 94.0725C63.8713 93.7416 64.1047 93.61 64.3889 93.7755C64.6732 93.941 64.9066 94.344 64.9066 94.6707Z" fill="white"/>
<path d="M72.5941 100.059L71.5292 99.4443C71.3722 99.3509 71.2407 99.1049 71.2407 98.8927V97.7684C71.2407 97.5563 71.368 97.4587 71.5292 97.552L72.5941 98.1672C72.7511 98.2606 72.8826 98.5066 72.8826 98.7188V99.8431C72.8826 100.055 72.7554 100.153 72.5941 100.059Z" fill="#D4ECFF"/>
<path d="M74.1301 110.899L51.6821 97.9379C51.1815 97.6494 50.7742 96.8687 50.7742 96.1984V91.9175C50.7742 91.2472 51.1815 90.9417 51.6821 91.2302L74.1301 104.192C74.6307 104.48 75.038 105.261 75.038 105.931V110.212C75.0423 110.882 74.635 111.188 74.1301 110.899Z" fill="url(#paint21_linear_607_19927)"/>
<path opacity="0.4" d="M73.4852 109.398L52.327 97.183C52.0724 97.0346 51.8645 96.64 51.8645 96.3006V93.0846C51.8645 92.7452 52.0724 92.5882 52.327 92.7367L73.4852 104.951C73.7397 105.1 73.9476 105.494 73.9476 105.834V109.05C73.9476 109.389 73.7397 109.546 73.4852 109.398Z" fill="#D4ECFF"/>
<path d="M56.7393 98.103L53.5828 96.2787C53.3367 96.1344 53.1331 95.7526 53.1331 95.4216C53.1331 95.0907 53.3325 94.938 53.5828 95.0822L56.7393 96.9066C56.9854 97.0508 57.1891 97.4327 57.1891 97.7636C57.1848 98.0945 56.9854 98.243 56.7393 98.103Z" fill="#D4ECFF"/>
<path d="M59.4292 99.0579C59.4292 99.3889 59.1959 99.5204 58.9116 99.3549C58.6274 99.1895 58.394 98.7906 58.394 98.4597C58.394 98.1288 58.6274 97.9973 58.9116 98.1627C59.1959 98.3282 59.4292 98.727 59.4292 99.0579Z" fill="#211053"/>
<path d="M61.2535 100.11C61.2535 100.441 61.0201 100.573 60.7359 100.407C60.4516 100.242 60.2183 99.8429 60.2183 99.5119C60.2183 99.181 60.4516 99.0495 60.7359 99.215C61.0201 99.3804 61.2535 99.7835 61.2535 100.11Z" fill="#211053"/>
<path d="M63.0779 101.167C63.0779 101.498 62.8446 101.629 62.5603 101.464C62.2761 101.298 62.0427 100.9 62.0427 100.569C62.0427 100.238 62.2761 100.106 62.5603 100.272C62.8488 100.437 63.0779 100.836 63.0779 101.167Z" fill="#D4ECFF"/>
<path d="M64.9066 102.219C64.9066 102.55 64.6732 102.681 64.3889 102.516C64.1047 102.35 63.8713 101.951 63.8713 101.62C63.8713 101.289 64.1047 101.158 64.3889 101.323C64.6732 101.489 64.9066 101.892 64.9066 102.219Z" fill="#211053"/>
<path d="M72.5941 107.608L71.5292 106.993C71.3722 106.899 71.2407 106.653 71.2407 106.441V105.317C71.2407 105.105 71.368 105.007 71.5292 105.1L72.5941 105.716C72.7511 105.809 72.8826 106.055 72.8826 106.267V107.391C72.8826 107.604 72.7554 107.701 72.5941 107.608Z" fill="#211053"/>
<path d="M74.1301 118.447L51.6821 105.485C51.1815 105.197 50.7742 104.416 50.7742 103.746V99.4649C50.7742 98.7945 51.1815 98.4891 51.6821 98.7776L74.1301 111.739C74.6307 112.027 75.038 112.808 75.038 113.478V117.759C75.0423 118.43 74.635 118.735 74.1301 118.447Z" fill="url(#paint22_linear_607_19927)"/>
<path opacity="0.4" d="M73.4852 116.945L52.327 104.73C52.0724 104.582 51.8645 104.187 51.8645 103.848V100.632C51.8645 100.293 52.0724 100.136 52.327 100.284L73.4852 112.499C73.7397 112.647 73.9476 113.042 73.9476 113.381V116.597C73.9476 116.937 73.7397 117.094 73.4852 116.945Z" fill="#D4ECFF"/>
<path d="M56.7393 105.65L53.5828 103.826C53.3367 103.682 53.1331 103.3 53.1331 102.969C53.1331 102.638 53.3325 102.485 53.5828 102.63L56.7393 104.454C56.9854 104.598 57.1891 104.98 57.1891 105.311C57.1848 105.642 56.9854 105.79 56.7393 105.65Z" fill="#D4ECFF"/>
<path d="M59.4292 106.605C59.4292 106.936 59.1959 107.068 58.9116 106.902C58.6274 106.737 58.394 106.338 58.394 106.007C58.394 105.676 58.6274 105.545 58.9116 105.71C59.1959 105.876 59.4292 106.274 59.4292 106.605Z" fill="white"/>
<path d="M61.2535 107.658C61.2535 107.988 61.0201 108.12 60.7359 107.955C60.4516 107.789 60.2183 107.39 60.2183 107.059C60.2183 106.728 60.4516 106.597 60.7359 106.762C61.0201 106.928 61.2535 107.331 61.2535 107.658Z" fill="#211053"/>
<path d="M63.0779 108.714C63.0779 109.045 62.8446 109.176 62.5603 109.011C62.2761 108.845 62.0427 108.446 62.0427 108.115C62.0427 107.785 62.2761 107.653 62.5603 107.818C62.8488 107.98 63.0779 108.383 63.0779 108.714Z" fill="#D4ECFF"/>
<path d="M64.9066 109.765C64.9066 110.096 64.6732 110.228 64.3889 110.062C64.1047 109.897 63.8713 109.498 63.8713 109.167C63.8713 108.836 64.1047 108.705 64.3889 108.87C64.6732 109.036 64.9066 109.439 64.9066 109.765Z" fill="#211053"/>
<path d="M72.5941 115.155L71.5292 114.539C71.3722 114.446 71.2407 114.2 71.2407 113.988V112.864C71.2407 112.651 71.368 112.554 71.5292 112.647L72.5941 113.262C72.7511 113.356 72.8826 113.602 72.8826 113.814V114.938C72.8826 115.15 72.7554 115.248 72.5941 115.155Z" fill="#D4ECFF"/>
<path d="M67.6006 49.6944C67.414 49.6944 67.2612 49.5417 67.2612 49.355V35.4051C67.2612 35.2184 67.414 35.0657 67.6006 35.0657C67.7873 35.0657 67.9401 35.2184 67.9401 35.4051V49.3592C67.9401 49.5459 67.7873 49.6944 67.6006 49.6944Z" fill="#5793CE"/>
<path d="M68.8132 34.5271H66.3906V39.7583H68.8132V34.5271Z" fill="#5793CE"/>
<path d="M68.4576 40.2505C67.9825 40.5221 67.2188 40.5221 66.7436 40.2505C66.2684 39.979 66.2684 39.5335 66.7436 39.262C67.2188 38.9905 67.9825 38.9905 68.4576 39.262C68.9328 39.5378 68.9328 39.979 68.4576 40.2505Z" fill="#5793CE"/>
<path d="M69.5649 27.2332H65.6362V35.4385H69.5649V27.2332Z" fill="#5793CE"/>
<path d="M66.3914 35.3878V37.157C67.1041 37.4837 68.1054 37.4837 68.8139 37.157V35.3878C68.1012 35.0612 67.0999 35.0612 66.3914 35.3878Z" fill="#396CAA"/>
<path d="M68.9921 36.2408C68.2242 36.6821 66.9811 36.6821 66.2131 36.2408C65.4452 35.7996 65.4452 35.0783 66.2131 34.6371C66.9811 34.1958 68.2242 34.1958 68.9921 34.6371C69.7558 35.0826 69.7558 35.7996 68.9921 36.2408Z" fill="#5793CE"/>
<path d="M70.9141 51.6752C70.7274 51.6752 70.5747 51.5225 70.5747 51.3358V37.3817C70.5747 37.195 70.7274 37.0422 70.9141 37.0422C71.1008 37.0422 71.2535 37.195 71.2535 37.3817V51.3358C71.2535 51.5225 71.1008 51.6752 70.9141 51.6752Z" fill="#5793CE"/>
<path d="M72.1233 36.5034H69.7007V41.7346H72.1233V36.5034Z" fill="#5793CE"/>
<path d="M71.7711 42.2315C71.2959 42.503 70.5322 42.503 70.0571 42.2315C69.5819 41.96 69.5819 41.5145 70.0571 41.243C70.5322 40.9714 71.2959 40.9714 71.7711 41.243C72.2463 41.5145 72.2463 41.9557 71.7711 42.2315Z" fill="#5793CE"/>
<path d="M72.8777 29.2146H68.949V37.4199H72.8777V29.2146Z" fill="#5793CE"/>
<path d="M69.7007 37.3651V39.1343C70.4135 39.461 71.4147 39.461 72.1233 39.1343V37.3651C71.4147 37.0384 70.4135 37.0384 69.7007 37.3651Z" fill="#396CAA"/>
<path d="M72.3014 38.2179C71.5335 38.6591 70.2904 38.6591 69.5225 38.2179C68.7546 37.7766 68.7546 37.0554 69.5225 36.6141C70.2904 36.1729 71.5335 36.1729 72.3014 36.6141C73.0694 37.0596 73.0694 37.7766 72.3014 38.2179Z" fill="#5793CE"/>
<path d="M74.2278 53.6518C74.0412 53.6518 73.8884 53.499 73.8884 53.3124V39.3582C73.8884 39.1715 74.0412 39.0188 74.2278 39.0188C74.4145 39.0188 74.5672 39.1715 74.5672 39.3582V53.3124C74.5672 53.499 74.4145 53.6518 74.2278 53.6518Z" fill="#5793CE"/>
<path d="M75.437 38.48H73.0144V43.7112H75.437V38.48Z" fill="#5793CE"/>
<path d="M75.0848 44.2076C74.6097 44.4791 73.846 44.4791 73.3708 44.2076C72.8956 43.936 72.8956 43.4906 73.3708 43.219C73.846 42.9475 74.6097 42.9475 75.0848 43.219C75.5558 43.4906 75.5558 43.936 75.0848 44.2076Z" fill="#5793CE"/>
<path d="M76.1914 31.1919H72.2627V39.3972H76.1914V31.1919Z" fill="#5793CE"/>
<path d="M73.0144 39.3417V41.1109C73.7272 41.4376 74.7285 41.4376 75.437 41.1109V39.3417C74.7285 39.0192 73.7272 39.0192 73.0144 39.3417Z" fill="#396CAA"/>
<path d="M75.6152 40.1988C74.8472 40.6401 73.6041 40.6401 72.8362 40.1988C72.0683 39.7576 72.0683 39.0363 72.8362 38.5951C73.6041 38.1539 74.8472 38.1539 75.6152 38.5951C76.3831 39.0363 76.3831 39.7533 75.6152 40.1988Z" fill="#5793CE"/>
<path d="M77.5413 55.6291C77.3546 55.6291 77.2019 55.4763 77.2019 55.2897V41.3355C77.2019 41.1488 77.3546 40.9961 77.5413 40.9961C77.728 40.9961 77.8807 41.1488 77.8807 41.3355V55.2897C77.8807 55.4763 77.728 55.6291 77.5413 55.6291Z" fill="#5793CE"/>
<path d="M78.7505 40.4624H76.3279V45.6936H78.7505V40.4624Z" fill="#5793CE"/>
<path d="M78.3983 46.1859C77.9231 46.4574 77.1594 46.4574 76.6843 46.1859C76.2091 45.9143 76.2091 45.4688 76.6843 45.1973C77.1594 44.9258 77.9231 44.9258 78.3983 45.1973C78.8692 45.4688 78.8692 45.9143 78.3983 46.1859Z" fill="#5793CE"/>
<path d="M79.5049 33.1689H75.5762V41.3743H79.5049V33.1689Z" fill="#5793CE"/>
<path d="M76.3279 41.3195V43.0887C77.0407 43.4154 78.0419 43.4154 78.7505 43.0887V41.3195C78.0419 40.997 77.0407 40.997 76.3279 41.3195Z" fill="#396CAA"/>
<path d="M78.9286 42.1769C78.1607 42.6181 76.9176 42.6181 76.1497 42.1769C75.3817 41.7356 75.3817 41.0144 76.1497 40.5731C76.9176 40.1319 78.1607 40.1319 78.9286 40.5731C79.6966 41.0144 79.6966 41.7356 78.9286 42.1769Z" fill="#5793CE"/>
<path d="M92.9381 48.1712L98.2032 45.0698L93.1884 38.8076L91.8689 40.9629L92.9381 48.1712Z" fill="#5793CE"/>
<path d="M54.6946 13.8098L63.0993 8.97314C63.0993 8.97314 62.7811 13.8013 62.7811 13.8098C62.7811 13.8183 57.953 15.3075 57.953 15.3075L54.6946 13.8098Z" fill="#5793CE"/>
<path d="M54.6946 13.8098L63.0993 8.97314C63.0993 8.97314 62.7811 13.8013 62.7811 13.8098C62.7811 13.8183 57.953 15.3075 57.953 15.3075L54.6946 13.8098Z" fill="url(#paint23_linear_607_19927)"/>
<path d="M94.4017 32.4267C93.761 32.0576 93.1501 31.8412 92.5816 31.7521C91.733 27.2973 88.6359 22.5667 84.9405 20.4326C83.8289 19.792 82.7725 19.4483 81.8137 19.3762C81.3088 13.9795 77.554 7.84039 72.9974 5.20993C70.6172 3.83531 68.4577 3.67409 66.8625 4.51413V4.50989L66.7861 4.55232C66.7437 4.57353 66.7055 4.59899 66.6631 4.6202L61.7076 7.54765L63.3538 8.85015C61.8731 9.49503 60.9397 11.1539 60.9397 13.6062C60.9397 18.1246 64.1132 23.6231 68.0292 25.8845L94.4017 44.7177C97.3418 46.4148 99.722 45.0401 99.722 41.646C99.722 38.2519 97.3376 34.1238 94.4017 32.4267Z" fill="#5793CE"/>
<path d="M94.4017 32.4267C93.761 32.0576 93.1501 31.8412 92.5816 31.7521C91.733 27.2973 88.6359 22.5667 84.9405 20.4326C83.8289 19.792 82.7725 19.4483 81.8137 19.3762C81.3088 13.9795 77.554 7.84039 72.9974 5.20993C70.6172 3.83531 68.4577 3.67409 66.8625 4.51413V4.50989L66.7861 4.55232C66.7437 4.57353 66.7055 4.59899 66.6631 4.6202L61.7076 7.54765L63.3538 8.85015C61.8731 9.49503 60.9397 11.1539 60.9397 13.6062C60.9397 18.1246 64.1132 23.6231 68.0292 25.8845L94.4017 44.7177C97.3418 46.4148 99.722 45.0401 99.722 41.646C99.722 38.2519 97.3376 34.1238 94.4017 32.4267Z" fill="url(#paint24_linear_607_19927)"/>
<path d="M61.1816 11.6207L72.5563 4.97241C70.3458 3.82265 68.3518 3.72506 66.8541 4.5142V4.50996L66.7777 4.55239C66.7353 4.5736 66.6971 4.59906 66.6547 4.62027L61.6992 7.54771L63.3454 8.85021C62.3187 9.30418 61.5508 10.2545 61.1816 11.6207Z" fill="#5793CE"/>
<path d="M61.1816 11.6207L72.5563 4.97241C70.3458 3.82265 68.3518 3.72506 66.8541 4.5142V4.50996L66.7777 4.55239C66.7353 4.5736 66.6971 4.59906 66.6547 4.62027L61.6992 7.54771L63.3454 8.85021C62.3187 9.30418 61.5508 10.2545 61.1816 11.6207Z" fill="url(#paint25_linear_607_19927)"/>
<path d="M82.1913 31.175L90.4942 26.3044C89.0687 23.8436 87.1085 21.6926 84.9405 20.4368C84.652 20.2713 84.3678 20.127 84.092 19.9998L73.532 26.1728L82.1913 31.175Z" fill="#5793CE"/>
<path d="M82.1913 31.175L90.4942 26.3044C89.0687 23.8436 87.1085 21.6926 84.9405 20.4368C84.652 20.2713 84.3678 20.127 84.092 19.9998L73.532 26.1728L82.1913 31.175Z" fill="url(#paint26_linear_607_19927)"/>
<path opacity="0.2" d="M65.2659 7.87805L68.9655 10.0121L75.741 6.024C75.2446 5.63792 74.7398 5.29426 74.2179 4.99303C73.3991 4.51785 72.6057 4.19116 71.8505 4.00024L65.2659 7.87805Z" fill="#D4ECFF"/>
<path d="M89.5778 24.8706L82.9507 28.7739L85.2545 31.3449L91.2706 27.7938C90.7954 26.7713 90.2226 25.787 89.5778 24.8706Z" fill="#D4ECFF"/>
<path d="M89.1959 35.4943C88.5553 35.1252 87.9443 34.9088 87.3758 34.8197C86.5273 30.3649 83.4301 25.6343 79.7348 23.5002C78.6232 22.8596 77.5667 22.5159 76.6079 22.4438C76.103 17.0471 72.3483 10.908 67.7916 8.27753C62.8913 5.44766 58.916 7.74295 58.916 13.4027C58.916 13.5936 58.9202 13.7888 58.9287 13.9839C55.3436 12.3208 52.5435 14.1961 52.5435 18.443C52.5435 22.9614 55.717 28.4599 59.633 30.7213L89.1959 47.7895C92.1361 49.4866 94.5205 48.112 94.5205 44.7178C94.5205 41.3195 92.1361 37.1913 89.1959 35.4943Z" fill="#D4ECFF"/>
<path d="M58.9286 13.9793C58.9201 13.7842 58.9159 13.589 58.9159 13.3981C58.9159 13.3896 58.9159 13.3811 58.9159 13.3726C56.9345 12.6005 55.2332 12.9356 54.1641 14.1745C55.3266 13.2241 57.0109 13.0926 58.9286 13.9793Z" fill="white"/>
<path d="M89.6285 35.0698C88.9879 34.7006 88.3769 34.4843 87.8084 34.3952C86.9598 29.9404 83.8627 25.2098 80.1673 23.0757C79.0557 22.4351 77.9993 22.0914 77.0405 22.0193C76.5356 16.6226 72.7808 10.4835 68.2242 7.853C65.1695 6.08805 62.4754 6.31715 60.8801 8.10756C62.5051 6.71596 64.9998 6.66505 67.7914 8.27727C72.3481 10.9077 76.1028 17.0426 76.6077 22.4436C77.5666 22.5157 78.623 22.8593 79.7346 23.5C83.4299 25.634 86.5313 30.3646 87.3756 34.8194C87.9442 34.9085 88.5551 35.1249 89.1957 35.494C92.1359 37.1911 94.5203 41.3192 94.5203 44.7133C94.5203 45.9395 94.2063 46.8941 93.6718 47.5432C94.4694 46.928 94.9531 45.8164 94.9531 44.2891C94.9531 40.8949 92.5687 36.7668 89.6285 35.0698Z" fill="white"/>
<path d="M58.3051 15.3283L60.5282 16.3592L60.4137 13.9112C60.4052 13.7415 60.401 13.5675 60.401 13.3978C60.401 11.2129 61.0586 9.63034 62.2593 8.93878C63.4557 8.24723 65.157 8.46785 67.0492 9.56246C71.118 11.9129 74.6648 17.6278 75.1315 22.579L75.2503 23.8263L76.4977 23.9239C77.2656 23.9833 78.1056 24.2718 78.9966 24.7894C82.2295 26.6562 85.14 30.9922 85.9206 35.0991L86.1158 36.1258L87.151 36.2871C87.5626 36.3507 88.0038 36.5162 88.4578 36.7792C90.9397 38.2132 93.0356 41.845 93.0356 44.7088C93.0356 45.7822 92.7386 46.5671 92.221 46.8683C91.7034 47.1653 90.8718 47.0338 89.9427 46.4949L60.3798 29.4267C56.9389 27.4411 54.0327 22.4093 54.0327 18.4381C54.0327 16.8811 54.4909 15.6931 55.2928 15.1798C55.6237 14.9676 56.0225 14.8658 56.4723 14.8658C57.0153 14.8658 57.639 15.0185 58.3051 15.3283Z" fill="#396CAA"/>
<path d="M58.3051 15.3283L60.5282 16.3592L60.4137 13.9112C60.4052 13.7415 60.401 13.5675 60.401 13.3978C60.401 11.2129 61.0586 9.63034 62.2593 8.93878C63.4557 8.24723 65.157 8.46785 67.0492 9.56246C71.118 11.9129 74.6648 17.6278 75.1315 22.579L75.2503 23.8263L76.4977 23.9239C77.2656 23.9833 78.1056 24.2718 78.9966 24.7894C82.2295 26.6562 85.14 30.9922 85.9206 35.0991L86.1158 36.1258L87.151 36.2871C87.5626 36.3507 88.0038 36.5162 88.4578 36.7792C90.9397 38.2132 93.0356 41.845 93.0356 44.7088C93.0356 45.7822 92.7386 46.5671 92.221 46.8683C91.7034 47.1653 90.8718 47.0338 89.9427 46.4949L60.3798 29.4267C56.9389 27.4411 54.0327 22.4093 54.0327 18.4381C54.0327 16.8811 54.4909 15.6931 55.2928 15.1798C55.6237 14.9676 56.0225 14.8658 56.4723 14.8658C57.0153 14.8658 57.639 15.0185 58.3051 15.3283Z" fill="url(#paint27_linear_607_19927)"/>
<path d="M73.061 33.8611L73.8375 33.4665L73.0695 32.8853L73.061 33.8611Z" fill="url(#paint28_linear_607_19927)"/>
<path d="M70.7148 23.3223L71.4743 22.9404L71.487 23.3392L70.7148 23.3223Z" fill="#5793CE"/>
<path d="M75.2842 31.3965L76.0733 30.9977L74.5544 29.5552L75.2842 31.3965Z" fill="#5793CE"/>
<path d="M73.6128 33.4412L69.9217 31.2647C69.735 31.1544 69.5823 30.8744 69.5823 30.6453L69.595 26.3687L73.965 28.944L73.9522 33.2206C73.9522 33.4539 73.7995 33.5515 73.6128 33.4412Z" fill="url(#paint29_linear_607_19927)"/>
<path d="M71.4659 22.9447L67.4778 25.5116C67.3081 25.6219 67.4439 26.0249 67.7027 26.1777L71.7756 28.5748L75.8486 30.9719C76.1074 31.1246 76.2432 30.8785 76.0777 30.5731L72.1193 23.3266C71.9453 23.0169 71.6399 22.8344 71.4659 22.9447Z" fill="url(#paint30_linear_607_19927)"/>
<path d="M72.8194 33.8394L69.1282 31.6629C68.9415 31.5526 68.7888 31.2726 68.7888 31.0435L68.8015 26.7668L73.1715 29.3421L73.1588 33.6188C73.1588 33.8521 73.006 33.9497 72.8194 33.8394Z" fill="#D4ECFF"/>
<path d="M70.6725 23.3437L66.6843 25.9105C66.5146 26.0208 66.6504 26.4238 66.9092 26.5766L70.9822 28.9737L75.0551 31.3708C75.314 31.5235 75.4497 31.2775 75.2843 30.972L71.3258 23.7255C71.1519 23.4158 70.8464 23.2333 70.6725 23.3437Z" fill="#D4ECFF"/>
<path d="M86.1581 109.634H85.7041V84.3608L88.6867 82.6383V70.1987H89.1407V82.8971L86.1581 84.6196V109.634Z" fill="white"/>
<path d="M14.4145 115.095C14.1514 115.095 13.8884 115.027 13.6508 114.892L5.40305 110.221C5.15274 110.081 5 109.826 5 109.537C5 109.249 5.14849 108.99 5.39457 108.85L25.963 96.9537C27.1425 96.2706 28.6105 96.2706 29.7899 96.9537L53.3028 110.543L52.9634 111.128L29.4548 97.5392C28.4832 96.9792 27.2783 96.9792 26.3067 97.5392L5.73398 109.436C5.68307 109.465 5.67883 109.512 5.67883 109.533C5.67883 109.559 5.68731 109.605 5.73823 109.631L13.986 114.302C14.2702 114.463 14.6139 114.455 14.8897 114.277L18.3729 112.024L18.742 112.592L15.2588 114.845C15 115.011 14.7072 115.095 14.4145 115.095Z" fill="#C2ACD5"/>
<path opacity="0.5" d="M25.1528 116.898L14.0667 110.496C13.3879 110.102 13.4727 109.418 14.2576 108.965L24.9619 102.783C25.7468 102.329 26.9347 102.278 27.6178 102.673L38.7039 109.075C39.3827 109.469 39.2979 110.152 38.513 110.606L27.8087 116.788C27.0196 117.242 25.8316 117.289 25.1528 116.898Z" fill="url(#paint31_linear_607_19927)"/>
<path d="M42.3779 104.2V99.4102L31.6397 99.406L27.9274 97.2634C27.0746 96.7713 25.5854 96.8349 24.6054 97.3992L21.1434 99.3975L10.3924 99.3933V104.319C10.367 104.65 10.5536 104.972 10.9652 105.21L24.8472 113.224C25.7 113.717 27.1892 113.653 28.1692 113.089L41.5718 105.35C42.1361 105.019 42.4076 104.595 42.3779 104.2Z" fill="url(#paint32_linear_607_19927)"/>
<path d="M26.3832 96.9321C25.7595 96.9491 25.1146 97.1061 24.6012 97.3988L21.1392 99.3971L10.3883 99.3929V104.319C10.3628 104.65 10.5495 104.972 10.961 105.21L24.8431 113.224C25.2504 113.462 25.8104 113.568 26.3874 113.555V96.9321H26.3832Z" fill="url(#paint33_linear_607_19927)"/>
<path d="M11.6059 99.3926H10.3883V104.318C10.3628 104.649 10.5495 104.972 10.961 105.209L11.6059 105.583V99.3926Z" fill="#5793CE"/>
<path d="M25.0552 113.33C25.7892 113.644 26.8541 113.627 27.7111 113.3V107.708H25.0552V113.33Z" fill="#5793CE"/>
<path d="M24.8388 108.315L10.9567 100.301C10.104 99.8085 10.21 98.9514 11.1943 98.3829L24.5969 90.6443C25.5812 90.0758 27.0704 90.0164 27.919 90.5085L41.801 98.5229C42.6538 99.0151 42.5477 99.8721 41.5634 100.441L28.165 108.179C27.1807 108.744 25.6915 108.807 24.8388 108.315Z" fill="#D4ECFF"/>
<path d="M25.0891 106.872L13.4557 100.156C12.7429 99.7446 12.832 99.0234 13.6551 98.5482L24.8854 92.0611C25.7085 91.586 26.9559 91.5351 27.6729 91.9466L39.3063 98.6627C40.0191 99.0743 39.93 99.7955 39.1069 100.271L27.8765 106.758C27.0492 107.233 25.8061 107.284 25.0891 106.872Z" fill="#5793CE"/>
<path d="M37.2697 105.464C37.2697 105.82 37.0194 106.257 36.7097 106.435C36.4 106.614 36.1497 106.469 36.1497 106.113C36.1497 105.756 36.4 105.32 36.7097 105.141C37.0194 104.963 37.2697 105.107 37.2697 105.464Z" fill="#D4ECFF"/>
<path d="M39.0771 104.424C39.0771 104.781 38.8268 105.218 38.5171 105.396C38.2073 105.574 37.957 105.43 37.957 105.074C37.957 104.717 38.2073 104.28 38.5171 104.102C38.8225 103.92 39.0771 104.064 39.0771 104.424Z" fill="#D4ECFF"/>
<path d="M40.8803 103.381C40.8803 103.737 40.63 104.174 40.3203 104.352C40.0106 104.53 39.7603 104.386 39.7603 104.03C39.7603 103.673 40.0106 103.236 40.3203 103.058C40.63 102.88 40.8803 103.024 40.8803 103.381Z" fill="#D4ECFF"/>
<path d="M42.378 96.5459V91.7559L31.6398 91.7517L27.9275 89.6091C27.0747 89.117 25.5855 89.1806 24.6055 89.7449L21.1435 91.7432L10.3883 91.739V96.6647C10.3628 96.9957 10.5495 97.3181 10.961 97.5557L24.8431 105.57C25.6958 106.062 27.185 105.999 28.1651 105.434L41.5677 97.6957C42.1362 97.3648 42.4077 96.9405 42.378 96.5459Z" fill="url(#paint34_linear_607_19927)"/>
<path d="M26.3832 89.2778C25.7595 89.2948 25.1146 89.4518 24.6012 89.7445L21.1392 91.7428L10.3883 91.7386V96.6643C10.3628 96.9953 10.5495 97.3177 10.961 97.5553L24.8431 105.57C25.2504 105.807 25.8104 105.913 26.3874 105.901V89.2778H26.3832Z" fill="url(#paint35_linear_607_19927)"/>
<path d="M11.6059 91.7388H10.3883V96.6645C10.3628 96.9955 10.5495 97.3179 10.961 97.5555L11.6059 97.9288V91.7388Z" fill="#5793CE"/>
<path d="M25.0552 105.677C25.7892 105.991 26.8541 105.974 27.7111 105.647V100.055H25.0552V105.677Z" fill="#5793CE"/>
<path d="M24.8388 100.661L10.9567 92.6468C10.104 92.1547 10.21 91.2976 11.1943 90.7291L24.5969 82.9905C25.5812 82.422 27.0704 82.3626 27.919 82.8547L41.801 90.8691C42.6538 91.3613 42.5477 92.2183 41.5634 92.7868L28.165 100.525C27.1807 101.09 25.6915 101.153 24.8388 100.661Z" fill="#D4ECFF"/>
<path d="M25.0891 99.2185L13.4557 92.5024C12.7429 92.0908 12.832 91.3696 13.6551 90.8944L24.8854 84.4073C25.7085 83.9322 26.9559 83.8812 27.6729 84.2928L39.3063 91.0089C40.0191 91.4205 39.93 92.1417 39.1069 92.6169L27.8765 99.104C27.0492 99.5792 25.8061 99.6301 25.0891 99.2185Z" fill="#5793CE"/>
<path d="M37.2697 97.8095C37.2697 98.1658 37.0194 98.6028 36.7097 98.781C36.4 98.9592 36.1497 98.815 36.1497 98.4586C36.1497 98.1022 36.4 97.6652 36.7097 97.487C37.0194 97.3088 37.2697 97.4531 37.2697 97.8095Z" fill="#D4ECFF"/>
<path d="M39.0771 96.7665C39.0771 97.1229 38.8268 97.5599 38.5171 97.7381C38.2073 97.9163 37.957 97.772 37.957 97.4156C37.957 97.0592 38.2073 96.6222 38.5171 96.444C38.8225 96.2658 39.0771 96.4101 39.0771 96.7665Z" fill="#D4ECFF"/>
<path d="M40.8803 95.7269C40.8803 96.0833 40.63 96.5203 40.3203 96.6985C40.0106 96.8767 39.7603 96.7324 39.7603 96.3761C39.7603 96.0197 40.0106 95.5827 40.3203 95.4045C40.63 95.2263 40.8803 95.3705 40.8803 95.7269Z" fill="#D4ECFF"/>
<path d="M42.3779 88.8921V84.1021L31.6397 84.0979L27.9274 81.9553C27.0746 81.4632 25.5854 81.5268 24.6054 82.0911L21.1434 84.0894L10.3924 84.0852V89.0109C10.367 89.3418 10.5536 89.6643 10.9652 89.9019L24.8472 97.9163C25.7 98.4084 27.1892 98.3448 28.1692 97.7805L41.5718 90.0419C42.1361 89.7109 42.4076 89.2867 42.3779 88.8921Z" fill="url(#paint36_linear_607_19927)"/>
<path d="M26.3832 81.624C25.7595 81.641 25.1146 81.798 24.6012 82.0907L21.1392 84.089L10.3883 84.0848V89.0105C10.3628 89.3414 10.5495 89.6639 10.961 89.9015L24.8431 97.9159C25.2504 98.1535 25.8104 98.2596 26.3874 98.2468V81.624H26.3832Z" fill="url(#paint37_linear_607_19927)"/>
<path d="M11.6059 84.085H10.3883V89.0107C10.3628 89.3416 10.5495 89.6641 10.961 89.9017L11.6059 90.275V84.085Z" fill="#5793CE"/>
<path d="M25.0552 98.018C25.7892 98.332 26.8541 98.315 27.7111 97.9883V92.3965H25.0552V98.018Z" fill="#5793CE"/>
<path d="M24.4582 93.1397L10.5761 85.1253C9.72335 84.6332 9.82942 83.7762 10.8137 83.2076L24.2163 75.469C25.2006 74.9005 26.6898 74.8411 27.5383 75.3332L41.4204 83.3476C42.2731 83.8398 42.1671 84.6968 41.1828 85.2653L27.7844 92.9997C26.8001 93.5682 25.3109 93.6319 24.4582 93.1397Z" fill="#D4ECFF"/>
<path d="M41.5677 84.1866L28.1651 91.9252C27.1808 92.4937 25.6916 92.5531 24.8431 92.061L10.961 84.0466C10.7701 83.9363 10.6301 83.809 10.5368 83.669C10.244 84.1399 10.3756 84.649 10.961 84.9885L24.8431 93.0029C25.6958 93.495 27.185 93.4314 28.1651 92.8671L41.5677 85.1285C42.3314 84.6872 42.5647 84.072 42.2295 83.5884C42.098 83.8048 41.8774 84.0084 41.5677 84.1866Z" fill="white"/>
<path d="M37.2697 90.1556C37.2697 90.5119 37.0194 90.9489 36.7097 91.1271C36.4 91.3053 36.1497 91.1611 36.1497 90.8047C36.1497 90.4483 36.4 90.0113 36.7097 89.8331C37.0194 89.6507 37.2697 89.7992 37.2697 90.1556Z" fill="#D4ECFF"/>
<path d="M39.0771 89.1127C39.0771 89.4691 38.8268 89.9061 38.5171 90.0842C38.2073 90.2624 37.957 90.1182 37.957 89.7618C37.957 89.4054 38.2073 88.9684 38.5171 88.7902C38.8225 88.612 39.0771 88.7563 39.0771 89.1127Z" fill="#D4ECFF"/>
<path d="M40.8803 88.073C40.8803 88.4294 40.63 88.8664 40.3203 89.0446C40.0106 89.2228 39.7603 89.0785 39.7603 88.7222C39.7603 88.3658 40.0106 87.9288 40.3203 87.7506C40.63 87.5682 40.8803 87.7167 40.8803 88.073Z" fill="#D4ECFF"/>
<path d="M25.6618 88.0386L19.1663 84.2881C18.7675 84.059 18.8184 83.6559 19.2766 83.3886L25.5473 79.7654C26.0055 79.4981 26.7055 79.4726 27.1043 79.7017L33.5999 83.4523C33.9987 83.6814 33.9478 84.0844 33.4895 84.3517L27.2189 87.975C26.7564 88.238 26.0606 88.2677 25.6618 88.0386Z" fill="url(#paint38_linear_607_19927)"/>
<path d="M26.2812 84.8994L25.3818 84.3817C25.3266 84.3478 25.3351 84.2926 25.3988 84.2587L26.2685 83.7581C26.3321 83.7199 26.4297 83.7156 26.4849 83.7496L27.3843 84.2672C27.4395 84.2969 27.431 84.3563 27.3674 84.3902L26.4976 84.8909C26.434 84.9248 26.3364 84.9291 26.2812 84.8994Z" fill="#D4ECFF"/>
<path d="M19.1663 84.2889L19.1833 84.2974C19.213 84.2762 19.2427 84.255 19.2766 84.2338L25.5473 80.6105C26.0055 80.3432 26.7055 80.3178 27.1043 80.5469L33.5829 84.2847C33.952 84.0216 33.969 83.6652 33.5999 83.4489L27.1043 79.6983C26.7055 79.4692 26.0097 79.4989 25.5473 79.762L19.2766 83.3852C18.8184 83.6568 18.7675 84.0598 19.1663 84.2889Z" fill="#396CAA"/>
<path d="M23.9437 94.4078C23.9437 94.6496 23.774 94.7472 23.5661 94.6242C23.3582 94.5054 23.1885 94.2126 23.1885 93.9708C23.1885 93.729 23.3582 93.6314 23.5661 93.7544C23.7782 93.8732 23.9437 94.166 23.9437 94.4078Z" fill="#D4ECFF"/>
<path d="M22.7769 93.7374C22.7769 93.9792 22.6072 94.0768 22.3993 93.9538C22.1914 93.835 22.0217 93.5422 22.0217 93.3004C22.0217 93.0586 22.1914 92.961 22.3993 93.084C22.6072 93.2028 22.7769 93.4956 22.7769 93.7374Z" fill="#D4ECFF"/>
<path d="M23.9437 95.8204C23.9437 96.0622 23.774 96.1598 23.5661 96.0368C23.3582 95.918 23.1885 95.6252 23.1885 95.3834C23.1885 95.1416 23.3582 95.044 23.5661 95.167C23.7782 95.2858 23.9437 95.5786 23.9437 95.8204Z" fill="#D4ECFF"/>
<path d="M22.7769 95.1495C22.7769 95.3913 22.6072 95.4889 22.3993 95.3659C22.1914 95.2471 22.0217 94.9543 22.0217 94.7125C22.0217 94.4707 22.1914 94.3731 22.3993 94.4961C22.6072 94.6149 22.7769 94.9077 22.7769 95.1495Z" fill="#D4ECFF"/>
<path d="M23.9437 102.024C23.9437 102.265 23.774 102.363 23.5661 102.24C23.3582 102.121 23.1885 101.828 23.1885 101.587C23.1885 101.345 23.3582 101.247 23.5661 101.37C23.7782 101.489 23.9437 101.782 23.9437 102.024Z" fill="#D4ECFF"/>
<path d="M22.7769 101.353C22.7769 101.595 22.6072 101.692 22.3993 101.569C22.1914 101.451 22.0217 101.158 22.0217 100.916C22.0217 100.674 22.1914 100.577 22.3993 100.7C22.6072 100.819 22.7769 101.111 22.7769 101.353Z" fill="#D4ECFF"/>
<path d="M23.9437 103.436C23.9437 103.678 23.774 103.776 23.5661 103.653C23.3582 103.534 23.1885 103.241 23.1885 102.999C23.1885 102.757 23.3582 102.66 23.5661 102.783C23.7782 102.902 23.9437 103.194 23.9437 103.436Z" fill="#D4ECFF"/>
<path d="M22.7769 102.765C22.7769 103.007 22.6072 103.105 22.3993 102.982C22.1914 102.863 22.0217 102.57 22.0217 102.328C22.0217 102.086 22.1914 101.989 22.3993 102.112C22.6072 102.231 22.7769 102.523 22.7769 102.765Z" fill="#D4ECFF"/>
<path d="M23.9437 109.639C23.9437 109.881 23.774 109.979 23.5661 109.856C23.3582 109.737 23.1885 109.444 23.1885 109.202C23.1885 108.96 23.3582 108.863 23.5661 108.986C23.7782 109.105 23.9437 109.397 23.9437 109.639Z" fill="#D4ECFF"/>
<path d="M22.7769 108.969C22.7769 109.211 22.6072 109.308 22.3993 109.185C22.1914 109.066 22.0217 108.774 22.0217 108.532C22.0217 108.29 22.1914 108.192 22.3993 108.315C22.6072 108.434 22.7769 108.727 22.7769 108.969Z" fill="#D4ECFF"/>
<path d="M23.9437 111.052C23.9437 111.294 23.774 111.391 23.5661 111.268C23.3582 111.149 23.1885 110.857 23.1885 110.615C23.1885 110.373 23.3582 110.275 23.5661 110.398C23.7782 110.517 23.9437 110.81 23.9437 111.052Z" fill="#D4ECFF"/>
<path d="M22.7769 110.381C22.7769 110.623 22.6072 110.72 22.3993 110.597C22.1914 110.479 22.0217 110.186 22.0217 109.944C22.0217 109.702 22.1914 109.605 22.3993 109.728C22.6072 109.846 22.7769 110.139 22.7769 110.381Z" fill="#D4ECFF"/>
<path d="M26.5614 122.591C26.1626 122.591 25.768 122.49 25.4116 122.282L18.4154 118.221C18.1779 118.081 18.0378 117.835 18.0378 117.564C18.0378 117.292 18.1821 117.042 18.4197 116.906L23.0187 114.238L23.3582 114.823L18.7591 117.492C18.7252 117.513 18.7167 117.543 18.7167 117.564C18.7167 117.585 18.7252 117.615 18.7591 117.636L25.7553 121.696C26.2474 121.98 26.8626 121.985 27.359 121.7L41.0586 113.894C41.7629 113.491 42.6369 113.495 43.3411 113.902L54.8176 120.529C55.314 120.818 55.9334 120.822 56.434 120.534L61.9665 117.335L62.3059 117.92L56.7734 121.119C56.0649 121.531 55.1867 121.526 54.4782 121.115L43.0017 114.488C42.5053 114.199 41.8902 114.199 41.3938 114.479L27.6942 122.286C27.3463 122.494 26.9559 122.591 26.5614 122.591Z" fill="#C2ACD5"/>
<path d="M67.2315 38.8504C67.2315 39.0922 67.0618 39.1898 66.8539 39.0668C66.646 38.948 66.4763 38.6553 66.4763 38.4134C66.4763 38.1716 66.646 38.074 66.8539 38.197C67.0618 38.3158 67.2315 38.6086 67.2315 38.8504Z" fill="#D4ECFF"/>
<path d="M70.5535 40.8656C70.5535 41.1074 70.3838 41.205 70.1759 41.0819C69.968 40.9631 69.7983 40.6704 69.7983 40.4286C69.7983 40.1867 69.968 40.0891 70.1759 40.2122C70.3838 40.331 70.5535 40.6237 70.5535 40.8656Z" fill="#D4ECFF"/>
<path d="M73.8756 42.8807C73.8756 43.1225 73.7059 43.2201 73.498 43.0971C73.2901 42.9783 73.1204 42.6855 73.1204 42.4437C73.1204 42.2019 73.2901 42.1043 73.498 42.2273C73.7059 42.3461 73.8756 42.6389 73.8756 42.8807Z" fill="#D4ECFF"/>
<path d="M77.2017 44.8961C77.2017 45.1379 77.032 45.2355 76.8241 45.1125C76.6162 44.9937 76.4465 44.7009 76.4465 44.4591C76.4465 44.2172 76.6162 44.1197 76.8241 44.2427C77.032 44.3615 77.2017 44.6542 77.2017 44.8961Z" fill="#D4ECFF"/>
<path d="M69.5438 42.8726C69.5438 43.0593 69.3911 43.212 69.2044 43.212C69.0177 43.212 68.865 43.0593 68.865 42.8726C68.865 42.6859 69.0177 42.5332 69.2044 42.5332C69.3953 42.5332 69.5438 42.6859 69.5438 42.8726Z" fill="#D4ECFF"/>
<path d="M72.6451 44.7266C72.6451 44.9133 72.4924 45.066 72.3057 45.066C72.119 45.066 71.9663 44.9133 71.9663 44.7266C71.9663 44.5399 72.119 44.3872 72.3057 44.3872C72.4924 44.3872 72.6451 44.5399 72.6451 44.7266Z" fill="#D4ECFF"/>
<path d="M75.4029 46.9237C75.5903 46.9237 75.7423 46.7717 75.7423 46.5843C75.7423 46.3968 75.5903 46.2449 75.4029 46.2449C75.2154 46.2449 75.0635 46.3968 75.0635 46.5843C75.0635 46.7717 75.2154 46.9237 75.4029 46.9237Z" fill="#D4ECFF"/>
<path d="M78.8395 48.366C78.8395 48.5527 78.6867 48.7054 78.5001 48.7054C78.3134 48.7054 78.1606 48.5527 78.1606 48.366C78.1606 48.1793 78.3134 48.0266 78.5001 48.0266C78.691 48.0266 78.8395 48.1793 78.8395 48.366Z" fill="#D4ECFF"/>
<defs>
<linearGradient id="paint0_linear_607_19927" x1="96.9779" y1="88.1553" x2="97.1946" y2="103.674" gradientUnits="userSpaceOnUse">
<stop stop-color="#C3A9D9"/>
<stop offset="1" stop-color="#8C57BC"/>
</linearGradient>
<linearGradient id="paint1_linear_607_19927" x1="92.2101" y1="97.1834" x2="102.106" y2="81.3356" gradientUnits="userSpaceOnUse">
<stop stop-color="#351053"/>
<stop offset="1" stop-color="#814DB2"/>
</linearGradient>
<linearGradient id="paint2_linear_607_19927" x1="89.0885" y1="97.1838" x2="99.8363" y2="88.5745" gradientUnits="userSpaceOnUse">
<stop stop-color="#351053"/>
<stop offset="1" stop-color="#814DB2"/>
</linearGradient>
<linearGradient id="paint3_linear_607_19927" x1="92.2101" y1="89.5301" x2="102.106" y2="73.6823" gradientUnits="userSpaceOnUse">
<stop stop-color="#351053"/>
<stop offset="1" stop-color="#814DB2"/>
</linearGradient>
<linearGradient id="paint4_linear_607_19927" x1="89.0885" y1="89.5305" x2="99.8363" y2="80.9212" gradientUnits="userSpaceOnUse">
<stop stop-color="#351053"/>
<stop offset="1" stop-color="#814DB2"/>
</linearGradient>
<linearGradient id="paint5_linear_607_19927" x1="92.2101" y1="81.8763" x2="102.106" y2="66.0285" gradientUnits="userSpaceOnUse">
<stop stop-color="#351053"/>
<stop offset="1" stop-color="#814DB2"/>
</linearGradient>
<linearGradient id="paint6_linear_607_19927" x1="89.0885" y1="81.8762" x2="99.8363" y2="73.2669" gradientUnits="userSpaceOnUse">
<stop stop-color="#351053"/>
<stop offset="1" stop-color="#814DB2"/>
</linearGradient>
<linearGradient id="paint7_linear_607_19927" x1="97.3993" y1="73.2278" x2="102.766" y2="65.495" gradientUnits="userSpaceOnUse">
<stop stop-color="#351053"/>
<stop offset="1" stop-color="#814DB2"/>
</linearGradient>
<linearGradient id="paint8_linear_607_19927" x1="64.1953" y1="101.004" x2="64.5514" y2="126.685" gradientUnits="userSpaceOnUse">
<stop stop-color="#C3A9D9"/>
<stop offset="1" stop-color="#8C57BC"/>
</linearGradient>
<linearGradient id="paint9_linear_607_19927" x1="63.5941" y1="43.1567" x2="66.7056" y2="121.721" gradientUnits="userSpaceOnUse">
<stop stop-color="#C3A9D9"/>
<stop offset="1" stop-color="#8C57BC"/>
</linearGradient>
<linearGradient id="paint10_linear_607_19927" x1="54.6635" y1="37.4812" x2="102.268" y2="76.5776" gradientUnits="userSpaceOnUse">
<stop stop-color="#DBC2F0"/>
<stop offset="1" stop-color="#C9A2ED"/>
</linearGradient>
<linearGradient id="paint11_linear_607_19927" x1="64.4812" y1="57.1706" x2="73.9983" y2="43.4908" gradientUnits="userSpaceOnUse">
<stop stop-color="#351053"/>
<stop offset="1" stop-color="#814DB2"/>
</linearGradient>
<linearGradient id="paint12_linear_607_19927" x1="83.8469" y1="74.7386" x2="91.5912" y2="68.4097" gradientUnits="userSpaceOnUse">
<stop stop-color="#351053"/>
<stop offset="1" stop-color="#814DB2"/>
</linearGradient>
<linearGradient id="paint13_linear_607_19927" x1="83.8469" y1="99.8812" x2="91.5912" y2="93.5523" gradientUnits="userSpaceOnUse">
<stop stop-color="#351053"/>
<stop offset="1" stop-color="#814DB2"/>
</linearGradient>
<linearGradient id="paint14_linear_607_19927" x1="83.8469" y1="112.452" x2="91.5912" y2="106.123" gradientUnits="userSpaceOnUse">
<stop stop-color="#351053"/>
<stop offset="1" stop-color="#814DB2"/>
</linearGradient>
<linearGradient id="paint15_linear_607_19927" x1="83.8469" y1="87.3099" x2="91.5912" y2="80.9809" gradientUnits="userSpaceOnUse">
<stop stop-color="#351053"/>
<stop offset="1" stop-color="#814DB2"/>
</linearGradient>
<linearGradient id="paint16_linear_607_19927" x1="58.1676" y1="52.291" x2="58.582" y2="73.2009" gradientUnits="userSpaceOnUse">
<stop stop-color="#C3A9D9"/>
<stop offset="1" stop-color="#8C57BC"/>
</linearGradient>
<linearGradient id="paint17_linear_607_19927" x1="58.1676" y1="59.8379" x2="58.582" y2="80.7478" gradientUnits="userSpaceOnUse">
<stop stop-color="#C3A9D9"/>
<stop offset="1" stop-color="#8C57BC"/>
</linearGradient>
<linearGradient id="paint18_linear_607_19927" x1="58.1676" y1="67.3857" x2="58.582" y2="88.2956" gradientUnits="userSpaceOnUse">
<stop stop-color="#C3A9D9"/>
<stop offset="1" stop-color="#8C57BC"/>
</linearGradient>
<linearGradient id="paint19_linear_607_19927" x1="58.1676" y1="74.9336" x2="58.582" y2="95.8435" gradientUnits="userSpaceOnUse">
<stop stop-color="#C3A9D9"/>
<stop offset="1" stop-color="#8C57BC"/>
</linearGradient>
<linearGradient id="paint20_linear_607_19927" x1="58.1676" y1="82.4814" x2="58.582" y2="103.391" gradientUnits="userSpaceOnUse">
<stop stop-color="#C3A9D9"/>
<stop offset="1" stop-color="#8C57BC"/>
</linearGradient>
<linearGradient id="paint21_linear_607_19927" x1="58.1676" y1="90.0293" x2="58.582" y2="110.939" gradientUnits="userSpaceOnUse">
<stop stop-color="#C3A9D9"/>
<stop offset="1" stop-color="#8C57BC"/>
</linearGradient>
<linearGradient id="paint22_linear_607_19927" x1="58.1676" y1="97.5766" x2="58.582" y2="118.487" gradientUnits="userSpaceOnUse">
<stop stop-color="#C3A9D9"/>
<stop offset="1" stop-color="#8C57BC"/>
</linearGradient>
<linearGradient id="paint23_linear_607_19927" x1="52.0605" y1="7.77377" x2="58.1228" y2="20.9248" gradientUnits="userSpaceOnUse">
<stop offset="0.216475" stop-color="#9B66CD"/>
<stop offset="1" stop-color="#46197B"/>
</linearGradient>
<linearGradient id="paint24_linear_607_19927" x1="48.7852" y1="-3.84714" x2="96.5657" y2="69.2517" gradientUnits="userSpaceOnUse">
<stop offset="0.216475" stop-color="#9B66CD"/>
<stop offset="1" stop-color="#46197B"/>
</linearGradient>
<linearGradient id="paint25_linear_607_19927" x1="57.6168" y1="2.5585" x2="64.346" y2="18.9822" gradientUnits="userSpaceOnUse">
<stop offset="0.216475" stop-color="#9B66CD"/>
<stop offset="1" stop-color="#46197B"/>
</linearGradient>
<linearGradient id="paint26_linear_607_19927" x1="68.216" y1="17.8838" x2="77.9687" y2="42.0855" gradientUnits="userSpaceOnUse">
<stop offset="0.216475" stop-color="#9B66CD"/>
<stop offset="1" stop-color="#46197B"/>
</linearGradient>
<linearGradient id="paint27_linear_607_19927" x1="65.9172" y1="6.42981" x2="66.8824" y2="46.8835" gradientUnits="userSpaceOnUse">
<stop stop-color="#C3A9D9"/>
<stop offset="1" stop-color="#8C57BC"/>
</linearGradient>
<linearGradient id="paint28_linear_607_19927" x1="72.8177" y1="32.7005" x2="74.0046" y2="34.2445" gradientUnits="userSpaceOnUse">
<stop offset="0.216475" stop-color="#9B66CD"/>
<stop offset="1" stop-color="#46197B"/>
</linearGradient>
<linearGradient id="paint29_linear_607_19927" x1="68.2087" y1="25.0209" x2="77.1676" y2="34.0395" gradientUnits="userSpaceOnUse">
<stop offset="0.216475" stop-color="#9B66CD"/>
<stop offset="1" stop-color="#46197B"/>
</linearGradient>
<linearGradient id="paint30_linear_607_19927" x1="64.6611" y1="21.3775" x2="73.4149" y2="36.8216" gradientUnits="userSpaceOnUse">
<stop offset="0.216475" stop-color="#9B66CD"/>
<stop offset="1" stop-color="#46197B"/>
</linearGradient>
<linearGradient id="paint31_linear_607_19927" x1="21.3949" y1="101.596" x2="21.6116" y2="117.115" gradientUnits="userSpaceOnUse">
<stop stop-color="#C3A9D9"/>
<stop offset="1" stop-color="#8C57BC"/>
</linearGradient>
<linearGradient id="paint32_linear_607_19927" x1="16.6267" y1="110.625" x2="26.523" y2="94.7772" gradientUnits="userSpaceOnUse">
<stop stop-color="#351053"/>
<stop offset="1" stop-color="#814DB2"/>
</linearGradient>
<linearGradient id="paint33_linear_607_19927" x1="13.5055" y1="110.625" x2="24.2533" y2="102.015" gradientUnits="userSpaceOnUse">
<stop stop-color="#351053"/>
<stop offset="1" stop-color="#814DB2"/>
</linearGradient>
<linearGradient id="paint34_linear_607_19927" x1="16.6234" y1="102.971" x2="26.5192" y2="87.1217" gradientUnits="userSpaceOnUse">
<stop stop-color="#351053"/>
<stop offset="1" stop-color="#814DB2"/>
</linearGradient>
<linearGradient id="paint35_linear_607_19927" x1="13.5055" y1="102.97" x2="24.2533" y2="94.3611" gradientUnits="userSpaceOnUse">
<stop stop-color="#351053"/>
<stop offset="1" stop-color="#814DB2"/>
</linearGradient>
<linearGradient id="paint36_linear_607_19927" x1="16.6267" y1="95.3167" x2="26.5231" y2="79.4691" gradientUnits="userSpaceOnUse">
<stop stop-color="#351053"/>
<stop offset="1" stop-color="#814DB2"/>
</linearGradient>
<linearGradient id="paint37_linear_607_19927" x1="13.5055" y1="95.3166" x2="24.2533" y2="86.7073" gradientUnits="userSpaceOnUse">
<stop stop-color="#351053"/>
<stop offset="1" stop-color="#814DB2"/>
</linearGradient>
<linearGradient id="paint38_linear_607_19927" x1="21.816" y1="86.6683" x2="27.1827" y2="78.9355" gradientUnits="userSpaceOnUse">
<stop stop-color="#351053"/>
<stop offset="1" stop-color="#814DB2"/>
</linearGradient>
</defs>
</svg>
