<svg width="130" height="130" viewBox="0 0 130 130" fill="none" xmlns="http://www.w3.org/2000/svg">
<g opacity="0.2">
<path opacity="0.2" d="M16.464 87.3839C11.8708 90.0397 11.8382 94.339 16.4096 96.9948L31.4953 105.757C36.0667 108.412 43.4899 108.412 48.094 105.757L67.6423 94.4696C72.2463 91.8138 72.2681 87.5145 67.6967 84.8587L52.6218 76.0968C48.0504 73.441 40.6273 73.441 36.0232 76.0968L16.464 87.3839Z" fill="black"/>
</g>
<path d="M62.0804 93.7729L59.4355 92.2382C59.7185 92.0641 60.0015 91.8573 60.2628 91.6069L62.9077 93.1416C62.6464 93.3811 62.3743 93.5988 62.0804 93.7729Z" fill="#B2C5CC"/>
<path d="M62.9076 93.1311L60.2627 91.5964C60.3498 91.4984 60.4477 91.4004 60.5348 91.3025L63.1797 92.8372C63.0926 92.9351 62.9947 93.0331 62.9076 93.1311Z" fill="#ADC0C7"/>
<path d="M63.1798 92.837L60.5349 91.3023C60.6002 91.2262 60.6764 91.1391 60.7417 91.052L63.3866 92.5867C63.3104 92.6738 63.2451 92.7608 63.1798 92.837Z" fill="#A9BBC2"/>
<path d="M63.3756 92.5866L60.7307 91.0519C60.7851 90.9866 60.8396 90.9104 60.894 90.8342L63.5389 92.3689C63.4845 92.4451 63.43 92.5213 63.3756 92.5866Z" fill="#A4B6BD"/>
<path d="M63.5389 92.3691L60.894 90.8344C60.9485 90.7691 60.992 90.6929 61.0355 90.6167L63.6804 92.1514C63.6369 92.2276 63.5934 92.3038 63.5389 92.3691Z" fill="#A0B1B8"/>
<path d="M63.6913 92.1621L61.0464 90.6275C61.0899 90.5621 61.1335 90.486 61.177 90.4207L63.8219 91.9445C63.7675 92.0206 63.7239 92.086 63.6913 92.1621Z" fill="#9BACB3"/>
<path d="M63.8112 91.9445L61.1663 90.4207C61.1989 90.3445 61.2424 90.2792 61.2751 90.2139L63.92 91.7486C63.8873 91.8139 63.8547 91.8792 63.8112 91.9445Z" fill="#97A7AD"/>
<path d="M63.9308 91.7377L61.2859 90.203C61.3294 90.1377 61.3621 90.0615 61.3947 89.9854L64.0505 91.52C63.9961 91.5962 63.9634 91.6724 63.9308 91.7377Z" fill="#93A2A8"/>
<path d="M64.0396 91.5309L61.3838 89.9962C61.4164 89.9201 61.4491 89.8548 61.4817 89.7786L64.1266 91.3133C64.1049 91.3895 64.0722 91.4548 64.0396 91.5309Z" fill="#8E9DA3"/>
<path d="M64.1376 91.3132L61.4927 89.7785C61.5253 89.7023 61.558 89.637 61.5906 89.5608L64.2355 91.0955C64.192 91.1608 64.1702 91.237 64.1376 91.3132Z" fill="#8A999E"/>
<path d="M64.2247 91.0955L61.5798 89.5608C61.6125 89.4847 61.6343 89.3976 61.6669 89.3323L64.3118 90.867C64.2792 90.9323 64.2574 91.0193 64.2247 91.0955Z" fill="#859499"/>
<path d="M64.3116 90.8563L61.6667 89.3216C61.6994 89.2346 61.7212 89.1475 61.7429 89.0713L64.3878 90.606C64.3661 90.6931 64.3334 90.7692 64.3116 90.8563Z" fill="#818F94"/>
<path d="M64.3771 90.6058L61.7322 89.0711C61.7648 88.9731 61.7866 88.886 61.8084 88.7881L64.4533 90.3228C64.4315 90.4207 64.4097 90.5078 64.3771 90.6058Z" fill="#7C8A8F"/>
<path d="M64.4532 90.3229L61.8083 88.7882C61.8301 88.6685 61.8519 88.5597 61.8628 88.4399L64.5077 89.9746C64.4968 90.0944 64.475 90.2032 64.4532 90.3229Z" fill="#78858A"/>
<path d="M64.5078 89.9744L61.8629 88.4398C61.8846 88.2765 61.8955 88.1132 61.8955 87.95C61.8955 87.1663 61.6125 86.6221 61.1663 86.3608L63.8112 87.8955C64.2574 88.1568 64.5295 88.701 64.5404 89.4847C64.5404 89.6588 64.5295 89.8112 64.5078 89.9744Z" fill="#738085"/>
<path d="M60.317 93.9468L57.6721 92.4121C57.683 92.4121 57.683 92.4121 57.683 92.4121L60.3279 93.9468H60.317Z" fill="#8A999E"/>
<path d="M60.328 93.9468L57.6831 92.4121C57.7158 92.4339 57.7702 92.4557 57.8028 92.4774L60.4477 94.0121C60.4042 93.9903 60.3715 93.9795 60.328 93.9468Z" fill="#8E9DA3"/>
<path d="M60.4586 94.012L57.8137 92.4773C57.8573 92.4991 57.9008 92.5099 57.9443 92.5208L60.5892 94.0555C60.5348 94.0446 60.4913 94.0338 60.4586 94.012Z" fill="#93A2A8"/>
<path d="M60.5892 94.0557L57.9443 92.521C57.9879 92.5319 58.0423 92.5428 58.0858 92.5536L60.7307 94.0883C60.6763 94.0883 60.6328 94.0666 60.5892 94.0557Z" fill="#97A7AD"/>
<path d="M60.7198 94.0882L58.075 92.5535C58.1185 92.5644 58.1729 92.5643 58.2273 92.5752L60.8722 94.1099C60.8178 94.099 60.7743 94.099 60.7198 94.0882Z" fill="#9BACB3"/>
<path d="M60.8722 94.1099L58.2273 92.5752C58.2817 92.5861 58.3361 92.5861 58.3906 92.5752L61.0355 94.1099C60.981 94.1099 60.9266 94.1099 60.8722 94.1099Z" fill="#A0B1B8"/>
<path d="M61.0353 94.1099L58.3904 92.5752C58.4448 92.5752 58.5101 92.5644 58.5754 92.5535L61.2203 94.0882C61.155 94.099 61.1006 94.099 61.0353 94.1099Z" fill="#A4B6BD"/>
<path d="M61.2203 94.088L58.5754 92.5533C58.6407 92.5424 58.7169 92.5315 58.7931 92.5098L61.438 94.0445C61.3618 94.0662 61.2965 94.0771 61.2203 94.088Z" fill="#A9BBC2"/>
<path d="M61.4381 94.0448L58.7932 92.5101C58.8912 92.4774 58.9891 92.4556 59.0871 92.4121L61.732 93.9468C61.634 93.9795 61.5361 94.0121 61.4381 94.0448Z" fill="#ADC0C7"/>
<path d="M61.7321 93.9359L59.0872 92.4012C59.196 92.3468 59.3157 92.2924 59.4355 92.2271L62.0804 93.7617C61.9606 93.8379 61.8518 93.8924 61.7321 93.9359Z" fill="#B2C5CC"/>
<path d="M62.0585 88.0799L59.4136 86.5452C59.5333 86.4799 59.6421 86.4146 59.7619 86.3711L62.4068 87.9058C62.287 87.9602 62.1782 88.0146 62.0585 88.0799Z" fill="#87ABBB"/>
<path d="M62.4069 87.9061L59.762 86.3714C59.8599 86.3279 59.9579 86.2952 60.0558 86.2734L62.7007 87.8081C62.6028 87.8299 62.5048 87.8734 62.4069 87.9061Z" fill="#84A7B7"/>
<path d="M62.7006 87.8079L60.0557 86.2732C60.1319 86.2514 60.1972 86.2296 60.2734 86.2188L62.9183 87.7534C62.8421 87.7643 62.7659 87.7861 62.7006 87.8079Z" fill="#80A3B2"/>
<path d="M62.9073 87.7536L60.2625 86.2189C60.3278 86.2189 60.3931 86.208 60.4475 86.208L63.0924 87.7427C63.038 87.7427 62.9727 87.7427 62.9073 87.7536Z" fill="#7D9EAD"/>
<path d="M63.0924 87.7427L60.4475 86.208C60.5019 86.208 60.5564 86.208 60.6108 86.208L63.2557 87.7427C63.2012 87.7427 63.1468 87.7427 63.0924 87.7427Z" fill="#7A9AA8"/>
<path d="M63.2557 87.7427L60.6108 86.208C60.6653 86.208 60.7088 86.2189 60.7632 86.2189L63.4081 87.7536C63.3646 87.7536 63.3102 87.7427 63.2557 87.7427Z" fill="#7696A4"/>
<path d="M63.4081 87.7534L60.7632 86.2188C60.8176 86.2296 60.8611 86.2405 60.9047 86.2623L63.5496 87.797C63.506 87.7752 63.4516 87.7643 63.4081 87.7534Z" fill="#73929F"/>
<path d="M63.5497 87.7864L60.9048 86.2517C60.9483 86.2626 60.9919 86.2735 61.0354 86.2952L63.6803 87.8299C63.6368 87.8191 63.5932 87.8082 63.5497 87.7864Z" fill="#708D9A"/>
<path d="M63.6803 87.8406L61.0354 86.3059C61.0789 86.3277 61.1116 86.3386 61.1551 86.3712L63.8 87.9059C63.7674 87.8733 63.7238 87.8515 63.6803 87.8406Z" fill="#6C8996"/>
<path d="M63.7999 87.8953L61.155 86.3606C61.1659 86.3606 61.1659 86.3606 61.1659 86.3606L63.8108 87.8953C63.8108 87.9062 63.8108 87.9062 63.7999 87.8953Z" fill="#698591"/>
<path d="M60.3171 93.9469L57.6722 92.4122C57.226 92.1509 56.9539 91.6067 56.9539 90.823C56.9539 90.6598 56.9647 90.5074 56.9865 90.3333L59.6423 91.8679C59.6205 92.0312 59.6096 92.1945 59.6096 92.3577C59.5988 93.1414 59.8709 93.6856 60.3171 93.9469Z" fill="#586F7A"/>
<path d="M59.6314 91.8788L56.9756 90.3442C56.9974 90.2244 57.0082 90.1156 57.0409 89.9958L59.6858 91.5305C59.664 91.6394 59.6423 91.7591 59.6314 91.8788Z" fill="#5B747E"/>
<path d="M59.6859 91.5306L57.041 89.9959C57.0628 89.8979 57.0846 89.8108 57.1172 89.7129L59.7621 91.2476C59.7295 91.3347 59.7077 91.4326 59.6859 91.5306Z" fill="#5F7883"/>
<path d="M59.7511 91.2477L57.1062 89.713C57.128 89.6259 57.1497 89.5388 57.1824 89.4626L59.8273 90.9973C59.8055 91.0735 59.7729 91.1606 59.7511 91.2477Z" fill="#627C88"/>
<path d="M59.8273 90.9971L57.1824 89.4624C57.2041 89.3862 57.2368 89.31 57.2586 89.2229L59.9035 90.7576C59.8817 90.8338 59.8599 90.9209 59.8273 90.9971Z" fill="#65808C"/>
<path d="M59.9144 90.7575L57.2695 89.2228C57.3022 89.1466 57.3348 89.0704 57.3675 89.0051L60.0124 90.5398C59.9689 90.6051 59.9471 90.6813 59.9144 90.7575Z" fill="#698591"/>
<path d="M60.0016 90.5402L57.3567 89.0055C57.3893 88.9293 57.4111 88.864 57.4546 88.7878L60.0995 90.3225C60.0669 90.3878 60.0342 90.464 60.0016 90.5402Z" fill="#6C8996"/>
<path d="M60.0995 90.3225L57.4546 88.7879C57.4872 88.7226 57.5199 88.6464 57.5634 88.5811L60.2083 90.1157C60.1648 90.1811 60.1321 90.2464 60.0995 90.3225Z" fill="#708D9A"/>
<path d="M60.2084 90.1158L57.5635 88.5811C57.5961 88.5049 57.6397 88.4396 57.6832 88.3743L60.3281 89.909C60.2846 89.9743 60.241 90.0396 60.2084 90.1158Z" fill="#73929F"/>
<path d="M60.328 89.909L57.6831 88.3743C57.7266 88.2981 57.7702 88.2328 57.8137 88.1675L60.4586 89.7022C60.4042 89.7675 60.3607 89.8328 60.328 89.909Z" fill="#7696A4"/>
<path d="M60.4476 89.6909L57.8027 88.1562C57.8463 88.08 57.9007 88.0038 57.9442 87.9385L60.5891 89.4732C60.5456 89.5494 60.4912 89.6256 60.4476 89.6909Z" fill="#7A9AA8"/>
<path d="M60.6002 89.4845L57.9553 87.9498C58.0097 87.8736 58.0642 87.7974 58.1186 87.7212L60.7635 89.2559C60.6982 89.3321 60.6438 89.3974 60.6002 89.4845Z" fill="#7D9EAD"/>
<path d="M60.7526 89.2556L58.1077 87.7209C58.173 87.6338 58.2383 87.5576 58.3036 87.4814L60.9485 89.0161C60.8941 89.0923 60.8179 89.1685 60.7526 89.2556Z" fill="#80A3B2"/>
<path d="M60.9594 89.0164L58.3145 87.4817C58.4015 87.3838 58.4886 87.2858 58.5866 87.1987L61.2315 88.7334C61.1335 88.8096 61.0464 88.9076 60.9594 89.0164Z" fill="#84A7B7"/>
<path d="M61.2313 88.7223L58.5864 87.1876C58.8477 86.9264 59.1198 86.7087 59.4136 86.5454L62.0585 88.0801C61.7647 88.2434 61.4925 88.4611 61.2313 88.7223Z" fill="#87ABBB"/>
<path d="M62.0586 88.0803C63.4192 87.2857 64.5294 87.917 64.5403 89.4953C64.5512 91.0626 63.4518 92.9783 62.0804 93.7728C60.709 94.5565 59.5988 93.9252 59.5879 92.3579C59.5879 90.7796 60.6872 88.8749 62.0586 88.0803Z" fill="url(#paint0_linear_607_23666)"/>
<path d="M41.7483 96.5919L39.0925 95.0681L79.8 71.4817L82.4558 73.0273L41.7483 96.5919Z" fill="#BFD4DB"/>
<path d="M82.4559 73.0269L79.8001 71.4813L79.5498 10.5181L82.1947 12.0528L82.4559 73.0269Z" fill="#778488"/>
<path d="M82.1945 12.053L82.4558 73.0271L41.7483 96.5918L41.4871 35.6285L82.1945 12.053Z" fill="url(#paint1_linear_607_23666)"/>
<path d="M41.4872 35.6283L38.8423 34.0936L79.5498 10.5181L82.1947 12.0528L41.4872 35.6283Z" fill="#91B8C9"/>
<path d="M41.7484 96.5917L39.0926 95.0679L38.8423 34.0938L41.4872 35.6284L41.7484 96.5917Z" fill="#5A727D"/>
<path d="M38.592 108.499L38.2872 35.4761L35.6423 33.9414L35.9471 106.965C35.9471 107.639 36.1866 108.107 36.5784 108.325L39.2233 109.871C38.8315 109.642 38.592 109.174 38.592 108.499Z" fill="url(#paint2_linear_607_23666)"/>
<path d="M83.5116 6.82861C84.6871 6.14289 85.6449 6.68711 85.6449 8.04766L85.9497 81.0708C85.9497 82.4204 85.0028 84.0749 83.8272 84.7497L40.7252 109.708C39.5497 110.393 38.5919 109.849 38.5919 108.488L38.2871 35.4762C38.2871 34.1157 39.234 32.4721 40.4096 31.7973L83.5116 6.82861ZM82.4558 73.0273L82.1946 12.0531L41.4871 35.6286L41.7374 96.6028L82.4558 73.0273ZM62.0803 93.7728C63.4517 92.9783 64.5511 91.0626 64.5402 89.4953C64.5293 87.917 63.4191 87.2858 62.0585 88.0803C60.6871 88.8749 59.5878 90.7905 59.5878 92.3579C59.5987 93.9252 60.7089 94.5565 62.0803 93.7728Z" fill="#E7E7FF"/>
<path d="M82.3797 5.15238L82.3688 5.1415C82.3361 5.11973 82.2926 5.10884 82.2599 5.09796C82.2273 5.07619 82.1837 5.06531 82.1402 5.05442C82.1184 5.05442 82.0858 5.04354 82.064 5.04354C82.0531 5.04354 82.0531 5.04354 82.0422 5.04354C82.0313 5.04354 82.0205 5.04354 82.0205 5.04354C81.9878 5.01088 81.9443 5.01088 81.8899 5C81.8463 5 81.8028 5 81.7484 5C81.7375 5 81.7157 5.01088 81.7048 5.01088C81.6939 5.01088 81.683 5.01088 81.6722 5.01088C81.6504 5.01088 81.6177 5.01088 81.596 5.02177C81.5307 5.03265 81.4762 5.04354 81.4109 5.06531C81.3783 5.06531 81.3565 5.08707 81.3239 5.09796C81.3021 5.09796 81.2803 5.11973 81.2477 5.11973C81.215 5.13061 81.1824 5.1415 81.1497 5.15238C81.0626 5.18503 80.9647 5.23946 80.8558 5.29388L37.7647 30.2517C37.6232 30.3388 37.4926 30.4258 37.362 30.5347C37.3184 30.5673 37.2749 30.6109 37.2313 30.6544C37.166 30.698 37.1116 30.7633 37.0463 30.8177C37.0245 30.8395 36.9919 30.8721 36.9701 30.8939C36.9484 30.9156 36.9266 30.9483 36.8939 30.981C36.8613 31.0136 36.8395 31.0354 36.8177 31.068C36.7524 31.1333 36.698 31.1986 36.6436 31.2748C36.6327 31.2966 36.6109 31.3293 36.5892 31.351C36.5783 31.3619 36.5674 31.3837 36.5565 31.3946C36.5347 31.4272 36.5239 31.449 36.5021 31.4707C36.4586 31.5361 36.415 31.5905 36.3824 31.6558C36.3497 31.7211 36.3062 31.7755 36.2735 31.8408C36.2626 31.8408 36.2626 31.8517 36.2626 31.8517C36.2626 31.8517 36.2626 31.8626 36.2518 31.8626C36.2191 31.917 36.1973 31.9605 36.1647 32.015C36.132 32.0803 36.1103 32.1347 36.0776 32.2C36.0558 32.2544 36.0232 32.3088 36.0014 32.3633C36.0014 32.3633 36.0014 32.3633 36.0014 32.3741C36.0014 32.3741 36.0014 32.385 35.9905 32.385C35.9688 32.4503 35.9361 32.5048 35.9143 32.581C35.8926 32.6463 35.8708 32.7116 35.8381 32.7769C35.8273 32.8095 35.8164 32.8422 35.8055 32.8748C35.8055 32.8857 35.7946 32.9075 35.7946 32.9184C35.7837 32.9401 35.7837 32.9619 35.7728 32.9837C35.7511 33.0707 35.7293 33.1469 35.7184 33.234C35.7075 33.2776 35.6967 33.332 35.6967 33.3755C35.6967 33.4082 35.6858 33.4299 35.6749 33.4626C35.6749 33.4952 35.6749 33.5061 35.664 33.5388C35.6422 33.6803 35.6313 33.8218 35.6313 33.9524L38.2871 35.4762C38.2871 35.3238 38.298 35.1497 38.3198 34.9864C38.3198 34.9646 38.3307 34.9429 38.3307 34.9102C38.3524 34.7469 38.3851 34.5946 38.4395 34.4422C38.4395 34.4313 38.4504 34.4204 38.4504 34.3986C38.4939 34.2245 38.5592 34.0612 38.6354 33.898C38.6354 33.898 38.6354 33.898 38.6463 33.8871C38.7225 33.7129 38.8096 33.5497 38.8967 33.3864C38.8967 33.3864 38.8967 33.3755 38.9075 33.3646C38.9946 33.2122 39.0926 33.0599 39.2014 32.9075C39.2123 32.8966 39.2123 32.8857 39.2341 32.8748C39.332 32.7333 39.4409 32.6136 39.5497 32.4939C39.5715 32.4721 39.5933 32.4503 39.615 32.4286C39.7021 32.3306 39.8001 32.2435 39.898 32.1673C39.9307 32.1347 39.9742 32.0912 40.0177 32.0694C40.1484 31.9605 40.279 31.8626 40.4205 31.7864L83.5225 6.82857C83.664 6.75238 83.7837 6.68707 83.9143 6.64354C83.9361 6.63265 83.9579 6.63265 83.9905 6.62177C84.1103 6.57823 84.23 6.55646 84.3388 6.54558C84.3497 6.54558 84.3606 6.54558 84.3715 6.54558C84.4912 6.53469 84.6001 6.54558 84.7089 6.55646C84.7198 6.55646 84.7198 6.55646 84.7198 6.55646C84.8286 6.57823 84.9375 6.62177 85.0245 6.67619L82.3797 5.15238Z" fill="url(#paint3_linear_607_23666)"/>
<path opacity="0.8" d="M100.198 119.035C100.198 119.057 100.187 119.079 100.187 119.101C100.176 119.188 100.143 119.275 100.121 119.362C100.1 119.46 100.078 119.558 100.034 119.656C99.9909 119.797 99.9256 119.939 99.8603 120.069C99.8494 120.091 99.8385 120.113 99.8276 120.145C99.7514 120.298 99.6643 120.439 99.5555 120.592C99.5446 120.613 99.5228 120.635 99.512 120.657C99.414 120.788 99.316 120.918 99.1963 121.049C99.1745 121.071 99.1528 121.092 99.131 121.125C99.0113 121.256 98.8698 121.386 98.7283 121.517C98.6303 121.604 98.5324 121.68 98.4344 121.756C98.3473 121.822 98.2603 121.898 98.1732 121.963C98.0643 122.039 97.9446 122.105 97.8358 122.192C97.716 122.268 97.5963 122.355 97.4657 122.431C97.2589 122.551 97.0412 122.66 96.8235 122.769C96.7691 122.801 96.7038 122.823 96.6494 122.856C96.4534 122.943 96.2466 123.03 96.0398 123.117C96.0072 123.128 95.9854 123.15 95.9528 123.15C95.7351 123.237 95.4956 123.313 95.2671 123.378C95.1038 123.433 94.9296 123.476 94.7664 123.52C94.6466 123.552 94.5269 123.585 94.3963 123.618C94.2222 123.661 94.048 123.694 93.8739 123.726C93.7432 123.748 93.6126 123.781 93.4711 123.803C93.4276 123.813 93.3732 123.813 93.3188 123.824C93.0902 123.857 92.8725 123.89 92.6439 123.922C92.5786 123.933 92.5133 123.933 92.4589 123.944C92.3283 123.955 92.1977 123.966 92.0671 123.977C91.8602 123.998 91.6426 124.009 91.4358 124.02C91.2943 124.031 91.1528 124.031 91.0113 124.031C90.8371 124.031 90.6739 124.031 90.4997 124.031C90.3473 124.031 90.2058 124.02 90.0534 124.02C89.8902 124.02 89.7378 124.009 89.5745 123.998C89.4222 123.988 89.2698 123.977 89.1174 123.966C88.965 123.944 88.8126 123.933 88.6603 123.911C88.5079 123.89 88.3664 123.868 88.214 123.846C88.0507 123.824 87.8875 123.792 87.7242 123.759C87.5936 123.737 87.4521 123.705 87.3215 123.683C87.1256 123.639 86.9296 123.585 86.7337 123.53C86.6031 123.498 86.4834 123.465 86.3528 123.433C86.2875 123.411 86.2113 123.389 86.146 123.367C85.95 123.302 85.7541 123.247 85.5691 123.171C85.5147 123.15 85.4602 123.128 85.4058 123.106C85.2317 123.041 85.0684 122.964 84.9051 122.888C84.8181 122.856 84.731 122.812 84.6548 122.779C84.4154 122.671 84.1759 122.54 83.9582 122.409C82.0752 121.321 81.1392 119.895 81.1392 118.469V119.471C81.1392 120.896 82.0752 122.322 83.9582 123.411C84.1868 123.541 84.4154 123.661 84.6548 123.77C84.7419 123.813 84.829 123.846 84.916 123.879C85.0575 123.944 85.1881 123.998 85.3405 124.064C85.3623 124.075 85.3949 124.086 85.4167 124.086C85.4711 124.107 85.5256 124.129 85.58 124.151C85.765 124.216 85.9609 124.281 86.1568 124.347C86.2222 124.369 86.2983 124.39 86.3637 124.412C86.4072 124.423 86.4507 124.445 86.4943 124.456C86.5705 124.477 86.6575 124.488 86.7337 124.51C86.9296 124.564 87.1364 124.619 87.3324 124.662C87.3868 124.673 87.4412 124.684 87.4847 124.695C87.5609 124.706 87.648 124.717 87.7242 124.739C87.8875 124.771 88.0507 124.804 88.2249 124.826C88.2902 124.837 88.3664 124.847 88.4317 124.858C88.5079 124.869 88.5841 124.88 88.6603 124.88C88.8126 124.902 88.9759 124.913 89.1283 124.935C89.2045 124.945 89.2807 124.956 89.3569 124.956C89.4222 124.967 89.4983 124.967 89.5745 124.967C89.7378 124.978 89.9011 124.989 90.0534 124.989C90.1405 124.989 90.2167 125 90.2929 125C90.3582 125 90.4235 125 90.4888 125C90.663 125 90.8371 125 91.0004 125C91.0875 125 91.1745 125 91.2616 125C91.316 125 91.3705 124.989 91.414 124.989C91.6317 124.978 91.8385 124.967 92.0562 124.945C92.1432 124.935 92.2303 124.935 92.3174 124.924C92.3609 124.924 92.4045 124.913 92.448 124.913C92.5133 124.902 92.5786 124.902 92.633 124.891C92.8616 124.869 93.0793 124.837 93.3079 124.793C93.3623 124.782 93.4058 124.782 93.4602 124.771C93.482 124.771 93.5147 124.76 93.5364 124.76C93.6453 124.739 93.7541 124.717 93.8521 124.695C94.0262 124.662 94.2004 124.63 94.3637 124.586C94.4943 124.554 94.6249 124.521 94.7555 124.477C94.9188 124.434 95.082 124.39 95.2344 124.347C95.2671 124.336 95.3106 124.325 95.3432 124.314C95.5392 124.249 95.7351 124.184 95.931 124.107C95.9528 124.096 95.9854 124.086 96.0072 124.075C96.214 123.988 96.4208 123.901 96.6276 123.813C96.682 123.792 96.7473 123.759 96.8017 123.737C97.0194 123.628 97.2371 123.52 97.4439 123.4C97.4875 123.378 97.5201 123.356 97.5637 123.335C97.6507 123.28 97.7378 123.215 97.8249 123.16C97.9337 123.095 98.0535 123.019 98.1514 122.943C98.2494 122.877 98.3364 122.801 98.4235 122.725C98.5215 122.649 98.6194 122.573 98.7174 122.486C98.7392 122.464 98.7609 122.453 98.7827 122.431C98.9024 122.322 99.0222 122.203 99.1201 122.083C99.1419 122.061 99.1637 122.039 99.1854 122.018C99.2507 121.941 99.316 121.876 99.3705 121.8C99.414 121.745 99.4575 121.68 99.5011 121.626C99.512 121.604 99.5337 121.582 99.5446 121.571C99.6208 121.462 99.6861 121.354 99.7514 121.234C99.7732 121.201 99.7949 121.158 99.8058 121.125C99.8167 121.103 99.8276 121.081 99.8385 121.06C99.8929 120.94 99.9582 120.82 100.002 120.701C100.013 120.679 100.013 120.657 100.024 120.635C100.056 120.537 100.078 120.45 100.1 120.352C100.121 120.287 100.143 120.222 100.154 120.156C100.154 120.135 100.165 120.102 100.165 120.08C100.165 120.058 100.176 120.037 100.176 120.015C100.198 119.884 100.209 119.743 100.219 119.612C100.219 119.579 100.219 119.558 100.219 119.525V118.524C100.23 118.709 100.219 118.861 100.198 119.035Z" fill="url(#paint4_linear_607_23666)"/>
<path d="M97.4112 114.595C101.155 116.761 101.177 120.254 97.4547 122.42C93.7322 124.586 87.6805 124.586 83.9363 122.42C80.1921 120.254 80.1703 116.761 83.8928 114.595C87.6261 112.439 93.6669 112.439 97.4112 114.595Z" fill="url(#paint5_linear_607_23666)"/>
<path opacity="0.8" d="M90.6084 119.514L89.5308 118.894L89.4873 103.46L90.5649 104.08L90.6084 119.514Z" fill="url(#paint6_linear_607_23666)"/>
<path d="M90.5649 104.08L89.4873 103.46L90.7499 102.731L91.8166 103.362L90.5649 104.08Z" fill="#41C0FD"/>
<path d="M91.8166 103.362L91.8602 118.796L90.6085 119.515L90.5649 104.081L91.8166 103.362Z" fill="#D4ECFF"/>
<path d="M99.414 83.7047L98.7065 83.2911L100.165 82.4421L100.883 82.8666L99.414 83.7047Z" fill="#C5F9FF"/>
<path d="M80.4425 94.6652L79.7241 94.2516L81.1935 93.4026L81.9119 93.8162L80.4425 94.6652Z" fill="#329CD7"/>
<path d="M99.3595 94.4805C99.3704 94.3825 99.3813 94.2846 99.3922 94.1757C99.4031 94.0995 99.4031 94.0233 99.414 93.958C99.4357 93.7295 99.4466 93.5009 99.4466 93.2832L99.414 83.7158L98.7065 83.3022L98.7391 92.8696C98.7391 93.0982 98.7282 93.3159 98.7065 93.5444C98.6956 93.6206 98.6956 93.6968 98.6847 93.7621C98.6738 93.9036 98.652 94.056 98.6303 94.1975C98.6085 94.3608 98.5759 94.524 98.5432 94.6873C98.5214 94.7961 98.4997 94.905 98.4779 95.0247C98.4561 95.1227 98.4235 95.2315 98.4017 95.3403C98.3691 95.4818 98.3255 95.6342 98.282 95.7757C98.2602 95.8628 98.2384 95.939 98.2058 96.0261C98.1514 96.1893 98.0969 96.3635 98.0425 96.5267C98.0208 96.592 97.999 96.6574 97.9772 96.7227C97.8901 96.9512 97.8031 97.1689 97.7051 97.3975C97.6942 97.4301 97.6833 97.4519 97.6725 97.4846C97.5854 97.6805 97.4874 97.8873 97.3895 98.0832C97.3568 98.1376 97.335 98.2029 97.3024 98.2573C97.2044 98.4533 97.0956 98.6383 96.9976 98.8233C96.9759 98.856 96.965 98.8886 96.9432 98.9104C96.8235 99.1281 96.6929 99.3349 96.5514 99.5417C96.5187 99.5961 96.4752 99.6505 96.4316 99.7159C96.3337 99.8682 96.2248 100.01 96.116 100.162C96.0616 100.238 96.0071 100.314 95.9527 100.391C95.8657 100.51 95.7677 100.63 95.6697 100.75C95.5935 100.848 95.5174 100.935 95.4412 101.033C95.365 101.12 95.2779 101.207 95.2017 101.305C95.0711 101.457 94.9296 101.599 94.799 101.74C94.7119 101.827 94.6248 101.914 94.5378 102.002C94.4725 102.067 94.3963 102.132 94.331 102.197C94.2112 102.306 94.1024 102.404 93.9827 102.502C93.9065 102.557 93.8412 102.622 93.765 102.676C93.6344 102.774 93.5146 102.872 93.384 102.97C93.3187 103.014 93.2643 103.068 93.199 103.101C93.0031 103.232 92.8071 103.362 92.6112 103.471L87.3867 106.486C87.2017 106.595 87.0058 106.682 86.8208 106.78C86.7663 106.802 86.7228 106.823 86.6793 106.845C86.5051 106.921 86.3201 106.997 86.1459 107.052C86.135 107.052 86.1242 107.052 86.1133 107.063C85.9609 107.117 85.8085 107.15 85.667 107.193C85.5799 107.215 85.4929 107.226 85.4167 107.248C85.3078 107.27 85.199 107.28 85.0901 107.302C85.0248 107.313 84.9704 107.313 84.9051 107.313C84.7745 107.324 84.6439 107.324 84.5133 107.324C84.4806 107.324 84.4589 107.324 84.4262 107.324C84.2629 107.313 84.1214 107.291 83.9691 107.27C83.9364 107.259 83.8929 107.259 83.8602 107.248C83.7405 107.226 83.6316 107.183 83.5228 107.15C83.4901 107.139 83.4466 107.128 83.414 107.117C83.2725 107.063 83.1418 106.997 83.0112 106.921L83.7187 107.335C83.7296 107.335 83.7405 107.346 83.7514 107.357C83.8493 107.411 83.9473 107.466 84.0561 107.509C84.0779 107.52 84.0997 107.52 84.1214 107.531C84.1541 107.542 84.1867 107.553 84.2303 107.563C84.2847 107.585 84.3391 107.607 84.3935 107.618C84.448 107.64 84.5133 107.64 84.5677 107.661C84.6003 107.672 84.6439 107.672 84.6765 107.683C84.6983 107.683 84.7201 107.694 84.731 107.694C84.8507 107.716 84.9704 107.727 85.101 107.738C85.1119 107.738 85.1228 107.738 85.1228 107.738C85.1555 107.738 85.1772 107.738 85.2099 107.738C85.3078 107.738 85.4058 107.749 85.5037 107.738C85.5364 107.738 85.5691 107.727 85.6017 107.727C85.667 107.727 85.7214 107.716 85.7867 107.705C85.8412 107.705 85.8956 107.694 85.9609 107.694C86.0153 107.683 86.0588 107.672 86.1133 107.661C86.2003 107.651 86.2765 107.629 86.3636 107.607C86.4072 107.596 86.4507 107.585 86.5051 107.574C86.614 107.542 86.7119 107.509 86.8208 107.476C86.8316 107.476 86.8425 107.476 86.8534 107.466C86.984 107.422 87.1037 107.378 87.2344 107.324C87.2888 107.302 87.3432 107.28 87.3867 107.259C87.4303 107.237 87.4847 107.215 87.5282 107.193C87.7133 107.106 87.8983 107.008 88.0942 106.9L93.3187 103.885C93.5146 103.776 93.7106 103.645 93.9065 103.514C93.9718 103.471 94.0262 103.427 94.0915 103.384C94.2221 103.286 94.3527 103.188 94.4833 103.09C94.5486 103.036 94.6248 102.981 94.6901 102.916C94.8099 102.818 94.9296 102.72 95.0384 102.611C95.1038 102.546 95.1799 102.491 95.2452 102.415C95.2888 102.372 95.3323 102.339 95.3759 102.295C95.4194 102.252 95.4629 102.197 95.5065 102.154C95.648 102.012 95.7786 101.871 95.9092 101.729C95.9527 101.675 95.9963 101.632 96.0398 101.588C96.0725 101.544 96.1051 101.501 96.1486 101.457C96.2248 101.359 96.301 101.272 96.3772 101.174C96.4316 101.109 96.4861 101.044 96.5405 100.978C96.584 100.924 96.6167 100.87 96.6602 100.815C96.7146 100.739 96.7691 100.663 96.8235 100.587C96.867 100.532 96.9106 100.478 96.9432 100.423C97.0085 100.336 97.0738 100.238 97.1282 100.14C97.1718 100.086 97.2044 100.021 97.248 99.9662C97.2589 99.9444 97.2806 99.9227 97.2915 99.89C97.4003 99.7158 97.5092 99.5417 97.6072 99.3676C97.6072 99.3567 97.618 99.3458 97.6289 99.3349C97.6507 99.2914 97.6725 99.2587 97.6942 99.2152C97.7595 99.0954 97.8357 98.9757 97.901 98.856C97.9337 98.7907 97.9555 98.7363 97.9881 98.6818C98.0208 98.6165 98.0534 98.5621 98.0752 98.4968C98.1078 98.4424 98.1296 98.388 98.1622 98.3335C98.2276 98.192 98.3037 98.0505 98.3582 97.909C98.3691 97.8873 98.3799 97.8546 98.3908 97.822C98.3908 97.8111 98.3908 97.8111 98.4017 97.8002C98.4779 97.6152 98.5541 97.4301 98.6303 97.256C98.6412 97.2233 98.652 97.1907 98.6629 97.1471C98.6847 97.0818 98.7065 97.0165 98.7391 96.9512C98.7718 96.8533 98.8044 96.7662 98.8371 96.6791C98.8589 96.6029 98.8806 96.5376 98.9024 96.4614C98.9242 96.3744 98.9568 96.2873 98.9786 96.2111C98.9895 96.1567 99.0112 96.1131 99.0221 96.0587C99.0439 95.9608 99.0656 95.8737 99.0874 95.7757C99.1092 95.6669 99.1418 95.5689 99.1636 95.4601C99.1745 95.4274 99.1854 95.3839 99.1854 95.3512C99.1963 95.275 99.2071 95.1988 99.218 95.1227C99.2507 94.9594 99.2833 94.7961 99.3051 94.6329C99.3486 94.5676 99.3595 94.524 99.3595 94.4805Z" fill="#41C0FD"/>
<path d="M80.4643 104.461L80.4316 94.6656L79.7241 94.252L79.7568 104.059C79.7677 106.323 80.5622 107.912 81.8466 108.663L82.5649 109.076C81.2697 108.325 80.4751 106.725 80.4643 104.461Z" fill="#41C0FD"/>
<path d="M100.883 82.8667L100.916 92.6735C100.927 97.2232 97.7267 102.774 93.7648 105.06L87.6696 108.576C83.7077 110.861 80.4859 109.033 80.475 104.472L80.4424 94.6762L81.9118 93.8272L81.9444 103.395C81.9553 107.291 84.7091 108.859 88.105 106.91L93.3295 103.895C96.7254 101.936 99.4574 97.1905 99.4574 93.2939L99.4247 83.7266L100.883 82.8667Z" fill="#D4ECFF"/>
<path d="M100.285 96.3088C100.285 101.892 95.7567 106.42 90.173 106.42H88.9104C83.3267 106.42 78.7988 101.892 78.7988 96.3088V72.7986C78.7988 67.2149 83.3267 62.687 88.9104 62.687H90.173C95.7567 62.687 100.285 67.2149 100.285 72.7986V96.3088Z" fill="url(#paint7_linear_607_23666)"/>
<path opacity="0.2" d="M78.7988 72.7988V96.309C78.7988 101.196 82.2601 105.267 86.8641 106.214C90.0315 104.505 92.1866 101.163 92.1866 97.3104V73.7893C92.1866 68.9022 88.7254 64.8315 84.1213 63.8845C80.9539 65.5934 78.7988 68.9457 78.7988 72.7988Z" fill="url(#paint8_linear_607_23666)"/>
<path opacity="0.5" d="M87.2232 76.3795C89.5416 76.717 98.7498 78.0666 100.284 72.4612V74.6816C100.284 74.6816 97.7702 79.7646 87.2232 77.8925C86.4287 77.751 85.9389 76.1945 87.2232 76.3795Z" fill="url(#paint9_linear_607_23666)"/>
<path opacity="0.5" d="M87.2232 81.4301C89.5416 81.7675 98.7498 83.1172 100.284 77.5117V79.7321C100.284 79.7321 97.7702 84.8042 87.2232 82.943C86.4287 82.8015 85.9389 81.2451 87.2232 81.4301Z" fill="url(#paint10_linear_607_23666)"/>
<path opacity="0.5" d="M87.2232 86.4911C89.5416 86.8177 98.7498 88.1782 100.284 82.5728V84.7932C100.284 84.7932 97.7702 89.8762 87.2232 88.004C86.4287 87.8625 85.9389 86.3061 87.2232 86.4911Z" fill="url(#paint11_linear_607_23666)"/>
<path opacity="0.5" d="M87.2232 91.5417C89.5416 91.8682 98.7498 93.2287 100.284 87.6233V89.8437C100.284 89.8437 97.7702 94.9267 87.2232 93.0655C86.4287 92.9131 85.9389 91.3566 87.2232 91.5417Z" fill="url(#paint12_linear_607_23666)"/>
<path opacity="0.4" d="M95.1361 64.7877C95.1361 65.9523 92.6327 66.8884 89.5416 66.8884C86.4504 66.8884 83.947 65.9523 83.947 64.7877C83.947 63.634 86.4504 62.687 89.5416 62.687C92.6327 62.687 95.1361 63.6231 95.1361 64.7877Z" fill="white"/>
<path d="M81.9119 93.8164L81.1935 93.4028L79.7241 94.2518L80.4425 94.6654L81.9119 93.8164Z" fill="#C5F9FF"/>
<path d="M86.8207 106.769C86.7663 106.79 86.7227 106.812 86.6792 106.834C86.5051 106.91 86.32 106.986 86.1459 107.041C86.135 107.041 86.1241 107.041 86.1132 107.052C85.9608 107.106 85.8085 107.139 85.667 107.182C85.5799 107.204 85.4928 107.215 85.4166 107.237C85.3078 107.258 85.1989 107.269 85.0901 107.291C85.0248 107.302 84.9704 107.302 84.9051 107.302C84.7744 107.313 84.6438 107.313 84.5132 107.313C84.4806 107.313 84.4588 107.313 84.4261 107.313C84.2629 107.302 84.1214 107.28 83.969 107.258C83.9363 107.247 83.8928 107.247 83.8602 107.237C83.7404 107.215 83.6316 107.171 83.5227 107.139C83.4901 107.128 83.4466 107.117 83.4139 107.106C83.403 107.095 83.3921 107.095 83.3704 107.084C83.5989 107.269 83.8602 107.411 84.1323 107.52C84.1649 107.53 84.1867 107.541 84.2193 107.552C84.2302 107.552 84.2302 107.552 84.2302 107.563C84.3391 107.596 84.4588 107.628 84.5676 107.661C84.6003 107.661 84.6221 107.672 84.6547 107.683H84.6656C84.818 107.705 84.9704 107.726 85.1227 107.737C85.1445 107.737 85.1772 107.737 85.1989 107.737C85.2098 107.737 85.2207 107.737 85.2207 107.737C85.3513 107.748 85.471 107.737 85.6016 107.726C85.6561 107.726 85.7214 107.715 85.7758 107.705C85.7758 107.705 85.7758 107.705 85.7867 107.705C85.8955 107.694 86.0044 107.672 86.1132 107.661C86.1894 107.65 86.2765 107.628 86.3527 107.607C86.3527 107.607 86.3527 107.607 86.3636 107.607C86.5159 107.574 86.6683 107.53 86.8316 107.476H86.8425C86.8425 107.476 86.8534 107.465 86.8642 107.465C87.0275 107.411 87.2017 107.335 87.3758 107.258C87.4193 107.237 87.4738 107.215 87.5173 107.193C87.7023 107.106 87.8874 107.008 88.0833 106.899L89.3568 106.322L87.6153 106.344L87.3758 106.486C87.2017 106.583 87.0057 106.681 86.8207 106.769Z" fill="url(#paint13_linear_607_23666)"/>
<path d="M81.8792 108.532C81.8248 108.478 81.7595 108.423 81.7051 108.358C81.6289 108.271 81.5636 108.184 81.4983 108.086C81.4439 108.02 81.3894 107.955 81.3459 107.879C81.2806 107.781 81.2262 107.672 81.1717 107.563C81.1282 107.487 81.0847 107.422 81.052 107.335C80.9976 107.215 80.9541 107.095 80.9105 106.976C80.8779 106.888 80.8452 106.812 80.8126 106.725C80.769 106.595 80.7364 106.453 80.7037 106.312C80.6819 106.214 80.6493 106.137 80.6275 106.039C80.5949 105.887 80.5731 105.713 80.5513 105.55C80.5404 105.463 80.5187 105.376 80.5078 105.278C80.486 105.016 80.4643 104.744 80.4643 104.461L80.4316 94.6653L79.7241 94.2517L79.7568 104.059C79.7677 106.322 80.5622 107.912 81.8466 108.663L82.5649 109.076C82.4779 109.022 82.4017 108.956 82.3146 108.902C82.2493 108.859 82.1731 108.815 82.1187 108.761C82.0316 108.684 81.9554 108.608 81.8792 108.532Z" fill="url(#paint14_linear_607_23666)"/>
<path d="M87.3865 107.247C87.2123 107.324 87.0382 107.4 86.8749 107.454C86.8641 107.454 86.8532 107.465 86.8423 107.465C86.679 107.519 86.5266 107.563 86.3743 107.596C86.2872 107.617 86.211 107.628 86.1239 107.65C86.0151 107.672 85.9062 107.694 85.7974 107.694C85.7321 107.704 85.6777 107.715 85.6123 107.715C85.4817 107.726 85.3511 107.726 85.2314 107.726C85.1987 107.726 85.1661 107.726 85.1334 107.726C84.9811 107.715 84.8287 107.694 84.6763 107.672C84.6436 107.672 84.611 107.65 84.5783 107.65C84.4586 107.628 84.3498 107.596 84.2409 107.552C84.2083 107.541 84.1647 107.53 84.1321 107.509C83.8491 107.4 83.5987 107.258 83.3702 107.073C82.4777 106.366 81.9334 105.092 81.9334 103.373L81.9008 93.8052L80.4314 94.6542L80.464 104.45C80.464 104.733 80.4749 105.005 80.5076 105.266C80.5185 105.364 80.5294 105.441 80.5511 105.539C80.5729 105.702 80.5947 105.865 80.6273 106.028C80.6491 106.126 80.6709 106.213 80.7035 106.3C80.7362 106.442 80.7688 106.583 80.8123 106.714C80.845 106.801 80.8777 106.888 80.9103 106.964C80.9538 107.084 80.9974 107.215 81.0518 107.324C81.0845 107.4 81.1389 107.476 81.1715 107.552C81.226 107.661 81.2804 107.77 81.3457 107.868C81.3892 107.944 81.4436 107.998 81.4981 108.075C81.5634 108.162 81.6287 108.26 81.7049 108.347C81.7593 108.412 81.8246 108.456 81.879 108.521C81.9552 108.597 82.0314 108.673 82.1185 108.749C82.1838 108.804 82.2491 108.847 82.3144 108.891C83.6314 109.816 85.5362 109.794 87.6695 108.564L91.86 106.148L89.2368 106.246L88.1049 106.888C87.8545 107.03 87.6259 107.149 87.3865 107.247Z" fill="#C5F9FF"/>
<path d="M87.3865 107.247C87.2123 107.324 87.0382 107.4 86.8749 107.454C86.8641 107.454 86.8532 107.465 86.8423 107.465C86.679 107.519 86.5266 107.563 86.3743 107.596C86.2872 107.617 86.211 107.628 86.1239 107.65C86.0151 107.672 85.9062 107.694 85.7974 107.694C85.7321 107.704 85.6777 107.715 85.6123 107.715C85.4817 107.726 85.3511 107.726 85.2314 107.726C85.1987 107.726 85.1661 107.726 85.1334 107.726C84.9811 107.715 84.8287 107.694 84.6763 107.672C84.6436 107.672 84.611 107.65 84.5783 107.65C84.4586 107.628 84.3498 107.596 84.2409 107.552C84.2083 107.541 84.1647 107.53 84.1321 107.509C83.8491 107.4 83.5987 107.258 83.3702 107.073C82.4777 106.366 81.9334 105.092 81.9334 103.373L81.9008 93.8052L80.4314 94.6542L80.464 104.45C80.464 104.733 80.4749 105.005 80.5076 105.266C80.5185 105.364 80.5294 105.441 80.5511 105.539C80.5729 105.702 80.5947 105.865 80.6273 106.028C80.6491 106.126 80.6709 106.213 80.7035 106.3C80.7362 106.442 80.7688 106.583 80.8123 106.714C80.845 106.801 80.8777 106.888 80.9103 106.964C80.9538 107.084 80.9974 107.215 81.0518 107.324C81.0845 107.4 81.1389 107.476 81.1715 107.552C81.226 107.661 81.2804 107.77 81.3457 107.868C81.3892 107.944 81.4436 107.998 81.4981 108.075C81.5634 108.162 81.6287 108.26 81.7049 108.347C81.7593 108.412 81.8246 108.456 81.879 108.521C81.9552 108.597 82.0314 108.673 82.1185 108.749C82.1838 108.804 82.2491 108.847 82.3144 108.891C83.6314 109.816 85.5362 109.794 87.6695 108.564L91.86 106.148L89.2368 106.246L88.1049 106.888C87.8545 107.03 87.6259 107.149 87.3865 107.247Z" fill="#D4ECFF"/>
<g opacity="0.2">
<path d="M23.2016 72.6572L23.2234 80.5266L21.3948 81.5824L21.373 73.713L23.2016 72.6572Z" fill="#E7E7FF"/>
<path d="M15.909 76.8691L15.9308 84.7385L14.1131 85.7943L14.0913 77.914L15.909 76.8691Z" fill="#E7E7FF"/>
<path d="M32.9321 67.0408L32.9539 74.9102L31.1253 75.9659L31.1035 68.0966L32.9321 67.0408Z" fill="#E7E7FF"/>
<path d="M29.2641 64.2656L29.3077 81.7241L27.49 82.769L27.4355 65.3105L29.2641 64.2656Z" fill="#E7E7FF"/>
<path d="M19.5445 69.8708L19.588 87.3294L17.7703 88.3851L17.7268 70.9266L19.5445 69.8708Z" fill="#E7E7FF"/>
<path d="M26.2164 62.1646L26.2926 88.004L24.4749 89.0598L24.3987 63.2094L26.2164 62.1646Z" fill="#E7E7FF"/>
<path d="M91.8708 32.6572L91.9035 40.5375L90.0749 41.5933L90.0422 33.713L91.8708 32.6572Z" fill="#E7E7FF"/>
<path d="M84.5784 36.8691L84.6111 44.7494L82.7716 45.8052L82.7607 37.9249L84.5784 36.8691Z" fill="#E7E7FF"/>
<path d="M101.602 27.0408L101.623 34.921L99.7947 35.9768L99.7729 28.0966L101.602 27.0408Z" fill="#E7E7FF"/>
<path d="M97.9334 24.2656L97.9769 41.7132L96.1701 42.769L96.1157 25.3105L97.9334 24.2656Z" fill="#E7E7FF"/>
<path d="M88.2029 29.8708L88.2574 47.3294L86.4397 48.3851L86.3853 30.9266L88.2029 29.8708Z" fill="#E7E7FF"/>
<path d="M94.875 22.1865L94.9512 48.0151L93.1553 49.06L93.0791 23.2205L94.875 22.1865Z" fill="#E7E7FF"/>
<path d="M105.248 25.2886L105.28 37.5008L103.452 38.5675L103.419 26.3444L105.248 25.2886Z" fill="#E7E7FF"/>
<path d="M114.967 19.6721L114.989 27.5415L113.161 28.5973L113.139 20.7279L114.967 19.6721Z" fill="#E7E7FF"/>
<path d="M111.299 16.8967L111.343 34.3552L109.536 35.4001L109.482 17.9416L111.299 16.8967Z" fill="#E7E7FF"/>
<path d="M108.263 14.7959L108.328 40.6354L106.521 41.6911L106.445 15.8517L108.263 14.7959Z" fill="#E7E7FF"/>
<path d="M40.1921 55.8521L40.2356 70.7092L38.4179 71.7541L38.3853 56.8969L40.1921 55.8521Z" fill="#E7E7FF"/>
<path d="M49.9443 57.2231L49.977 72.2327L48.1593 73.2776L48.1157 58.268L49.9443 57.2231Z" fill="#E7E7FF"/>
<path d="M46.2763 54.4368L46.3307 71.8953L44.5022 72.9511L44.4478 55.4817L46.2763 54.4368Z" fill="#E7E7FF"/>
<path d="M57.2042 44.2708L57.2477 60.8803L55.43 61.9361L55.3865 45.3265L57.2042 44.2708Z" fill="#E7E7FF"/>
<path d="M53.5798 50.2244L53.6342 67.6829L51.7948 68.7386L51.7512 51.2801L53.5798 50.2244Z" fill="#E7E7FF"/>
<path d="M36.5566 60.0532L36.611 77.5117L34.7825 78.5675L34.728 61.0981L36.5566 60.0532Z" fill="#E7E7FF"/>
<path d="M43.2287 52.3469L43.3049 78.1864L41.4981 79.2313L41.4219 53.3809L43.2287 52.3469Z" fill="#E7E7FF"/>
<path d="M64.5295 48.7988L64.5513 56.6573L62.7336 57.724L62.7009 49.8546L64.5295 48.7988Z" fill="#E7E7FF"/>
<path d="M74.2492 43.1824L74.3036 58.1919L72.4751 59.2477L72.4207 44.2382L74.2492 43.1824Z" fill="#E7E7FF"/>
<path d="M70.5812 40.4065L70.6356 57.865L68.8179 58.9099L68.7744 41.4514L70.5812 40.4065Z" fill="#E7E7FF"/>
<path d="M81.5416 38.9812L81.5633 46.8506L79.7456 47.8955L79.7239 40.0152L81.5416 38.9812Z" fill="#E7E7FF"/>
<path d="M77.9062 44.9128L77.928 53.6421L76.1103 54.6979L76.0776 45.9686L77.9062 44.9128Z" fill="#E7E7FF"/>
<path d="M60.8614 46.0229L60.9158 63.4706L59.0981 64.5264L59.0437 47.057L60.8614 46.0229Z" fill="#E7E7FF"/>
<path d="M67.5335 38.3062L67.6097 64.1565L65.8029 65.2014L65.7375 39.3511L67.5335 38.3062Z" fill="#E7E7FF"/>
</g>
<path d="M27.3757 73.8345L27.3975 81.7039L25.5689 82.7596L25.5471 74.8902L27.3757 73.8345Z" fill="#D4ECFF"/>
<path d="M27.3757 73.8345L27.3975 81.7039L25.5689 82.7596L25.5471 74.8902L27.3757 73.8345Z" fill="#5793CE"/>
<path d="M20.0831 78.0464L20.1048 85.9158L18.2871 86.9716L18.2654 79.0913L20.0831 78.0464Z" fill="#D4ECFF"/>
<path d="M20.0831 78.0464L20.1048 85.9158L18.2871 86.9716L18.2654 79.0913L20.0831 78.0464Z" fill="#5793CE"/>
<path d="M37.1062 68.218L37.1279 76.0874L35.2994 77.1432L35.2776 69.2738L37.1062 68.218Z" fill="#D4ECFF"/>
<path d="M37.1062 68.218L37.1279 76.0874L35.2994 77.1432L35.2776 69.2738L37.1062 68.218Z" fill="#5793CE"/>
<path d="M33.4382 65.4426L33.4817 82.9011L31.664 83.946L31.6096 66.4875L33.4382 65.4426Z" fill="#D4ECFF"/>
<path d="M33.4382 65.4426L33.4817 82.9011L31.664 83.946L31.6096 66.4875L33.4382 65.4426Z" fill="#5793CE"/>
<path d="M23.7183 71.0481L23.7619 88.5066L21.9442 89.5624L21.9006 72.1039L23.7183 71.0481Z" fill="#D4ECFF"/>
<path d="M23.7183 71.0481L23.7619 88.5066L21.9442 89.5624L21.9006 72.1039L23.7183 71.0481Z" fill="#5793CE"/>
<path d="M30.3904 63.3418L30.4666 89.1813L28.6489 90.237L28.5728 64.3867L30.3904 63.3418Z" fill="#D4ECFF"/>
<path d="M30.3904 63.3418L30.4666 89.1813L28.6489 90.237L28.5728 64.3867L30.3904 63.3418Z" fill="#5793CE"/>
<path d="M96.0449 33.8345L96.0775 41.7147L94.249 42.7705L94.2163 34.8903L96.0449 33.8345Z" fill="#D4ECFF"/>
<path d="M96.0449 33.8345L96.0775 41.7147L94.249 42.7705L94.2163 34.8903L96.0449 33.8345Z" fill="#5793CE"/>
<path d="M88.7525 38.0464L88.7852 45.9267L86.9457 46.9824L86.9348 39.1022L88.7525 38.0464Z" fill="#D4ECFF"/>
<path d="M88.7525 38.0464L88.7852 45.9267L86.9457 46.9824L86.9348 39.1022L88.7525 38.0464Z" fill="#5793CE"/>
<path d="M105.776 28.218L105.797 36.0983L103.969 37.1541L103.947 29.2738L105.776 28.218Z" fill="#D4ECFF"/>
<path d="M105.776 28.218L105.797 36.0983L103.969 37.1541L103.947 29.2738L105.776 28.218Z" fill="#5793CE"/>
<path d="M102.107 25.4426L102.151 42.8902L100.344 43.946L100.29 26.4875L102.107 25.4426Z" fill="#D4ECFF"/>
<path d="M102.107 25.4426L102.151 42.8902L100.344 43.946L100.29 26.4875L102.107 25.4426Z" fill="#5793CE"/>
<path d="M92.377 31.0481L92.4314 48.5066L90.6138 49.5624L90.5593 32.1039L92.377 31.0481Z" fill="#D4ECFF"/>
<path d="M92.377 31.0481L92.4314 48.5066L90.6138 49.5624L90.5593 32.1039L92.377 31.0481Z" fill="#5793CE"/>
<path d="M99.0491 23.3638L99.1253 49.1923L97.3294 50.2372L97.2532 24.3978L99.0491 23.3638Z" fill="#D4ECFF"/>
<path d="M99.0491 23.3638L99.1253 49.1923L97.3294 50.2372L97.2532 24.3978L99.0491 23.3638Z" fill="#5793CE"/>
<path d="M109.422 26.4658L109.454 38.6781L107.626 39.7447L107.593 27.5216L109.422 26.4658Z" fill="#D4ECFF"/>
<path d="M109.422 26.4658L109.454 38.6781L107.626 39.7447L107.593 27.5216L109.422 26.4658Z" fill="#5793CE"/>
<path d="M119.142 20.8494L119.163 28.7188L117.335 29.7745L117.313 21.9051L119.142 20.8494Z" fill="#D4ECFF"/>
<path d="M119.142 20.8494L119.163 28.7188L117.335 29.7745L117.313 21.9051L119.142 20.8494Z" fill="#5793CE"/>
<path d="M115.473 18.074L115.517 35.5325L113.71 36.5774L113.656 19.1189L115.473 18.074Z" fill="#D4ECFF"/>
<path d="M115.473 18.074L115.517 35.5325L113.71 36.5774L113.656 19.1189L115.473 18.074Z" fill="#5793CE"/>
<path d="M112.437 15.9731L112.502 41.8126L110.695 42.8684L110.619 17.0289L112.437 15.9731Z" fill="#D4ECFF"/>
<path d="M112.437 15.9731L112.502 41.8126L110.695 42.8684L110.619 17.0289L112.437 15.9731Z" fill="#5793CE"/>
<path d="M44.3661 57.0291L44.4097 71.8862L42.592 72.9311L42.5593 58.0739L44.3661 57.0291Z" fill="#D4ECFF"/>
<path d="M44.3661 57.0291L44.4097 71.8862L42.592 72.9311L42.5593 58.0739L44.3661 57.0291Z" fill="#5793CE"/>
<path d="M54.1184 58.4004L54.151 73.4099L52.3333 74.4548L52.2898 59.4453L54.1184 58.4004Z" fill="#D4ECFF"/>
<path d="M54.1184 58.4004L54.151 73.4099L52.3333 74.4548L52.2898 59.4453L54.1184 58.4004Z" fill="#5793CE"/>
<path d="M50.4504 55.6138L50.5048 73.0723L48.6762 74.1281L48.6218 56.6587L50.4504 55.6138Z" fill="#D4ECFF"/>
<path d="M50.4504 55.6138L50.5048 73.0723L48.6762 74.1281L48.6218 56.6587L50.4504 55.6138Z" fill="#5793CE"/>
<path d="M61.3782 45.448L61.4218 62.0575L59.6041 63.1133L59.5605 46.5038L61.3782 45.448Z" fill="#D4ECFF"/>
<path d="M61.3782 45.448L61.4218 62.0575L59.6041 63.1133L59.5605 46.5038L61.3782 45.448Z" fill="#5793CE"/>
<path d="M57.7539 51.4016L57.8083 68.8601L55.9688 69.9159L55.9253 52.4574L57.7539 51.4016Z" fill="#D4ECFF"/>
<path d="M57.7539 51.4016L57.8083 68.8601L55.9688 69.9159L55.9253 52.4574L57.7539 51.4016Z" fill="#5793CE"/>
<path d="M40.7307 61.2305L40.7851 78.689L38.9565 79.7448L38.9021 62.2754L40.7307 61.2305Z" fill="#D4ECFF"/>
<path d="M40.7307 61.2305L40.7851 78.689L38.9565 79.7448L38.9021 62.2754L40.7307 61.2305Z" fill="#5793CE"/>
<path d="M47.4027 53.5242L47.4789 79.3636L45.6721 80.4085L45.5959 54.5582L47.4027 53.5242Z" fill="#D4ECFF"/>
<path d="M47.4027 53.5242L47.4789 79.3636L45.6721 80.4085L45.5959 54.5582L47.4027 53.5242Z" fill="#5793CE"/>
<path d="M68.7036 49.9761L68.7253 57.8346L66.9077 58.9012L66.875 51.0319L68.7036 49.9761Z" fill="#D4ECFF"/>
<path d="M68.7036 49.9761L68.7253 57.8346L66.9077 58.9012L66.875 51.0319L68.7036 49.9761Z" fill="#5793CE"/>
<path d="M78.4233 44.3596L78.4777 59.3691L76.6491 60.4249L76.5947 45.4154L78.4233 44.3596Z" fill="#D4ECFF"/>
<path d="M78.4233 44.3596L78.4777 59.3691L76.6491 60.4249L76.5947 45.4154L78.4233 44.3596Z" fill="#5793CE"/>
<path d="M74.7553 41.5837L74.8097 59.0422L72.992 60.0871L72.9485 42.6286L74.7553 41.5837Z" fill="#D4ECFF"/>
<path d="M74.7553 41.5837L74.8097 59.0422L72.992 60.0871L72.9485 42.6286L74.7553 41.5837Z" fill="#5793CE"/>
<path d="M85.7156 40.1584L85.7374 48.0278L83.9197 49.0727L83.8979 41.1925L85.7156 40.1584Z" fill="#D4ECFF"/>
<path d="M85.7156 40.1584L85.7374 48.0278L83.9197 49.0727L83.8979 41.1925L85.7156 40.1584Z" fill="#5793CE"/>
<path d="M82.0803 46.0901L82.1021 54.8193L80.2844 55.8751L80.2517 47.1459L82.0803 46.0901Z" fill="#D4ECFF"/>
<path d="M82.0803 46.0901L82.1021 54.8193L80.2844 55.8751L80.2517 47.1459L82.0803 46.0901Z" fill="#5793CE"/>
<path d="M65.0355 47.2002L65.0899 64.6478L63.2722 65.7036L63.2178 48.2342L65.0355 47.2002Z" fill="#D4ECFF"/>
<path d="M65.0355 47.2002L65.0899 64.6478L63.2722 65.7036L63.2178 48.2342L65.0355 47.2002Z" fill="#5793CE"/>
<path d="M71.7075 39.4834L71.7837 65.3337L69.9769 66.3786L69.9116 40.5283L71.7075 39.4834Z" fill="#D4ECFF"/>
<path d="M71.7075 39.4834L71.7837 65.3337L69.9769 66.3786L69.9116 40.5283L71.7075 39.4834Z" fill="#5793CE"/>
<defs>
<linearGradient id="paint0_linear_607_23666" x1="60.5534" y1="92.9857" x2="64.4036" y2="90.4955" gradientUnits="userSpaceOnUse">
<stop stop-color="#351053"/>
<stop offset="1" stop-color="#814DB2"/>
</linearGradient>
<linearGradient id="paint1_linear_607_23666" x1="49.4741" y1="81.6853" x2="88.3291" y2="66.0153" gradientUnits="userSpaceOnUse">
<stop stop-color="#351053"/>
<stop offset="1" stop-color="#814DB2"/>
</linearGradient>
<linearGradient id="paint2_linear_607_23666" x1="33.0001" y1="27" x2="29.4349" y2="27.4508" gradientUnits="userSpaceOnUse">
<stop stop-color="#B698CF"/>
<stop offset="1" stop-color="#8B64AE"/>
</linearGradient>
<linearGradient id="paint3_linear_607_23666" x1="78.5" y1="-14.5" x2="28.5012" y2="16.2336" gradientUnits="userSpaceOnUse">
<stop stop-color="#EDE4F4"/>
<stop offset="1" stop-color="#A17DC1"/>
</linearGradient>
<linearGradient id="paint4_linear_607_23666" x1="84.8598" y1="123.848" x2="87.9033" y2="116.447" gradientUnits="userSpaceOnUse">
<stop stop-color="#351053"/>
<stop offset="1" stop-color="#814DB2"/>
</linearGradient>
<linearGradient id="paint5_linear_607_23666" x1="86.9401" y1="112.37" x2="87.103" y2="124.009" gradientUnits="userSpaceOnUse">
<stop stop-color="#EDE4F4"/>
<stop offset="1" stop-color="#DDCDEB"/>
</linearGradient>
<linearGradient id="paint6_linear_607_23666" x1="89.7059" y1="116.684" x2="90.9379" y2="116.612" gradientUnits="userSpaceOnUse">
<stop stop-color="#351053"/>
<stop offset="1" stop-color="#814DB2"/>
</linearGradient>
<linearGradient id="paint7_linear_607_23666" x1="85.3457" y1="60.2848" x2="87.6047" y2="106.176" gradientUnits="userSpaceOnUse">
<stop stop-color="#EDE4F4"/>
<stop offset="1" stop-color="#DDCDEB"/>
</linearGradient>
<linearGradient id="paint8_linear_607_23666" x1="81.4088" y1="98.75" x2="95.2146" y2="95.1163" gradientUnits="userSpaceOnUse">
<stop stop-color="#351053"/>
<stop offset="1" stop-color="#814DB2"/>
</linearGradient>
<linearGradient id="paint9_linear_607_23666" x1="89.1335" y1="77.2758" x2="92.2577" y2="71.115" gradientUnits="userSpaceOnUse">
<stop stop-color="#351053"/>
<stop offset="1" stop-color="#814DB2"/>
</linearGradient>
<linearGradient id="paint10_linear_607_23666" x1="89.1335" y1="82.3234" x2="92.2546" y2="76.1648" gradientUnits="userSpaceOnUse">
<stop stop-color="#351053"/>
<stop offset="1" stop-color="#814DB2"/>
</linearGradient>
<linearGradient id="paint11_linear_607_23666" x1="89.1335" y1="87.3874" x2="92.2577" y2="81.2266" gradientUnits="userSpaceOnUse">
<stop stop-color="#351053"/>
<stop offset="1" stop-color="#814DB2"/>
</linearGradient>
<linearGradient id="paint12_linear_607_23666" x1="89.1335" y1="92.4434" x2="92.2632" y2="86.2784" gradientUnits="userSpaceOnUse">
<stop stop-color="#351053"/>
<stop offset="1" stop-color="#814DB2"/>
</linearGradient>
<linearGradient id="paint13_linear_607_23666" x1="84.5374" y1="107.491" x2="85.0331" y2="105.752" gradientUnits="userSpaceOnUse">
<stop stop-color="#351053"/>
<stop offset="1" stop-color="#814DB2"/>
</linearGradient>
<linearGradient id="paint14_linear_607_23666" x1="80.2779" y1="106.462" x2="83.3327" y2="105.975" gradientUnits="userSpaceOnUse">
<stop stop-color="#351053"/>
<stop offset="1" stop-color="#814DB2"/>
</linearGradient>
</defs>
</svg>
