<svg width="130" height="130" viewBox="0 0 130 130" fill="none" xmlns="http://www.w3.org/2000/svg">
<path d="M70.1169 120.831L70.1215 121.347H69.6144H63.6592L32.8831 103.579L33.5158 103.212L64.0314 120.831H70.1169Z" fill="url(#paint0_linear_607_6250)"/>
<path d="M70.0425 120.403C69.8284 120.523 69.6889 120.672 69.6144 120.831C69.5307 120.998 69.5307 121.179 69.6098 121.347C69.6842 121.505 69.8284 121.654 70.0425 121.775C70.6938 122.152 71.7639 122.152 72.4199 121.775C73.0759 121.398 73.0712 120.779 72.4199 120.403C71.7639 120.026 70.6985 120.026 70.0425 120.403ZM71.7871 121.412C71.4801 121.589 70.9823 121.589 70.6798 121.412C70.3728 121.235 70.3728 120.951 70.6798 120.77C70.9823 120.593 71.4801 120.593 71.7871 120.77C72.0895 120.947 72.0895 121.235 71.7871 121.412Z" fill="url(#paint1_linear_607_6250)"/>
<path d="M69.0281 114.104L78.9239 119.822L78.2911 120.185L68.6559 114.625H62.4494L38.103 100.565L38.7358 100.202L62.8216 114.104H69.0281Z" fill="url(#paint2_linear_607_6250)"/>
<path d="M78.6494 119.664C78.5191 119.706 78.3981 119.757 78.2865 119.822C78.1748 119.887 78.0864 119.957 78.012 120.031C77.6491 120.403 77.7375 120.878 78.2865 121.194C78.9425 121.571 80.0079 121.571 80.6639 121.194C81.3199 120.818 81.3199 120.203 80.6639 119.822C80.1195 119.506 79.296 119.454 78.6494 119.664ZM80.0311 120.827C79.7241 121.004 79.2263 121.004 78.9238 120.827C78.6214 120.65 78.6168 120.366 78.9238 120.185C79.2263 120.008 79.7287 120.008 80.0311 120.185C80.3382 120.362 80.3382 120.65 80.0311 120.827Z" fill="url(#paint3_linear_607_6250)"/>
<path d="M54.4426 91.1296L86.5167 109.647L85.884 110.014L53.8098 91.4972L54.4426 91.1296Z" fill="url(#paint4_linear_607_6250)"/>
<path d="M86.2421 109.489C86.1119 109.53 85.9909 109.582 85.8792 109.647C85.7676 109.712 85.6792 109.782 85.6047 109.856C85.2418 110.224 85.3302 110.703 85.8792 111.019C86.5306 111.396 87.6007 111.396 88.2567 111.019C88.9127 110.642 88.908 110.024 88.2567 109.647C87.7123 109.335 86.8842 109.279 86.2421 109.489ZM87.6239 110.652C87.3215 110.828 86.819 110.828 86.5166 110.652C86.2096 110.475 86.2142 110.186 86.5166 110.01C86.8237 109.833 87.3168 109.833 87.6239 110.01C87.9263 110.191 87.931 110.475 87.6239 110.652Z" fill="url(#paint5_linear_607_6250)"/>
<path d="M75.3739 79.0471L95.4913 90.6597L94.8585 91.0273L74.7412 79.41L75.3739 79.0471Z" fill="url(#paint6_linear_607_6250)"/>
<path d="M95.2167 90.5012C95.0865 90.5431 94.9655 90.5942 94.8538 90.6594C94.7422 90.7245 94.6538 90.7943 94.5793 90.8687C94.2164 91.2363 94.3048 91.7155 94.8538 92.0319C95.5052 92.4087 96.5753 92.4087 97.2312 92.0319C97.8826 91.655 97.8826 91.0362 97.2312 90.6594C96.6869 90.3477 95.8588 90.2965 95.2167 90.5012ZM96.5985 91.6643C96.2915 91.8411 95.7936 91.8411 95.4912 91.6643C95.1842 91.4875 95.1842 91.2037 95.4912 91.0223C95.7936 90.8455 96.2915 90.8455 96.5985 91.0223C96.9009 91.2037 96.9009 91.4922 96.5985 91.6643Z" fill="url(#paint7_linear_607_6250)"/>
<path d="M80.6267 76.0137L117.046 97.0429L117.051 102.002V102.272H116.153V102.002V97.2615L79.9893 76.3812L80.6267 76.0137Z" fill="url(#paint8_linear_607_6250)"/>
<path d="M117.051 102.003C116.758 101.956 116.442 101.956 116.153 102.003C115.883 102.045 115.627 102.128 115.413 102.249C114.757 102.626 114.762 103.245 115.413 103.622C116.069 103.999 117.135 103.999 117.791 103.622C118.442 103.245 118.447 102.631 117.791 102.249C117.577 102.128 117.321 102.049 117.051 102.003ZM117.158 103.259C116.851 103.436 116.358 103.436 116.051 103.259C115.748 103.082 115.744 102.798 116.051 102.617C116.353 102.44 116.856 102.44 117.158 102.617C117.465 102.794 117.46 103.082 117.158 103.259Z" fill="url(#paint9_linear_607_6250)"/>
<path d="M72.0988 108.349L86.8425 116.863V123.711H85.9492V123.46V117.077L71.7266 108.865H62.9381L43.3325 97.5455L43.9653 97.178L63.3103 108.349H72.0988Z" fill="url(#paint10_linear_607_6250)"/>
<path d="M86.8426 123.46C86.5541 123.409 86.2424 123.409 85.9493 123.455C85.6794 123.502 85.4282 123.581 85.2095 123.706C84.5535 124.083 84.5535 124.697 85.2095 125.079C85.8609 125.456 86.931 125.456 87.587 125.079C88.243 124.702 88.2383 124.083 87.587 123.706C87.3729 123.585 87.1171 123.506 86.8426 123.46ZM86.9542 124.716C86.6471 124.893 86.1493 124.893 85.8469 124.716C85.5399 124.539 85.5399 124.255 85.8469 124.074C86.1493 123.897 86.6471 123.897 86.9542 124.074C87.2566 124.251 87.2566 124.539 86.9542 124.716Z" fill="url(#paint11_linear_607_6250)"/>
<path d="M49.2177 94.1489L67.4042 104.65L66.7715 105.012L48.585 94.5118L49.2177 94.1489Z" fill="url(#paint12_linear_607_6250)"/>
<path d="M67.1343 104.491C67.0041 104.533 66.8831 104.585 66.7715 104.65C66.6598 104.715 66.5714 104.785 66.4969 104.859C66.1341 105.227 66.2271 105.71 66.7715 106.022C67.4275 106.399 68.4929 106.399 69.1489 106.022C69.8049 105.645 69.8049 105.031 69.1489 104.65C68.6045 104.338 67.7764 104.282 67.1343 104.491ZM68.5115 105.655C68.2091 105.831 67.7113 105.831 67.4042 105.655C67.1018 105.478 67.1018 105.189 67.4042 105.013C67.7113 104.836 68.2091 104.836 68.5115 105.013C68.8232 105.194 68.8232 105.478 68.5115 105.655Z" fill="url(#paint13_linear_607_6250)"/>
<path d="M59.6579 88.1194L99.511 111.131V114.978V115.257H98.6178V111.345L59.0205 88.4869L59.6579 88.1194Z" fill="url(#paint14_linear_607_6250)"/>
<path d="M99.511 114.978C99.2179 114.931 98.9062 114.931 98.6131 114.978C98.3433 115.02 98.0874 115.103 97.8733 115.224C97.2173 115.601 97.2173 116.215 97.8733 116.597C98.5247 116.974 99.5948 116.974 100.251 116.597C100.902 116.22 100.902 115.601 100.251 115.224C100.037 115.103 99.7855 115.024 99.511 114.978ZM99.618 116.234C99.311 116.411 98.8132 116.411 98.5107 116.234C98.2037 116.057 98.2037 115.773 98.5107 115.592C98.8132 115.415 99.311 115.415 99.618 115.592C99.9251 115.769 99.9251 116.057 99.618 116.234Z" fill="url(#paint15_linear_607_6250)"/>
<path d="M100.851 95.1262L108.37 99.4669L107.737 99.8298L100.479 95.6379L92.3696 95.6426L69.498 82.4388L70.1308 82.0713L92.7372 95.1262H100.851Z" fill="url(#paint16_linear_607_6250)"/>
<path d="M108.1 99.3085C107.97 99.3504 107.849 99.4016 107.737 99.4667C107.625 99.5318 107.537 99.6016 107.462 99.676C107.1 100.044 107.188 100.523 107.737 100.839C108.393 101.216 109.458 101.216 110.114 100.839C110.77 100.462 110.77 99.8482 110.114 99.4667C109.57 99.1503 108.737 99.0991 108.1 99.3085ZM109.482 100.472C109.179 100.648 108.681 100.648 108.374 100.472C108.072 100.295 108.072 100.006 108.374 99.8296C108.681 99.6528 109.179 99.6528 109.482 99.8296C109.789 100.006 109.789 100.295 109.482 100.472Z" fill="url(#paint17_linear_607_6250)"/>
<path d="M96.7242 100.691V101.207H96.245H91.5553L64.2732 85.4537L64.9059 85.0908L91.9275 100.691H96.2171H96.7242Z" fill="url(#paint18_linear_607_6250)"/>
<path d="M96.659 100.23C96.4311 100.36 96.2822 100.519 96.2171 100.691C96.1426 100.863 96.1566 101.04 96.245 101.207C96.3241 101.351 96.4636 101.486 96.659 101.603C97.315 101.979 98.3805 101.979 99.0365 101.603C99.6878 101.226 99.6925 100.612 99.0365 100.23C98.3805 99.8533 97.3104 99.8533 96.659 100.23ZM98.3991 101.235C98.092 101.412 97.5988 101.412 97.2918 101.235C96.9894 101.058 96.9847 100.774 97.2918 100.593C97.5942 100.416 98.0967 100.416 98.3991 100.593C98.7061 100.774 98.7061 101.058 98.3991 101.235Z" fill="url(#paint19_linear_607_6250)"/>
<path d="M126.105 96.7732C125.812 96.7267 125.5 96.7267 125.207 96.7732C124.937 96.8197 124.686 96.8988 124.467 97.0244C123.816 97.4013 123.811 98.0154 124.467 98.3969C125.118 98.7737 126.188 98.7737 126.844 98.3969C127.5 98.02 127.496 97.4013 126.844 97.0244C126.626 96.9034 126.375 96.8197 126.105 96.7732ZM126.207 98.0293C125.905 98.2061 125.402 98.2061 125.1 98.0293C124.793 97.8525 124.797 97.5641 125.1 97.3873C125.407 97.2105 125.9 97.2105 126.207 97.3873C126.509 97.5688 126.514 97.8525 126.207 98.0293Z" fill="url(#paint20_linear_607_6250)"/>
<path d="M118.405 87.9009L126.1 92.344L126.105 96.7731V97.0476H125.202V96.7731L125.207 92.5626L118.033 88.4173H111.212L85.1768 73.3851L85.8095 73.0222L111.584 87.9009H118.405Z" fill="url(#paint21_linear_607_6250)"/>
<path d="M28.2863 106.232L55.5173 121.952L55.5126 128.098V128.359H54.6147L54.6193 128.103V122.166L27.6536 106.599L28.2863 106.232Z" fill="url(#paint22_linear_607_6250)"/>
<path d="M55.5125 128.098C55.2194 128.052 54.9077 128.052 54.6146 128.098C54.3447 128.14 54.0888 128.224 53.8748 128.345C53.2188 128.722 53.2188 129.336 53.8748 129.717C54.5308 130.094 55.5962 130.094 56.2522 129.717C56.9036 129.34 56.9082 128.726 56.2522 128.345C56.0429 128.224 55.787 128.145 55.5125 128.098ZM55.6195 129.354C55.3124 129.531 54.8193 129.531 54.5122 129.354C54.2098 129.178 54.2051 128.894 54.5122 128.712C54.8146 128.535 55.3171 128.535 55.6195 128.712C55.9266 128.889 55.9266 129.178 55.6195 129.354Z" fill="url(#paint23_linear_607_6250)"/>
<path d="M119.926 82.3457C119.712 82.4713 119.573 82.6155 119.494 82.7737C119.414 82.9458 119.414 83.1226 119.498 83.2901C119.573 83.4437 119.712 83.5925 119.926 83.7182C120.582 84.095 121.648 84.095 122.304 83.7182C122.96 83.3413 122.96 82.7272 122.304 82.3457C121.652 81.9688 120.582 81.9642 119.926 82.3457ZM121.671 83.3506C121.364 83.5274 120.871 83.5274 120.564 83.3506C120.261 83.1738 120.257 82.89 120.564 82.7086C120.866 82.5318 121.369 82.5318 121.671 82.7086C121.978 82.89 121.973 83.1738 121.671 83.3506Z" fill="url(#paint24_linear_607_6250)"/>
<path d="M119.875 82.7738V83.2902H112.785L90.4062 70.3702L91.039 70.0027L113.162 82.7738H119.498H119.875Z" fill="url(#paint25_linear_607_6250)"/>
<path d="M33.5156 54.4216V103.212L32.8828 103.58V54.7892L33.5156 54.4216Z" fill="url(#paint26_linear_607_6250)"/>
<path d="M38.7358 51.4116V100.202L38.103 100.565V51.7745L38.7358 51.4116Z" fill="url(#paint27_linear_607_6250)"/>
<path d="M54.4426 42.3394V91.1299L53.8098 91.4975V42.7069L54.4426 42.3394Z" fill="url(#paint28_linear_607_6250)"/>
<path d="M75.3739 30.2566V79.0471L74.7412 79.41V30.6241L75.3739 30.2566Z" fill="url(#paint29_linear_607_6250)"/>
<path d="M80.6266 27.2231V76.0137L79.9893 76.3813V27.5907L80.6266 27.2231Z" fill="url(#paint30_linear_607_6250)"/>
<path d="M43.9653 48.3921V97.178L43.3325 97.5455V48.755L43.9653 48.3921Z" fill="url(#paint31_linear_607_6250)"/>
<path d="M49.2177 45.3586V94.1492L48.585 94.5121V45.7262L49.2177 45.3586Z" fill="url(#paint32_linear_607_6250)"/>
<path d="M59.6579 39.3337V88.1196L59.0205 88.4872V39.6966L59.6579 39.3337Z" fill="url(#paint33_linear_607_6250)"/>
<path d="M70.1308 33.2808V82.0713L69.498 82.4389V33.6483L70.1308 33.2808Z" fill="url(#paint34_linear_607_6250)"/>
<path d="M64.9059 36.3003V85.0909L64.2732 85.4537V36.6678L64.9059 36.3003Z" fill="url(#paint35_linear_607_6250)"/>
<path d="M85.8095 24.2319V73.0225L85.1768 73.3854V24.5995L85.8095 24.2319Z" fill="url(#paint36_linear_607_6250)"/>
<path d="M28.2863 57.4412V106.232L27.6536 106.599V57.8087L28.2863 57.4412Z" fill="url(#paint37_linear_607_6250)"/>
<path d="M91.039 21.2124V70.003L90.4062 70.3705V21.5799L91.039 21.2124Z" fill="url(#paint38_linear_607_6250)"/>
<path d="M92.7649 22.7476C91.8996 23.2454 91.0575 23.8223 90.2293 24.4643C90.3131 23.6269 90.3643 22.7941 90.3643 21.9799C90.3643 11.2652 82.8412 6.92447 73.5642 12.2795C66.3482 16.4434 60.2022 25.2459 57.8202 33.9926C55.4986 33.3971 52.6466 33.8996 49.5667 35.6815C42.9881 39.4779 37.4609 47.8617 35.8837 55.7988C35.13 56.1012 34.3531 56.4734 33.5668 56.9293C25.3179 61.6888 18.6323 73.2735 18.6323 82.7925C18.6323 92.3161 25.3179 96.1777 33.5668 91.4135L92.7649 57.2364C101.014 52.4769 107.699 40.8969 107.699 31.3733C107.699 21.845 101.014 17.9834 92.7649 22.7476Z" fill="url(#paint39_linear_607_6250)"/>
<path opacity="0.9" d="M50.5105 75.6978L87.8536 54.1361C88.6865 53.6561 89.364 52.3575 89.364 51.2423V44.121C89.364 43.0058 88.6865 42.4977 87.8536 42.9776L50.5105 64.5393C49.6777 65.0193 49.0002 66.3179 49.0002 67.433V74.5544C48.9931 75.6695 49.6706 76.1777 50.5105 75.6978Z" fill="url(#paint40_linear_607_6250)"/>
<path opacity="0.5" d="M51.5832 73.2L86.7807 52.8805C87.2042 52.6335 87.55 51.9771 87.55 51.4125V46.0626C87.55 45.498 87.2042 45.2368 86.7807 45.4839L51.5832 65.8034C51.1598 66.0504 50.8139 66.7068 50.8139 67.2715V72.6213C50.8139 73.1859 51.1598 73.4471 51.5832 73.2Z" fill="#E7E7FF"/>
<path opacity="0.8" d="M79.4405 54.4116L84.6916 51.3767C85.1009 51.1367 85.4397 50.5015 85.4397 49.951C85.4397 49.4005 85.108 49.1464 84.6916 49.3864L79.4405 52.4212C79.0312 52.6612 78.6924 53.2964 78.6924 53.8469C78.6994 54.3974 79.0312 54.6445 79.4405 54.4116Z" fill="white"/>
<path d="M74.9659 55.9991C74.9659 56.5496 75.3541 56.7684 75.8269 56.4932C76.2998 56.2179 76.688 55.5545 76.688 55.004C76.688 54.4534 76.2998 54.2346 75.8269 54.5099C75.3541 54.7852 74.9659 55.4486 74.9659 55.9991Z" fill="url(#paint41_linear_607_6250)"/>
<path d="M71.931 57.7503C71.931 58.3008 72.3191 58.5196 72.792 58.2444C73.2649 57.9691 73.6531 57.3057 73.6531 56.7552C73.6531 56.2047 73.2649 55.9859 72.792 56.2611C72.3191 56.5364 71.931 57.2069 71.931 57.7503Z" fill="url(#paint42_linear_607_6250)"/>
<path opacity="0.8" d="M68.896 59.5069C68.896 60.0575 69.2842 60.2763 69.7571 60.001C70.23 59.7257 70.6182 59.0623 70.6182 58.5118C70.6182 57.9613 70.23 57.7425 69.7571 58.0177C69.2772 58.293 68.896 58.9564 68.896 59.5069Z" fill="white"/>
<path d="M65.8543 61.2581C65.8543 61.8087 66.2425 62.0275 66.7154 61.7522C67.1882 61.4769 67.5764 60.8135 67.5764 60.263C67.5764 59.7125 67.1882 59.4937 66.7154 59.7689C66.2425 60.0442 65.8543 60.7147 65.8543 61.2581Z" fill="url(#paint43_linear_607_6250)"/>
<path d="M53.0654 70.2216L54.837 69.1982C55.0981 69.0429 55.3169 68.6336 55.3169 68.2807V66.4104C55.3169 66.0575 55.1052 65.8951 54.837 66.0504L53.0654 67.0738C52.8043 67.2291 52.5855 67.6384 52.5855 67.9913V69.8616C52.5855 70.2145 52.7973 70.3769 53.0654 70.2216Z" fill="url(#paint44_linear_607_6250)"/>
<path opacity="0.9" d="M50.5105 60.9009L87.8536 39.3392C88.6865 38.8592 89.364 37.5606 89.364 36.4455V29.3241C89.364 28.2089 88.6865 27.7008 87.8536 28.1807L50.5105 49.7424C49.6777 50.2224 49.0002 51.521 49.0002 52.6362V59.7575C48.9931 60.8727 49.6706 61.3808 50.5105 60.9009Z" fill="url(#paint45_linear_607_6250)"/>
<path opacity="0.5" d="M51.5832 58.4032L86.7807 38.0836C87.2042 37.8366 87.55 37.1802 87.55 36.6156V31.2657C87.55 30.7011 87.2042 30.44 86.7807 30.687L51.5832 51.0065C51.1598 51.2536 50.8139 51.91 50.8139 52.4746V57.8244C50.8139 58.389 51.1598 58.6502 51.5832 58.4032Z" fill="#E7E7FF"/>
<path opacity="0.8" d="M79.4405 39.6147L84.6916 36.5798C85.1009 36.3398 85.4397 35.7046 85.4397 35.1541C85.4397 34.6036 85.108 34.3495 84.6916 34.5895L79.4405 37.6244C79.0312 37.8643 78.6924 38.4995 78.6924 39.0501C78.6994 39.6006 79.0312 39.8476 79.4405 39.6147Z" fill="white"/>
<path d="M74.9659 41.2022C74.9659 41.7528 75.3541 41.9715 75.8269 41.6963C76.2998 41.421 76.688 40.7576 76.688 40.2071C76.688 39.6566 76.2998 39.4378 75.8269 39.713C75.3541 39.9883 74.9659 40.6517 74.9659 41.2022Z" fill="url(#paint46_linear_607_6250)"/>
<path d="M71.931 42.9535C71.931 43.504 72.3191 43.7228 72.792 43.4475C73.2649 43.1722 73.6531 42.5088 73.6531 41.9583C73.6531 41.4078 73.2649 41.189 72.792 41.4643C72.3191 41.7395 71.931 42.41 71.931 42.9535Z" fill="url(#paint47_linear_607_6250)"/>
<path opacity="0.8" d="M68.896 44.7101C68.896 45.2606 69.2842 45.4794 69.7571 45.2041C70.23 44.9289 70.6182 44.2654 70.6182 43.7149C70.6182 43.1644 70.23 42.9456 69.7571 43.2208C69.2772 43.4961 68.896 44.1595 68.896 44.7101Z" fill="white"/>
<path d="M65.8543 46.4613C65.8543 47.0118 66.2425 47.2306 66.7154 46.9553C67.1882 46.6801 67.5764 46.0166 67.5764 45.4661C67.5764 44.9156 67.1882 44.6968 66.7154 44.9721C66.2425 45.2473 65.8543 45.9178 65.8543 46.4613Z" fill="url(#paint48_linear_607_6250)"/>
<path d="M53.0654 55.4247L54.837 54.4013C55.0981 54.246 55.3169 53.8367 55.3169 53.4838V51.6135C55.3169 51.2606 55.1052 51.0982 54.837 51.2535L53.0654 52.2769C52.8043 52.4322 52.5855 52.8415 52.5855 53.1944V55.0648C52.5855 55.4177 52.7973 55.58 53.0654 55.4247Z" fill="url(#paint49_linear_607_6250)"/>
<path d="M85.6231 11.2047C84.7717 10.6837 83.8273 10.3208 82.7991 10.1393C80.4589 9.70664 77.7 10.1719 74.7317 11.6514C74.3502 11.8421 73.9547 12.0515 73.5639 12.2795C66.3526 16.4434 60.202 25.2459 57.8246 33.9926C55.503 33.4017 52.651 33.8995 49.5664 35.6814C42.9878 39.4779 37.4607 47.857 35.8835 55.7941C35.1251 56.0965 34.3528 56.4687 33.5665 56.9247C26.0249 61.2794 19.7952 71.3287 18.7763 80.2987V80.3034C18.6833 81.1455 18.6321 81.969 18.6321 82.7878C18.6321 87.082 19.9953 90.2271 22.2424 91.9439L7.43356 81.862C7.4289 81.862 7.42425 81.862 7.4196 81.8527L6.44723 81.1874C6.43793 81.1827 6.42862 81.1734 6.41932 81.1641L5.647 80.4336C5.62374 80.4057 5.60048 80.3825 5.57722 80.3592C3.9535 78.5401 3.00439 75.7533 3.00439 72.1662C3.00439 62.6426 9.69001 51.0625 17.9389 46.303C18.7251 45.8471 19.5021 45.4703 20.2558 45.1725C21.833 37.2307 27.3601 28.8563 33.9387 25.0598C37.0187 23.2779 39.8707 22.7801 42.1922 23.371C44.5743 14.6243 50.6225 5.64037 57.9362 1.65785C65.4826 -2.45029 72.0332 2.35572 72.1216 2.47203L83.8924 10.0881C83.8971 10.0881 83.8971 10.0881 83.8971 10.0881L85.6231 11.2047Z" fill="#6548F7"/>
<path d="M57.8249 33.9881C55.5033 33.3973 52.6513 33.8997 49.5621 35.6816C42.9881 39.478 37.4563 47.8572 35.8838 55.7989L20.2561 45.1773C21.8333 37.2355 27.3604 28.8564 33.939 25.06C37.019 23.2781 39.871 22.7803 42.1972 23.3665L57.8249 33.9881Z" fill="url(#paint50_linear_607_6250)"/>
<path d="M35.8837 55.7989C35.1254 56.0966 34.3531 56.4735 33.5621 56.9294C26.0205 61.2841 19.7908 71.3335 18.7719 80.3035V80.3081C18.6835 81.1456 18.6277 81.9737 18.6277 82.7925C18.6277 87.0868 19.9909 90.2365 22.238 91.9486L7.42916 81.8667C7.42451 81.8667 7.41986 81.8667 7.4152 81.8528L6.44283 81.1921C6.43353 81.1875 6.42422 81.1735 6.41027 81.1642L5.64261 80.4384C5.61935 80.4105 5.59143 80.3872 5.57282 80.364C3.94911 78.5448 3 75.758 3 72.1709C3 62.652 9.68562 51.0673 17.9298 46.3078C18.7161 45.8519 19.493 45.475 20.2467 45.1772L35.8837 55.7989Z" fill="url(#paint51_linear_607_6250)"/>
<path d="M103.163 21.6076C100.474 20.1514 96.8079 20.4165 92.7603 22.7474C92.4765 22.9103 92.1973 23.0778 91.9182 23.2639C91.3459 23.6268 90.783 24.0315 90.2293 24.4595C90.3131 23.6174 90.3642 22.794 90.3642 21.9751C90.3642 15.2011 87.3587 10.972 82.7993 10.1392C84.5207 9.95777 86.0886 10.2369 87.4192 10.9255L87.4471 10.9487L88.8103 11.8746L103.163 21.6076Z" fill="url(#paint52_linear_607_6250)"/>
<path d="M85.6235 11.2094C84.7721 10.6883 83.823 10.3254 82.7995 10.144C80.4546 9.71129 77.7003 10.1765 74.7321 11.6514C74.3459 11.8421 73.9551 12.0515 73.5643 12.2795C66.3529 16.4434 60.2024 25.2413 57.8249 33.9879L42.1973 23.3663C44.5793 14.6197 50.6229 5.64037 57.9413 1.65785C65.4876 -2.45029 72.0383 2.35572 72.122 2.47203L83.8928 10.0835C83.8974 10.0835 83.8974 10.0835 83.8974 10.0835L85.6235 11.2094Z" fill="url(#paint53_linear_607_6250)"/>
<defs>
<linearGradient id="paint0_linear_607_6250" x1="40.1428" y1="118.15" x2="50.6177" y2="100.25" gradientUnits="userSpaceOnUse">
<stop stop-color="#351053"/>
<stop offset="1" stop-color="#814DB2"/>
</linearGradient>
<linearGradient id="paint1_linear_607_6250" x1="70.2059" y1="121.716" x2="71.408" y2="119.982" gradientUnits="userSpaceOnUse">
<stop stop-color="#351053"/>
<stop offset="1" stop-color="#814DB2"/>
</linearGradient>
<linearGradient id="paint2_linear_607_6250" x1="46.0612" y1="116.661" x2="57.6319" y2="96.9905" gradientUnits="userSpaceOnUse">
<stop stop-color="#351053"/>
<stop offset="1" stop-color="#814DB2"/>
</linearGradient>
<linearGradient id="paint3_linear_607_6250" x1="78.4492" y1="121.135" x2="79.6521" y2="119.399" gradientUnits="userSpaceOnUse">
<stop stop-color="#351053"/>
<stop offset="1" stop-color="#814DB2"/>
</linearGradient>
<linearGradient id="paint4_linear_607_6250" x1="60.1862" y1="106.684" x2="71.9053" y2="89.7931" gradientUnits="userSpaceOnUse">
<stop stop-color="#351053"/>
<stop offset="1" stop-color="#814DB2"/>
</linearGradient>
<linearGradient id="paint5_linear_607_6250" x1="86.0416" y1="110.96" x2="87.2437" y2="109.225" gradientUnits="userSpaceOnUse">
<stop stop-color="#351053"/>
<stop offset="1" stop-color="#814DB2"/>
</linearGradient>
<linearGradient id="paint6_linear_607_6250" x1="81.0639" y1="78.3891" x2="81.2398" y2="90.9884" gradientUnits="userSpaceOnUse">
<stop stop-color="#C3A9D9"/>
<stop offset="1" stop-color="#8C57BC"/>
</linearGradient>
<linearGradient id="paint7_linear_607_6250" x1="95.3845" y1="90.2723" x2="95.4129" y2="92.3082" gradientUnits="userSpaceOnUse">
<stop stop-color="#C3A9D9"/>
<stop offset="1" stop-color="#8C57BC"/>
</linearGradient>
<linearGradient id="paint8_linear_607_6250" x1="87.2146" y1="97.6422" x2="104.388" y2="77.4706" gradientUnits="userSpaceOnUse">
<stop stop-color="#351053"/>
<stop offset="1" stop-color="#814DB2"/>
</linearGradient>
<linearGradient id="paint9_linear_607_6250" x1="115.578" y1="103.563" x2="116.779" y2="101.829" gradientUnits="userSpaceOnUse">
<stop stop-color="#351053"/>
<stop offset="1" stop-color="#814DB2"/>
</linearGradient>
<linearGradient id="paint10_linear_607_6250" x1="56.5904" y1="95.7206" x2="57.0019" y2="123.624" gradientUnits="userSpaceOnUse">
<stop stop-color="#C3A9D9"/>
<stop offset="1" stop-color="#8C57BC"/>
</linearGradient>
<linearGradient id="paint11_linear_607_6250" x1="85.7413" y1="123.314" x2="85.7698" y2="125.355" gradientUnits="userSpaceOnUse">
<stop stop-color="#C3A9D9"/>
<stop offset="1" stop-color="#8C57BC"/>
</linearGradient>
<linearGradient id="paint12_linear_607_6250" x1="52.2539" y1="103.097" x2="58.995" y2="93.3787" gradientUnits="userSpaceOnUse">
<stop stop-color="#351053"/>
<stop offset="1" stop-color="#814DB2"/>
</linearGradient>
<linearGradient id="paint13_linear_607_6250" x1="66.9352" y1="105.963" x2="68.1372" y2="104.228" gradientUnits="userSpaceOnUse">
<stop stop-color="#351053"/>
<stop offset="1" stop-color="#814DB2"/>
</linearGradient>
<linearGradient id="paint14_linear_607_6250" x1="66.9143" y1="110.472" x2="84.4801" y2="88.6614" gradientUnits="userSpaceOnUse">
<stop stop-color="#351053"/>
<stop offset="1" stop-color="#814DB2"/>
</linearGradient>
<linearGradient id="paint15_linear_607_6250" x1="98.036" y1="116.538" x2="99.2373" y2="114.805" gradientUnits="userSpaceOnUse">
<stop stop-color="#351053"/>
<stop offset="1" stop-color="#814DB2"/>
</linearGradient>
<linearGradient id="paint16_linear_607_6250" x1="77.0762" y1="96.6985" x2="87.0022" y2="78.6175" gradientUnits="userSpaceOnUse">
<stop stop-color="#351053"/>
<stop offset="1" stop-color="#814DB2"/>
</linearGradient>
<linearGradient id="paint17_linear_607_6250" x1="107.9" y1="100.78" x2="109.103" y2="99.0442" gradientUnits="userSpaceOnUse">
<stop stop-color="#351053"/>
<stop offset="1" stop-color="#814DB2"/>
</linearGradient>
<linearGradient id="paint18_linear_607_6250" x1="70.5997" y1="98.3653" x2="79.9966" y2="82.6191" gradientUnits="userSpaceOnUse">
<stop stop-color="#351053"/>
<stop offset="1" stop-color="#814DB2"/>
</linearGradient>
<linearGradient id="paint19_linear_607_6250" x1="96.8236" y1="101.544" x2="98.0259" y2="99.8098" gradientUnits="userSpaceOnUse">
<stop stop-color="#351053"/>
<stop offset="1" stop-color="#814DB2"/>
</linearGradient>
<linearGradient id="paint20_linear_607_6250" x1="124.631" y1="98.3372" x2="125.837" y2="96.6023" gradientUnits="userSpaceOnUse">
<stop stop-color="#351053"/>
<stop offset="1" stop-color="#814DB2"/>
</linearGradient>
<linearGradient id="paint21_linear_607_6250" x1="93.1558" y1="92.8113" x2="108.15" y2="71.5544" gradientUnits="userSpaceOnUse">
<stop stop-color="#351053"/>
<stop offset="1" stop-color="#814DB2"/>
</linearGradient>
<linearGradient id="paint22_linear_607_6250" x1="33.0857" y1="124.457" x2="47.729" y2="109.112" gradientUnits="userSpaceOnUse">
<stop stop-color="#351053"/>
<stop offset="1" stop-color="#814DB2"/>
</linearGradient>
<linearGradient id="paint23_linear_607_6250" x1="54.0378" y1="129.658" x2="55.2389" y2="127.924" gradientUnits="userSpaceOnUse">
<stop stop-color="#351053"/>
<stop offset="1" stop-color="#814DB2"/>
</linearGradient>
<linearGradient id="paint24_linear_607_6250" x1="120.09" y1="83.6588" x2="121.293" y2="81.9234" gradientUnits="userSpaceOnUse">
<stop stop-color="#351053"/>
<stop offset="1" stop-color="#814DB2"/>
</linearGradient>
<linearGradient id="paint25_linear_607_6250" x1="96.1513" y1="80.9472" x2="103.526" y2="67.3369" gradientUnits="userSpaceOnUse">
<stop stop-color="#351053"/>
<stop offset="1" stop-color="#814DB2"/>
</linearGradient>
<linearGradient id="paint26_linear_607_6250" x1="33.0062" y1="94.9118" x2="33.7038" y2="94.9044" gradientUnits="userSpaceOnUse">
<stop stop-color="#351053"/>
<stop offset="1" stop-color="#814DB2"/>
</linearGradient>
<linearGradient id="paint27_linear_607_6250" x1="38.2264" y1="91.898" x2="38.924" y2="91.8905" gradientUnits="userSpaceOnUse">
<stop stop-color="#351053"/>
<stop offset="1" stop-color="#814DB2"/>
</linearGradient>
<linearGradient id="paint28_linear_607_6250" x1="53.9332" y1="82.8296" x2="54.6308" y2="82.8221" gradientUnits="userSpaceOnUse">
<stop stop-color="#351053"/>
<stop offset="1" stop-color="#814DB2"/>
</linearGradient>
<linearGradient id="paint29_linear_607_6250" x1="74.934" y1="27.5567" x2="96.379" y2="38.9714" gradientUnits="userSpaceOnUse">
<stop stop-color="#C3A9D9"/>
<stop offset="1" stop-color="#8C57BC"/>
</linearGradient>
<linearGradient id="paint30_linear_607_6250" x1="80.1135" y1="67.7133" x2="80.8163" y2="67.7058" gradientUnits="userSpaceOnUse">
<stop stop-color="#351053"/>
<stop offset="1" stop-color="#814DB2"/>
</linearGradient>
<linearGradient id="paint31_linear_607_6250" x1="43.5253" y1="45.6922" x2="64.9703" y2="57.1069" gradientUnits="userSpaceOnUse">
<stop stop-color="#C3A9D9"/>
<stop offset="1" stop-color="#8C57BC"/>
</linearGradient>
<linearGradient id="paint32_linear_607_6250" x1="48.7083" y1="85.845" x2="49.4059" y2="85.8375" gradientUnits="userSpaceOnUse">
<stop stop-color="#351053"/>
<stop offset="1" stop-color="#814DB2"/>
</linearGradient>
<linearGradient id="paint33_linear_607_6250" x1="59.1448" y1="79.8201" x2="59.8475" y2="79.8125" gradientUnits="userSpaceOnUse">
<stop stop-color="#351053"/>
<stop offset="1" stop-color="#814DB2"/>
</linearGradient>
<linearGradient id="paint34_linear_607_6250" x1="69.6214" y1="73.771" x2="70.319" y2="73.7635" gradientUnits="userSpaceOnUse">
<stop stop-color="#351053"/>
<stop offset="1" stop-color="#814DB2"/>
</linearGradient>
<linearGradient id="paint35_linear_607_6250" x1="64.3965" y1="76.7867" x2="65.0942" y2="76.7792" gradientUnits="userSpaceOnUse">
<stop stop-color="#351053"/>
<stop offset="1" stop-color="#814DB2"/>
</linearGradient>
<linearGradient id="paint36_linear_607_6250" x1="85.3001" y1="64.7183" x2="85.9977" y2="64.7108" gradientUnits="userSpaceOnUse">
<stop stop-color="#351053"/>
<stop offset="1" stop-color="#814DB2"/>
</linearGradient>
<linearGradient id="paint37_linear_607_6250" x1="27.7769" y1="97.9314" x2="28.4745" y2="97.9239" gradientUnits="userSpaceOnUse">
<stop stop-color="#351053"/>
<stop offset="1" stop-color="#814DB2"/>
</linearGradient>
<linearGradient id="paint38_linear_607_6250" x1="90.5296" y1="61.7026" x2="91.2272" y2="61.6951" gradientUnits="userSpaceOnUse">
<stop stop-color="#351053"/>
<stop offset="1" stop-color="#814DB2"/>
</linearGradient>
<linearGradient id="paint39_linear_607_6250" x1="45.7718" y1="5.40106" x2="47.7606" y2="93.1554" gradientUnits="userSpaceOnUse">
<stop stop-color="#C3A9D9"/>
<stop offset="1" stop-color="#8C57BC"/>
</linearGradient>
<linearGradient id="paint40_linear_607_6250" x1="79.4926" y1="38.7622" x2="78.2222" y2="78.1484" gradientUnits="userSpaceOnUse">
<stop stop-color="#5793CE"/>
<stop offset="1" stop-color="#FFFDFF"/>
</linearGradient>
<linearGradient id="paint41_linear_607_6250" x1="76.3523" y1="56.2204" x2="75.0116" y2="55.3552" gradientUnits="userSpaceOnUse">
<stop stop-color="#351053"/>
<stop offset="1" stop-color="#814DB2"/>
</linearGradient>
<linearGradient id="paint42_linear_607_6250" x1="73.3173" y1="57.9716" x2="71.9767" y2="57.1065" gradientUnits="userSpaceOnUse">
<stop stop-color="#351053"/>
<stop offset="1" stop-color="#814DB2"/>
</linearGradient>
<linearGradient id="paint43_linear_607_6250" x1="67.2407" y1="61.4794" x2="65.9" y2="60.6143" gradientUnits="userSpaceOnUse">
<stop stop-color="#351053"/>
<stop offset="1" stop-color="#814DB2"/>
</linearGradient>
<linearGradient id="paint44_linear_607_6250" x1="54.6489" y1="65.4684" x2="54.3342" y2="70.5607" gradientUnits="userSpaceOnUse">
<stop stop-color="#5793CE"/>
<stop offset="1" stop-color="#FFFDFF"/>
</linearGradient>
<linearGradient id="paint45_linear_607_6250" x1="79.4926" y1="23.9653" x2="78.2222" y2="63.3515" gradientUnits="userSpaceOnUse">
<stop stop-color="#5793CE"/>
<stop offset="1" stop-color="#FFFDFF"/>
</linearGradient>
<linearGradient id="paint46_linear_607_6250" x1="76.3523" y1="41.4235" x2="75.0116" y2="40.5584" gradientUnits="userSpaceOnUse">
<stop stop-color="#351053"/>
<stop offset="1" stop-color="#814DB2"/>
</linearGradient>
<linearGradient id="paint47_linear_607_6250" x1="73.3173" y1="43.1747" x2="71.9767" y2="42.3096" gradientUnits="userSpaceOnUse">
<stop stop-color="#351053"/>
<stop offset="1" stop-color="#814DB2"/>
</linearGradient>
<linearGradient id="paint48_linear_607_6250" x1="67.2407" y1="46.6825" x2="65.9" y2="45.8174" gradientUnits="userSpaceOnUse">
<stop stop-color="#351053"/>
<stop offset="1" stop-color="#814DB2"/>
</linearGradient>
<linearGradient id="paint49_linear_607_6250" x1="54.6489" y1="50.6715" x2="54.3342" y2="55.7638" gradientUnits="userSpaceOnUse">
<stop stop-color="#5793CE"/>
<stop offset="1" stop-color="#FFFDFF"/>
</linearGradient>
<linearGradient id="paint50_linear_607_6250" x1="27.5803" y1="50.039" x2="49.201" y2="29.3461" gradientUnits="userSpaceOnUse">
<stop stop-color="#351053"/>
<stop offset="1" stop-color="#814DB2"/>
</linearGradient>
<linearGradient id="paint51_linear_607_6250" x1="9.41081" y1="83.7016" x2="36.4231" y2="67.8968" gradientUnits="userSpaceOnUse">
<stop stop-color="#351053"/>
<stop offset="1" stop-color="#814DB2"/>
</linearGradient>
<linearGradient id="paint52_linear_607_6250" x1="86.7693" y1="21.925" x2="96.1648" y2="10.8482" gradientUnits="userSpaceOnUse">
<stop stop-color="#351053"/>
<stop offset="1" stop-color="#814DB2"/>
</linearGradient>
<linearGradient id="paint53_linear_607_6250" x1="50.6634" y1="27.9949" x2="73.1381" y2="4.09775" gradientUnits="userSpaceOnUse">
<stop stop-color="#351053"/>
<stop offset="1" stop-color="#814DB2"/>
</linearGradient>
</defs>
</svg>
