<svg width="130" height="130" viewBox="0 0 130 130" fill="none" xmlns="http://www.w3.org/2000/svg">
<g clip-path="url(#clip0_607_5201)">
<g opacity="0.2">
<path opacity="0.0909" d="M67.6755 83.4466L88.5533 75.414C89.7297 74.7367 91.2091 74.3683 92.6944 74.3861C93.3361 74.3921 93.9421 74.4752 94.5006 74.6178C95.0353 74.7485 95.6532 75.01 96.081 75.2595L111.528 84.3081C111.54 84.3141 111.974 84.5695 111.986 84.5814C113.21 85.3122 113.768 86.4589 113.697 87.6947C113.626 88.9542 112.675 90.3623 111.309 91.1525L98.4634 103.409C97.3108 104.075 95.8671 104.443 94.4055 104.443C93.1341 104.443 91.9755 104.17 91.0606 103.641L67.2656 89.8217C66.0654 89.1265 65.3881 88.0393 65.3941 86.8332C65.406 85.5142 66.2318 84.2784 67.6755 83.4466Z" fill="black"/>
<path opacity="0.1818" d="M67.7647 83.6009L88.6425 75.5682C89.8129 74.8909 91.2982 74.5404 92.7657 74.5701C93.4015 74.582 94.0015 74.683 94.5541 74.8315C95.0294 74.9563 95.7245 75.2652 96.1166 75.4851L111.481 84.4862C111.511 84.504 111.909 84.7416 111.932 84.7595C113.133 85.5021 113.525 86.6429 113.394 87.8549C113.269 88.9837 112.218 90.5047 110.988 91.2117L98.3803 103.243C97.2514 103.89 95.8433 104.247 94.4174 104.253C93.1757 104.253 92.0409 103.991 91.1556 103.475L67.3607 89.6551C66.2081 88.9897 65.5664 87.9559 65.5783 86.8152C65.5902 85.5734 66.3804 84.403 67.7647 83.6009Z" fill="black"/>
<path opacity="0.2727" d="M67.8537 83.7614L88.7315 75.7287C89.896 75.0574 91.3873 74.7128 92.837 74.7543C93.4727 74.7781 94.0668 74.891 94.6075 75.0395C95.0293 75.1584 95.8017 75.5148 96.1463 75.7109L111.427 84.6645C111.469 84.6882 111.843 84.914 111.873 84.9378C113.043 85.6923 113.287 86.8093 113.079 88.0154C112.913 89.0135 111.742 90.6474 110.649 91.2771L98.2792 103.083C97.1801 103.718 95.8017 104.063 94.4173 104.069C93.2113 104.075 92.1002 103.813 91.2328 103.314L67.4378 89.4947C66.3387 88.859 65.7327 87.8787 65.7446 86.7974C65.7802 85.6329 66.5348 84.5219 67.8537 83.7614Z" fill="black"/>
<path opacity="0.3636" d="M67.9488 83.9155L88.8266 75.8828C89.9852 75.2115 91.4824 74.8788 92.9142 74.9382C93.544 74.9679 94.1322 75.0986 94.6669 75.2531C95.0353 75.36 95.8849 75.77 96.1879 75.9423L111.386 84.8483C111.445 84.8839 111.784 85.0859 111.825 85.1275C112.972 85.894 113.317 87.0703 112.782 88.1873C112.782 89.0726 111.291 90.8015 110.328 91.354L98.1961 102.934C97.1266 103.552 95.7779 103.89 94.4352 103.896C93.2588 103.902 92.1775 103.653 91.3338 103.165L67.5389 89.3459C66.4873 88.7398 65.9169 87.813 65.9407 86.797C65.9644 85.6979 66.6833 84.6463 67.9488 83.9155Z" fill="black"/>
<path opacity="0.4545" d="M68.0381 84.076L88.9159 76.0434C90.0745 75.3779 91.5717 75.0571 92.9798 75.1284C93.6095 75.1641 94.1918 75.3126 94.7206 75.473C95.0355 75.5681 95.9623 76.0315 96.2178 76.18L111.332 85.0326C111.404 85.0742 111.719 85.2643 111.772 85.3118C112.889 86.0901 113.145 87.2725 112.473 88.3538C112.473 89.1143 110.822 90.9442 110.002 91.4195L98.1071 102.773C97.0614 103.373 95.7544 103.7 94.4473 103.706C93.3065 103.712 92.243 103.474 91.4291 103.005L67.6341 89.1856C66.636 88.6093 66.1013 87.7359 66.125 86.7793C66.1547 85.7574 66.832 84.7712 68.0381 84.076Z" fill="black"/>
<path opacity="0.5455" d="M68.1272 84.2308L89.005 76.1981C90.1576 75.5327 91.6548 75.2238 93.0511 75.3129C93.6749 75.3545 94.2512 75.5149 94.774 75.6812C95.0355 75.7644 96.0395 76.2813 96.2534 76.4061L111.285 85.2111C111.368 85.2586 111.653 85.4369 111.719 85.4903C112.812 86.2805 112.972 87.4747 112.17 88.5145C112.17 89.1443 110.358 91.0871 109.675 91.4851L98.0121 102.613C96.9961 103.201 95.7187 103.516 94.4532 103.522C93.3422 103.528 92.3084 103.302 91.5182 102.845L67.7232 89.0254C66.7726 88.4788 66.2735 87.6589 66.3033 86.7677C66.3389 85.8171 66.9865 84.8903 68.1272 84.2308Z" fill="black"/>
<path opacity="0.6364" d="M68.2221 84.3907L89.0999 76.358C90.2466 75.6985 91.7498 75.3955 93.1281 75.5025C93.752 75.55 94.3164 75.7283 94.8333 75.9006C95.0412 75.9719 96.1166 76.5422 96.2889 76.6373L111.237 85.3948C111.338 85.4542 111.594 85.6146 111.665 85.68C112.734 86.482 112.8 87.6822 111.861 88.6863C111.861 89.1913 109.895 91.241 109.348 91.5559L97.9228 102.458C96.9365 103.029 95.6889 103.338 94.4649 103.343C93.3896 103.355 92.3795 103.13 91.6072 102.69L67.8122 88.8704C66.9091 88.3476 66.4516 87.5812 66.4873 86.7613C66.5289 85.876 67.1349 85.0145 68.2221 84.3907Z" fill="black"/>
<path opacity="0.7273" d="M68.3114 84.5457L89.1892 76.513C90.33 75.8536 91.8391 75.5684 93.1996 75.6872C93.8235 75.7407 94.376 75.9367 94.8869 76.115C95.0414 76.1684 96.194 76.7982 96.3247 76.8695L111.19 85.5795C111.303 85.6448 111.529 85.7874 111.618 85.8647C112.657 86.6786 112.634 87.8907 111.564 88.8531C111.564 89.2334 109.437 91.3901 109.027 91.6277L97.8398 102.304C96.8773 102.857 95.6653 103.154 94.4829 103.166C93.4373 103.178 92.451 102.964 91.7083 102.536L67.9134 88.7165C67.0638 88.2234 66.636 87.5104 66.6776 86.7499C66.7192 85.936 67.2836 85.1398 68.3114 84.5457Z" fill="black"/>
<path opacity="0.8182" d="M68.4006 84.706L89.2783 76.6733C90.4131 76.0198 91.9282 75.7405 93.2709 75.8712C93.8888 75.9366 94.4414 76.1445 94.9404 76.3228C95.0414 76.3584 96.2713 77.0476 96.3604 77.0952L111.142 85.7576C111.273 85.8289 111.469 85.9596 111.564 86.0487C112.58 86.8686 112.461 88.0925 111.255 89.0194C111.255 89.2748 108.974 91.5385 108.701 91.693L97.7507 102.144C96.8179 102.684 95.6356 102.97 94.4889 102.981C93.4789 102.993 92.5164 102.791 91.7975 102.375L68.0025 88.556C67.2004 88.0925 66.8142 87.433 66.8558 86.7379C66.9033 86.0012 67.4381 85.2585 68.4006 84.706Z" fill="black"/>
<path opacity="0.9091" d="M68.4896 84.8606L89.3674 76.828C90.4962 76.1744 92.0172 75.907 93.3421 76.0556C93.96 76.1269 94.5007 76.3467 94.9938 76.5368C95.0473 76.5547 96.3484 77.3033 96.39 77.327L111.089 85.936C111.231 86.0192 111.398 86.1321 111.505 86.2271C112.491 87.0589 112.283 88.2888 110.94 89.1799C110.94 89.3047 108.498 91.6812 108.362 91.7585L97.6436 101.983C96.7405 102.506 95.5939 102.78 94.4828 102.797C93.5025 102.809 92.5697 102.619 91.8687 102.215L68.0737 88.3957C67.3251 87.962 66.9686 87.356 67.0221 86.7202C67.0934 86.0608 67.5865 85.3834 68.4896 84.8606Z" fill="black"/>
<path opacity="0.2" d="M91.9757 102.06L68.1807 88.241C66.7488 87.4151 66.9271 85.9714 68.5847 85.0149L89.4625 76.9822C91.1142 76.0257 93.6214 75.9247 95.0533 76.7505L111.041 86.1199C112.473 86.9458 112.295 88.3895 110.637 89.3461L97.5605 101.829C95.9088 102.785 93.4075 102.892 91.9757 102.06Z" fill="black"/>
</g>
<path d="M91.9756 102.031L68.1806 88.2115C67.5449 87.8432 67.224 87.35 67.2122 86.8332C67.2122 86.8153 67.2122 85.0508 67.2122 85.0329C67.224 84.4032 67.6875 85.4964 68.5787 84.9795L89.4564 76.9468C91.1081 75.9903 93.6154 75.8893 95.0472 76.7151L111.035 86.0845C111.511 86.3578 111.861 85.1874 111.986 85.5617C112.027 85.6865 112.004 87.3322 112.004 87.457C112.016 88.0987 111.552 88.7819 110.637 89.3107L97.5604 101.793C95.9087 102.756 93.4074 102.857 91.9756 102.031Z" fill="url(#paint0_linear_607_5201)"/>
<path d="M91.9757 100.266L68.1807 86.4466C66.7488 85.6207 66.9271 84.177 68.5847 83.2204L89.4625 75.1878C91.1142 74.2312 93.6214 74.1302 95.0533 74.9561L111.041 84.3255C112.473 85.1514 112.295 86.5951 110.637 87.5517L97.5605 100.034C95.9088 100.991 93.4075 101.092 91.9757 100.266Z" fill="url(#paint1_linear_607_5201)"/>
<path opacity="0.2" d="M112.01 88.2531C112.01 88.8888 111.552 89.5542 110.643 90.0771L97.5663 102.56C95.9147 103.516 93.4074 103.617 91.9756 102.791L68.1806 88.972C67.4855 88.5739 67.1765 88.0273 67.2181 87.4629C67.2122 87.4926 67.2122 87.5223 67.2122 87.5639C67.2122 87.5817 67.2122 89.3463 67.2122 89.3641C67.224 89.881 67.5389 90.3741 68.1806 90.7425L91.9756 104.562C93.4074 105.388 95.9087 105.287 97.5663 104.33L110.643 91.8476C111.564 91.3188 112.028 90.6356 112.01 89.9939C112.01 89.881 112.028 88.6927 112.01 88.2531Z" fill="url(#paint2_linear_607_5201)"/>
<path opacity="0.8182" d="M111.041 84.3255L95.0533 74.9561C93.6214 74.1302 91.1201 74.2312 89.4625 75.1878L78.9404 79.2338C79.0414 79.311 79.1424 79.3883 79.2672 79.4596L103.062 93.2791C103.395 93.4692 103.781 93.6059 104.203 93.7009L110.643 87.5516C112.295 86.5951 112.479 85.1514 111.041 84.3255Z" fill="url(#paint3_linear_607_5201)"/>
<path d="M110.643 87.2545L97.5663 99.7372C95.9147 100.694 93.4074 100.795 91.9756 99.9689L68.1806 86.1494C67.5865 85.8048 67.2716 85.3592 67.224 84.8779C67.1468 85.4661 67.4617 86.0305 68.1806 86.4464L91.9756 100.266C93.4074 101.092 95.9087 100.991 97.5663 100.034L110.643 87.5515C111.612 86.993 112.069 86.2682 112.004 85.5968C111.926 86.1791 111.469 86.7732 110.643 87.2545Z" fill="white"/>
<path d="M123.061 100.343L64.6278 66.5788C61.6393 64.8558 59.2212 60.2275 59.2212 56.2409V11.5563C59.2212 7.57559 61.6453 5.73972 64.6278 7.46864L123.061 41.2331C126.049 42.9561 128.467 47.5844 128.467 51.571V96.2616C128.467 100.236 126.049 102.066 123.061 100.343Z" fill="url(#paint4_linear_607_5201)"/>
<path d="M123.756 97.2303L66.1489 63.9471C63.7427 62.4202 62.2573 59.3663 62.2573 56.2412V11.2595C62.2573 10.5168 63.0653 10.0594 63.7011 10.4337C63.7783 10.4752 63.8318 10.5109 63.8734 10.5347L121.546 43.8595C124.409 45.5112 125.437 48.4403 125.437 51.5654V96.4045C125.437 97.2006 124.582 97.6938 123.887 97.3016C123.827 97.2719 123.786 97.2482 123.756 97.2303Z" fill="url(#paint5_linear_607_5201)"/>
<path d="M92.5687 36.9375L106.104 44.7513V44.0216L92.5687 36.2078V36.9375Z" fill="url(#paint6_linear_607_5201)"/>
<path d="M81.8157 30.7297L90.719 35.868V35.1383L81.8157 30V30.7297Z" fill="url(#paint7_linear_607_5201)"/>
<path d="M89.6498 38.0544L107.375 48.2904V47.5556L89.6498 37.3247V38.0544Z" fill="url(#paint8_linear_607_5201)"/>
<path d="M81.1041 35.613L98.9563 45.9199V45.1902L81.1041 34.8833V35.613Z" fill="url(#paint9_linear_607_5201)"/>
<path d="M87.8356 42.425L103.225 51.3131V50.5783L87.8356 41.6953V42.425Z" fill="url(#paint10_linear_607_5201)"/>
<path d="M75.0001 35.0161L84.1821 40.3165V39.5868L75.0001 34.2864V35.0161Z" fill="url(#paint11_linear_607_5201)"/>
<path d="M92.6295 47.9336L104.193 54.6123V53.8826L92.6295 47.2039V47.9336Z" fill="url(#paint12_linear_607_5201)"/>
<path d="M84.4761 43.2255L90.719 46.8284V46.0987L84.4761 42.4958V43.2255Z" fill="url(#paint13_linear_607_5201)"/>
<path d="M87.5977 47.7711L106.104 58.4531V57.7234L87.5977 47.0364V47.7711Z" fill="url(#paint14_linear_607_5201)"/>
<path d="M83.5457 47.8258L94.5469 54.1752V53.4455L83.5457 47.0911V47.8258Z" fill="url(#paint15_linear_607_5201)"/>
<path d="M93.4403 56.624L106.104 63.9361V63.2064L93.4403 55.8943V56.624Z" fill="url(#paint16_linear_607_5201)"/>
<path d="M82.0436 50.0458L92.2239 55.9188V55.1891L82.0436 49.311V50.0458Z" fill="url(#paint17_linear_607_5201)"/>
<path d="M75.3853 46.2002L80.8276 49.3419V48.6122L75.3853 45.4705V46.2002Z" fill="url(#paint18_linear_607_5201)"/>
<path d="M88.1904 56.3351L103.681 65.2789V64.5492L88.1904 55.6003V56.3351Z" fill="url(#paint19_linear_607_5201)"/>
<path d="M90.7191 60.5358L106.104 69.4188V68.6891L90.7191 59.801V60.5358Z" fill="url(#paint20_linear_607_5201)"/>
<path d="M79.5457 54.0849L88.9456 59.512V58.7823L79.5457 53.3501V54.0849Z" fill="url(#paint21_linear_607_5201)"/>
<path d="M75.0001 53.925L90.3845 62.8131V62.0783L75.0001 53.1953V53.925Z" fill="url(#paint22_linear_607_5201)"/>
<path d="M89.5637 65.3496L104.953 74.2326V73.5029L89.5637 64.6199V65.3496Z" fill="url(#paint23_linear_607_5201)"/>
<path d="M76.5356 57.83L87.9219 64.4023V63.6726L76.5356 57.0952V57.83Z" fill="url(#paint24_linear_607_5201)"/>
<path d="M121.54 43.8595L63.8673 10.5347C63.8316 10.5109 63.7722 10.4812 63.695 10.4337C63.0533 10.0594 62.2512 10.5168 62.2512 11.2595V56.2412C62.2512 59.3663 63.7365 62.4202 66.1428 63.9471L123.75 97.2303C123.779 97.2482 123.821 97.2719 123.875 97.3016C124.564 97.6938 125.425 97.1947 125.425 96.4045V51.5654C125.431 48.4403 124.403 45.5112 121.54 43.8595ZM124.825 96.4045C124.825 96.6719 124.599 96.8323 124.397 96.8323C124.326 96.8323 124.255 96.8144 124.189 96.7729L66.4577 63.4183C64.2891 62.0399 62.8691 59.2178 62.8691 56.2412V11.2595C62.8691 11.0456 63.0533 10.909 63.2197 10.909C63.2791 10.909 63.3385 10.9268 63.3979 10.9565L121.243 44.3823C124.207 46.0934 124.831 49.2304 124.831 51.5594V96.4045H124.825Z" fill="#BCBEC0"/>
<path d="M124.593 40.4135L66.1606 6.64898C64.9783 5.96572 63.8851 5.84096 62.9939 6.18555C62.881 6.22714 61.3719 7.02922 61.265 7.08863L61.259 7.09457C62.1799 6.64898 63.3504 6.73215 64.6218 7.46888L123.055 41.2334C126.043 42.9564 128.461 47.5846 128.461 51.5713V96.2618C128.461 98.7453 127.517 100.397 126.085 100.86C126.204 100.866 126.346 100.819 126.56 100.7C126.631 100.658 128.265 99.7375 128.331 99.69C129.358 98.9711 130 97.4917 130 95.4419V50.7514C130 46.7647 127.582 42.1364 124.593 40.4135Z" fill="url(#paint25_linear_607_5201)"/>
<path d="M123.316 41.0967L64.8833 7.33817C63.6594 6.63115 62.5305 6.53015 61.6274 6.92228C62.3998 6.79751 63.291 6.98763 64.2357 7.53423L122.669 41.2987C125.657 43.0217 128.075 47.65 128.075 51.6366V96.3272C128.075 98.6799 127.231 100.266 125.924 100.831C127.594 100.563 128.723 98.8522 128.723 96.1311V51.4346C128.729 47.448 126.305 42.8256 123.316 41.0967Z" fill="url(#paint26_radial_607_5201)"/>
<g opacity="0.2">
<path opacity="0.0909" d="M24.0742 70.6822C25.3041 69.9692 26.8548 69.589 28.4055 69.6068C29.0293 69.6127 29.6294 69.6959 30.1819 69.8266C30.7761 69.9633 31.4712 70.2485 31.9524 70.5218L69.7095 92.3204C71.0106 93.069 71.6879 94.2573 71.6107 95.5466C71.5869 95.909 71.5038 96.2655 71.379 96.6101C71.0463 97.525 70.1135 98.4994 69.0619 99.1114L47.8573 111.356C47.59 111.511 47.2394 111.683 46.9483 111.808C45.9264 112.23 44.7619 112.467 43.5855 112.473C42.2428 112.479 41.0189 112.194 40.0564 111.636L2.1508 89.7597C0.849652 89.0111 0.172343 87.8169 0.261462 86.5217C0.279286 86.2068 0.350582 85.9038 0.445643 85.6068C0.754591 84.6324 1.71708 83.5986 2.82811 82.9569L24.0742 70.6822Z" fill="black"/>
<path opacity="0.1818" d="M24.1694 70.8486C25.3992 70.1416 26.9559 69.7732 28.4887 69.8029C29.1126 69.8208 29.7067 69.9158 30.2473 70.0525C30.7821 70.1832 31.5663 70.5218 32 70.7714L69.6145 92.4869C70.9038 93.2355 71.5157 94.4119 71.3612 95.6714C71.3197 96.016 71.2068 96.3487 71.0701 96.6874C70.7433 97.5013 69.6739 98.5351 68.7233 99.0877L47.8277 111.154C47.59 111.291 47.1979 111.493 46.9306 111.606C45.9265 112.028 44.7798 112.271 43.6212 112.289C42.3023 112.301 41.0843 112.028 40.1396 111.481L2.24593 89.5935C0.950726 88.8448 0.344712 87.6566 0.51701 86.397C0.558599 86.1 0.647719 85.8148 0.754663 85.5236C1.05767 84.6562 2.18058 83.5511 3.17278 82.9748L24.1694 70.8486Z" fill="black"/>
<path opacity="0.2727" d="M24.2643 71.0089C25.4882 70.3019 27.0567 69.9454 28.5717 69.9989C29.1955 70.0227 29.7778 70.1355 30.3185 70.2781C30.7938 70.4029 31.6671 70.795 32.0474 71.0208L69.5192 92.6531C70.8026 93.3958 71.3492 94.5722 71.1115 95.7961C71.0462 96.1288 70.9095 96.4377 70.7669 96.7586C70.458 97.4715 69.24 98.5707 68.3963 99.0579L47.7978 110.952C47.5839 111.077 47.1502 111.297 46.9185 111.398C45.9322 111.82 44.8093 112.075 43.6686 112.093C42.3674 112.117 41.1673 111.85 40.2404 111.309L2.33486 89.427C1.03965 88.6784 0.510876 87.4961 0.766352 86.2662C0.825765 85.981 0.944592 85.7137 1.05154 85.4344C1.3486 84.6739 2.62598 83.5035 3.51124 82.9926L24.2643 71.0089Z" fill="black"/>
<path opacity="0.3636" d="M24.3594 71.1753C25.5833 70.4683 27.1518 70.1237 28.655 70.195C29.2788 70.2247 29.8551 70.3554 30.3898 70.5039C30.8057 70.6168 31.7623 71.0684 32.1009 71.2644L69.4302 92.8136C70.7076 93.5503 71.1888 94.7207 70.8621 95.9149C70.7789 96.2298 70.6185 96.515 70.464 96.8299C70.1729 97.4478 68.8064 98.6004 68.0637 99.0282L47.7682 110.744C47.584 110.851 47.1087 111.101 46.9067 111.19C45.9383 111.606 44.8332 111.873 43.7103 111.897C42.4329 111.927 41.2387 111.671 40.3297 111.143L2.43 89.2666C1.14074 88.5239 0.677317 87.3416 1.02191 86.1415C1.09915 85.8741 1.24174 85.6246 1.36057 85.3513C1.64575 84.6977 3.08949 83.4619 3.86186 83.0104L24.3594 71.1753Z" fill="black"/>
<path opacity="0.4545" d="M24.4544 71.3413C25.6724 70.6402 27.2528 70.3016 28.7381 70.3907C29.356 70.4264 29.9323 70.5749 30.4552 70.7294C30.8057 70.8304 31.8573 71.3473 32.1484 71.5136L69.3292 92.9796C70.6006 93.7163 71.0165 94.8749 70.6066 96.0394C70.5056 96.3364 70.3154 96.6038 70.155 96.9068C69.8877 97.4237 68.3667 98.6357 67.731 99.0041L47.7384 110.548C47.578 110.643 47.0671 110.916 46.8888 110.994C45.9442 111.41 44.851 111.683 43.7518 111.719C42.4982 111.754 41.3159 111.505 40.4187 110.988L2.52505 89.0999C1.23578 88.3572 0.837715 87.1809 1.28331 86.0104C1.37837 85.755 1.54473 85.5292 1.6695 85.2618C1.93092 84.7093 3.54695 83.4141 4.21238 83.0279L24.4544 71.3413Z" fill="black"/>
<path opacity="0.5455" d="M24.5494 71.5021C25.7615 70.801 27.3537 70.4802 28.8212 70.5812C29.4391 70.6287 30.0036 70.7891 30.5264 70.9496C30.8175 71.0387 31.9582 71.615 32.1959 71.7516L69.2341 93.1344C70.4996 93.8652 70.856 95.0178 70.357 96.1467C70.2322 96.4259 70.0777 96.7052 69.852 96.9666C69.6975 97.43 67.927 98.6599 67.4041 98.9629L47.7206 110.34C47.5898 110.418 47.0314 110.721 46.8888 110.78C45.9619 111.196 44.8925 111.481 43.8052 111.517C42.5694 111.558 41.399 111.321 40.5256 110.816L2.62004 88.9339C1.33671 88.1913 0.998057 87.0208 1.53872 85.8801C1.6516 85.6424 1.78825 85.3988 1.97837 85.1731C2.11502 84.6799 4.0103 83.361 4.56285 83.0401L24.5494 71.5021Z" fill="black"/>
<path opacity="0.6364" d="M24.6445 71.6682C25.8565 70.9672 27.4547 70.6582 28.9044 70.777C29.5223 70.8305 30.0808 71.0147 30.5917 71.1751C30.8234 71.2524 32.0533 71.8881 32.2434 72.001L69.139 93.3065C70.3986 94.0313 70.6956 95.178 70.1074 96.2772C69.9648 96.5386 69.7866 96.8 69.5489 97.0436C69.4242 97.412 67.4932 98.6953 67.0714 98.9389L47.6849 110.132C47.578 110.192 46.9838 110.518 46.8709 110.572C45.9619 110.988 44.9103 111.279 43.8409 111.321C42.6288 111.368 41.4703 111.142 40.6088 110.649L2.71508 88.7733C1.4377 88.0366 1.15846 86.8602 1.79418 85.7551C1.92489 85.5293 2.07936 85.3036 2.28137 85.0897C2.39425 84.6975 4.46183 83.3192 4.90743 83.0637L24.6445 71.6682Z" fill="black"/>
<path opacity="0.7273" d="M24.7398 71.8348C25.9459 71.1397 27.55 70.8367 28.9878 70.9793C29.6057 71.0387 30.1523 71.2407 30.6633 71.413C30.8356 71.4724 32.1545 72.1735 32.2971 72.2567L69.0501 93.479C70.3037 94.2039 70.5473 95.3446 69.8641 96.4081C69.7036 96.6576 69.5076 96.9012 69.2521 97.127C69.163 97.4062 67.0657 98.7371 66.7508 98.9213L47.6673 109.936C47.5901 109.984 46.9543 110.335 46.8652 110.376C45.974 110.792 44.9402 111.089 43.8946 111.143C42.7004 111.202 41.5537 110.982 40.71 110.495L2.81037 88.6071C1.53299 87.8704 1.31316 86.7 2.05582 85.6246C2.20435 85.4107 2.37665 85.2028 2.59648 85.0008C2.67966 84.7037 4.93142 83.2718 5.26413 83.0758L24.7398 71.8348Z" fill="black"/>
<path opacity="0.8182" d="M24.8346 71.9948C26.0407 71.2997 27.6508 71.0086 29.0648 71.169C29.6768 71.2403 30.2234 71.4542 30.7225 71.6324C30.8354 71.674 32.2375 72.4464 32.3385 72.4998L68.9489 93.639C70.1966 94.3579 70.3867 95.4987 69.6084 96.5265C69.4361 96.7582 69.2163 96.984 68.943 97.1979C68.8835 97.3821 66.6258 98.7664 66.412 98.8912L47.6315 109.734C47.578 109.764 46.9066 110.144 46.8472 110.174C45.9738 110.584 44.9579 110.899 43.93 110.952C42.7596 111.017 41.6248 110.809 40.793 110.334L2.90524 88.4404C1.6338 87.7037 1.46744 86.5332 2.31111 85.4935C2.47153 85.2974 2.66759 85.0954 2.8993 84.9113C2.95277 84.7152 5.38277 83.218 5.60854 83.0932L24.8346 71.9948Z" fill="black"/>
<path opacity="0.9091" d="M24.9299 72.1615C26.13 71.4663 27.752 71.193 29.1482 71.3653C29.7602 71.4426 30.2949 71.6743 30.794 71.8585C30.8534 71.8822 32.3387 72.7199 32.3862 72.7437L68.854 93.7997C70.0898 94.5127 70.2324 95.6594 69.359 96.6397C69.1689 96.8536 68.9313 97.0674 68.6402 97.2576C68.6104 97.3526 66.1864 98.7904 66.0854 98.8498L47.6079 109.514C47.5841 109.532 46.8652 109.936 46.8415 109.948C45.9859 110.358 44.9937 110.679 43.9837 110.744C42.837 110.816 41.7141 110.62 40.9001 110.15L3.0005 88.2802C1.72906 87.5495 1.61617 86.3671 2.56678 85.369C2.74502 85.1848 2.95297 85.0006 3.20845 84.8343C3.23815 84.7333 5.84639 83.1826 5.95927 83.1172L24.9299 72.1615Z" fill="black"/>
<path opacity="0.2" d="M40.9951 109.995L3.09544 88.1134C1.59823 87.2519 1.78835 85.7428 3.51728 84.7446L25.0248 72.3273C26.7538 71.3292 29.3679 71.2222 30.8651 72.0837L68.7648 93.9656C70.262 94.8271 70.0719 96.3362 68.343 97.3343L46.8354 109.752C45.1065 110.75 42.4923 110.857 40.9951 109.995Z" fill="black"/>
</g>
<path d="M40.9951 109.96L3.09547 88.0782C2.43005 87.692 2.09733 87.1811 2.08545 86.6404C2.08545 86.6226 2.08545 84.7808 2.08545 84.763C2.09733 84.1094 2.57858 85.2442 3.51731 84.7095L25.0249 72.2921C26.7538 71.294 29.368 71.1871 30.8652 72.0485L68.7648 93.9304C69.2639 94.2215 69.6263 92.9917 69.757 93.3838C69.7986 93.5145 69.7748 95.2316 69.7748 95.3682C69.7867 96.0396 69.3055 96.7525 68.343 97.3051L46.8354 109.722C45.1065 110.715 42.4923 110.828 40.9951 109.96Z" fill="url(#paint27_linear_607_5201)"/>
<path d="M40.9951 108.118L3.09544 86.2362C1.59823 85.3747 1.78835 83.8656 3.51728 82.8675L25.0248 70.4501C26.7538 69.452 29.3679 69.345 30.8651 70.2065L68.7648 92.0884C70.262 92.9499 70.0719 94.459 68.343 95.4571L46.8354 107.874C45.1065 108.873 42.4923 108.98 40.9951 108.118Z" fill="url(#paint28_linear_607_5201)"/>
<path opacity="0.2" d="M69.7689 96.3719C69.7689 97.0373 69.2877 97.7324 68.343 98.279L46.8354 110.696C45.1065 111.694 42.4923 111.801 40.9951 110.94L3.09547 89.0581C2.37063 88.6422 2.04386 88.0718 2.09139 87.4836C2.08545 87.5133 2.08545 87.5431 2.08545 87.5846C2.08545 87.6025 2.08545 89.4443 2.08545 89.4621C2.09733 90.0028 2.43005 90.5137 3.09547 90.8999L40.9951 112.782C42.4923 113.643 45.1065 113.536 46.8354 112.538L68.343 100.121C69.2995 99.5683 69.7867 98.8553 69.7748 98.184C69.7689 98.0711 69.7867 96.8353 69.7689 96.3719Z" fill="url(#paint29_linear_607_5201)"/>
<path d="M43.5321 107.946C42.6765 107.946 41.9101 107.773 41.3754 107.464L3.47573 85.5825C3.23807 85.4458 2.84595 85.1606 2.84595 84.7745C2.84595 84.3705 3.23807 83.9011 3.89756 83.5208L25.4051 71.1035C26.2013 70.646 27.2707 70.3787 28.3282 70.3787C29.1838 70.3787 29.9502 70.551 30.4849 70.8599L68.3846 92.7418C68.6222 92.8784 69.0144 93.1636 69.0144 93.5498C69.0144 93.9538 68.6222 94.4232 67.9628 94.8034L46.4552 107.221C45.6591 107.678 44.5956 107.946 43.5321 107.946Z" fill="url(#paint30_linear_607_5201)"/>
<path d="M68.3429 95.1482L46.8353 107.566C45.1064 108.564 42.4922 108.671 40.995 107.809L3.09538 85.9214C2.47154 85.5649 2.15071 85.0955 2.09724 84.5964C2.02 85.2084 2.34678 85.8025 3.09538 86.2362L40.995 108.118C42.4922 108.98 45.1064 108.873 46.8353 107.875L68.3429 95.4572C69.3529 94.8749 69.8342 94.1144 69.7629 93.4134C69.6856 94.0253 69.2044 94.6491 68.3429 95.1482Z" fill="white"/>
<path opacity="0.2" d="M47.7326 100.056L16.9566 82.2853C16.3387 81.9288 16.4159 81.3109 17.1289 80.895L28.6848 74.2229C29.3977 73.813 30.4731 73.7654 31.091 74.1219L61.867 91.8924C62.4849 92.2489 62.4077 92.8668 61.6947 93.2827L50.1389 99.9548C49.4259 100.371 48.3446 100.412 47.7326 100.056Z" fill="#D4ECFF"/>
<g opacity="0.5">
<path d="M29.356 75.5299L31.3285 76.6707C31.578 76.8132 31.982 76.8132 32.2316 76.6707C32.4811 76.5281 32.4811 76.2904 32.2316 76.1478L30.2591 75.0071C30.0095 74.8645 29.6055 74.8645 29.356 75.0071C29.1064 75.1497 29.1064 75.3814 29.356 75.5299ZM32.7306 77.4787L33.6634 78.0193C33.913 78.1619 34.317 78.1679 34.5665 78.0193C34.8161 77.8767 34.8161 77.6391 34.5665 77.4965L33.6337 76.9558C33.3842 76.8132 32.9802 76.8073 32.7306 76.9558C32.4811 77.0984 32.4811 77.3361 32.7306 77.4787ZM35.0715 78.8274L36.0043 79.368C36.2538 79.5106 36.6579 79.5106 36.9074 79.368C37.1569 79.2254 37.1569 78.9878 36.9074 78.8452L35.9746 78.3045C35.7251 78.1619 35.3211 78.1619 35.0715 78.3045C34.822 78.4471 34.822 78.6848 35.0715 78.8274ZM37.4124 80.176L38.3452 80.7167C38.5947 80.8593 38.9987 80.8593 39.2483 80.7167C39.4978 80.5741 39.4978 80.3365 39.2483 80.1939L38.3155 79.6532C38.0659 79.5106 37.6619 79.5047 37.4124 79.6532C37.1569 79.8017 37.1569 80.0334 37.4124 80.176ZM39.7473 81.5307L40.6801 82.0713C40.9297 82.2139 41.3337 82.2139 41.5832 82.0713C41.8327 81.9287 41.8327 81.6911 41.5832 81.5485L40.6504 81.0078C40.4009 80.8652 39.9969 80.8652 39.7473 81.0078C39.4978 81.1504 39.4978 81.3821 39.7473 81.5307ZM42.0882 82.8793L43.021 83.42C43.2705 83.5626 43.6746 83.5626 43.9241 83.42C44.1736 83.2774 44.1736 83.0397 43.9241 82.8972L42.9913 82.3565C42.7418 82.2139 42.3378 82.2139 42.0882 82.3565C41.8327 82.4991 41.8387 82.7367 42.0882 82.8793ZM44.4232 84.228L45.3559 84.7687C45.6055 84.9113 46.0095 84.9113 46.259 84.7687C46.5086 84.6261 46.5086 84.3884 46.259 84.2458L45.3262 83.7052C45.0767 83.5626 44.6727 83.5626 44.4232 83.7052C44.1736 83.8478 44.1736 84.0854 44.4232 84.228ZM46.764 85.5767L47.6968 86.1173C47.9464 86.2599 48.3504 86.2599 48.5999 86.1173C48.8494 85.9748 48.8494 85.7371 48.5999 85.5945L47.6671 85.0539C47.4176 84.9113 47.0136 84.9113 46.764 85.0539C46.5145 85.2024 46.5145 85.4341 46.764 85.5767ZM49.1049 86.9313L50.0377 87.472C50.2872 87.6146 50.6912 87.6205 50.9408 87.472C51.1903 87.3234 51.1903 87.0917 50.9408 86.9491L50.008 86.4085C49.7585 86.2659 49.3545 86.2659 49.1049 86.4085C48.8494 86.5511 48.8554 86.7828 49.1049 86.9313ZM51.4399 88.28L52.3726 88.8206C52.6222 88.9632 53.0262 88.9632 53.2757 88.8206C53.5252 88.6781 53.5252 88.4404 53.2757 88.2978L52.3429 87.7572C52.0934 87.6146 51.6894 87.6146 51.4399 87.7572C51.1903 87.8997 51.1903 88.1374 51.4399 88.28ZM53.7807 89.6287L54.7135 90.1693C54.963 90.3119 55.3671 90.3179 55.6166 90.1693C55.8661 90.0267 55.8661 89.7891 55.6166 89.6465L54.6838 89.1058C54.4343 88.9632 54.0303 88.9573 53.7807 89.1058C53.5312 89.2544 53.5312 89.4861 53.7807 89.6287ZM56.1216 90.9833L57.0544 91.5239C57.3039 91.6665 57.7079 91.6665 57.9575 91.5239C58.207 91.3814 58.207 91.1437 57.9575 91.0011L57.0247 90.4605C56.7752 90.3179 56.3711 90.3179 56.1216 90.4605C55.8661 90.603 55.8661 90.8348 56.1216 90.9833ZM58.5041 92.3617L59.4369 92.9023C59.6864 93.0449 60.0904 93.0449 60.3399 92.9023C60.5895 92.7597 60.5895 92.5221 60.3399 92.3795L59.4072 91.8388C59.1576 91.6962 58.7536 91.6962 58.5041 91.8388C58.2545 91.9814 58.2545 92.2131 58.5041 92.3617ZM27.2528 76.8133L28.0608 77.2826C28.346 77.449 28.8094 77.449 29.0886 77.2826L29.8907 76.8192C30.1759 76.6528 30.1699 76.3914 29.8848 76.2251L29.0767 75.7557C28.7916 75.5893 28.3281 75.5893 28.0489 75.7557L27.2468 76.2191C26.9676 76.3855 26.9676 76.6528 27.2528 76.8133ZM31.4295 78.6372L32.2316 78.1738C32.5168 78.0075 32.5168 77.746 32.2256 77.5797L31.4176 77.1103C31.1324 76.944 30.669 76.944 30.3898 77.1103L29.5877 77.5737C29.3025 77.7401 29.3085 78.0015 29.5936 78.1679L30.4017 78.6372C30.6868 78.7976 31.1443 78.7976 31.4295 78.6372ZM31.9286 79.5166L32.7366 79.9859C33.0218 80.1523 33.4852 80.1523 33.7644 79.9859L34.5665 79.5225C34.8517 79.3561 34.8458 79.0947 34.5606 78.9284L33.7526 78.459C33.4674 78.2926 33.004 78.2926 32.7247 78.459L31.9226 78.9224C31.6434 79.0828 31.6434 79.3502 31.9286 79.5166ZM34.2695 80.8652L35.0775 81.3346C35.3627 81.501 35.8261 81.501 36.1053 81.3346L36.9074 80.8712C37.1926 80.7048 37.1926 80.4434 36.9015 80.277L36.0934 79.8077C35.8083 79.6413 35.3448 79.6413 35.0656 79.8077L34.2635 80.2711C33.9843 80.4374 33.9843 80.6989 34.2695 80.8652ZM39.2483 81.6257L38.4403 81.1564C38.1551 80.99 37.6916 80.99 37.4124 81.1564L36.6103 81.6198C36.3251 81.7861 36.3251 82.0475 36.6163 82.2139L37.4243 82.6833C37.7095 82.8496 38.1729 82.8496 38.4521 82.6833L39.2542 82.2198C39.5335 82.0594 39.5335 81.7921 39.2483 81.6257ZM41.5832 82.9744L40.7752 82.505C40.49 82.3387 40.0266 82.3387 39.7473 82.505L38.9453 82.9685C38.6601 83.1348 38.6601 83.3962 38.9512 83.5626L39.7592 84.0319C40.0444 84.1983 40.5078 84.1983 40.7871 84.0319L41.5891 83.5685C41.8743 83.4081 41.8684 83.1407 41.5832 82.9744ZM43.9241 84.329L43.1161 83.8597C42.8309 83.6933 42.3675 83.6933 42.0882 83.8597L41.2861 84.3231C41.001 84.4894 41.0069 84.7508 41.2921 84.9172L42.1001 85.3866C42.3853 85.5529 42.8487 85.5529 43.1279 85.3866L43.93 84.9231C44.2093 84.7568 44.2093 84.4894 43.9241 84.329ZM46.265 85.6777L45.4569 85.2083C45.1718 85.042 44.7083 85.042 44.4291 85.2083L43.627 85.6717C43.3418 85.8381 43.3478 86.0995 43.633 86.2659L44.441 86.7352C44.7262 86.9016 45.1896 86.9016 45.4688 86.7352L46.2709 86.2718C46.5501 86.1055 46.5501 85.8441 46.265 85.6777ZM48.5999 87.0264L47.7919 86.557C47.5067 86.3906 47.0433 86.3906 46.764 86.557L45.962 87.0204C45.6768 87.1868 45.6827 87.4482 45.9679 87.6146L46.7759 88.0839C47.0611 88.2503 47.5245 88.2503 47.8038 88.0839L48.6058 87.6205C48.891 87.4601 48.8851 87.1927 48.5999 87.0264ZM50.9408 88.375L50.1328 87.9057C49.8476 87.7393 49.3842 87.7393 49.1049 87.9057L48.3028 88.3691C48.0177 88.5355 48.0177 88.7969 48.3088 88.9632L49.1168 89.4326C49.402 89.599 49.8654 89.599 50.1446 89.4326L50.9467 88.9692C51.226 88.8088 51.226 88.5414 50.9408 88.375ZM50.6378 90.3179L51.4458 90.7872C51.731 90.9536 52.1944 90.9536 52.4736 90.7872L53.2757 90.3238C53.5609 90.1574 53.555 89.896 53.2698 89.7297L52.4618 89.2603C52.1766 89.094 51.7132 89.094 51.4339 89.2603L50.6318 89.7237C50.3526 89.8841 50.3526 90.1515 50.6378 90.3179ZM55.6166 91.0783L54.8086 90.609C54.5234 90.4426 54.06 90.4426 53.7807 90.609L52.9786 91.0724C52.6935 91.2388 52.6994 91.5002 52.9846 91.6665L53.7926 92.1359C54.0778 92.3023 54.5412 92.3023 54.8205 92.1359L55.6225 91.6725C55.9077 91.5121 55.9018 91.2447 55.6166 91.0783ZM59.0447 93.0568L57.197 91.9933C56.9118 91.827 56.4484 91.827 56.1691 91.9933L55.3671 92.4567C55.0819 92.6231 55.0878 92.8845 55.373 93.0509L57.2208 94.1144C57.5059 94.2807 57.9694 94.2807 58.2486 94.1144L59.0507 93.6509C59.3299 93.4846 59.3299 93.2232 59.0447 93.0568ZM25.0842 78.0669L26.9319 79.1304C27.2171 79.2967 27.6805 79.2967 27.9598 79.1304L28.7619 78.6669C29.047 78.5006 29.047 78.2392 28.7559 78.0728L26.9082 77.0093C26.623 76.843 26.1596 76.843 25.8803 77.0093L25.0782 77.4727C24.799 77.6332 24.799 77.9005 25.0842 78.0669ZM28.4648 80.0156L29.2728 80.485C29.558 80.6513 30.0214 80.6513 30.3007 80.485L31.1027 80.0216C31.3879 79.8552 31.382 79.5938 31.0968 79.4274L30.2888 78.9581C30.0036 78.7917 29.5402 78.7917 29.2609 78.9581L28.4588 79.4215C28.1737 79.5819 28.1796 79.8493 28.4648 80.0156ZM31.6077 81.8337C31.8929 82 32.3563 82 32.6356 81.8337L33.4377 81.3702C33.7228 81.2039 33.7169 80.9425 33.4317 80.7761L32.6237 80.3067C32.3385 80.1404 31.8751 80.1404 31.5959 80.3067L30.7938 80.7702C30.5086 80.9365 30.5086 81.1979 30.7997 81.3643L31.6077 81.8337ZM33.9486 83.1823C34.2338 83.3487 34.6972 83.3487 34.9765 83.1823L35.7785 82.7189C36.0637 82.5526 36.0578 82.2911 35.7726 82.1248L34.9646 81.6554C34.6794 81.4891 34.216 81.4891 33.9367 81.6554L33.1347 82.1188C32.8495 82.2852 32.8495 82.5466 33.1406 82.713L33.9486 83.1823ZM36.2776 83.01L35.4755 83.4735C35.1904 83.6398 35.1904 83.9012 35.4815 84.0676L36.2895 84.537C36.5747 84.7033 37.0381 84.7033 37.3173 84.537L38.1194 84.0735C38.4046 83.9072 38.3987 83.6458 38.1135 83.4794L37.3055 83.01C37.0262 82.8437 36.5628 82.8437 36.2776 83.01ZM38.666 84.329L37.7629 84.8519C37.5075 85.0004 37.5075 85.238 37.7629 85.3866L38.672 85.9094C38.9274 86.0579 39.3493 86.0579 39.6048 85.9094L40.5078 85.3866C40.7633 85.238 40.7633 85.0004 40.5078 84.8519L39.5988 84.329C39.3433 84.1805 38.9215 84.1805 38.666 84.329ZM41.0069 85.6777L40.1038 86.2005C39.8483 86.3491 39.8483 86.5867 40.1038 86.7352L41.0128 87.2581C41.2683 87.4066 41.6902 87.4066 41.9456 87.2581L42.8487 86.7352C43.1042 86.5867 43.1042 86.3491 42.8487 86.2005L41.9397 85.6777C41.6783 85.5292 41.2624 85.5292 41.0069 85.6777ZM43.3478 87.0323L42.4447 87.5552C42.1892 87.7037 42.1892 87.9413 42.4447 88.0899L43.3537 88.6127C43.6092 88.7612 44.031 88.7612 44.2865 88.6127L45.1896 88.0899C45.4451 87.9413 45.4451 87.7037 45.1896 87.5552L44.2806 87.0323C44.0191 86.8838 43.6033 86.8838 43.3478 87.0323ZM45.6827 88.381L44.7796 88.9038C44.5242 89.0524 44.5242 89.29 44.7796 89.4385L45.6887 89.9614C45.9441 90.1099 46.366 90.1099 46.6214 89.9614L47.5245 89.4385C47.78 89.29 47.78 89.0524 47.5245 88.9038L46.6155 88.381C46.36 88.2325 45.9382 88.2325 45.6827 88.381ZM48.0236 89.7297L47.1205 90.2525C46.865 90.401 46.865 90.6387 47.1205 90.7872L48.0295 91.3101C48.285 91.4586 48.7068 91.4586 48.9623 91.3101L49.8654 90.7872C50.1209 90.6387 50.1209 90.401 49.8654 90.2525L48.9564 89.7297C48.695 89.5811 48.2791 89.5811 48.0236 89.7297ZM51.3032 92.6647L52.2063 92.1418C52.4618 91.9933 52.4618 91.7557 52.2063 91.6071L51.2973 91.0843C51.0418 90.9358 50.6199 90.9358 50.3645 91.0843L49.4614 91.6071C49.2059 91.7557 49.2059 91.9933 49.4614 92.1418L50.3704 92.6647C50.6259 92.8132 51.0477 92.8132 51.3032 92.6647ZM53.6381 94.0134L54.5412 93.4905C54.7967 93.342 54.7967 93.1043 54.5412 92.9499L53.6322 92.427C53.3767 92.2785 52.9549 92.2785 52.6994 92.427L51.7963 92.9499C51.5409 93.0984 51.5409 93.3361 51.7963 93.4846L52.7053 94.0074C52.9668 94.1619 53.3827 94.1619 53.6381 94.0134ZM56.9296 94.3342L56.0206 93.8114C55.7651 93.6628 55.3433 93.6628 55.0878 93.8114L54.1847 94.3342C53.9293 94.4827 53.9293 94.7204 54.1847 94.8748L55.0938 95.3977C55.3492 95.5462 55.7711 95.5462 56.0265 95.3977L56.9296 94.8748C57.1851 94.7263 57.1851 94.4827 56.9296 94.3342ZM22.8681 79.2908L25.8031 80.984C26.0586 81.1326 26.4804 81.1326 26.7359 80.984L27.6389 80.4612C27.8944 80.3127 27.8944 80.075 27.6389 79.9265L24.7039 78.2332C24.4485 78.0847 24.0266 78.0847 23.7711 78.2332L22.8681 78.7561C22.6126 78.8986 22.6126 79.1363 22.8681 79.2908ZM27.2349 81.804L28.144 82.3268C28.3994 82.4753 28.8213 82.4753 29.0767 82.3268L29.9798 81.804C30.2353 81.6554 30.2353 81.4178 29.9798 81.2633L29.0708 80.7405C28.8153 80.5919 28.3935 80.5919 28.138 80.7405L27.2349 81.2633C26.9735 81.4178 26.9735 81.6554 27.2349 81.804ZM29.5699 83.1586L30.4789 83.6814C30.7344 83.8299 31.1562 83.8299 31.4117 83.6814L32.3148 83.1586C32.5702 83.01 32.5702 82.7724 32.3148 82.6239L31.4057 82.101C31.1503 81.9525 30.7284 81.9525 30.4729 82.101L29.5699 82.6239C29.3144 82.7664 29.3144 83.01 29.5699 83.1586ZM31.9107 84.5073L32.8198 85.0301C33.0752 85.1786 33.4971 85.1786 33.7526 85.0301L34.6556 84.5073C34.9111 84.3587 34.9111 84.1211 34.6556 83.9725L33.7466 83.4497C33.4911 83.3012 33.0693 83.3012 32.8138 83.4497L31.9107 83.9725C31.6493 84.1151 31.6553 84.3587 31.9107 84.5073ZM36.0875 86.3847L36.9906 85.8619C37.246 85.7133 37.246 85.4757 36.9906 85.3272L36.0816 84.8043C35.8261 84.6558 35.4042 84.6558 35.1488 84.8043L34.2457 85.3272C33.9902 85.4757 33.9902 85.7133 34.2457 85.8619L35.1547 86.3847C35.4161 86.5332 35.832 86.5332 36.0875 86.3847ZM38.4284 87.7334L39.3314 87.2106C39.5869 87.062 39.5869 86.8244 39.3314 86.6758L38.4224 86.153C38.167 86.0045 37.7451 86.0045 37.4896 86.153L36.5866 86.6758C36.3311 86.8244 36.3311 87.062 36.5866 87.2106L37.4956 87.7334C37.757 87.8819 38.1729 87.8819 38.4284 87.7334ZM40.7633 89.0821L41.6664 88.5592C41.9219 88.4107 41.9219 88.173 41.6664 88.0245L40.7574 87.5017C40.5019 87.3531 40.0801 87.3531 39.8246 87.5017L38.9215 88.0245C38.666 88.173 38.666 88.4107 38.9215 88.5592L39.8305 89.0821C40.0919 89.2306 40.5078 89.2306 40.7633 89.0821ZM43.1042 90.4367L44.0073 89.9139C44.2627 89.7653 44.2627 89.5277 44.0073 89.3791L43.0982 88.8563C42.8428 88.7078 42.4209 88.7078 42.1655 88.8563L41.2624 89.3791C41.0069 89.5277 41.0069 89.7653 41.2624 89.9139L42.1714 90.4367C42.4328 90.5793 42.8487 90.5852 43.1042 90.4367ZM45.4451 91.7854L46.3481 91.2625C46.6036 91.114 46.6036 90.8763 46.3481 90.7278L45.4391 90.205C45.1836 90.0564 44.7618 90.0564 44.5063 90.205L43.6033 90.7278C43.3478 90.8763 43.3478 91.114 43.6033 91.2625L44.5123 91.7854C44.7678 91.9339 45.1896 91.9339 45.4451 91.7854ZM47.78 93.134L48.6831 92.6112C48.9386 92.4627 48.9386 92.225 48.6831 92.0765L47.7741 91.5537C47.5186 91.4051 47.0967 91.4051 46.8413 91.5537L45.9382 92.0765C45.6827 92.225 45.6827 92.4627 45.9382 92.6112L46.8472 93.134C47.1086 93.2826 47.5245 93.2826 47.78 93.134ZM48.2791 93.9599L49.1881 94.4827C49.4436 94.6313 49.8654 94.6313 50.1209 94.4827L51.024 93.9599C51.2794 93.8114 51.2794 93.5737 51.024 93.4252L50.1149 92.9023C49.8595 92.7538 49.4376 92.7538 49.1821 92.9023L48.2791 93.4252C48.0236 93.5678 48.0236 93.8114 48.2791 93.9599ZM54.761 95.5878L52.4499 94.257C52.1944 94.1084 51.7726 94.1084 51.5171 94.257L50.6199 94.7738C50.3645 94.9224 50.3645 95.16 50.6259 95.3086L52.9371 96.6394C53.1925 96.788 53.6144 96.788 53.8698 96.6394L54.7729 96.1166C55.0225 95.974 55.0165 95.7363 54.761 95.5878ZM20.7114 80.6038L24.8703 83.0041C25.1614 83.1705 25.6308 83.1705 25.9219 83.0041L26.7062 82.5526C26.9973 82.3862 26.9973 82.1129 26.7002 81.9465L22.5413 79.5463C22.2502 79.3799 21.7808 79.3799 21.4897 79.5463L20.7054 79.9978C20.4202 80.1642 20.4202 80.4374 20.7114 80.6038ZM26.4269 83.9012L27.2112 84.3528C27.5023 84.5191 27.9717 84.5191 28.2628 84.3528L29.047 83.9012C29.3382 83.7349 29.3322 83.4616 29.0411 83.2952L28.2568 82.8437C27.9657 82.6773 27.4964 82.6773 27.2052 82.8437L26.421 83.2952C26.1298 83.4616 26.1358 83.7349 26.4269 83.9012ZM28.7619 85.2499L29.5461 85.7015C29.8372 85.8678 30.3066 85.8678 30.5977 85.7015L31.382 85.2499C31.6731 85.0836 31.6672 84.8103 31.376 84.6439L30.5918 84.1924C30.3007 84.026 29.8313 84.026 29.5402 84.1924L28.7559 84.6439C28.4707 84.8103 28.4707 85.0836 28.7619 85.2499ZM31.1027 86.6045L31.887 87.0561C32.1781 87.2224 32.6475 87.2224 32.9386 87.0561L33.7228 86.6045C34.014 86.4382 34.008 86.1649 33.7169 85.9985L32.9327 85.547C32.6415 85.3806 32.1722 85.3806 31.881 85.547L31.0968 85.9985C30.8116 86.1589 30.8116 86.4322 31.1027 86.6045ZM33.4436 87.9532L34.2279 88.4048C34.519 88.5711 34.9883 88.5711 35.2795 88.4048L36.0637 87.9532C36.3549 87.7869 36.3489 87.5136 36.0578 87.3472L35.2735 86.8957C34.9824 86.7293 34.513 86.7293 34.2219 86.8957L33.4377 87.3472C33.1465 87.5136 33.1525 87.7809 33.4436 87.9532ZM35.7785 89.3019L36.5628 89.7534C36.8539 89.9198 37.3233 89.9198 37.6144 89.7534L38.3987 89.3019C38.6898 89.1355 38.6838 88.8622 38.3927 88.6959L37.6085 88.2443C37.3173 88.078 36.848 88.078 36.5569 88.2443L35.7726 88.6959C35.4874 88.8622 35.4874 89.1355 35.7785 89.3019ZM38.1194 90.6506L38.9037 91.1021C39.1948 91.2685 39.6642 91.2685 39.9553 91.1021L40.7395 90.6506C41.0307 90.4842 41.0307 90.2109 40.7336 90.0446L39.9493 89.593C39.6582 89.4267 39.1889 89.4267 38.8977 89.593L38.1135 90.0446C37.8283 90.2109 37.8283 90.4842 38.1194 90.6506ZM40.4603 92.0052L41.2446 92.4567C41.5357 92.6231 42.005 92.6231 42.2962 92.4567L43.0804 92.0052C43.3715 91.8388 43.3656 91.5655 43.0745 91.3992L42.2902 90.9476C41.9991 90.7813 41.5297 90.7813 41.2386 90.9476L40.4544 91.3992C40.1632 91.5655 40.1632 91.8329 40.4603 92.0052ZM42.7952 93.3539L43.5795 93.8054C43.8706 93.9718 44.34 93.9718 44.6311 93.8054L45.4154 93.3539C45.7065 93.1875 45.7065 92.9142 45.4094 92.7479L44.6252 92.2963C44.334 92.13 43.8647 92.13 43.5735 92.2963L42.7893 92.7479C42.5041 92.9142 42.5041 93.1875 42.7952 93.3539ZM45.1361 94.7026L45.9204 95.1541C46.2115 95.3204 46.6809 95.3204 46.972 95.1541L47.7562 94.7026C48.0474 94.5362 48.0414 94.2629 47.7503 94.0965L46.966 93.645C46.6749 93.4786 46.2056 93.4786 45.9144 93.645L45.1302 94.0965C44.845 94.2629 44.845 94.5362 45.1361 94.7026ZM47.4711 96.0512L48.2553 96.5028C48.5464 96.6691 49.0158 96.6691 49.3069 96.5028L50.0912 96.0512C50.3823 95.8849 50.3823 95.6116 50.0852 95.4452L49.301 94.9937C49.0099 94.8273 48.5405 94.8273 48.2494 94.9937L47.4651 95.4452C47.1799 95.6116 47.1799 95.8849 47.4711 96.0512ZM52.4796 96.8295L51.6953 96.378C51.4042 96.2116 50.9348 96.2116 50.6437 96.378L49.8595 96.8295C49.5683 96.9959 49.5743 97.2692 49.8654 97.4356L50.6497 97.8871C50.9408 98.0535 51.4101 98.0535 51.7013 97.8871L52.4855 97.4356C52.7766 97.2692 52.7766 97.0018 52.4796 96.8295ZM22.2026 81.8515L20.3787 80.7999C20.0875 80.6335 19.6182 80.6335 19.327 80.7999L18.5428 81.2514C18.2517 81.4178 18.2576 81.6911 18.5487 81.8574L20.3727 82.909C20.6638 83.0754 21.1332 83.0754 21.4243 82.909L22.2086 82.4575C22.4938 82.2911 22.4938 82.0178 22.2026 81.8515ZM24.5435 83.2002L23.7593 82.7486C23.4681 82.5823 22.9988 82.5823 22.7077 82.7486L21.9234 83.2002C21.6323 83.3665 21.6382 83.6398 21.9293 83.8062L22.7136 84.2577C23.0047 84.4241 23.4741 84.4241 23.7652 84.2577L24.5495 83.8062C24.8346 83.6398 24.8346 83.3665 24.5435 83.2002ZM26.8785 84.5488L26.0942 84.0973C25.8031 83.9309 25.3337 83.9309 25.0426 84.0973L24.2583 84.5488C23.9672 84.7152 23.9672 84.9885 24.2643 85.1549L25.0485 85.6064C25.3397 85.7728 25.809 85.7728 26.1001 85.6064L26.8844 85.1549C27.1755 84.9885 27.1696 84.7211 26.8785 84.5488ZM43.2527 94.0015L28.4351 85.446C28.144 85.2796 27.6746 85.2796 27.3835 85.446L26.5992 85.8975C26.3081 86.0639 26.314 86.3372 26.6052 86.5035L41.4228 95.059C41.7139 95.2254 42.1833 95.2254 42.4744 95.059L43.2587 94.6075C43.5438 94.4411 43.5438 94.1738 43.2527 94.0015ZM45.5877 95.3561L44.8034 94.9046C44.5123 94.7382 44.0429 94.7382 43.7518 94.9046L42.9675 95.3561C42.6764 95.5225 42.6764 95.7958 42.9735 95.9621L43.7577 96.4136C44.0489 96.58 44.5182 96.58 44.8093 96.4136L45.5936 95.9621C45.8847 95.7958 45.8788 95.5225 45.5877 95.3561ZM47.9285 96.7048L47.1443 96.2532C46.8532 96.0869 46.3838 96.0869 46.0927 96.2532L45.3084 96.7048C45.0173 96.8711 45.0232 97.1444 45.3144 97.3108L46.0986 97.7623C46.3897 97.9287 46.8591 97.9287 47.1502 97.7623L47.9345 97.3108C48.2197 97.1444 48.2197 96.8711 47.9285 96.7048ZM50.3169 98.0832L49.5327 97.6316C49.2416 97.4653 48.7722 97.4653 48.4811 97.6316L47.6968 98.0832C47.4057 98.2495 47.4057 98.5228 47.7028 98.6892L48.487 99.1407C48.7781 99.3071 49.2475 99.3071 49.5386 99.1407L50.3229 98.6892C50.6081 98.5228 50.6081 98.2495 50.3169 98.0832Z" fill="url(#paint31_linear_607_5201)"/>
<path d="M29.356 75.5299L31.3285 76.6707C31.578 76.8132 31.982 76.8132 32.2316 76.6707C32.4811 76.5281 32.4811 76.2904 32.2316 76.1478L30.2591 75.0071C30.0095 74.8645 29.6055 74.8645 29.356 75.0071C29.1064 75.1497 29.1064 75.3814 29.356 75.5299ZM32.7306 77.4787L33.6634 78.0193C33.913 78.1619 34.317 78.1679 34.5665 78.0193C34.8161 77.8767 34.8161 77.6391 34.5665 77.4965L33.6337 76.9558C33.3842 76.8132 32.9802 76.8073 32.7306 76.9558C32.4811 77.0984 32.4811 77.3361 32.7306 77.4787ZM35.0715 78.8274L36.0043 79.368C36.2538 79.5106 36.6579 79.5106 36.9074 79.368C37.1569 79.2254 37.1569 78.9878 36.9074 78.8452L35.9746 78.3045C35.7251 78.1619 35.3211 78.1619 35.0715 78.3045C34.822 78.4471 34.822 78.6848 35.0715 78.8274ZM37.4124 80.176L38.3452 80.7167C38.5947 80.8593 38.9987 80.8593 39.2483 80.7167C39.4978 80.5741 39.4978 80.3365 39.2483 80.1939L38.3155 79.6532C38.0659 79.5106 37.6619 79.5047 37.4124 79.6532C37.1569 79.8017 37.1569 80.0334 37.4124 80.176ZM39.7473 81.5307L40.6801 82.0713C40.9297 82.2139 41.3337 82.2139 41.5832 82.0713C41.8327 81.9287 41.8327 81.6911 41.5832 81.5485L40.6504 81.0078C40.4009 80.8652 39.9969 80.8652 39.7473 81.0078C39.4978 81.1504 39.4978 81.3821 39.7473 81.5307ZM42.0882 82.8793L43.021 83.42C43.2705 83.5626 43.6746 83.5626 43.9241 83.42C44.1736 83.2774 44.1736 83.0397 43.9241 82.8972L42.9913 82.3565C42.7418 82.2139 42.3378 82.2139 42.0882 82.3565C41.8327 82.4991 41.8387 82.7367 42.0882 82.8793ZM44.4232 84.228L45.3559 84.7687C45.6055 84.9113 46.0095 84.9113 46.259 84.7687C46.5086 84.6261 46.5086 84.3884 46.259 84.2458L45.3262 83.7052C45.0767 83.5626 44.6727 83.5626 44.4232 83.7052C44.1736 83.8478 44.1736 84.0854 44.4232 84.228ZM46.764 85.5767L47.6968 86.1173C47.9464 86.2599 48.3504 86.2599 48.5999 86.1173C48.8494 85.9748 48.8494 85.7371 48.5999 85.5945L47.6671 85.0539C47.4176 84.9113 47.0136 84.9113 46.764 85.0539C46.5145 85.2024 46.5145 85.4341 46.764 85.5767ZM49.1049 86.9313L50.0377 87.472C50.2872 87.6146 50.6912 87.6205 50.9408 87.472C51.1903 87.3234 51.1903 87.0917 50.9408 86.9491L50.008 86.4085C49.7585 86.2659 49.3545 86.2659 49.1049 86.4085C48.8494 86.5511 48.8554 86.7828 49.1049 86.9313ZM51.4399 88.28L52.3726 88.8206C52.6222 88.9632 53.0262 88.9632 53.2757 88.8206C53.5252 88.6781 53.5252 88.4404 53.2757 88.2978L52.3429 87.7572C52.0934 87.6146 51.6894 87.6146 51.4399 87.7572C51.1903 87.8997 51.1903 88.1374 51.4399 88.28ZM53.7807 89.6287L54.7135 90.1693C54.963 90.3119 55.3671 90.3179 55.6166 90.1693C55.8661 90.0267 55.8661 89.7891 55.6166 89.6465L54.6838 89.1058C54.4343 88.9632 54.0303 88.9573 53.7807 89.1058C53.5312 89.2544 53.5312 89.4861 53.7807 89.6287ZM56.1216 90.9833L57.0544 91.5239C57.3039 91.6665 57.7079 91.6665 57.9575 91.5239C58.207 91.3814 58.207 91.1437 57.9575 91.0011L57.0247 90.4605C56.7752 90.3179 56.3711 90.3179 56.1216 90.4605C55.8661 90.603 55.8661 90.8348 56.1216 90.9833ZM58.5041 92.3617L59.4369 92.9023C59.6864 93.0449 60.0904 93.0449 60.3399 92.9023C60.5895 92.7597 60.5895 92.5221 60.3399 92.3795L59.4072 91.8388C59.1576 91.6962 58.7536 91.6962 58.5041 91.8388C58.2545 91.9814 58.2545 92.2131 58.5041 92.3617ZM27.2528 76.8133L28.0608 77.2826C28.346 77.449 28.8094 77.449 29.0886 77.2826L29.8907 76.8192C30.1759 76.6528 30.1699 76.3914 29.8848 76.2251L29.0767 75.7557C28.7916 75.5893 28.3281 75.5893 28.0489 75.7557L27.2468 76.2191C26.9676 76.3855 26.9676 76.6528 27.2528 76.8133ZM31.4295 78.6372L32.2316 78.1738C32.5168 78.0075 32.5168 77.746 32.2256 77.5797L31.4176 77.1103C31.1324 76.944 30.669 76.944 30.3898 77.1103L29.5877 77.5737C29.3025 77.7401 29.3085 78.0015 29.5936 78.1679L30.4017 78.6372C30.6868 78.7976 31.1443 78.7976 31.4295 78.6372ZM31.9286 79.5166L32.7366 79.9859C33.0218 80.1523 33.4852 80.1523 33.7644 79.9859L34.5665 79.5225C34.8517 79.3561 34.8458 79.0947 34.5606 78.9284L33.7526 78.459C33.4674 78.2926 33.004 78.2926 32.7247 78.459L31.9226 78.9224C31.6434 79.0828 31.6434 79.3502 31.9286 79.5166ZM34.2695 80.8652L35.0775 81.3346C35.3627 81.501 35.8261 81.501 36.1053 81.3346L36.9074 80.8712C37.1926 80.7048 37.1926 80.4434 36.9015 80.277L36.0934 79.8077C35.8083 79.6413 35.3448 79.6413 35.0656 79.8077L34.2635 80.2711C33.9843 80.4374 33.9843 80.6989 34.2695 80.8652ZM39.2483 81.6257L38.4403 81.1564C38.1551 80.99 37.6916 80.99 37.4124 81.1564L36.6103 81.6198C36.3251 81.7861 36.3251 82.0475 36.6163 82.2139L37.4243 82.6833C37.7095 82.8496 38.1729 82.8496 38.4521 82.6833L39.2542 82.2198C39.5335 82.0594 39.5335 81.7921 39.2483 81.6257ZM41.5832 82.9744L40.7752 82.505C40.49 82.3387 40.0266 82.3387 39.7473 82.505L38.9453 82.9685C38.6601 83.1348 38.6601 83.3962 38.9512 83.5626L39.7592 84.0319C40.0444 84.1983 40.5078 84.1983 40.7871 84.0319L41.5891 83.5685C41.8743 83.4081 41.8684 83.1407 41.5832 82.9744ZM43.9241 84.329L43.1161 83.8597C42.8309 83.6933 42.3675 83.6933 42.0882 83.8597L41.2861 84.3231C41.001 84.4894 41.0069 84.7508 41.2921 84.9172L42.1001 85.3866C42.3853 85.5529 42.8487 85.5529 43.1279 85.3866L43.93 84.9231C44.2093 84.7568 44.2093 84.4894 43.9241 84.329ZM46.265 85.6777L45.4569 85.2083C45.1718 85.042 44.7083 85.042 44.4291 85.2083L43.627 85.6717C43.3418 85.8381 43.3478 86.0995 43.633 86.2659L44.441 86.7352C44.7262 86.9016 45.1896 86.9016 45.4688 86.7352L46.2709 86.2718C46.5501 86.1055 46.5501 85.8441 46.265 85.6777ZM48.5999 87.0264L47.7919 86.557C47.5067 86.3906 47.0433 86.3906 46.764 86.557L45.962 87.0204C45.6768 87.1868 45.6827 87.4482 45.9679 87.6146L46.7759 88.0839C47.0611 88.2503 47.5245 88.2503 47.8038 88.0839L48.6058 87.6205C48.891 87.4601 48.8851 87.1927 48.5999 87.0264ZM50.9408 88.375L50.1328 87.9057C49.8476 87.7393 49.3842 87.7393 49.1049 87.9057L48.3028 88.3691C48.0177 88.5355 48.0177 88.7969 48.3088 88.9632L49.1168 89.4326C49.402 89.599 49.8654 89.599 50.1446 89.4326L50.9467 88.9692C51.226 88.8088 51.226 88.5414 50.9408 88.375ZM50.6378 90.3179L51.4458 90.7872C51.731 90.9536 52.1944 90.9536 52.4736 90.7872L53.2757 90.3238C53.5609 90.1574 53.555 89.896 53.2698 89.7297L52.4618 89.2603C52.1766 89.094 51.7132 89.094 51.4339 89.2603L50.6318 89.7237C50.3526 89.8841 50.3526 90.1515 50.6378 90.3179ZM55.6166 91.0783L54.8086 90.609C54.5234 90.4426 54.06 90.4426 53.7807 90.609L52.9786 91.0724C52.6935 91.2388 52.6994 91.5002 52.9846 91.6665L53.7926 92.1359C54.0778 92.3023 54.5412 92.3023 54.8205 92.1359L55.6225 91.6725C55.9077 91.5121 55.9018 91.2447 55.6166 91.0783ZM59.0447 93.0568L57.197 91.9933C56.9118 91.827 56.4484 91.827 56.1691 91.9933L55.3671 92.4567C55.0819 92.6231 55.0878 92.8845 55.373 93.0509L57.2208 94.1144C57.5059 94.2807 57.9694 94.2807 58.2486 94.1144L59.0507 93.6509C59.3299 93.4846 59.3299 93.2232 59.0447 93.0568ZM25.0842 78.0669L26.9319 79.1304C27.2171 79.2967 27.6805 79.2967 27.9598 79.1304L28.7619 78.6669C29.047 78.5006 29.047 78.2392 28.7559 78.0728L26.9082 77.0093C26.623 76.843 26.1596 76.843 25.8803 77.0093L25.0782 77.4727C24.799 77.6332 24.799 77.9005 25.0842 78.0669ZM28.4648 80.0156L29.2728 80.485C29.558 80.6513 30.0214 80.6513 30.3007 80.485L31.1027 80.0216C31.3879 79.8552 31.382 79.5938 31.0968 79.4274L30.2888 78.9581C30.0036 78.7917 29.5402 78.7917 29.2609 78.9581L28.4588 79.4215C28.1737 79.5819 28.1796 79.8493 28.4648 80.0156ZM31.6077 81.8337C31.8929 82 32.3563 82 32.6356 81.8337L33.4377 81.3702C33.7228 81.2039 33.7169 80.9425 33.4317 80.7761L32.6237 80.3067C32.3385 80.1404 31.8751 80.1404 31.5959 80.3067L30.7938 80.7702C30.5086 80.9365 30.5086 81.1979 30.7997 81.3643L31.6077 81.8337ZM33.9486 83.1823C34.2338 83.3487 34.6972 83.3487 34.9765 83.1823L35.7785 82.7189C36.0637 82.5526 36.0578 82.2911 35.7726 82.1248L34.9646 81.6554C34.6794 81.4891 34.216 81.4891 33.9367 81.6554L33.1347 82.1188C32.8495 82.2852 32.8495 82.5466 33.1406 82.713L33.9486 83.1823ZM36.2776 83.01L35.4755 83.4735C35.1904 83.6398 35.1904 83.9012 35.4815 84.0676L36.2895 84.537C36.5747 84.7033 37.0381 84.7033 37.3173 84.537L38.1194 84.0735C38.4046 83.9072 38.3987 83.6458 38.1135 83.4794L37.3055 83.01C37.0262 82.8437 36.5628 82.8437 36.2776 83.01ZM38.666 84.329L37.7629 84.8519C37.5075 85.0004 37.5075 85.238 37.7629 85.3866L38.672 85.9094C38.9274 86.0579 39.3493 86.0579 39.6048 85.9094L40.5078 85.3866C40.7633 85.238 40.7633 85.0004 40.5078 84.8519L39.5988 84.329C39.3433 84.1805 38.9215 84.1805 38.666 84.329ZM41.0069 85.6777L40.1038 86.2005C39.8483 86.3491 39.8483 86.5867 40.1038 86.7352L41.0128 87.2581C41.2683 87.4066 41.6902 87.4066 41.9456 87.2581L42.8487 86.7352C43.1042 86.5867 43.1042 86.3491 42.8487 86.2005L41.9397 85.6777C41.6783 85.5292 41.2624 85.5292 41.0069 85.6777ZM43.3478 87.0323L42.4447 87.5552C42.1892 87.7037 42.1892 87.9413 42.4447 88.0899L43.3537 88.6127C43.6092 88.7612 44.031 88.7612 44.2865 88.6127L45.1896 88.0899C45.4451 87.9413 45.4451 87.7037 45.1896 87.5552L44.2806 87.0323C44.0191 86.8838 43.6033 86.8838 43.3478 87.0323ZM45.6827 88.381L44.7796 88.9038C44.5242 89.0524 44.5242 89.29 44.7796 89.4385L45.6887 89.9614C45.9441 90.1099 46.366 90.1099 46.6214 89.9614L47.5245 89.4385C47.78 89.29 47.78 89.0524 47.5245 88.9038L46.6155 88.381C46.36 88.2325 45.9382 88.2325 45.6827 88.381ZM48.0236 89.7297L47.1205 90.2525C46.865 90.401 46.865 90.6387 47.1205 90.7872L48.0295 91.3101C48.285 91.4586 48.7068 91.4586 48.9623 91.3101L49.8654 90.7872C50.1209 90.6387 50.1209 90.401 49.8654 90.2525L48.9564 89.7297C48.695 89.5811 48.2791 89.5811 48.0236 89.7297ZM51.3032 92.6647L52.2063 92.1418C52.4618 91.9933 52.4618 91.7557 52.2063 91.6071L51.2973 91.0843C51.0418 90.9358 50.6199 90.9358 50.3645 91.0843L49.4614 91.6071C49.2059 91.7557 49.2059 91.9933 49.4614 92.1418L50.3704 92.6647C50.6259 92.8132 51.0477 92.8132 51.3032 92.6647ZM53.6381 94.0134L54.5412 93.4905C54.7967 93.342 54.7967 93.1043 54.5412 92.9499L53.6322 92.427C53.3767 92.2785 52.9549 92.2785 52.6994 92.427L51.7963 92.9499C51.5409 93.0984 51.5409 93.3361 51.7963 93.4846L52.7053 94.0074C52.9668 94.1619 53.3827 94.1619 53.6381 94.0134ZM56.9296 94.3342L56.0206 93.8114C55.7651 93.6628 55.3433 93.6628 55.0878 93.8114L54.1847 94.3342C53.9293 94.4827 53.9293 94.7204 54.1847 94.8748L55.0938 95.3977C55.3492 95.5462 55.7711 95.5462 56.0265 95.3977L56.9296 94.8748C57.1851 94.7263 57.1851 94.4827 56.9296 94.3342ZM22.8681 79.2908L25.8031 80.984C26.0586 81.1326 26.4804 81.1326 26.7359 80.984L27.6389 80.4612C27.8944 80.3127 27.8944 80.075 27.6389 79.9265L24.7039 78.2332C24.4485 78.0847 24.0266 78.0847 23.7711 78.2332L22.8681 78.7561C22.6126 78.8986 22.6126 79.1363 22.8681 79.2908ZM27.2349 81.804L28.144 82.3268C28.3994 82.4753 28.8213 82.4753 29.0767 82.3268L29.9798 81.804C30.2353 81.6554 30.2353 81.4178 29.9798 81.2633L29.0708 80.7405C28.8153 80.5919 28.3935 80.5919 28.138 80.7405L27.2349 81.2633C26.9735 81.4178 26.9735 81.6554 27.2349 81.804ZM29.5699 83.1586L30.4789 83.6814C30.7344 83.8299 31.1562 83.8299 31.4117 83.6814L32.3148 83.1586C32.5702 83.01 32.5702 82.7724 32.3148 82.6239L31.4057 82.101C31.1503 81.9525 30.7284 81.9525 30.4729 82.101L29.5699 82.6239C29.3144 82.7664 29.3144 83.01 29.5699 83.1586ZM31.9107 84.5073L32.8198 85.0301C33.0752 85.1786 33.4971 85.1786 33.7526 85.0301L34.6556 84.5073C34.9111 84.3587 34.9111 84.1211 34.6556 83.9725L33.7466 83.4497C33.4911 83.3012 33.0693 83.3012 32.8138 83.4497L31.9107 83.9725C31.6493 84.1151 31.6553 84.3587 31.9107 84.5073ZM36.0875 86.3847L36.9906 85.8619C37.246 85.7133 37.246 85.4757 36.9906 85.3272L36.0816 84.8043C35.8261 84.6558 35.4042 84.6558 35.1488 84.8043L34.2457 85.3272C33.9902 85.4757 33.9902 85.7133 34.2457 85.8619L35.1547 86.3847C35.4161 86.5332 35.832 86.5332 36.0875 86.3847ZM38.4284 87.7334L39.3314 87.2106C39.5869 87.062 39.5869 86.8244 39.3314 86.6758L38.4224 86.153C38.167 86.0045 37.7451 86.0045 37.4896 86.153L36.5866 86.6758C36.3311 86.8244 36.3311 87.062 36.5866 87.2106L37.4956 87.7334C37.757 87.8819 38.1729 87.8819 38.4284 87.7334ZM40.7633 89.0821L41.6664 88.5592C41.9219 88.4107 41.9219 88.173 41.6664 88.0245L40.7574 87.5017C40.5019 87.3531 40.0801 87.3531 39.8246 87.5017L38.9215 88.0245C38.666 88.173 38.666 88.4107 38.9215 88.5592L39.8305 89.0821C40.0919 89.2306 40.5078 89.2306 40.7633 89.0821ZM43.1042 90.4367L44.0073 89.9139C44.2627 89.7653 44.2627 89.5277 44.0073 89.3791L43.0982 88.8563C42.8428 88.7078 42.4209 88.7078 42.1655 88.8563L41.2624 89.3791C41.0069 89.5277 41.0069 89.7653 41.2624 89.9139L42.1714 90.4367C42.4328 90.5793 42.8487 90.5852 43.1042 90.4367ZM45.4451 91.7854L46.3481 91.2625C46.6036 91.114 46.6036 90.8763 46.3481 90.7278L45.4391 90.205C45.1836 90.0564 44.7618 90.0564 44.5063 90.205L43.6033 90.7278C43.3478 90.8763 43.3478 91.114 43.6033 91.2625L44.5123 91.7854C44.7678 91.9339 45.1896 91.9339 45.4451 91.7854ZM47.78 93.134L48.6831 92.6112C48.9386 92.4627 48.9386 92.225 48.6831 92.0765L47.7741 91.5537C47.5186 91.4051 47.0967 91.4051 46.8413 91.5537L45.9382 92.0765C45.6827 92.225 45.6827 92.4627 45.9382 92.6112L46.8472 93.134C47.1086 93.2826 47.5245 93.2826 47.78 93.134ZM48.2791 93.9599L49.1881 94.4827C49.4436 94.6313 49.8654 94.6313 50.1209 94.4827L51.024 93.9599C51.2794 93.8114 51.2794 93.5737 51.024 93.4252L50.1149 92.9023C49.8595 92.7538 49.4376 92.7538 49.1821 92.9023L48.2791 93.4252C48.0236 93.5678 48.0236 93.8114 48.2791 93.9599ZM54.761 95.5878L52.4499 94.257C52.1944 94.1084 51.7726 94.1084 51.5171 94.257L50.6199 94.7738C50.3645 94.9224 50.3645 95.16 50.6259 95.3086L52.9371 96.6394C53.1925 96.788 53.6144 96.788 53.8698 96.6394L54.7729 96.1166C55.0225 95.974 55.0165 95.7363 54.761 95.5878ZM20.7114 80.6038L24.8703 83.0041C25.1614 83.1705 25.6308 83.1705 25.9219 83.0041L26.7062 82.5526C26.9973 82.3862 26.9973 82.1129 26.7002 81.9465L22.5413 79.5463C22.2502 79.3799 21.7808 79.3799 21.4897 79.5463L20.7054 79.9978C20.4202 80.1642 20.4202 80.4374 20.7114 80.6038ZM26.4269 83.9012L27.2112 84.3528C27.5023 84.5191 27.9717 84.5191 28.2628 84.3528L29.047 83.9012C29.3382 83.7349 29.3322 83.4616 29.0411 83.2952L28.2568 82.8437C27.9657 82.6773 27.4964 82.6773 27.2052 82.8437L26.421 83.2952C26.1298 83.4616 26.1358 83.7349 26.4269 83.9012ZM28.7619 85.2499L29.5461 85.7015C29.8372 85.8678 30.3066 85.8678 30.5977 85.7015L31.382 85.2499C31.6731 85.0836 31.6672 84.8103 31.376 84.6439L30.5918 84.1924C30.3007 84.026 29.8313 84.026 29.5402 84.1924L28.7559 84.6439C28.4707 84.8103 28.4707 85.0836 28.7619 85.2499ZM31.1027 86.6045L31.887 87.0561C32.1781 87.2224 32.6475 87.2224 32.9386 87.0561L33.7228 86.6045C34.014 86.4382 34.008 86.1649 33.7169 85.9985L32.9327 85.547C32.6415 85.3806 32.1722 85.3806 31.881 85.547L31.0968 85.9985C30.8116 86.1589 30.8116 86.4322 31.1027 86.6045ZM33.4436 87.9532L34.2279 88.4048C34.519 88.5711 34.9883 88.5711 35.2795 88.4048L36.0637 87.9532C36.3549 87.7869 36.3489 87.5136 36.0578 87.3472L35.2735 86.8957C34.9824 86.7293 34.513 86.7293 34.2219 86.8957L33.4377 87.3472C33.1465 87.5136 33.1525 87.7809 33.4436 87.9532ZM35.7785 89.3019L36.5628 89.7534C36.8539 89.9198 37.3233 89.9198 37.6144 89.7534L38.3987 89.3019C38.6898 89.1355 38.6838 88.8622 38.3927 88.6959L37.6085 88.2443C37.3173 88.078 36.848 88.078 36.5569 88.2443L35.7726 88.6959C35.4874 88.8622 35.4874 89.1355 35.7785 89.3019ZM38.1194 90.6506L38.9037 91.1021C39.1948 91.2685 39.6642 91.2685 39.9553 91.1021L40.7395 90.6506C41.0307 90.4842 41.0307 90.2109 40.7336 90.0446L39.9493 89.593C39.6582 89.4267 39.1889 89.4267 38.8977 89.593L38.1135 90.0446C37.8283 90.2109 37.8283 90.4842 38.1194 90.6506ZM40.4603 92.0052L41.2446 92.4567C41.5357 92.6231 42.005 92.6231 42.2962 92.4567L43.0804 92.0052C43.3715 91.8388 43.3656 91.5655 43.0745 91.3992L42.2902 90.9476C41.9991 90.7813 41.5297 90.7813 41.2386 90.9476L40.4544 91.3992C40.1632 91.5655 40.1632 91.8329 40.4603 92.0052ZM42.7952 93.3539L43.5795 93.8054C43.8706 93.9718 44.34 93.9718 44.6311 93.8054L45.4154 93.3539C45.7065 93.1875 45.7065 92.9142 45.4094 92.7479L44.6252 92.2963C44.334 92.13 43.8647 92.13 43.5735 92.2963L42.7893 92.7479C42.5041 92.9142 42.5041 93.1875 42.7952 93.3539ZM45.1361 94.7026L45.9204 95.1541C46.2115 95.3204 46.6809 95.3204 46.972 95.1541L47.7562 94.7026C48.0474 94.5362 48.0414 94.2629 47.7503 94.0965L46.966 93.645C46.6749 93.4786 46.2056 93.4786 45.9144 93.645L45.1302 94.0965C44.845 94.2629 44.845 94.5362 45.1361 94.7026ZM47.4711 96.0512L48.2553 96.5028C48.5464 96.6691 49.0158 96.6691 49.3069 96.5028L50.0912 96.0512C50.3823 95.8849 50.3823 95.6116 50.0852 95.4452L49.301 94.9937C49.0099 94.8273 48.5405 94.8273 48.2494 94.9937L47.4651 95.4452C47.1799 95.6116 47.1799 95.8849 47.4711 96.0512ZM52.4796 96.8295L51.6953 96.378C51.4042 96.2116 50.9348 96.2116 50.6437 96.378L49.8595 96.8295C49.5683 96.9959 49.5743 97.2692 49.8654 97.4356L50.6497 97.8871C50.9408 98.0535 51.4101 98.0535 51.7013 97.8871L52.4855 97.4356C52.7766 97.2692 52.7766 97.0018 52.4796 96.8295ZM22.2026 81.8515L20.3787 80.7999C20.0875 80.6335 19.6182 80.6335 19.327 80.7999L18.5428 81.2514C18.2517 81.4178 18.2576 81.6911 18.5487 81.8574L20.3727 82.909C20.6638 83.0754 21.1332 83.0754 21.4243 82.909L22.2086 82.4575C22.4938 82.2911 22.4938 82.0178 22.2026 81.8515ZM24.5435 83.2002L23.7593 82.7486C23.4681 82.5823 22.9988 82.5823 22.7077 82.7486L21.9234 83.2002C21.6323 83.3665 21.6382 83.6398 21.9293 83.8062L22.7136 84.2577C23.0047 84.4241 23.4741 84.4241 23.7652 84.2577L24.5495 83.8062C24.8346 83.6398 24.8346 83.3665 24.5435 83.2002ZM26.8785 84.5488L26.0942 84.0973C25.8031 83.9309 25.3337 83.9309 25.0426 84.0973L24.2583 84.5488C23.9672 84.7152 23.9672 84.9885 24.2643 85.1549L25.0485 85.6064C25.3397 85.7728 25.809 85.7728 26.1001 85.6064L26.8844 85.1549C27.1755 84.9885 27.1696 84.7211 26.8785 84.5488ZM43.2527 94.0015L28.4351 85.446C28.144 85.2796 27.6746 85.2796 27.3835 85.446L26.5992 85.8975C26.3081 86.0639 26.314 86.3372 26.6052 86.5035L41.4228 95.059C41.7139 95.2254 42.1833 95.2254 42.4744 95.059L43.2587 94.6075C43.5438 94.4411 43.5438 94.1738 43.2527 94.0015ZM45.5877 95.3561L44.8034 94.9046C44.5123 94.7382 44.0429 94.7382 43.7518 94.9046L42.9675 95.3561C42.6764 95.5225 42.6764 95.7958 42.9735 95.9621L43.7577 96.4136C44.0489 96.58 44.5182 96.58 44.8093 96.4136L45.5936 95.9621C45.8847 95.7958 45.8788 95.5225 45.5877 95.3561ZM47.9285 96.7048L47.1443 96.2532C46.8532 96.0869 46.3838 96.0869 46.0927 96.2532L45.3084 96.7048C45.0173 96.8711 45.0232 97.1444 45.3144 97.3108L46.0986 97.7623C46.3897 97.9287 46.8591 97.9287 47.1502 97.7623L47.9345 97.3108C48.2197 97.1444 48.2197 96.8711 47.9285 96.7048ZM50.3169 98.0832L49.5327 97.6316C49.2416 97.4653 48.7722 97.4653 48.4811 97.6316L47.6968 98.0832C47.4057 98.2495 47.4057 98.5228 47.7028 98.6892L48.487 99.1407C48.7781 99.3071 49.2475 99.3071 49.5386 99.1407L50.3229 98.6892C50.6081 98.5228 50.6081 98.2495 50.3169 98.0832Z" fill="url(#paint32_linear_607_5201)"/>
</g>
<path d="M68.1647 91.7976L31.6493 70.7C30.2353 69.8861 29.0886 67.6937 29.0886 65.8103V37.1613C29.0886 35.2779 30.2353 34.4105 31.6493 35.2244L68.1647 56.322C69.5787 57.136 70.7254 59.3283 70.7254 61.2117V89.8608C70.7194 91.7441 69.5787 92.6116 68.1647 91.7976Z" fill="url(#paint33_linear_607_5201)"/>
<path d="M68.4915 90.324L32.3623 69.4581C31.2275 68.7333 30.5205 67.2895 30.5205 65.8101V37.0245C30.5205 36.6739 30.9008 36.4541 31.2038 36.6323C31.2394 36.6502 31.2691 36.668 31.2869 36.6799L67.4399 57.5695C68.7945 58.3479 69.2817 59.7381 69.2817 61.2175V89.9378C69.2817 90.3121 68.8776 90.5498 68.5509 90.3656C68.5271 90.3418 68.5033 90.3299 68.4915 90.324Z" fill="url(#paint34_linear_607_5201)"/>
<path d="M68.4915 90.324L32.3623 69.4581C31.2275 68.7333 30.5205 67.2895 30.5205 65.8101V37.0245C30.5205 36.6739 30.9008 36.4541 31.2038 36.6323C31.2394 36.6502 31.2691 36.668 31.2869 36.6799L67.4399 57.5695C68.7945 58.3479 69.2817 59.7381 69.2817 61.2175V89.9378C69.2817 90.3121 68.8776 90.5498 68.5509 90.3656C68.5271 90.3418 68.5033 90.3299 68.4915 90.324Z" fill="#E7E7FF"/>
<path d="M43 58.735L52.3999 64.1621V63.4324L43 58.0002V58.735Z" fill="url(#paint35_linear_607_5201)"/>
<path d="M39.9999 59.7299L55.3843 68.618V67.8833L39.9999 59.0002V59.7299Z" fill="url(#paint36_linear_607_5201)"/>
<path d="M41.5354 63.6349L52.9216 70.2072V69.4775L41.5354 62.9001V63.6349Z" fill="url(#paint37_linear_607_5201)"/>
<path d="M67.4458 57.5695L31.2869 36.6799C31.2691 36.668 31.2394 36.6561 31.2038 36.6323C30.9008 36.4541 30.5205 36.6739 30.5205 37.0245V65.8101C30.5205 67.2895 31.2216 68.7333 32.3623 69.4581L68.4915 90.324C68.5033 90.3299 68.5271 90.3418 68.5509 90.3596C68.8776 90.5438 69.2817 90.3121 69.2817 89.9319V61.2116C69.2817 59.7381 68.7945 58.3478 67.4458 57.5695ZM68.9965 89.9319C68.9965 90.0566 68.8895 90.1339 68.7945 90.1339C68.7588 90.1339 68.7291 90.122 68.6935 90.1042L32.5109 69.2026C31.483 68.5491 30.8116 67.2123 30.8116 65.8042V37.0245C30.8116 36.9235 30.9008 36.8581 30.978 36.8581C31.0077 36.8581 31.0374 36.8641 31.0612 36.8819L67.2973 57.8191C68.6994 58.6271 68.9965 60.1124 68.9965 61.2175V89.9319Z" fill="url(#paint38_linear_607_5201)"/>
<path d="M67.4458 57.5695L31.2869 36.6799C31.2691 36.668 31.2394 36.6561 31.2038 36.6323C30.9008 36.4541 30.5205 36.6739 30.5205 37.0245V65.8101C30.5205 67.2895 31.2216 68.7333 32.3623 69.4581L68.4915 90.324C68.5033 90.3299 68.5271 90.3418 68.5509 90.3596C68.8776 90.5438 69.2817 90.3121 69.2817 89.9319V61.2116C69.2817 59.7381 68.7945 58.3478 67.4458 57.5695ZM68.9965 89.9319C68.9965 90.0566 68.8895 90.1339 68.7945 90.1339C68.7588 90.1339 68.7291 90.122 68.6935 90.1042L32.5109 69.2026C31.483 68.5491 30.8116 67.2123 30.8116 65.8042V37.0245C30.8116 36.9235 30.9008 36.8581 30.978 36.8581C31.0077 36.8581 31.0374 36.8641 31.0612 36.8819L67.2973 57.8191C68.6994 58.6271 68.9965 60.1124 68.9965 61.2175V89.9319Z" fill="url(#paint39_linear_607_5201)"/>
<path d="M68.8896 55.9416L32.3742 34.844C31.8158 34.5232 31.2989 34.4638 30.877 34.6242C30.8236 34.642 30.1106 35.0223 30.0571 35.052C30.4908 34.8381 31.0493 34.8797 31.6494 35.2302L68.1647 56.3278C69.5788 57.1418 70.7254 59.3341 70.7254 61.2175V89.8665C70.7254 91.0429 70.2798 91.8212 69.6025 92.0411C69.656 92.047 69.7273 92.0232 69.8283 91.9638C69.858 91.946 70.6363 91.5063 70.666 91.4885C71.1532 91.1499 71.4562 90.4488 71.4562 89.4804V60.8313C71.4503 58.942 70.3036 56.7556 68.8896 55.9416Z" fill="url(#paint40_linear_607_5201)"/>
<path opacity="0.2" d="M95.5429 119.738L86.7592 114.744L77.9755 109.751C76.7588 109.059 76.9136 107.856 78.313 107.054L81.4988 105.007C82.9053 104.211 85.0292 104.121 86.2458 104.813L95.0296 109.806L103.813 114.8C105.03 115.491 104.875 116.695 103.476 117.497L100.29 119.544C98.8834 120.339 96.7596 120.422 95.5429 119.738Z" fill="url(#paint41_linear_607_5201)"/>
<path d="M96.6059 118.414L82.7448 110.411C81.1822 109.508 79.9167 107.084 79.9167 105.005V65.8752C79.9167 64.8177 79.0434 64.58 79.5721 64.1998C79.59 64.1879 80.8079 63.6294 80.8317 63.6235C81.4021 63.4036 82.0081 63.3086 82.7448 63.7364L96.6059 71.7393C98.1685 72.6424 99.434 75.0664 99.434 77.1459V116.275C99.434 117.38 99.0775 118.171 98.5071 118.533C98.4715 118.557 97.004 119.252 96.9683 119.264C96.4633 119.43 97.2891 118.806 96.6059 118.414Z" fill="url(#paint42_linear_607_5201)"/>
<path opacity="0.6" d="M95.5305 116.691L81.6694 108.688C80.1068 107.785 78.8413 105.361 78.8413 103.282V66.3682C78.8413 64.2828 80.1068 63.3263 81.6694 64.2294L95.5305 72.2323C97.093 73.1354 98.3585 75.5595 98.3585 77.6389V114.552C98.3585 116.632 97.093 117.594 95.5305 116.691Z" fill="url(#paint43_radial_607_5201)"/>
<path d="M95.281 119.038L81.4199 111.035C79.8573 110.132 78.5918 107.708 78.5918 105.628V66.4989C78.5918 64.4135 79.8573 63.4569 81.4199 64.36L95.281 72.3629C96.8435 73.266 98.109 75.6901 98.109 77.7695V116.899C98.115 118.984 96.8435 119.941 95.281 119.038Z" fill="white"/>
<path d="M78.978 105.873V66.7015C78.978 64.8716 80.0891 64.0339 81.4615 64.8241L95.2513 72.7854C96.6237 73.5756 97.7348 75.6967 97.7348 77.5266V116.698C97.7348 118.528 96.6237 119.365 95.2513 118.575L81.4615 110.614C80.0891 109.824 78.978 107.703 78.978 105.873Z" fill="url(#paint44_linear_607_5201)"/>
<path d="M78.978 105.873V66.7015C78.978 64.8716 80.0891 64.0339 81.4615 64.8241L95.2513 72.7854C96.6237 73.5756 97.7348 75.6967 97.7348 77.5266V116.698C97.7348 118.528 96.6237 119.365 95.2513 118.575L81.4615 110.614C80.0891 109.824 78.978 107.703 78.978 105.873Z" fill="url(#paint45_linear_607_5201)"/>
<path opacity="0.5" d="M81.7585 65.9467C80.6772 65.3229 79.7979 65.8219 79.7979 67.0637V104.25C79.7979 105.492 80.6772 107.001 81.7585 107.625L94.9363 115.236C96.0176 115.86 96.8969 115.361 96.8969 114.119V76.9322C96.8969 75.6905 96.0176 74.1814 94.9363 73.5575L81.7585 65.9467Z" fill="white"/>
<path d="M96.7306 114.119C96.7306 114.505 96.6415 114.82 96.4692 115.034C96.3147 115.23 96.0889 115.331 95.8216 115.331C95.5839 115.331 95.3047 115.247 95.0254 115.087L81.8476 107.476C80.8138 106.882 79.9761 105.432 79.9761 104.244V67.0575C79.9761 66.3089 80.3266 65.8455 80.8851 65.8455C81.1227 65.8455 81.402 65.9286 81.6812 66.0891L94.8591 73.6999C95.8929 74.294 96.7306 75.7437 96.7306 76.932V114.119Z" fill="url(#paint46_linear_607_5201)"/>
<path d="M84 82.5962L92 87V86.4079L84 82V82.5962Z" fill="url(#paint47_linear_607_5201)"/>
<path d="M84 86.5962L92 91V90.4079L84 86V86.5962Z" fill="url(#paint48_linear_607_5201)"/>
<path d="M84 90.5962L92 95V94.4079L84 90V90.5962Z" fill="url(#paint49_linear_607_5201)"/>
<path d="M84 94.5962L92 99V98.4079L84 94V94.5962Z" fill="url(#paint50_linear_607_5201)"/>
<mask id="mask0_607_5201" style="mask-type:alpha" maskUnits="userSpaceOnUse" x="78" y="111" width="20" height="13">
<path d="M78.6929 112.943L97.8239 123.601L97.8952 123.572C97.4674 121.962 96.4574 120.423 95.281 119.74L81.4199 111.737C80.1188 110.988 79.0196 111.535 78.6929 112.943Z" fill="url(#paint51_linear_607_5201)"/>
</mask>
<g mask="url(#mask0_607_5201)">
</g>
<mask id="mask1_607_5201" style="mask-type:alpha" maskUnits="userSpaceOnUse" x="95" y="119" width="5" height="5">
<path d="M98.1863 119.52C98.0496 119.585 97.1941 119.906 97.105 119.947C96.6713 120.191 96.1187 120.191 95.5127 119.912C96.5881 120.654 97.4912 122.08 97.8892 123.577L97.8179 123.607L99.9746 122.787C99.6657 121.546 99.0121 120.333 98.1863 119.52Z" fill="url(#paint52_linear_607_5201)"/>
</mask>
<g mask="url(#mask1_607_5201)">
</g>
</g>
<defs>
<linearGradient id="paint0_linear_607_5201" x1="68.2047" y1="89.3756" x2="115.454" y2="89.3756" gradientUnits="userSpaceOnUse">
<stop offset="0.0556" stop-color="#9F79B8"/>
<stop offset="0.2575" stop-color="#A17BBA"/>
<stop offset="0.3569" stop-color="#A783BF"/>
<stop offset="0.4338" stop-color="#B290C9"/>
<stop offset="0.4949" stop-color="#C1A1D5"/>
<stop offset="0.5067" stop-color="#C4A5D7"/>
<stop offset="0.5196" stop-color="#CDB3DD"/>
<stop offset="0.5329" stop-color="#DBC8E7"/>
<stop offset="0.5466" stop-color="#EFE7F4"/>
<stop offset="0.5556" stop-color="white"/>
<stop offset="0.5678" stop-color="#ECE0F3"/>
<stop offset="0.5801" stop-color="#DDC8EA"/>
<stop offset="0.5915" stop-color="#D4B9E5"/>
<stop offset="0.601" stop-color="#D1B4E3"/>
<stop offset="0.658" stop-color="#B395D6"/>
<stop offset="0.7155" stop-color="#9C7DCB"/>
<stop offset="0.7687" stop-color="#8E6EC5"/>
<stop offset="0.8131" stop-color="#8969C3"/>
<stop offset="1" stop-color="#B086CC"/>
</linearGradient>
<linearGradient id="paint1_linear_607_5201" x1="81.6531" y1="92.4133" x2="103.071" y2="80.565" gradientUnits="userSpaceOnUse">
<stop stop-color="#9F79C8"/>
<stop offset="0.1409" stop-color="#A27DCA"/>
<stop offset="0.2725" stop-color="#AC88CF"/>
<stop offset="0.4" stop-color="#BC9BD7"/>
<stop offset="0.5202" stop-color="#D1B4E3"/>
<stop offset="0.6493" stop-color="#DBC4E9"/>
<stop offset="0.8997" stop-color="#F4EDF8"/>
<stop offset="1" stop-color="white"/>
</linearGradient>
<linearGradient id="paint2_linear_607_5201" x1="68.2047" y1="96.2893" x2="115.454" y2="96.2893" gradientUnits="userSpaceOnUse">
<stop offset="0.0556" stop-color="#9F79B8"/>
<stop offset="0.2575" stop-color="#A17BBA"/>
<stop offset="0.3569" stop-color="#A783BF"/>
<stop offset="0.4338" stop-color="#B290C9"/>
<stop offset="0.4949" stop-color="#C1A1D5"/>
<stop offset="0.5067" stop-color="#C4A5D7"/>
<stop offset="0.5196" stop-color="#CDB3DD"/>
<stop offset="0.5329" stop-color="#DBC8E7"/>
<stop offset="0.5466" stop-color="#EFE7F4"/>
<stop offset="0.5556" stop-color="white"/>
<stop offset="0.5678" stop-color="#ECE0F3"/>
<stop offset="0.5801" stop-color="#DDC8EA"/>
<stop offset="0.5915" stop-color="#D4B9E5"/>
<stop offset="0.601" stop-color="#D1B4E3"/>
<stop offset="0.658" stop-color="#B395D6"/>
<stop offset="0.7155" stop-color="#9C7DCB"/>
<stop offset="0.7687" stop-color="#8E6EC5"/>
<stop offset="0.8131" stop-color="#8969C3"/>
<stop offset="1" stop-color="#B086CC"/>
</linearGradient>
<linearGradient id="paint3_linear_607_5201" x1="93.012" y1="86.8123" x2="97.2166" y2="79.7626" gradientUnits="userSpaceOnUse">
<stop stop-color="white"/>
<stop offset="1"/>
</linearGradient>
<linearGradient id="paint4_linear_607_5201" x1="21.0029" y1="-9.36512" x2="136.823" y2="91.2367" gradientUnits="userSpaceOnUse">
<stop stop-color="#9F79C8"/>
<stop offset="0.1409" stop-color="#A27DCA"/>
<stop offset="0.2725" stop-color="#AC88CF"/>
<stop offset="0.4" stop-color="#BC9BD7"/>
<stop offset="0.5202" stop-color="#D1B4E3"/>
<stop offset="0.6493" stop-color="#DBC4E9"/>
<stop offset="0.8997" stop-color="#F4EDF8"/>
<stop offset="1" stop-color="white"/>
</linearGradient>
<linearGradient id="paint5_linear_607_5201" x1="54.9994" y1="-0.876048" x2="127.424" y2="101.047" gradientUnits="userSpaceOnUse">
<stop stop-color="#955CCB"/>
<stop offset="1" stop-color="#280643"/>
</linearGradient>
<linearGradient id="paint6_linear_607_5201" x1="101.979" y1="35.7385" x2="101.842" y2="44.7232" gradientUnits="userSpaceOnUse">
<stop stop-color="#C3A9D9"/>
<stop offset="1" stop-color="#8C57BC"/>
</linearGradient>
<linearGradient id="paint7_linear_607_5201" x1="88.0061" y1="29.6777" x2="87.9077" y2="35.8485" gradientUnits="userSpaceOnUse">
<stop stop-color="#C3A9D9"/>
<stop offset="1" stop-color="#8C57BC"/>
</linearGradient>
<linearGradient id="paint8_linear_607_5201" x1="101.974" y1="36.7224" x2="101.802" y2="48.2545" gradientUnits="userSpaceOnUse">
<stop stop-color="#C3A9D9"/>
<stop offset="1" stop-color="#8C57BC"/>
</linearGradient>
<linearGradient id="paint9_linear_607_5201" x1="93.5166" y1="34.2771" x2="93.3431" y2="45.8838" gradientUnits="userSpaceOnUse">
<stop stop-color="#C3A9D9"/>
<stop offset="1" stop-color="#8C57BC"/>
</linearGradient>
<linearGradient id="paint10_linear_607_5201" x1="98.5358" y1="41.167" x2="98.3829" y2="51.2815" gradientUnits="userSpaceOnUse">
<stop stop-color="#C3A9D9"/>
<stop offset="1" stop-color="#8C57BC"/>
</linearGradient>
<linearGradient id="paint11_linear_607_5201" x1="81.3843" y1="33.9552" x2="81.2836" y2="40.2966" gradientUnits="userSpaceOnUse">
<stop stop-color="#C3A9D9"/>
<stop offset="1" stop-color="#8C57BC"/>
</linearGradient>
<linearGradient id="paint12_linear_607_5201" x1="100.67" y1="46.7969" x2="100.549" y2="54.5879" gradientUnits="userSpaceOnUse">
<stop stop-color="#C3A9D9"/>
<stop offset="1" stop-color="#8C57BC"/>
</linearGradient>
<linearGradient id="paint13_linear_607_5201" x1="88.8167" y1="42.2579" x2="88.7403" y2="46.8139" gradientUnits="userSpaceOnUse">
<stop stop-color="#C3A9D9"/>
<stop offset="1" stop-color="#8C57BC"/>
</linearGradient>
<linearGradient id="paint14_linear_607_5201" x1="100.465" y1="46.4093" x2="100.286" y2="58.4157" gradientUnits="userSpaceOnUse">
<stop stop-color="#C3A9D9"/>
<stop offset="1" stop-color="#8C57BC"/>
</linearGradient>
<linearGradient id="paint15_linear_607_5201" x1="91.1947" y1="46.7019" x2="91.0787" y2="54.1518" gradientUnits="userSpaceOnUse">
<stop stop-color="#C3A9D9"/>
<stop offset="1" stop-color="#8C57BC"/>
</linearGradient>
<linearGradient id="paint16_linear_607_5201" x1="102.245" y1="55.4526" x2="102.115" y2="63.9097" gradientUnits="userSpaceOnUse">
<stop stop-color="#C3A9D9"/>
<stop offset="1" stop-color="#8C57BC"/>
</linearGradient>
<linearGradient id="paint17_linear_607_5201" x1="89.1219" y1="48.9481" x2="89.0128" y2="55.897" gradientUnits="userSpaceOnUse">
<stop stop-color="#C3A9D9"/>
<stop offset="1" stop-color="#8C57BC"/>
</linearGradient>
<linearGradient id="paint18_linear_607_5201" x1="79.1693" y1="45.2578" x2="79.0993" y2="49.3289" gradientUnits="userSpaceOnUse">
<stop stop-color="#C3A9D9"/>
<stop offset="1" stop-color="#8C57BC"/>
</linearGradient>
<linearGradient id="paint19_linear_607_5201" x1="98.961" y1="55.0687" x2="98.8072" y2="65.2472" gradientUnits="userSpaceOnUse">
<stop stop-color="#C3A9D9"/>
<stop offset="1" stop-color="#8C57BC"/>
</linearGradient>
<linearGradient id="paint20_linear_607_5201" x1="101.416" y1="59.2727" x2="101.263" y2="69.3872" gradientUnits="userSpaceOnUse">
<stop stop-color="#C3A9D9"/>
<stop offset="1" stop-color="#8C57BC"/>
</linearGradient>
<linearGradient id="paint21_linear_607_5201" x1="86.0813" y1="53.0116" x2="85.9786" y2="59.4916" gradientUnits="userSpaceOnUse">
<stop stop-color="#C3A9D9"/>
<stop offset="1" stop-color="#8C57BC"/>
</linearGradient>
<linearGradient id="paint22_linear_607_5201" x1="85.6968" y1="52.667" x2="85.5439" y2="62.7815" gradientUnits="userSpaceOnUse">
<stop stop-color="#C3A9D9"/>
<stop offset="1" stop-color="#8C57BC"/>
</linearGradient>
<linearGradient id="paint23_linear_607_5201" x1="100.264" y1="64.0919" x2="100.111" y2="74.201" gradientUnits="userSpaceOnUse">
<stop stop-color="#C3A9D9"/>
<stop offset="1" stop-color="#8C57BC"/>
</linearGradient>
<linearGradient id="paint24_linear_607_5201" x1="84.4524" y1="56.6938" x2="84.3331" y2="64.3782" gradientUnits="userSpaceOnUse">
<stop stop-color="#C3A9D9"/>
<stop offset="1" stop-color="#8C57BC"/>
</linearGradient>
<linearGradient id="paint25_linear_607_5201" x1="143.049" y1="102.908" x2="86.1367" y2="11.9696" gradientUnits="userSpaceOnUse">
<stop offset="0.0556" stop-color="#9F79B8"/>
<stop offset="0.2575" stop-color="#A17BBA"/>
<stop offset="0.3569" stop-color="#A783BF"/>
<stop offset="0.4338" stop-color="#B290C9"/>
<stop offset="0.4949" stop-color="#C1A1D5"/>
<stop offset="0.5067" stop-color="#C4A5D7"/>
<stop offset="0.5196" stop-color="#CDB3DD"/>
<stop offset="0.5329" stop-color="#DBC8E7"/>
<stop offset="0.5466" stop-color="#EFE7F4"/>
<stop offset="0.5556" stop-color="white"/>
<stop offset="0.5678" stop-color="#ECE0F3"/>
<stop offset="0.5801" stop-color="#DDC8EA"/>
<stop offset="0.5915" stop-color="#D4B9E5"/>
<stop offset="0.601" stop-color="#D1B4E3"/>
<stop offset="0.658" stop-color="#B395D6"/>
<stop offset="0.7155" stop-color="#9C7DCB"/>
<stop offset="0.7687" stop-color="#8E6EC5"/>
<stop offset="0.8131" stop-color="#8969C3"/>
<stop offset="1" stop-color="#B086CC"/>
</linearGradient>
<radialGradient id="paint26_radial_607_5201" cx="0" cy="0" r="1" gradientUnits="userSpaceOnUse" gradientTransform="translate(127.064 47.0972) scale(9.68743)">
<stop stop-color="white"/>
<stop offset="1"/>
</radialGradient>
<linearGradient id="paint27_linear_607_5201" x1="3.5826" y1="91.005" x2="73.94" y2="91.005" gradientUnits="userSpaceOnUse">
<stop offset="0.0556" stop-color="#9F79B8"/>
<stop offset="0.2575" stop-color="#A17BBA"/>
<stop offset="0.3569" stop-color="#A783BF"/>
<stop offset="0.4338" stop-color="#B290C9"/>
<stop offset="0.4949" stop-color="#C1A1D5"/>
<stop offset="0.5067" stop-color="#C4A5D7"/>
<stop offset="0.5196" stop-color="#CDB3DD"/>
<stop offset="0.5329" stop-color="#DBC8E7"/>
<stop offset="0.5466" stop-color="#EFE7F4"/>
<stop offset="0.5556" stop-color="white"/>
<stop offset="0.5678" stop-color="#ECE0F3"/>
<stop offset="0.5801" stop-color="#DDC8EA"/>
<stop offset="0.5915" stop-color="#D4B9E5"/>
<stop offset="0.601" stop-color="#D1B4E3"/>
<stop offset="0.658" stop-color="#B395D6"/>
<stop offset="0.7155" stop-color="#9C7DCB"/>
<stop offset="0.7687" stop-color="#8E6EC5"/>
<stop offset="0.8131" stop-color="#8969C3"/>
<stop offset="1" stop-color="#B086CC"/>
</linearGradient>
<linearGradient id="paint28_linear_607_5201" x1="2.08595" y1="89.1621" x2="69.7733" y2="89.1621" gradientUnits="userSpaceOnUse">
<stop stop-color="#9F79C8"/>
<stop offset="0.1367" stop-color="#A580CB"/>
<stop offset="0.3288" stop-color="#B492D3"/>
<stop offset="0.5529" stop-color="#CDB0E1"/>
<stop offset="0.5808" stop-color="#D1B4E3"/>
<stop offset="0.7644" stop-color="#DBC4E9"/>
<stop offset="1" stop-color="#EBDEF3"/>
</linearGradient>
<linearGradient id="paint29_linear_607_5201" x1="3.58272" y1="100.425" x2="73.9399" y2="100.425" gradientUnits="userSpaceOnUse">
<stop offset="0.0556" stop-color="#9F79B8"/>
<stop offset="0.2575" stop-color="#A17BBA"/>
<stop offset="0.3569" stop-color="#A783BF"/>
<stop offset="0.4338" stop-color="#B290C9"/>
<stop offset="0.4949" stop-color="#C1A1D5"/>
<stop offset="0.5067" stop-color="#C4A5D7"/>
<stop offset="0.5196" stop-color="#CDB3DD"/>
<stop offset="0.5329" stop-color="#DBC8E7"/>
<stop offset="0.5466" stop-color="#EFE7F4"/>
<stop offset="0.5556" stop-color="white"/>
<stop offset="0.5678" stop-color="#ECE0F3"/>
<stop offset="0.5801" stop-color="#DDC8EA"/>
<stop offset="0.5915" stop-color="#D4B9E5"/>
<stop offset="0.601" stop-color="#D1B4E3"/>
<stop offset="0.658" stop-color="#B395D6"/>
<stop offset="0.7155" stop-color="#9C7DCB"/>
<stop offset="0.7687" stop-color="#8E6EC5"/>
<stop offset="0.8131" stop-color="#8969C3"/>
<stop offset="1" stop-color="#B086CC"/>
</linearGradient>
<linearGradient id="paint30_linear_607_5201" x1="-4.75533" y1="65.5604" x2="13.0629" y2="126.476" gradientUnits="userSpaceOnUse">
<stop stop-color="#955CCB"/>
<stop offset="1" stop-color="#280643"/>
</linearGradient>
<linearGradient id="paint31_linear_607_5201" x1="26.5" y1="67.5002" x2="46" y2="103" gradientUnits="userSpaceOnUse">
<stop stop-color="#5A80A6" stop-opacity="0.2"/>
<stop offset="1" stop-color="#5793CE"/>
</linearGradient>
<linearGradient id="paint32_linear_607_5201" x1="22.1658" y1="73.0066" x2="22.8359" y2="99.6823" gradientUnits="userSpaceOnUse">
<stop stop-color="#E8DAF4"/>
<stop offset="1" stop-color="#B993DE"/>
</linearGradient>
<linearGradient id="paint33_linear_607_5201" x1="5.61864" y1="25.0465" x2="76.0357" y2="86.211" gradientUnits="userSpaceOnUse">
<stop stop-color="#9F79C8"/>
<stop offset="0.1409" stop-color="#A27DCA"/>
<stop offset="0.2725" stop-color="#AC88CF"/>
<stop offset="0.4" stop-color="#BC9BD7"/>
<stop offset="0.5202" stop-color="#D1B4E3"/>
<stop offset="0.6493" stop-color="#DBC4E9"/>
<stop offset="0.8997" stop-color="#F4EDF8"/>
<stop offset="1" stop-color="white"/>
</linearGradient>
<linearGradient id="paint34_linear_607_5201" x1="40" y1="30.0002" x2="43.5" y2="94.0002" gradientUnits="userSpaceOnUse">
<stop stop-color="#5793CE"/>
<stop offset="1" stop-color="#FFFDFF"/>
</linearGradient>
<linearGradient id="paint35_linear_607_5201" x1="49.5357" y1="57.6618" x2="49.433" y2="64.1417" gradientUnits="userSpaceOnUse">
<stop stop-color="#5793CE"/>
<stop offset="1" stop-color="#8C57BC"/>
</linearGradient>
<linearGradient id="paint36_linear_607_5201" x1="50.6965" y1="58.472" x2="50.5436" y2="68.5865" gradientUnits="userSpaceOnUse">
<stop stop-color="#5793CE"/>
<stop offset="1" stop-color="#8C57BC"/>
</linearGradient>
<linearGradient id="paint37_linear_607_5201" x1="49.4521" y1="62.4988" x2="49.3329" y2="70.1831" gradientUnits="userSpaceOnUse">
<stop stop-color="#5793CE"/>
<stop offset="1" stop-color="#8C57BC"/>
</linearGradient>
<linearGradient id="paint38_linear_607_5201" x1="24.0798" y1="33.024" x2="72.8879" y2="90.5676" gradientUnits="userSpaceOnUse">
<stop stop-color="#7C1DC9"/>
<stop offset="0.03" stop-color="#741BBD"/>
<stop offset="0.162" stop-color="#56148B"/>
<stop offset="0.2971" stop-color="#3B0E60"/>
<stop offset="0.4332" stop-color="#26093E"/>
<stop offset="0.5704" stop-color="#150523"/>
<stop offset="0.7095" stop-color="#09020F"/>
<stop offset="0.8512" stop-color="#020104"/>
<stop offset="1"/>
</linearGradient>
<linearGradient id="paint39_linear_607_5201" x1="38.0271" y1="20.213" x2="87.1725" y2="57.393" gradientUnits="userSpaceOnUse">
<stop stop-color="#5A80A6" stop-opacity="0.2"/>
<stop offset="1" stop-color="#5793CE"/>
</linearGradient>
<linearGradient id="paint40_linear_607_5201" x1="38.0746" y1="17.0741" x2="90.5536" y2="56.7876" gradientUnits="userSpaceOnUse">
<stop stop-color="#5A80A6" stop-opacity="0.2"/>
<stop offset="1" stop-color="#5793CE"/>
</linearGradient>
<linearGradient id="paint41_linear_607_5201" x1="83.73" y1="102.277" x2="88.4395" y2="124.522" gradientUnits="userSpaceOnUse">
<stop stop-color="#7B1EC9"/>
<stop offset="1" stop-color="#FFD5FD"/>
</linearGradient>
<linearGradient id="paint42_linear_607_5201" x1="74.8337" y1="65.3697" x2="93.5752" y2="97.8309" gradientUnits="userSpaceOnUse">
<stop offset="0.0556" stop-color="#9F79B8"/>
<stop offset="0.2575" stop-color="#A17BBA"/>
<stop offset="0.3569" stop-color="#A783BF"/>
<stop offset="0.4338" stop-color="#B290C9"/>
<stop offset="0.4949" stop-color="#C1A1D5"/>
<stop offset="0.5067" stop-color="#C4A5D7"/>
<stop offset="0.5196" stop-color="#CDB3DD"/>
<stop offset="0.5329" stop-color="#DBC8E7"/>
<stop offset="0.5466" stop-color="#EFE7F4"/>
<stop offset="0.5556" stop-color="white"/>
<stop offset="0.5678" stop-color="#ECE0F3"/>
<stop offset="0.5801" stop-color="#DDC8EA"/>
<stop offset="0.5915" stop-color="#D4B9E5"/>
<stop offset="0.601" stop-color="#D1B4E3"/>
<stop offset="0.658" stop-color="#B395D6"/>
<stop offset="0.7155" stop-color="#9C7DCB"/>
<stop offset="0.7687" stop-color="#8E6EC5"/>
<stop offset="0.8131" stop-color="#8969C3"/>
<stop offset="1" stop-color="#B086CC"/>
</linearGradient>
<radialGradient id="paint43_radial_607_5201" cx="0" cy="0" r="1" gradientUnits="userSpaceOnUse" gradientTransform="translate(97.788 75.4454) scale(20.0166)">
<stop stop-color="#AF8AFC"/>
<stop offset="1" stop-color="#10054D"/>
</radialGradient>
<linearGradient id="paint44_linear_607_5201" x1="100.559" y1="117.496" x2="71.4183" y2="55.9211" gradientUnits="userSpaceOnUse">
<stop stop-color="#5793CE"/>
<stop offset="1" stop-color="white"/>
</linearGradient>
<linearGradient id="paint45_linear_607_5201" x1="84.6934" y1="61.5415" x2="88.6795" y2="118.428" gradientUnits="userSpaceOnUse">
<stop stop-color="#C3A9D9"/>
<stop offset="1" stop-color="#8C57BC"/>
</linearGradient>
<linearGradient id="paint46_linear_607_5201" x1="81.5" y1="61.9998" x2="88.3533" y2="115.331" gradientUnits="userSpaceOnUse">
<stop stop-color="#E8DAF4"/>
<stop offset="1" stop-color="#B993DE"/>
</linearGradient>
<linearGradient id="paint47_linear_607_5201" x1="89.5623" y1="81.7254" x2="89.4829" y2="86.9836" gradientUnits="userSpaceOnUse">
<stop stop-color="#C3A9D9"/>
<stop offset="1" stop-color="#8C57BC"/>
</linearGradient>
<linearGradient id="paint48_linear_607_5201" x1="89.5623" y1="85.7254" x2="89.4829" y2="90.9836" gradientUnits="userSpaceOnUse">
<stop stop-color="#C3A9D9"/>
<stop offset="1" stop-color="#8C57BC"/>
</linearGradient>
<linearGradient id="paint49_linear_607_5201" x1="89.5623" y1="89.7254" x2="89.4829" y2="94.9836" gradientUnits="userSpaceOnUse">
<stop stop-color="#C3A9D9"/>
<stop offset="1" stop-color="#8C57BC"/>
</linearGradient>
<linearGradient id="paint50_linear_607_5201" x1="89.5623" y1="93.7254" x2="89.4829" y2="98.9836" gradientUnits="userSpaceOnUse">
<stop stop-color="#C3A9D9"/>
<stop offset="1" stop-color="#8C57BC"/>
</linearGradient>
<linearGradient id="paint51_linear_607_5201" x1="88.1714" y1="118.357" x2="90.0736" y2="115.002" gradientUnits="userSpaceOnUse">
<stop stop-color="#808080"/>
<stop offset="0.0979" stop-color="#838383"/>
<stop offset="0.1895" stop-color="#8F8F8F"/>
<stop offset="0.2785" stop-color="#A1A1A1"/>
<stop offset="0.3659" stop-color="#BCBCBC"/>
<stop offset="0.4514" stop-color="#DEDEDE"/>
<stop offset="0.5202" stop-color="white"/>
<stop offset="1" stop-color="white"/>
</linearGradient>
<linearGradient id="paint52_linear_607_5201" x1="94.6849" y1="113.158" x2="98.9181" y2="124.372" gradientUnits="userSpaceOnUse">
<stop offset="0.0556" stop-color="white"/>
<stop offset="0.4305" stop-color="white"/>
<stop offset="0.4949" stop-color="white"/>
<stop offset="0.5556" stop-color="white"/>
<stop offset="0.601" stop-color="white"/>
<stop offset="0.6616" stop-color="white"/>
<stop offset="0.6663" stop-color="#F8F8F8"/>
<stop offset="0.6994" stop-color="#CDCDCD"/>
<stop offset="0.7315" stop-color="#ABABAB"/>
<stop offset="0.7618" stop-color="#939393"/>
<stop offset="0.7898" stop-color="#858585"/>
<stop offset="0.8131" stop-color="#808080"/>
</linearGradient>
<clipPath id="clip0_607_5201">
<rect width="130" height="130" fill="white"/>
</clipPath>
</defs>
</svg>
