<svg width="205" height="220" viewBox="0 0 205 220" fill="none"
  xmlns="http://www.w3.org/2000/svg">
  <g clip-path="url(#clip0_516)">
    <g opacity="0.61">
      <path opacity="0.41" d="M49.2445 137.047L43.5528 140.324C42.6031 140.868 42.5964 142.232 43.5394 142.789L56.2832 150.761C56.7278 151.023 57.2869 151.03 57.7314 150.768L108.976 121.271C109.926 120.727 109.933 119.364 108.99 118.806L95.8553 110.599L95.5252 110.405L92.6154 112.077L55.6636 133.346L49.2445 137.047Z" fill="#FCFCFC"/>
      <path opacity="0.4213" d="M49.5206 137.013L43.8829 140.264C42.9399 140.808 42.9332 142.158 43.8694 142.708L56.4651 150.586C56.9097 150.848 57.4552 150.855 57.8998 150.593L108.667 121.372C109.61 120.828 109.616 119.478 108.68 118.927L95.6936 110.814L95.3636 110.619L92.4807 112.278L55.8724 133.353L49.5206 137.013Z" fill="#FBFBFB"/>
      <path opacity="0.4327" d="M49.7968 136.973L44.2062 140.19C43.2767 140.727 43.2632 142.064 44.1927 142.615L56.6402 150.398C57.0781 150.66 57.6237 150.66 58.0615 150.405L108.35 121.459C109.279 120.922 109.293 119.585 108.363 119.035L95.532 111.022L95.2087 110.828L92.3528 112.473L56.0879 133.346L49.7968 136.973Z" fill="#FAFAFA"/>
      <path opacity="0.444" d="M50.073 136.933L44.5363 140.116C43.6135 140.647 43.6067 141.97 44.5228 142.514L56.8288 150.204C57.2599 150.459 57.7988 150.466 58.2366 150.21L108.047 121.54C108.97 121.009 108.976 119.686 108.06 119.142L95.377 111.231L95.0537 111.036L92.2248 112.661L56.3102 133.34L50.073 136.933Z" fill="#F9F9F9"/>
      <path opacity="0.4554" d="M50.3491 136.892L44.8663 140.049C43.9503 140.573 43.9435 141.889 44.8528 142.426L57.0107 150.022C57.4418 150.277 57.9739 150.277 58.405 150.029L107.737 121.634C108.653 121.11 108.66 119.794 107.75 119.256L95.2154 111.439L94.8921 111.251L92.0901 112.863L56.519 133.34L50.3491 136.892Z" fill="#F8F8F8"/>
      <path opacity="0.4667" d="M50.6253 136.852L45.1963 139.975C44.2938 140.499 44.2803 141.795 45.1829 142.326L57.1926 149.821C57.6169 150.076 58.149 150.076 58.5734 149.827L107.42 121.708C108.323 121.184 108.336 119.887 107.434 119.357L95.0537 111.64L94.7372 111.452L91.9621 113.051L56.7345 133.326L50.6253 136.852Z" fill="#F7F7F7"/>
      <path opacity="0.4781" d="M50.9082 136.812L45.5331 139.908C44.6373 140.425 44.6305 141.708 45.5196 142.238L57.3811 149.639C57.8055 149.888 58.3241 149.895 58.7485 149.646L107.117 121.802C108.013 121.284 108.02 120.002 107.131 119.471L94.8988 111.848L94.5822 111.66L91.8341 113.239L56.9568 133.32L50.9082 136.812Z" fill="#F6F6F6"/>
      <path opacity="0.4894" d="M51.1843 136.778L45.8632 139.841C44.9741 140.351 44.9673 141.627 45.8497 142.144L57.563 149.451C57.9806 149.7 58.4993 149.7 58.9169 149.458L106.807 121.889C107.697 121.379 107.703 120.102 106.821 119.585L94.7439 112.063L94.434 111.882L91.7128 113.447L57.1791 133.326L51.1843 136.778Z" fill="#F5F5F5"/>
      <path opacity="0.5008" d="M51.4605 136.738L46.1932 139.774C45.3176 140.277 45.3041 141.54 46.1798 142.057L57.7449 149.27C58.1558 149.512 58.6744 149.519 59.0853 149.277L106.498 121.983C107.373 121.479 107.387 120.217 106.511 119.699L94.5823 112.272L94.2724 112.09L91.5782 113.642L57.3879 133.326L51.4605 136.738Z" fill="#F4F4F4"/>
      <path opacity="0.5121" d="M51.7367 136.698L46.5233 139.7C45.6544 140.203 45.6476 141.446 46.5098 141.963L57.9267 149.075C58.3376 149.317 58.8428 149.324 59.2537 149.082L106.188 122.064C107.057 121.56 107.063 120.317 106.201 119.8L94.4206 112.473L94.1175 112.292L91.4569 113.823L57.6169 133.313L51.7367 136.698Z" fill="#F3F3F3"/>
      <path opacity="0.5235" d="M52.0129 136.657L46.8533 139.626C45.9912 140.123 45.9844 141.359 46.8399 141.862L58.1154 148.887C58.5195 149.129 59.0247 149.129 59.4288 148.894L105.885 122.151C106.747 121.654 106.754 120.418 105.898 119.914L94.2724 112.681L93.9693 112.5L91.3357 114.018L57.8325 133.313L52.0129 136.657Z" fill="#F2F2F2"/>
      <path opacity="0.5348" d="M52.289 136.617L47.1834 139.559C46.3347 140.049 46.3212 141.271 47.1699 141.775L58.2972 148.699C58.6946 148.934 59.193 148.941 59.5972 148.706L105.575 122.238C106.424 121.748 106.437 120.526 105.588 120.022L94.1107 112.889L93.8144 112.715L91.2077 114.219L58.0547 133.306L52.289 136.617Z" fill="#F1F1F1"/>
      <path opacity="0.5462" d="M52.5652 136.584L47.5067 139.492C46.6647 139.975 46.658 141.184 47.4932 141.681L58.4723 148.511C58.8697 148.746 59.3615 148.753 59.7589 148.518L105.258 122.326C106.1 121.842 106.107 120.633 105.272 120.136L93.9424 113.098L93.646 112.923L91.0662 114.407L58.2635 133.299L52.5652 136.584Z" fill="#F0F0F0"/>
      <path opacity="0.5575" d="M52.8481 136.543L47.8435 139.424C47.0082 139.901 47.0015 141.103 47.83 141.594L58.6609 148.33C59.0516 148.565 59.5433 148.565 59.934 148.337L104.948 122.419C105.784 121.943 105.79 120.74 104.962 120.25L93.7874 113.313L93.4978 113.138L90.945 114.609L58.4858 133.293L52.8481 136.543Z" fill="#EFEFEF"/>
      <path opacity="0.5688" d="M53.1242 136.503L48.1735 139.351C47.3518 139.827 47.3383 141.009 48.16 141.493L58.8495 148.135C59.2402 148.363 59.7184 148.37 60.1091 148.142L104.645 122.5C105.467 122.023 105.481 120.841 104.659 120.358L93.6325 113.514L93.3429 113.339L90.817 114.797L58.7014 133.286L53.1242 136.503Z" fill="#EEEEEE"/>
      <path opacity="0.5802" d="M53.4004 136.463L48.5036 139.283C47.6886 139.753 47.6818 140.922 48.4901 141.406L59.0314 147.954C59.4154 148.182 59.8936 148.182 60.2775 147.96L104.336 122.601C105.151 122.131 105.157 120.962 104.349 120.479L93.4709 113.736L93.188 113.568L90.6891 115.005L58.9169 133.293L53.4004 136.463Z" fill="#EDEDED"/>
      <path opacity="0.5915" d="M53.6765 136.422L48.8336 139.21C48.0253 139.673 48.0186 140.835 48.8201 141.312L59.2133 147.766C59.5905 147.994 60.0619 147.994 60.4459 147.772L104.026 122.688C104.834 122.225 104.841 121.063 104.039 120.586L93.3159 113.937L93.033 113.769L90.561 115.193L59.1324 133.286L53.6765 136.422Z" fill="#ECECEC"/>
      <path opacity="0.6029" d="M53.9527 136.389L49.1637 139.149C48.3621 139.606 48.3554 140.754 49.1502 141.224L59.3951 147.578C59.7723 147.799 60.2371 147.806 60.6143 147.584L103.716 122.775C104.517 122.319 104.524 121.17 103.729 120.7L93.1543 114.152L92.8714 113.984L90.4263 115.394L59.348 133.286L53.9527 136.389Z" fill="#EBEBEB"/>
      <path opacity="0.6142" d="M54.2289 136.349L49.4937 139.075C48.7056 139.532 48.6989 140.66 49.4802 141.13L59.577 147.39C59.9474 147.611 60.4122 147.611 60.7827 147.396L103.406 122.863C104.194 122.406 104.201 121.278 103.419 120.808L92.9994 114.354L92.7232 114.192L90.3051 115.583L59.5702 133.273L54.2289 136.349Z" fill="#EAEAEA"/>
      <path opacity="0.6256" d="M54.505 136.308L49.8237 139.001C49.0424 139.451 49.0357 140.573 49.8103 141.03L59.7588 147.195C60.1226 147.41 60.5806 147.416 60.9511 147.202L103.096 122.943C103.877 122.493 103.884 121.372 103.11 120.915L92.8377 114.555L92.5615 114.394L90.1704 115.771L59.7791 133.266L54.505 136.308Z" fill="#E9E9E9"/>
      <path opacity="0.6369" d="M54.7879 136.268L50.1605 138.934C49.3859 139.377 49.3792 140.486 50.1471 140.942L59.9475 147.014C60.3112 147.228 60.7625 147.235 61.1262 147.02L102.793 123.037C103.568 122.594 103.574 121.486 102.807 121.029L92.6828 114.77L92.4134 114.609L90.0492 115.972L60.0081 133.266L54.7879 136.268Z" fill="#E8E8E8"/>
      <path opacity="0.6483" d="M55.0641 136.228L50.4906 138.86C49.7294 139.297 49.7227 140.392 50.4771 140.842L60.136 146.819C60.493 147.034 60.9376 147.034 61.3013 146.826L102.483 123.118C103.244 122.681 103.251 121.587 102.497 121.137L92.5279 114.971L92.2584 114.81L89.9212 116.154L60.2169 133.259L55.0641 136.228Z" fill="#E7E7E7"/>
      <path opacity="0.6596" d="M55.3403 136.194L50.8139 138.8C50.0595 139.236 50.0528 140.318 50.8004 140.761L60.3112 146.644C60.6682 146.852 61.106 146.859 61.463 146.651L102.167 123.219C102.921 122.782 102.928 121.701 102.18 121.258L92.3595 115.193L92.0968 115.039L89.7864 116.368L60.4324 133.266L55.3403 136.194Z" fill="#E6E6E6"/>
      <path opacity="0.671" d="M55.6164 136.154L51.1439 138.726C50.3963 139.156 50.3895 140.224 51.1305 140.66L60.493 146.443C60.8433 146.651 61.2811 146.651 61.6313 146.449L101.857 123.293C102.604 122.863 102.611 121.795 101.87 121.358L92.1978 115.388L91.9351 115.233L89.6517 116.55L60.6412 133.246L55.6164 136.154Z" fill="#E5E5E5"/>
      <path opacity="0.6823" d="M55.8926 136.113L51.474 138.659C50.7398 139.082 50.7331 140.136 51.4605 140.573L60.6749 146.261C61.0184 146.47 61.4495 146.47 61.7998 146.268L101.547 123.387C102.281 122.963 102.288 121.909 101.56 121.473L92.0429 115.603L91.787 115.448L89.5305 116.744L60.8703 133.246L55.8926 136.113Z" fill="#E4E4E4"/>
      <path opacity="0.6937" d="M56.1687 136.073L51.804 138.585C51.0766 139.001 51.0698 140.049 51.7906 140.479L60.8568 146.073C61.2003 146.275 61.6246 146.282 61.9681 146.08L101.237 123.474C101.965 123.058 101.971 122.01 101.251 121.58L91.8812 115.804L91.6253 115.65L89.3958 116.933L61.0858 133.246L56.1687 136.073Z" fill="#E3E3E3"/>
      <path opacity="0.705" d="M56.4449 136.033L52.1341 138.511C51.4134 138.927 51.4066 139.955 52.1206 140.378L61.0454 145.878C61.3821 146.08 61.8065 146.08 62.1433 145.885L100.934 123.554C101.655 123.138 101.661 122.111 100.947 121.687L91.7263 116.012L91.4771 115.865L89.2745 117.134L61.3013 133.239L56.4449 136.033Z" fill="#E3E3E3"/>
      <path opacity="0.7163" d="M56.7278 135.999L52.4709 138.451C51.7636 138.86 51.7569 139.881 52.4574 140.298L61.234 145.704C61.5707 145.899 61.9816 145.905 62.3184 145.711L100.631 123.655C101.338 123.246 101.345 122.225 100.644 121.808L91.5781 116.227L91.3289 116.08L89.1533 117.329L61.5303 133.232L56.7278 135.999Z" fill="#E2E2E2"/>
      <path opacity="0.7277" d="M57.004 135.959L52.8009 138.377C52.1004 138.78 52.0937 139.787 52.7874 140.197L61.4158 145.509C61.7459 145.704 62.1568 145.711 62.4868 145.516L100.321 123.736C101.022 123.333 101.028 122.325 100.335 121.916L91.4165 116.435L91.174 116.288L89.0253 117.523L61.7459 133.225L57.004 135.959Z" fill="#E1E1E1"/>
      <path opacity="0.739" d="M57.2801 135.919L53.131 138.309C52.4372 138.706 52.4304 139.7 53.1175 140.109L61.5977 145.321C61.921 145.516 62.3251 145.516 62.6552 145.328L100.004 123.823C100.698 123.427 100.705 122.433 100.018 122.023L91.2548 116.637L91.0123 116.496L88.8906 117.718L61.9547 133.225L57.2801 135.919Z" fill="#E0E0E0"/>
      <path opacity="0.7504" d="M57.5563 135.878L53.461 138.236C52.7807 138.632 52.774 139.612 53.4475 140.009L61.7795 145.126C62.1029 145.314 62.5003 145.321 62.8236 145.133L99.6946 123.904C100.375 123.507 100.382 122.527 99.7081 122.131L91.0932 116.845L90.8507 116.704L88.7559 117.906L62.1635 133.212L57.5563 135.878Z" fill="#DFDFDF"/>
      <path opacity="0.7617" d="M57.8324 135.838L53.791 138.169C53.1175 138.558 53.1107 139.525 53.7776 139.921L61.9681 144.945C62.2847 145.133 62.6821 145.133 62.9987 144.952L99.3915 124.004C100.065 123.615 100.072 122.648 99.405 122.252L90.9382 117.06L90.7025 116.919L88.6346 118.108L62.3925 133.212L57.8324 135.838Z" fill="#DEDEDE"/>
      <path opacity="0.7731" d="M58.1086 135.805L54.1211 138.101C53.4543 138.484 53.4475 139.438 54.1076 139.834L62.15 144.764C62.4599 144.952 62.8505 144.952 63.1671 144.77L99.0817 124.099C99.7485 123.716 99.7552 122.762 99.0951 122.366L90.7833 117.275L90.5476 117.134L88.5067 118.309L62.608 133.219L58.1086 135.805Z" fill="#DDDDDD"/>
      <path opacity="0.7844" d="M58.3847 135.764L54.4444 138.034C53.791 138.41 53.7843 139.357 54.4309 139.74L62.3251 144.576C62.6349 144.757 63.0189 144.764 63.3287 144.582L98.7651 124.186C99.4184 123.81 99.4252 122.863 98.7785 122.48L90.6149 117.483L90.3859 117.349L88.3719 118.504L62.8168 133.212L58.3847 135.764Z" fill="#DCDCDC"/>
      <path opacity="0.7958" d="M58.6677 135.724L54.7812 137.96C54.1346 138.33 54.1278 139.263 54.7677 139.646L62.5137 144.388C62.8169 144.569 63.194 144.569 63.5039 144.394L98.462 124.273C99.1086 123.904 99.1153 122.97 98.4755 122.587L90.46 117.691L90.231 117.557L88.244 118.699L63.0391 133.212L58.6677 135.724Z" fill="#DBDBDB"/>
      <path opacity="0.8071" d="M58.9438 135.684L55.1112 137.886C54.4714 138.256 54.4646 139.169 55.0978 139.545L62.6956 144.186C62.9987 144.367 63.3692 144.367 63.6723 144.193L98.1522 124.347C98.7921 123.978 98.7988 123.064 98.1656 122.688L90.3051 117.886L90.0828 117.752L88.1228 118.88L63.2614 133.192L58.9438 135.684Z" fill="#DADADA"/>
      <path opacity="0.8185" d="M59.22 135.643L55.4413 137.819C54.8149 138.182 54.8081 139.089 55.4278 139.458L62.8775 144.005C63.1738 144.179 63.5443 144.186 63.8407 144.011L97.8423 124.441C98.4687 124.078 98.4755 123.172 97.8558 122.802L90.1435 118.101L89.9212 117.974L87.9948 119.082L63.4769 133.192L59.22 135.643Z" fill="#D9D9D9"/>
      <path opacity="0.8298" d="M59.4961 135.61L55.7713 137.752C55.1516 138.108 55.1449 139.001 55.7578 139.364L63.066 143.817C63.3557 143.991 63.7194 143.991 64.0158 143.823L97.5324 124.528C98.1521 124.172 98.1588 123.279 97.5459 122.916L89.9817 118.309L89.7662 118.182L87.8667 119.276L63.6924 133.192L59.4961 135.61Z" fill="#D8D8D8"/>
      <path opacity="0.8412" d="M59.7723 135.569L56.1014 137.678C55.4884 138.028 55.4817 138.907 56.0879 139.27L63.2479 143.629C63.5376 143.797 63.8946 143.803 64.1842 143.635L97.2226 124.616C97.8356 124.266 97.8423 123.387 97.2361 123.024L89.8269 118.517L89.6113 118.39L87.7388 119.471L63.9148 133.185L59.7723 135.569Z" fill="#D7D7D7"/>
      <path opacity="0.8525" d="M60.0484 135.529L56.4314 137.611C55.8252 137.96 55.8252 138.827 56.4179 139.176L63.4298 143.441C63.7127 143.608 64.0629 143.608 64.3525 143.447L96.9128 124.703C97.519 124.354 97.519 123.487 96.9262 123.138L89.6652 118.726L89.4564 118.598L87.6108 119.659L64.1303 133.178L60.0484 135.529Z" fill="#D6D6D6"/>
      <path opacity="0.8638" d="M60.3246 135.489L56.7615 137.544C56.1687 137.886 56.162 138.739 56.748 139.089L63.6117 143.259C63.8878 143.427 64.2381 143.427 64.521 143.266L96.6029 124.797C97.1957 124.454 97.2024 123.601 96.6164 123.252L89.5103 118.94L89.3015 118.82L87.4829 119.867L64.3458 133.178L60.3246 135.489Z" fill="#D5D5D5"/>
      <path opacity="0.8752" d="M60.6075 135.449L57.0982 137.47C56.5122 137.806 56.5055 138.645 57.0848 138.995L63.8002 143.071C64.0764 143.232 64.4199 143.239 64.6961 143.078L96.2998 124.884C96.8858 124.548 96.8926 123.709 96.3133 123.36L89.3554 119.142L89.1533 119.021L87.3616 120.055L64.5748 133.172L60.6075 135.449Z" fill="#D4D4D4"/>
      <path opacity="0.8865" d="M60.8837 135.415L57.4283 137.403C56.849 137.732 56.849 138.565 57.4216 138.901L63.9889 142.876C64.2583 143.038 64.5951 143.038 64.8712 142.883L95.9967 124.965C96.576 124.636 96.576 123.803 96.0035 123.467L89.1937 119.35L88.9916 119.229L87.2269 120.243L64.7837 133.165L60.8837 135.415Z" fill="#D3D3D3"/>
      <path opacity="0.8979" d="M61.1599 135.375L57.7516 137.336C57.1859 137.665 57.1791 138.477 57.7449 138.813L64.1707 142.695C64.4402 142.856 64.7702 142.856 65.0396 142.702L95.6869 125.059C96.2527 124.73 96.2595 123.917 95.6937 123.581L89.0388 119.558L88.8368 119.438L87.0989 120.438L64.9992 133.165L61.1599 135.375Z" fill="#D2D2D2"/>
      <path opacity="0.9092" d="M61.436 135.334L58.0816 137.262C57.5226 137.584 57.5158 138.383 58.0749 138.713L64.3525 142.5C64.6152 142.655 64.9453 142.662 65.208 142.507L95.377 125.139C95.9361 124.817 95.9428 124.018 95.3838 123.689L88.8771 119.767L88.6818 119.652L86.9709 120.64L65.2147 133.165L61.436 135.334Z" fill="#D1D1D1"/>
      <path opacity="0.9206" d="M61.7122 135.294L58.4117 137.195C57.8594 137.51 57.8594 138.303 58.405 138.625L64.5344 142.319C64.7904 142.473 65.1137 142.473 65.3764 142.326L95.0605 125.233C95.6128 124.918 95.6128 124.125 95.0672 123.803L88.7087 119.975L88.5134 119.861L86.8295 120.828L65.4235 133.152L61.7122 135.294Z" fill="#D0D0D0"/>
      <path opacity="0.9319" d="M61.9884 135.254L58.7418 137.121C58.2029 137.43 58.1962 138.209 58.735 138.524L64.7163 142.124C64.9723 142.272 65.2888 142.279 65.5448 142.131L94.7506 125.314C95.2895 125.005 95.2962 124.226 94.7574 123.91L88.5538 120.183L88.3652 120.069L86.7083 121.023L65.6458 133.145L61.9884 135.254Z" fill="#CFCFCF"/>
      <path opacity="0.9433" d="M62.2645 135.214L59.0718 137.054C58.5397 137.363 58.533 138.122 59.0651 138.437L64.8982 141.943C65.1474 142.091 65.4572 142.091 65.7132 141.95L94.4408 125.415C94.9729 125.106 94.9797 124.347 94.4475 124.031L88.3922 120.398L88.2036 120.291L86.5735 121.231L65.8546 133.158L62.2645 135.214Z" fill="#CECECE"/>
      <path opacity="0.9546" d="M62.5407 135.18L59.4018 136.986C58.8765 137.289 58.8765 138.041 59.3951 138.35L65.0867 141.755C65.336 141.903 65.6391 141.903 65.8883 141.762L94.1377 125.502C94.6631 125.2 94.6631 124.448 94.1444 124.139L88.244 120.606L88.0621 120.499L86.459 121.419L66.0904 133.145L62.5407 135.18Z" fill="#CDCDCD"/>
      <path opacity="0.966" d="M62.8236 135.14L59.7386 136.919C59.2267 137.215 59.22 137.954 59.7319 138.256L65.2754 141.567C65.5178 141.708 65.8209 141.715 66.0634 141.574L93.8346 125.589C94.3465 125.294 94.3532 124.555 93.8413 124.253L88.0891 120.814L87.9072 120.707L86.3311 121.614L66.3059 133.138L62.8236 135.14Z" fill="#CCCCCC"/>
      <path opacity="0.9773" d="M63.0997 135.099L60.0687 136.845C59.5635 137.134 59.5568 137.86 60.0619 138.162L65.4572 141.379C65.693 141.52 65.9893 141.52 66.2318 141.385L93.5247 125.677C94.0299 125.388 94.0366 124.663 93.5315 124.36L87.9274 121.022L87.7523 120.915L86.2031 121.808L66.5214 133.138L63.0997 135.099Z" fill="#CBCBCB"/>
      <path opacity="0.9887" d="M63.3759 135.059L60.3987 136.772C59.9003 137.06 59.9003 137.772 60.392 138.061L65.6391 141.184C65.8748 141.325 66.1645 141.325 66.4002 141.191L93.2149 125.757C93.7133 125.469 93.7133 124.757 93.2216 124.468L87.7725 121.224L87.5974 121.123L86.0751 121.996L66.737 133.125L63.3759 135.059Z" fill="#CACACA"/>
      <path opacity="0.61" d="M63.6521 135.019L60.7288 136.704C60.2438 136.986 60.2371 137.685 60.7221 137.974L65.821 141.003C66.05 141.137 66.3329 141.144 66.5686 141.009L92.9051 125.851C93.39 125.569 93.3968 124.871 92.9118 124.582L87.6108 121.439L87.4424 121.338L85.9471 122.198L66.9525 133.125L63.6521 135.019Z" fill="#C9C9C9"/>
    </g>
    <path d="M99.9304 108.759L99.5936 108.39C100.085 109.122 99.9573 110.002 99.1153 110.485L60.0956 133.064C59.5905 133.353 58.9708 133.353 58.4723 133.051L51.7838 129.082C50.8476 128.524 50.7533 127.262 51.4942 126.557L50.6253 127.107C50.0528 128.027 50.3222 130.19 50.6926 131.009L58.4791 135.583C58.9775 135.878 59.6039 135.885 60.1024 135.596L99.0817 113.198C100.132 112.587 100.772 110.062 99.9304 108.759Z" fill="url(#paint0_linear_516)"/>
    <path d="M55.4346 124.166L51.016 126.711C50.2818 127.134 50.275 128.195 51.0025 128.625L58.7081 133.199C59.0516 133.407 59.4827 133.407 59.833 133.205L99.6273 110.297C100.361 109.874 100.368 108.813 99.6407 108.383L91.632 103.628L91.3761 103.474L89.1196 104.777L60.4257 121.291L55.4346 124.166Z" fill="url(#paint1_linear_516)"/>
    <path d="M39.6259 120.734L39.6192 118.927L39.6124 116.617L39.6057 114.199L39.4845 72.7277C39.4777 70.6726 40.9461 68.1406 42.7378 67.1064L108.909 29.0131C109.36 28.7512 109.791 28.6102 110.182 28.5766C110.377 28.5564 110.559 28.5699 110.728 28.6035C110.728 28.6035 110.728 28.6035 110.734 28.6035C110.916 28.637 111.078 28.6975 111.233 28.7848L108.054 26.8371C107.461 26.4946 106.639 26.5416 105.736 27.0588L39.572 65.1587C37.7736 66.193 36.312 68.7249 36.3187 70.78L36.4332 112.251L36.4399 114.669L36.4467 116.979L36.4534 118.786C36.4534 119.807 36.8239 120.532 37.4099 120.868C38.9793 121.781 39.013 121.902 40.5824 122.809C39.9964 122.473 39.6326 121.755 39.6259 120.734Z" fill="url(#paint2_linear_516)"/>
    <path d="M91.1336 94.8386L91.142 94.8301H91.1336V94.8386Z" fill="#082C44"/>
    <path d="M91.7734 106.328L91.9957 110.29L60.0687 128.672L92.0024 110.29L91.7802 106.328L91.7734 106.321V106.328Z" fill="#082C44"/>
    <path d="M55.8589 115.139L55.549 121.728L55.4345 124.166L55.347 125.939L60.0687 128.672L60.264 124.468L60.4122 121.298L60.8433 112.272L55.8589 115.139Z" fill="url(#paint3_linear_516)"/>
    <path d="M91.7734 106.328V106.321L91.6253 103.635L91.1336 94.8368V94.8301L60.8433 112.272L60.4122 121.298L60.264 124.468L60.0687 128.672L91.9957 110.29L91.7734 106.328Z" fill="url(#paint4_linear_516)"/>
    <path d="M112.324 77.0729L112.317 74.7626L112.31 72.3448L112.196 30.8734C112.196 29.5907 111.617 28.778 110.748 28.6034C110.748 28.6034 110.748 28.6034 110.741 28.6034C110.566 28.5698 110.384 28.5631 110.195 28.5766C109.805 28.6101 109.374 28.7512 108.922 29.0131L42.7445 67.0996C40.9461 68.1339 39.4845 70.6658 39.4912 72.7209L39.6125 114.192L39.6192 116.61L39.6259 118.92L39.6327 120.727C39.6327 121.748 40.0031 122.466 40.5891 122.809C40.5891 122.809 40.5891 122.809 40.5959 122.809C41.1886 123.151 42.0103 123.111 42.9129 122.587L55.8656 115.133L60.85 112.265L91.1403 94.83H91.147L109.084 84.5008C110.883 83.4665 112.344 80.9346 112.337 78.8795L112.324 77.0729Z" fill="url(#paint5_linear_516)"/>
    <path d="M91.1336 94.8301L60.8433 112.272L91.1336 94.8301Z" fill="#134169"/>
    <path d="M109.569 33.9494C109.562 32.7137 108.687 32.21 107.602 32.8346L44.0714 69.4032C42.9937 70.0278 42.1114 71.5389 42.1181 72.7814L42.2259 114.179C42.2326 115.979 44.1792 117.094 45.7419 116.194L108.512 80.0616C109.239 79.6452 109.684 78.8661 109.684 78.0333L109.569 33.9494Z" fill="url(#paint6_linear_516)"/>
    <path class="tvline1" d="M77.3793 86.6634C78.8207 85.8306 79.9927 86.5022 79.9995 88.1544C80.0062 89.8065 78.841 91.8213 77.3995 92.6541C75.9581 93.4869 74.7861 92.8153 74.7793 91.1631C74.7726 89.5043 75.9311 87.4895 77.3793 86.6634Z" stroke="url(#paint7_linear_516)" stroke-width="1.06" stroke-miterlimit="10"/>
    <path class="tvline2" d="M77.3793 77.4893C80.1948 75.8708 83.0036 75.4678 85.031 76.7237C84.1015 78.3355 83.1653 79.9407 82.2088 81.5861C80.8684 80.9078 79.2518 81.0354 77.3658 82.1234C75.4664 83.2248 73.87 84.9374 72.5162 87.2074C72.3882 87.1537 72.2871 87.1066 72.1861 87.0529C71.3374 86.5895 70.4887 86.1261 69.6333 85.6694C71.6944 82.0025 74.5436 79.1213 77.3793 77.4893Z" stroke="url(#paint8_linear_516)" stroke-width="1.06" stroke-miterlimit="10"/>
    <path class="tvline3" d="M77.3187 67.6302C82.2896 64.7692 87.3212 64.0103 91.1403 66.2333C90.1906 67.872 89.2678 69.4637 88.3181 71.1091C85.2533 69.5107 81.6093 69.8062 77.3524 72.2575C73.0887 74.7089 69.4447 78.6042 66.4204 83.7016C65.4639 83.1509 64.5277 82.6204 63.5847 82.0898C67.2018 75.6827 72.2333 70.5584 77.3187 67.6302Z" stroke="url(#paint9_linear_516)" stroke-width="1.06" stroke-miterlimit="10"/>
    <path class="tvline4" d="M77.4467 57.4286C85.0311 53.0632 91.659 52.5125 97.3708 55.3802C96.3807 57.0995 95.4511 58.7114 94.5216 60.3232C89.8807 57.6234 83.6368 58.4897 77.3591 62.1029C71.1556 65.6759 64.9184 71.9352 60.163 80.1086C59.2335 79.5646 58.3039 79.0139 57.3205 78.443C62.0894 70.3569 67.8282 63.829 74.5504 59.2554C75.527 58.5837 76.497 57.9793 77.4467 57.4286Z" stroke="url(#paint10_linear_516)" stroke-width="1.06" stroke-miterlimit="10"/>
   
   <g class="wifi">


    <path d="M163.535 68.228C162.04 67.3683 160.679 67.2877 159.703 67.8519L149.835 73.5672C150.812 72.9963 152.172 73.0836 153.667 73.9433C156.645 75.6559 159.049 79.8064 159.036 83.2181C159.029 84.9105 158.43 86.0993 157.466 86.6634L167.334 80.9481C168.304 80.3907 168.904 79.1952 168.904 77.5028C168.91 74.091 166.506 69.9405 163.535 68.228Z" fill="url(#paint11_linear_516)"/>
    <path class="lineb1" d="M153.667 73.9433C156.645 75.6559 159.049 79.8064 159.036 83.2181C159.029 86.6232 156.604 87.9999 153.634 86.2873C150.657 84.5748 148.252 80.4243 148.265 77.0125C148.272 73.6008 150.69 72.2307 153.667 73.9433Z" fill="#CEF4FB"/>
    <path d="M163.643 49.3761C157.904 46.0718 152.138 45.2055 147.875 47.677L138.014 53.3923C142.277 50.9208 148.043 51.7872 153.782 55.0915C159.588 58.436 165.361 64.2723 169.53 71.6733L179.398 65.958C175.228 58.5502 169.449 52.714 163.643 49.3761Z" fill="url(#paint12_linear_516)"/>
    <path class="lineb2" d="M153.782 55.0914C159.588 58.436 165.361 64.2722 169.53 71.6733C167.59 72.768 165.657 73.856 163.663 74.9708C160.915 70.4039 157.601 66.8512 153.708 64.608C149.781 62.3716 146.474 62.0962 143.658 63.5469C143.402 63.1305 143.187 62.7947 142.985 62.4522C141.24 59.4837 139.496 56.5219 137.758 53.5535C142.042 50.8872 147.929 51.72 153.782 55.0914Z" fill="url(#paint13_linear_516)"/>
    <path class="lineb3" d="M153.775 34.6613C164.034 40.5647 174.373 50.9275 182.207 64.561C180.24 65.6826 178.32 66.7705 176.346 67.8921C170.069 57.3413 162.565 49.3089 153.782 44.245C144.992 39.1812 137.455 38.5431 131.17 41.8474C129.21 38.4558 127.284 35.1314 125.364 31.807C132.881 27.2535 143.281 28.6236 153.775 34.6613Z" fill="url(#paint14_linear_516)"/>
    <path d="M163.636 28.946C153.284 22.9889 143.025 21.5718 135.535 25.9104L125.667 31.6257C133.157 27.2872 143.423 28.7042 153.769 34.6614C164.027 40.5647 174.366 50.9275 182.2 64.561L192.068 58.8457C184.241 45.2122 173.895 34.8494 163.636 28.946Z" fill="url(#paint15_linear_516)"/>
    <path d="M164.007 8.28082C162.047 7.15253 160.053 6.11154 158.032 5.15787C144.163 -1.36338 132.288 -1.55814 122.387 3.75422L112.519 9.46955C122.421 4.15719 134.296 4.34523 148.164 10.8732C150.185 11.8269 152.179 12.8679 154.139 13.9961C169.793 23.009 183.419 37.5828 195.125 57.0189L204.993 51.3036C193.287 31.8675 179.667 17.2937 164.007 8.28082Z" fill="url(#paint16_linear_516)"/>
    <path class="lineb4" d="M154.146 13.9962C169.799 23.0091 183.426 37.5828 195.132 57.0189C193.071 58.2077 191.151 59.3225 189.218 60.4307C179.714 43.8824 166.863 30.8534 153.917 23.3986C141.119 16.0311 128.22 14.1103 118.346 19.6376C116.439 16.3132 114.54 12.9955 112.519 9.47629C122.421 4.16392 134.296 4.35197 148.164 10.8799C150.192 11.8269 152.186 12.8679 154.146 13.9962Z" fill="url(#paint17_linear_516)"/>
    
   </g>
   
   
    
    <g opacity="0.63">
      <g opacity="0.63">
        <g opacity="0.63">
          <path opacity="0.63" d="M94.9998 203.576L68.1043 219.157C66.7033 219.969 64.9722 219.969 63.5712 219.164L21.15 194.744C18.1391 193.011 18.1324 188.686 21.1365 186.94L48.032 171.359C49.433 170.546 51.1641 170.546 52.5651 171.352L94.9864 195.772C97.9972 197.511 98.0039 201.836 94.9998 203.576Z" fill="white"/>
        </g>
      </g>
      <g opacity="0.63">
        <g opacity="0.63">
          <path opacity="0.63" d="M94.69 203.468L68.0437 218.908C66.6561 219.714 64.9453 219.714 63.551 218.915L21.5272 194.724C18.5433 193.005 18.5433 188.72 21.5137 186.994L48.16 171.554C49.5475 170.748 51.2584 170.748 52.6527 171.547L94.6765 195.738C97.6604 197.457 97.6672 201.749 94.69 203.468Z" fill="#FEFEFE"/>
        </g>
      </g>
      <g opacity="0.63">
        <g opacity="0.63">
          <path opacity="0.63" d="M94.3801 203.368L67.9831 218.66C66.609 219.459 64.9116 219.459 63.5375 218.667L21.9111 194.697C18.9609 192.998 18.9542 188.747 21.8977 187.041L48.2947 171.749C49.6688 170.949 51.3662 170.949 52.7403 171.742L94.3734 195.705C97.3236 197.41 97.3304 201.655 94.3801 203.368Z" fill="#FCFCFC"/>
        </g>
      </g>
      <g opacity="0.63">
        <g opacity="0.63">
          <path opacity="0.63" d="M94.0771 203.26L67.9292 218.411C66.5686 219.197 64.8847 219.204 63.5241 218.418L22.2883 194.677C19.365 192.991 19.3583 188.787 22.2749 187.095L48.416 171.943C49.7766 171.158 51.4605 171.151 52.8211 171.937L94.0569 195.678C96.9869 197.363 96.9936 201.568 94.0771 203.26Z" fill="#FBFBFB"/>
        </g>
      </g>
      <g opacity="0.63">
        <g opacity="0.63">
          <path opacity="0.63" d="M93.7672 203.153L67.8753 218.156C66.5281 218.935 64.8644 218.942 63.5106 218.163L22.6655 194.65C19.7691 192.985 19.7624 188.814 22.652 187.142L48.5439 172.138C49.891 171.359 51.5548 171.352 52.9086 172.131L93.7537 195.644C96.65 197.31 96.6568 201.48 93.7672 203.153Z" fill="#F9F9F9"/>
        </g>
      </g>
      <g opacity="0.63">
        <g opacity="0.63">
          <path opacity="0.63" d="M93.4574 203.045L67.8147 217.908C66.481 218.68 64.8308 218.687 63.4971 217.914L23.0427 194.63C20.1733 192.978 20.1666 188.854 23.0293 187.195L48.6719 172.333C50.0056 171.56 51.6558 171.554 52.9895 172.326L93.4372 195.61C96.3133 197.263 96.32 201.386 93.4574 203.045Z" fill="#F8F8F8"/>
        </g>
      </g>
      <g opacity="0.63">
        <g opacity="0.63">
          <path opacity="0.63" d="M93.1475 202.944L67.7541 217.659C66.4339 218.425 64.7971 218.425 63.4769 217.666L23.4266 194.61C20.5842 192.971 20.5775 188.888 23.4132 187.242L48.8066 172.528C50.1268 171.762 51.7636 171.762 53.0838 172.521L93.134 195.577C95.9765 197.209 95.9832 201.299 93.1475 202.944Z" fill="#F7F7F7"/>
        </g>
      </g>
      <g opacity="0.63">
        <g opacity="0.63">
          <path opacity="0.63" d="M92.8377 202.837L67.6934 217.404C66.3867 218.163 64.7702 218.163 63.4567 217.411L23.7971 194.583C20.9816 192.964 20.9816 188.915 23.7836 187.289L48.9279 172.722C50.2346 171.963 51.8512 171.963 53.1646 172.716L92.8242 195.543C95.6465 197.162 95.6465 201.212 92.8377 202.837Z" fill="#F5F5F5"/>
        </g>
      </g>
      <g opacity="0.63">
        <g opacity="0.63">
          <path opacity="0.63" d="M92.5346 202.729L67.6395 217.155C66.3463 217.908 64.7432 217.908 63.4432 217.162L24.181 194.556C21.3992 192.951 21.3925 188.948 24.1676 187.336L49.0626 172.91C50.3558 172.158 51.9589 172.158 53.2589 172.904L92.5211 195.503C95.3097 197.115 95.3097 201.118 92.5346 202.729Z" fill="#F4F4F4"/>
        </g>
      </g>
      <g opacity="0.63">
        <g opacity="0.63">
          <path opacity="0.63" d="M92.2247 202.622L67.5789 216.9C66.2992 217.646 64.7095 217.646 63.4298 216.907L24.5582 194.529C21.8033 192.944 21.7966 188.975 24.5515 187.383L49.1973 173.105C50.4771 172.36 52.0667 172.36 53.3465 173.098L92.218 195.476C94.9729 197.061 94.9729 201.03 92.2247 202.622Z" fill="#F3F3F3"/>
        </g>
      </g>
      <g opacity="0.63">
        <g opacity="0.63">
          <path opacity="0.63" d="M91.9149 202.521L67.5251 216.659C66.252 217.397 64.6893 217.397 63.4163 216.665L24.9422 194.516C22.2142 192.944 22.2075 189.022 24.9354 187.444L49.3253 173.307C50.5983 172.568 52.161 172.568 53.434 173.3L91.9082 195.449C94.6361 197.014 94.6428 200.936 91.9149 202.521Z" fill="#F1F1F1"/>
        </g>
      </g>
      <g opacity="0.63">
        <g opacity="0.63">
          <path opacity="0.63" d="M91.6051 202.414L67.4644 216.403C66.2049 217.129 64.6557 217.135 63.3961 216.41L25.3194 194.489C22.6184 192.931 22.6116 189.049 25.3126 187.484L49.4533 173.495C50.7128 172.769 52.262 172.763 53.5216 173.488L91.5983 195.409C94.2993 196.967 94.3061 200.849 91.6051 202.414Z" fill="#F0F0F0"/>
        </g>
      </g>
      <g opacity="0.63">
        <g opacity="0.63">
          <path opacity="0.63" d="M91.2952 202.306L67.4038 216.148C66.1577 216.867 64.622 216.873 63.3759 216.155L25.6898 194.462C23.0157 192.924 23.009 189.076 25.6831 187.531L49.5745 173.689C50.8206 172.971 52.3563 172.964 53.6024 173.683L91.2885 195.375C93.9625 196.913 93.9693 200.762 91.2952 202.306Z" fill="#EEEEEE"/>
        </g>
      </g>
      <g opacity="0.63">
        <g opacity="0.63">
          <path opacity="0.63" d="M90.9921 202.199L67.3499 215.9C66.1173 216.611 64.6018 216.618 63.3691 215.906L26.0805 194.442C23.4334 192.917 23.4334 189.116 26.0738 187.585L49.7159 173.884C50.9486 173.172 52.4641 173.166 53.6967 173.877L90.9854 195.342C93.6257 196.866 93.6325 200.668 90.9921 202.199Z" fill="#EDEDED"/>
        </g>
      </g>
      <g opacity="0.63">
        <g opacity="0.63">
          <path opacity="0.63" d="M90.6823 202.092L67.2893 215.651C66.0701 216.356 64.5681 216.356 63.3489 215.658L26.451 194.422C23.8375 192.917 23.8308 189.15 26.4442 187.639L49.8372 174.086C51.0563 173.381 52.5584 173.381 53.7775 174.079L90.6755 195.315C93.289 196.819 93.2957 200.58 90.6823 202.092Z" fill="#ECECEC"/>
        </g>
      </g>
      <g opacity="0.63">
        <g opacity="0.63">
          <path opacity="0.63" d="M90.3724 201.991L67.2287 215.403C66.023 216.101 64.5344 216.101 63.3287 215.409L26.8282 194.395C24.2417 192.904 24.2349 189.183 26.8214 187.686L49.9652 174.274C51.1709 173.575 52.6594 173.575 53.8651 174.267L90.3657 195.281C92.9522 196.766 92.9589 200.493 90.3724 201.991Z" fill="#EAEAEA"/>
        </g>
      </g>
      <g opacity="0.63">
        <g opacity="0.63">
          <path opacity="0.63" d="M90.0626 201.883L67.1748 215.147C65.9826 215.839 64.5142 215.839 63.3152 215.154L27.2121 194.368C24.6525 192.891 24.6458 189.21 27.2053 187.726L50.0931 174.462C51.2853 173.77 52.7537 173.77 53.9527 174.455L90.0558 195.241C92.6154 196.719 92.6221 200.399 90.0626 201.883Z" fill="#E9E9E9"/>
        </g>
      </g>
      <g opacity="0.63">
        <g opacity="0.63">
          <path opacity="0.63" d="M89.7595 201.776L67.1209 214.892C65.9422 215.577 64.4873 215.577 63.3085 214.899L27.596 194.341C25.0634 192.884 25.0567 189.237 27.5893 187.773L50.2279 174.657C51.4066 173.972 52.8615 173.972 54.0403 174.65L89.7528 195.208C92.2786 196.665 92.2854 200.312 89.7595 201.776Z" fill="#E7E7E7"/>
        </g>
      </g>
      <g opacity="0.63">
        <g opacity="0.63">
          <path opacity="0.63" d="M89.4497 201.668L67.0603 214.644C65.895 215.322 64.4536 215.322 63.2883 214.65L27.9732 194.321C25.4676 192.877 25.4608 189.277 27.9665 187.827L50.3558 174.851C51.5211 174.173 52.9625 174.173 54.1278 174.845L89.4429 195.174C91.9418 196.618 91.9486 200.224 89.4497 201.668Z" fill="#E6E6E6"/>
        </g>
      </g>
      <g opacity="0.63">
        <g opacity="0.63">
          <path opacity="0.63" d="M89.1398 201.568L66.9997 214.395C65.8479 215.06 64.4267 215.067 63.2681 214.402L28.3504 194.294C25.8717 192.87 25.8717 189.304 28.3437 187.874L50.4838 175.046C51.6356 174.381 53.0569 174.374 54.2154 175.039L89.1331 195.14C91.6051 196.571 91.6118 200.13 89.1398 201.568Z" fill="#E5E5E5"/>
        </g>
      </g>
      <g opacity="0.63">
        <g opacity="0.63">
          <path opacity="0.63" d="M88.83 201.46L66.939 214.147C65.8007 214.805 64.393 214.812 63.2479 214.153L28.7209 194.281C26.2691 192.87 26.2691 189.351 28.7141 187.934L50.6051 175.248C51.7434 174.589 53.1511 174.583 54.2962 175.241L88.8232 195.114C91.2683 196.517 91.275 200.043 88.83 201.46Z" fill="#E3E3E3"/>
        </g>
      </g>
      <g opacity="0.63">
        <g opacity="0.63">
          <path opacity="0.63" d="M88.5201 201.353L66.8852 213.891C65.7603 214.543 64.366 214.55 63.2412 213.898L29.1116 194.247C26.6934 192.857 26.6867 189.371 29.1048 187.968L50.7465 175.429C51.8714 174.777 53.2656 174.771 54.3905 175.422L88.5201 195.073C90.9315 196.47 90.9382 199.956 88.5201 201.353Z" fill="#E2E2E2"/>
        </g>
      </g>
      <g opacity="0.63">
        <g opacity="0.63">
          <path opacity="0.63" d="M88.217 201.245L66.8245 213.636C65.7131 214.281 64.3391 214.281 63.2209 213.643L29.482 194.227C27.0908 192.85 27.0841 189.405 29.4753 188.021L50.8677 175.63C51.9791 174.986 53.3532 174.986 54.4713 175.624L88.2103 195.046C90.5947 196.423 90.6014 199.862 88.217 201.245Z" fill="#E1E1E1"/>
        </g>
      </g>
      <g opacity="0.63">
        <g opacity="0.63">
          <path opacity="0.63" d="M87.9072 201.144L66.7707 213.394C65.6727 214.032 64.3121 214.032 63.2075 213.401L29.866 194.207C27.5017 192.843 27.495 189.445 29.8592 188.075L50.9957 175.825C52.0936 175.187 53.4543 175.187 54.5589 175.818L87.9004 195.013C90.2647 196.369 90.2647 199.774 87.9072 201.144Z" fill="#DFDFDF"/>
        </g>
      </g>
      <g opacity="0.63">
        <g opacity="0.63">
          <path opacity="0.63" d="M87.5973 201.037L66.71 213.139C65.6256 213.771 64.2785 213.771 63.1873 213.146L30.2431 194.18C27.9059 192.837 27.8991 189.472 30.2364 188.122L51.1237 176.02C52.2082 175.389 53.5553 175.389 54.6465 176.013L87.5906 194.979C89.9279 196.322 89.9279 199.68 87.5973 201.037Z" fill="#DEDEDE"/>
        </g>
      </g>
      <g opacity="0.63">
        <g opacity="0.63">
          <path opacity="0.63" d="M87.2875 200.93L66.6494 212.891C65.5717 213.515 64.2515 213.515 63.1738 212.897L30.6203 194.16C28.31 192.83 28.31 189.512 30.6136 188.176L51.2517 176.215C52.3294 175.59 53.6496 175.59 54.7273 176.208L87.2808 194.946C89.5911 196.275 89.5911 199.593 87.2875 200.93Z" fill="#DCDCDC"/>
        </g>
      </g>
      <g opacity="0.63">
        <g opacity="0.63">
          <path opacity="0.63" d="M86.9776 200.822L66.5888 212.636C65.5245 213.253 64.2178 213.253 63.1536 212.642L30.9975 194.133C28.7141 192.823 28.7141 189.539 30.9908 188.223L51.3797 176.409C52.4439 175.792 53.7506 175.792 54.8148 176.403L86.9709 194.912C89.2543 196.222 89.2543 199.506 86.9776 200.822Z" fill="#DBDBDB"/>
        </g>
      </g>
      <g opacity="0.63">
        <g opacity="0.63">
          <path opacity="0.63" d="M86.6746 200.715L66.5349 212.38C65.4842 212.985 64.1909 212.992 63.1401 212.387L31.3747 194.1C29.125 192.803 29.1183 189.559 31.368 188.257L51.5077 176.591C52.5584 175.986 53.8517 175.98 54.9024 176.584L86.6678 194.872C88.9175 196.175 88.9243 199.412 86.6746 200.715Z" fill="#DADADA"/>
        </g>
      </g>
      <g opacity="0.63">
        <g opacity="0.63">
          <path opacity="0.63" d="M86.3647 200.614L66.4743 212.139C65.437 212.736 64.1572 212.743 63.1199 212.145L31.7519 194.086C29.5292 192.803 29.5224 189.606 31.7452 188.317L51.6356 176.792C52.6729 176.195 53.9527 176.188 54.9832 176.786L86.3512 194.845C88.5807 196.128 88.5875 199.324 86.3647 200.614Z" fill="#D8D8D8"/>
        </g>
      </g>
      <g opacity="0.63">
        <g opacity="0.63">
          <path opacity="0.63" d="M86.0549 200.507L66.4204 211.883C65.3966 212.474 64.137 212.474 63.1132 211.89L32.1426 194.059C29.9468 192.797 29.94 189.633 32.1359 188.364L51.7703 176.987C52.7942 176.396 54.0537 176.396 55.0776 176.98L86.0481 194.811C88.244 196.074 88.2507 199.237 86.0549 200.507Z" fill="#D7D7D7"/>
        </g>
      </g>
      <g opacity="0.63">
        <g opacity="0.63">
          <path opacity="0.63" d="M85.745 200.399L66.3597 211.635C65.3494 212.219 64.1033 212.219 63.093 211.642L32.513 194.039C30.3441 192.79 30.3374 189.673 32.5063 188.418L51.8915 177.182C52.9019 176.597 54.148 176.597 55.1583 177.175L85.7383 194.778C87.9072 196.027 87.9139 199.143 85.745 200.399Z" fill="#D5D5D5"/>
        </g>
      </g>
      <g opacity="0.63">
        <g opacity="0.63">
          <path opacity="0.63" d="M85.4352 200.292L66.2991 211.38C65.3023 211.957 64.0696 211.957 63.0728 211.386L32.8903 194.012C30.7483 192.783 30.7483 189.7 32.8835 188.465L52.0195 177.377C53.0164 176.799 54.249 176.799 55.2459 177.37L85.4284 194.744C87.5704 195.973 87.5771 199.056 85.4352 200.292Z" fill="#D4D4D4"/>
        </g>
      </g>
      <g opacity="0.63">
        <g opacity="0.63">
          <path opacity="0.63" d="M85.1321 200.191L66.2453 211.131C65.2619 211.702 64.0494 211.702 63.066 211.138L33.2742 193.985C31.1592 192.77 31.1592 189.727 33.2675 188.505L52.1543 177.565C53.1377 176.994 54.3501 176.994 55.3335 177.558L85.1254 194.704C87.2336 195.926 87.2403 198.969 85.1321 200.191Z" fill="#D3D3D3"/>
        </g>
      </g>
      <g opacity="0.63">
        <g opacity="0.63">
          <path opacity="0.63" d="M84.8223 200.083L66.1847 210.883C65.2147 211.447 64.0158 211.447 63.0459 210.889L33.6514 193.965C31.5634 192.763 31.5634 189.768 33.6447 188.559L52.2823 177.759C53.2522 177.195 54.4511 177.195 55.4211 177.753L84.8155 194.677C86.8969 195.879 86.9036 198.875 84.8223 200.083Z" fill="#D1D1D1"/>
        </g>
      </g>
      <g opacity="0.63">
        <g opacity="0.63">
          <path opacity="0.63" d="M84.5124 199.976L66.124 210.627C65.1676 211.185 63.9821 211.185 63.0256 210.634L34.0286 193.938C31.9742 192.756 31.9675 189.794 34.0218 188.606L52.4102 177.954C53.3667 177.397 54.5522 177.397 55.5086 177.947L84.5057 194.643C86.56 195.825 86.5668 198.787 84.5124 199.976Z" fill="#D0D0D0"/>
        </g>
      </g>
      <g opacity="0.63">
        <g opacity="0.63">
          <path opacity="0.63" d="M84.2026 199.868L66.0634 210.379C65.1204 210.923 63.9551 210.93 63.0054 210.386L34.399 193.918C32.3716 192.75 32.3649 189.835 34.3923 188.659L52.5382 178.149C53.4812 177.605 54.6465 177.598 55.5962 178.142L84.1958 194.61C86.2233 195.778 86.23 198.7 84.2026 199.868Z" fill="#CFCFCF"/>
        </g>
      </g>
      <g opacity="0.63">
        <g opacity="0.63">
          <path opacity="0.63" d="M83.8927 199.768L66.0095 210.13C65.08 210.668 63.9282 210.674 62.9987 210.137L34.783 193.891C32.7825 192.736 32.7757 189.862 34.7762 188.706L52.6594 178.344C53.5889 177.806 54.7407 177.8 55.6703 178.337L83.8792 194.576C85.8864 195.731 85.8932 198.606 83.8927 199.768Z" fill="#CDCDCD"/>
        </g>
      </g>
      <g opacity="0.63">
        <g opacity="0.63">
          <path opacity="0.63" d="M83.5896 199.66L65.9489 209.875C65.0329 210.406 63.8945 210.406 62.9785 209.882L35.1602 193.871C33.1866 192.736 33.1799 189.895 35.1534 188.753L52.7874 178.532C53.7035 178.001 54.8418 178.001 55.7578 178.525L83.5761 194.536C85.5497 195.678 85.5564 198.519 83.5896 199.66Z" fill="#CCCCCC"/>
        </g>
      </g>
      <g opacity="0.63">
        <g opacity="0.63">
          <path opacity="0.63" d="M83.2797 199.553L65.895 209.627C64.9924 210.151 63.8743 210.151 62.965 209.634L35.5441 193.851C33.5975 192.729 33.5975 189.936 35.5373 188.807L52.9221 178.733C53.8247 178.209 54.9428 178.209 55.8521 178.726L83.273 194.509C85.2196 195.631 85.2196 198.425 83.2797 199.553Z" fill="#CACACA"/>
        </g>
      </g>
      <g opacity="0.63">
        <path opacity="0.63" d="M82.9699 199.445L65.8344 209.372C64.9453 209.889 63.8406 209.889 62.9448 209.378L35.9213 193.824C34.0016 192.723 34.0016 189.962 35.9146 188.854L53.0501 178.928C53.9392 178.411 55.0439 178.411 55.9397 178.921L82.9632 194.482C84.8829 195.584 84.8829 198.337 82.9699 199.445Z" fill="#C9C9C9"/>
      </g>
    </g>
    <path d="M1.7378 165.939L58.6205 198.666C60.9443 200.003 64.75 199.989 67.0805 198.639L94.562 182.709C95.734 182.031 96.32 181.137 96.3133 180.244C96.32 181.789 96.3335 181.017 96.3402 182.561C96.347 183.454 95.761 184.348 94.589 185.026L67.1074 200.956C64.7769 202.306 60.9713 202.32 58.6474 200.983L1.76474 168.256C0.612946 167.591 0.0336783 166.718 0.0269427 165.838C0.020207 164.294 0.00673567 165.066 0 163.521C0.00673567 164.401 0.586003 165.274 1.7378 165.939Z" fill="url(#paint18_linear_516)"/>
    <path d="M29.2328 145.126C31.5633 143.776 35.3622 143.763 37.686 145.099L94.5687 177.827C96.8925 179.163 96.8858 181.359 94.5553 182.709L67.0737 198.639C64.7432 199.989 60.9376 200.003 58.6138 198.666L1.73779 165.939C-0.586011 164.603 -0.579276 162.407 1.758 161.057L29.2328 145.126Z" fill="url(#paint19_linear_516)"/>
    <path d="M90.5812 178.377L36.2446 147.121C35.3151 146.59 33.7928 146.59 32.8633 147.134L26.0401 151.09L27.6364 152.044C28.2427 152.406 28.2427 153.293 27.6297 153.649L18.8329 158.766C17.4386 159.579 15.7076 159.566 14.3268 158.74L13.5993 158.303L5.18647 163.179C4.25694 163.716 4.25694 164.596 5.17973 165.133L59.5163 196.39C60.4459 196.92 61.9681 196.92 62.8977 196.383L90.5745 180.338C91.5108 179.794 91.5108 178.908 90.5812 178.377Z" fill="url(#paint20_linear_516)"/>
    <path d="M36.898 154.247C37.2078 154.072 37.5176 153.897 37.841 153.729C37.9353 153.682 38.0296 153.635 38.1239 153.588C38.3529 153.468 38.5886 153.353 38.8244 153.239C38.9523 153.179 39.0871 153.118 39.2218 153.058C39.4306 152.964 39.6394 152.863 39.8482 152.769C39.9964 152.709 40.1446 152.648 40.2927 152.588C40.4948 152.5 40.6969 152.42 40.9057 152.339H40.9124C40.9259 152.333 40.9326 152.333 40.9461 152.326C41.2559 152.205 41.5793 152.084 41.9026 151.97C41.9969 151.936 42.0979 151.903 42.1922 151.869C42.4549 151.782 42.7108 151.695 42.9803 151.607C43.0678 151.58 43.1554 151.553 43.243 151.52C43.5663 151.419 43.8896 151.318 44.2196 151.224C44.2331 151.218 44.2533 151.218 44.2735 151.211C44.7046 151.09 45.1424 150.976 45.587 150.862C45.688 150.835 45.7958 150.815 45.9036 150.788C46.2471 150.707 46.5906 150.627 46.9408 150.553C46.988 150.546 47.0351 150.533 47.0823 150.519C47.2237 150.492 47.3719 150.465 47.5201 150.439C47.7559 150.392 47.9849 150.345 48.2274 150.304C48.4294 150.271 48.6315 150.237 48.8336 150.204C49.0693 150.163 49.3051 150.13 49.5475 150.089C49.6216 150.076 49.689 150.069 49.7564 150.056C49.9045 150.036 50.0595 150.016 50.2076 149.995C50.4164 149.969 50.6253 149.942 50.8408 149.915C51.0698 149.888 51.2988 149.868 51.5278 149.841C51.7434 149.821 51.9522 149.801 52.1677 149.78C52.2351 149.774 52.3024 149.767 52.3698 149.76C52.5382 149.747 52.7066 149.74 52.8817 149.727C53.0905 149.713 53.2993 149.693 53.5081 149.686C53.7506 149.673 53.9931 149.66 54.2356 149.653C54.4444 149.646 54.6532 149.633 54.8687 149.626C54.9226 149.626 54.9765 149.619 55.0304 149.619C55.3874 149.613 55.7511 149.606 56.1148 149.606L56.1485 160.64C55.7309 160.64 55.3133 160.647 54.9024 160.66C54.6936 160.667 54.4781 160.674 54.2692 160.687C54.0268 160.701 53.7843 160.707 53.5418 160.721C53.333 160.734 53.1242 160.748 52.9154 160.761C52.6796 160.781 52.4371 160.795 52.2014 160.815C51.9859 160.835 51.7703 160.855 51.5615 160.875C51.3325 160.895 51.1035 160.922 50.8745 160.949C50.6657 160.976 50.4501 161.003 50.2413 161.03C50.019 161.057 49.7968 161.09 49.5812 161.117C49.3387 161.151 49.103 161.191 48.8672 161.231C48.6652 161.265 48.4631 161.298 48.261 161.332C48.0253 161.372 47.7895 161.419 47.5538 161.466C47.3585 161.507 47.1699 161.54 46.9745 161.58C46.6243 161.654 46.2807 161.735 45.9372 161.816C45.8362 161.842 45.7284 161.863 45.6207 161.889C45.1761 161.997 44.7383 162.118 44.3072 162.239C43.9569 162.339 43.6202 162.44 43.2766 162.548C43.1891 162.574 43.1015 162.601 43.014 162.635C42.7513 162.722 42.4886 162.809 42.2259 162.897C42.1316 162.93 42.0305 162.964 41.9362 162.998C41.6129 163.112 41.2964 163.233 40.9798 163.353C40.9663 163.36 40.9596 163.36 40.9461 163.367C40.7306 163.454 40.5218 163.542 40.3129 163.629C40.1715 163.689 40.0233 163.743 39.8819 163.803C39.6663 163.897 39.4575 163.998 39.242 164.092C39.114 164.153 38.9793 164.206 38.8513 164.267C38.6088 164.381 38.3798 164.502 38.1508 164.616C38.0565 164.663 37.9622 164.71 37.8679 164.757C37.5446 164.925 37.2348 165.1 36.9249 165.274C34.7493 166.53 32.9374 167.988 31.5903 169.586C30.9167 170.385 30.3576 171.218 29.9266 172.084C29.8659 172.205 29.8053 172.333 29.7514 172.454C29.5291 172.951 29.3473 173.454 29.2058 173.971C29.1048 174.354 29.024 174.744 28.9768 175.133C28.9229 175.523 28.9027 175.919 28.9027 176.315L28.8691 165.281C28.8556 161.043 31.927 157.114 36.898 154.247Z" fill="url(#paint21_linear_516)"/>
    
<g class="wifi1">

  <path d="M28.8758 165.288L28.9095 176.322C27.4343 176.322 25.9525 176.315 24.3764 176.309L24.3427 165.274C25.9256 165.281 27.4007 165.288 28.8758 165.288Z" fill="url(#paint22_linear_516)"/>
    <path class="line4" d="M33.6514 152.46C27.6364 155.926 24.6323 160.237 24.3427 165.281C25.9188 165.288 27.3939 165.288 28.8758 165.294C28.8556 161.05 31.9203 157.121 36.898 154.253C41.815 151.419 48.5978 149.633 56.1081 149.619C56.1013 148.766 56.0946 147.913 56.0879 147.013C48.6315 147.074 41.8689 148.417 36.056 151.198C35.2073 151.6 34.4058 152.024 33.6514 152.46Z" fill="url(#paint23_linear_516)"/>
    <path d="M44.8797 158.269C45.0885 158.149 45.3041 158.034 45.5129 157.92C45.5802 157.887 45.6543 157.853 45.7217 157.819C45.8699 157.746 46.018 157.672 46.1662 157.598C46.2538 157.558 46.3414 157.517 46.4357 157.477C46.5704 157.417 46.7051 157.356 46.8398 157.296C46.9341 157.255 47.0351 157.215 47.1362 157.175C47.2574 157.128 47.3719 157.074 47.4932 157.027C47.4999 157.027 47.5066 157.02 47.5201 157.02C47.8097 156.906 48.1061 156.799 48.4025 156.698C48.4833 156.671 48.5641 156.644 48.645 156.617C48.8807 156.537 49.1165 156.47 49.3589 156.396C49.4128 156.382 49.46 156.362 49.5139 156.349C49.5475 156.342 49.5812 156.329 49.6149 156.322C49.7968 156.275 49.9719 156.228 50.1537 156.181C50.248 156.161 50.3356 156.134 50.4299 156.114C50.6859 156.053 50.9418 155.993 51.1978 155.939C51.218 155.932 51.2382 155.932 51.2584 155.926C51.2584 155.926 51.2584 155.926 51.2651 155.926C51.5346 155.872 51.804 155.818 52.0734 155.771C52.161 155.758 52.2485 155.744 52.3294 155.731C52.518 155.697 52.7066 155.67 52.9019 155.644C52.9154 155.644 52.9288 155.637 52.9423 155.637C53.0366 155.623 53.1376 155.61 53.2387 155.596C53.4071 155.576 53.5755 155.549 53.7439 155.529C53.8651 155.516 53.9863 155.502 54.1076 155.489C54.2692 155.476 54.4376 155.455 54.5993 155.442C54.6262 155.442 54.6532 155.435 54.6868 155.435C54.7744 155.429 54.862 155.422 54.9495 155.415C55.1314 155.402 55.32 155.388 55.5086 155.375C55.6366 155.368 55.7578 155.361 55.8858 155.355C56.0677 155.348 56.2495 155.341 56.4314 155.335C56.492 155.335 56.5459 155.328 56.6065 155.328C56.7682 155.321 56.9366 155.321 57.0982 155.321C57.1049 154.448 57.1049 153.595 57.1117 152.742L57.1454 163.777C57.1386 164.63 57.1386 165.482 57.1319 166.356C56.9096 166.356 56.6873 166.362 56.4651 166.369C56.2832 166.376 56.1013 166.382 55.9195 166.389C55.7915 166.396 55.6702 166.403 55.5423 166.409C55.3537 166.423 55.1718 166.436 54.9832 166.45C54.8687 166.456 54.7475 166.463 54.633 166.476C54.4646 166.49 54.3029 166.51 54.1413 166.523C54.02 166.537 53.8988 166.544 53.7775 166.564C53.6091 166.584 53.4407 166.604 53.2724 166.631C53.1578 166.644 53.0501 166.658 52.9356 166.671C52.7402 166.698 52.5516 166.732 52.363 166.759C52.2755 166.772 52.1946 166.785 52.1071 166.799C51.8309 166.846 51.5615 166.9 51.2988 166.953C51.2786 166.96 51.2584 166.96 51.2382 166.967C50.9755 167.02 50.7195 167.081 50.4636 167.141C50.3693 167.161 50.2817 167.188 50.1942 167.208C50.0123 167.255 49.8304 167.302 49.6553 167.35C49.5677 167.376 49.4869 167.397 49.3993 167.423C49.1569 167.491 48.9211 167.564 48.6854 167.645C48.6045 167.672 48.5237 167.699 48.4429 167.726C48.1465 167.826 47.8501 167.934 47.5605 168.048C47.4325 168.102 47.3046 168.155 47.1766 168.209C47.0755 168.249 46.9812 168.29 46.8802 168.33C46.7455 168.39 46.6108 168.451 46.4761 168.511C46.3885 168.552 46.3009 168.592 46.2134 168.632C46.0652 168.706 45.9237 168.78 45.7756 168.854C45.7015 168.887 45.6341 168.921 45.56 168.961C45.3445 169.076 45.1357 169.19 44.9269 169.311C41.5523 171.252 39.9021 173.629 39.7876 176.362L39.7404 165.321C39.8482 162.588 41.5052 160.21 44.8797 158.269Z" fill="url(#paint24_linear_516)"/>
    <path d="M39.7404 165.321L39.7741 176.356C38.2653 176.356 36.8037 176.356 35.3016 176.356L35.2679 165.321C36.77 165.321 38.2316 165.315 39.7404 165.321Z" fill="url(#paint25_linear_516)"/>
    <path class="line3" d="M41.7005 156.416C37.7601 158.686 35.2477 161.822 35.2612 165.321C36.7632 165.321 38.2316 165.321 39.7337 165.321C39.8482 162.588 41.4984 160.21 44.873 158.27C48.2475 156.322 52.3698 155.375 57.078 155.321C57.0847 154.448 57.0847 153.595 57.0915 152.742C51.2584 152.682 45.7351 154.092 41.7005 156.416Z" fill="url(#paint26_linear_516)"/>
    <path d="M52.8952 162.198C53.0838 162.091 53.2724 161.99 53.4677 161.903C53.5351 161.869 53.6024 161.842 53.6698 161.816C53.7978 161.762 53.919 161.701 54.0537 161.648C54.0604 161.648 54.0672 161.641 54.0739 161.641C54.1009 161.634 54.1211 161.621 54.148 161.614C54.3097 161.554 54.4781 161.493 54.6464 161.439C54.7003 161.419 54.7542 161.406 54.8081 161.392C54.8553 161.379 54.9024 161.359 54.9563 161.345C55.0169 161.325 55.0775 161.319 55.1382 161.298C55.2863 161.258 55.4345 161.225 55.5827 161.191C55.6299 161.178 55.677 161.164 55.7242 161.157C55.778 161.144 55.8387 161.137 55.8926 161.131C56.0273 161.104 56.1552 161.084 56.29 161.063C56.3506 161.057 56.4112 161.043 56.4718 161.03C56.5257 161.023 56.5729 161.016 56.6267 161.01C56.7682 160.989 56.9029 160.976 57.0443 160.963C57.1117 160.956 57.1858 160.942 57.2532 160.942C57.2936 160.936 57.3407 160.936 57.3811 160.936C57.5495 160.922 57.7246 160.916 57.8998 160.909C57.9739 160.909 58.048 160.902 58.1221 160.895C58.1827 160.895 58.25 160.895 58.3107 160.889C58.3174 160.781 58.3309 160.694 58.3309 160.6C58.3511 159.834 58.3713 159.069 58.3915 158.303L58.4252 169.337C58.4049 170.103 58.3847 170.869 58.3645 171.634C58.3645 171.722 58.3511 171.809 58.3443 171.923C58.2029 171.923 58.0682 171.93 57.9335 171.937C57.7583 171.943 57.5899 171.95 57.4148 171.963C57.3003 171.97 57.1858 171.984 57.0713 171.99C56.9298 172.004 56.7884 172.017 56.6537 172.037C56.5392 172.051 56.4247 172.071 56.3169 172.084C56.1822 172.104 56.0475 172.131 55.9195 172.151C55.8117 172.172 55.7107 172.192 55.6029 172.219C55.4547 172.252 55.2998 172.286 55.1584 172.326C55.0506 172.353 54.9361 172.387 54.8283 172.413C54.7744 172.427 54.7205 172.447 54.6667 172.46C54.4983 172.514 54.3299 172.575 54.1682 172.635C54.1413 172.642 54.1211 172.655 54.0941 172.662C53.9594 172.716 53.8247 172.776 53.69 172.837C53.6226 172.863 53.5553 172.89 53.4879 172.924C53.2926 173.018 53.104 173.119 52.9154 173.226C51.4201 174.086 50.6926 175.14 50.6253 176.322L50.5916 165.288C50.6724 164.106 51.3999 163.058 52.8952 162.198Z" fill="url(#paint27_linear_516)"/>
    <path d="M46.1393 165.301C47.6144 165.301 49.0895 165.294 50.6051 165.294L50.6387 176.329C49.1232 176.329 47.6481 176.336 46.173 176.336V176.329C46.173 176.295 46.173 176.262 46.173 176.228L46.1393 165.194C46.1393 165.227 46.1393 165.261 46.1393 165.301Z" fill="url(#paint28_linear_516)"/>
    <path class="line2" d="M49.6957 160.365C47.4662 161.648 46.0787 163.414 46.1393 165.301C47.6144 165.301 49.0895 165.294 50.6051 165.294C50.6724 164.112 51.3999 163.058 52.8952 162.198C54.4107 161.332 56.2226 160.916 58.3241 160.889C58.3309 160.781 58.3443 160.694 58.3443 160.6C58.3645 159.834 58.3848 159.069 58.405 158.303C55.0573 158.263 51.9455 159.069 49.6957 160.365Z" fill="url(#paint29_linear_516)"/>
    <path d="M55.1583 165.281C55.1583 165.315 55.1651 165.341 55.1718 165.375C55.1785 165.402 55.1853 165.422 55.192 165.449C55.1988 165.476 55.2055 165.509 55.219 165.536C55.2257 165.563 55.2392 165.583 55.2459 165.61C55.2594 165.644 55.2728 165.67 55.2863 165.704C55.2998 165.724 55.3133 165.744 55.3267 165.771C55.3469 165.805 55.3671 165.838 55.3941 165.872C55.4076 165.892 55.4278 165.912 55.4412 165.932C55.4817 165.979 55.5221 166.02 55.5625 166.067C55.576 166.08 55.5962 166.1 55.6096 166.114C55.6366 166.141 55.6703 166.161 55.6972 166.188C55.7241 166.208 55.7511 166.228 55.778 166.255C55.8117 166.282 55.8454 166.302 55.8858 166.322C55.9195 166.349 55.9599 166.369 55.9936 166.396C56.0811 166.449 56.1754 166.49 56.2697 166.537C56.2967 166.55 56.3236 166.564 56.3506 166.57C56.4246 166.604 56.4987 166.631 56.5796 166.658C56.6065 166.664 56.6335 166.678 56.6671 166.685C56.7143 166.698 56.7682 166.711 56.8153 166.725C56.8557 166.738 56.8894 166.745 56.9298 166.758C56.9837 166.772 57.0376 166.779 57.0915 166.792C57.1252 166.799 57.1656 166.805 57.1992 166.812C57.307 166.832 57.4215 166.846 57.5293 166.859C57.563 166.866 57.5967 166.866 57.6303 166.866C57.6977 166.873 57.7583 166.879 57.8257 166.879C57.8661 166.879 57.9132 166.879 57.9536 166.886C58.0075 166.886 58.0614 166.886 58.1153 166.886C58.1624 166.886 58.2029 166.886 58.25 166.879C58.2972 166.879 58.351 166.873 58.3982 166.873C58.4453 166.873 58.4858 166.866 58.5329 166.859C58.5801 166.852 58.6272 166.852 58.6811 166.846C58.7215 166.839 58.7687 166.832 58.8091 166.826C58.863 166.819 58.9101 166.805 58.964 166.799C59.0044 166.792 59.0448 166.785 59.0852 166.772C59.1459 166.758 59.2065 166.745 59.2671 166.725C59.3008 166.718 59.3345 166.705 59.3681 166.698C59.4759 166.664 59.5769 166.631 59.6847 166.591C59.6982 166.584 59.7117 166.577 59.7251 166.57C59.8666 166.517 59.9946 166.45 60.1225 166.382C60.6951 166.053 60.9847 165.617 60.9847 165.18L61.0184 176.215C61.0184 176.651 60.7287 177.081 60.1562 177.417C60.035 177.491 59.9003 177.551 59.7588 177.605C59.7521 177.612 59.7453 177.611 59.7319 177.618C59.7251 177.618 59.7184 177.625 59.7184 177.625C59.6174 177.665 59.5096 177.699 59.4018 177.732C59.3951 177.732 59.3883 177.739 59.3749 177.739C59.3479 177.746 59.3277 177.753 59.3008 177.759C59.2402 177.773 59.1795 177.793 59.1189 177.806C59.1054 177.813 59.0852 177.813 59.0718 177.82C59.0448 177.826 59.0246 177.826 58.9977 177.833C58.9438 177.84 58.8966 177.853 58.8428 177.86C58.8225 177.86 58.8023 177.867 58.7821 177.873C58.7619 177.873 58.735 177.88 58.7148 177.88C58.6676 177.887 58.6205 177.894 58.5666 177.894C58.5464 177.894 58.5194 177.9 58.4992 177.9C58.479 177.9 58.4588 177.9 58.4319 177.907C58.3847 177.914 58.3308 177.914 58.2837 177.914C58.2567 177.914 58.2365 177.92 58.2096 177.92C58.1894 177.92 58.1692 177.92 58.149 177.92C58.0951 177.92 58.0412 177.92 57.9873 177.92C57.9604 177.92 57.9334 177.92 57.9065 177.92C57.893 177.92 57.8728 177.92 57.8593 177.92C57.792 177.92 57.7314 177.914 57.664 177.907C57.6371 177.907 57.6101 177.907 57.5832 177.9C57.5764 177.9 57.5697 177.9 57.5562 177.9C57.4417 177.887 57.334 177.873 57.2262 177.853C57.2195 177.853 57.2127 177.853 57.2127 177.853C57.179 177.847 57.1521 177.84 57.1184 177.833C57.0645 177.82 57.0106 177.813 56.9568 177.8C56.9163 177.793 56.8827 177.779 56.8423 177.766C56.7951 177.753 56.7412 177.739 56.6941 177.726C56.6806 177.726 56.6739 177.719 56.6604 177.719C56.6402 177.712 56.6267 177.706 56.6065 177.699C56.5257 177.672 56.4516 177.645 56.3775 177.611C56.3506 177.598 56.3236 177.591 56.2967 177.578C56.2024 177.538 56.1081 177.491 56.0205 177.437C56.007 177.43 55.9936 177.423 55.9868 177.417C55.9599 177.403 55.9397 177.383 55.9127 177.37C55.8791 177.35 55.8386 177.323 55.8117 177.303C55.7848 177.282 55.7578 177.262 55.7309 177.235C55.6972 177.209 55.6703 177.188 55.6433 177.162C55.6366 177.155 55.6298 177.155 55.6231 177.148C55.6096 177.135 55.6029 177.128 55.5962 177.115C55.549 177.074 55.5086 177.027 55.4749 176.98C55.4682 176.973 55.4547 176.96 55.448 176.953C55.4412 176.947 55.4345 176.933 55.4278 176.926C55.4008 176.893 55.3806 176.859 55.3604 176.826C55.3537 176.812 55.3402 176.799 55.3335 176.785C55.3267 176.779 55.3267 176.772 55.32 176.765C55.3065 176.738 55.2931 176.705 55.2796 176.671C55.2728 176.651 55.2594 176.638 55.2526 176.618C55.2526 176.611 55.2526 176.604 55.2459 176.597C55.2324 176.571 55.2257 176.537 55.219 176.51C55.2122 176.49 55.2055 176.47 55.1988 176.45C55.1988 176.443 55.1988 176.436 55.1988 176.436C55.192 176.403 55.192 176.376 55.1853 176.342C55.1853 176.322 55.1785 176.302 55.1785 176.282C55.1785 176.275 55.1785 176.262 55.1785 176.255L55.1449 165.22C55.1516 165.227 55.1583 165.254 55.1583 165.281Z" fill="url(#paint30_linear_516)"/>
    <path class="line1" d="M56.0153 163.998C54.8702 164.656 54.8635 165.724 56.0018 166.382C57.1401 167.041 58.9857 167.041 60.1307 166.382C61.2758 165.724 61.2825 164.656 60.1442 163.998C59.0059 163.34 57.1603 163.34 56.0153 163.998Z" fill="url(#paint31_linear_516)"/>

</g>


    <g opacity="0.63">
      <g opacity="0.63">
        <g opacity="0.63">
          <path opacity="0.63" d="M189.144 185.953L156.57 204.832C154.873 205.812 152.778 205.819 151.081 204.838L99.7013 175.261C96.0573 173.166 96.0506 167.92 99.6878 165.812L132.261 146.933C133.959 145.952 136.054 145.946 137.751 146.926L189.131 176.503C192.775 178.599 192.781 183.844 189.144 185.953Z" fill="white"/>
        </g>
      </g>
      <g opacity="0.63">
        <g opacity="0.63">
          <path opacity="0.63" d="M188.774 185.825L156.503 204.523C154.826 205.496 152.751 205.496 151.067 204.529L100.166 175.227C96.5557 173.152 96.549 167.954 100.153 165.865L132.423 147.168C134.1 146.194 136.175 146.194 137.859 147.161L188.76 176.463C192.371 178.545 192.377 183.737 188.774 185.825Z" fill="#FEFEFE"/>
        </g>
      </g>
      <g opacity="0.63">
        <g opacity="0.63">
          <path opacity="0.63" d="M188.397 185.698L156.429 204.22C154.765 205.187 152.711 205.187 151.041 204.227L100.617 175.2C97.0407 173.139 97.034 167.994 100.604 165.926L132.571 147.403C134.235 146.436 136.289 146.436 137.96 147.396L188.383 176.423C191.96 178.485 191.973 183.629 188.397 185.698Z" fill="#FCFCFC"/>
        </g>
      </g>
      <g opacity="0.63">
        <g opacity="0.63">
          <path opacity="0.63" d="M188.026 185.57L156.362 203.918C154.711 204.872 152.677 204.879 151.027 203.925L101.082 175.174C97.5391 173.132 97.5324 168.041 101.069 165.986L132.733 147.638C134.383 146.684 136.417 146.678 138.068 147.631L188.013 176.383C191.556 178.424 191.562 183.522 188.026 185.57Z" fill="#FBFBFB"/>
        </g>
      </g>
      <g opacity="0.63">
        <g opacity="0.63">
          <path opacity="0.63" d="M187.649 185.442L156.288 203.616C154.658 204.563 152.637 204.563 151 203.623L101.533 175.147C98.0241 173.125 98.0174 168.082 101.52 166.047L132.881 147.873C134.511 146.926 136.532 146.926 138.169 147.866L187.635 176.342C191.145 178.364 191.158 183.407 187.649 185.442Z" fill="#F9F9F9"/>
        </g>
      </g>
      <g opacity="0.63">
        <g opacity="0.63">
          <path opacity="0.63" d="M187.278 185.308L156.22 203.307C154.604 204.247 152.603 204.247 150.987 203.314L101.998 175.113C98.5225 173.112 98.5158 168.115 101.985 166.107L133.043 148.108C134.659 147.168 136.66 147.168 138.276 148.101L187.265 176.302C190.741 178.303 190.747 183.3 187.278 185.308Z" fill="#F8F8F8"/>
        </g>
      </g>
      <g opacity="0.63">
        <g opacity="0.63">
          <path opacity="0.63" d="M186.908 185.181L156.153 203.005C154.55 203.932 152.576 203.938 150.973 203.012L102.449 175.086C99.0075 173.105 99.0008 168.155 102.436 166.168L133.191 148.343C134.794 147.416 136.768 147.41 138.371 148.337L186.881 176.262C190.33 178.243 190.343 183.193 186.908 185.181Z" fill="#F7F7F7"/>
        </g>
      </g>
      <g opacity="0.63">
        <g opacity="0.63">
          <path opacity="0.63" d="M186.531 185.053L156.079 202.703C154.496 203.623 152.536 203.623 150.946 202.709L102.914 175.059C99.5059 173.098 99.4992 168.196 102.901 166.228L133.353 148.578C134.936 147.658 136.896 147.658 138.485 148.572L186.517 176.221C189.926 178.182 189.932 183.085 186.531 185.053Z" fill="#F5F5F5"/>
        </g>
      </g>
      <g opacity="0.63">
        <g opacity="0.63">
          <path opacity="0.63" d="M186.16 184.925L156.011 202.394C154.442 203.3 152.502 203.307 150.933 202.4L103.379 175.026C100.004 173.085 99.9977 168.229 103.366 166.282L133.514 148.813C135.084 147.907 137.024 147.9 138.593 148.807L186.154 176.181C189.521 178.122 189.528 182.978 186.16 184.925Z" fill="#F4F4F4"/>
        </g>
      </g>
      <g opacity="0.63">
        <g opacity="0.63">
          <path opacity="0.63" d="M185.783 184.798L155.937 202.091C154.381 202.991 152.462 202.991 150.906 202.098L103.824 174.999C100.483 173.078 100.476 168.276 103.81 166.342L133.656 149.048C135.212 148.148 137.131 148.148 138.687 149.042L185.77 176.141C189.111 178.062 189.117 182.864 185.783 184.798Z" fill="#F3F3F3"/>
        </g>
      </g>
      <g opacity="0.63">
        <g opacity="0.63">
          <path opacity="0.63" d="M185.413 184.67L155.87 201.789C154.334 202.682 152.435 202.682 150.892 201.796L104.288 174.972C100.981 173.072 100.974 168.317 104.275 166.403L133.817 149.283C135.353 148.39 137.253 148.39 138.795 149.277L185.399 176.1C188.706 178.001 188.713 182.756 185.413 184.67Z" fill="#F1F1F1"/>
        </g>
      </g>
      <g opacity="0.63">
        <g opacity="0.63">
          <path opacity="0.63" d="M185.035 184.543L155.796 201.487C154.274 202.367 152.394 202.374 150.872 201.494L104.746 174.945C101.473 173.065 101.466 168.357 104.733 166.463L133.972 149.519C135.495 148.639 137.374 148.632 138.903 149.512L185.029 176.06C188.296 177.941 188.302 182.649 185.035 184.543Z" fill="#F0F0F0"/>
        </g>
      </g>
      <g opacity="0.63">
        <g opacity="0.63">
          <path opacity="0.63" d="M184.665 184.415L155.729 201.185C154.22 202.058 152.361 202.058 150.852 201.191L105.204 174.918C101.964 173.051 101.958 168.397 105.191 166.523L134.127 149.754C135.636 148.88 137.495 148.88 139.004 149.747L184.652 176.02C187.891 177.88 187.898 182.541 184.665 184.415Z" fill="#EEEEEE"/>
        </g>
      </g>
      <g opacity="0.63">
        <g opacity="0.63">
          <path opacity="0.63" d="M184.288 184.287L155.654 200.883C154.166 201.749 152.32 201.749 150.832 200.889L105.662 174.892C102.456 173.045 102.449 168.438 105.649 166.584L134.282 149.989C135.771 149.122 137.616 149.122 139.105 149.982L184.274 175.98C187.481 177.826 187.487 182.434 184.288 184.287Z" fill="#EDEDED"/>
        </g>
      </g>
      <g opacity="0.63">
        <g opacity="0.63">
          <path opacity="0.63" d="M183.917 184.16L155.587 200.574C154.112 201.427 152.293 201.433 150.812 200.58L106.12 174.851C102.948 173.025 102.941 168.464 106.107 166.631L134.437 150.217C135.912 149.364 137.731 149.357 139.213 150.21L183.904 175.933C187.076 177.766 187.083 182.326 183.917 184.16Z" fill="#ECECEC"/>
        </g>
      </g>
      <g opacity="0.63">
        <g opacity="0.63">
          <path opacity="0.63" d="M183.54 184.025L155.513 200.265C154.051 201.111 152.253 201.111 150.791 200.271L106.578 174.818C103.44 173.011 103.44 168.505 106.565 166.691L134.592 150.452C136.054 149.606 137.852 149.606 139.314 150.445L183.527 175.899C186.665 177.706 186.672 182.212 183.54 184.025Z" fill="#EAEAEA"/>
        </g>
      </g>
      <g opacity="0.63">
        <g opacity="0.63">
          <path opacity="0.63" d="M183.17 183.898L155.446 199.962C154.004 200.802 152.219 200.802 150.771 199.969L107.036 174.791C103.938 173.004 103.931 168.545 107.023 166.752L134.747 150.687C136.188 149.848 137.973 149.848 139.422 150.68L183.156 175.859C186.261 177.645 186.268 182.105 183.17 183.898Z" fill="#E9E9E9"/>
        </g>
      </g>
      <g opacity="0.63">
        <g opacity="0.63">
          <path opacity="0.63" d="M182.792 183.77L155.372 199.66C153.944 200.486 152.179 200.493 150.751 199.667L107.494 174.764C104.43 172.998 104.423 168.585 107.481 166.812L134.902 150.922C136.33 150.096 138.095 150.089 139.523 150.915L182.779 175.818C185.85 177.585 185.857 181.997 182.792 183.77Z" fill="#E7E7E7"/>
        </g>
      </g>
      <g opacity="0.63">
        <g opacity="0.63">
          <path opacity="0.63" d="M182.422 183.643L155.304 199.358C153.89 200.177 152.152 200.177 150.737 199.365L107.959 174.737C104.928 172.991 104.921 168.626 107.946 166.873L135.064 151.157C136.478 150.338 138.216 150.338 139.63 151.151L182.409 175.778C185.446 177.524 185.453 181.89 182.422 183.643Z" fill="#E6E6E6"/>
        </g>
      </g>
      <g opacity="0.63">
        <g opacity="0.63">
          <path opacity="0.63" d="M182.045 183.515L155.23 199.056C153.836 199.862 152.111 199.869 150.71 199.063L108.41 174.71C105.413 172.984 105.406 168.666 108.397 166.933L135.212 151.392C136.606 150.586 138.33 150.58 139.731 151.386L182.031 175.738C185.035 177.464 185.042 181.782 182.045 183.515Z" fill="#E5E5E5"/>
        </g>
      </g>
      <g opacity="0.63">
        <g opacity="0.63">
          <path opacity="0.63" d="M181.674 183.387L155.163 198.754C153.782 199.553 152.078 199.553 150.697 198.76L108.875 174.683C105.912 172.978 105.905 168.706 108.862 166.994L135.373 151.627C136.754 150.828 138.458 150.828 139.839 151.621L181.661 175.698C184.631 177.403 184.638 181.668 181.674 183.387Z" fill="#E3E3E3"/>
        </g>
      </g>
      <g opacity="0.63">
        <g opacity="0.63">
          <path opacity="0.63" d="M181.304 183.26L155.095 198.445C153.728 199.237 152.044 199.237 150.677 198.451L109.333 174.65C106.403 172.964 106.397 168.746 109.32 167.047L135.528 151.862C136.896 151.07 138.58 151.07 139.947 151.856L181.29 175.657C184.22 177.343 184.227 181.561 181.304 183.26Z" fill="#E2E2E2"/>
        </g>
      </g>
      <g opacity="0.63">
        <g opacity="0.63">
          <path opacity="0.63" d="M180.927 183.132L155.021 198.142C153.674 198.921 152.01 198.928 150.657 198.149L109.791 174.623C106.895 172.957 106.888 168.787 109.778 167.108L135.683 152.097C137.03 151.318 138.694 151.312 140.048 152.091L180.913 175.617C183.816 177.282 183.823 181.453 180.927 183.132Z" fill="#E1E1E1"/>
        </g>
      </g>
      <g opacity="0.63">
        <g opacity="0.63">
          <path opacity="0.63" d="M180.556 183.005L154.954 197.84C153.62 198.613 151.977 198.613 150.636 197.847L110.249 174.596C107.387 172.944 107.38 168.827 110.236 167.168L135.838 152.333C137.172 151.56 138.815 151.56 140.156 152.326L180.543 175.577C183.405 177.222 183.412 181.346 180.556 183.005Z" fill="#DFDFDF"/>
        </g>
      </g>
      <g opacity="0.63">
        <g opacity="0.63">
          <path opacity="0.63" d="M180.179 182.877L154.88 197.538C153.56 198.304 151.936 198.304 150.616 197.545L110.707 174.569C107.878 172.937 107.872 168.867 110.694 167.229L135.993 152.568C137.313 151.802 138.937 151.802 140.257 152.561L180.166 175.536C183.001 177.168 183.008 181.238 180.179 182.877Z" fill="#DEDEDE"/>
        </g>
      </g>
      <g opacity="0.63">
        <g opacity="0.63">
          <path opacity="0.63" d="M179.809 182.743L154.813 197.229C153.513 197.981 151.903 197.988 150.603 197.236L111.172 174.536C108.377 172.924 108.37 168.901 111.159 167.282L136.155 152.796C137.455 152.044 139.065 152.037 140.365 152.789L179.795 175.489C182.59 177.108 182.597 181.131 179.809 182.743Z" fill="#DCDCDC"/>
        </g>
      </g>
      <g opacity="0.63">
        <g opacity="0.63">
          <path opacity="0.63" d="M179.431 182.615L154.738 196.927C153.452 197.672 151.862 197.672 150.576 196.934L111.623 174.509C108.862 172.917 108.855 168.941 111.61 167.35L136.303 153.038C137.589 152.292 139.179 152.292 140.466 153.031L179.418 175.456C182.186 177.047 182.193 181.017 179.431 182.615Z" fill="#DBDBDB"/>
        </g>
      </g>
      <g opacity="0.63">
        <g opacity="0.63">
          <path opacity="0.63" d="M179.061 182.487L154.671 196.618C153.398 197.357 151.835 197.357 150.562 196.625L112.081 174.482C109.354 172.91 109.347 168.988 112.075 167.41L136.465 153.28C137.738 152.541 139.3 152.541 140.573 153.273L179.047 175.422C181.775 176.987 181.782 180.909 179.061 182.487Z" fill="#DADADA"/>
        </g>
      </g>
      <g opacity="0.63">
        <g opacity="0.63">
          <path opacity="0.63" d="M178.684 182.36L154.597 196.316C153.344 197.041 151.795 197.048 150.535 196.322L112.539 174.448C109.845 172.897 109.838 169.022 112.533 167.464L136.619 153.508C137.872 152.782 139.422 152.776 140.681 153.501L178.677 175.375C181.371 176.927 181.378 180.802 178.684 182.36Z" fill="#D8D8D8"/>
        </g>
      </g>
      <g opacity="0.63">
        <g opacity="0.63">
          <path opacity="0.63" d="M178.313 182.232L154.53 196.013C153.29 196.732 151.761 196.732 150.522 196.02L113.004 174.421C110.344 172.89 110.337 169.062 112.997 167.524L136.781 153.743C138.02 153.024 139.549 153.024 140.789 153.736L178.307 175.335C180.96 176.866 180.967 180.694 178.313 182.232Z" fill="#D7D7D7"/>
        </g>
      </g>
      <g opacity="0.63">
        <g opacity="0.63">
          <path opacity="0.63" d="M177.936 182.105L154.456 195.711C153.23 196.416 151.721 196.423 150.502 195.718L113.462 174.395C110.835 172.884 110.829 169.102 113.456 167.585L136.936 153.978C138.162 153.273 139.671 153.266 140.89 153.971L177.929 175.295C180.556 176.806 180.563 180.587 177.936 182.105Z" fill="#D5D5D5"/>
        </g>
      </g>
      <g opacity="0.63">
        <g opacity="0.63">
          <path opacity="0.63" d="M177.566 181.977L154.388 195.409C153.182 196.108 151.694 196.108 150.481 195.416L113.92 174.368C111.327 172.877 111.32 169.143 113.914 167.645L137.091 154.213C138.297 153.515 139.785 153.515 140.998 154.206L177.559 175.254C180.145 176.745 180.152 180.479 177.566 181.977Z" fill="#D4D4D4"/>
        </g>
      </g>
      <g opacity="0.63">
        <g opacity="0.63">
          <path opacity="0.63" d="M177.188 181.849L154.314 195.107C153.122 195.799 151.653 195.799 150.461 195.114L114.378 174.341C111.819 172.87 111.812 169.183 114.372 167.706L137.246 154.448C138.438 153.756 139.906 153.756 141.099 154.441L177.182 175.214C179.741 176.685 179.748 180.365 177.188 181.849Z" fill="#D3D3D3"/>
        </g>
      </g>
      <g opacity="0.63">
        <g opacity="0.63">
          <path opacity="0.63" d="M176.818 181.722L154.247 194.798C153.075 195.476 151.62 195.483 150.441 194.805L114.836 174.307C112.31 172.857 112.304 169.223 114.83 167.759L137.401 154.676C138.573 153.998 140.028 153.991 141.206 154.67L176.811 175.167C179.33 176.624 179.337 180.258 176.818 181.722Z" fill="#D1D1D1"/>
        </g>
      </g>
      <g opacity="0.63">
        <g opacity="0.63">
          <path opacity="0.63" d="M176.441 181.594L154.173 194.496C153.014 195.167 151.579 195.167 150.421 194.502L115.294 174.281C112.802 172.843 112.795 169.264 115.288 167.82L137.556 154.918C138.714 154.247 140.149 154.247 141.307 154.912L176.434 175.133C178.926 176.564 178.933 180.15 176.441 181.594Z" fill="#D0D0D0"/>
        </g>
      </g>
      <g opacity="0.63">
        <g opacity="0.63">
          <path opacity="0.63" d="M176.07 181.467L154.105 194.193C152.96 194.858 151.552 194.858 150.401 194.2L115.752 174.254C113.294 172.836 113.287 169.304 115.746 167.88L137.711 155.153C138.856 154.488 140.263 154.488 141.415 155.146L176.064 175.093C178.515 176.503 178.522 180.043 176.07 181.467Z" fill="#CFCFCF"/>
        </g>
      </g>
      <g opacity="0.63">
        <g opacity="0.63">
          <path opacity="0.63" d="M175.7 181.332L154.038 193.884C152.913 194.536 151.519 194.543 150.387 193.891L116.217 174.22C113.792 172.823 113.786 169.337 116.21 167.934L137.872 155.382C138.997 154.73 140.391 154.723 141.523 155.375L175.693 175.046C178.111 176.45 178.118 179.935 175.7 181.332Z" fill="#CDCDCD"/>
        </g>
      </g>
      <g opacity="0.63">
        <g opacity="0.63">
          <path opacity="0.63" d="M175.323 181.205L153.964 193.582C152.852 194.227 151.478 194.227 150.367 193.589L116.675 174.193C114.284 172.816 114.284 169.378 116.668 168.001L138.027 155.623C139.139 154.979 140.513 154.979 141.624 155.617L175.316 175.012C177.707 176.389 177.707 179.821 175.323 181.205Z" fill="#CCCCCC"/>
        </g>
      </g>
      <g opacity="0.63">
        <g opacity="0.63">
          <path opacity="0.63" d="M174.952 181.077L153.896 193.28C152.799 193.918 151.445 193.918 150.347 193.287L117.133 174.166C114.776 172.81 114.776 169.425 117.126 168.062L138.182 155.859C139.28 155.22 140.634 155.22 141.732 155.852L174.945 174.972C177.296 176.329 177.303 179.714 174.952 181.077Z" fill="#CACACA"/>
        </g>
      </g>
      <g opacity="0.63">
        <path opacity="0.63" d="M174.575 180.949L153.822 192.978C152.745 193.602 151.411 193.609 150.327 192.985L117.591 174.139C115.267 172.803 115.267 169.465 117.584 168.122L138.337 156.094C139.415 155.469 140.748 155.462 141.833 156.087L174.568 174.932C176.892 176.268 176.892 179.606 174.575 180.949Z" fill="#C9C9C9"/>
      </g>
    </g>
    <path d="M194.29 142.93L194.243 160.103L149.828 185.839L149.875 168.659L194.29 142.93Z" fill="url(#paint32_linear_516)"/>
    <path d="M149.875 168.659L149.828 185.839L86.1895 149.203L86.2367 132.03L149.875 168.659Z" fill="url(#paint33_linear_516)"/>
    <path d="M146.501 171.278L146.46 180.325C146.46 180.728 146.022 180.976 145.679 180.775L89.8268 148.625C89.6651 148.531 89.5641 148.357 89.5641 148.175L89.6045 139.129C89.6045 138.726 90.0423 138.477 90.3859 138.679L146.238 170.828C146.4 170.922 146.501 171.09 146.501 171.278Z" fill="url(#paint34_linear_516)"/>
    <path d="M90.9517 147.376L90.9786 141.5C90.9786 141.097 91.4164 140.848 91.7599 141.05L144.857 171.614C145.019 171.708 145.12 171.883 145.12 172.064L145.093 177.941C145.093 178.344 144.655 178.592 144.312 178.391L91.2143 147.826C91.046 147.739 90.9449 147.564 90.9517 147.376Z" fill="url(#paint35_linear_516)"/>
    <path d="M194.29 142.93L149.875 168.659L86.2367 132.03L130.652 106.294L194.29 142.93Z" fill="url(#paint36_linear_516)"/>
    <path d="M134.996 153.212C135.959 152.655 137.522 152.655 138.485 153.212C139.448 153.77 139.448 154.67 138.485 155.22C137.522 155.778 135.959 155.778 134.996 155.22C134.033 154.67 134.033 153.77 134.996 153.212Z" fill="#45FFFA"/>
    <path d="M140.843 156.557C141.806 155.999 143.369 155.999 144.332 156.557C145.295 157.114 145.295 158.014 144.332 158.565C143.369 159.122 141.806 159.122 140.843 158.565C139.88 158.014 139.88 157.114 140.843 156.557Z" fill="#45FFFA"/>
    <path d="M147.599 160.385C148.562 159.828 150.124 159.828 151.088 160.385C152.051 160.942 152.051 161.842 151.088 162.393C150.124 162.95 148.562 162.95 147.599 162.393C146.629 161.842 146.629 160.942 147.599 160.385Z" fill="#45FFFA"/>
    <path class="light2" d="M122.4 146.019C123.364 145.462 124.926 145.462 125.89 146.019C126.853 146.577 126.853 147.477 125.89 148.027C124.926 148.585 123.364 148.585 122.4 148.027C121.437 147.477 121.437 146.577 122.4 146.019Z" fill="#EBF4FB"/>
    <path class="light1" d="M128.247 149.364C129.21 148.806 130.773 148.806 131.736 149.364C132.699 149.921 132.699 150.821 131.736 151.372C130.773 151.929 129.21 151.929 128.247 151.372C127.284 150.821 127.284 149.921 128.247 149.364Z" fill="#EBF4FB"/>
    <path opacity="0.7" d="M178.576 143.561L186.793 138.612L181.829 135.757L173.302 140.606L178.576 143.561Z" fill="url(#paint37_linear_516)"/>
    <path d="M178.758 86.1865C178.771 86.6029 178.448 86.9454 178.118 87.1536C177.734 87.3954 177.276 87.5297 176.831 87.5835C176.495 87.6238 176.151 87.6237 175.814 87.5902C175.808 87.5902 175.801 87.5902 175.794 87.5835C175.302 87.523 174.79 87.3753 174.386 87.0865C174.103 86.885 173.841 86.5626 173.834 86.2L172.238 141.594C172.238 141.728 172.265 141.862 172.305 141.997C172.312 142.03 172.325 142.064 172.339 142.091C172.426 142.319 172.561 142.547 172.77 142.756C172.797 142.789 172.837 142.816 172.871 142.843C172.905 142.87 172.938 142.903 172.972 142.93C173.107 143.044 173.261 143.158 173.437 143.259C173.618 143.367 173.814 143.454 174.016 143.535C174.077 143.561 174.137 143.582 174.198 143.602C174.353 143.655 174.514 143.702 174.676 143.749C174.737 143.763 174.797 143.783 174.865 143.796C175.087 143.844 175.316 143.884 175.545 143.911C175.558 143.911 175.572 143.911 175.585 143.911C175.808 143.931 176.023 143.944 176.245 143.944C176.313 143.944 176.387 143.944 176.454 143.944C176.629 143.944 176.811 143.931 176.986 143.917C177.054 143.911 177.114 143.904 177.182 143.897C177.404 143.87 177.633 143.837 177.862 143.783C178.044 143.743 178.212 143.682 178.381 143.629C178.448 143.608 178.522 143.588 178.583 143.568C178.812 143.481 179.034 143.38 179.236 143.259C180.044 142.796 180.448 142.185 180.448 141.573C180.442 141.567 178.758 86.1932 178.758 86.1865Z" fill="url(#paint38_linear_516)"/>
    <path d="M174.535 85.2127C173.558 85.7768 173.551 86.6902 174.521 87.2543C175.491 87.8185 177.081 87.8185 178.057 87.2543C179.034 86.6902 179.041 85.7768 178.071 85.2127C177.101 84.6485 175.518 84.6485 174.535 85.2127Z" fill="url(#paint39_linear_516)"/>
    <path opacity="0.7" d="M134.531 118.215L142.756 113.265L137.791 110.404L129.257 115.26L134.531 118.215Z" fill="url(#paint40_linear_516)"/>
    <path d="M134.457 60.9746C134.471 61.391 134.147 61.7335 133.817 61.9417C133.433 62.1835 132.975 62.3178 132.531 62.3715C132.194 62.4118 131.851 62.4118 131.514 62.3783C131.507 62.3783 131.5 62.3783 131.494 62.3715C131.002 62.3111 130.49 62.1633 130.086 61.8746C129.803 61.6731 129.54 61.3507 129.54 60.988L127.944 116.382C127.944 116.516 127.971 116.65 128.011 116.785C128.018 116.818 128.031 116.852 128.045 116.879C128.133 117.107 128.267 117.335 128.476 117.544C128.503 117.57 128.543 117.604 128.577 117.631C128.611 117.658 128.644 117.691 128.678 117.718C128.813 117.832 128.968 117.947 129.143 118.047C129.325 118.155 129.52 118.242 129.722 118.323C129.783 118.35 129.843 118.37 129.904 118.39C130.059 118.444 130.221 118.491 130.382 118.538C130.443 118.551 130.503 118.571 130.571 118.585C130.793 118.632 131.022 118.672 131.251 118.699C131.265 118.699 131.278 118.699 131.292 118.699C131.514 118.719 131.729 118.732 131.952 118.732C132.019 118.732 132.093 118.732 132.16 118.732C132.336 118.732 132.517 118.719 132.693 118.705C132.76 118.699 132.821 118.692 132.888 118.685C133.11 118.658 133.339 118.625 133.568 118.571C133.75 118.531 133.918 118.47 134.087 118.417C134.154 118.397 134.228 118.376 134.289 118.356C134.518 118.269 134.74 118.168 134.942 118.047C135.751 117.584 136.155 116.973 136.155 116.362C136.148 116.362 134.457 60.9813 134.457 60.9746Z" fill="url(#paint41_linear_516)"/>
    <path d="M130.241 60.0075C129.264 60.5716 129.257 61.485 130.227 62.0491C131.197 62.6133 132.787 62.6133 133.764 62.0491C134.74 61.485 134.747 60.5716 133.777 60.0075C132.8 59.4433 131.217 59.4433 130.241 60.0075Z" fill="url(#paint42_linear_516)"/>
    <path d="M152.085 173.152C151.963 173.152 151.842 173.085 151.775 172.971C151.68 172.803 151.734 172.581 151.909 172.487L192.209 149.673C192.377 149.572 192.6 149.633 192.694 149.807C192.788 149.975 192.734 150.197 192.559 150.291L152.26 173.105C152.206 173.139 152.145 173.152 152.085 173.152Z" fill="url(#paint43_linear_516)"/>
    <path d="M152.085 175.879C151.963 175.879 151.842 175.812 151.775 175.697C151.68 175.53 151.734 175.308 151.909 175.214L192.209 152.4C192.377 152.299 192.6 152.359 192.694 152.534C192.788 152.702 192.734 152.923 192.559 153.017L152.26 175.832C152.206 175.865 152.145 175.879 152.085 175.879Z" fill="url(#paint44_linear_516)"/>
    <path d="M152.085 178.605C151.963 178.605 151.842 178.538 151.775 178.424C151.68 178.256 151.734 178.035 151.909 177.941L192.209 155.126C192.377 155.026 192.6 155.086 192.694 155.261C192.788 155.428 192.734 155.65 192.559 155.744L152.26 178.558C152.206 178.592 152.145 178.605 152.085 178.605Z" fill="url(#paint45_linear_516)"/>
    <path d="M65.2686 179.465C65.0598 179.465 64.8712 179.317 64.8375 179.103C64.7567 178.619 56.7008 130.378 76.7192 103.541C84.1823 93.5339 94.6563 87.6439 107.845 86.0455C118.945 84.6956 128.618 87.2409 136.599 93.601C155.116 108.349 158.45 139.062 158.483 139.371C158.51 139.612 158.335 139.827 158.093 139.847C157.857 139.874 157.635 139.7 157.615 139.458C157.581 139.156 154.28 108.799 136.054 94.2793C128.261 88.0737 118.804 85.5955 107.952 86.9119C95.0133 88.4834 84.7414 94.2525 77.4265 104.065C57.6303 130.6 65.6188 178.478 65.7064 178.955C65.7468 179.19 65.5852 179.418 65.3494 179.459C65.3225 179.459 65.2955 179.465 65.2686 179.465Z" fill="url(#paint46_linear_516)"/>
    <path d="M144.999 78.7049C143.2 58.6912 139.624 42.4989 134.356 30.5712C127.735 15.5811 118.413 7.31366 106.653 5.98389C96.7444 4.86232 88.7424 7.25322 82.8487 13.076C73.3244 22.4851 71.4115 38.9595 71.2162 49.1007C71.4519 49.0134 71.6877 48.9395 71.9234 48.8656C72.139 38.8185 74.0586 22.7538 83.3471 13.5797C89.0792 7.91139 96.8925 5.59436 106.572 6.68907C118.069 7.98527 127.196 16.1184 133.71 30.86C138.95 42.7138 142.513 58.8322 144.298 78.7653C147.349 112.742 144.13 146.456 144.096 146.792C144.076 146.987 144.217 147.161 144.413 147.181C144.426 147.181 144.433 147.181 144.446 147.181C144.628 147.181 144.783 147.047 144.797 146.866C144.83 146.516 148.05 112.742 144.999 78.7049Z" fill="url(#paint47_linear_516)"/>
    <path d="M16.1252 157.772C16.4081 157.9 16.7381 157.88 17.0008 157.725L25.481 152.796L25.124 152.561C24.8748 152.393 24.5448 152.386 24.2888 152.534L15.6604 157.571L16.1252 157.772Z" fill="url(#paint48_linear_516)"/>
  </g>
  <defs>
    <linearGradient id="paint0_linear_516" x1="38.2962" y1="133.92" x2="78.4405" y2="122.352" gradientUnits="userSpaceOnUse">
      <stop offset="0.0389" stop-color="#705FC7"/>
      <stop offset="1" stop-color="#352CA1"/>
    </linearGradient>
    <linearGradient id="paint1_linear_516" x1="57.4669" y1="117.912" x2="102.521" y2="119.195" gradientUnits="userSpaceOnUse">
      <stop offset="0.0389" stop-color="#705FC7"/>
      <stop offset="1" stop-color="#352CA1"/>
    </linearGradient>
    <linearGradient id="paint2_linear_516" x1="36.3162" y1="74.7177" x2="111.241" y2="74.7177" gradientUnits="userSpaceOnUse">
      <stop offset="0.00777202" stop-color="#D2B9F2"/>
      <stop offset="0.3549" stop-color="#705FC7"/>
      <stop offset="0.7487" stop-color="#705FC7"/>
      <stop offset="1" stop-color="#352CA1"/>
    </linearGradient>
    <linearGradient id="paint3_linear_516" x1="51.4111" y1="120.125" x2="80.0694" y2="121.224" gradientUnits="userSpaceOnUse">
      <stop offset="0.00777202" stop-color="#D2B9F2"/>
      <stop offset="0.2979" stop-color="#705FC7"/>
      <stop offset="0.6399" stop-color="#705FC7"/>
      <stop offset="1" stop-color="#352CA1"/>
    </linearGradient>
    <linearGradient id="paint4_linear_516" x1="80.6027" y1="124.846" x2="70.6311" y2="98.594" gradientUnits="userSpaceOnUse">
      <stop offset="0.0389" stop-color="#705FC7"/>
      <stop offset="1" stop-color="#352CA1"/>
    </linearGradient>
    <linearGradient id="paint5_linear_516" x1="-7.67617" y1="108.574" x2="174.954" y2="36.5508" gradientUnits="userSpaceOnUse">
      <stop offset="0.0389" stop-color="#705FC7"/>
      <stop offset="1" stop-color="#352CA1"/>
    </linearGradient>
    <linearGradient id="paint6_linear_516" x1="121.862" y1="47.1799" x2="45.3103" y2="93.7374" gradientUnits="userSpaceOnUse">
      <stop stop-color="#607CF2"/>
      <stop offset="0.2208" stop-color="#6280F2"/>
      <stop offset="0.4401" stop-color="#678CF2"/>
      <stop offset="0.6588" stop-color="#6FA0F2"/>
      <stop offset="0.8759" stop-color="#7BBCF2"/>
      <stop offset="1" stop-color="#83CFF2"/>
    </linearGradient>
    <linearGradient id="paint7_linear_516" x1="74.4179" y1="89.6549" x2="80.3522" y2="89.6549" gradientUnits="userSpaceOnUse">
      <stop stop-color="#CEF4FB"/>
      <stop offset="1" stop-color="#45D4CF"/>
    </linearGradient>
    <linearGradient id="paint8_linear_516" x1="69.1418" y1="81.6509" x2="85.5146" y2="81.6509" gradientUnits="userSpaceOnUse">
      <stop stop-color="#CEF4FB"/>
      <stop offset="1" stop-color="#45D4CF"/>
    </linearGradient>
    <linearGradient id="paint9_linear_516" x1="63.0964" y1="74.3793" x2="91.628" y2="74.3793" gradientUnits="userSpaceOnUse">
      <stop stop-color="#CEF4FB"/>
      <stop offset="1" stop-color="#45D4CF"/>
    </linearGradient>
    <linearGradient id="paint10_linear_516" x1="56.8308" y1="66.9208" x2="97.8636" y2="66.9208" gradientUnits="userSpaceOnUse">
      <stop stop-color="#CEF4FB"/>
      <stop offset="1" stop-color="#45D4CF"/>
    </linearGradient>
    <linearGradient id="paint11_linear_516" x1="156.499" y1="69.2442" x2="169.006" y2="91.2806" gradientUnits="userSpaceOnUse">
      <stop offset="0.00777202" stop-color="#D2B9F2"/>
      <stop offset="0.3549" stop-color="#705FC7"/>
      <stop offset="0.7487" stop-color="#705FC7"/>
    </linearGradient>
    <linearGradient id="paint12_linear_516" x1="150.074" y1="49.4802" x2="183.922" y2="85.4642" gradientUnits="userSpaceOnUse">
      <stop offset="0.00777202" stop-color="#D2B9F2"/>
      <stop offset="0.3549" stop-color="#705FC7"/>
      <stop offset="0.7487" stop-color="#705FC7"/>
    </linearGradient>
    <linearGradient id="paint13_linear_516" x1="137.755" y1="63.4701" x2="169.526" y2="63.4701" gradientUnits="userSpaceOnUse">
      <stop stop-color="#CEF4FB"/>
      <stop offset="1" stop-color="#45D4CF"/>
    </linearGradient>
    <linearGradient id="paint14_linear_516" x1="125.363" y1="48.5002" x2="182.205" y2="48.5002" gradientUnits="userSpaceOnUse">
      <stop stop-color="#CEF4FB"/>
      <stop offset="1" stop-color="#45D4CF"/>
    </linearGradient>
    <linearGradient id="paint15_linear_516" x1="144.957" y1="29.4026" x2="195.069" y2="76.9443" gradientUnits="userSpaceOnUse">
      <stop offset="0.00777202" stop-color="#D2B9F2"/>
      <stop offset="0.3549" stop-color="#705FC7"/>
      <stop offset="0.7487" stop-color="#705FC7"/>
    </linearGradient>
    <linearGradient id="paint16_linear_516" x1="139.84" y1="9.18802" x2="206.786" y2="67.2718" gradientUnits="userSpaceOnUse">
      <stop offset="0.00777202" stop-color="#D2B9F2"/>
      <stop offset="0.3549" stop-color="#705FC7"/>
      <stop offset="0.7487" stop-color="#705FC7"/>
    </linearGradient>
    <linearGradient id="paint17_linear_516" x1="112.525" y1="33.0739" x2="195.132" y2="33.0739" gradientUnits="userSpaceOnUse">
      <stop stop-color="#CEF4FB"/>
      <stop offset="1" stop-color="#45D4CF"/>
    </linearGradient>
    <linearGradient id="paint18_linear_516" x1="42.6952" y1="182.399" x2="64.4263" y2="181.709" gradientUnits="userSpaceOnUse">
      <stop offset="0.0389" stop-color="#705FC7"/>
      <stop offset="1" stop-color="#352CA1"/>
    </linearGradient>
    <linearGradient id="paint19_linear_516" x1="33.4041" y1="184.996" x2="85.2844" y2="138.614" gradientUnits="userSpaceOnUse">
      <stop offset="0.00777202" stop-color="#D2B9F2"/>
      <stop offset="0.3549" stop-color="#705FC7"/>
      <stop offset="0.7487" stop-color="#705FC7"/>
      <stop offset="1" stop-color="#352CA1"/>
    </linearGradient>
    <linearGradient id="paint20_linear_516" x1="29.4409" y1="177.341" x2="80.966" y2="161.64" gradientUnits="userSpaceOnUse">
      <stop stop-color="#607CF2"/>
      <stop offset="0.2208" stop-color="#6280F2"/>
      <stop offset="0.4401" stop-color="#678CF2"/>
      <stop offset="0.6588" stop-color="#6FA0F2"/>
      <stop offset="0.8759" stop-color="#7BBCF2"/>
      <stop offset="1" stop-color="#83CFF2"/>
    </linearGradient>
    <linearGradient id="paint21_linear_516" x1="43.7799" y1="169.678" x2="35.6854" y2="126.669" gradientUnits="userSpaceOnUse">
      <stop stop-color="white" stop-opacity="0"/>
      <stop offset="0.5259" stop-color="#E5E7FF"/>
      <stop offset="0.7203" stop-color="#DADCFF"/>
      <stop offset="1" stop-color="#CFD0FF"/>
    </linearGradient>
    <linearGradient id="paint22_linear_516" x1="27.2018" y1="175.875" x2="23.4994" y2="142.975" gradientUnits="userSpaceOnUse">
      <stop stop-color="white" stop-opacity="0"/>
      <stop offset="0.5259" stop-color="#E5E7FF"/>
      <stop offset="0.7203" stop-color="#DADCFF"/>
      <stop offset="1" stop-color="#CFD0FF"/>
    </linearGradient>
    <linearGradient id="paint23_linear_516" x1="24.3456" y1="156.15" x2="56.11" y2="156.15" gradientUnits="userSpaceOnUse">
      <stop stop-color="white"/>
      <stop offset="1" stop-color="#E1D3E5"/>
    </linearGradient>
    <linearGradient id="paint24_linear_516" x1="50.23" y1="169.228" x2="36.7667" y2="133.914" gradientUnits="userSpaceOnUse">
      <stop stop-color="white" stop-opacity="0"/>
      <stop offset="0.5259" stop-color="#E5E7FF"/>
      <stop offset="0.7203" stop-color="#DADCFF"/>
      <stop offset="1" stop-color="#CFD0FF"/>
    </linearGradient>
    <linearGradient id="paint25_linear_516" x1="37.8541" y1="179.447" x2="36.4496" y2="143.269" gradientUnits="userSpaceOnUse">
      <stop stop-color="white" stop-opacity="0"/>
      <stop offset="0.5036" stop-color="#E6E8FF" stop-opacity="0.9577"/>
      <stop offset="0.5259" stop-color="#E5E7FF"/>
      <stop offset="0.7203" stop-color="#DADCFF"/>
      <stop offset="1" stop-color="#CFD0FF"/>
    </linearGradient>
    <linearGradient id="paint26_linear_516" x1="35.2645" y1="159.028" x2="57.0965" y2="159.028" gradientUnits="userSpaceOnUse">
      <stop stop-color="white"/>
      <stop offset="1" stop-color="#E1D3E5"/>
    </linearGradient>
    <linearGradient id="paint27_linear_516" x1="56.4927" y1="171.054" x2="38.7347" y2="137.163" gradientUnits="userSpaceOnUse">
      <stop stop-color="white" stop-opacity="0"/>
      <stop offset="0.5259" stop-color="#E5E7FF"/>
      <stop offset="0.7203" stop-color="#DADCFF"/>
      <stop offset="1" stop-color="#CFD0FF"/>
    </linearGradient>
    <linearGradient id="paint28_linear_516" x1="48.4386" y1="177.138" x2="48.1803" y2="143.117" gradientUnits="userSpaceOnUse">
      <stop stop-color="white" stop-opacity="0"/>
      <stop offset="0.5036" stop-color="#E6E8FF" stop-opacity="0.9577"/>
      <stop offset="0.5259" stop-color="#E5E7FF"/>
      <stop offset="0.7203" stop-color="#DADCFF"/>
      <stop offset="1" stop-color="#CFD0FF"/>
    </linearGradient>
    <linearGradient id="paint29_linear_516" x1="46.1398" y1="161.801" x2="58.4037" y2="161.801" gradientUnits="userSpaceOnUse">
      <stop stop-color="white"/>
      <stop offset="1" stop-color="#E1D3E5"/>
    </linearGradient>
    <linearGradient id="paint30_linear_516" x1="58.5708" y1="177.087" x2="55.213" y2="132.703" gradientUnits="userSpaceOnUse">
      <stop stop-color="white" stop-opacity="0"/>
      <stop offset="0.5259" stop-color="#E5E7FF"/>
      <stop offset="0.7203" stop-color="#DADCFF"/>
      <stop offset="1" stop-color="#CFD0FF"/>
    </linearGradient>
    <linearGradient id="paint31_linear_516" x1="55.1538" y1="165.188" x2="60.9895" y2="165.188" gradientUnits="userSpaceOnUse">
      <stop stop-color="white"/>
      <stop offset="1" stop-color="#E1D3E5"/>
    </linearGradient>
    <linearGradient id="paint32_linear_516" x1="92.6965" y1="164.117" x2="182.841" y2="164.42" gradientUnits="userSpaceOnUse">
      <stop offset="0.0389" stop-color="#705FC7"/>
      <stop offset="1" stop-color="#352CA1"/>
    </linearGradient>
    <linearGradient id="paint33_linear_516" x1="114.423" y1="158.939" x2="221.025" y2="158.787" gradientUnits="userSpaceOnUse">
      <stop offset="0.00777202" stop-color="#D2B9F2"/>
      <stop offset="0.2979" stop-color="#705FC7"/>
      <stop offset="0.6399" stop-color="#705FC7"/>
      <stop offset="1" stop-color="#352CA1"/>
    </linearGradient>
    <linearGradient id="paint34_linear_516" x1="125.579" y1="144.274" x2="69.1566" y2="260.465" gradientUnits="userSpaceOnUse">
      <stop offset="0.00777202" stop-color="#D2B9F2"/>
      <stop offset="0.2979" stop-color="#705FC7"/>
      <stop offset="0.6399" stop-color="#705FC7"/>
      <stop offset="1" stop-color="#352CA1"/>
    </linearGradient>
    <linearGradient id="paint35_linear_516" x1="90.949" y1="159.725" x2="145.115" y2="159.725" gradientUnits="userSpaceOnUse">
      <stop stop-color="#83CFF2"/>
      <stop offset="0.1791" stop-color="#85D0F2"/>
      <stop offset="0.2632" stop-color="#8DD3F3"/>
      <stop offset="0.3274" stop-color="#9AD8F4"/>
      <stop offset="0.3816" stop-color="#ACDFF6"/>
      <stop offset="0.4294" stop-color="#C4E8F9"/>
      <stop offset="0.4722" stop-color="#E0F3FC"/>
      <stop offset="0.5078" stop-color="white"/>
      <stop offset="0.5393" stop-color="#E6F5FC"/>
      <stop offset="0.5865" stop-color="#C8EAF9"/>
      <stop offset="0.6385" stop-color="#AEE0F7"/>
      <stop offset="0.6962" stop-color="#9BD8F5"/>
      <stop offset="0.7628" stop-color="#8DD3F3"/>
      <stop offset="0.8463" stop-color="#85D0F2"/>
      <stop offset="1" stop-color="#83CFF2"/>
    </linearGradient>
    <linearGradient id="paint36_linear_516" x1="99.872" y1="-1374.89" x2="180.824" y2="-1374.88" gradientUnits="userSpaceOnUse">
      <stop stop-color="#B5A7FF"/>
      <stop offset="0.484375" stop-color="#7B61FF"/>
      <stop offset="1" stop-color="#5793CE"/>
    </linearGradient>
    <linearGradient id="paint37_linear_516" x1="184.652" y1="134.785" x2="176.978" y2="142.872" gradientUnits="userSpaceOnUse">
      <stop stop-color="white" stop-opacity="0"/>
      <stop offset="1" stop-color="#231F20"/>
    </linearGradient>
    <linearGradient id="paint38_linear_516" x1="170.956" y1="114.751" x2="177.196" y2="115.054" gradientUnits="userSpaceOnUse">
      <stop stop-color="white"/>
      <stop offset="0.5259" stop-color="#E5E7FF"/>
      <stop offset="0.7203" stop-color="#DADCFF"/>
      <stop offset="1" stop-color="#CFD0FF"/>
    </linearGradient>
    <linearGradient id="paint39_linear_516" x1="164.859" y1="90.1771" x2="177.745" y2="85.7128" gradientUnits="userSpaceOnUse">
      <stop stop-color="white"/>
      <stop offset="0.5259" stop-color="#E5E7FF"/>
      <stop offset="0.7203" stop-color="#DADCFF"/>
      <stop offset="1" stop-color="#CFD0FF"/>
    </linearGradient>
    <linearGradient id="paint40_linear_516" x1="140.61" y1="109.438" x2="132.936" y2="117.525" gradientUnits="userSpaceOnUse">
      <stop stop-color="white" stop-opacity="0"/>
      <stop offset="1" stop-color="#231F20"/>
    </linearGradient>
    <linearGradient id="paint41_linear_516" x1="126.658" y1="89.5452" x2="132.898" y2="89.848" gradientUnits="userSpaceOnUse">
      <stop stop-color="white"/>
      <stop offset="0.5259" stop-color="#E5E7FF"/>
      <stop offset="0.7203" stop-color="#DADCFF"/>
      <stop offset="1" stop-color="#CFD0FF"/>
    </linearGradient>
    <linearGradient id="paint42_linear_516" x1="120.561" y1="64.971" x2="133.447" y2="60.5066" gradientUnits="userSpaceOnUse">
      <stop stop-color="white"/>
      <stop offset="0.5259" stop-color="#E5E7FF"/>
      <stop offset="0.7203" stop-color="#DADCFF"/>
      <stop offset="1" stop-color="#CFD0FF"/>
    </linearGradient>
    <linearGradient id="paint43_linear_516" x1="201.744" y1="172.208" x2="165.846" y2="158.974" gradientUnits="userSpaceOnUse">
      <stop offset="0.2565" stop-color="#705FC7"/>
      <stop offset="1" stop-color="#705FC7"/>
    </linearGradient>
    <linearGradient id="paint44_linear_516" x1="200.858" y1="174.61" x2="164.96" y2="161.376" gradientUnits="userSpaceOnUse">
      <stop offset="0.2565" stop-color="#705FC7"/>
      <stop offset="1" stop-color="#705FC7"/>
    </linearGradient>
    <linearGradient id="paint45_linear_516" x1="199.972" y1="177.013" x2="164.074" y2="163.779" gradientUnits="userSpaceOnUse">
      <stop offset="0.2565" stop-color="#705FC7"/>
      <stop offset="1" stop-color="#705FC7"/>
    </linearGradient>
    <linearGradient id="paint46_linear_516" x1="113.355" y1="160.676" x2="102.999" y2="131.892" gradientUnits="userSpaceOnUse">
      <stop stop-color="#C094FF" stop-opacity="0"/>
      <stop offset="1" stop-color="#45D4CF"/>
    </linearGradient>
    <linearGradient id="paint47_linear_516" x1="94.8363" y1="97.4851" x2="120.235" y2="73.9711" gradientUnits="userSpaceOnUse">
      <stop stop-color="#FFF4FB" stop-opacity="0"/>
      <stop offset="1" stop-color="#45D4CF"/>
    </linearGradient>
    <linearGradient id="paint48_linear_516" x1="18.4515" y1="156.441" x2="30.6929" y2="149.137" gradientUnits="userSpaceOnUse">
      <stop stop-color="white"/>
      <stop offset="1" stop-color="#E1D3E5"/>
    </linearGradient>
    <clipPath id="clip0_516">
      <rect width="205" height="219.775" fill="white"/>
    </clipPath>
  </defs>

  <style>

    .light1{
      animation: 1s ease-in-out  infinite blink;
    }
    .light2{
      animation: 1s ease-in-out .2s infinite blink;
    }
    
    @keyframes blink {
      0% {
        fill: #EBF4FB;
      }
      50% {
        fill: #45FFFA;
      }
      100% {
        fill: #EBF4FB;
      }
    }
  
  
    .wifi{
      animation: 3s ease-in-out .2s infinite up;
    }
    .wifi1{
      animation: 4s ease-in-out .5s infinite up;
    }
    
    @keyframes up {
      0% {
        transform: translateY(0);
      }
      50% {
        transform: translateY(3px);
      }
      100% {
        transform: translateY(0);
      }
    }
  
  
    .line1{
      fill: #f4eff6;
      animation: 2.2s ease-in-out .4s infinite blinkWifi;
    }
    .line2{
      fill: #f4eff6;
      animation: 2.2s ease-in-out .8s infinite blinkWifi;
    }
    .line3{
      fill: #f4eff6;
      animation: 2.2s ease-in-out 1.2s infinite blinkWifi;
    }
    .line4{
      fill: #f4eff6;
      animation: 2.2s ease-in-out 1.6s infinite blinkWifi;
    }
  
    .lineb1{
      fill: #f4eff6;
      animation: 2.7s ease-in-out  infinite blinkWifi;
    }
    .lineb2{
      fill: #f4eff6;
      animation: 2.7s ease-in-out .6s infinite blinkWifi;
    }
    .lineb3{
      fill: #f4eff6;
      animation: 2.7s ease-in-out 1.2s infinite blinkWifi;
    }
    .lineb4{
      fill: #f4eff6;
      animation: 2.7s ease-in-out 1.8s infinite blinkWifi;
    }
    
    @keyframes blinkWifi {
      0% {
        fill: #f4eff6;
      }
      40% {
        fill: #9c89ff;
      }
      100% {
        fill: #f4eff6;
      }
    }
  
    .tvline1{
      stroke-width:0;
      animation: 1.5s ease-in-out .3s infinite strokeWay;
    }
    .tvline2{
      stroke-width:0;
      animation: 1.5s ease-in-out .6s infinite strokeWay;
    }
    .tvline3{
      stroke-width:0;
      animation: 1.5s ease-in-out .9s infinite strokeWay;
    }
    .tvline4{
      stroke-width:0;
      animation: 1.5s ease-in-out 1.2s infinite strokeWay;
    }
    
    @keyframes strokeWay {
      to {
       stroke-dashoffset: 1000;
        stroke-width:1.06;
      }
    }


  </style>


</svg>
