<svg width="570" height="536" viewBox="0 0 570 536" fill="none"
  xmlns="http://www.w3.org/2000/svg">
  <g clip-path="url(#clip0_208)">
    <g opacity="0.61">
      <path opacity="0.41" d="M176.868 334.238L163.014 342.232C160.702 343.558 160.686 346.883 162.981 348.243L194.002 367.685C195.084 368.324 196.445 368.34 197.527 367.702L322.264 295.763C324.576 294.436 324.593 291.111 322.297 289.752L290.326 269.736L289.522 269.261L282.439 273.34L192.493 325.213L176.868 334.238Z" fill="#FCFCFC"/>
      <path opacity="0.4213" d="M177.54 334.156L163.817 342.084C161.522 343.411 161.506 346.703 163.785 348.046L194.444 367.259C195.526 367.898 196.854 367.914 197.937 367.276L321.51 296.009C323.806 294.682 323.822 291.39 321.543 290.047L289.932 270.26L289.129 269.785L282.112 273.831L193.001 325.23L177.54 334.156Z" fill="#FBFBFB"/>
      <path opacity="0.4327" d="M178.213 334.058L164.604 341.904C162.342 343.214 162.309 346.474 164.572 347.817L194.871 366.801C195.936 367.439 197.264 367.439 198.33 366.817L320.74 296.222C323.002 294.911 323.035 291.652 320.772 290.309L289.539 270.768L288.752 270.293L281.8 274.306L193.526 325.213L178.213 334.058Z" fill="#FAFAFA"/>
      <path opacity="0.444" d="M178.885 333.96L165.408 341.724C163.162 343.018 163.145 346.245 165.375 347.571L195.33 366.326C196.379 366.948 197.691 366.964 198.756 366.342L320.002 296.418C322.248 295.124 322.264 291.898 320.035 290.571L289.162 271.276L288.375 270.801L281.489 274.765L194.067 325.197L178.885 333.96Z" fill="#F9F9F9"/>
      <path opacity="0.4554" d="M179.557 333.862L166.211 341.56C163.981 342.838 163.965 346.048 166.178 347.358L195.772 365.883C196.822 366.506 198.117 366.506 199.166 365.9L319.248 296.648C321.477 295.37 321.494 292.16 319.28 290.849L288.768 271.784L287.981 271.325L281.161 275.256L194.575 325.197L179.557 333.862Z" fill="#F8F8F8"/>
      <path opacity="0.4667" d="M180.229 333.763L167.014 341.38C164.817 342.657 164.785 345.819 166.982 347.113L196.215 365.392C197.248 366.014 198.543 366.014 199.576 365.408L318.477 296.828C320.674 295.55 320.707 292.389 318.51 291.095L288.375 272.275L287.604 271.816L280.849 275.715L195.1 325.164L180.229 333.763Z" fill="#F7F7F7"/>
      <path opacity="0.4781" d="M180.918 333.665L167.834 341.216C165.654 342.477 165.637 345.606 167.801 346.9L196.674 364.95C197.707 365.556 198.969 365.572 200.002 364.966L317.739 297.057C319.92 295.796 319.936 292.667 317.772 291.373L287.998 272.783L287.227 272.324L280.538 276.173L195.641 325.148L180.918 333.665Z" fill="#F6F6F6"/>
      <path opacity="0.4894" d="M181.59 333.583L168.638 341.052C166.473 342.297 166.457 345.409 168.605 346.67L197.117 364.491C198.133 365.097 199.396 365.097 200.412 364.508L316.985 297.27C319.149 296.025 319.166 292.913 317.018 291.652L287.62 273.307L286.866 272.865L280.242 276.681L196.182 325.164L181.59 333.583Z" fill="#F5F5F5"/>
      <path opacity="0.5008" d="M182.262 333.485L169.441 340.888C167.31 342.117 167.277 345.196 169.408 346.457L197.559 364.049C198.56 364.638 199.822 364.655 200.822 364.065L316.231 297.499C318.362 296.271 318.395 293.192 316.264 291.93L287.227 273.815L286.473 273.372L279.915 277.156L196.691 325.164L182.262 333.485Z" fill="#F4F4F4"/>
      <path opacity="0.5121" d="M182.935 333.387L170.244 340.708C168.129 341.937 168.113 344.967 170.212 346.228L198.002 363.574C199.002 364.163 200.232 364.18 201.232 363.59L315.477 297.696C317.592 296.467 317.608 293.437 315.509 292.176L286.833 274.306L286.096 273.864L279.619 277.598L197.248 325.131L182.935 333.387Z" fill="#F3F3F3"/>
      <path opacity="0.5235" d="M183.607 333.288L171.048 340.528C168.949 341.74 168.933 344.754 171.015 345.982L198.461 363.115C199.445 363.705 200.675 363.705 201.658 363.132L314.739 297.909C316.837 296.697 316.854 293.683 314.772 292.454L286.473 274.814L285.735 274.372L279.324 278.073L197.773 325.131L183.607 333.288Z" fill="#F2F2F2"/>
      <path opacity="0.5348" d="M184.279 333.19L171.851 340.364C169.785 341.56 169.753 344.541 171.818 345.77L198.904 362.657C199.871 363.23 201.085 363.246 202.068 362.673L313.985 298.122C316.05 296.926 316.083 293.945 314.017 292.717L286.079 275.322L285.358 274.896L279.013 278.565L198.314 325.115L184.279 333.19Z" fill="#F1F1F1"/>
      <path opacity="0.5462" d="M184.951 333.108L172.638 340.201C170.589 341.38 170.572 344.328 172.605 345.54L199.33 362.198C200.298 362.771 201.494 362.788 202.462 362.214L313.214 298.335C315.263 297.155 315.28 294.207 313.247 292.995L285.669 275.829L284.948 275.404L278.668 279.023L198.822 325.099L184.951 333.108Z" fill="#F0F0F0"/>
      <path opacity="0.5575" d="M185.64 333.01L173.458 340.037C171.425 341.2 171.408 344.132 173.425 345.327L199.789 361.756C200.74 362.329 201.937 362.329 202.888 361.772L312.46 298.564C314.493 297.401 314.509 294.469 312.493 293.274L285.292 276.354L284.587 275.928L278.373 279.515L199.363 325.082L185.64 333.01Z" fill="#EFEFEF"/>
      <path opacity="0.5688" d="M186.312 332.912L174.261 339.857C172.261 341.019 172.228 343.902 174.229 345.082L200.248 361.281C201.199 361.838 202.363 361.854 203.314 361.297L311.722 298.761C313.722 297.598 313.755 294.715 311.755 293.536L284.915 276.845L284.21 276.419L278.062 279.973L199.888 325.066L186.312 332.912Z" fill="#EEEEEE"/>
      <path opacity="0.5802" d="M186.984 332.813L175.065 339.693C173.081 340.839 173.064 343.689 175.032 344.869L200.691 360.839C201.626 361.395 202.79 361.395 203.724 360.855L310.968 299.006C312.952 297.86 312.968 295.01 311.001 293.83L284.522 277.385L283.833 276.976L277.75 280.481L200.412 325.082L186.984 332.813Z" fill="#EDEDED"/>
      <path opacity="0.5915" d="M187.657 332.715L175.868 339.513C173.901 340.643 173.884 343.476 175.835 344.639L201.134 360.38C202.052 360.937 203.2 360.937 204.134 360.396L310.214 299.219C312.181 298.089 312.197 295.255 310.246 294.092L284.145 277.877L283.456 277.467L277.439 280.94L200.937 325.066L187.657 332.715Z" fill="#ECECEC"/>
      <path opacity="0.6029" d="M188.329 332.633L176.671 339.365C174.72 340.479 174.704 343.28 176.639 344.426L201.576 359.921C202.495 360.462 203.626 360.478 204.544 359.938L309.459 299.432C311.41 298.318 311.427 295.517 309.492 294.371L283.751 278.401L283.062 277.991L277.111 281.431L201.462 325.066L188.329 332.633Z" fill="#EBEBEB"/>
      <path opacity="0.6142" d="M189.001 332.535L177.475 339.185C175.557 340.299 175.54 343.051 177.442 344.197L202.019 359.463C202.921 360.003 204.052 360.003 204.954 359.479L308.705 299.645C310.624 298.531 310.64 295.78 308.738 294.633L283.374 278.892L282.702 278.499L276.816 281.89L202.003 325.033L189.001 332.535Z" fill="#EAEAEA"/>
      <path opacity="0.6256" d="M189.673 332.437L178.278 339.005C176.376 340.102 176.36 342.838 178.245 343.951L202.462 358.988C203.347 359.512 204.462 359.528 205.364 359.004L307.951 299.842C309.853 298.744 309.869 296.009 307.984 294.895L282.981 279.384L282.308 278.991L276.488 282.348L202.511 325.017L189.673 332.437Z" fill="#E9E9E9"/>
      <path opacity="0.6369" d="M190.362 332.338L179.098 338.841C177.213 339.922 177.196 342.625 179.065 343.738L202.921 358.545C203.806 359.07 204.905 359.086 205.79 358.562L307.213 300.071C309.099 298.99 309.115 296.287 307.246 295.174L282.603 279.908L281.948 279.515L276.193 282.84L203.068 325.017L190.362 332.338Z" fill="#E8E8E8"/>
      <path opacity="0.6483" d="M191.034 332.24L179.901 338.661C178.049 339.725 178.032 342.395 179.869 343.493L203.38 358.07C204.249 358.595 205.331 358.595 206.216 358.087L306.459 300.267C308.312 299.203 308.328 296.533 306.492 295.436L282.226 280.399L281.571 280.006L275.881 283.282L203.577 325L191.034 332.24Z" fill="#E7E7E7"/>
      <path opacity="0.6596" d="M191.706 332.158L180.688 338.513C178.852 339.578 178.836 342.215 180.656 343.296L203.806 357.644C204.675 358.152 205.741 358.169 206.61 357.661L305.688 300.513C307.525 299.448 307.541 296.811 305.721 295.73L281.816 280.94L281.177 280.563L275.553 283.806L204.101 325.017L191.706 332.158Z" fill="#E6E6E6"/>
      <path opacity="0.671" d="M192.378 332.06L181.492 338.333C179.672 339.382 179.655 341.986 181.459 343.051L204.249 357.153C205.101 357.661 206.167 357.661 207.02 357.17L304.934 300.693C306.754 299.645 306.771 297.041 304.967 295.976L281.423 281.415L280.784 281.038L275.225 284.248L204.61 324.968L192.378 332.06Z" fill="#E5E5E5"/>
      <path opacity="0.6823" d="M193.051 331.962L182.295 338.169C180.508 339.201 180.492 341.773 182.262 342.838L204.692 356.711C205.528 357.219 206.577 357.219 207.43 356.727L304.18 300.923C305.967 299.891 305.984 297.319 304.213 296.254L281.046 281.939L280.423 281.562L274.93 284.723L205.167 324.968L193.051 331.962Z" fill="#E4E4E4"/>
      <path opacity="0.6937" d="M193.723 331.863L183.099 337.989C181.328 339.005 181.311 341.56 183.066 342.608L205.134 356.252C205.97 356.744 207.003 356.76 207.839 356.269L303.426 301.136C305.197 300.12 305.213 297.565 303.459 296.517L280.652 282.43L280.029 282.053L274.602 285.182L205.692 324.968L193.723 331.863Z" fill="#E3E3E3"/>
      <path opacity="0.705" d="M194.395 331.765L183.902 337.809C182.148 338.825 182.131 341.331 183.869 342.363L205.593 355.777C206.413 356.269 207.446 356.269 208.266 355.794L302.688 301.332C304.442 300.317 304.459 297.81 302.721 296.779L280.275 282.938L279.669 282.578L274.307 285.673L206.216 324.951L194.395 331.765Z" fill="#E3E3E3"/>
      <path opacity="0.7163" d="M195.084 331.683L184.722 337.662C183 338.661 182.984 341.15 184.689 342.166L206.052 355.351C206.872 355.826 207.872 355.843 208.692 355.368L301.95 301.578C303.672 300.579 303.688 298.089 301.983 297.073L279.915 283.462L279.308 283.102L274.012 286.148L206.774 324.935L195.084 331.683Z" fill="#E2E2E2"/>
      <path opacity="0.7277" d="M195.756 331.585L185.525 337.482C183.82 338.464 183.804 340.921 185.492 341.92L206.495 354.876C207.298 355.351 208.299 355.368 209.102 354.893L301.196 301.774C302.901 300.792 302.918 298.335 301.229 297.336L279.521 283.97L278.931 283.61L273.701 286.623L207.298 324.918L195.756 331.585Z" fill="#E1E1E1"/>
      <path opacity="0.739" d="M196.428 331.487L186.328 337.318C184.64 338.284 184.623 340.708 186.296 341.707L206.938 354.418C207.725 354.893 208.708 354.893 209.512 354.434L300.425 301.987C302.114 301.021 302.131 298.597 300.458 297.598L279.128 284.461L278.537 284.117L273.373 287.098L207.807 324.919L196.428 331.487Z" fill="#E0E0E0"/>
      <path opacity="0.7504" d="M197.1 331.388L187.132 337.138C185.476 338.104 185.459 340.495 187.099 341.462L207.38 353.943C208.167 354.401 209.135 354.418 209.922 353.959L299.671 302.184C301.327 301.217 301.344 298.826 299.704 297.86L278.734 284.969L278.144 284.625L273.045 287.557L208.315 324.886L197.1 331.388Z" fill="#DFDFDF"/>
      <path opacity="0.7617" d="M197.773 331.29L187.935 336.974C186.296 337.924 186.279 340.282 187.902 341.249L207.839 353.5C208.61 353.959 209.577 353.959 210.348 353.517L298.933 302.429C300.573 301.479 300.589 299.121 298.966 298.154L278.357 285.493L277.783 285.149L272.75 288.048L208.872 324.886L197.773 331.29Z" fill="#DEDEDE"/>
      <path opacity="0.7731" d="M198.445 331.208L188.739 336.81C187.115 337.744 187.099 340.069 188.706 341.036L208.282 353.058C209.036 353.517 209.987 353.517 210.758 353.075L298.179 302.659C299.802 301.725 299.819 299.399 298.212 298.433L277.98 286.017L277.406 285.673L272.438 288.54L209.397 324.902L198.445 331.208Z" fill="#DDDDDD"/>
      <path opacity="0.7844" d="M199.117 331.11L189.526 336.646C187.935 337.563 187.919 339.873 189.493 340.806L208.708 352.6C209.463 353.042 210.397 353.058 211.151 352.616L297.409 302.872C298.999 301.955 299.015 299.645 297.441 298.711L277.57 286.525L277.013 286.198L272.11 289.015L209.905 324.886L199.117 331.11Z" fill="#DCDCDC"/>
      <path opacity="0.7958" d="M199.806 331.012L190.345 336.466C188.771 337.367 188.755 339.644 190.313 340.577L209.168 352.141C209.905 352.583 210.823 352.583 211.578 352.157L296.671 303.085C298.245 302.184 298.261 299.907 296.704 298.974L277.193 287.033L276.635 286.705L271.799 289.49L210.446 324.886L199.806 331.012Z" fill="#DBDBDB"/>
      <path opacity="0.8071" d="M200.478 330.913L191.149 336.286C189.591 337.187 189.575 339.414 191.116 340.331L209.61 351.65C210.348 352.092 211.25 352.092 211.988 351.666L295.917 303.265C297.474 302.364 297.491 300.136 295.949 299.219L276.816 287.508L276.275 287.18L271.504 289.932L210.987 324.837L200.478 330.913Z" fill="#DADADA"/>
      <path opacity="0.8185" d="M201.15 330.815L191.952 336.122C190.427 337.006 190.411 339.218 191.919 340.119L210.053 351.207C210.774 351.633 211.676 351.65 212.397 351.224L295.162 303.494C296.687 302.61 296.704 300.398 295.195 299.498L276.422 288.032L275.881 287.721L271.192 290.423L211.512 324.837L201.15 330.815Z" fill="#D9D9D9"/>
      <path opacity="0.8298" d="M201.822 330.733L192.756 335.958C191.247 336.826 191.231 339.005 192.723 339.889L210.512 350.749C211.217 351.175 212.102 351.175 212.824 350.765L294.408 303.707C295.917 302.839 295.933 300.66 294.441 299.776L276.029 288.54L275.504 288.229L270.881 290.898L212.037 324.837L201.822 330.733Z" fill="#D8D8D8"/>
      <path opacity="0.8412" d="M202.495 330.635L193.559 335.778C192.067 336.63 192.051 338.775 193.526 339.66L210.955 350.29C211.66 350.7 212.529 350.716 213.234 350.307L293.654 303.92C295.146 303.068 295.162 300.923 293.687 300.038L275.652 289.048L275.127 288.736L270.569 291.373L212.578 324.82L202.495 330.635Z" fill="#D7D7D7"/>
      <path opacity="0.8525" d="M203.167 330.537L194.362 335.614C192.887 336.466 192.887 338.579 194.33 339.431L211.397 349.832C212.086 350.241 212.939 350.241 213.644 349.848L292.9 304.133C294.375 303.281 294.375 301.168 292.933 300.317L275.258 289.555L274.75 289.244L270.258 291.832L213.102 324.804L203.167 330.537Z" fill="#D6D6D6"/>
      <path opacity="0.8638" d="M203.839 330.438L195.166 335.45C193.723 336.286 193.707 338.366 195.133 339.218L211.84 349.389C212.512 349.799 213.365 349.799 214.053 349.406L292.146 304.362C293.588 303.527 293.605 301.447 292.178 300.595L274.881 290.08L274.373 289.785L269.946 292.34L213.627 324.804L203.839 330.438Z" fill="#D5D5D5"/>
      <path opacity="0.8752" d="M204.528 330.34L195.985 335.27C194.559 336.089 194.543 338.137 195.953 338.988L212.299 348.931C212.971 349.324 213.807 349.34 214.48 348.947L291.408 304.575C292.834 303.756 292.851 301.709 291.441 300.857L274.504 290.571L274.012 290.276L269.651 292.798L214.185 324.787L204.528 330.34Z" fill="#D4D4D4"/>
      <path opacity="0.8865" d="M205.2 330.258L196.789 335.106C195.379 335.909 195.379 337.94 196.772 338.759L212.758 348.456C213.414 348.849 214.234 348.849 214.906 348.472L290.67 304.772C292.08 303.969 292.08 301.938 290.686 301.119L274.111 291.079L273.619 290.784L269.323 293.257L214.693 324.771L205.2 330.258Z" fill="#D3D3D3"/>
      <path opacity="0.8979" d="M205.872 330.16L197.576 334.943C196.199 335.745 196.182 337.727 197.559 338.546L213.201 348.013C213.857 348.407 214.66 348.407 215.316 348.03L289.916 305.001C291.293 304.199 291.31 302.217 289.932 301.398L273.733 291.586L273.242 291.292L269.011 293.732L215.218 324.771L205.872 330.16Z" fill="#D2D2D2"/>
      <path opacity="0.9092" d="M206.544 330.062L198.379 334.763C197.018 335.549 197.002 337.498 198.363 338.3L213.644 347.538C214.283 347.915 215.086 347.932 215.726 347.555L289.162 305.198C290.522 304.411 290.539 302.462 289.178 301.66L273.34 292.094L272.864 291.816L268.7 294.223L215.742 324.771L206.544 330.062Z" fill="#D1D1D1"/>
      <path opacity="0.9206" d="M207.216 329.963L199.183 334.599C197.838 335.369 197.838 337.301 199.166 338.088L214.086 347.096C214.709 347.473 215.496 347.473 216.136 347.113L288.391 305.427C289.736 304.657 289.735 302.724 288.407 301.938L272.93 292.602L272.455 292.323L268.356 294.682L216.25 324.738L207.216 329.963Z" fill="#D0D0D0"/>
      <path opacity="0.9319" d="M207.889 329.865L199.986 334.418C198.674 335.172 198.658 337.072 199.97 337.842L214.529 346.621C215.152 346.982 215.923 346.998 216.546 346.638L287.637 305.623C288.948 304.87 288.965 302.97 287.653 302.2L272.553 293.11L272.094 292.831L268.061 295.157L216.791 324.722L207.889 329.865Z" fill="#CFCFCF"/>
      <path opacity="0.9433" d="M208.561 329.767L200.789 334.255C199.494 335.008 199.478 336.859 200.773 337.629L214.972 346.179C215.578 346.539 216.332 346.539 216.955 346.195L286.883 305.869C288.178 305.116 288.194 303.265 286.899 302.495L272.159 293.634L271.7 293.372L267.733 295.665L217.3 324.755L208.561 329.767Z" fill="#CECECE"/>
      <path opacity="0.9546" d="M209.233 329.685L201.593 334.091C200.314 334.828 200.314 336.663 201.576 337.416L215.431 345.72C216.037 346.081 216.775 346.081 217.382 345.737L286.145 306.082C287.424 305.345 287.424 303.511 286.161 302.757L271.799 294.142L271.356 293.88L267.454 296.123L217.874 324.722L209.233 329.685Z" fill="#CDCDCD"/>
      <path opacity="0.966" d="M209.922 329.587L202.413 333.927C201.166 334.648 201.15 336.45 202.396 337.187L215.89 345.262C216.48 345.606 217.218 345.622 217.808 345.278L285.407 306.295C286.653 305.574 286.67 303.773 285.423 303.036L271.422 294.649L270.979 294.387L267.142 296.598L218.398 324.706L209.922 329.587Z" fill="#CCCCCC"/>
      <path opacity="0.9773" d="M210.594 329.488L203.216 333.747C201.986 334.451 201.97 336.22 203.2 336.957L216.332 344.803C216.906 345.147 217.628 345.147 218.218 344.819L284.653 306.508C285.883 305.804 285.899 304.035 284.669 303.298L271.028 295.157L270.602 294.895L266.831 297.073L218.923 324.706L210.594 329.488Z" fill="#CBCBCB"/>
      <path opacity="0.9887" d="M211.266 329.39L204.019 333.567C202.806 334.271 202.806 336.007 204.003 336.712L216.775 344.328C217.349 344.672 218.054 344.672 218.628 344.345L283.899 306.705C285.112 306 285.112 304.264 283.915 303.56L270.651 295.649L270.225 295.403L266.519 297.532L219.448 324.673L211.266 329.39Z" fill="#CACACA"/>
      <path opacity="0.61" d="M211.938 329.292L204.823 333.403C203.642 334.091 203.626 335.794 204.806 336.499L217.218 343.886C217.775 344.213 218.464 344.23 219.038 343.902L283.144 306.934C284.325 306.246 284.341 304.542 283.161 303.838L270.258 296.173L269.848 295.927L266.208 298.023L219.972 324.673L211.938 329.292Z" fill="#C9C9C9"/>
    </g>
    <path d="M300.245 265.248L299.425 264.347C300.622 266.133 300.311 268.278 298.261 269.458L203.282 324.525C202.052 325.23 200.543 325.23 199.33 324.493L183.049 314.812C180.77 313.453 180.541 310.374 182.344 308.654L180.229 309.997C178.836 312.241 179.491 317.515 180.393 319.513L199.347 330.668C200.56 331.388 202.085 331.405 203.298 330.7L298.179 276.075C300.737 274.585 302.295 268.426 300.245 265.248Z" fill="url(#paint0_linear_208)"/>
    <path d="M191.936 302.823L181.18 309.031C179.393 310.062 179.377 312.65 181.147 313.699L199.904 324.853C200.74 325.361 201.79 325.361 202.642 324.869L299.507 268.999C301.294 267.967 301.311 265.379 299.54 264.331L280.046 252.735L279.423 252.358L273.93 255.535L204.085 295.812L191.936 302.823Z" fill="url(#paint1_linear_208)"/>
    <path d="M153.455 294.453L153.439 290.047L153.423 284.412L153.406 278.516L153.111 177.373C153.095 172.361 156.669 166.186 161.03 163.663L322.1 70.759C323.199 70.1202 324.248 69.7763 325.199 69.6944C325.675 69.6452 326.117 69.678 326.527 69.7599C326.527 69.7599 326.527 69.7599 326.544 69.7599C326.986 69.8418 327.38 69.9892 327.757 70.2021L320.018 65.4521C318.575 64.6168 316.575 64.7314 314.378 65.9926L153.324 158.913C148.947 161.435 145.389 167.611 145.405 172.623L145.684 273.766L145.7 279.662L145.717 285.297L145.733 289.703C145.733 292.192 146.635 293.961 148.061 294.78C151.881 297.008 151.963 297.303 155.783 299.514C154.357 298.695 153.472 296.942 153.455 294.453Z" fill="url(#paint2_linear_208)"/>
    <path d="M278.832 231.294L278.85 231.277H278.832V231.294Z" fill="#082C44"/>
    <path d="M280.39 259.319L280.931 268.983L203.216 313.813L280.947 268.983L280.406 259.319L280.39 259.302V259.319Z" fill="#082C44"/>
    <path d="M192.969 280.809L192.214 296.877L191.936 302.823L191.723 307.147L203.216 313.813L203.691 303.56L204.052 295.829L205.101 273.815L192.969 280.809Z" fill="url(#paint3_linear_208)"/>
    <path d="M280.39 259.319V259.303L280.029 252.751L278.832 231.294V231.277L205.101 273.815L204.052 295.829L203.691 303.56L203.216 313.813L280.931 268.983L280.39 259.319Z" fill="url(#paint4_linear_208)"/>
    <path d="M330.413 187.97L330.397 182.336L330.38 176.439L330.101 75.2962C330.101 72.1677 328.691 70.1858 326.576 69.7599C326.576 69.7599 326.576 69.7599 326.56 69.7599C326.134 69.678 325.691 69.6616 325.232 69.6944C324.281 69.7763 323.232 70.1203 322.133 70.7591L161.046 163.647C156.669 166.169 153.111 172.344 153.127 177.356L153.422 278.499L153.439 284.396L153.455 290.03L153.472 294.436C153.472 296.926 154.373 298.679 155.8 299.514C155.8 299.514 155.8 299.514 155.816 299.514C157.259 300.349 159.259 300.251 161.456 298.973L192.985 280.792L205.118 273.798L278.849 231.277H278.865L322.527 206.086C326.904 203.563 330.462 197.388 330.446 192.376L330.413 187.97Z" fill="url(#paint5_linear_208)"/>
    <path d="M278.832 231.277L205.101 273.815L278.832 231.277Z" fill="#134169"/>
    <path d="M323.707 82.7979C323.691 79.7841 321.559 78.5556 318.92 80.0789L164.276 169.265C161.653 170.788 159.505 174.473 159.522 177.504L159.784 278.466C159.8 282.856 164.539 285.575 168.342 283.38L321.133 195.259C322.904 194.243 323.986 192.343 323.986 190.312L323.707 82.7979Z" fill="url(#paint6_linear_208)"/>
    <path class="tvline1" d="M245.353 211.36C248.861 209.329 251.714 210.967 251.73 214.996C251.747 219.026 248.91 223.939 245.402 225.97C241.893 228.001 239.04 226.364 239.024 222.334C239.008 218.288 241.828 213.375 245.353 211.36Z" stroke="url(#paint7_linear_208)" stroke-width="1.06" stroke-miterlimit="10"/>
    <path class="tvline2" d="M245.353 188.986C252.206 185.038 259.043 184.056 263.978 187.118C261.715 191.05 259.436 194.964 257.108 198.977C253.846 197.323 249.911 197.634 245.32 200.288C240.696 202.974 236.811 207.15 233.515 212.687C233.203 212.556 232.958 212.441 232.712 212.31C230.646 211.18 228.58 210.05 226.498 208.936C231.515 199.993 238.45 192.966 245.353 188.986Z" stroke="url(#paint8_linear_208)" stroke-width="1.06" stroke-miterlimit="10"/>
    <path class="tvline3" d="M245.205 164.941C257.305 157.963 269.553 156.112 278.849 161.534C276.537 165.53 274.291 169.412 271.979 173.425C264.519 169.527 255.649 170.248 245.287 176.226C234.909 182.205 226.039 191.705 218.677 204.137C216.349 202.794 214.07 201.5 211.774 200.206C220.579 184.58 232.826 172.082 245.205 164.941Z" stroke="url(#paint9_linear_208)" stroke-width="1.06" stroke-miterlimit="10"/>
    <path class="tvline4" d="M245.517 140.06C263.978 129.414 280.111 128.071 294.015 135.065C291.605 139.258 289.342 143.189 287.079 147.12C275.783 140.535 260.584 142.648 245.303 151.46C230.203 160.174 215.021 175.44 203.445 195.374C201.183 194.047 198.92 192.704 196.527 191.312C208.135 171.591 222.104 155.67 238.466 144.516C240.844 142.878 243.205 141.403 245.517 140.06Z" stroke="url(#paint10_linear_208)" stroke-width="1.06" stroke-miterlimit="10"/>

    <g class="wifi">
      <path d="M455.069 166.398C451.429 164.302 448.117 164.105 445.74 165.481L421.72 179.42C424.097 178.028 427.409 178.241 431.049 180.337C438.296 184.514 444.149 194.637 444.116 202.957C444.1 207.085 442.641 209.984 440.296 211.36L464.316 197.421C466.677 196.062 468.136 193.146 468.136 189.018C468.152 180.698 462.299 170.575 455.069 166.398Z" fill="url(#paint11_linear_208)"/>
      <path class="lineb1" d="M431.049 180.337C438.296 184.514 444.149 194.637 444.116 202.957C444.1 211.262 438.198 214.619 430.967 210.443C423.72 206.266 417.867 196.143 417.9 187.823C417.916 179.502 423.802 176.161 431.049 180.337Z" fill="#CEF4FB"/>
      <path d="M455.331 120.421C441.362 112.363 427.327 110.25 416.949 116.277L392.946 130.216C403.324 124.189 417.359 126.302 431.328 134.36C445.461 142.517 459.512 156.751 469.661 174.801L493.68 160.862C483.531 142.796 469.464 128.562 455.331 120.421Z" fill="url(#paint12_linear_208)"/>
      <path class="lineb2" d="M431.328 134.36C445.461 142.517 459.512 156.751 469.661 174.801C464.939 177.471 460.233 180.124 455.38 182.843C448.691 171.705 440.624 163.041 431.148 157.57C421.589 152.116 413.539 151.444 406.685 154.982C406.062 153.967 405.538 153.148 405.046 152.312C400.799 145.072 396.553 137.849 392.323 130.609C402.75 124.107 417.08 126.138 431.328 134.36Z" fill="url(#paint13_linear_208)"/>
      <path class="lineb3" d="M431.311 84.5341C456.282 98.9316 481.449 124.205 500.517 157.455C495.73 160.191 491.057 162.844 486.253 165.579C470.972 139.847 452.708 120.258 431.328 107.908C409.932 95.5575 391.585 94.0014 376.288 102.06C371.517 93.7885 366.828 85.6807 362.155 77.5729C380.452 66.4676 405.767 69.809 431.311 84.5341Z" fill="url(#paint14_linear_208)"/>
      <path d="M455.315 70.5953C430.115 56.0667 405.144 52.6107 386.912 63.1918L362.893 77.1307C381.125 66.5495 406.111 70.0056 431.295 84.5342C456.266 98.9317 481.433 124.205 500.501 157.455L524.52 143.516C505.469 110.266 480.285 84.9928 455.315 70.5953Z" fill="url(#paint15_linear_208)"/>
      <path d="M456.216 20.1958C451.445 17.4441 446.592 14.9053 441.673 12.5794C407.915 -3.32502 379.01 -3.80002 354.908 9.1561L330.888 23.095C354.99 10.1389 383.895 10.5975 417.654 26.5183C422.573 28.8442 427.426 31.383 432.197 34.1347C470.3 56.1159 503.469 91.6592 531.964 139.061L555.984 125.122C527.488 77.7203 494.336 42.177 456.216 20.1958Z" fill="url(#paint16_linear_208)"/>
      <path class="lineb4" d="M432.213 34.1347C470.317 56.1159 503.485 91.6592 531.981 139.061C526.963 141.96 522.291 144.679 517.585 147.382C494.451 107.023 463.168 75.2471 431.656 57.0659C400.504 39.0977 369.107 34.4132 345.071 47.8934C340.431 39.7856 335.807 31.6942 330.888 23.1114C354.99 10.1553 383.895 10.6139 417.654 26.5347C422.589 28.8442 427.442 31.383 432.213 34.1347Z" fill="url(#paint17_linear_208)"/>
    </g>




    <g opacity="0.63">
      <g opacity="0.63">
        <g opacity="0.63">
          <path opacity="0.63" d="M288.244 496.493L222.776 534.493C219.366 536.475 215.152 536.475 211.742 534.509L108.482 474.954C101.153 470.728 101.137 460.18 108.449 455.921L173.917 417.921C177.327 415.939 181.541 415.939 184.951 417.904L288.211 477.46C295.54 481.702 295.556 492.251 288.244 496.493Z" fill="white"/>
        </g>
      </g>
      <g opacity="0.63">
        <g opacity="0.63">
          <path opacity="0.63" d="M287.489 496.231L222.628 533.887C219.251 535.853 215.086 535.852 211.692 533.903L109.4 474.905C102.137 470.712 102.137 460.262 109.368 456.052L174.229 418.396C177.606 416.43 181.771 416.43 185.164 418.379L287.457 477.378C294.72 481.571 294.736 492.038 287.489 496.231Z" fill="#FEFEFE"/>
        </g>
      </g>
      <g opacity="0.63">
        <g opacity="0.63">
          <path opacity="0.63" d="M286.735 495.985L222.481 533.281C219.136 535.23 215.004 535.23 211.66 533.297L110.335 474.839C103.154 470.695 103.137 460.327 110.302 456.167L174.556 418.871C177.901 416.922 182.033 416.922 185.378 418.854L286.719 477.296C293.9 481.457 293.916 491.808 286.735 495.985Z" fill="#FCFCFC"/>
        </g>
      </g>
      <g opacity="0.63">
        <g opacity="0.63">
          <path opacity="0.63" d="M285.997 495.723L222.35 532.675C219.038 534.591 214.939 534.608 211.627 532.691L111.253 474.79C104.137 470.679 104.121 460.425 111.22 456.298L174.852 419.346C178.163 417.429 182.262 417.413 185.574 419.329L285.948 477.231C293.08 481.342 293.097 491.595 285.997 495.723Z" fill="#FBFBFB"/>
        </g>
      </g>
      <g opacity="0.63">
        <g opacity="0.63">
          <path opacity="0.63" d="M285.243 495.461L222.218 532.053C218.939 533.953 214.89 533.969 211.594 532.069L112.171 474.725C105.121 470.662 105.105 460.491 112.138 456.412L175.163 419.821C178.442 417.921 182.492 417.904 185.787 419.804L285.21 477.149C292.26 481.211 292.277 491.382 285.243 495.461Z" fill="#F9F9F9"/>
        </g>
      </g>
      <g opacity="0.63">
        <g opacity="0.63">
          <path opacity="0.63" d="M284.489 495.199L222.071 531.446C218.825 533.33 214.808 533.347 211.561 531.463L113.089 474.675C106.105 470.646 106.088 460.589 113.057 456.543L175.475 420.296C178.721 418.412 182.738 418.396 185.984 420.279L284.44 477.067C291.441 481.096 291.457 491.153 284.489 495.199Z" fill="#F8F8F8"/>
        </g>
      </g>
      <g opacity="0.63">
        <g opacity="0.63">
          <path opacity="0.63" d="M283.735 494.953L221.923 530.84C218.71 532.708 214.726 532.708 211.512 530.857L114.024 474.626C107.105 470.63 107.089 460.671 113.991 456.658L175.803 420.771C179.016 418.904 183 418.904 186.214 420.754L283.702 476.985C290.621 480.965 290.637 490.94 283.735 494.953Z" fill="#F7F7F7"/>
        </g>
      </g>
      <g opacity="0.63">
        <g opacity="0.63">
          <path opacity="0.63" d="M282.981 494.691L221.776 530.218C218.595 532.069 214.66 532.069 211.463 530.234L114.926 474.561C108.072 470.613 108.072 460.737 114.893 456.773L176.098 421.246C179.278 419.395 183.213 419.395 186.41 421.229L282.948 476.903C289.817 480.85 289.817 490.727 282.981 494.691Z" fill="#F5F5F5"/>
        </g>
      </g>
      <g opacity="0.63">
        <g opacity="0.63">
          <path opacity="0.63" d="M282.243 494.429L221.645 529.612C218.497 531.446 214.594 531.446 211.43 529.628L115.86 474.495C109.089 470.581 109.072 460.818 115.827 456.887L176.426 421.704C179.573 419.87 183.476 419.87 186.64 421.688L282.21 476.805C288.998 480.736 288.998 490.498 282.243 494.429Z" fill="#F4F4F4"/>
        </g>
      </g>
      <g opacity="0.63">
        <g opacity="0.63">
          <path opacity="0.63" d="M281.489 494.167L221.497 528.99C218.382 530.808 214.513 530.808 211.397 529.006L116.778 474.43C110.073 470.564 110.056 460.884 116.762 457.002L176.753 422.179C179.869 420.361 183.738 420.361 186.853 422.163L281.472 476.739C288.178 480.605 288.178 490.285 281.489 494.167Z" fill="#F3F3F3"/>
        </g>
      </g>
      <g opacity="0.63">
        <g opacity="0.63">
          <path opacity="0.63" d="M280.734 493.921L221.366 528.4C218.267 530.202 214.463 530.202 211.365 528.416L117.713 474.397C111.073 470.564 111.056 460.999 117.697 457.15L177.065 422.671C180.164 420.869 183.968 420.869 187.066 422.654L280.718 476.674C287.358 480.49 287.375 490.056 280.734 493.921Z" fill="#F1F1F1"/>
        </g>
      </g>
      <g opacity="0.63">
        <g opacity="0.63">
          <path opacity="0.63" d="M279.98 493.659L221.218 527.777C218.152 529.546 214.381 529.563 211.315 527.794L118.631 474.331C112.056 470.531 112.04 461.064 118.615 457.248L177.376 423.129C180.442 421.36 184.213 421.344 187.279 423.113L279.964 476.575C286.538 480.375 286.555 489.843 279.98 493.659Z" fill="#F0F0F0"/>
        </g>
      </g>
      <g opacity="0.63">
        <g opacity="0.63">
          <path opacity="0.63" d="M279.226 493.397L221.071 527.155C218.038 528.908 214.299 528.924 211.266 527.171L119.533 474.266C113.024 470.515 113.007 461.13 119.516 457.362L177.672 423.604C180.705 421.852 184.443 421.835 187.476 423.588L279.209 476.494C285.719 480.244 285.735 489.63 279.226 493.397Z" fill="#EEEEEE"/>
        </g>
      </g>
      <g opacity="0.63">
        <g opacity="0.63">
          <path opacity="0.63" d="M278.488 493.135L220.94 526.549C217.939 528.285 214.25 528.302 211.25 526.565L120.484 474.217C114.04 470.499 114.04 461.228 120.467 457.493L178.016 424.079C181.016 422.343 184.705 422.327 187.706 424.063L278.472 476.412C284.899 480.13 284.915 489.401 278.488 493.135Z" fill="#EDEDED"/>
        </g>
      </g>
      <g opacity="0.63">
        <g opacity="0.63">
          <path opacity="0.63" d="M277.734 492.873L220.792 525.943C217.824 527.663 214.168 527.663 211.201 525.959L121.385 474.168C115.024 470.499 115.008 461.31 121.369 457.624L178.311 424.571C181.279 422.851 184.935 422.851 187.902 424.554L277.717 476.346C284.079 480.015 284.095 489.188 277.734 492.873Z" fill="#ECECEC"/>
        </g>
      </g>
      <g opacity="0.63">
        <g opacity="0.63">
          <path opacity="0.63" d="M276.98 492.627L220.644 525.337C217.71 527.04 214.086 527.04 211.151 525.353L122.304 474.102C116.008 470.466 115.991 461.392 122.287 457.739L178.623 425.029C181.557 423.326 185.181 423.326 188.116 425.013L276.963 476.264C283.259 479.884 283.276 488.975 276.98 492.627Z" fill="#EAEAEA"/>
        </g>
      </g>
      <g opacity="0.63">
        <g opacity="0.63">
          <path opacity="0.63" d="M276.226 492.365L220.513 524.715C217.611 526.402 214.037 526.402 211.119 524.731L123.238 474.037C117.008 470.433 116.992 461.457 123.222 457.837L178.934 425.488C181.836 423.801 185.41 423.801 188.329 425.472L276.209 476.166C282.439 479.769 282.456 488.745 276.226 492.365Z" fill="#E9E9E9"/>
        </g>
      </g>
      <g opacity="0.63">
        <g opacity="0.63">
          <path opacity="0.63" d="M275.488 492.103L220.382 524.092C217.513 525.763 213.971 525.763 211.102 524.109L124.173 473.971C118.008 470.417 117.992 461.523 124.156 457.952L179.262 425.963C182.131 424.292 185.673 424.292 188.542 425.947L275.471 476.084C281.62 479.638 281.636 488.532 275.488 492.103Z" fill="#E7E7E7"/>
        </g>
      </g>
      <g opacity="0.63">
        <g opacity="0.63">
          <path opacity="0.63" d="M274.734 491.841L220.235 523.486C217.398 525.14 213.889 525.14 211.053 523.503L125.091 473.922C118.992 470.4 118.975 461.621 125.075 458.083L179.573 426.438C182.41 424.784 185.919 424.784 188.755 426.422L274.717 476.002C280.8 479.524 280.816 488.32 274.734 491.841Z" fill="#E6E6E6"/>
        </g>
      </g>
      <g opacity="0.63">
        <g opacity="0.63">
          <path opacity="0.63" d="M273.979 491.595L220.087 522.88C217.283 524.502 213.824 524.518 211.004 522.896L126.009 473.856C119.975 470.384 119.975 461.687 125.993 458.198L179.885 426.913C182.689 425.292 186.148 425.275 188.968 426.897L273.963 475.92C279.98 479.409 279.996 488.09 273.979 491.595Z" fill="#E5E5E5"/>
        </g>
      </g>
      <g opacity="0.63">
        <g opacity="0.63">
          <path opacity="0.63" d="M273.225 491.333L219.939 522.274C217.169 523.879 213.742 523.896 210.955 522.29L126.911 473.824C120.943 470.384 120.943 461.801 126.894 458.345L180.18 427.404C182.951 425.799 186.378 425.783 189.165 427.388L273.209 475.855C279.16 479.278 279.177 487.877 273.225 491.333Z" fill="#E3E3E3"/>
        </g>
      </g>
      <g opacity="0.63">
        <g opacity="0.63">
          <path opacity="0.63" d="M272.471 491.071L219.808 521.652C217.07 523.24 213.676 523.257 210.938 521.668L127.862 473.742C121.976 470.351 121.959 461.85 127.845 458.427L180.524 427.847C183.262 426.258 186.656 426.242 189.394 427.83L272.471 475.756C278.341 479.163 278.357 487.664 272.471 491.071Z" fill="#E2E2E2"/>
        </g>
      </g>
      <g opacity="0.63">
        <g opacity="0.63">
          <path opacity="0.63" d="M271.733 490.809L219.661 521.029C216.955 522.602 213.611 522.602 210.889 521.046L128.764 473.693C122.943 470.335 122.927 461.932 128.747 458.558L180.82 428.338C183.525 426.766 186.87 426.766 189.591 428.322L271.717 475.691C277.521 479.049 277.537 487.435 271.733 490.809Z" fill="#E1E1E1"/>
        </g>
      </g>
      <g opacity="0.63">
        <g opacity="0.63">
          <path opacity="0.63" d="M270.979 490.564L219.53 520.44C216.857 521.996 213.545 521.996 210.856 520.456L129.698 473.644C123.943 470.319 123.927 462.031 129.682 458.689L181.131 428.813C183.804 427.257 187.115 427.257 189.804 428.797L270.963 475.609C276.717 478.918 276.717 487.222 270.979 490.564Z" fill="#DFDFDF"/>
        </g>
      </g>
      <g opacity="0.63">
        <g opacity="0.63">
          <path opacity="0.63" d="M270.225 490.301L219.382 519.817C216.742 521.357 213.463 521.357 210.807 519.833L130.616 473.578C124.927 470.302 124.911 462.096 130.6 458.804L181.443 429.288C184.082 427.748 187.361 427.748 190.018 429.272L270.208 475.527C275.898 478.803 275.898 486.993 270.225 490.301Z" fill="#DEDEDE"/>
        </g>
      </g>
      <g opacity="0.63">
        <g opacity="0.63">
          <path opacity="0.63" d="M269.471 490.039L219.234 519.211C216.611 520.734 213.398 520.734 210.774 519.227L131.534 473.529C125.911 470.286 125.911 462.194 131.518 458.935L181.754 429.763C184.377 428.24 187.591 428.24 190.214 429.747L269.454 475.445C275.078 478.688 275.078 486.78 269.471 490.039Z" fill="#DCDCDC"/>
        </g>
      </g>
      <g opacity="0.63">
        <g opacity="0.63">
          <path opacity="0.63" d="M268.716 489.777L219.087 518.589C216.496 520.096 213.316 520.096 210.725 518.605L132.453 473.463C126.894 470.269 126.894 462.26 132.436 459.05L182.066 430.238C184.656 428.731 187.837 428.731 190.427 430.222L268.7 475.363C274.258 478.557 274.258 486.567 268.716 489.777Z" fill="#DBDBDB"/>
        </g>
      </g>
      <g opacity="0.63">
        <g opacity="0.63">
          <path opacity="0.63" d="M267.979 489.515L218.956 517.966C216.398 519.44 213.25 519.457 210.692 517.983L133.371 473.381C127.895 470.22 127.878 462.309 133.354 459.131L182.377 430.68C184.935 429.206 188.083 429.19 190.641 430.664L267.962 475.265C273.438 478.443 273.455 486.338 267.979 489.515Z" fill="#DADADA"/>
        </g>
      </g>
      <g opacity="0.63">
        <g opacity="0.63">
          <path opacity="0.63" d="M267.224 489.269L218.808 517.377C216.283 518.834 213.168 518.851 210.643 517.393L134.289 473.349C128.878 470.22 128.862 462.424 134.272 459.279L182.689 431.172C185.214 429.714 188.329 429.697 190.837 431.155L267.192 475.2C272.618 478.328 272.635 486.125 267.224 489.269Z" fill="#D8D8D8"/>
        </g>
      </g>
      <g opacity="0.63">
        <g opacity="0.63">
          <path opacity="0.63" d="M266.47 489.007L218.677 516.754C216.185 518.195 213.119 518.195 210.627 516.77L135.24 473.283C129.895 470.204 129.878 462.489 135.223 459.393L183.017 431.647C185.509 430.205 188.575 430.205 191.067 431.63L266.454 475.118C271.799 478.197 271.815 485.912 266.47 489.007Z" fill="#D7D7D7"/>
        </g>
      </g>
      <g opacity="0.63">
        <g opacity="0.63">
          <path opacity="0.63" d="M265.716 488.745L218.529 516.148C216.07 517.573 213.037 517.573 210.578 516.165L136.142 473.234C130.862 470.188 130.846 462.588 136.125 459.525L183.312 432.122C185.771 430.697 188.804 430.697 191.264 432.105L265.7 475.036C270.979 478.082 270.995 485.683 265.716 488.745Z" fill="#D5D5D5"/>
        </g>
      </g>
      <g opacity="0.63">
        <g opacity="0.63">
          <path opacity="0.63" d="M264.962 488.483L218.382 515.526C215.955 516.934 212.955 516.934 210.528 515.542L137.06 473.169C131.846 470.171 131.846 462.653 137.043 459.639L183.623 432.597C186.05 431.188 189.05 431.188 191.477 432.58L264.945 474.954C270.159 477.951 270.176 485.469 264.962 488.483Z" fill="#D4D4D4"/>
        </g>
      </g>
      <g opacity="0.63">
        <g opacity="0.63">
          <path opacity="0.63" d="M264.224 488.238L218.251 514.92C215.857 516.312 212.906 516.312 210.512 514.936L137.994 473.103C132.846 470.138 132.846 462.718 137.978 459.737L183.951 433.055C186.345 431.663 189.296 431.663 191.69 433.039L264.208 474.856C269.339 477.837 269.356 485.257 264.224 488.238Z" fill="#D3D3D3"/>
        </g>
      </g>
      <g opacity="0.63">
        <g opacity="0.63">
          <path opacity="0.63" d="M263.47 487.975L218.103 514.314C215.742 515.689 212.824 515.689 210.463 514.33L138.912 473.054C133.83 470.122 133.83 462.817 138.896 459.868L184.263 433.53C186.624 432.154 189.542 432.154 191.903 433.514L263.453 474.79C268.52 477.722 268.536 485.027 263.47 487.975Z" fill="#D1D1D1"/>
        </g>
      </g>
      <g opacity="0.63">
        <g opacity="0.63">
          <path opacity="0.63" d="M262.716 487.714L217.956 513.691C215.627 515.051 212.742 515.051 210.414 513.708L139.831 472.988C134.83 470.106 134.814 462.882 139.814 459.983L184.574 434.005C186.902 432.646 189.788 432.646 192.116 433.989L262.699 474.708C267.7 477.591 267.716 484.814 262.716 487.714Z" fill="#D0D0D0"/>
        </g>
      </g>
      <g opacity="0.63">
        <g opacity="0.63">
          <path opacity="0.63" d="M261.961 487.451L217.808 513.085C215.513 514.412 212.676 514.428 210.364 513.102L140.732 472.939C135.797 470.089 135.781 462.981 140.716 460.114L184.886 434.48C187.181 433.154 190.018 433.137 192.329 434.464L261.945 474.626C266.88 477.476 266.896 484.601 261.961 487.451Z" fill="#CFCFCF"/>
        </g>
      </g>
      <g opacity="0.63">
        <g opacity="0.63">
          <path opacity="0.63" d="M261.207 487.206L217.677 512.479C215.414 513.789 212.611 513.806 210.348 512.496L141.667 472.874C136.797 470.056 136.781 463.046 141.65 460.229L185.181 434.955C187.443 433.645 190.247 433.629 192.51 434.939L261.174 474.544C266.06 477.362 266.077 484.372 261.207 487.206Z" fill="#CDCDCD"/>
        </g>
      </g>
      <g opacity="0.63">
        <g opacity="0.63">
          <path opacity="0.63" d="M260.469 486.944L217.529 511.857C215.3 513.151 212.529 513.151 210.299 511.873L142.585 472.825C137.781 470.057 137.765 463.128 142.569 460.343L185.492 435.414C187.722 434.12 190.493 434.12 192.723 435.398L260.437 474.446C265.241 477.231 265.257 484.159 260.469 486.944Z" fill="#CCCCCC"/>
        </g>
      </g>
      <g opacity="0.63">
        <g opacity="0.63">
          <path opacity="0.63" d="M259.715 486.682L217.398 511.251C215.201 512.528 212.479 512.528 210.266 511.267L143.52 472.775C138.781 470.04 138.781 463.226 143.503 460.474L185.82 435.905C188.017 434.628 190.739 434.628 192.952 435.889L259.699 474.381C264.437 477.116 264.437 483.93 259.715 486.682Z" fill="#CACACA"/>
        </g>
      </g>
      <g opacity="0.63">
        <path opacity="0.63" d="M258.961 486.419L217.251 510.628C215.086 511.889 212.397 511.889 210.217 510.645L144.438 472.71C139.765 470.024 139.765 463.292 144.421 460.589L186.132 436.38C188.296 435.119 190.985 435.119 193.165 436.364L258.945 474.315C263.617 477.001 263.617 483.717 258.961 486.419Z" fill="#C9C9C9"/>
      </g>
    </g>
    <path d="M61.2301 404.703L199.691 484.519C205.347 487.779 214.611 487.746 220.284 484.454L287.178 445.602C290.031 443.948 291.457 441.769 291.441 439.591C291.457 443.358 291.49 441.474 291.506 445.242C291.523 447.42 290.096 449.599 287.243 451.253L220.349 490.105C214.676 493.397 205.413 493.43 199.756 490.17L61.2956 410.354C58.492 408.732 57.082 406.603 57.0656 404.457C57.0492 400.69 57.0164 402.573 57 398.806C57.0164 400.952 58.4264 403.081 61.2301 404.703Z" fill="url(#paint18_linear_208)"/>
    <path d="M128.157 353.943C133.83 350.651 143.077 350.618 148.733 353.877L287.194 433.694C292.851 436.954 292.834 442.31 287.161 445.602L220.267 484.454C214.594 487.746 205.331 487.779 199.674 484.52L61.2301 404.703C55.5736 401.443 55.59 396.087 61.2793 392.795L128.157 353.943Z" fill="url(#paint19_linear_208)"/>
    <path d="M277.488 435.037L145.225 358.807C142.962 357.514 139.257 357.514 136.994 358.84L120.385 368.488L124.271 370.814C125.747 371.698 125.747 373.86 124.255 374.728L102.842 387.209C99.4483 389.191 95.2346 389.159 91.8735 387.144L90.1028 386.079L69.6247 397.971C67.3621 399.281 67.3621 401.427 69.6083 402.737L201.872 478.967C204.134 480.261 207.84 480.261 210.102 478.951L277.472 439.82C279.751 438.493 279.751 436.331 277.488 435.037Z" fill="url(#paint20_linear_208)"/>

    <g class="wifi1">

      <path d="M146.815 376.186C147.569 375.76 148.324 375.334 149.11 374.925C149.34 374.81 149.57 374.696 149.799 374.581C150.357 374.286 150.93 374.008 151.504 373.729C151.816 373.582 152.144 373.434 152.472 373.287C152.98 373.058 153.488 372.812 153.996 372.583C154.357 372.435 154.718 372.288 155.078 372.14C155.57 371.927 156.062 371.731 156.57 371.534H156.587C156.62 371.518 156.636 371.518 156.669 371.502C157.423 371.207 158.21 370.912 158.997 370.633C159.227 370.552 159.473 370.47 159.702 370.388C160.341 370.175 160.965 369.962 161.62 369.749C161.833 369.683 162.047 369.618 162.26 369.536C163.047 369.29 163.834 369.045 164.637 368.815C164.67 368.799 164.719 368.799 164.768 368.783C165.818 368.488 166.883 368.209 167.965 367.931C168.211 367.865 168.474 367.816 168.736 367.751C169.572 367.554 170.408 367.358 171.261 367.177C171.376 367.161 171.49 367.128 171.605 367.096C171.95 367.03 172.31 366.964 172.671 366.899C173.245 366.784 173.802 366.67 174.393 366.571C174.884 366.489 175.376 366.408 175.868 366.326C176.442 366.227 177.016 366.146 177.606 366.047C177.786 366.014 177.95 365.998 178.114 365.965C178.475 365.916 178.852 365.867 179.213 365.818C179.721 365.752 180.229 365.687 180.754 365.621C181.311 365.556 181.869 365.507 182.426 365.441C182.951 365.392 183.459 365.343 183.984 365.294C184.148 365.277 184.312 365.261 184.476 365.245C184.886 365.212 185.296 365.196 185.722 365.163C186.23 365.13 186.738 365.081 187.247 365.064C187.837 365.032 188.427 364.999 189.017 364.983C189.526 364.966 190.034 364.933 190.559 364.917C190.69 364.917 190.821 364.901 190.952 364.901C191.821 364.884 192.706 364.868 193.592 364.868L193.674 391.779C192.657 391.779 191.641 391.796 190.641 391.828C190.132 391.845 189.608 391.861 189.099 391.894C188.509 391.927 187.919 391.943 187.329 391.976C186.82 392.009 186.312 392.041 185.804 392.074C185.23 392.123 184.64 392.156 184.066 392.205C183.541 392.254 183.017 392.303 182.508 392.353C181.951 392.402 181.393 392.467 180.836 392.533C180.328 392.598 179.803 392.664 179.295 392.729C178.754 392.795 178.213 392.877 177.688 392.942C177.098 393.024 176.524 393.122 175.95 393.221C175.458 393.303 174.966 393.384 174.474 393.466C173.901 393.565 173.327 393.679 172.753 393.794C172.277 393.892 171.818 393.974 171.343 394.072C170.49 394.253 169.654 394.449 168.818 394.646C168.572 394.711 168.31 394.76 168.047 394.826C166.965 395.088 165.9 395.383 164.85 395.678C163.998 395.923 163.178 396.169 162.342 396.431C162.129 396.497 161.915 396.562 161.702 396.644C161.063 396.857 160.423 397.07 159.784 397.283C159.554 397.365 159.309 397.447 159.079 397.528C158.292 397.807 157.521 398.102 156.751 398.397C156.718 398.413 156.702 398.413 156.669 398.429C156.144 398.642 155.636 398.855 155.128 399.068C154.783 399.216 154.423 399.347 154.078 399.494C153.554 399.723 153.045 399.969 152.521 400.198C152.209 400.346 151.881 400.477 151.57 400.624C150.98 400.903 150.422 401.197 149.865 401.476C149.635 401.591 149.406 401.705 149.176 401.82C148.389 402.229 147.635 402.655 146.881 403.081C141.585 406.144 137.175 409.698 133.895 413.597C132.256 415.546 130.895 417.577 129.846 419.69C129.698 419.985 129.551 420.296 129.419 420.591C128.878 421.803 128.436 423.031 128.091 424.292C127.845 425.226 127.649 426.176 127.534 427.126C127.403 428.076 127.354 429.042 127.354 430.009L127.272 403.097C127.239 392.762 134.715 383.18 146.815 376.186Z" fill="url(#paint21_linear_208)"/>
      <path d="M127.288 403.114L127.37 430.025C123.779 430.025 120.172 430.009 116.336 429.992L116.254 403.081C120.107 403.097 123.697 403.114 127.288 403.114Z" fill="url(#paint22_linear_208)"/>
      <path class="line4" d="M138.912 371.829C124.271 380.281 116.959 390.797 116.254 403.097C120.09 403.114 123.681 403.114 127.288 403.13C127.239 392.778 134.699 383.196 146.815 376.202C158.784 369.29 175.294 364.933 193.575 364.901C193.559 362.82 193.543 360.74 193.526 358.545C175.376 358.693 158.915 361.969 144.766 368.75C142.7 369.733 140.749 370.764 138.912 371.829Z" fill="url(#paint23_linear_208)"/>
      <path d="M166.244 385.997C166.752 385.703 167.277 385.424 167.785 385.146C167.949 385.064 168.129 384.982 168.293 384.9C168.654 384.72 169.015 384.54 169.375 384.359C169.589 384.261 169.802 384.163 170.031 384.065C170.359 383.917 170.687 383.77 171.015 383.622C171.245 383.524 171.491 383.426 171.736 383.328C172.032 383.213 172.31 383.082 172.605 382.967C172.622 382.967 172.638 382.951 172.671 382.951C173.376 382.672 174.097 382.41 174.819 382.165C175.016 382.099 175.212 382.034 175.409 381.968C175.983 381.771 176.557 381.608 177.147 381.427C177.278 381.395 177.393 381.346 177.524 381.313C177.606 381.296 177.688 381.264 177.77 381.247C178.213 381.133 178.639 381.018 179.082 380.903C179.311 380.854 179.524 380.789 179.754 380.74C180.377 380.592 181 380.445 181.623 380.314C181.672 380.297 181.721 380.297 181.771 380.281C181.771 380.281 181.771 380.281 181.787 380.281C182.443 380.15 183.099 380.019 183.754 379.904C183.968 379.871 184.181 379.839 184.377 379.806C184.837 379.724 185.296 379.659 185.771 379.593C185.804 379.593 185.837 379.577 185.869 379.577C186.099 379.544 186.345 379.511 186.591 379.478C187.001 379.429 187.411 379.364 187.821 379.315C188.116 379.282 188.411 379.249 188.706 379.216C189.099 379.184 189.509 379.134 189.903 379.102C189.968 379.102 190.034 379.085 190.116 379.085C190.329 379.069 190.542 379.052 190.755 379.036C191.198 379.003 191.657 378.971 192.116 378.938C192.428 378.921 192.723 378.905 193.034 378.889C193.477 378.872 193.92 378.856 194.362 378.84C194.51 378.84 194.641 378.823 194.789 378.823C195.182 378.807 195.592 378.807 195.986 378.807C196.002 376.677 196.002 374.597 196.018 372.517L196.1 399.428C196.084 401.509 196.084 403.589 196.067 405.718C195.526 405.718 194.985 405.735 194.444 405.751C194.002 405.767 193.559 405.784 193.116 405.8C192.805 405.816 192.51 405.833 192.198 405.849C191.739 405.882 191.296 405.915 190.837 405.947C190.559 405.964 190.263 405.98 189.985 406.013C189.575 406.046 189.181 406.095 188.788 406.128C188.493 406.16 188.198 406.177 187.902 406.226C187.493 406.275 187.083 406.324 186.673 406.39C186.394 406.422 186.132 406.455 185.853 406.488C185.378 406.554 184.918 406.635 184.459 406.701C184.246 406.734 184.05 406.766 183.836 406.799C183.164 406.914 182.508 407.045 181.869 407.176C181.82 407.192 181.771 407.192 181.721 407.209C181.082 407.34 180.459 407.487 179.836 407.635C179.606 407.684 179.393 407.749 179.18 407.798C178.737 407.913 178.295 408.028 177.868 408.142C177.655 408.208 177.458 408.257 177.245 408.322C176.655 408.486 176.081 408.666 175.507 408.863C175.311 408.929 175.114 408.994 174.917 409.06C174.196 409.305 173.474 409.567 172.769 409.846C172.458 409.977 172.146 410.108 171.835 410.239C171.589 410.337 171.359 410.435 171.113 410.534C170.785 410.681 170.458 410.829 170.13 410.976C169.917 411.074 169.703 411.172 169.49 411.271C169.13 411.451 168.785 411.631 168.425 411.811C168.244 411.893 168.08 411.975 167.9 412.073C167.375 412.352 166.867 412.63 166.359 412.925C158.144 417.659 154.128 423.457 153.849 430.123L153.734 403.196C153.996 396.529 158.03 390.731 166.244 385.997Z" fill="url(#paint24_linear_208)"/>
      <path d="M153.734 403.196L153.816 430.107C150.143 430.107 146.586 430.107 142.929 430.107L142.847 403.196C146.504 403.196 150.061 403.179 153.734 403.196Z" fill="url(#paint25_linear_208)"/>
      <path class="line3" d="M158.505 381.477C148.914 387.013 142.798 394.662 142.831 403.196C146.487 403.196 150.061 403.196 153.718 403.196C153.996 396.529 158.013 390.731 166.228 385.997C174.442 381.247 184.476 378.938 195.936 378.807C195.953 376.678 195.953 374.597 195.969 372.517C181.771 372.37 168.326 375.809 158.505 381.477Z" fill="url(#paint26_linear_208)"/>
      <path d="M185.755 395.579C186.214 395.317 186.673 395.072 187.148 394.859C187.312 394.777 187.476 394.711 187.64 394.646C187.952 394.515 188.247 394.367 188.575 394.236C188.591 394.236 188.607 394.22 188.624 394.22C188.689 394.203 188.739 394.171 188.804 394.154C189.198 394.007 189.608 393.859 190.018 393.728C190.149 393.679 190.28 393.646 190.411 393.614C190.526 393.581 190.641 393.532 190.772 393.499C190.919 393.45 191.067 393.434 191.214 393.384C191.575 393.286 191.936 393.204 192.296 393.122C192.411 393.09 192.526 393.057 192.641 393.04C192.772 393.008 192.92 392.991 193.051 392.975C193.379 392.909 193.69 392.86 194.018 392.811C194.166 392.795 194.313 392.762 194.461 392.729C194.592 392.713 194.707 392.696 194.838 392.68C195.182 392.631 195.51 392.598 195.854 392.565C196.018 392.549 196.199 392.516 196.363 392.516C196.461 392.5 196.576 392.5 196.674 392.5C197.084 392.467 197.51 392.451 197.937 392.434C198.117 392.434 198.297 392.418 198.478 392.402C198.625 392.402 198.789 392.402 198.937 392.385C198.953 392.123 198.986 391.91 198.986 391.681C199.035 389.814 199.084 387.946 199.133 386.079L199.215 412.991C199.166 414.858 199.117 416.725 199.068 418.592C199.068 418.805 199.035 419.018 199.019 419.297C198.674 419.297 198.346 419.313 198.019 419.329C197.592 419.346 197.182 419.362 196.756 419.395C196.477 419.411 196.199 419.444 195.92 419.46C195.576 419.493 195.231 419.526 194.903 419.575C194.625 419.608 194.346 419.657 194.084 419.69C193.756 419.739 193.428 419.804 193.116 419.854C192.854 419.903 192.608 419.952 192.346 420.017C191.985 420.099 191.608 420.181 191.264 420.279C191.001 420.345 190.723 420.427 190.46 420.492C190.329 420.525 190.198 420.574 190.067 420.607C189.657 420.738 189.247 420.885 188.853 421.033C188.788 421.049 188.739 421.082 188.673 421.098C188.345 421.229 188.017 421.377 187.689 421.524C187.525 421.59 187.361 421.655 187.197 421.737C186.722 421.966 186.263 422.212 185.804 422.474C182.164 424.571 180.393 427.142 180.229 430.025L180.147 403.114C180.344 400.231 182.115 397.676 185.755 395.579Z" fill="url(#paint27_linear_208)"/>
      <path d="M169.31 403.147C172.901 403.147 176.491 403.13 180.18 403.13L180.262 430.042C176.573 430.042 172.983 430.058 169.392 430.058V430.042C169.392 429.96 169.392 429.878 169.392 429.796L169.31 402.885C169.31 402.966 169.31 403.048 169.31 403.147Z" fill="url(#paint28_linear_208)"/>
      <path class="line2" d="M177.967 391.108C172.54 394.236 169.162 398.544 169.31 403.147C172.901 403.147 176.491 403.13 180.18 403.13C180.344 400.247 182.115 397.676 185.755 395.579C189.444 393.466 193.854 392.451 198.97 392.385C198.986 392.123 199.019 391.91 199.019 391.681C199.068 389.814 199.117 387.946 199.166 386.079C191.018 385.981 183.443 387.946 177.967 391.108Z" fill="url(#paint29_linear_208)"/>
      <path d="M191.264 403.098C191.264 403.179 191.28 403.245 191.296 403.327C191.313 403.392 191.329 403.441 191.346 403.507C191.362 403.573 191.378 403.654 191.411 403.72C191.428 403.785 191.46 403.835 191.477 403.9C191.509 403.982 191.542 404.048 191.575 404.129C191.608 404.179 191.641 404.228 191.673 404.293C191.723 404.375 191.772 404.457 191.837 404.539C191.87 404.588 191.919 404.637 191.952 404.686C192.051 404.801 192.149 404.899 192.247 405.014C192.28 405.047 192.329 405.096 192.362 405.129C192.428 405.194 192.51 405.243 192.575 405.309C192.641 405.358 192.706 405.407 192.772 405.473C192.854 405.538 192.936 405.587 193.034 405.636C193.116 405.702 193.215 405.751 193.297 405.816C193.51 405.948 193.739 406.046 193.969 406.16C194.034 406.193 194.1 406.226 194.166 406.242C194.346 406.324 194.526 406.39 194.723 406.455C194.789 406.472 194.854 406.504 194.936 406.521C195.051 406.554 195.182 406.586 195.297 406.619C195.395 406.652 195.477 406.668 195.576 406.701C195.707 406.734 195.838 406.75 195.969 406.783C196.051 406.799 196.149 406.816 196.231 406.832C196.494 406.881 196.772 406.914 197.035 406.947C197.117 406.963 197.199 406.963 197.281 406.963C197.445 406.979 197.592 406.996 197.756 406.996C197.855 406.996 197.969 406.996 198.068 407.012C198.199 407.012 198.33 407.012 198.461 407.012C198.576 407.012 198.674 407.012 198.789 406.996C198.904 406.996 199.035 406.979 199.15 406.979C199.265 406.979 199.363 406.963 199.478 406.947C199.593 406.93 199.707 406.93 199.838 406.914C199.937 406.898 200.052 406.881 200.15 406.865C200.281 406.848 200.396 406.816 200.527 406.799C200.625 406.783 200.724 406.767 200.822 406.734C200.97 406.701 201.117 406.668 201.265 406.619C201.347 406.603 201.429 406.57 201.511 406.554C201.773 406.472 202.019 406.39 202.281 406.291C202.314 406.275 202.347 406.259 202.38 406.242C202.724 406.111 203.036 405.948 203.347 405.784C204.741 404.981 205.446 403.916 205.446 402.852L205.528 429.763C205.528 430.828 204.823 431.876 203.429 432.695C203.134 432.875 202.806 433.023 202.462 433.154C202.445 433.17 202.429 433.17 202.396 433.186C202.38 433.186 202.363 433.203 202.363 433.203C202.117 433.301 201.855 433.383 201.593 433.465C201.576 433.465 201.56 433.481 201.527 433.481C201.462 433.498 201.412 433.514 201.347 433.53C201.199 433.563 201.052 433.612 200.904 433.645C200.871 433.661 200.822 433.661 200.789 433.678C200.724 433.694 200.675 433.694 200.609 433.711C200.478 433.727 200.363 433.76 200.232 433.776C200.183 433.776 200.134 433.793 200.084 433.809C200.035 433.809 199.97 433.825 199.92 433.825C199.806 433.842 199.691 433.858 199.56 433.858C199.511 433.858 199.445 433.874 199.396 433.874C199.347 433.874 199.297 433.874 199.232 433.891C199.117 433.907 198.986 433.907 198.871 433.907C198.806 433.907 198.756 433.924 198.691 433.924C198.642 433.924 198.592 433.924 198.543 433.924C198.412 433.924 198.281 433.924 198.15 433.924C198.084 433.924 198.019 433.924 197.953 433.924C197.92 433.924 197.871 433.924 197.838 433.924C197.674 433.924 197.527 433.907 197.363 433.891C197.297 433.891 197.232 433.891 197.166 433.874C197.15 433.874 197.133 433.874 197.1 433.874C196.822 433.842 196.559 433.809 196.297 433.76C196.281 433.76 196.264 433.76 196.264 433.76C196.182 433.743 196.117 433.727 196.035 433.711C195.904 433.678 195.772 433.661 195.641 433.629C195.543 433.612 195.461 433.58 195.362 433.547C195.248 433.514 195.117 433.481 195.002 433.449C194.969 433.449 194.953 433.432 194.92 433.432C194.871 433.416 194.838 433.399 194.789 433.383C194.592 433.317 194.412 433.252 194.231 433.17C194.166 433.137 194.1 433.121 194.034 433.088C193.805 432.99 193.575 432.875 193.362 432.744C193.329 432.728 193.297 432.711 193.28 432.695C193.215 432.662 193.165 432.613 193.1 432.58C193.018 432.531 192.92 432.466 192.854 432.417C192.788 432.367 192.723 432.318 192.657 432.253C192.575 432.187 192.51 432.138 192.444 432.073C192.428 432.056 192.411 432.056 192.395 432.04C192.362 432.007 192.346 431.991 192.329 431.958C192.215 431.86 192.116 431.745 192.034 431.63C192.018 431.614 191.985 431.581 191.969 431.565C191.952 431.549 191.936 431.516 191.919 431.499C191.854 431.417 191.805 431.336 191.755 431.254C191.739 431.221 191.706 431.188 191.69 431.155C191.673 431.139 191.673 431.123 191.657 431.106C191.624 431.041 191.591 430.959 191.559 430.877C191.542 430.828 191.509 430.795 191.493 430.746C191.493 430.73 191.493 430.713 191.477 430.697C191.444 430.631 191.428 430.549 191.411 430.484C191.395 430.435 191.378 430.386 191.362 430.336C191.362 430.32 191.362 430.304 191.362 430.304C191.346 430.222 191.346 430.156 191.329 430.074C191.329 430.025 191.313 429.976 191.313 429.927C191.313 429.911 191.313 429.878 191.313 429.861L191.231 402.95C191.247 402.966 191.264 403.032 191.264 403.098Z" fill="url(#paint30_linear_208)"/>
      <path class="line1" d="M193.346 399.969C190.559 401.574 190.543 404.179 193.314 405.784C196.084 407.389 200.577 407.389 203.364 405.784C206.151 404.179 206.168 401.574 203.397 399.969C200.626 398.364 196.134 398.364 193.346 399.969Z" fill="url(#paint31_linear_208)"/>

    </g>



    <g opacity="0.63">
      <g opacity="0.63">
        <g opacity="0.63">
          <path opacity="0.63" d="M517.405 453.513L438.116 499.556C433.984 501.947 428.885 501.963 424.753 499.572L299.688 427.437C290.818 422.327 290.801 409.534 299.655 404.391L378.944 358.349C383.076 355.957 388.175 355.941 392.306 358.332L517.372 430.467C526.242 435.578 526.258 448.37 517.405 453.513Z" fill="white"/>
        </g>
      </g>
      <g opacity="0.63">
        <g opacity="0.63">
          <path opacity="0.63" d="M516.503 453.202L437.952 498.802C433.869 501.177 428.819 501.177 424.72 498.819L300.819 427.355C292.031 422.294 292.015 409.616 300.786 404.522L379.337 358.922C383.42 356.547 388.47 356.547 392.569 358.906L516.47 430.369C525.258 435.447 525.275 448.108 516.503 453.202Z" fill="#FEFEFE"/>
        </g>
      </g>
      <g opacity="0.63">
        <g opacity="0.63">
          <path opacity="0.63" d="M515.585 452.891L437.771 498.065C433.722 500.424 428.721 500.424 424.655 498.081L301.917 427.29C293.211 422.261 293.195 409.715 301.885 404.67L379.698 359.495C383.748 357.137 388.749 357.137 392.815 359.479L515.552 430.271C524.258 435.299 524.291 447.846 515.585 452.891Z" fill="#FCFCFC"/>
        </g>
      </g>
      <g opacity="0.63">
        <g opacity="0.63">
          <path opacity="0.63" d="M514.683 452.579L437.607 497.328C433.591 499.654 428.639 499.67 424.622 497.344L303.049 427.224C294.425 422.245 294.408 409.829 303.016 404.817L380.092 360.069C384.109 357.743 389.06 357.726 393.077 360.052L514.65 430.172C523.274 435.152 523.291 447.584 514.683 452.579Z" fill="#FBFBFB"/>
        </g>
      </g>
      <g opacity="0.63">
        <g opacity="0.63">
          <path opacity="0.63" d="M513.765 452.268L437.427 496.591C433.459 498.901 428.541 498.901 424.557 496.607L304.147 427.159C295.605 422.229 295.589 409.928 304.114 404.965L380.452 360.642C384.42 358.332 389.339 358.332 393.323 360.626L513.732 430.074C522.274 435.004 522.307 447.305 513.765 452.268Z" fill="#F9F9F9"/>
        </g>
      </g>
      <g opacity="0.63">
        <g opacity="0.63">
          <path opacity="0.63" d="M512.863 451.941L437.263 495.837C433.328 498.131 428.459 498.131 424.524 495.854L305.279 427.077C296.818 422.196 296.802 410.009 305.246 405.112L380.846 361.215C384.781 358.922 389.65 358.922 393.585 361.199L512.83 429.976C521.291 434.857 521.307 447.043 512.863 451.941Z" fill="#F8F8F8"/>
        </g>
      </g>
      <g opacity="0.63">
        <g opacity="0.63">
          <path opacity="0.63" d="M511.961 451.63L437.099 495.1C433.197 497.361 428.393 497.377 424.491 495.117L306.377 427.011C297.999 422.179 297.983 410.108 306.344 405.259L381.207 361.788C385.109 359.528 389.913 359.512 393.815 361.772L511.896 429.878C520.29 434.71 520.323 446.781 511.961 451.63Z" fill="#F7F7F7"/>
        </g>
      </g>
      <g opacity="0.63">
        <g opacity="0.63">
          <path opacity="0.63" d="M511.043 451.318L436.919 494.363C433.066 496.607 428.295 496.607 424.425 494.38L307.508 426.946C299.212 422.163 299.196 410.206 307.476 405.407L381.6 362.362C385.453 360.118 390.224 360.118 394.094 362.345L511.011 429.779C519.307 434.562 519.323 446.519 511.043 451.318Z" fill="#F5F5F5"/>
        </g>
      </g>
      <g opacity="0.63">
        <g opacity="0.63">
          <path opacity="0.63" d="M510.142 451.007L436.755 493.61C432.935 495.821 428.213 495.838 424.393 493.626L308.64 426.864C300.425 422.13 300.409 410.288 308.607 405.538L381.994 362.935C385.814 360.724 390.536 360.707 394.356 362.919L510.125 429.681C518.323 434.415 518.339 446.257 510.142 451.007Z" fill="#F4F4F4"/>
        </g>
      </g>
      <g opacity="0.63">
        <g opacity="0.63">
          <path opacity="0.63" d="M509.223 450.696L436.574 492.873C432.787 495.068 428.114 495.068 424.327 492.889L309.722 426.798C301.59 422.114 301.573 410.403 309.689 405.685L382.338 363.508C386.125 361.313 390.798 361.313 394.585 363.492L509.191 429.583C517.323 434.267 517.339 445.979 509.223 450.696Z" fill="#F3F3F3"/>
        </g>
      </g>
      <g opacity="0.63">
        <g opacity="0.63">
          <path opacity="0.63" d="M508.322 450.385L436.411 492.136C432.672 494.314 428.049 494.314 424.294 492.152L310.853 426.733C302.803 422.097 302.786 410.501 310.82 405.833L382.731 364.082C386.47 361.903 391.093 361.903 394.848 364.065L508.289 429.485C516.339 434.12 516.355 445.717 508.322 450.385Z" fill="#F1F1F1"/>
        </g>
      </g>
      <g opacity="0.63">
        <g opacity="0.63">
          <path opacity="0.63" d="M507.403 450.074L436.23 491.399C432.525 493.545 427.95 493.561 424.245 491.415L311.968 426.667C304 422.081 303.983 410.599 311.935 405.98L383.108 364.655C386.814 362.509 391.388 362.493 395.11 364.638L507.387 429.386C515.339 433.973 515.355 445.455 507.403 450.074Z" fill="#F0F0F0"/>
        </g>
      </g>
      <g opacity="0.63">
        <g opacity="0.63">
          <path opacity="0.63" d="M506.502 449.762L436.066 490.662C432.394 492.791 427.868 492.791 424.196 490.678L313.083 426.602C305.197 422.048 305.18 410.697 313.05 406.127L383.486 365.228C387.158 363.099 391.683 363.099 395.356 365.212L506.469 429.288C514.355 433.825 514.372 445.192 506.502 449.762Z" fill="#EEEEEE"/>
        </g>
      </g>
      <g opacity="0.63">
        <g opacity="0.63">
          <path opacity="0.63" d="M505.584 449.451L435.886 489.925C432.262 492.037 427.77 492.037 424.147 489.941L314.198 426.536C306.393 422.032 306.377 410.796 314.165 406.275L383.863 365.801C387.486 363.688 391.979 363.688 395.602 365.785L505.551 429.19C513.355 433.694 513.372 444.93 505.584 449.451Z" fill="#EDEDED"/>
        </g>
      </g>
      <g opacity="0.63">
        <g opacity="0.63">
          <path opacity="0.63" d="M504.682 449.14L435.722 489.171C432.131 491.251 427.704 491.268 424.097 489.188L315.313 426.438C307.59 421.983 307.574 410.861 315.28 406.39L384.24 366.358C387.83 364.278 392.257 364.262 395.864 366.342L504.649 429.075C512.371 433.547 512.388 444.668 504.682 449.14Z" fill="#ECECEC"/>
        </g>
      </g>
      <g opacity="0.63">
        <g opacity="0.63">
          <path opacity="0.63" d="M503.764 448.812L435.542 488.418C431.984 490.481 427.606 490.481 424.048 488.434L316.428 426.356C308.787 421.95 308.787 410.959 316.395 406.537L384.617 366.932C388.175 364.868 392.552 364.868 396.11 366.915L503.731 428.993C511.371 433.399 511.388 444.39 503.764 448.812Z" fill="#EAEAEA"/>
        </g>
      </g>
      <g opacity="0.63">
        <g opacity="0.63">
          <path opacity="0.63" d="M502.862 448.501L435.378 487.681C431.869 489.728 427.524 489.728 423.999 487.697L317.542 426.291C310 421.934 309.984 411.058 317.51 406.684L384.994 367.505C388.503 365.457 392.847 365.457 396.372 367.488L502.829 428.895C510.387 433.252 510.404 444.128 502.862 448.501Z" fill="#E9E9E9"/>
        </g>
      </g>
      <g opacity="0.63">
        <g opacity="0.63">
          <path opacity="0.63" d="M501.944 448.19L435.197 486.944C431.721 488.958 427.426 488.975 423.95 486.96L318.657 426.225C311.197 421.917 311.181 411.156 318.625 406.832L385.371 368.078C388.847 366.064 393.143 366.047 396.618 368.062L501.911 428.797C509.387 433.104 509.404 443.866 501.944 448.19Z" fill="#E7E7E7"/>
        </g>
      </g>
      <g opacity="0.63">
        <g opacity="0.63">
          <path opacity="0.63" d="M501.042 447.879L435.033 486.206C431.59 488.205 427.36 488.205 423.917 486.223L319.789 426.16C312.411 421.901 312.394 411.254 319.756 406.979L385.765 368.651C389.208 366.653 393.438 366.653 396.881 368.635L501.009 428.698C508.404 432.957 508.42 443.604 501.042 447.879Z" fill="#E6E6E6"/>
        </g>
      </g>
      <g opacity="0.63">
        <g opacity="0.63">
          <path opacity="0.63" d="M500.124 447.567L434.853 485.469C431.459 487.435 427.262 487.451 423.851 485.486L320.887 426.094C313.591 421.885 313.575 411.353 320.854 407.127L386.125 369.225C389.519 367.259 393.716 367.243 397.127 369.208L500.091 428.6C507.403 432.81 507.42 443.342 500.124 447.567Z" fill="#E5E5E5"/>
        </g>
      </g>
      <g opacity="0.63">
        <g opacity="0.63">
          <path opacity="0.63" d="M499.222 447.256L434.689 484.732C431.328 486.682 427.18 486.682 423.819 484.749L322.018 426.029C314.804 421.868 314.788 411.451 321.986 407.274L386.519 369.798C389.88 367.849 394.028 367.849 397.389 369.782L499.189 428.502C506.42 432.662 506.436 443.063 499.222 447.256Z" fill="#E3E3E3"/>
        </g>
      </g>
      <g opacity="0.63">
        <g opacity="0.63">
          <path opacity="0.63" d="M498.32 446.945L434.525 483.979C431.197 485.912 427.098 485.912 423.769 483.995L323.133 425.947C316.001 421.835 315.985 411.549 323.101 407.405L386.896 370.371C390.224 368.438 394.323 368.438 397.651 370.355L498.287 428.403C505.42 432.515 505.436 442.801 498.32 446.945Z" fill="#E2E2E2"/>
        </g>
      </g>
      <g opacity="0.63">
        <g opacity="0.63">
          <path opacity="0.63" d="M497.402 446.634L434.345 483.242C431.066 485.142 427.016 485.158 423.72 483.258L324.248 425.881C317.198 421.819 317.182 411.647 324.215 407.552L387.273 370.944C390.552 369.044 394.602 369.028 397.897 370.928L497.369 428.305C504.436 432.367 504.452 442.539 497.402 446.634Z" fill="#E1E1E1"/>
        </g>
      </g>
      <g opacity="0.63">
        <g opacity="0.63">
          <path opacity="0.63" d="M496.5 446.323L434.181 482.505C430.934 484.388 426.934 484.388 423.671 482.521L325.363 425.816C318.395 421.786 318.379 411.746 325.33 407.7L387.65 371.518C390.896 369.634 394.897 369.634 398.16 371.501L496.468 428.207C503.436 432.22 503.452 442.277 496.5 446.323Z" fill="#DFDFDF"/>
        </g>
      </g>
      <g opacity="0.63">
        <g opacity="0.63">
          <path opacity="0.63" d="M495.582 446.011L434 481.768C430.787 483.635 426.836 483.635 423.622 481.784L326.478 425.75C319.592 421.77 319.575 411.844 326.445 407.847L388.027 372.091C391.241 370.224 395.192 370.224 398.406 372.075L495.549 428.109C502.452 432.089 502.468 442.015 495.582 446.011Z" fill="#DEDEDE"/>
        </g>
      </g>
      <g opacity="0.63">
        <g opacity="0.63">
          <path opacity="0.63" d="M494.68 445.684L433.836 481.014C430.672 482.849 426.754 482.865 423.589 481.031L327.609 425.668C320.805 421.737 320.789 411.926 327.577 407.978L388.421 372.648C391.585 370.813 395.504 370.797 398.668 372.632L494.648 427.994C501.452 431.941 501.468 441.753 494.68 445.684Z" fill="#DCDCDC"/>
        </g>
      </g>
      <g opacity="0.63">
        <g opacity="0.63">
          <path opacity="0.63" d="M493.762 445.373L433.656 480.277C430.524 482.095 426.655 482.095 423.524 480.293L328.708 425.603C321.986 421.721 321.969 412.024 328.675 408.142L388.781 373.238C391.913 371.419 395.782 371.419 398.914 373.221L493.73 427.912C500.468 431.794 500.485 441.474 493.762 445.373Z" fill="#DBDBDB"/>
        </g>
      </g>
      <g opacity="0.63">
        <g opacity="0.63">
          <path opacity="0.63" d="M492.861 445.061L433.492 479.524C430.393 481.325 426.59 481.325 423.491 479.54L329.823 425.537C323.182 421.704 323.166 412.139 329.806 408.29L389.175 373.827C392.274 372.025 396.077 372.026 399.176 373.811L492.828 427.83C499.468 431.647 499.484 441.212 492.861 445.061Z" fill="#DADADA"/>
        </g>
      </g>
      <g opacity="0.63">
        <g opacity="0.63">
          <path opacity="0.63" d="M491.942 444.75L433.312 478.787C430.262 480.556 426.491 480.572 423.425 478.803L330.938 425.455C324.379 421.672 324.363 412.221 330.921 408.421L389.552 374.384C392.601 372.615 396.372 372.599 399.438 374.368L491.926 427.716C498.484 431.499 498.501 440.95 491.942 444.75Z" fill="#D8D8D8"/>
        </g>
      </g>
      <g opacity="0.63">
        <g opacity="0.63">
          <path opacity="0.63" d="M491.041 444.439L433.148 478.05C430.131 479.802 426.409 479.802 423.392 478.066L332.069 425.39C325.593 421.655 325.576 412.319 332.053 408.568L389.945 374.957C392.962 373.205 396.684 373.205 399.701 374.941L491.024 427.617C497.484 431.352 497.501 440.688 491.041 444.439Z" fill="#D7D7D7"/>
        </g>
      </g>
      <g opacity="0.63">
        <g opacity="0.63">
          <path opacity="0.63" d="M490.122 444.128L432.967 477.312C429.983 479.032 426.311 479.049 423.343 477.329L333.184 425.324C326.79 421.639 326.773 412.417 333.167 408.715L390.323 375.531C393.307 373.811 396.979 373.795 399.947 375.514L490.106 427.519C496.5 431.204 496.517 440.426 490.122 444.128Z" fill="#D5D5D5"/>
        </g>
      </g>
      <g opacity="0.63">
        <g opacity="0.63">
          <path opacity="0.63" d="M489.221 443.816L432.803 476.575C429.869 478.279 426.245 478.279 423.294 476.592L334.299 425.259C327.986 421.622 327.97 412.515 334.282 408.863L390.7 376.104C393.634 374.401 397.258 374.401 400.209 376.088L489.204 427.421C495.5 431.057 495.517 440.164 489.221 443.816Z" fill="#D4D4D4"/>
        </g>
      </g>
      <g opacity="0.63">
        <g opacity="0.63">
          <path opacity="0.63" d="M488.303 443.505L432.623 475.838C429.721 477.525 426.147 477.525 423.245 475.855L335.414 425.193C329.183 421.606 329.167 412.614 335.397 409.01L391.077 376.677C393.979 374.99 397.553 374.99 400.455 376.661L488.286 427.322C494.516 430.91 494.533 439.885 488.303 443.505Z" fill="#D3D3D3"/>
        </g>
      </g>
      <g opacity="0.63">
        <g opacity="0.63">
          <path opacity="0.63" d="M487.401 443.194L432.459 475.085C429.606 476.739 426.065 476.756 423.196 475.101L336.529 425.111C330.38 421.573 330.364 412.712 336.512 409.141L391.454 377.234C394.307 375.58 397.848 375.563 400.717 377.218L487.384 427.208C493.516 430.762 493.533 439.623 487.401 443.194Z" fill="#D1D1D1"/>
        </g>
      </g>
      <g opacity="0.63">
        <g opacity="0.63">
          <path opacity="0.63" d="M486.483 442.883L432.279 474.348C429.459 475.986 425.967 475.986 423.147 474.364L337.643 425.046C331.577 421.541 331.561 412.81 337.627 409.289L391.831 377.824C394.651 376.186 398.143 376.186 400.963 377.808L486.466 427.126C492.533 430.615 492.549 439.361 486.483 442.883Z" fill="#D0D0D0"/>
        </g>
      </g>
      <g opacity="0.63">
        <g opacity="0.63">
          <path opacity="0.63" d="M485.581 442.572L432.115 473.611C429.328 475.232 425.901 475.232 423.097 473.627L338.758 424.98C332.774 421.524 332.758 412.909 338.742 409.436L392.208 378.397C394.995 376.776 398.422 376.776 401.226 378.381L485.565 427.028C491.533 430.467 491.549 439.099 485.581 442.572Z" fill="#CFCFCF"/>
        </g>
      </g>
      <g opacity="0.63">
        <g opacity="0.63">
          <path opacity="0.63" d="M484.679 442.244L431.951 472.857C429.213 474.446 425.819 474.462 423.065 472.874L339.89 424.898C333.987 421.491 333.971 412.99 339.873 409.567L392.602 378.954C395.34 377.365 398.733 377.349 401.488 378.938L484.663 426.913C490.549 430.336 490.565 438.837 484.679 442.244Z" fill="#CDCDCD"/>
        </g>
      </g>
      <g opacity="0.63">
        <g opacity="0.63">
          <path opacity="0.63" d="M483.761 441.933L431.771 472.12C429.065 473.693 425.721 473.693 423.015 472.136L341.005 424.833C335.184 421.475 335.184 413.089 340.988 409.731L392.979 379.544C395.684 377.971 399.029 377.971 401.734 379.527L483.745 426.831C489.565 430.189 489.565 438.559 483.761 441.933Z" fill="#CCCCCC"/>
        </g>
      </g>
      <g opacity="0.63">
        <g opacity="0.63">
          <path opacity="0.63" d="M482.859 441.622L431.607 471.383C428.934 472.939 425.639 472.939 422.966 471.399L342.119 424.767C336.381 421.459 336.381 413.203 342.103 409.878L393.356 380.117C396.028 378.561 399.324 378.561 401.996 380.101L482.843 426.733C488.565 430.041 488.581 438.297 482.859 441.622Z" fill="#CACACA"/>
        </g>
      </g>
      <g opacity="0.63">
        <path opacity="0.63" d="M481.941 441.31L431.426 470.646C428.803 472.169 425.557 472.186 422.917 470.662L343.234 424.702C337.578 421.442 337.578 413.302 343.218 410.026L393.733 380.69C396.356 379.167 399.602 379.151 402.242 380.674L481.925 426.634C487.581 429.894 487.581 438.035 481.941 441.31Z" fill="#C9C9C9"/>
      </g>
    </g>
    <path d="M529.931 348.587L529.816 390.469L421.704 453.235L421.818 411.336L529.931 348.587Z" fill="url(#paint32_linear_208)"/>
    <path d="M421.818 411.336L421.704 453.235L266.798 363.885L266.913 322.003L421.818 411.336Z" fill="url(#paint33_linear_208)"/>
    <path d="M413.604 417.724L413.506 439.787C413.506 440.77 412.44 441.376 411.604 440.885L275.652 362.476C275.258 362.247 275.012 361.821 275.012 361.379L275.111 339.316C275.111 338.333 276.176 337.727 277.013 338.218L412.965 416.627C413.358 416.856 413.604 417.265 413.604 417.724Z" fill="url(#paint34_linear_208)"/>
    <path d="M278.39 359.43L278.455 345.098C278.455 344.115 279.521 343.509 280.357 344L409.604 418.543C409.997 418.772 410.243 419.198 410.243 419.64L410.178 433.972C410.178 434.955 409.112 435.561 408.276 435.07L279.029 360.527C278.619 360.314 278.373 359.888 278.39 359.43Z" fill="url(#paint35_linear_208)"/>
    <path d="M529.931 348.587L421.818 411.336L266.913 322.003L375.025 259.237L529.931 348.587Z" fill="url(#paint36_linear_208)"/>
    <path d="M385.601 373.664C387.945 372.304 391.749 372.304 394.094 373.664C396.438 375.023 396.438 377.218 394.094 378.561C391.749 379.92 387.945 379.92 385.601 378.561C383.256 377.218 383.256 375.023 385.601 373.664Z" fill="#45FFFA"/>
    <path d="M399.832 381.821C402.177 380.461 405.98 380.461 408.325 381.821C410.669 383.18 410.669 385.375 408.325 386.718C405.98 388.077 402.177 388.077 399.832 386.718C397.487 385.375 397.487 383.18 399.832 381.821Z" fill="#45FFFA"/>
    <path d="M416.277 391.157C418.621 389.797 422.425 389.797 424.77 391.157C427.114 392.516 427.114 394.711 424.77 396.054C422.425 397.414 418.621 397.414 416.277 396.054C413.916 394.711 413.916 392.516 416.277 391.157Z" fill="#45FFFA"/>
    <path class="light2" d="M354.941 356.121C357.285 354.762 361.089 354.762 363.434 356.121C365.778 357.481 365.778 359.675 363.434 361.019C361.089 362.378 357.285 362.378 354.941 361.019C352.596 359.675 352.596 357.481 354.941 356.121Z" fill="#EBF4FB"/>
    <path class="light1" d="M369.172 364.278C371.517 362.919 375.321 362.919 377.665 364.278C380.01 365.638 380.01 367.833 377.665 369.176C375.321 370.535 371.517 370.535 369.172 369.176C366.828 367.833 366.828 365.638 369.172 364.278Z" fill="#EBF4FB"/>
    <path opacity="0.7" d="M491.68 350.126L511.683 338.055L499.599 331.093L478.842 342.919L491.68 350.126Z" fill="url(#paint37_linear_208)"/>
    <path d="M492.123 210.197C492.156 211.212 491.369 212.048 490.565 212.556C489.631 213.145 488.516 213.473 487.434 213.604C486.614 213.702 485.778 213.702 484.958 213.62C484.941 213.62 484.925 213.62 484.909 213.604C483.712 213.456 482.466 213.096 481.482 212.392C480.793 211.9 480.154 211.114 480.138 210.23L476.252 345.327C476.252 345.655 476.317 345.982 476.416 346.31C476.432 346.392 476.465 346.474 476.498 346.539C476.711 347.096 477.039 347.653 477.547 348.161C477.613 348.243 477.711 348.308 477.793 348.374C477.875 348.439 477.957 348.521 478.039 348.587C478.367 348.865 478.744 349.143 479.17 349.389C479.613 349.651 480.088 349.864 480.58 350.061C480.728 350.126 480.875 350.175 481.023 350.225C481.4 350.356 481.794 350.47 482.187 350.585C482.335 350.618 482.482 350.667 482.646 350.7C483.187 350.814 483.745 350.912 484.302 350.978C484.335 350.978 484.368 350.978 484.4 350.978C484.941 351.027 485.466 351.06 486.007 351.06C486.171 351.06 486.352 351.06 486.515 351.06C486.942 351.06 487.384 351.027 487.811 350.994C487.975 350.978 488.122 350.962 488.286 350.945C488.827 350.88 489.385 350.798 489.942 350.667C490.385 350.568 490.795 350.421 491.205 350.29C491.369 350.241 491.549 350.192 491.696 350.143C492.254 349.93 492.795 349.684 493.287 349.389C495.254 348.259 496.238 346.768 496.238 345.278C496.222 345.262 492.123 210.213 492.123 210.197Z" fill="url(#paint38_linear_208)"/>
    <path d="M481.843 207.822C479.465 209.198 479.449 211.425 481.81 212.801C484.171 214.177 488.04 214.177 490.418 212.801C492.795 211.425 492.811 209.198 490.45 207.822C488.089 206.446 484.236 206.446 481.843 207.822Z" fill="url(#paint39_linear_208)"/>
    <path opacity="0.7" d="M384.469 288.31L404.488 276.239L392.405 269.261L371.631 281.103L384.469 288.31Z" fill="url(#paint40_linear_208)"/>
    <path d="M384.289 148.709C384.322 149.724 383.535 150.559 382.731 151.067C381.797 151.657 380.682 151.985 379.6 152.116C378.78 152.214 377.944 152.214 377.124 152.132C377.108 152.132 377.091 152.132 377.075 152.116C375.878 151.968 374.632 151.608 373.648 150.903C372.959 150.412 372.32 149.626 372.32 148.741L368.434 283.839C368.434 284.166 368.5 284.494 368.598 284.822C368.615 284.903 368.647 284.985 368.68 285.051C368.893 285.608 369.221 286.165 369.73 286.672C369.795 286.738 369.893 286.82 369.975 286.885C370.057 286.951 370.139 287.033 370.221 287.098C370.549 287.377 370.926 287.655 371.353 287.901C371.795 288.163 372.271 288.376 372.763 288.572C372.91 288.638 373.058 288.687 373.205 288.736C373.582 288.867 373.976 288.982 374.369 289.097C374.517 289.129 374.665 289.179 374.829 289.211C375.37 289.326 375.927 289.424 376.485 289.49C376.517 289.49 376.55 289.49 376.583 289.49C377.124 289.539 377.649 289.572 378.19 289.572C378.354 289.572 378.534 289.572 378.698 289.572C379.124 289.572 379.567 289.539 379.993 289.506C380.157 289.49 380.305 289.473 380.469 289.457C381.01 289.391 381.567 289.31 382.125 289.179C382.567 289.08 382.977 288.933 383.387 288.802C383.551 288.753 383.731 288.704 383.879 288.654C384.436 288.441 384.977 288.196 385.469 287.901C387.437 286.771 388.421 285.28 388.421 283.79C388.404 283.79 384.289 148.725 384.289 148.709Z" fill="url(#paint41_linear_208)"/>
    <path d="M374.025 146.35C371.648 147.726 371.631 149.953 373.992 151.329C376.353 152.705 380.223 152.705 382.6 151.329C384.977 149.953 384.994 147.726 382.633 146.35C380.256 144.974 376.403 144.974 374.025 146.35Z" fill="url(#paint42_linear_208)"/>
    <path d="M427.196 422.294C426.901 422.294 426.606 422.13 426.442 421.852C426.212 421.442 426.344 420.902 426.77 420.673L524.865 365.032C525.275 364.786 525.816 364.933 526.045 365.359C526.275 365.769 526.144 366.309 525.717 366.539L427.623 422.179C427.491 422.261 427.344 422.294 427.196 422.294Z" fill="url(#paint43_linear_208)"/>
    <path d="M427.196 428.944C426.901 428.944 426.606 428.78 426.442 428.502C426.212 428.092 426.344 427.552 426.77 427.323L524.865 371.682C525.275 371.436 525.816 371.583 526.045 372.009C526.275 372.419 526.144 372.959 525.717 373.189L427.623 428.829C427.491 428.911 427.344 428.944 427.196 428.944Z" fill="url(#paint44_linear_208)"/>
    <path d="M427.196 435.594C426.901 435.594 426.606 435.43 426.442 435.152C426.212 434.742 426.344 434.202 426.77 433.973L524.865 378.332C525.275 378.086 525.816 378.233 526.045 378.659C526.275 379.069 526.144 379.609 525.717 379.839L427.623 435.479C427.491 435.561 427.344 435.594 427.196 435.594Z" fill="url(#paint45_linear_208)"/>
    <path d="M215.873 437.691C215.365 437.691 214.906 437.33 214.824 436.806C214.627 435.627 195.018 317.974 243.746 252.521C261.912 228.116 287.407 213.751 319.51 209.853C346.53 206.561 370.074 212.769 389.503 228.28C434.574 264.249 442.69 339.152 442.772 339.906C442.838 340.495 442.411 341.019 441.821 341.069C441.247 341.134 440.706 340.708 440.657 340.119C440.575 339.381 432.541 265.347 388.175 229.934C369.205 214.8 346.186 208.756 319.772 211.966C288.276 215.799 263.273 229.869 245.467 253.799C197.281 318.514 216.726 435.283 216.939 436.446C217.037 437.019 216.644 437.576 216.07 437.674C216.005 437.674 215.939 437.691 215.873 437.691Z" fill="url(#paint46_linear_208)"/>
    <path d="M409.948 191.95C405.57 143.14 396.864 103.649 384.043 74.559C367.926 38.0002 345.235 17.8371 316.608 14.594C292.49 11.8586 273.012 17.6897 258.666 31.8906C235.482 54.8382 230.826 95.0169 230.351 119.75C230.925 119.537 231.498 119.357 232.072 119.177C232.597 94.6729 237.27 55.4934 259.879 33.1191C273.832 19.2949 292.851 13.644 316.411 16.3138C344.398 19.4751 366.614 39.3105 382.469 75.2633C395.225 104.173 403.898 143.484 408.243 192.098C415.67 274.961 407.833 357.186 407.751 358.005C407.702 358.48 408.046 358.906 408.522 358.955C408.554 358.955 408.571 358.955 408.604 358.955C409.046 358.955 409.423 358.627 409.456 358.185C409.538 357.333 417.375 274.961 409.948 191.95Z" fill="url(#paint47_linear_208)"/>
    <path d="M96.2511 384.785C96.9397 385.096 97.7431 385.047 98.3825 384.671L119.025 372.648L118.156 372.075C117.549 371.665 116.746 371.649 116.123 372.009L95.1198 384.294L96.2511 384.785Z" fill="url(#paint48_linear_208)"/>
  </g>
  <defs>
    <linearGradient id="paint0_linear_208" x1="150.218" y1="326.612" x2="247.965" y2="298.499" gradientUnits="userSpaceOnUse">
      <stop offset="0.0389" stop-color="#705FC7"/>
      <stop offset="1" stop-color="#352CA1"/>
    </linearGradient>
    <linearGradient id="paint1_linear_208" x1="196.883" y1="287.572" x2="306.551" y2="290.689" gradientUnits="userSpaceOnUse">
      <stop offset="0.0389" stop-color="#705FC7"/>
      <stop offset="1" stop-color="#352CA1"/>
    </linearGradient>
    <linearGradient id="paint2_linear_208" x1="145.399" y1="182.226" x2="327.776" y2="182.226" gradientUnits="userSpaceOnUse">
      <stop offset="0.00777202" stop-color="#D2B9F2"/>
      <stop offset="0.3549" stop-color="#705FC7"/>
      <stop offset="0.7487" stop-color="#705FC7"/>
      <stop offset="1" stop-color="#352CA1"/>
    </linearGradient>
    <linearGradient id="paint3_linear_208" x1="182.142" y1="292.968" x2="251.901" y2="295.639" gradientUnits="userSpaceOnUse">
      <stop offset="0.00777202" stop-color="#D2B9F2"/>
      <stop offset="0.2979" stop-color="#705FC7"/>
      <stop offset="0.6399" stop-color="#705FC7"/>
      <stop offset="1" stop-color="#352CA1"/>
    </linearGradient>
    <linearGradient id="paint4_linear_208" x1="253.199" y1="304.482" x2="228.844" y2="240.488" gradientUnits="userSpaceOnUse">
      <stop offset="0.0389" stop-color="#705FC7"/>
      <stop offset="1" stop-color="#352CA1"/>
    </linearGradient>
    <linearGradient id="paint5_linear_208" x1="38.3151" y1="264.798" x2="483.095" y2="89.7298" gradientUnits="userSpaceOnUse">
      <stop offset="0.0389" stop-color="#705FC7"/>
      <stop offset="1" stop-color="#352CA1"/>
    </linearGradient>
    <linearGradient id="paint6_linear_208" x1="353.631" y1="115.065" x2="167.097" y2="228.292" gradientUnits="userSpaceOnUse">
      <stop stop-color="#607CF2"/>
      <stop offset="0.2208" stop-color="#6280F2"/>
      <stop offset="0.4401" stop-color="#678CF2"/>
      <stop offset="0.6588" stop-color="#6FA0F2"/>
      <stop offset="0.8759" stop-color="#7BBCF2"/>
      <stop offset="1" stop-color="#83CFF2"/>
    </linearGradient>
    <linearGradient id="paint7_linear_208" x1="238.144" y1="218.656" x2="252.589" y2="218.656" gradientUnits="userSpaceOnUse">
      <stop stop-color="#CEF4FB"/>
      <stop offset="1" stop-color="#45D4CF"/>
    </linearGradient>
    <linearGradient id="paint8_linear_208" x1="225.301" y1="199.135" x2="265.155" y2="199.135" gradientUnits="userSpaceOnUse">
      <stop stop-color="#CEF4FB"/>
      <stop offset="1" stop-color="#45D4CF"/>
    </linearGradient>
    <linearGradient id="paint9_linear_208" x1="210.586" y1="181.401" x2="280.036" y2="181.401" gradientUnits="userSpaceOnUse">
      <stop stop-color="#CEF4FB"/>
      <stop offset="1" stop-color="#45D4CF"/>
    </linearGradient>
    <linearGradient id="paint10_linear_208" x1="195.335" y1="163.211" x2="295.214" y2="163.211" gradientUnits="userSpaceOnUse">
      <stop stop-color="#CEF4FB"/>
      <stop offset="1" stop-color="#45D4CF"/>
    </linearGradient>
    <linearGradient id="paint11_linear_208" x1="437.942" y1="168.877" x2="468.475" y2="222.57" gradientUnits="userSpaceOnUse">
      <stop offset="0.00777202" stop-color="#D2B9F2"/>
      <stop offset="0.3549" stop-color="#705FC7"/>
      <stop offset="0.7487" stop-color="#705FC7"/>
    </linearGradient>
    <linearGradient id="paint12_linear_208" x1="422.301" y1="120.675" x2="504.862" y2="208.276" gradientUnits="userSpaceOnUse">
      <stop offset="0.00777202" stop-color="#D2B9F2"/>
      <stop offset="0.3549" stop-color="#705FC7"/>
      <stop offset="0.7487" stop-color="#705FC7"/>
    </linearGradient>
    <linearGradient id="paint13_linear_208" x1="392.317" y1="154.795" x2="469.651" y2="154.795" gradientUnits="userSpaceOnUse">
      <stop stop-color="#CEF4FB"/>
      <stop offset="1" stop-color="#45D4CF"/>
    </linearGradient>
    <linearGradient id="paint14_linear_208" x1="362.152" y1="118.285" x2="500.513" y2="118.285" gradientUnits="userSpaceOnUse">
      <stop stop-color="#CEF4FB"/>
      <stop offset="1" stop-color="#45D4CF"/>
    </linearGradient>
    <linearGradient id="paint15_linear_208" x1="409.847" y1="71.7089" x2="532.049" y2="187.42" gradientUnits="userSpaceOnUse">
      <stop offset="0.00777202" stop-color="#D2B9F2"/>
      <stop offset="0.3549" stop-color="#705FC7"/>
      <stop offset="0.7487" stop-color="#705FC7"/>
    </linearGradient>
    <linearGradient id="paint16_linear_208" x1="397.391" y1="22.4084" x2="560.618" y2="163.754" gradientUnits="userSpaceOnUse">
      <stop offset="0.00777202" stop-color="#D2B9F2"/>
      <stop offset="0.3549" stop-color="#705FC7"/>
      <stop offset="0.7487" stop-color="#705FC7"/>
    </linearGradient>
    <linearGradient id="paint17_linear_208" x1="330.901" y1="80.6626" x2="531.981" y2="80.6626" gradientUnits="userSpaceOnUse">
      <stop stop-color="#CEF4FB"/>
      <stop offset="1" stop-color="#45D4CF"/>
    </linearGradient>
    <linearGradient id="paint18_linear_208" x1="160.926" y1="444.846" x2="213.823" y2="443.17" gradientUnits="userSpaceOnUse">
      <stop offset="0.0389" stop-color="#705FC7"/>
      <stop offset="1" stop-color="#352CA1"/>
    </linearGradient>
    <linearGradient id="paint19_linear_208" x1="138.311" y1="451.178" x2="264.812" y2="338.304" gradientUnits="userSpaceOnUse">
      <stop offset="0.00777202" stop-color="#D2B9F2"/>
      <stop offset="0.3549" stop-color="#705FC7"/>
      <stop offset="0.7487" stop-color="#705FC7"/>
      <stop offset="1" stop-color="#352CA1"/>
    </linearGradient>
    <linearGradient id="paint20_linear_208" x1="128.664" y1="432.511" x2="254.124" y2="394.352" gradientUnits="userSpaceOnUse">
      <stop stop-color="#607CF2"/>
      <stop offset="0.2208" stop-color="#6280F2"/>
      <stop offset="0.4401" stop-color="#678CF2"/>
      <stop offset="0.6588" stop-color="#6FA0F2"/>
      <stop offset="0.8759" stop-color="#7BBCF2"/>
      <stop offset="1" stop-color="#83CFF2"/>
    </linearGradient>
    <linearGradient id="paint21_linear_208" x1="163.567" y1="413.822" x2="143.79" y2="308.942" gradientUnits="userSpaceOnUse">
      <stop stop-color="white" stop-opacity="0"/>
      <stop offset="0.5259" stop-color="#E5E7FF"/>
      <stop offset="0.7203" stop-color="#DADCFF"/>
      <stop offset="1" stop-color="#CFD0FF"/>
    </linearGradient>
    <linearGradient id="paint22_linear_208" x1="123.213" y1="428.936" x2="114.167" y2="348.699" gradientUnits="userSpaceOnUse">
      <stop stop-color="white" stop-opacity="0"/>
      <stop offset="0.5259" stop-color="#E5E7FF"/>
      <stop offset="0.7203" stop-color="#DADCFF"/>
      <stop offset="1" stop-color="#CFD0FF"/>
    </linearGradient>
    <linearGradient id="paint23_linear_208" x1="116.261" y1="380.828" x2="193.58" y2="380.828" gradientUnits="userSpaceOnUse">
      <stop stop-color="white"/>
      <stop offset="1" stop-color="#E1D3E5"/>
    </linearGradient>
    <linearGradient id="paint24_linear_208" x1="179.267" y1="412.724" x2="146.385" y2="326.64" gradientUnits="userSpaceOnUse">
      <stop stop-color="white" stop-opacity="0"/>
      <stop offset="0.5259" stop-color="#E5E7FF"/>
      <stop offset="0.7203" stop-color="#DADCFF"/>
      <stop offset="1" stop-color="#CFD0FF"/>
    </linearGradient>
    <linearGradient id="paint25_linear_208" x1="149.142" y1="437.646" x2="145.71" y2="349.414" gradientUnits="userSpaceOnUse">
      <stop stop-color="white" stop-opacity="0"/>
      <stop offset="0.5036" stop-color="#E6E8FF" stop-opacity="0.9577"/>
      <stop offset="0.5259" stop-color="#E5E7FF"/>
      <stop offset="0.7203" stop-color="#DADCFF"/>
      <stop offset="1" stop-color="#CFD0FF"/>
    </linearGradient>
    <linearGradient id="paint26_linear_208" x1="142.839" y1="387.847" x2="195.981" y2="387.847" gradientUnits="userSpaceOnUse">
      <stop stop-color="white"/>
      <stop offset="1" stop-color="#E1D3E5"/>
    </linearGradient>
    <linearGradient id="paint27_linear_208" x1="194.512" y1="417.176" x2="151.155" y2="334.59" gradientUnits="userSpaceOnUse">
      <stop stop-color="white" stop-opacity="0"/>
      <stop offset="0.5259" stop-color="#E5E7FF"/>
      <stop offset="0.7203" stop-color="#DADCFF"/>
      <stop offset="1" stop-color="#CFD0FF"/>
    </linearGradient>
    <linearGradient id="paint28_linear_208" x1="174.907" y1="432.015" x2="174.276" y2="349.043" gradientUnits="userSpaceOnUse">
      <stop stop-color="white" stop-opacity="0"/>
      <stop offset="0.5036" stop-color="#E6E8FF" stop-opacity="0.9577"/>
      <stop offset="0.5259" stop-color="#E5E7FF"/>
      <stop offset="0.7203" stop-color="#DADCFF"/>
      <stop offset="1" stop-color="#CFD0FF"/>
    </linearGradient>
    <linearGradient id="paint29_linear_208" x1="169.311" y1="394.611" x2="199.163" y2="394.611" gradientUnits="userSpaceOnUse">
      <stop stop-color="white"/>
      <stop offset="1" stop-color="#E1D3E5"/>
    </linearGradient>
    <linearGradient id="paint30_linear_208" x1="199.57" y1="431.892" x2="191.365" y2="323.647" gradientUnits="userSpaceOnUse">
      <stop stop-color="white" stop-opacity="0"/>
      <stop offset="0.5259" stop-color="#E5E7FF"/>
      <stop offset="0.7203" stop-color="#DADCFF"/>
      <stop offset="1" stop-color="#CFD0FF"/>
    </linearGradient>
    <linearGradient id="paint31_linear_208" x1="191.25" y1="402.87" x2="205.455" y2="402.87" gradientUnits="userSpaceOnUse">
      <stop stop-color="white"/>
      <stop offset="1" stop-color="#E1D3E5"/>
    </linearGradient>
    <linearGradient id="paint32_linear_208" x1="282.637" y1="400.26" x2="502.061" y2="400.996" gradientUnits="userSpaceOnUse">
      <stop offset="0.0389" stop-color="#705FC7"/>
      <stop offset="1" stop-color="#352CA1"/>
    </linearGradient>
    <linearGradient id="paint33_linear_208" x1="335.522" y1="387.629" x2="595.008" y2="387.261" gradientUnits="userSpaceOnUse">
      <stop offset="0.00777202" stop-color="#D2B9F2"/>
      <stop offset="0.2979" stop-color="#705FC7"/>
      <stop offset="0.6399" stop-color="#705FC7"/>
      <stop offset="1" stop-color="#352CA1"/>
    </linearGradient>
    <linearGradient id="paint34_linear_208" x1="362.679" y1="351.865" x2="224.907" y2="635.029" gradientUnits="userSpaceOnUse">
      <stop offset="0.00777202" stop-color="#D2B9F2"/>
      <stop offset="0.2979" stop-color="#705FC7"/>
      <stop offset="0.6399" stop-color="#705FC7"/>
      <stop offset="1" stop-color="#352CA1"/>
    </linearGradient>
    <linearGradient id="paint35_linear_208" x1="278.383" y1="389.548" x2="410.233" y2="389.548" gradientUnits="userSpaceOnUse">
      <stop stop-color="#83CFF2"/>
      <stop offset="0.1791" stop-color="#85D0F2"/>
      <stop offset="0.2632" stop-color="#8DD3F3"/>
      <stop offset="0.3274" stop-color="#9AD8F4"/>
      <stop offset="0.3816" stop-color="#ACDFF6"/>
      <stop offset="0.4294" stop-color="#C4E8F9"/>
      <stop offset="0.4722" stop-color="#E0F3FC"/>
      <stop offset="0.5078" stop-color="white"/>
      <stop offset="0.5393" stop-color="#E6F5FC"/>
      <stop offset="0.5865" stop-color="#C8EAF9"/>
      <stop offset="0.6385" stop-color="#AEE0F7"/>
      <stop offset="0.6962" stop-color="#9BD8F5"/>
      <stop offset="0.7628" stop-color="#8DD3F3"/>
      <stop offset="0.8463" stop-color="#85D0F2"/>
      <stop offset="1" stop-color="#83CFF2"/>
    </linearGradient>
    <linearGradient id="paint36_linear_208" x1="300.103" y1="-3353.17" x2="497.151" y2="-3353.13" gradientUnits="userSpaceOnUse">
      <stop stop-color="#B5A7FF"/>
      <stop offset="0.484375" stop-color="#7B61FF"/>
      <stop offset="1" stop-color="#5793CE"/>
    </linearGradient>
    <linearGradient id="paint37_linear_208" x1="506.469" y1="328.722" x2="487.753" y2="348.408" gradientUnits="userSpaceOnUse">
      <stop stop-color="white" stop-opacity="0"/>
      <stop offset="1" stop-color="#231F20"/>
    </linearGradient>
    <linearGradient id="paint38_linear_208" x1="473.133" y1="279.862" x2="488.321" y2="280.598" gradientUnits="userSpaceOnUse">
      <stop stop-color="white"/>
      <stop offset="0.5259" stop-color="#E5E7FF"/>
      <stop offset="0.7203" stop-color="#DADCFF"/>
      <stop offset="1" stop-color="#CFD0FF"/>
    </linearGradient>
    <linearGradient id="paint39_linear_208" x1="458.291" y1="219.929" x2="489.669" y2="209.079" gradientUnits="userSpaceOnUse">
      <stop stop-color="white"/>
      <stop offset="0.5259" stop-color="#E5E7FF"/>
      <stop offset="0.7203" stop-color="#DADCFF"/>
      <stop offset="1" stop-color="#CFD0FF"/>
    </linearGradient>
    <linearGradient id="paint40_linear_208" x1="399.265" y1="266.905" x2="380.548" y2="286.591" gradientUnits="userSpaceOnUse">
      <stop stop-color="white" stop-opacity="0"/>
      <stop offset="1" stop-color="#231F20"/>
    </linearGradient>
    <linearGradient id="paint41_linear_208" x1="365.305" y1="218.388" x2="380.493" y2="219.124" gradientUnits="userSpaceOnUse">
      <stop stop-color="white"/>
      <stop offset="0.5259" stop-color="#E5E7FF"/>
      <stop offset="0.7203" stop-color="#DADCFF"/>
      <stop offset="1" stop-color="#CFD0FF"/>
    </linearGradient>
    <linearGradient id="paint42_linear_208" x1="350.464" y1="158.455" x2="381.842" y2="147.605" gradientUnits="userSpaceOnUse">
      <stop stop-color="white"/>
      <stop offset="0.5259" stop-color="#E5E7FF"/>
      <stop offset="0.7203" stop-color="#DADCFF"/>
      <stop offset="1" stop-color="#CFD0FF"/>
    </linearGradient>
    <linearGradient id="paint43_linear_208" x1="548.074" y1="419.991" x2="460.653" y2="387.824" gradientUnits="userSpaceOnUse">
      <stop offset="0.2565" stop-color="#705FC7"/>
      <stop offset="1" stop-color="#705FC7"/>
    </linearGradient>
    <linearGradient id="paint44_linear_208" x1="545.918" y1="425.85" x2="458.497" y2="393.683" gradientUnits="userSpaceOnUse">
      <stop offset="0.2565" stop-color="#705FC7"/>
      <stop offset="1" stop-color="#705FC7"/>
    </linearGradient>
    <linearGradient id="paint45_linear_208" x1="543.762" y1="431.71" x2="456.341" y2="399.543" gradientUnits="userSpaceOnUse">
      <stop offset="0.2565" stop-color="#705FC7"/>
      <stop offset="1" stop-color="#705FC7"/>
    </linearGradient>
    <linearGradient id="paint46_linear_208" x1="332.922" y1="391.866" x2="307.628" y2="321.698" gradientUnits="userSpaceOnUse">
      <stop stop-color="#C094FF" stop-opacity="0"/>
      <stop offset="1" stop-color="#45D4CF"/>
    </linearGradient>
    <linearGradient id="paint47_linear_208" x1="287.846" y1="237.753" x2="349.781" y2="180.525" gradientUnits="userSpaceOnUse">
      <stop stop-color="#FFF4FB" stop-opacity="0"/>
      <stop offset="1" stop-color="#45D4CF"/>
    </linearGradient>
    <linearGradient id="paint48_linear_208" x1="101.914" y1="381.538" x2="131.741" y2="363.776" gradientUnits="userSpaceOnUse">
      <stop stop-color="white"/>
      <stop offset="1" stop-color="#E1D3E5"/>
    </linearGradient>
    <clipPath id="clip0_208">
      <rect width="499" height="536" fill="white" transform="translate(57)"/>
    </clipPath>
  </defs>


  <style>

  .light1{
    animation: 1s ease-in-out  infinite blink;
  }
  .light2{
    animation: 1s ease-in-out .2s infinite blink;
  }
  
  @keyframes blink {
    0% {
      fill: #EBF4FB;
    }
    50% {
      fill: #45FFFA;
    }
    100% {
      fill: #EBF4FB;
    }
  }


  .wifi{
    animation: 3s ease-in-out .2s infinite up;
  }
  .wifi1{
    animation: 4s ease-in-out .5s infinite up;
  }
  
  @keyframes up {
    0% {
      transform: translateY(0);
    }
    50% {
      transform: translateY(5px);
    }
    100% {
      transform: translateY(0);
    }
  }


  .line1{
    fill: #f4eff6;
    animation: 2.2s ease-in-out .4s infinite blinkWifi;
  }
  .line2{
    fill: #f4eff6;
    animation: 2.2s ease-in-out .8s infinite blinkWifi;
  }
  .line3{
    fill: #f4eff6;
    animation: 2.2s ease-in-out 1.2s infinite blinkWifi;
  }
  .line4{
    fill: #f4eff6;
    animation: 2.2s ease-in-out 1.6s infinite blinkWifi;
  }

  .lineb1{
    fill: #f4eff6;
    animation: 2.7s ease-in-out  infinite blinkWifi;
  }
  .lineb2{
    fill: #f4eff6;
    animation: 2.7s ease-in-out .6s infinite blinkWifi;
  }
  .lineb3{
    fill: #f4eff6;
    animation: 2.7s ease-in-out 1.2s infinite blinkWifi;
  }
  .lineb4{
    fill: #f4eff6;
    animation: 2.7s ease-in-out 1.8s infinite blinkWifi;
  }
  
  @keyframes blinkWifi {
    0% {
      fill: #f4eff6;
    }
    40% {
      fill: #9c89ff;
    }
    100% {
      fill: #f4eff6;
    }
  }

  .tvline1{
    stroke-width:0;
    animation: 1.5s ease-in-out .3s infinite strokeWay;
  }
  .tvline2{
    stroke-width:0;
    animation: 1.5s ease-in-out .6s infinite strokeWay;
  }
  .tvline3{
    stroke-width:0;
    animation: 1.5s ease-in-out .9s infinite strokeWay;
  }
  .tvline4{
    stroke-width:0;
    animation: 1.5s ease-in-out 1.2s infinite strokeWay;
  }
  
  @keyframes strokeWay {
    to {
     stroke-dashoffset: 1000;
      stroke-width:1.06;
    }
  }


  </style>



</svg>
