<svg width="171" height="230" viewBox="0 0 171 230" fill="none" xmlns="http://www.w3.org/2000/svg">
<path d="M116.82 151.488L116.202 150.807C117.104 152.156 116.869 153.777 115.325 154.667L43.7701 196.264C42.8437 196.796 41.7073 196.796 40.7933 196.239L28.5277 188.927C26.8108 187.9 26.6379 185.574 27.9966 184.275L26.4032 185.29C25.3533 186.985 25.8473 190.969 26.5267 192.478L40.8056 200.904C41.7197 201.448 42.8684 201.461 43.7825 200.929L115.263 159.666C117.19 158.54 118.364 153.888 116.82 151.488Z" fill="url(#paint0_linear_516)"/>
<path d="M35.2226 179.87L27.1196 184.56C25.7733 185.339 25.7609 187.294 27.0949 188.086L41.2256 196.512C41.8556 196.895 42.6461 196.895 43.2884 196.524L116.264 154.321C117.61 153.542 117.623 151.587 116.289 150.795L101.602 142.035L101.133 141.75L96.9949 144.151L44.3754 174.575L35.2226 179.87Z" fill="url(#paint1_linear_516)"/>
<path d="M6.23243 173.548L6.22008 170.22L6.20773 165.964L6.19537 161.51L5.97304 85.1087C5.96069 81.3226 8.65343 76.6581 11.9391 74.7528L133.285 4.57533C134.113 4.0928 134.903 3.83297 135.62 3.77111C135.978 3.73399 136.311 3.75873 136.62 3.8206C136.62 3.8206 136.62 3.8206 136.633 3.8206C136.966 3.88246 137.263 3.99381 137.547 4.15466L131.717 0.5666C130.63 -0.0644035 129.123 0.022207 127.467 0.974898L6.13362 71.1647C2.83563 73.0701 0.15524 77.7346 0.167592 81.5206L0.377578 157.921L0.389928 162.376L0.402283 166.632L0.414633 169.96C0.414633 171.841 1.094 173.177 2.16862 173.796C5.04664 175.478 5.1084 175.701 7.98642 177.371C6.91179 176.753 6.24479 175.429 6.23243 173.548Z" fill="url(#paint2_linear_516)"/>
<path d="M100.688 125.842L100.703 125.827H100.688V125.842Z" fill="#082C44"/>
<path d="M101.862 147.009L102.269 154.309L43.7208 188.173L102.282 154.309L101.874 147.009L101.862 146.996V147.009Z" fill="#082C44"/>
<path d="M36.0008 163.242L35.4326 175.379L35.2226 179.871L35.062 183.137L43.7208 188.173L44.079 180.427L44.3507 174.587L45.1413 157.959L36.0008 163.242Z" fill="url(#paint3_linear_516)"/>
<path d="M101.862 147.009V146.996L101.59 142.047L100.688 125.839V125.827L45.1412 157.959L44.3507 174.587L44.079 180.427L43.7208 188.172L102.269 154.309L101.862 147.009Z" fill="url(#paint4_linear_516)"/>
<path d="M139.548 93.1137L139.535 88.8575L139.523 84.4034L139.313 8.00254C139.313 5.63937 138.251 4.14228 136.657 3.8206C136.657 3.8206 136.657 3.8206 136.645 3.8206C136.324 3.75873 135.99 3.74636 135.644 3.7711C134.928 3.83297 134.137 4.09279 133.31 4.57533L11.9513 74.7404C8.65331 76.6458 5.97293 81.3102 5.98528 85.0963L6.20762 161.497L6.21997 165.951L6.23232 170.207L6.24467 173.536C6.24467 175.416 6.92403 176.74 7.99865 177.371C7.99865 177.371 7.99866 177.371 8.01101 177.371C9.09799 178.002 10.6049 177.928 12.2601 176.963L36.013 163.229L45.1535 157.946L100.7 125.827H100.713L133.606 106.798C136.904 104.892 139.585 100.228 139.572 96.4419L139.548 93.1137Z" fill="url(#paint5_linear_516)"/>
<path d="M100.688 125.827L45.1412 157.959L100.688 125.827Z" fill="#134169"/>
<path d="M134.496 13.6693C134.483 11.3927 132.877 10.4648 130.889 11.6154L14.3847 78.9843C12.4083 80.1349 10.7902 82.9188 10.8026 85.2077L11.0002 161.472C11.0126 164.788 14.5823 166.842 17.448 165.184L132.556 98.6196C133.89 97.8525 134.706 96.4173 134.706 94.8831L134.496 13.6693Z" fill="url(#paint6_linear_516)"/>
<path d="M48.5177 95.7144V132.927L45.9778 131.469V94.1873L48.5177 95.7144Z" fill="url(#paint7_linear_516)"/>
<path d="M48.5055 95.7145V132.927L104.269 100.694V63.4085L48.5055 95.7145Z" fill="url(#paint8_linear_516)"/>
<path d="M104.269 63.4085L48.5056 95.7145L45.9778 94.1873L101.762 61.9057L104.269 63.4085Z" fill="url(#paint9_linear_516)"/>
<path d="M49.1821 88.2858V96.5349L45.3622 94.3213V85.9991L49.1821 88.2858Z" fill="url(#paint10_linear_516)"/>
<path d="M49.174 88.2858V96.5349L104.796 64.3062V55.9839L49.174 88.2858Z" fill="url(#paint11_linear_516)"/>
<path d="M104.796 55.9839L49.1739 88.2858L45.3621 85.9991L101.004 53.7216L104.796 55.9839Z" fill="url(#paint12_linear_516)"/>
<path d="M91.8981 71.8445L95.8315 69.57L88.7304 65.3987L84.797 67.6772L91.8981 71.8445Z" fill="url(#paint13_linear_516)"/>
<path d="M82.9741 76.9946L86.9075 74.716L79.8185 70.5488L75.8852 72.8233L82.9741 76.9946Z" fill="url(#paint14_linear_516)"/>
<path d="M74.0501 82.1447L77.9835 79.8662L70.9067 75.6949L66.9693 77.9734L74.0501 82.1447Z" fill="url(#paint15_linear_516)"/>
<path d="M65.1262 87.2948L69.0595 85.0162L61.9908 80.845L58.0575 83.1195L65.1262 87.2948Z" fill="url(#paint16_linear_516)"/>
<path d="M56.2022 92.4448L60.1355 90.1663L53.079 85.991L49.1456 88.2695L56.2022 92.4448Z" fill="url(#paint17_linear_516)"/>

<g class="top">

  <path d="M49.1821 72.1897V78.2334L45.3622 75.3496V69.2328L49.1821 72.1897Z" fill="url(#paint18_linear_516)"/>
  <path d="M49.174 72.1897V78.2293L104.796 56.0205V49.9078L49.174 72.1897Z" fill="url(#paint19_linear_516)"/>
  <path d="M104.796 49.9078L49.1739 72.1897L45.3621 69.2329L101.004 46.9794L104.796 49.9078Z" fill="url(#paint20_linear_516)"/>
  <path d="M87.8716 56.8084L91.8049 55.2244L88.7668 62.4378L84.8334 64.0218L87.8716 56.8084Z" fill="url(#paint21_linear_516)"/>
  <path d="M78.9638 60.3461L82.8972 58.758L79.8631 65.9795L75.9297 67.5676L78.9638 60.3461Z" fill="url(#paint22_linear_516)"/>
  <path d="M70.0601 63.8797L73.9934 62.2916L70.9553 69.5253L67.0219 71.1093L70.0601 63.8797Z" fill="url(#paint23_linear_516)"/>
  <path d="M61.1523 67.4132L65.0856 65.8251L62.0516 73.067L58.1182 74.6551L61.1523 67.4132Z" fill="url(#paint24_linear_516)"/>
  <path d="M52.2485 70.9468L56.1819 69.3587L53.1438 76.6127L49.2104 78.1967L52.2485 70.9468Z" fill="url(#paint25_linear_516)"/>

</g>



<path d="M104.838 50.6063L105.126 50.7444L104.753 64.233L96.0927 69.4846L95.7929 69.31V63.2054L100.391 53.0961L104.838 50.6063Z" fill="url(#paint26_linear_516)"/>
<path d="M105.14 50.7244V64.2739L96.0947 69.4849V63.3194L100.692 53.2142L105.14 50.7244Z" fill="url(#paint27_linear_516)"/>
<path d="M102.378 55.3787C102.378 55.7849 102.706 55.927 103.115 55.6915C103.52 55.4559 103.852 54.936 103.852 54.5258C103.852 54.1196 103.524 53.9775 103.115 54.213C102.706 54.4486 102.378 54.9725 102.378 55.3787Z" fill="#A7A9AC"/>
<path d="M102.378 62.7302C102.378 63.1364 102.706 63.2785 103.115 63.0429C103.52 62.8074 103.852 62.2875 103.852 61.8773C103.852 61.4711 103.524 61.329 103.115 61.5645C102.706 61.8001 102.378 62.324 102.378 62.7302Z" fill="#A7A9AC"/>
<path d="M97.148 65.5448C97.148 65.951 97.4761 66.0932 97.8852 65.8576C98.2903 65.622 98.6225 65.1021 98.6225 64.6919C98.6225 64.2857 98.2944 64.1436 97.8852 64.3792C97.4761 64.6147 97.148 65.1346 97.148 65.5448Z" fill="#A7A9AC"/>
<path d="M102.564 55.4397C102.564 55.8458 102.892 55.988 103.301 55.7524C103.706 55.5168 104.038 54.997 104.038 54.5867C104.038 54.1806 103.71 54.0384 103.301 54.274C102.892 54.5136 102.564 55.0335 102.564 55.4397Z" fill="url(#paint28_linear_516)"/>
<path d="M102.564 62.7911C102.564 63.1973 102.892 63.3394 103.301 63.1039C103.706 62.8683 104.038 62.3484 104.038 61.9382C104.038 61.532 103.71 61.3899 103.301 61.6254C102.892 61.8651 102.564 62.385 102.564 62.7911Z" fill="url(#paint29_linear_516)"/>
<path d="M97.3343 65.6058C97.3343 66.012 97.6624 66.1541 98.0716 65.9185C98.4766 65.683 98.8088 65.1631 98.8088 64.7529C98.8088 64.3467 98.4807 64.2046 98.0716 64.4401C97.6624 64.6757 97.3343 65.1996 97.3343 65.6058Z" fill="url(#paint30_linear_516)"/>
<path d="M96.7874 60.7278L49.1699 87.6968L45.3621 85.9991L48.8296 88.3223L49.182 96.5349L49.4615 88.3711L96.7874 60.7278Z" fill="url(#paint31_radial_516)"/>
<path class="top" d="M103.718 50.4236L49.3279 71.7551L45.7064 69.4359L48.9309 72.4577L49.174 77.9165L49.6358 72.3034L103.718 50.4236Z" fill="url(#paint32_radial_516)"/>
<path d="M50.6322 111.632C50.5553 111.632 50.4783 111.591 50.4378 111.518C50.377 111.408 50.4135 111.27 50.5229 111.209L65.7986 102.404V92.5707L50.7457 101.246C50.7092 101.267 50.6728 101.275 50.6322 101.275C50.5553 101.275 50.4783 101.234 50.4378 101.161C50.377 101.051 50.4135 100.913 50.5229 100.852L65.8229 92.0305C65.8593 91.9534 65.9363 91.9006 66.0254 91.9006C66.0295 91.9006 66.0335 91.9046 66.0416 91.9046L102.224 71.0483C102.333 70.9874 102.471 71.024 102.532 71.1336C102.592 71.2433 102.556 71.3814 102.446 71.4423L86.9075 80.4022V90.2353L102.224 81.4054C102.333 81.3445 102.471 81.381 102.532 81.4907C102.592 81.6004 102.556 81.7385 102.446 81.7994L82.646 93.2165V100.97L102.224 89.6829C102.333 89.622 102.471 89.6586 102.532 89.7682C102.592 89.8779 102.556 90.016 102.446 90.0769L50.7497 119.881C50.7133 119.901 50.6768 119.909 50.6363 119.909C50.5593 119.909 50.4824 119.869 50.4419 119.796C50.3811 119.686 50.4176 119.548 50.5269 119.487L82.2895 101.177V93.5211L82.3746 93.3749L50.7497 111.607C50.7092 111.624 50.6728 111.632 50.6322 111.632ZM66.2482 102.144L86.4538 90.4953V80.6621L66.2482 92.3108V102.144Z" fill="url(#paint33_linear_516)"/>
<path d="M50.5229 127.314L102.22 97.5096C102.329 97.4487 102.467 97.4853 102.527 97.5949C102.588 97.7046 102.552 97.8427 102.442 97.9036L50.7457 127.708C50.7092 127.728 50.6728 127.736 50.6323 127.736C50.5553 127.736 50.4783 127.695 50.4378 127.622C50.3771 127.517 50.4135 127.379 50.5229 127.314Z" fill="url(#paint34_linear_516)"/>
<path d="M48.38 96.2059H48.7851V130.831H48.38V96.2059Z" fill="url(#paint35_radial_516)"/>
<path opacity="0.2" d="M168.056 192.214L133.481 211.944C131.529 213.06 129.113 212.97 127.245 211.722L97.0428 191.495C96.3042 190.998 96.146 189.977 96.6999 189.279L130.421 208.321L165.434 187.724L168.104 189.369C169.169 190.025 169.143 191.59 168.056 192.214Z" fill="black"/>
<path d="M138.898 165.867C139.452 166.19 139.964 166.116 140.201 165.677L140.766 164.651C141.288 163.704 142.386 163.545 143.588 164.238L152.984 169.676C154.509 170.559 155.965 172.109 157.03 173.976C158.328 176.251 160.101 178.134 161.952 179.207L170.921 184.396V175.267L143.303 159.282C140.07 157.409 137.453 158.906 137.453 162.63V163.36C137.453 164.286 138.097 165.402 138.898 165.867Z" fill="url(#paint36_linear_516)"/>
<path class="blue" opacity="0.75" d="M168.626 184.957V182.402C168.626 180.662 167.571 179.863 166.268 180.615L155.664 186.756C154.361 187.507 153.306 189.533 153.306 191.273V193.828C153.306 195.568 154.361 196.367 155.664 195.616L166.268 189.474C167.571 188.718 168.626 186.697 168.626 184.957Z" fill="url(#paint37_linear_516)"/>
<path class="blue" opacity="0.8" d="M155.274 195.224L165.878 189.083C167.181 188.332 168.236 186.306 168.236 184.566V182.011C168.236 181.381 168.099 180.879 167.861 180.525C168.331 180.831 168.626 181.482 168.626 182.402V184.957C168.626 186.697 167.571 188.718 166.268 189.474L155.664 195.616C154.831 196.097 154.103 195.943 153.686 195.314C154.103 195.584 154.662 195.579 155.274 195.224Z" fill="url(#paint38_linear_516)"/>
<path class="red" opacity="0.75" d="M146.116 197.985V195.43C146.116 193.69 145.06 192.891 143.757 193.643L133.154 199.784C131.851 200.535 130.796 202.561 130.796 204.301V206.856C130.796 208.596 131.851 209.395 133.154 208.644L143.757 202.503C145.06 201.751 146.116 199.726 146.116 197.985Z" fill="url(#paint39_linear_516)"/>
<path class="red" opacity="0.8" d="M132.769 208.252L143.372 202.111C144.675 201.36 145.73 199.334 145.73 197.594V195.039C145.73 194.41 145.593 193.907 145.356 193.553C145.825 193.859 146.121 194.51 146.121 195.43V197.985C146.121 199.726 145.066 201.746 143.763 202.503L133.159 208.644C132.325 209.125 131.597 208.972 131.181 208.342C131.592 208.617 132.151 208.612 132.769 208.252Z" fill="url(#paint40_linear_516)"/>
<path d="M170.984 175.172V185.613C170.984 187.734 169.491 190.321 167.645 191.389L155.047 198.678C153.311 199.683 151.781 199.265 151.27 197.652C151.08 197.038 150.5 196.885 149.84 197.266L149.576 197.419C148.922 197.8 148.342 198.631 148.147 199.461C147.64 201.667 146.105 203.857 144.369 204.862L131.777 212.151C129.93 213.219 128.437 212.362 128.437 210.241V199.8L170.984 175.172ZM153.306 193.828C153.306 195.568 154.361 196.367 155.664 195.616L166.268 189.474C167.571 188.723 168.626 186.697 168.626 184.957V182.402C168.626 180.662 167.571 179.863 166.268 180.614L155.664 186.756C154.361 187.507 153.306 189.533 153.306 191.273V193.828ZM130.796 206.856C130.796 208.596 131.851 209.395 133.154 208.644L143.757 202.502C145.061 201.751 146.116 199.726 146.116 197.985V195.43C146.116 193.69 145.061 192.891 143.757 193.643L133.154 199.784C131.851 200.535 130.796 202.561 130.796 204.301V206.856Z" fill="url(#paint41_linear_516)"/>
<path opacity="0.5" d="M128.443 229.061V218.62C128.443 216.499 129.936 213.912 131.782 212.844L144.38 205.555C146.116 204.55 147.645 204.967 148.157 206.581C148.347 207.194 148.927 207.348 149.587 206.967L149.851 206.813C150.505 206.433 151.085 205.602 151.28 204.772C151.787 202.566 153.322 200.376 155.058 199.371L167.645 192.087C169.491 191.019 170.984 191.876 170.984 193.997V204.438L128.443 229.061ZM146.116 210.41C146.116 208.67 145.06 207.871 143.757 208.622L133.154 214.764C131.851 215.515 130.796 217.541 130.796 219.281V221.836C130.796 223.576 131.851 224.375 133.154 223.624L143.757 217.482C145.06 216.731 146.116 214.705 146.116 212.965V210.41ZM168.626 197.382C168.626 195.642 167.571 194.843 166.268 195.594L155.664 201.736C154.361 202.487 153.306 204.513 153.306 206.253V208.808C153.306 210.548 154.361 211.347 155.664 210.595L166.268 204.454C167.571 203.703 168.626 201.677 168.626 199.937V197.382Z" fill="url(#paint42_linear_516)"/>
<path d="M96.4415 190.421C96.9954 190.744 97.5071 190.67 97.7445 190.231L98.309 189.205C98.8313 188.258 99.9286 188.099 101.131 188.792L110.527 194.23C112.052 195.113 113.508 196.663 114.573 198.53C115.871 200.805 117.644 202.688 119.495 203.761L128.464 208.95V199.821L100.847 183.836C97.6126 181.963 94.996 183.46 94.996 187.184V187.914C94.996 188.84 95.6449 189.961 96.4415 190.421Z" fill="url(#paint43_linear_516)"/>

<g class="shadow">

  <path opacity="0.05" d="M134.225 194.766L99.7438 174.846L122.877 161.553L156.556 181.939L134.225 194.766Z" fill="black"/>
<path opacity="0.075" d="M134.198 194.565L100.915 175.338L123.452 162.405L155.965 182.077L134.198 194.565Z" fill="black"/>
<path opacity="0.1" d="M134.177 194.364L102.086 175.825L124.027 163.251L155.374 182.22L134.177 194.364Z" fill="black"/>
<path opacity="0.125" d="M134.151 194.163L103.257 176.316L124.602 164.098L154.778 182.362L134.151 194.163Z" fill="black"/>
<path opacity="0.15" d="M134.13 193.957L104.428 176.803L125.177 164.949L154.187 182.5L134.13 193.957Z" fill="black"/>
<path opacity="0.175" d="M134.103 193.756L105.6 177.295L125.752 165.796L153.591 182.643L134.103 193.756Z" fill="black"/>
<path opacity="0.2" d="M134.082 193.555L106.776 177.782L126.327 166.642L153 182.786L134.082 193.555Z" fill="black"/>

</g>

<g class="bucket">

  <path d="M104.133 140.522L115.322 182.854L134.182 171.693L134.072 123.035L104.133 140.522Z" fill="url(#paint44_linear_516)"/>
<path d="M164.026 140.522L152.842 182.336L133.982 171.175L134.093 123.035L164.026 140.522Z" fill="url(#paint45_linear_516)"/>
<path d="M131.228 128.102C131.228 126.648 132.404 125.468 133.855 125.468C135.026 125.468 136.008 126.241 136.345 127.304C136.657 127.172 136.999 127.097 137.358 127.097C138.809 127.097 139.985 128.277 139.985 129.732C139.985 131.16 138.851 132.313 137.443 132.355C137.205 133.783 135.976 134.873 134.483 134.873C132.827 134.873 131.481 133.524 131.481 131.863C131.481 131.181 131.713 130.552 132.099 130.044C131.56 129.562 131.228 128.875 131.228 128.102Z" fill="url(#paint46_radial_516)"/>
<path d="M125.847 129.515C126.259 128.34 127.366 127.499 128.675 127.499C130.331 127.499 131.676 128.848 131.676 130.509C131.676 131.028 131.545 131.519 131.312 131.943C131.766 132.419 132.051 133.059 132.051 133.768C132.051 135.222 130.875 136.402 129.424 136.402C128.253 136.402 127.271 135.629 126.934 134.566C126.623 134.699 126.28 134.773 125.921 134.773C124.47 134.773 123.294 133.593 123.294 132.138C123.299 130.71 124.433 129.557 125.847 129.515Z" fill="url(#paint47_radial_516)"/>
<path d="M134.13 132.329C134.541 131.155 135.649 130.314 136.957 130.314C138.614 130.314 139.959 131.662 139.959 133.323C139.959 133.842 139.827 134.334 139.595 134.757C140.049 135.233 140.334 135.873 140.334 136.582C140.334 138.036 139.157 139.216 137.706 139.216C136.535 139.216 135.554 138.444 135.216 137.38C134.905 137.513 134.562 137.587 134.203 137.587C132.753 137.587 131.576 136.407 131.576 134.952C131.587 133.53 132.721 132.371 134.13 132.329Z" fill="url(#paint48_radial_516)"/>
<path d="M125.784 136.238C125.784 134.783 126.96 133.604 128.411 133.604C129.582 133.604 130.563 134.376 130.901 135.439C131.212 135.307 131.555 135.233 131.914 135.233C133.365 135.233 134.541 136.412 134.541 137.867C134.541 139.295 133.407 140.448 131.998 140.491C131.761 141.919 130.532 143.008 129.039 143.008C127.382 143.008 126.037 141.66 126.037 139.999C126.037 139.316 126.269 138.687 126.654 138.179C126.121 137.698 125.784 137.01 125.784 136.238Z" fill="url(#paint49_radial_516)"/>
<path d="M139.79 130.546C139.79 129.092 140.967 127.912 142.417 127.912C143.589 127.912 144.57 128.684 144.907 129.748C145.219 129.615 145.562 129.541 145.92 129.541C147.371 129.541 148.548 130.721 148.548 132.175C148.548 133.604 147.413 134.757 146.005 134.799C145.767 136.227 144.538 137.317 143.045 137.317C141.389 137.317 140.043 135.968 140.043 134.307C140.043 133.625 140.276 132.995 140.661 132.487C140.128 132.006 139.79 131.319 139.79 130.546Z" fill="url(#paint50_radial_516)"/>
<path d="M133.175 133.202C133.586 132.027 134.694 131.186 136.002 131.186C137.659 131.186 139.004 132.535 139.004 134.196C139.004 134.714 138.872 135.206 138.64 135.629C139.094 136.106 139.379 136.746 139.379 137.454C139.379 138.909 138.202 140.089 136.752 140.089C135.58 140.089 134.599 139.316 134.261 138.253C133.95 138.385 133.607 138.459 133.249 138.459C131.798 138.459 130.621 137.28 130.621 135.825C130.627 134.402 131.761 133.249 133.175 133.202Z" fill="url(#paint51_radial_516)"/>
<path d="M146.638 135.656C147.049 134.482 148.157 133.641 149.465 133.641C151.122 133.641 152.467 134.989 152.467 136.65C152.467 137.169 152.335 137.661 152.103 138.084C152.557 138.56 152.842 139.2 152.842 139.909C152.842 141.363 151.665 142.543 150.215 142.543C149.043 142.543 148.062 141.771 147.725 140.707C147.413 140.84 147.07 140.914 146.712 140.914C145.261 140.914 144.084 139.734 144.084 138.28C144.09 136.851 145.224 135.698 146.638 135.656Z" fill="url(#paint52_radial_516)"/>
<path d="M139.289 133.979C139.289 132.525 140.465 131.345 141.916 131.345C143.087 131.345 144.069 132.117 144.406 133.18C144.718 133.048 145.06 132.974 145.419 132.974C146.87 132.974 148.046 134.154 148.046 135.608C148.046 137.036 146.912 138.19 145.504 138.232C145.266 139.66 144.037 140.75 142.544 140.75C140.888 140.75 139.542 139.401 139.542 137.74C139.542 137.058 139.774 136.428 140.16 135.92C139.627 135.439 139.289 134.751 139.289 133.979Z" fill="url(#paint53_radial_516)"/>
<path d="M135.913 139.56C135.913 138.105 137.089 136.925 138.54 136.925C139.711 136.925 140.692 137.698 141.03 138.761C141.341 138.629 141.684 138.555 142.043 138.555C143.494 138.555 144.67 139.734 144.67 141.189C144.67 142.617 143.536 143.77 142.127 143.812C141.89 145.241 140.661 146.33 139.168 146.33C137.511 146.33 136.166 144.981 136.166 143.32C136.166 142.638 136.398 142.009 136.783 141.501C136.25 141.019 135.913 140.332 135.913 139.56Z" fill="url(#paint54_radial_516)"/>
<path d="M150.046 139.009C150.046 137.555 151.222 136.375 152.673 136.375C153.844 136.375 154.825 137.148 155.163 138.211C155.474 138.079 155.817 138.004 156.176 138.004C157.627 138.004 158.803 139.184 158.803 140.639C158.803 142.067 157.669 143.22 156.26 143.262C156.023 144.69 154.794 145.78 153.301 145.78C151.644 145.78 150.299 144.431 150.299 142.77C150.299 142.088 150.531 141.459 150.916 140.951C150.383 140.469 150.046 139.782 150.046 139.009Z" fill="url(#paint55_radial_516)"/>
<path d="M144.67 140.422C145.082 139.248 146.189 138.406 147.498 138.406C149.154 138.406 150.499 139.755 150.499 141.416C150.499 141.935 150.368 142.427 150.135 142.85C150.589 143.326 150.874 143.966 150.874 144.675C150.874 146.129 149.698 147.309 148.247 147.309C147.076 147.309 146.094 146.536 145.757 145.473C145.446 145.605 145.103 145.68 144.744 145.68C143.293 145.68 142.117 144.5 142.117 143.045C142.122 141.623 143.256 140.464 144.67 140.422Z" fill="url(#paint56_radial_516)"/>
<path d="M152.953 143.241C153.364 142.067 154.472 141.226 155.78 141.226C157.437 141.226 158.782 142.575 158.782 144.236C158.782 144.754 158.65 145.246 158.418 145.669C158.872 146.145 159.157 146.785 159.157 147.494C159.157 148.948 157.98 150.128 156.529 150.128C155.358 150.128 154.377 149.356 154.039 148.293C153.728 148.425 153.385 148.499 153.026 148.499C151.576 148.499 150.399 147.319 150.399 145.865C150.405 144.437 151.539 143.283 152.953 143.241Z" fill="url(#paint57_radial_516)"/>
<path d="M144.607 147.145C144.607 145.69 145.783 144.511 147.234 144.511C148.405 144.511 149.386 145.283 149.724 146.346C150.035 146.214 150.378 146.14 150.737 146.14C152.188 146.14 153.364 147.319 153.364 148.774C153.364 150.202 152.23 151.355 150.821 151.398C150.584 152.826 149.355 153.915 147.862 153.915C146.205 153.915 144.86 152.567 144.86 150.906C144.86 150.223 145.092 149.594 145.477 149.086C144.944 148.605 144.607 147.917 144.607 147.145Z" fill="url(#paint58_radial_516)"/>
<path d="M119.785 134.307C119.785 132.852 120.962 131.673 122.413 131.673C123.584 131.673 124.565 132.445 124.903 133.508C125.214 133.376 125.557 133.302 125.916 133.302C127.366 133.302 128.543 134.482 128.543 135.936C128.543 137.364 127.409 138.518 126 138.56C125.763 139.988 124.533 141.078 123.04 141.078C121.384 141.078 120.039 139.729 120.039 138.068C120.039 137.386 120.271 136.756 120.656 136.248C120.123 135.767 119.785 135.079 119.785 134.307Z" fill="url(#paint59_radial_516)"/>
<path d="M114.405 135.719C114.816 134.545 115.924 133.704 117.232 133.704C118.889 133.704 120.234 135.053 120.234 136.714C120.234 137.232 120.102 137.724 119.87 138.147C120.324 138.623 120.609 139.263 120.609 139.972C120.609 141.427 119.432 142.606 117.981 142.606C116.81 142.606 115.829 141.834 115.491 140.771C115.18 140.903 114.837 140.977 114.478 140.977C113.028 140.977 111.851 139.798 111.851 138.343C111.856 136.92 112.996 135.762 114.405 135.719Z" fill="url(#paint60_radial_516)"/>
<path d="M122.692 138.539C123.104 137.364 124.212 136.523 125.52 136.523C127.177 136.523 128.522 137.872 128.522 139.533C128.522 140.051 128.39 140.543 128.158 140.967C128.611 141.443 128.896 142.083 128.896 142.791C128.896 144.246 127.72 145.426 126.269 145.426C125.098 145.426 124.117 144.653 123.779 143.59C123.468 143.722 123.125 143.796 122.766 143.796C121.315 143.796 120.139 142.617 120.139 141.162C120.144 139.734 121.278 138.581 122.692 138.539Z" fill="url(#paint61_radial_516)"/>
<path d="M114.341 142.442C114.341 140.988 115.518 139.808 116.968 139.808C118.14 139.808 119.121 140.58 119.458 141.644C119.77 141.511 120.113 141.437 120.471 141.437C121.922 141.437 123.098 142.617 123.098 144.072C123.098 145.5 121.964 146.653 120.556 146.695C120.318 148.123 119.089 149.213 117.596 149.213C115.94 149.213 114.594 147.864 114.594 146.203C114.594 145.516 114.827 144.891 115.212 144.384C114.679 143.902 114.341 143.215 114.341 142.442Z" fill="url(#paint62_radial_516)"/>
<path d="M127.287 138.951C127.287 137.497 128.464 136.317 129.914 136.317C131.086 136.317 132.067 137.089 132.405 138.153C132.716 138.02 133.059 137.946 133.417 137.946C134.868 137.946 136.045 139.126 136.045 140.58C136.045 142.009 134.91 143.162 133.502 143.204C133.264 144.632 132.035 145.722 130.542 145.722C128.886 145.722 127.541 144.373 127.541 142.712C127.541 142.03 127.773 141.4 128.158 140.893C127.625 140.411 127.287 139.718 127.287 138.951Z" fill="url(#paint63_radial_516)"/>
<path d="M121.853 141.792C122.265 140.618 123.373 139.776 124.681 139.776C126.338 139.776 127.683 141.125 127.683 142.786C127.683 143.305 127.551 143.797 127.319 144.22C127.773 144.696 128.057 145.336 128.057 146.045C128.057 147.499 126.881 148.679 125.43 148.679C124.259 148.679 123.278 147.906 122.94 146.843C122.629 146.976 122.286 147.05 121.927 147.05C120.477 147.05 119.3 145.87 119.3 144.415C119.305 142.993 120.445 141.834 121.853 141.792Z" fill="url(#paint64_radial_516)"/>
<path d="M133.634 142.675C134.045 141.501 135.153 140.66 136.461 140.66C138.118 140.66 139.463 142.009 139.463 143.67C139.463 144.188 139.331 144.68 139.099 145.103C139.553 145.579 139.838 146.219 139.838 146.928C139.838 148.382 138.661 149.562 137.211 149.562C136.039 149.562 135.058 148.79 134.72 147.727C134.409 147.859 134.066 147.933 133.708 147.933C132.257 147.933 131.08 146.753 131.08 145.299C131.086 143.871 132.22 142.717 133.634 142.675Z" fill="url(#paint65_radial_516)"/>
<path d="M124.47 145.769C124.47 144.315 125.647 143.135 127.097 143.135C128.268 143.135 129.25 143.908 129.587 144.971C129.899 144.839 130.242 144.764 130.6 144.764C132.051 144.764 133.227 145.944 133.227 147.399C133.227 148.827 132.093 149.98 130.685 150.022C130.447 151.45 129.218 152.54 127.725 152.54C126.069 152.54 124.723 151.191 124.723 149.53C124.723 148.848 124.955 148.219 125.341 147.711C124.808 147.229 124.47 146.536 124.47 145.769Z" fill="url(#paint66_radial_516)"/>
<path d="M126.306 142.088C126.306 140.633 127.482 139.454 128.933 139.454C130.104 139.454 131.086 140.226 131.423 141.289C131.735 141.157 132.077 141.083 132.436 141.083C133.887 141.083 135.063 142.263 135.063 143.717C135.063 145.145 133.929 146.298 132.521 146.341C132.283 147.769 131.054 148.859 129.561 148.859C127.904 148.859 126.559 147.51 126.559 145.849C126.559 145.161 126.791 144.537 127.176 144.029C126.644 143.548 126.306 142.86 126.306 142.088Z" fill="url(#paint67_radial_516)"/>
<path d="M138.603 145.219C138.603 143.765 139.78 142.585 141.23 142.585C142.402 142.585 143.383 143.357 143.72 144.421C144.032 144.288 144.375 144.214 144.733 144.214C146.184 144.214 147.361 145.394 147.361 146.849C147.361 148.277 146.226 149.43 144.818 149.472C144.58 150.9 143.351 151.99 141.858 151.99C140.202 151.99 138.856 150.641 138.856 148.98C138.856 148.298 139.089 147.668 139.474 147.161C138.941 146.679 138.603 145.992 138.603 145.219Z" fill="url(#paint68_radial_516)"/>
<path d="M133.228 146.626C133.639 145.452 134.747 144.611 136.055 144.611C137.712 144.611 139.057 145.96 139.057 147.621C139.057 148.139 138.925 148.631 138.693 149.054C139.147 149.53 139.431 150.17 139.431 150.879C139.431 152.334 138.255 153.513 136.804 153.513C135.633 153.513 134.652 152.741 134.314 151.678C134.003 151.81 133.66 151.884 133.301 151.884C131.851 151.884 130.674 150.705 130.674 149.25C130.679 147.827 131.814 146.674 133.228 146.626Z" fill="url(#paint69_radial_516)"/>
<path d="M133.059 137.602C133.47 136.428 134.578 135.587 135.886 135.587C137.543 135.587 138.888 136.936 138.888 138.597C138.888 139.115 138.756 139.607 138.524 140.03C138.978 140.506 139.263 141.146 139.263 141.855C139.263 143.31 138.086 144.489 136.635 144.489C135.464 144.489 134.483 143.717 134.145 142.654C133.834 142.786 133.491 142.86 133.133 142.86C131.682 142.86 130.505 141.681 130.505 140.226C130.511 138.798 131.645 137.645 133.059 137.602Z" fill="url(#paint70_radial_516)"/>
<path d="M109.968 140.295C110.379 139.121 111.487 138.28 112.795 138.28C114.452 138.28 115.797 139.628 115.797 141.289C115.797 141.808 115.665 142.3 115.433 142.723C115.887 143.199 116.172 143.839 116.172 144.548C116.172 146.002 114.995 147.182 113.545 147.182C112.373 147.182 111.392 146.41 111.054 145.346C110.743 145.479 110.4 145.553 110.042 145.553C108.591 145.553 107.414 144.373 107.414 142.918C107.42 141.496 108.554 140.337 109.968 140.295Z" fill="url(#paint71_radial_516)"/>
<path d="M119.669 146.997C120.081 145.822 121.189 144.981 122.497 144.981C124.154 144.981 125.499 146.33 125.499 147.991C125.499 148.509 125.367 149.001 125.135 149.425C125.589 149.901 125.873 150.541 125.873 151.249C125.873 152.704 124.697 153.884 123.246 153.884C122.075 153.884 121.094 153.111 120.756 152.048C120.445 152.18 120.102 152.254 119.743 152.254C118.292 152.254 117.116 151.075 117.116 149.62C117.121 148.192 118.256 147.039 119.669 146.997Z" fill="url(#paint72_radial_516)"/>
<path d="M128.786 151.207C129.197 150.033 130.305 149.192 131.613 149.192C133.27 149.192 134.615 150.541 134.615 152.202C134.615 152.72 134.483 153.212 134.251 153.635C134.705 154.111 134.99 154.751 134.99 155.46C134.99 156.915 133.813 158.094 132.362 158.094C131.191 158.094 130.21 157.322 129.872 156.259C129.561 156.391 129.218 156.465 128.859 156.465C127.409 156.465 126.232 155.285 126.232 153.831C126.237 152.403 127.377 151.249 128.786 151.207Z" fill="url(#paint73_radial_516)"/>
<path d="M141.51 149.446C141.922 148.271 143.029 147.43 144.338 147.43C145.994 147.43 147.339 148.779 147.339 150.44C147.339 150.958 147.208 151.45 146.975 151.874C147.429 152.35 147.714 152.99 147.714 153.698C147.714 155.153 146.538 156.333 145.087 156.333C143.916 156.333 142.934 155.56 142.597 154.497C142.286 154.629 141.943 154.703 141.584 154.703C140.133 154.703 138.957 153.524 138.957 152.069C138.962 150.646 140.096 149.488 141.51 149.446Z" fill="url(#paint74_radial_516)"/>
<path d="M133.164 153.355C133.164 151.9 134.341 150.72 135.791 150.72C136.963 150.72 137.944 151.493 138.281 152.556C138.593 152.424 138.936 152.35 139.294 152.35C140.745 152.35 141.921 153.529 141.921 154.984C141.921 156.412 140.787 157.565 139.379 157.607C139.141 159.036 137.912 160.125 136.419 160.125C134.763 160.125 133.417 158.776 133.417 157.116C133.417 156.433 133.65 155.804 134.035 155.296C133.502 154.815 133.164 154.127 133.164 153.355Z" fill="url(#paint75_radial_516)"/>
<path d="M131.355 160.607C131.355 159.152 132.531 157.972 133.982 157.972C135.153 157.972 136.134 158.745 136.472 159.808C136.783 159.676 137.126 159.602 137.485 159.602C138.936 159.602 140.112 160.781 140.112 162.236C140.112 163.664 138.978 164.817 137.569 164.859C137.332 166.288 136.103 167.377 134.61 167.377C132.953 167.377 131.608 166.028 131.608 164.367C131.608 163.685 131.84 163.056 132.225 162.548C131.692 162.067 131.355 161.379 131.355 160.607Z" fill="url(#paint76_radial_516)"/>
<path d="M131.107 168.742C131.107 167.287 132.283 166.108 133.734 166.108C134.905 166.108 135.886 166.88 136.224 167.943C136.535 167.811 136.878 167.737 137.237 167.737C138.688 167.737 139.864 168.916 139.864 170.371C139.864 171.799 138.73 172.952 137.321 172.995C137.084 174.423 135.855 175.512 134.362 175.512C132.705 175.512 131.36 174.164 131.36 172.503C131.36 171.82 131.592 171.191 131.977 170.683C131.444 170.202 131.107 169.514 131.107 168.742Z" fill="url(#paint77_radial_516)"/>
<path d="M133.998 157.994L134.014 193.47L115.154 182.627L104.065 140.506L133.998 157.994Z" fill="url(#paint78_linear_516)"/>
<path d="M105.378 141.321L115.977 183.103L115.154 182.627L104.065 140.506L105.378 141.321Z" fill="url(#paint79_linear_516)"/>
<path d="M109.73 143.86L118.725 184.674L117.897 184.203L108.417 143.045L109.73 143.86Z" fill="url(#paint80_linear_516)"/>
<path d="M114.088 146.399L121.468 186.25L120.64 185.774L112.774 145.584L114.088 146.399Z" fill="url(#paint81_linear_516)"/>
<path d="M118.446 148.938L124.212 187.821L123.383 187.345L117.132 148.123L118.446 148.938Z" fill="url(#paint82_linear_516)"/>
<path d="M122.798 151.477L126.955 189.397L126.127 188.921L121.49 150.662L122.798 151.477Z" fill="url(#paint83_linear_516)"/>
<path d="M127.155 154.016L129.698 190.968L128.875 190.492L125.842 153.201L127.155 154.016Z" fill="url(#paint84_linear_516)"/>
<path d="M131.513 156.555L132.447 192.545L131.618 192.069L130.199 155.74L131.513 156.555Z" fill="url(#paint85_linear_516)"/>
<path d="M134.024 157.994L134.014 193.47L152.91 182.31L163.999 140.506L134.024 157.994Z" fill="url(#paint86_linear_516)"/>
<path d="M161.773 142.072L151.507 183.103L152.335 182.627L163.087 141.258L161.773 142.072Z" fill="url(#paint87_linear_516)"/>
<path d="M157.421 144.574L148.764 184.727L149.592 184.256L158.729 143.754L157.421 144.574Z" fill="url(#paint88_linear_516)"/>
<path d="M153.063 147.071L146.021 186.356L146.849 185.88L154.377 146.256L153.063 147.071Z" fill="url(#paint89_linear_516)"/>
<path d="M148.706 149.567L143.277 187.98L144.106 187.504L150.019 148.753L148.706 149.567Z" fill="url(#paint90_linear_516)"/>
<path d="M144.348 152.064L140.534 189.609L141.362 189.133L145.662 151.25L144.348 152.064Z" fill="url(#paint91_linear_516)"/>
<path d="M139.996 154.561L137.791 191.233L138.614 190.757L141.31 153.746L139.996 154.561Z" fill="url(#paint92_linear_516)"/>
<path d="M135.638 157.057L135.042 192.857L135.871 192.381L136.952 156.243L135.638 157.057Z" fill="url(#paint93_linear_516)"/>
<path d="M113.998 164.367C113.998 169.16 117.876 175.29 122.655 178.057C127.435 180.823 131.313 179.183 131.313 174.386C131.313 169.594 127.435 163.463 122.655 160.697C117.871 157.93 113.998 159.575 113.998 164.367Z" fill="url(#paint94_linear_516)"/>
<path d="M114.695 164.912C114.695 169.276 118.224 174.851 122.571 177.369C126.923 179.887 130.447 178.395 130.447 174.031C130.447 169.668 126.918 164.092 122.571 161.575C118.224 159.057 114.695 160.548 114.695 164.912Z" fill="url(#paint95_linear_516)"/>
<path d="M125.858 169.366C125.673 169.689 125.657 170.064 125.81 170.493C125.963 170.921 126.269 171.371 126.733 171.842L127.023 172.138L126.475 173.095L127.509 174.143L129.16 171.26L127.836 169.921C127.351 169.435 126.944 169.144 126.612 169.059C126.274 168.975 126.026 169.075 125.858 169.366ZM127.387 171.508L127.198 171.318C127.045 171.159 126.939 171.001 126.881 170.847C126.828 170.688 126.834 170.551 126.902 170.435C127.013 170.239 127.213 170.286 127.498 170.577L127.767 170.847L127.387 171.508Z" fill="url(#paint96_linear_516)"/>
<path d="M121.769 166.055C121.489 166.541 121.437 167.065 121.611 167.642C121.78 168.213 122.17 168.805 122.782 169.424C123.383 170.033 123.916 170.371 124.38 170.44C124.845 170.509 125.219 170.302 125.494 169.821C125.768 169.34 125.821 168.816 125.647 168.239C125.472 167.663 125.082 167.07 124.475 166.457C123.869 165.843 123.331 165.499 122.877 165.431C122.418 165.362 122.049 165.568 121.769 166.055ZM124.402 168.721C124.08 169.276 123.663 169.297 123.151 168.774C122.887 168.509 122.734 168.245 122.687 167.98C122.64 167.716 122.698 167.441 122.861 167.155C123.025 166.869 123.215 166.721 123.42 166.711C123.626 166.705 123.858 166.827 124.111 167.086C124.628 167.615 124.723 168.16 124.402 168.721Z" fill="url(#paint97_linear_516)"/>
<path d="M119.005 162.437C118.82 162.759 118.804 163.135 118.957 163.563C119.11 163.992 119.416 164.441 119.88 164.912L120.171 165.208L119.622 166.166L120.656 167.213L122.307 164.33L120.983 162.992C120.498 162.506 120.091 162.215 119.759 162.13C119.421 162.04 119.174 162.141 119.005 162.437ZM120.535 164.574L120.345 164.383C120.192 164.225 120.086 164.066 120.028 163.913C119.975 163.754 119.981 163.616 120.049 163.5C120.16 163.304 120.361 163.352 120.645 163.643L120.914 163.913L120.535 164.574Z" fill="url(#paint98_linear_516)"/>
<path d="M126.248 174.867C126.443 175.063 126.559 175.274 126.601 175.507C126.644 175.735 126.601 175.957 126.48 176.168C126.227 176.607 125.884 176.602 125.441 176.153C125.309 176.015 125.188 175.872 125.077 175.719C124.966 175.565 124.861 175.401 124.755 175.237L124.46 175.756C124.665 176.094 124.924 176.422 125.24 176.745C125.694 177.205 126.1 177.459 126.459 177.507C126.818 177.554 127.103 177.39 127.319 177.015C127.456 176.782 127.514 176.512 127.498 176.216C127.482 175.92 127.393 175.613 127.224 175.29C127.06 174.973 126.828 174.661 126.528 174.359C126.2 174.031 125.858 173.767 125.499 173.571L125.472 174.306C125.604 174.381 125.736 174.46 125.863 174.545C125.995 174.634 126.121 174.74 126.248 174.867Z" fill="url(#paint99_linear_516)"/>
<path d="M121.964 171.577C121.743 171.958 121.7 172.376 121.838 172.825C121.975 173.275 122.281 173.746 122.761 174.232C123.236 174.714 123.652 174.978 124.022 175.036C124.391 175.095 124.681 174.931 124.903 174.544C125.119 174.169 125.161 173.751 125.024 173.296C124.887 172.841 124.581 172.376 124.101 171.889C123.621 171.403 123.199 171.133 122.84 171.08C122.471 171.032 122.181 171.196 121.964 171.577ZM124.038 173.682C123.784 174.121 123.457 174.137 123.051 173.725C122.845 173.518 122.724 173.307 122.682 173.1C122.645 172.894 122.687 172.677 122.819 172.45C122.951 172.222 123.093 172.106 123.257 172.101C123.42 172.095 123.6 172.196 123.805 172.397C124.217 172.81 124.296 173.238 124.038 173.682Z" fill="url(#paint100_linear_516)"/>
<path d="M120.74 170.837L120.266 171.662L121.083 172.487L122.386 170.212L121.4 169.213C120.582 168.382 120.039 168.192 119.785 168.641C119.633 168.906 119.691 169.281 119.949 169.768L118.504 169.869L119.427 170.805L120.54 170.625L120.74 170.837ZM121.004 170.376L120.851 170.223C120.566 169.937 120.477 169.694 120.587 169.509C120.677 169.35 120.862 169.414 121.141 169.699L121.305 169.863L121.004 170.376Z" fill="url(#paint101_linear_516)"/>
<path d="M115.665 167.007L116.736 168.091L118.757 167.605L118.778 167.626C118.609 167.853 118.482 168.028 118.409 168.16L117.823 169.186L118.546 169.916L119.849 167.642L118.783 166.563L116.778 167.028L116.768 167.018C116.921 166.806 117.032 166.631 117.111 166.494L117.702 165.468L116.974 164.732L115.665 167.007Z" fill="url(#paint102_linear_516)"/>
<path d="M130.737 139.486C130.236 140.707 130.769 142.083 131.924 142.559C133.08 143.035 134.42 142.432 134.921 141.21C135.422 139.988 134.889 138.613 133.734 138.137C132.584 137.661 131.239 138.264 130.737 139.486Z" fill="url(#paint103_radial_516)"/>
<path d="M119.627 143.543C119.126 144.764 119.659 146.14 120.814 146.616C121.97 147.092 123.31 146.489 123.811 145.267C124.312 144.045 123.779 142.67 122.624 142.194C121.468 141.718 120.128 142.321 119.627 143.543Z" fill="url(#paint104_radial_516)"/>
<path d="M125.05 149.419C124.549 150.641 125.082 152.016 126.237 152.492C127.393 152.969 128.733 152.366 129.234 151.144C129.735 149.922 129.202 148.547 128.047 148.07C126.897 147.589 125.552 148.197 125.05 149.419Z" fill="url(#paint105_radial_516)"/>
<path d="M130.563 152.477C129.825 154.275 130.605 156.306 132.309 157.004C134.013 157.708 135.992 156.814 136.73 155.016C137.469 153.217 136.688 151.186 134.984 150.488C133.28 149.784 131.302 150.678 130.563 152.477Z" fill="url(#paint106_radial_516)"/>
<path d="M120.403 136.846C119.664 138.645 120.445 140.676 122.149 141.374C123.853 142.072 125.831 141.183 126.57 139.385C127.308 137.587 126.528 135.555 124.824 134.857C123.114 134.154 121.136 135.042 120.403 136.846Z" fill="url(#paint107_radial_516)"/>
<path d="M127.467 132.921C126.965 134.143 127.498 135.518 128.654 135.994C129.809 136.47 131.149 135.868 131.65 134.646C132.151 133.424 131.618 132.049 130.463 131.572C129.308 131.096 127.968 131.699 127.467 132.921Z" fill="url(#paint108_radial_516)"/>
<path d="M143.895 143.929C143.267 145.468 143.932 147.198 145.388 147.795C146.844 148.393 148.532 147.631 149.16 146.097C149.787 144.558 149.123 142.829 147.667 142.231C146.216 141.633 144.528 142.395 143.895 143.929Z" fill="url(#paint109_radial_516)"/>
<path d="M131.36 147.245C131.075 147.943 131.376 148.726 132.035 148.996C132.695 149.266 133.46 148.922 133.744 148.224C134.029 147.526 133.729 146.743 133.069 146.473C132.41 146.203 131.645 146.552 131.36 147.245Z" fill="url(#paint110_radial_516)"/>
<path d="M126.496 142.294C126.211 142.992 126.512 143.775 127.171 144.045C127.831 144.315 128.596 143.971 128.88 143.273C129.165 142.575 128.865 141.792 128.205 141.517C127.546 141.252 126.781 141.601 126.496 142.294Z" fill="url(#paint111_radial_516)"/>
<path d="M116.209 140.908C115.924 141.607 116.224 142.389 116.884 142.659C117.543 142.929 118.308 142.585 118.593 141.887C118.878 141.189 118.577 140.406 117.918 140.131C117.259 139.866 116.494 140.21 116.209 140.908Z" fill="url(#paint112_radial_516)"/>
<path d="M130.98 134.889C130.695 135.587 130.996 136.37 131.655 136.64C132.315 136.91 133.08 136.566 133.365 135.867C133.65 135.169 133.349 134.386 132.689 134.111C132.03 133.847 131.265 134.196 130.98 134.889Z" fill="url(#paint113_radial_516)"/>
<path d="M138.318 135.793C137.675 137.37 138.355 139.142 139.843 139.755C141.331 140.369 143.061 139.591 143.705 138.015C144.348 136.439 143.668 134.667 142.18 134.053C140.692 133.44 138.962 134.217 138.318 135.793Z" fill="url(#paint114_radial_516)"/>
<path d="M138.06 149.419C137.559 150.641 138.091 152.016 139.247 152.492C140.402 152.969 141.742 152.366 142.243 151.144C142.744 149.922 142.212 148.547 141.056 148.07C139.901 147.589 138.561 148.197 138.06 149.419Z" fill="url(#paint115_radial_516)"/>
<path d="M150.463 140.522C149.961 141.744 150.494 143.119 151.65 143.596C152.805 144.072 154.145 143.469 154.646 142.247C155.147 141.025 154.614 139.65 153.459 139.173C152.309 138.697 150.964 139.3 150.463 140.522Z" fill="url(#paint116_radial_516)"/>
<path d="M163.999 140.506L134.024 157.994L104.064 140.506L134.167 156.973L163.999 140.506Z" fill="url(#paint117_radial_516)"/>
<path d="M133.998 157.994L134.014 193.47L115.154 182.627L104.065 140.506L133.998 157.994Z" fill="url(#paint118_linear_516)"/>

</g>


<defs>
<linearGradient id="paint0_linear_516" x1="3.79383" y1="197.84" x2="77.4629" y2="176.708" gradientUnits="userSpaceOnUse">
<stop offset="0.0389" stop-color="#705FC7"/>
<stop offset="1" stop-color="#352CA1"/>
</linearGradient>
<linearGradient id="paint1_linear_516" x1="38.9495" y1="168.35" x2="121.571" y2="170.692" gradientUnits="userSpaceOnUse">
<stop offset="0.0389" stop-color="#705FC7"/>
<stop offset="1" stop-color="#352CA1"/>
</linearGradient>
<linearGradient id="paint2_linear_516" x1="0.163021" y1="88.7748" x2="137.561" y2="88.7748" gradientUnits="userSpaceOnUse">
<stop offset="0.00777202" stop-color="#D2B9F2"/>
<stop offset="0.3549" stop-color="#705FC7"/>
<stop offset="0.7487" stop-color="#705FC7"/>
<stop offset="1" stop-color="#352CA1"/>
</linearGradient>
<linearGradient id="paint3_linear_516" x1="27.8442" y1="172.426" x2="80.3992" y2="174.433" gradientUnits="userSpaceOnUse">
<stop offset="0.00777202" stop-color="#D2B9F2"/>
<stop offset="0.2979" stop-color="#705FC7"/>
<stop offset="0.6399" stop-color="#705FC7"/>
<stop offset="1" stop-color="#352CA1"/>
</linearGradient>
<linearGradient id="paint4_linear_516" x1="81.3765" y1="181.124" x2="62.9432" y2="132.817" gradientUnits="userSpaceOnUse">
<stop offset="0.0389" stop-color="#705FC7"/>
<stop offset="1" stop-color="#352CA1"/>
</linearGradient>
<linearGradient id="paint5_linear_516" x1="-80.5113" y1="151.147" x2="254.813" y2="19.5119" gradientUnits="userSpaceOnUse">
<stop offset="0.0389" stop-color="#705FC7"/>
<stop offset="1" stop-color="#352CA1"/>
</linearGradient>
<linearGradient id="paint6_linear_516" x1="157.039" y1="38.0432" x2="16.3093" y2="123.241" gradientUnits="userSpaceOnUse">
<stop stop-color="#607CF2"/>
<stop offset="0.2208" stop-color="#6280F2"/>
<stop offset="0.4401" stop-color="#678CF2"/>
<stop offset="0.6588" stop-color="#6FA0F2"/>
<stop offset="0.8759" stop-color="#7BBCF2"/>
<stop offset="1" stop-color="#83CFF2"/>
</linearGradient>
<linearGradient id="paint7_linear_516" x1="50.9219" y1="114.658" x2="26.0656" y2="107.235" gradientUnits="userSpaceOnUse">
<stop stop-color="#1A103D"/>
<stop offset="0.2692" stop-color="#251B4C"/>
<stop offset="0.7839" stop-color="#403873"/>
<stop offset="1" stop-color="#4D4685"/>
</linearGradient>
<linearGradient id="paint8_linear_516" x1="163.152" y1="117.668" x2="-14.2553" y2="78.0047" gradientUnits="userSpaceOnUse">
<stop stop-color="#1A103D"/>
<stop offset="0.2692" stop-color="#251B4C"/>
<stop offset="0.7839" stop-color="#403873"/>
<stop offset="1" stop-color="#4D4685"/>
</linearGradient>
<linearGradient id="paint9_linear_516" x1="70.2661" y1="69.5133" x2="75.8443" y2="80.1161" gradientUnits="userSpaceOnUse">
<stop stop-color="#1A103D"/>
<stop offset="0.2692" stop-color="#251B4C"/>
<stop offset="0.7839" stop-color="#403873"/>
<stop offset="1" stop-color="#4D4685"/>
</linearGradient>
<linearGradient id="paint10_linear_516" x1="49.0862" y1="91.8113" x2="36.8077" y2="88.1444" gradientUnits="userSpaceOnUse">
<stop stop-color="#1A103D"/>
<stop offset="0.3316" stop-color="#241B4C"/>
<stop offset="0.9663" stop-color="#3F3873"/>
<stop offset="1" stop-color="#413A75"/>
</linearGradient>
<linearGradient id="paint11_linear_516" x1="153.664" y1="93.4931" x2="-3.12084" y2="58.44" gradientUnits="userSpaceOnUse">
<stop stop-color="#1A103D"/>
<stop offset="0.3316" stop-color="#241B4C"/>
<stop offset="0.9663" stop-color="#3F3873"/>
<stop offset="1" stop-color="#413A75"/>
</linearGradient>
<linearGradient id="paint12_linear_516" x1="93.1752" y1="40.2001" x2="68.2754" y2="82.3425" gradientUnits="userSpaceOnUse">
<stop stop-color="#251C4D"/>
<stop offset="0.5939" stop-color="#3C346D"/>
<stop offset="1" stop-color="#4D4685"/>
</linearGradient>
<linearGradient id="paint13_linear_516" x1="86.7875" y1="62.4769" x2="93.5332" y2="74.1677" gradientUnits="userSpaceOnUse">
<stop stop-color="white"/>
<stop offset="1" stop-color="#BCBCD6"/>
</linearGradient>
<linearGradient id="paint14_linear_516" x1="77.8678" y1="67.6236" x2="84.6134" y2="79.3144" gradientUnits="userSpaceOnUse">
<stop stop-color="white"/>
<stop offset="1" stop-color="#BCBCD6"/>
</linearGradient>
<linearGradient id="paint15_linear_516" x1="68.9481" y1="72.7702" x2="75.6938" y2="84.4611" gradientUnits="userSpaceOnUse">
<stop stop-color="white"/>
<stop offset="1" stop-color="#BCBCD6"/>
</linearGradient>
<linearGradient id="paint16_linear_516" x1="60.0284" y1="77.9169" x2="66.7741" y2="89.6077" gradientUnits="userSpaceOnUse">
<stop stop-color="white"/>
<stop offset="1" stop-color="#BCBCD6"/>
</linearGradient>
<linearGradient id="paint17_linear_516" x1="51.1088" y1="83.0635" x2="57.8544" y2="94.7544" gradientUnits="userSpaceOnUse">
<stop stop-color="white"/>
<stop offset="1" stop-color="#BCBCD6"/>
</linearGradient>
<linearGradient id="paint18_linear_516" x1="48.9145" y1="74.5147" x2="37.2912" y2="70.8514" gradientUnits="userSpaceOnUse">
<stop stop-color="#1A103D"/>
<stop offset="0.3316" stop-color="#241B4C"/>
<stop offset="0.9663" stop-color="#3F3873"/>
<stop offset="1" stop-color="#413A75"/>
</linearGradient>
<linearGradient id="paint19_linear_516" x1="152.997" y1="94.4981" x2="-8.13417" y2="57.0015" gradientUnits="userSpaceOnUse">
<stop stop-color="#1A103D"/>
<stop offset="0.3316" stop-color="#241B4C"/>
<stop offset="0.9663" stop-color="#3F3873"/>
<stop offset="1" stop-color="#413A75"/>
</linearGradient>
<linearGradient id="paint20_linear_516" x1="70.3409" y1="49.6838" x2="75.4801" y2="64.3445" gradientUnits="userSpaceOnUse">
<stop stop-color="#251C4D"/>
<stop offset="0.5939" stop-color="#3C346D"/>
<stop offset="1" stop-color="#4D4685"/>
</linearGradient>
<linearGradient id="paint21_linear_516" x1="91.8039" y1="59.6232" x2="84.8342" y2="59.6232" gradientUnits="userSpaceOnUse">
<stop stop-color="white"/>
<stop offset="1" stop-color="#BCBCD6"/>
</linearGradient>
<linearGradient id="paint22_linear_516" x1="82.8983" y1="63.1622" x2="75.9285" y2="63.1622" gradientUnits="userSpaceOnUse">
<stop stop-color="white"/>
<stop offset="1" stop-color="#BCBCD6"/>
</linearGradient>
<linearGradient id="paint23_linear_516" x1="73.9925" y1="66.701" x2="67.0228" y2="66.701" gradientUnits="userSpaceOnUse">
<stop stop-color="white"/>
<stop offset="1" stop-color="#BCBCD6"/>
</linearGradient>
<linearGradient id="paint24_linear_516" x1="65.0869" y1="70.2399" x2="58.1172" y2="70.2399" gradientUnits="userSpaceOnUse">
<stop stop-color="white"/>
<stop offset="1" stop-color="#BCBCD6"/>
</linearGradient>
<linearGradient id="paint25_linear_516" x1="56.1812" y1="73.7788" x2="49.2115" y2="73.7788" gradientUnits="userSpaceOnUse">
<stop stop-color="white"/>
<stop offset="1" stop-color="#BCBCD6"/>
</linearGradient>
<linearGradient id="paint26_linear_516" x1="97.0698" y1="59.3184" x2="85.7448" y2="56.9049" gradientUnits="userSpaceOnUse">
<stop stop-color="#1A103D"/>
<stop offset="0.3316" stop-color="#241B4C"/>
<stop offset="0.9663" stop-color="#3F3873"/>
<stop offset="1" stop-color="#413A75"/>
</linearGradient>
<linearGradient id="paint27_linear_516" x1="110.075" y1="65.6825" x2="96.9499" y2="57.9824" gradientUnits="userSpaceOnUse">
<stop stop-color="#1A103D"/>
<stop offset="0.2692" stop-color="#251B4C"/>
<stop offset="0.7839" stop-color="#403873"/>
<stop offset="1" stop-color="#4D4685"/>
</linearGradient>
<linearGradient id="paint28_linear_516" x1="103.534" y1="54.186" x2="102.673" y2="57.213" gradientUnits="userSpaceOnUse">
<stop stop-color="white"/>
<stop offset="1" stop-color="#BCBCD6"/>
</linearGradient>
<linearGradient id="paint29_linear_516" x1="103.534" y1="61.5375" x2="102.673" y2="64.5645" gradientUnits="userSpaceOnUse">
<stop stop-color="white"/>
<stop offset="1" stop-color="#BCBCD6"/>
</linearGradient>
<linearGradient id="paint30_linear_516" x1="98.3043" y1="64.3516" x2="97.4434" y2="67.3786" gradientUnits="userSpaceOnUse">
<stop stop-color="white"/>
<stop offset="1" stop-color="#BCBCD6"/>
</linearGradient>
<radialGradient id="paint31_radial_516" cx="0" cy="0" r="1" gradientUnits="userSpaceOnUse" gradientTransform="translate(55.7044 77.4479) rotate(180) scale(20.5036 20.5581)">
<stop stop-color="white"/>
<stop offset="1"/>
</radialGradient>
<radialGradient id="paint32_radial_516" cx="0" cy="0" r="1" gradientUnits="userSpaceOnUse" gradientTransform="translate(57.2104 64.5139) rotate(180) scale(18.6924 18.7421)">
<stop stop-color="white"/>
<stop offset="1"/>
</radialGradient>
<linearGradient id="paint33_linear_516" x1="102.558" y1="95.4654" x2="50.4077" y2="95.4654" gradientUnits="userSpaceOnUse">
<stop stop-color="white"/>
<stop offset="1" stop-color="#BCBCD6"/>
</linearGradient>
<linearGradient id="paint34_linear_516" x1="102.558" y1="112.609" x2="50.4077" y2="112.609" gradientUnits="userSpaceOnUse">
<stop stop-color="white"/>
<stop offset="1" stop-color="#BCBCD6"/>
</linearGradient>
<radialGradient id="paint35_radial_516" cx="0" cy="0" r="1" gradientUnits="userSpaceOnUse" gradientTransform="translate(43.6747 111.507) rotate(180) scale(19.1418 19.1925)">
<stop stop-color="white"/>
<stop offset="1"/>
</radialGradient>
<linearGradient id="paint36_linear_516" x1="132.185" y1="156.311" x2="170.229" y2="180.058" gradientUnits="userSpaceOnUse">
<stop stop-color="#DACEEB"/>
<stop offset="1" stop-color="#9F9FC4"/>
</linearGradient>
<linearGradient id="paint37_linear_516" x1="153.761" y1="196.587" x2="167.24" y2="180.817" gradientUnits="userSpaceOnUse">
<stop offset="0.0354" stop-color="#138BBD"/>
<stop offset="0.2257" stop-color="#169AC7"/>
<stop offset="0.5946" stop-color="#1FC3DF"/>
<stop offset="1" stop-color="#2AF6FF"/>
</linearGradient>
<linearGradient id="paint38_linear_516" x1="155.371" y1="197.959" x2="168.845" y2="182.194" gradientUnits="userSpaceOnUse">
<stop offset="0.0354" stop-color="#138BBD"/>
<stop offset="0.2257" stop-color="#169AC7"/>
<stop offset="0.5946" stop-color="#1FC3DF"/>
<stop offset="1" stop-color="#2AF6FF"/>
</linearGradient>
<linearGradient id="paint39_linear_516" x1="131.907" y1="210.264" x2="145.91" y2="190.867" gradientUnits="userSpaceOnUse">
<stop offset="0.0354" stop-color="#9F19AB"/>
<stop offset="0.2438" stop-color="#AE25B1"/>
<stop offset="0.6455" stop-color="#D744BF"/>
<stop offset="1" stop-color="#FF63CE"/>
</linearGradient>
<linearGradient id="paint40_linear_516" x1="133.408" y1="211.344" x2="147.407" y2="191.953" gradientUnits="userSpaceOnUse">
<stop offset="0.0354" stop-color="#9F19AB"/>
<stop offset="0.2438" stop-color="#AE25B1"/>
<stop offset="0.6455" stop-color="#D744BF"/>
<stop offset="1" stop-color="#FF63CE"/>
</linearGradient>
<linearGradient id="paint41_linear_516" x1="134.535" y1="191.033" x2="185.322" y2="200.055" gradientUnits="userSpaceOnUse">
<stop stop-color="#DACEEB"/>
<stop offset="1" stop-color="#9F9FC4"/>
</linearGradient>
<linearGradient id="paint42_linear_516" x1="128.205" y1="162.836" x2="154.954" y2="210.117" gradientUnits="userSpaceOnUse">
<stop stop-color="#4A4A4A"/>
<stop offset="1" stop-opacity="0"/>
</linearGradient>
<linearGradient id="paint43_linear_516" x1="90.2497" y1="175.026" x2="128.198" y2="209.257" gradientUnits="userSpaceOnUse">
<stop stop-color="#DACEEB"/>
<stop offset="1" stop-color="#9F9FC4"/>
</linearGradient>
<linearGradient id="paint44_linear_516" x1="140.228" y1="178.402" x2="106.397" y2="123.244" gradientUnits="userSpaceOnUse">
<stop offset="0.0354" stop-color="#9F19AB"/>
<stop offset="0.2438" stop-color="#AE25B1"/>
<stop offset="0.6455" stop-color="#D744BF"/>
<stop offset="1" stop-color="#FF63CE"/>
</linearGradient>
<linearGradient id="paint45_linear_516" x1="163.637" y1="146.178" x2="65.9697" y2="177.526" gradientUnits="userSpaceOnUse">
<stop offset="0.0354" stop-color="#9F19AB"/>
<stop offset="0.2438" stop-color="#AE25B1"/>
<stop offset="0.6455" stop-color="#D744BF"/>
<stop offset="1" stop-color="#FF63CE"/>
</linearGradient>
<radialGradient id="paint46_radial_516" cx="0" cy="0" r="1" gradientUnits="userSpaceOnUse" gradientTransform="translate(137.27 127.769) rotate(180) scale(8.03888 8.06023)">
<stop offset="0.1515" stop-color="#FFFAE9"/>
<stop offset="0.3884" stop-color="#FFEAB9"/>
<stop offset="0.473" stop-color="#FFE4A7"/>
<stop offset="0.5588" stop-color="#FCE0A2"/>
<stop offset="0.6609" stop-color="#F3D494"/>
<stop offset="0.7712" stop-color="#E4C07C"/>
<stop offset="0.8866" stop-color="#CFA45A"/>
<stop offset="0.9091" stop-color="#CA9E53"/>
</radialGradient>
<radialGradient id="paint47_radial_516" cx="0" cy="0" r="1" gradientUnits="userSpaceOnUse" gradientTransform="translate(129.887 129.255) rotate(180) scale(7.50548 7.52542)">
<stop offset="0.2323" stop-color="#FFFAE9"/>
<stop offset="0.3836" stop-color="#FFEAB9"/>
<stop offset="0.4377" stop-color="#FFE4A7"/>
<stop offset="0.4847" stop-color="#FCE0A2"/>
<stop offset="0.5407" stop-color="#F3D494"/>
<stop offset="0.6012" stop-color="#E4C07C"/>
<stop offset="0.6644" stop-color="#CFA45A"/>
<stop offset="0.6768" stop-color="#CA9E53"/>
<stop offset="0.9545" stop-color="#785E32"/>
</radialGradient>
<radialGradient id="paint48_radial_516" cx="0" cy="0" r="1" gradientUnits="userSpaceOnUse" gradientTransform="translate(138.171 132.072) rotate(180) scale(7.50549 7.52539)">
<stop offset="0.1515" stop-color="#FFFAE9"/>
<stop offset="0.3884" stop-color="#FFEAB9"/>
<stop offset="0.473" stop-color="#FFE4A7"/>
<stop offset="0.5588" stop-color="#FCE0A2"/>
<stop offset="0.6609" stop-color="#F3D494"/>
<stop offset="0.7712" stop-color="#E4C07C"/>
<stop offset="0.8866" stop-color="#CFA45A"/>
<stop offset="0.9091" stop-color="#CA9E53"/>
</radialGradient>
<radialGradient id="paint49_radial_516" cx="0" cy="0" r="1" gradientUnits="userSpaceOnUse" gradientTransform="translate(131.829 135.903) rotate(180) scale(8.03894 8.06029)">
<stop offset="0.1515" stop-color="#FFFAE9"/>
<stop offset="0.3884" stop-color="#FFEAB9"/>
<stop offset="0.473" stop-color="#FFE4A7"/>
<stop offset="0.5588" stop-color="#FCE0A2"/>
<stop offset="0.6609" stop-color="#F3D494"/>
<stop offset="0.7712" stop-color="#E4C07C"/>
<stop offset="0.8866" stop-color="#CFA45A"/>
<stop offset="0.9091" stop-color="#CA9E53"/>
</radialGradient>
<radialGradient id="paint50_radial_516" cx="0" cy="0" r="1" gradientUnits="userSpaceOnUse" gradientTransform="translate(145.836 130.214) rotate(180) scale(8.03888 8.06021)">
<stop offset="0.2323" stop-color="#FFFAE9"/>
<stop offset="0.3836" stop-color="#FFEAB9"/>
<stop offset="0.4377" stop-color="#FFE4A7"/>
<stop offset="0.4847" stop-color="#FCE0A2"/>
<stop offset="0.5407" stop-color="#F3D494"/>
<stop offset="0.6012" stop-color="#E4C07C"/>
<stop offset="0.6644" stop-color="#CFA45A"/>
<stop offset="0.6768" stop-color="#CA9E53"/>
<stop offset="0.9545" stop-color="#785E32"/>
</radialGradient>
<radialGradient id="paint51_radial_516" cx="0" cy="0" r="1" gradientUnits="userSpaceOnUse" gradientTransform="translate(137.211 132.945) rotate(180) scale(7.50544 7.52539)">
<stop offset="0.1515" stop-color="#FFFAE9"/>
<stop offset="0.3884" stop-color="#FFEAB9"/>
<stop offset="0.473" stop-color="#FFE4A7"/>
<stop offset="0.5588" stop-color="#FCE0A2"/>
<stop offset="0.6609" stop-color="#F3D494"/>
<stop offset="0.7712" stop-color="#E4C07C"/>
<stop offset="0.8866" stop-color="#CFA45A"/>
<stop offset="0.9091" stop-color="#CA9E53"/>
</radialGradient>
<radialGradient id="paint52_radial_516" cx="0" cy="0" r="1" gradientUnits="userSpaceOnUse" gradientTransform="translate(150.676 135.395) rotate(180) scale(7.50544 7.52539)">
<stop offset="0.2323" stop-color="#FFFAE9"/>
<stop offset="0.3836" stop-color="#FFEAB9"/>
<stop offset="0.4377" stop-color="#FFE4A7"/>
<stop offset="0.4847" stop-color="#FCE0A2"/>
<stop offset="0.5407" stop-color="#F3D494"/>
<stop offset="0.6012" stop-color="#E4C07C"/>
<stop offset="0.6644" stop-color="#CFA45A"/>
<stop offset="0.6768" stop-color="#CA9E53"/>
<stop offset="0.9545" stop-color="#785E32"/>
</radialGradient>
<radialGradient id="paint53_radial_516" cx="0" cy="0" r="1" gradientUnits="userSpaceOnUse" gradientTransform="translate(145.335 133.646) rotate(180) scale(8.03892 8.06027)">
<stop offset="0.2323" stop-color="#FFFAE9"/>
<stop offset="0.5026" stop-color="#FFEAB9"/>
<stop offset="0.5993" stop-color="#FFE4A7"/>
<stop offset="0.6782" stop-color="#FCE0A2"/>
<stop offset="0.7719" stop-color="#F3D494"/>
<stop offset="0.8733" stop-color="#E4C07C"/>
<stop offset="0.9793" stop-color="#CFA45A"/>
<stop offset="1" stop-color="#CA9E53"/>
</radialGradient>
<radialGradient id="paint54_radial_516" cx="0" cy="0" r="1" gradientUnits="userSpaceOnUse" gradientTransform="translate(141.958 139.226) rotate(180) scale(8.03889 8.06027)">
<stop stop-color="#FFFAE9"/>
<stop offset="0.1699" stop-color="#FFEAB9"/>
<stop offset="0.2306" stop-color="#FFE4A7"/>
<stop offset="0.2767" stop-color="#FCE0A2"/>
<stop offset="0.3314" stop-color="#F3D494"/>
<stop offset="0.3906" stop-color="#E4C07C"/>
<stop offset="0.4526" stop-color="#CFA45A"/>
<stop offset="0.4646" stop-color="#CA9E53"/>
<stop offset="0.9545" stop-color="#785E32"/>
</radialGradient>
<radialGradient id="paint55_radial_516" cx="0" cy="0" r="1" gradientUnits="userSpaceOnUse" gradientTransform="translate(156.09 138.677) rotate(180) scale(8.0389 8.06024)">
<stop offset="0.1515" stop-color="#FFFAE9"/>
<stop offset="0.3884" stop-color="#FFEAB9"/>
<stop offset="0.473" stop-color="#FFE4A7"/>
<stop offset="0.5588" stop-color="#FCE0A2"/>
<stop offset="0.6609" stop-color="#F3D494"/>
<stop offset="0.7712" stop-color="#E4C07C"/>
<stop offset="0.8866" stop-color="#CFA45A"/>
<stop offset="0.9091" stop-color="#CA9E53"/>
</radialGradient>
<radialGradient id="paint56_radial_516" cx="0" cy="0" r="1" gradientUnits="userSpaceOnUse" gradientTransform="translate(148.708 140.163) rotate(180) scale(7.50551 7.52537)">
<stop offset="0.1515" stop-color="#FFFAE9"/>
<stop offset="0.3884" stop-color="#FFEAB9"/>
<stop offset="0.473" stop-color="#FFE4A7"/>
<stop offset="0.5588" stop-color="#FCE0A2"/>
<stop offset="0.6609" stop-color="#F3D494"/>
<stop offset="0.7712" stop-color="#E4C07C"/>
<stop offset="0.8866" stop-color="#CFA45A"/>
<stop offset="0.9091" stop-color="#CA9E53"/>
</radialGradient>
<radialGradient id="paint57_radial_516" cx="0" cy="0" r="1" gradientUnits="userSpaceOnUse" gradientTransform="translate(156.991 142.981) rotate(180) scale(7.50548 7.52542)">
<stop offset="0.2323" stop-color="#FFFAE9"/>
<stop offset="0.3836" stop-color="#FFEAB9"/>
<stop offset="0.4377" stop-color="#FFE4A7"/>
<stop offset="0.4847" stop-color="#FCE0A2"/>
<stop offset="0.5407" stop-color="#F3D494"/>
<stop offset="0.6012" stop-color="#E4C07C"/>
<stop offset="0.6644" stop-color="#CFA45A"/>
<stop offset="0.6768" stop-color="#CA9E53"/>
<stop offset="0.9545" stop-color="#785E32"/>
</radialGradient>
<radialGradient id="paint58_radial_516" cx="0" cy="0" r="1" gradientUnits="userSpaceOnUse" gradientTransform="translate(150.65 146.812) rotate(180) scale(8.03887 8.06024)">
<stop offset="0.1515" stop-color="#FFFAE9"/>
<stop offset="0.3884" stop-color="#FFEAB9"/>
<stop offset="0.473" stop-color="#FFE4A7"/>
<stop offset="0.5588" stop-color="#FCE0A2"/>
<stop offset="0.6609" stop-color="#F3D494"/>
<stop offset="0.7712" stop-color="#E4C07C"/>
<stop offset="0.8866" stop-color="#CFA45A"/>
<stop offset="0.9091" stop-color="#CA9E53"/>
</radialGradient>
<radialGradient id="paint59_radial_516" cx="0" cy="0" r="1" gradientUnits="userSpaceOnUse" gradientTransform="translate(125.828 133.975) rotate(180) scale(8.03886 8.06024)">
<stop offset="0.1515" stop-color="#FFFAE9"/>
<stop offset="0.3884" stop-color="#FFEAB9"/>
<stop offset="0.473" stop-color="#FFE4A7"/>
<stop offset="0.5588" stop-color="#FCE0A2"/>
<stop offset="0.6609" stop-color="#F3D494"/>
<stop offset="0.7712" stop-color="#E4C07C"/>
<stop offset="0.8866" stop-color="#CFA45A"/>
<stop offset="0.9091" stop-color="#CA9E53"/>
</radialGradient>
<radialGradient id="paint60_radial_516" cx="0" cy="0" r="1" gradientUnits="userSpaceOnUse" gradientTransform="translate(118.445 135.461) rotate(180) scale(7.50546 7.52542)">
<stop offset="0.2323" stop-color="#FFFAE9"/>
<stop offset="0.3836" stop-color="#FFEAB9"/>
<stop offset="0.4377" stop-color="#FFE4A7"/>
<stop offset="0.4847" stop-color="#FCE0A2"/>
<stop offset="0.5407" stop-color="#F3D494"/>
<stop offset="0.6012" stop-color="#E4C07C"/>
<stop offset="0.6644" stop-color="#CFA45A"/>
<stop offset="0.6768" stop-color="#CA9E53"/>
<stop offset="0.9545" stop-color="#785E32"/>
</radialGradient>
<radialGradient id="paint61_radial_516" cx="0" cy="0" r="1" gradientUnits="userSpaceOnUse" gradientTransform="translate(126.728 138.279) rotate(180) scale(7.50546 7.52539)">
<stop offset="0.1515" stop-color="#FFFAE9"/>
<stop offset="0.3884" stop-color="#FFEAB9"/>
<stop offset="0.473" stop-color="#FFE4A7"/>
<stop offset="0.5588" stop-color="#FCE0A2"/>
<stop offset="0.6609" stop-color="#F3D494"/>
<stop offset="0.7712" stop-color="#E4C07C"/>
<stop offset="0.8866" stop-color="#CFA45A"/>
<stop offset="0.9091" stop-color="#CA9E53"/>
</radialGradient>
<radialGradient id="paint62_radial_516" cx="0" cy="0" r="1" gradientUnits="userSpaceOnUse" gradientTransform="translate(120.387 142.11) rotate(180) scale(8.03889 8.06027)">
<stop offset="0.2323" stop-color="#FFFAE9"/>
<stop offset="0.3836" stop-color="#FFEAB9"/>
<stop offset="0.4377" stop-color="#FFE4A7"/>
<stop offset="0.4847" stop-color="#FCE0A2"/>
<stop offset="0.5407" stop-color="#F3D494"/>
<stop offset="0.6012" stop-color="#E4C07C"/>
<stop offset="0.6644" stop-color="#CFA45A"/>
<stop offset="0.6768" stop-color="#CA9E53"/>
<stop offset="0.9545" stop-color="#785E32"/>
</radialGradient>
<radialGradient id="paint63_radial_516" cx="0" cy="0" r="1" gradientUnits="userSpaceOnUse" gradientTransform="translate(133.331 138.614) rotate(180) scale(8.0389 8.06032)">
<stop offset="0.2323" stop-color="#FFFAE9"/>
<stop offset="0.3836" stop-color="#FFEAB9"/>
<stop offset="0.4377" stop-color="#FFE4A7"/>
<stop offset="0.4847" stop-color="#FCE0A2"/>
<stop offset="0.5407" stop-color="#F3D494"/>
<stop offset="0.6012" stop-color="#E4C07C"/>
<stop offset="0.6644" stop-color="#CFA45A"/>
<stop offset="0.6768" stop-color="#CA9E53"/>
<stop offset="0.9545" stop-color="#785E32"/>
</radialGradient>
<radialGradient id="paint64_radial_516" cx="0" cy="0" r="1" gradientUnits="userSpaceOnUse" gradientTransform="translate(125.894 141.534) rotate(180) scale(7.50546 7.52542)">
<stop offset="0.2323" stop-color="#FFFAE9"/>
<stop offset="0.5026" stop-color="#FFEAB9"/>
<stop offset="0.5993" stop-color="#FFE4A7"/>
<stop offset="0.6782" stop-color="#FCE0A2"/>
<stop offset="0.7719" stop-color="#F3D494"/>
<stop offset="0.8733" stop-color="#E4C07C"/>
<stop offset="0.9793" stop-color="#CFA45A"/>
<stop offset="1" stop-color="#CA9E53"/>
</radialGradient>
<radialGradient id="paint65_radial_516" cx="0" cy="0" r="1" gradientUnits="userSpaceOnUse" gradientTransform="translate(137.67 142.416) rotate(180) scale(7.50545 7.52539)">
<stop offset="0.1515" stop-color="#FFFAE9"/>
<stop offset="0.3884" stop-color="#FFEAB9"/>
<stop offset="0.473" stop-color="#FFE4A7"/>
<stop offset="0.5588" stop-color="#FCE0A2"/>
<stop offset="0.6609" stop-color="#F3D494"/>
<stop offset="0.7712" stop-color="#E4C07C"/>
<stop offset="0.8866" stop-color="#CFA45A"/>
<stop offset="0.9091" stop-color="#CA9E53"/>
</radialGradient>
<radialGradient id="paint66_radial_516" cx="0" cy="0" r="1" gradientUnits="userSpaceOnUse" gradientTransform="translate(130.516 145.433) rotate(180) scale(8.03892 8.06024)">
<stop offset="0.1515" stop-color="#FFFAE9"/>
<stop offset="0.3884" stop-color="#FFEAB9"/>
<stop offset="0.473" stop-color="#FFE4A7"/>
<stop offset="0.5588" stop-color="#FCE0A2"/>
<stop offset="0.6609" stop-color="#F3D494"/>
<stop offset="0.7712" stop-color="#E4C07C"/>
<stop offset="0.8866" stop-color="#CFA45A"/>
<stop offset="0.9091" stop-color="#CA9E53"/>
</radialGradient>
<radialGradient id="paint67_radial_516" cx="0" cy="0" r="1" gradientUnits="userSpaceOnUse" gradientTransform="translate(132.35 141.755) rotate(180) scale(8.03885 8.06019)">
<stop offset="0.1515" stop-color="#FFFAE9"/>
<stop offset="0.3884" stop-color="#FFEAB9"/>
<stop offset="0.473" stop-color="#FFE4A7"/>
<stop offset="0.5588" stop-color="#FCE0A2"/>
<stop offset="0.6609" stop-color="#F3D494"/>
<stop offset="0.7712" stop-color="#E4C07C"/>
<stop offset="0.8866" stop-color="#CFA45A"/>
<stop offset="0.9091" stop-color="#CA9E53"/>
</radialGradient>
<radialGradient id="paint68_radial_516" cx="0" cy="0" r="1" gradientUnits="userSpaceOnUse" gradientTransform="translate(144.648 144.884) rotate(180) scale(8.03884 8.06027)">
<stop offset="0.2323" stop-color="#FFFAE9"/>
<stop offset="0.3836" stop-color="#FFEAB9"/>
<stop offset="0.4377" stop-color="#FFE4A7"/>
<stop offset="0.4847" stop-color="#FCE0A2"/>
<stop offset="0.5407" stop-color="#F3D494"/>
<stop offset="0.6012" stop-color="#E4C07C"/>
<stop offset="0.6644" stop-color="#CFA45A"/>
<stop offset="0.6768" stop-color="#CA9E53"/>
<stop offset="0.9545" stop-color="#785E32"/>
</radialGradient>
<radialGradient id="paint69_radial_516" cx="0" cy="0" r="1" gradientUnits="userSpaceOnUse" gradientTransform="translate(137.265 146.37) rotate(180) scale(7.50545 7.52539)">
<stop offset="0.2323" stop-color="#FFFAE9"/>
<stop offset="0.5026" stop-color="#FFEAB9"/>
<stop offset="0.5993" stop-color="#FFE4A7"/>
<stop offset="0.6782" stop-color="#FCE0A2"/>
<stop offset="0.7719" stop-color="#F3D494"/>
<stop offset="0.8733" stop-color="#E4C07C"/>
<stop offset="0.9793" stop-color="#CFA45A"/>
<stop offset="1" stop-color="#CA9E53"/>
</radialGradient>
<radialGradient id="paint70_radial_516" cx="0" cy="0" r="1" gradientUnits="userSpaceOnUse" gradientTransform="translate(137.099 137.342) rotate(180) scale(7.50546 7.52542)">
<stop offset="0.2323" stop-color="#FFFAE9"/>
<stop offset="0.5026" stop-color="#FFEAB9"/>
<stop offset="0.5993" stop-color="#FFE4A7"/>
<stop offset="0.6782" stop-color="#FCE0A2"/>
<stop offset="0.7719" stop-color="#F3D494"/>
<stop offset="0.8733" stop-color="#E4C07C"/>
<stop offset="0.9793" stop-color="#CFA45A"/>
<stop offset="1" stop-color="#CA9E53"/>
</radialGradient>
<radialGradient id="paint71_radial_516" cx="0" cy="0" r="1" gradientUnits="userSpaceOnUse" gradientTransform="translate(114.006 140.038) rotate(180) scale(7.50544 7.52542)">
<stop offset="0.1515" stop-color="#FFFAE9"/>
<stop offset="0.3884" stop-color="#FFEAB9"/>
<stop offset="0.473" stop-color="#FFE4A7"/>
<stop offset="0.5588" stop-color="#FCE0A2"/>
<stop offset="0.6609" stop-color="#F3D494"/>
<stop offset="0.7712" stop-color="#E4C07C"/>
<stop offset="0.8866" stop-color="#CFA45A"/>
<stop offset="0.9091" stop-color="#CA9E53"/>
</radialGradient>
<radialGradient id="paint72_radial_516" cx="0" cy="0" r="1" gradientUnits="userSpaceOnUse" gradientTransform="translate(123.706 146.738) rotate(180) scale(7.50549 7.52539)">
<stop offset="0.1515" stop-color="#FFFAE9"/>
<stop offset="0.3884" stop-color="#FFEAB9"/>
<stop offset="0.473" stop-color="#FFE4A7"/>
<stop offset="0.5588" stop-color="#FCE0A2"/>
<stop offset="0.6609" stop-color="#F3D494"/>
<stop offset="0.7712" stop-color="#E4C07C"/>
<stop offset="0.8866" stop-color="#CFA45A"/>
<stop offset="0.9091" stop-color="#CA9E53"/>
</radialGradient>
<radialGradient id="paint73_radial_516" cx="0" cy="0" r="1" gradientUnits="userSpaceOnUse" gradientTransform="translate(132.826 150.946) rotate(180) scale(7.50546 7.52544)">
<stop offset="0.2323" stop-color="#FFFAE9"/>
<stop offset="0.3836" stop-color="#FFEAB9"/>
<stop offset="0.4377" stop-color="#FFE4A7"/>
<stop offset="0.4847" stop-color="#FCE0A2"/>
<stop offset="0.5407" stop-color="#F3D494"/>
<stop offset="0.6012" stop-color="#E4C07C"/>
<stop offset="0.6644" stop-color="#CFA45A"/>
<stop offset="0.6768" stop-color="#CA9E53"/>
<stop offset="0.9545" stop-color="#785E32"/>
</radialGradient>
<radialGradient id="paint74_radial_516" cx="0" cy="0" r="1" gradientUnits="userSpaceOnUse" gradientTransform="translate(145.549 149.187) rotate(180) scale(7.50546 7.52539)">
<stop offset="0.1515" stop-color="#FFFAE9"/>
<stop offset="0.3884" stop-color="#FFEAB9"/>
<stop offset="0.473" stop-color="#FFE4A7"/>
<stop offset="0.5588" stop-color="#FCE0A2"/>
<stop offset="0.6609" stop-color="#F3D494"/>
<stop offset="0.7712" stop-color="#E4C07C"/>
<stop offset="0.8866" stop-color="#CFA45A"/>
<stop offset="0.9091" stop-color="#CA9E53"/>
</radialGradient>
<radialGradient id="paint75_radial_516" cx="0" cy="0" r="1" gradientUnits="userSpaceOnUse" gradientTransform="translate(139.207 153.018) rotate(180) scale(8.03887 8.06027)">
<stop offset="0.1515" stop-color="#FFFAE9"/>
<stop offset="0.3884" stop-color="#FFEAB9"/>
<stop offset="0.473" stop-color="#FFE4A7"/>
<stop offset="0.5588" stop-color="#FCE0A2"/>
<stop offset="0.6609" stop-color="#F3D494"/>
<stop offset="0.7712" stop-color="#E4C07C"/>
<stop offset="0.8866" stop-color="#CFA45A"/>
<stop offset="0.9091" stop-color="#CA9E53"/>
</radialGradient>
<radialGradient id="paint76_radial_516" cx="0" cy="0" r="1" gradientUnits="userSpaceOnUse" gradientTransform="translate(137.399 160.27) rotate(180) scale(8.03884 8.06021)">
<stop offset="0.1515" stop-color="#FFFAE9"/>
<stop offset="0.3884" stop-color="#FFEAB9"/>
<stop offset="0.473" stop-color="#FFE4A7"/>
<stop offset="0.5588" stop-color="#FCE0A2"/>
<stop offset="0.6609" stop-color="#F3D494"/>
<stop offset="0.7712" stop-color="#E4C07C"/>
<stop offset="0.8866" stop-color="#CFA45A"/>
<stop offset="0.9091" stop-color="#CA9E53"/>
</radialGradient>
<radialGradient id="paint77_radial_516" cx="0" cy="0" r="1" gradientUnits="userSpaceOnUse" gradientTransform="translate(137.152 168.406) rotate(180) scale(8.03891 8.06027)">
<stop offset="0.1515" stop-color="#FFFAE9"/>
<stop offset="0.3884" stop-color="#FFEAB9"/>
<stop offset="0.473" stop-color="#FFE4A7"/>
<stop offset="0.5588" stop-color="#FCE0A2"/>
<stop offset="0.6609" stop-color="#F3D494"/>
<stop offset="0.7712" stop-color="#E4C07C"/>
<stop offset="0.8866" stop-color="#CFA45A"/>
<stop offset="0.9091" stop-color="#CA9E53"/>
</radialGradient>
<linearGradient id="paint78_linear_516" x1="3.85072" y1="166.989" x2="127.238" y2="166.989" gradientUnits="userSpaceOnUse">
<stop stop-color="#E6E7E8"/>
<stop offset="1" stop-color="#A7A9AC"/>
</linearGradient>
<linearGradient id="paint79_linear_516" x1="132.116" y1="168.338" x2="72.0745" y2="150.68" gradientUnits="userSpaceOnUse">
<stop offset="0.0354" stop-color="#9F19AB"/>
<stop offset="0.2438" stop-color="#AE25B1"/>
<stop offset="0.6455" stop-color="#D744BF"/>
<stop offset="1" stop-color="#FF63CE"/>
</linearGradient>
<linearGradient id="paint80_linear_516" x1="130.314" y1="168.811" x2="66.8949" y2="150.16" gradientUnits="userSpaceOnUse">
<stop offset="0.0354" stop-color="#9F19AB"/>
<stop offset="0.2438" stop-color="#AE25B1"/>
<stop offset="0.6455" stop-color="#D744BF"/>
<stop offset="1" stop-color="#FF63CE"/>
</linearGradient>
<linearGradient id="paint81_linear_516" x1="129.124" y1="169.466" x2="63.6782" y2="150.219" gradientUnits="userSpaceOnUse">
<stop offset="0.0354" stop-color="#9F19AB"/>
<stop offset="0.2438" stop-color="#AE25B1"/>
<stop offset="0.6455" stop-color="#D744BF"/>
<stop offset="1" stop-color="#FF63CE"/>
</linearGradient>
<linearGradient id="paint82_linear_516" x1="128.546" y1="170.302" x2="62.4242" y2="150.856" gradientUnits="userSpaceOnUse">
<stop offset="0.0354" stop-color="#9F19AB"/>
<stop offset="0.2438" stop-color="#AE25B1"/>
<stop offset="0.6455" stop-color="#D744BF"/>
<stop offset="1" stop-color="#FF63CE"/>
</linearGradient>
<linearGradient id="paint83_linear_516" x1="128.579" y1="171.318" x2="63.134" y2="152.071" gradientUnits="userSpaceOnUse">
<stop offset="0.0354" stop-color="#9F19AB"/>
<stop offset="0.2438" stop-color="#AE25B1"/>
<stop offset="0.6455" stop-color="#D744BF"/>
<stop offset="1" stop-color="#FF63CE"/>
</linearGradient>
<linearGradient id="paint84_linear_516" x1="129.224" y1="172.515" x2="65.8055" y2="153.865" gradientUnits="userSpaceOnUse">
<stop offset="0.0354" stop-color="#9F19AB"/>
<stop offset="0.2438" stop-color="#AE25B1"/>
<stop offset="0.6455" stop-color="#D744BF"/>
<stop offset="1" stop-color="#FF63CE"/>
</linearGradient>
<linearGradient id="paint85_linear_516" x1="130.482" y1="173.894" x2="70.4399" y2="156.236" gradientUnits="userSpaceOnUse">
<stop offset="0.0354" stop-color="#9F19AB"/>
<stop offset="0.2438" stop-color="#AE25B1"/>
<stop offset="0.6455" stop-color="#D744BF"/>
<stop offset="1" stop-color="#FF63CE"/>
</linearGradient>
<linearGradient id="paint86_linear_516" x1="138.235" y1="166.989" x2="241.161" y2="166.989" gradientUnits="userSpaceOnUse">
<stop stop-color="#E6E7E8"/>
<stop offset="1" stop-color="#A7A9AC"/>
</linearGradient>
<linearGradient id="paint87_linear_516" x1="175.105" y1="157.857" x2="130.619" y2="168.604" gradientUnits="userSpaceOnUse">
<stop offset="0.0354" stop-color="#9F19AB"/>
<stop offset="0.2438" stop-color="#AE25B1"/>
<stop offset="0.6455" stop-color="#D744BF"/>
<stop offset="1" stop-color="#FF63CE"/>
</linearGradient>
<linearGradient id="paint88_linear_516" x1="179.887" y1="157.895" x2="132.233" y2="169.407" gradientUnits="userSpaceOnUse">
<stop offset="0.0354" stop-color="#9F19AB"/>
<stop offset="0.2438" stop-color="#AE25B1"/>
<stop offset="0.6455" stop-color="#D744BF"/>
<stop offset="1" stop-color="#FF63CE"/>
</linearGradient>
<linearGradient id="paint89_linear_516" x1="182.865" y1="158.371" x2="133.311" y2="170.342" gradientUnits="userSpaceOnUse">
<stop offset="0.0354" stop-color="#9F19AB"/>
<stop offset="0.2438" stop-color="#AE25B1"/>
<stop offset="0.6455" stop-color="#D744BF"/>
<stop offset="1" stop-color="#FF63CE"/>
</linearGradient>
<linearGradient id="paint90_linear_516" x1="184.04" y1="159.285" x2="133.853" y2="171.409" gradientUnits="userSpaceOnUse">
<stop offset="0.0354" stop-color="#9F19AB"/>
<stop offset="0.2438" stop-color="#AE25B1"/>
<stop offset="0.6455" stop-color="#D744BF"/>
<stop offset="1" stop-color="#FF63CE"/>
</linearGradient>
<linearGradient id="paint91_linear_516" x1="183.412" y1="160.637" x2="133.858" y2="172.608" gradientUnits="userSpaceOnUse">
<stop offset="0.0354" stop-color="#9F19AB"/>
<stop offset="0.2438" stop-color="#AE25B1"/>
<stop offset="0.6455" stop-color="#D744BF"/>
<stop offset="1" stop-color="#FF63CE"/>
</linearGradient>
<linearGradient id="paint92_linear_516" x1="180.981" y1="162.427" x2="133.328" y2="173.938" gradientUnits="userSpaceOnUse">
<stop offset="0.0354" stop-color="#9F19AB"/>
<stop offset="0.2438" stop-color="#AE25B1"/>
<stop offset="0.6455" stop-color="#D744BF"/>
<stop offset="1" stop-color="#FF63CE"/>
</linearGradient>
<linearGradient id="paint93_linear_516" x1="176.747" y1="164.655" x2="132.261" y2="175.401" gradientUnits="userSpaceOnUse">
<stop offset="0.0354" stop-color="#9F19AB"/>
<stop offset="0.2438" stop-color="#AE25B1"/>
<stop offset="0.6455" stop-color="#D744BF"/>
<stop offset="1" stop-color="#FF63CE"/>
</linearGradient>
<linearGradient id="paint94_linear_516" x1="130.344" y1="177.772" x2="100.77" y2="145.67" gradientUnits="userSpaceOnUse">
<stop offset="0.0354" stop-color="#9F19AB"/>
<stop offset="0.2438" stop-color="#AE25B1"/>
<stop offset="0.6455" stop-color="#D744BF"/>
<stop offset="1" stop-color="#FF63CE"/>
</linearGradient>
<linearGradient id="paint95_linear_516" x1="108.637" y1="161.419" x2="152.263" y2="186.497" gradientUnits="userSpaceOnUse">
<stop offset="0.1212" stop-color="#F1F2F2"/>
<stop offset="1" stop-color="#A7A9AC"/>
</linearGradient>
<linearGradient id="paint96_linear_516" x1="62.7856" y1="3.3347" x2="66.3696" y2="-41.1393" gradientUnits="userSpaceOnUse">
<stop offset="0.0354" stop-color="#271273"/>
<stop offset="0.421" stop-color="#321382"/>
<stop offset="1" stop-color="#4916A1"/>
</linearGradient>
<linearGradient id="paint97_linear_516" x1="60.1494" y1="3.12312" x2="63.7333" y2="-41.3507" gradientUnits="userSpaceOnUse">
<stop offset="0.0354" stop-color="#271273"/>
<stop offset="0.421" stop-color="#321382"/>
<stop offset="1" stop-color="#4916A1"/>
</linearGradient>
<linearGradient id="paint98_linear_516" x1="58.4693" y1="2.98861" x2="62.0531" y2="-41.4851" gradientUnits="userSpaceOnUse">
<stop offset="0.0354" stop-color="#271273"/>
<stop offset="0.421" stop-color="#321382"/>
<stop offset="1" stop-color="#4916A1"/>
</linearGradient>
<linearGradient id="paint99_linear_516" x1="59.6769" y1="3.70692" x2="63.2608" y2="-40.7671" gradientUnits="userSpaceOnUse">
<stop offset="0.0354" stop-color="#271273"/>
<stop offset="0.421" stop-color="#321382"/>
<stop offset="1" stop-color="#4916A1"/>
</linearGradient>
<linearGradient id="paint100_linear_516" x1="58.1519" y1="3.58548" x2="61.7358" y2="-40.8881" gradientUnits="userSpaceOnUse">
<stop offset="0.0354" stop-color="#271273"/>
<stop offset="0.421" stop-color="#321382"/>
<stop offset="1" stop-color="#4916A1"/>
</linearGradient>
<linearGradient id="paint101_linear_516" x1="56.2681" y1="3.4335" x2="59.8519" y2="-41.0403" gradientUnits="userSpaceOnUse">
<stop offset="0.0354" stop-color="#271273"/>
<stop offset="0.421" stop-color="#321382"/>
<stop offset="1" stop-color="#4916A1"/>
</linearGradient>
<linearGradient id="paint102_linear_516" x1="54.5756" y1="3.29617" x2="58.1595" y2="-41.1779" gradientUnits="userSpaceOnUse">
<stop offset="0.0354" stop-color="#271273"/>
<stop offset="0.421" stop-color="#321382"/>
<stop offset="1" stop-color="#4916A1"/>
</linearGradient>
<radialGradient id="paint103_radial_516" cx="0" cy="0" r="1" gradientUnits="userSpaceOnUse" gradientTransform="translate(134.595 138.747) rotate(180) scale(5.01834 5.03167)">
<stop offset="0.4567" stop-color="white"/>
<stop offset="0.548" stop-color="#FDFCFA"/>
<stop offset="0.6508" stop-color="#F5F2ED"/>
<stop offset="0.7592" stop-color="#E9E3D6"/>
<stop offset="0.8715" stop-color="#D8CDB7"/>
<stop offset="0.9858" stop-color="#C3B28F"/>
<stop offset="1" stop-color="#C0AE89"/>
</radialGradient>
<radialGradient id="paint104_radial_516" cx="0" cy="0" r="1" gradientUnits="userSpaceOnUse" gradientTransform="translate(123.483 142.806) rotate(180) scale(5.01834 5.03164)">
<stop offset="0.4567" stop-color="white"/>
<stop offset="0.548" stop-color="#FDFCFA"/>
<stop offset="0.6508" stop-color="#F5F2ED"/>
<stop offset="0.7592" stop-color="#E9E3D6"/>
<stop offset="0.8715" stop-color="#D8CDB7"/>
<stop offset="0.9858" stop-color="#C3B28F"/>
<stop offset="1" stop-color="#C0AE89"/>
</radialGradient>
<radialGradient id="paint105_radial_516" cx="0" cy="0" r="1" gradientUnits="userSpaceOnUse" gradientTransform="translate(128.91 148.679) rotate(180) scale(5.01831 5.03163)">
<stop offset="0.4567" stop-color="white"/>
<stop offset="0.548" stop-color="#FDFCFA"/>
<stop offset="0.6508" stop-color="#F5F2ED"/>
<stop offset="0.7592" stop-color="#E9E3D6"/>
<stop offset="0.8715" stop-color="#D8CDB7"/>
<stop offset="0.9858" stop-color="#C3B28F"/>
<stop offset="1" stop-color="#C0AE89"/>
</radialGradient>
<radialGradient id="paint106_radial_516" cx="0" cy="0" r="1" gradientUnits="userSpaceOnUse" gradientTransform="translate(136.248 151.388) rotate(180) scale(7.39502 7.41462)">
<stop offset="0.4567" stop-color="white"/>
<stop offset="0.548" stop-color="#FDFCFA"/>
<stop offset="0.6508" stop-color="#F5F2ED"/>
<stop offset="0.7592" stop-color="#E9E3D6"/>
<stop offset="0.8715" stop-color="#D8CDB7"/>
<stop offset="0.9858" stop-color="#C3B28F"/>
<stop offset="1" stop-color="#C0AE89"/>
</radialGradient>
<radialGradient id="paint107_radial_516" cx="0" cy="0" r="1" gradientUnits="userSpaceOnUse" gradientTransform="translate(126.083 135.756) rotate(180) scale(7.39502 7.41464)">
<stop offset="0.4567" stop-color="white"/>
<stop offset="0.548" stop-color="#FDFCFA"/>
<stop offset="0.6508" stop-color="#F5F2ED"/>
<stop offset="0.7592" stop-color="#E9E3D6"/>
<stop offset="0.8715" stop-color="#D8CDB7"/>
<stop offset="0.9858" stop-color="#C3B28F"/>
<stop offset="1" stop-color="#C0AE89"/>
</radialGradient>
<radialGradient id="paint108_radial_516" cx="0" cy="0" r="1" gradientUnits="userSpaceOnUse" gradientTransform="translate(131.321 132.183) rotate(180) scale(5.01827 5.03161)">
<stop offset="0.4567" stop-color="white"/>
<stop offset="0.548" stop-color="#FDFCFA"/>
<stop offset="0.6508" stop-color="#F5F2ED"/>
<stop offset="0.7592" stop-color="#E9E3D6"/>
<stop offset="0.8715" stop-color="#D8CDB7"/>
<stop offset="0.9858" stop-color="#C3B28F"/>
<stop offset="1" stop-color="#C0AE89"/>
</radialGradient>
<radialGradient id="paint109_radial_516" cx="0" cy="0" r="1" gradientUnits="userSpaceOnUse" gradientTransform="translate(148.748 143.001) rotate(180) scale(6.31413 6.3309)">
<stop offset="0.4567" stop-color="white"/>
<stop offset="0.548" stop-color="#FDFCFA"/>
<stop offset="0.6508" stop-color="#F5F2ED"/>
<stop offset="0.7592" stop-color="#E9E3D6"/>
<stop offset="0.8715" stop-color="#D8CDB7"/>
<stop offset="0.9858" stop-color="#C3B28F"/>
<stop offset="1" stop-color="#C0AE89"/>
</radialGradient>
<radialGradient id="paint110_radial_516" cx="0" cy="0" r="1" gradientUnits="userSpaceOnUse" gradientTransform="translate(133.558 146.826) rotate(180) scale(2.8623 2.86989)">
<stop offset="0.4567" stop-color="white"/>
<stop offset="0.548" stop-color="#FDFCFA"/>
<stop offset="0.6508" stop-color="#F5F2ED"/>
<stop offset="0.7592" stop-color="#E9E3D6"/>
<stop offset="0.8715" stop-color="#D8CDB7"/>
<stop offset="0.9858" stop-color="#C3B28F"/>
<stop offset="1" stop-color="#C0AE89"/>
</radialGradient>
<radialGradient id="paint111_radial_516" cx="0" cy="0" r="1" gradientUnits="userSpaceOnUse" gradientTransform="translate(128.693 141.875) rotate(180) scale(2.8622 2.86985)">
<stop offset="0.4567" stop-color="white"/>
<stop offset="0.548" stop-color="#FDFCFA"/>
<stop offset="0.6508" stop-color="#F5F2ED"/>
<stop offset="0.7592" stop-color="#E9E3D6"/>
<stop offset="0.8715" stop-color="#D8CDB7"/>
<stop offset="0.9858" stop-color="#C3B28F"/>
<stop offset="1" stop-color="#C0AE89"/>
</radialGradient>
<radialGradient id="paint112_radial_516" cx="0" cy="0" r="1" gradientUnits="userSpaceOnUse" gradientTransform="translate(118.406 140.487) rotate(180) scale(2.86231 2.86982)">
<stop offset="0.4567" stop-color="white"/>
<stop offset="0.548" stop-color="#FDFCFA"/>
<stop offset="0.6508" stop-color="#F5F2ED"/>
<stop offset="0.7592" stop-color="#E9E3D6"/>
<stop offset="0.8715" stop-color="#D8CDB7"/>
<stop offset="0.9858" stop-color="#C3B28F"/>
<stop offset="1" stop-color="#C0AE89"/>
</radialGradient>
<radialGradient id="paint113_radial_516" cx="0" cy="0" r="1" gradientUnits="userSpaceOnUse" gradientTransform="translate(133.177 134.47) rotate(180) scale(2.86223 2.86982)">
<stop offset="0.4567" stop-color="white"/>
<stop offset="0.548" stop-color="#FDFCFA"/>
<stop offset="0.6508" stop-color="#F5F2ED"/>
<stop offset="0.7592" stop-color="#E9E3D6"/>
<stop offset="0.8715" stop-color="#D8CDB7"/>
<stop offset="0.9858" stop-color="#C3B28F"/>
<stop offset="1" stop-color="#C0AE89"/>
</radialGradient>
<radialGradient id="paint114_radial_516" cx="0" cy="0" r="1" gradientUnits="userSpaceOnUse" gradientTransform="translate(143.287 134.841) rotate(180) scale(6.46696 6.48415)">
<stop offset="0.4567" stop-color="white"/>
<stop offset="0.548" stop-color="#FDFCFA"/>
<stop offset="0.6508" stop-color="#F5F2ED"/>
<stop offset="0.7592" stop-color="#E9E3D6"/>
<stop offset="0.8715" stop-color="#D8CDB7"/>
<stop offset="0.9858" stop-color="#C3B28F"/>
<stop offset="1" stop-color="#C0AE89"/>
</radialGradient>
<radialGradient id="paint115_radial_516" cx="0" cy="0" r="1" gradientUnits="userSpaceOnUse" gradientTransform="translate(141.917 148.679) rotate(180) scale(5.01834 5.03163)">
<stop offset="0.4567" stop-color="white"/>
<stop offset="0.548" stop-color="#FDFCFA"/>
<stop offset="0.6508" stop-color="#F5F2ED"/>
<stop offset="0.7592" stop-color="#E9E3D6"/>
<stop offset="0.8715" stop-color="#D8CDB7"/>
<stop offset="0.9858" stop-color="#C3B28F"/>
<stop offset="1" stop-color="#C0AE89"/>
</radialGradient>
<radialGradient id="paint116_radial_516" cx="0" cy="0" r="1" gradientUnits="userSpaceOnUse" gradientTransform="translate(154.321 139.783) rotate(180) scale(5.01837 5.03167)">
<stop offset="0.4567" stop-color="white"/>
<stop offset="0.548" stop-color="#FDFCFA"/>
<stop offset="0.6508" stop-color="#F5F2ED"/>
<stop offset="0.7592" stop-color="#E9E3D6"/>
<stop offset="0.8715" stop-color="#D8CDB7"/>
<stop offset="0.9858" stop-color="#C3B28F"/>
<stop offset="1" stop-color="#C0AE89"/>
</radialGradient>
<radialGradient id="paint117_radial_516" cx="0" cy="0" r="1" gradientUnits="userSpaceOnUse" gradientTransform="translate(157.226 143.36) rotate(180) scale(48.8446 48.9745)">
<stop offset="0.4567" stop-color="white"/>
<stop offset="0.548" stop-color="#FDFCFA"/>
<stop offset="0.6508" stop-color="#F5F2ED"/>
<stop offset="0.7592" stop-color="#E9E3D6"/>
<stop offset="0.8715" stop-color="#D8CDB7"/>
<stop offset="0.9858" stop-color="#C3B28F"/>
<stop offset="1" stop-color="#C0AE89"/>
</radialGradient>
<linearGradient id="paint118_linear_516" x1="105.688" y1="164.519" x2="154.71" y2="173.541" gradientUnits="userSpaceOnUse">
<stop stop-color="white"/>
<stop offset="1" stop-color="#A7A9AC"/>
</linearGradient>
</defs>



<style>

  .top{
    animation: 4s ease-in-out  infinite click;
  }
  
  @keyframes click {
    0% {
      transform: rotate(0) translate(0);
    }
    50% {
      transform: rotate(-5deg) translate(-7px, 10px);
    }
    100% {
      transform: rotate(0) translate(0);
    }
  }


  .red {
    animation: 2s linear infinite toBlue;
  }
  .blue {
    animation: 2s linear .2s infinite toRed;
  }
  
   @keyframes toRed {
    0% {
      fill: url(#paint37_linear_516);
    }
    50% {
      fill: url(#paint39_linear_516);
    }
    100% {
      fill: url(#paint37_linear_516);
    }
  }
  
   @keyframes toBlue {
    0% {
      fill: url(#paint39_linear_516);
    }
    50% {
      fill: url(#paint37_linear_516);
    }
    100% {
      fill: url(#paint39_linear_516);
    }
  } 


  .bucket{
    animation: 3s ease-in-out infinite up;
  }
  @keyframes up {
    0%{
      transform: translateY(0px);
    }
    50%{
      transform: translateY(-3px);
    }
    100%{
      transform: translateY(0px);
    }
  }


  .shadow{
    animation: 3s ease-in-out infinite down;
  }
  @keyframes down {
    0%{
      transform: translate(0px);
    }
    50%{
      transform: translate(-2px, -2px);
    }
    100%{
      transform: translate(0px);
    }
  }

  

  </style>



  
</svg>
