<svg width="570" height="518" viewBox="0 0 570 518" fill="none"
  xmlns="http://www.w3.org/2000/svg">
  <path d="M264.382 342.005L262.984 340.469C265.025 343.513 264.494 347.172 260.999 349.184L99.0586 443.094C96.962 444.295 94.3902 444.295 92.3216 443.038L64.5627 426.53C60.677 424.211 60.2857 418.96 63.3607 416.027L59.7546 418.318C57.3784 422.144 58.4966 431.139 60.0341 434.547L92.3495 453.569C94.4182 454.798 97.018 454.826 99.0866 453.625L260.86 360.469C265.22 357.927 267.876 347.424 264.382 342.005Z" fill="url(#paint0_linear_357)"/>
  <path d="M79.7142 406.083L61.376 416.67C58.3289 418.429 58.301 422.843 61.3201 424.63L93.3001 443.653C94.7258 444.519 96.5148 444.519 97.9685 443.681L263.124 348.402C266.171 346.642 266.199 342.228 263.18 340.441L229.942 320.664L228.88 320.022L219.515 325.441L100.428 394.128L79.7142 406.083Z" fill="url(#paint1_linear_357)"/>
  <path d="M14.105 391.809L14.077 384.295L14.0491 374.686L14.0211 364.631L13.5179 192.145C13.49 183.597 19.5841 173.067 27.02 168.765L301.645 10.3294C303.518 9.24 305.308 8.65341 306.929 8.51374C307.74 8.42994 308.494 8.48581 309.193 8.62548C309.193 8.62548 309.193 8.62548 309.221 8.62548C309.976 8.76514 310.647 9.01654 311.29 9.37967L298.095 1.27911C295.635 -0.145465 292.225 0.0500702 288.479 2.20091L13.8813 160.664C6.41746 164.966 0.351323 175.497 0.379277 184.044L0.85451 356.53L0.88246 366.586L0.91042 376.195L0.93837 383.709C0.93837 387.955 2.47588 390.971 4.90792 392.368C11.4213 396.167 11.5611 396.67 18.0745 400.441C15.6425 399.044 14.1329 396.055 14.105 391.809Z" fill="url(#paint2_linear_357)"/>
  <path d="M227.873 284.104L227.905 284.072H227.873V284.104Z" fill="#082C44"/>
  <path d="M230.529 331.893L231.452 348.374L98.947 424.826L231.479 348.374L230.557 331.893L230.529 331.865V331.893Z" fill="#082C44"/>
  <path d="M81.4754 368.541L80.1895 395.943L79.7143 406.083L79.3509 413.457L98.947 424.826L99.7577 407.34L100.373 394.156L102.162 356.614L81.4754 368.541Z" fill="url(#paint3_linear_357)"/>
  <path d="M230.529 331.893V331.865L229.914 320.692L227.873 284.1V284.072L102.162 356.614L100.373 394.156L99.7576 407.34L98.947 424.826L231.452 348.374L230.529 331.893Z" fill="url(#paint4_linear_357)"/>
  <path d="M315.818 210.217L315.79 200.609L315.762 190.553L315.287 18.0669C315.287 12.7317 312.883 9.35178 309.277 8.62553C309.277 8.62553 309.277 8.62553 309.249 8.62553C308.522 8.48586 307.767 8.45793 306.985 8.51379C305.363 8.65346 303.574 9.24005 301.701 10.3294L27.0477 168.737C19.5839 173.039 13.5177 183.569 13.5457 192.117L14.0489 364.603L14.0768 374.659L14.1048 384.268L14.1327 391.781C14.1327 396.027 15.6702 399.016 18.1023 400.441C18.1023 400.441 18.1023 400.441 18.1302 400.441C20.5902 401.865 24.0007 401.698 27.7466 399.519L81.5032 368.513L102.19 356.586L227.901 284.072H227.929L302.372 241.111C309.836 236.81 315.902 226.279 315.874 217.731L315.818 210.217Z" fill="url(#paint5_linear_357)"/>
  <path d="M227.873 284.072L102.162 356.614L227.873 284.072Z" fill="#134169"/>
  <path d="M304.385 30.8602C304.357 25.7205 300.723 23.6255 296.222 26.2233L32.5548 178.318C28.0821 180.916 24.42 187.201 24.448 192.368L24.8952 364.547C24.9232 372.033 33.0021 376.67 39.4875 372.927L299.996 222.648C303.015 220.916 304.86 217.676 304.86 214.212L304.385 30.8602Z" fill="url(#paint6_linear_357)"/>
  <path d="M109.803 216.089V300.101L104.055 296.809V212.641L109.803 216.089Z" fill="url(#paint7_linear_357)"/>
  <path d="M109.776 216.089V300.101L235.978 227.331V143.154L109.776 216.089Z" fill="url(#paint8_linear_357)"/>
  <path d="M235.978 143.154L109.776 216.089L104.055 212.641L230.303 139.761L235.978 143.154Z" fill="url(#paint9_linear_357)"/>


  <path d="M111.307 199.318V217.941L102.662 212.944V194.155L111.307 199.318Z" fill="url(#paint10_linear_357)"/>
  <path d="M111.288 199.318V217.941L237.17 145.18V126.392L111.288 199.318Z" fill="url(#paint11_linear_357)"/>
  <path d="M237.17 126.392L111.288 199.318L102.662 194.155L228.589 121.284L237.17 126.392Z" fill="url(#paint12_linear_357)"/>
  <path d="M207.98 162.199L216.882 157.064L200.811 147.647L191.909 152.791L207.98 162.199Z" fill="url(#paint13_linear_357)"/>
  <path d="M187.783 173.826L196.685 168.682L180.642 159.274L171.74 164.409L187.783 173.826Z" fill="url(#paint14_linear_357)"/>
  <path d="M167.587 185.453L176.489 180.309L160.473 170.892L151.562 176.036L167.587 185.453Z" fill="url(#paint15_linear_357)"/>
  <path d="M147.391 197.08L156.293 191.936L140.295 182.519L131.393 187.654L147.391 197.08Z" fill="url(#paint16_linear_357)"/>
  <path d="M127.194 208.707L136.096 203.563L120.126 194.137L111.224 199.281L127.194 208.707Z" fill="url(#paint17_linear_357)"/>

  <g class="top">

    <path d="M111.307 162.978V176.623L102.662 170.112V156.303L111.307 162.978Z" fill="url(#paint18_linear_357)"/>
    <path d="M111.288 162.978V176.614L237.17 126.474V112.674L111.288 162.978Z" fill="url(#paint19_linear_357)"/>
    <path d="M237.17 112.674L111.288 162.978L102.662 156.303L228.589 106.062L237.17 112.674Z" fill="url(#paint20_linear_357)"/>
    <path d="M198.867 128.253L207.769 124.677L200.893 140.962L191.991 144.538L198.867 128.253Z" fill="url(#paint21_linear_357)"/>
    <path d="M178.708 136.24L187.609 132.654L180.743 148.958L171.841 152.543L178.708 136.24Z" fill="url(#paint22_linear_357)"/>
    <path d="M158.557 144.217L167.459 140.632L160.583 156.963L151.681 160.539L158.557 144.217Z" fill="url(#paint23_linear_357)"/>
    <path d="M138.397 152.195L147.299 148.61L140.432 164.959L131.531 168.544L138.397 152.195Z" fill="url(#paint24_linear_357)"/>
    <path d="M118.247 160.172L127.148 156.587L120.273 172.964L111.371 176.54L118.247 160.172Z" fill="url(#paint25_linear_357)"/>

  </g>



  <path d="M237.268 114.251L237.919 114.563L237.076 145.015L217.475 156.871L216.797 156.477V142.695L227.202 119.872L237.268 114.251Z" fill="url(#paint26_linear_357)"/>
  <path d="M237.949 114.517V145.107L217.478 156.871V142.952L227.883 120.138L237.949 114.517Z" fill="url(#paint27_linear_357)"/>
  <path d="M231.697 125.025C231.697 125.942 232.439 126.263 233.365 125.731C234.282 125.199 235.034 124.026 235.034 123.1C235.034 122.183 234.291 121.862 233.365 122.394C232.439 122.925 231.697 124.108 231.697 125.025Z" fill="#A7A9AC"/>
  <path d="M231.697 141.622C231.697 142.539 232.439 142.86 233.365 142.328C234.282 141.797 235.034 140.623 235.034 139.697C235.034 138.78 234.291 138.459 233.365 138.991C232.439 139.522 231.697 140.705 231.697 141.622Z" fill="#A7A9AC"/>
  <path d="M219.861 147.977C219.861 148.894 220.604 149.215 221.53 148.683C222.446 148.151 223.198 146.977 223.198 146.051C223.198 145.134 222.456 144.813 221.53 145.345C220.604 145.877 219.861 147.051 219.861 147.977Z" fill="#A7A9AC"/>
  <path d="M232.118 125.163C232.118 126.08 232.861 126.401 233.787 125.869C234.704 125.337 235.455 124.163 235.455 123.237C235.455 122.32 234.713 121.999 233.787 122.531C232.861 123.072 232.118 124.246 232.118 125.163Z" fill="url(#paint28_linear_357)"/>
  <path d="M232.118 141.76C232.118 142.677 232.861 142.998 233.787 142.466C234.704 141.934 235.455 140.76 235.455 139.834C235.455 138.917 234.713 138.596 233.787 139.128C232.861 139.669 232.118 140.843 232.118 141.76Z" fill="url(#paint29_linear_357)"/>
  <path d="M220.283 148.114C220.283 149.031 221.025 149.352 221.951 148.82C222.868 148.289 223.62 147.115 223.62 146.189C223.62 145.272 222.877 144.951 221.951 145.483C221.025 146.015 220.283 147.197 220.283 148.114Z" fill="url(#paint30_linear_357)"/>
  <path d="M219.045 137.102L111.279 197.988L102.662 194.155L110.509 199.4L111.307 217.941L111.939 199.51L219.045 137.102Z" fill="url(#paint31_radial_357)"/>

  <path class="top" d="M234.731 113.838L111.637 161.997L103.441 156.761L110.738 163.584L111.288 175.908L112.334 163.235L234.731 113.838Z" fill="url(#paint32_radial_357)"/>

  <path d="M114.589 252.025C114.415 252.025 114.24 251.933 114.149 251.768C114.011 251.52 114.094 251.209 114.341 251.071L148.913 231.191V208.992L114.845 228.578C114.763 228.624 114.68 228.642 114.589 228.642C114.415 228.642 114.24 228.55 114.149 228.385C114.011 228.138 114.094 227.826 114.341 227.688L148.968 207.772C149.05 207.598 149.224 207.479 149.426 207.479C149.435 207.479 149.444 207.488 149.463 207.488L231.348 160.402C231.596 160.264 231.908 160.347 232.045 160.594C232.183 160.842 232.1 161.154 231.852 161.291L196.685 181.519V203.719L231.348 183.784C231.596 183.647 231.908 183.729 232.045 183.977C232.183 184.224 232.1 184.536 231.852 184.674L187.041 210.45V227.954L231.348 202.472C231.596 202.334 231.908 202.417 232.045 202.665C232.183 202.912 232.1 203.224 231.852 203.361L114.855 270.648C114.772 270.694 114.69 270.712 114.598 270.712C114.424 270.712 114.25 270.621 114.158 270.456C114.02 270.208 114.103 269.896 114.35 269.759L186.234 228.422V211.137L186.427 210.807L114.855 251.97C114.763 252.006 114.68 252.025 114.589 252.025ZM149.93 230.604L195.659 204.306V182.106L149.93 208.405V230.604Z" fill="url(#paint33_linear_357)"/>
  <path d="M114.341 287.429L231.339 220.142C231.587 220.004 231.898 220.087 232.036 220.334C232.173 220.582 232.091 220.894 231.843 221.031L114.845 288.318C114.763 288.364 114.68 288.382 114.589 288.382C114.415 288.382 114.24 288.291 114.149 288.126C114.011 287.887 114.094 287.575 114.341 287.429Z" fill="url(#paint34_linear_357)"/>
  <path d="M109.491 217.198H110.408V295.37H109.491V217.198Z" fill="url(#paint35_radial_357)"/>
  <path opacity="0.2" d="M380.338 433.951L302.088 478.494C297.67 481.014 292.202 480.811 287.976 477.993L219.623 432.327C217.952 431.205 217.594 428.9 218.847 427.323L295.163 470.314L374.404 423.812L380.446 427.526C382.857 429.007 382.798 432.542 380.338 433.951Z" fill="black"/>
  <path d="M314.35 374.469C315.603 375.197 316.761 375.03 317.299 374.039L318.576 371.722C319.758 369.585 322.242 369.226 324.964 370.791L346.228 383.067C349.678 385.061 352.973 388.56 355.385 392.776C358.322 397.911 362.334 402.162 366.524 404.586L386.821 416.301V395.69L324.319 359.601C317 355.374 311.078 358.753 311.078 367.16V368.808C311.078 370.898 312.535 373.418 314.35 374.469Z" fill="url(#paint36_linear_357)"/>
  <path class="blue" opacity="0.75" d="M381.628 417.567V411.799C381.628 407.87 379.24 406.067 376.291 407.763L352.293 421.627C349.344 423.323 346.956 427.897 346.956 431.826V437.593C346.956 441.522 349.344 443.326 352.293 441.63L376.291 427.765C379.24 426.058 381.628 421.496 381.628 417.567Z" fill="url(#paint37_linear_357)"/>
  <path class="blue" opacity="0.8" d="M351.409 440.746L375.407 426.882C378.356 425.186 380.744 420.612 380.744 416.683V410.915C380.744 409.494 380.434 408.36 379.896 407.56C380.959 408.252 381.628 409.721 381.628 411.799V417.567C381.628 421.496 379.24 426.058 376.291 427.765L352.293 441.63C350.406 442.717 348.759 442.37 347.815 440.949C348.759 441.558 350.024 441.546 351.409 440.746Z" fill="url(#paint38_linear_357)"/>
  <path class="red" opacity="0.75" d="M330.683 446.98V441.212C330.683 437.283 328.295 435.48 325.346 437.176L301.348 451.04C298.399 452.736 296.011 457.31 296.011 461.238V467.006C296.011 470.935 298.399 472.738 301.348 471.043L325.346 457.178C328.295 455.482 330.683 450.909 330.683 446.98Z" fill="url(#paint39_linear_357)"/>
  <path class="red" opacity="0.8" d="M300.476 470.159L324.474 456.294C327.423 454.599 329.811 450.025 329.811 446.096V440.328C329.811 438.907 329.501 437.773 328.963 436.972C330.026 437.665 330.695 439.134 330.695 441.212V446.98C330.695 450.909 328.307 455.47 325.358 457.178L301.36 471.043C299.473 472.129 297.826 471.783 296.882 470.362C297.814 470.983 299.079 470.971 300.476 470.159Z" fill="url(#paint40_linear_357)"/>
  <path d="M386.964 395.475V419.048C386.964 423.836 383.586 429.676 379.407 432.088L350.896 448.544C346.968 450.813 343.505 449.87 342.347 446.227C341.918 444.842 340.604 444.496 339.112 445.356L338.515 445.702C337.034 446.562 335.721 448.437 335.279 450.312C334.133 455.291 330.659 460.235 326.731 462.504L298.232 478.96C294.053 481.372 290.674 479.438 290.674 474.649V451.076L386.964 395.475ZM346.956 437.593C346.956 441.522 349.344 443.326 352.293 441.63L376.291 427.765C379.24 426.07 381.628 421.496 381.628 417.567V411.799C381.628 407.87 379.24 406.067 376.291 407.763L352.293 421.627C349.344 423.323 346.956 427.897 346.956 431.826V437.593ZM296.011 467.006C296.011 470.935 298.399 472.738 301.348 471.043L325.346 457.178C328.295 455.482 330.683 450.909 330.683 446.98V441.212C330.683 437.283 328.295 435.48 325.346 437.176L301.348 451.04C298.399 452.736 296.011 457.309 296.011 461.238V467.006Z" fill="url(#paint41_linear_357)"/>
  <path opacity="0.5" d="M290.686 517.138V493.565C290.686 488.776 294.065 482.937 298.244 480.524L326.755 464.068C330.683 461.8 334.145 462.743 335.303 466.385C335.733 467.77 337.046 468.117 338.539 467.257L339.136 466.911C340.616 466.051 341.929 464.176 342.371 462.301C343.517 457.321 346.992 452.377 350.92 450.108L379.407 433.665C383.586 431.252 386.964 433.187 386.964 437.976V461.549L290.686 517.138ZM330.683 475.031C330.683 471.102 328.295 469.299 325.346 470.995L301.348 484.859C298.399 486.555 296.011 491.129 296.011 495.058V500.825C296.011 504.754 298.399 506.558 301.348 504.862L325.346 490.997C328.295 489.302 330.683 484.728 330.683 480.799V475.031ZM381.628 445.618C381.628 441.689 379.24 439.886 376.291 441.582L352.293 455.446C349.344 457.142 346.956 461.716 346.956 465.645V471.413C346.956 475.342 349.344 477.145 352.293 475.449L376.291 461.585C379.24 459.889 381.628 455.315 381.628 451.386V445.618Z" fill="url(#paint42_linear_357)"/>
  <path d="M218.262 429.903C219.516 430.631 220.674 430.464 221.211 429.473L222.489 427.156C223.671 425.019 226.154 424.661 228.876 426.225L250.14 438.501C253.591 440.495 256.886 443.994 259.298 448.21C262.235 453.345 266.246 457.596 270.437 460.02L290.734 471.735V451.124L228.231 415.035C220.913 410.808 214.991 414.188 214.991 422.595V424.243C214.991 426.332 216.459 428.864 218.262 429.903Z" fill="url(#paint43_linear_357)"/>

  <g class="shadow">

    <path opacity="0.05" d="M303.771 439.713L225.736 394.74L278.09 364.73L354.31 410.754L303.771 439.713Z" fill="black"/>
  <path opacity="0.075" d="M303.712 439.259L228.387 395.85L279.391 366.652L352.973 411.064L303.712 439.259Z" fill="black"/>
  <path opacity="0.1" d="M303.664 438.805L231.037 396.949L280.693 368.563L351.636 411.387L303.664 438.805Z" fill="black"/>
  <path opacity="0.125" d="M303.604 438.351L233.688 398.059L281.994 370.474L350.287 411.709L303.604 438.351Z" fill="black"/>
  <path opacity="0.15" d="M303.556 437.885L236.338 399.158L283.295 372.396L348.95 412.019L303.556 437.885Z" fill="black"/>
  <path opacity="0.175" d="M303.497 437.432L238.989 400.269L284.597 374.307L347.6 412.342L303.497 437.432Z" fill="black"/>
  <path opacity="0.2" d="M303.449 436.978L241.651 401.367L285.898 376.218L346.263 412.664L303.449 436.978Z" fill="black"/>

  </g>
  

  <g class="bucket">

    <path d="M235.67 317.249L260.993 412.82L303.676 387.622L303.425 277.769L235.67 317.249Z" fill="url(#paint44_linear_357)"/>
    <path d="M371.216 317.249L345.905 411.649L303.222 386.452L303.473 277.769L371.216 317.249Z" fill="url(#paint45_linear_357)"/>
    <path d="M296.99 289.209C296.99 285.925 299.652 283.262 302.936 283.262C305.586 283.262 307.807 285.006 308.571 287.406C309.275 287.108 310.051 286.941 310.863 286.941C314.147 286.941 316.809 289.604 316.809 292.888C316.809 296.112 314.242 298.715 311.054 298.811C310.517 302.035 307.735 304.495 304.356 304.495C300.607 304.495 297.563 301.45 297.563 297.7C297.563 296.16 298.088 294.739 298.96 293.592C297.742 292.505 296.99 290.953 296.99 289.209Z" fill="url(#paint46_radial_357)"/>
    <path d="M284.812 292.398C285.743 289.747 288.25 287.848 291.211 287.848C294.96 287.848 298.005 290.893 298.005 294.643C298.005 295.813 297.706 296.924 297.181 297.879C298.208 298.954 298.852 300.399 298.852 301.999C298.852 305.283 296.19 307.946 292.907 307.946C290.256 307.946 288.035 306.203 287.271 303.802C286.567 304.101 285.791 304.268 284.979 304.268C281.696 304.268 279.033 301.605 279.033 298.321C279.045 295.097 281.612 292.494 284.812 292.398Z" fill="url(#paint47_radial_357)"/>
    <path d="M303.556 298.751C304.488 296.1 306.995 294.201 309.956 294.201C313.705 294.201 316.749 297.246 316.749 300.996C316.749 302.166 316.451 303.277 315.925 304.232C316.952 305.307 317.597 306.752 317.597 308.352C317.597 311.636 314.935 314.299 311.651 314.299C309.001 314.299 306.78 312.556 306.016 310.155C305.311 310.454 304.535 310.621 303.724 310.621C300.44 310.621 297.778 307.958 297.778 304.674C297.802 301.462 300.369 298.847 303.556 298.751Z" fill="url(#paint48_radial_357)"/>
    <path d="M284.668 307.576C284.668 304.292 287.331 301.629 290.614 301.629C293.265 301.629 295.485 303.373 296.25 305.773C296.954 305.474 297.73 305.307 298.542 305.307C301.825 305.307 304.488 307.97 304.488 311.254C304.488 314.478 301.921 317.082 298.733 317.177C298.196 320.402 295.414 322.862 292.035 322.862C288.286 322.862 285.242 319.816 285.242 316.067C285.242 314.526 285.767 313.105 286.638 311.959C285.433 310.872 284.668 309.32 284.668 307.576Z" fill="url(#paint49_radial_357)"/>
    <path d="M316.367 294.727C316.367 291.443 319.03 288.78 322.313 288.78C324.964 288.78 327.184 290.523 327.948 292.923C328.653 292.625 329.429 292.458 330.241 292.458C333.524 292.458 336.187 295.121 336.187 298.405C336.187 301.629 333.62 304.232 330.432 304.328C329.895 307.552 327.113 310.012 323.734 310.012C319.985 310.012 316.94 306.967 316.94 303.217C316.94 301.677 317.466 300.256 318.337 299.109C317.131 298.023 316.367 296.47 316.367 294.727Z" fill="url(#paint50_radial_357)"/>
    <path d="M301.395 300.721C302.327 298.07 304.834 296.172 307.795 296.172C311.544 296.172 314.588 299.217 314.588 302.967C314.588 304.137 314.29 305.247 313.765 306.203C314.791 307.278 315.436 308.723 315.436 310.323C315.436 313.607 312.774 316.27 309.49 316.27C306.84 316.27 304.619 314.526 303.855 312.126C303.151 312.424 302.374 312.592 301.563 312.592C298.279 312.592 295.617 309.929 295.617 306.645C295.629 303.432 298.196 300.829 301.395 300.721Z" fill="url(#paint51_radial_357)"/>
    <path d="M331.864 306.262C332.796 303.611 335.303 301.713 338.264 301.713C342.013 301.713 345.057 304.758 345.057 308.508C345.057 309.678 344.759 310.788 344.234 311.744C345.26 312.819 345.905 314.263 345.905 315.864C345.905 319.148 343.243 321.811 339.959 321.811C337.309 321.811 335.088 320.067 334.324 317.667C333.62 317.965 332.844 318.133 332.032 318.133C328.748 318.133 326.086 315.47 326.086 312.186C326.098 308.961 328.665 306.358 331.864 306.262Z" fill="url(#paint52_radial_357)"/>
    <path d="M315.233 302.477C315.233 299.193 317.896 296.53 321.179 296.53C323.829 296.53 326.05 298.273 326.814 300.674C327.519 300.375 328.295 300.208 329.107 300.208C332.39 300.208 335.052 302.871 335.052 306.155C335.052 309.379 332.485 311.983 329.298 312.078C328.76 315.303 325.978 317.763 322.6 317.763C318.851 317.763 315.806 314.717 315.806 310.968C315.806 309.427 316.332 308.006 317.203 306.86C315.997 305.773 315.233 304.22 315.233 302.477Z" fill="url(#paint53_radial_357)"/>
    <path d="M307.592 315.076C307.592 311.792 310.254 309.129 313.538 309.129C316.188 309.129 318.409 310.872 319.173 313.272C319.877 312.974 320.653 312.807 321.465 312.807C324.749 312.807 327.411 315.47 327.411 318.754C327.411 321.978 324.844 324.581 321.656 324.677C321.119 327.901 318.337 330.361 314.958 330.361C311.21 330.361 308.165 327.316 308.165 323.566C308.165 322.026 308.69 320.605 309.562 319.458C308.356 318.372 307.592 316.819 307.592 315.076Z" fill="url(#paint54_radial_357)"/>
    <path d="M339.577 313.834C339.577 310.55 342.24 307.886 345.523 307.886C348.174 307.886 350.394 309.63 351.158 312.03C351.863 311.732 352.639 311.565 353.451 311.565C356.734 311.565 359.396 314.228 359.396 317.512C359.396 320.736 356.83 323.339 353.642 323.435C353.104 326.659 350.323 329.119 346.944 329.119C343.195 329.119 340.15 326.074 340.15 322.324C340.15 320.784 340.676 319.363 341.547 318.216C340.341 317.129 339.577 315.577 339.577 313.834Z" fill="url(#paint55_radial_357)"/>
    <path d="M327.411 317.022C328.342 314.371 330.85 312.472 333.811 312.472C337.56 312.472 340.604 315.517 340.604 319.267C340.604 320.437 340.306 321.548 339.78 322.503C340.807 323.578 341.452 325.023 341.452 326.623C341.452 329.907 338.789 332.57 335.506 332.57C332.855 332.57 330.635 330.827 329.871 328.427C329.166 328.725 328.39 328.892 327.578 328.892C324.295 328.892 321.633 326.229 321.633 322.945C321.644 319.733 324.211 317.118 327.411 317.022Z" fill="url(#paint56_radial_357)"/>
    <path d="M346.156 323.387C347.087 320.736 349.594 318.837 352.555 318.837C356.304 318.837 359.349 321.882 359.349 325.632C359.349 326.802 359.05 327.913 358.525 328.868C359.552 329.943 360.196 331.388 360.196 332.988C360.196 336.272 357.534 338.935 354.251 338.935C351.6 338.935 349.379 337.192 348.615 334.792C347.911 335.09 347.135 335.257 346.323 335.257C343.04 335.257 340.377 332.594 340.377 329.31C340.389 326.086 342.956 323.483 346.156 323.387Z" fill="url(#paint57_radial_357)"/>
    <path d="M327.268 332.2C327.268 328.916 329.93 326.253 333.214 326.253C335.864 326.253 338.085 327.997 338.849 330.397C339.553 330.098 340.329 329.931 341.141 329.931C344.425 329.931 347.087 332.594 347.087 335.878C347.087 339.102 344.52 341.706 341.332 341.801C340.795 345.026 338.013 347.486 334.634 347.486C330.885 347.486 327.841 344.44 327.841 340.691C327.841 339.15 328.366 337.729 329.238 336.583C328.032 335.496 327.268 333.944 327.268 332.2Z" fill="url(#paint58_radial_357)"/>
    <path d="M271.093 303.217C271.093 299.933 273.756 297.27 277.039 297.27C279.69 297.27 281.91 299.014 282.675 301.414C283.379 301.116 284.155 300.948 284.967 300.948C288.25 300.948 290.913 303.611 290.913 306.895C290.913 310.12 288.346 312.723 285.158 312.819C284.621 316.043 281.839 318.503 278.46 318.503C274.711 318.503 271.667 315.458 271.667 311.708C271.667 310.167 272.192 308.746 273.063 307.6C271.858 306.513 271.093 304.961 271.093 303.217Z" fill="url(#paint59_radial_357)"/>
    <path d="M258.915 306.406C259.847 303.755 262.354 301.856 265.315 301.856C269.064 301.856 272.108 304.901 272.108 308.651C272.108 309.821 271.81 310.932 271.285 311.887C272.311 312.962 272.956 314.407 272.956 316.007C272.956 319.291 270.294 321.954 267.01 321.954C264.36 321.954 262.139 320.211 261.375 317.81C260.671 318.109 259.894 318.276 259.083 318.276C255.799 318.276 253.137 315.613 253.137 312.329C253.149 309.117 255.728 306.501 258.915 306.406Z" fill="url(#paint60_radial_357)"/>
    <path d="M277.672 312.771C278.603 310.12 281.111 308.221 284.072 308.221C287.82 308.221 290.865 311.266 290.865 315.016C290.865 316.186 290.567 317.297 290.041 318.252C291.068 319.327 291.713 320.772 291.713 322.372C291.713 325.656 289.05 328.319 285.767 328.319C283.116 328.319 280.896 326.576 280.132 324.175C279.427 324.474 278.651 324.641 277.839 324.641C274.556 324.641 271.893 321.978 271.893 318.694C271.905 315.47 274.472 312.866 277.672 312.771Z" fill="url(#paint61_radial_357)"/>
    <path d="M258.772 321.584C258.772 318.3 261.435 315.637 264.718 315.637C267.368 315.637 269.589 317.38 270.353 319.781C271.058 319.482 271.834 319.315 272.646 319.315C275.929 319.315 278.591 321.978 278.591 325.262C278.591 328.486 276.024 331.09 272.837 331.185C272.299 334.409 269.517 336.869 266.139 336.869C262.39 336.869 259.345 333.824 259.345 330.075C259.345 328.522 259.87 327.113 260.742 325.967C259.536 324.88 258.772 323.327 258.772 321.584Z" fill="url(#paint62_radial_357)"/>
    <path d="M288.071 313.702C288.071 310.418 290.734 307.755 294.017 307.755C296.667 307.755 298.888 309.499 299.652 311.899C300.357 311.6 301.133 311.433 301.945 311.433C305.228 311.433 307.89 314.096 307.89 317.38C307.89 320.605 305.323 323.208 302.136 323.303C301.598 326.528 298.817 328.988 295.438 328.988C291.689 328.988 288.644 325.943 288.644 322.193C288.644 320.652 289.17 319.231 290.041 318.085C288.835 316.998 288.071 315.434 288.071 313.702Z" fill="url(#paint63_radial_357)"/>
    <path d="M275.774 320.115C276.705 317.464 279.212 315.565 282.173 315.565C285.922 315.565 288.967 318.61 288.967 322.36C288.967 323.53 288.668 324.641 288.143 325.596C289.17 326.671 289.814 328.116 289.814 329.716C289.814 333 287.152 335.663 283.869 335.663C281.218 335.663 278.997 333.92 278.233 331.52C277.529 331.818 276.753 331.985 275.941 331.985C272.658 331.985 269.995 329.322 269.995 326.038C270.007 322.826 272.586 320.211 275.774 320.115Z" fill="url(#paint64_radial_357)"/>
    <path d="M302.434 322.109C303.365 319.458 305.873 317.559 308.834 317.559C312.583 317.559 315.627 320.605 315.627 324.354C315.627 325.525 315.329 326.635 314.803 327.591C315.83 328.665 316.475 330.11 316.475 331.711C316.475 334.995 313.812 337.658 310.529 337.658C307.879 337.658 305.658 335.914 304.894 333.514C304.189 333.812 303.413 333.979 302.601 333.979C299.318 333.979 296.656 331.316 296.656 328.032C296.668 324.808 299.234 322.205 302.434 322.109Z" fill="url(#paint65_radial_357)"/>
    <path d="M281.695 329.095C281.695 325.811 284.358 323.148 287.641 323.148C290.292 323.148 292.513 324.892 293.277 327.292C293.981 326.993 294.757 326.826 295.569 326.826C298.852 326.826 301.515 329.489 301.515 332.773C301.515 335.998 298.948 338.601 295.76 338.696C295.223 341.921 292.441 344.381 289.062 344.381C285.313 344.381 282.269 341.336 282.269 337.586C282.269 336.045 282.794 334.624 283.665 333.478C282.46 332.391 281.695 330.827 281.695 329.095Z" fill="url(#paint66_radial_357)"/>
    <path d="M285.85 320.784C285.85 317.5 288.513 314.837 291.796 314.837C294.447 314.837 296.667 316.58 297.432 318.981C298.136 318.682 298.912 318.515 299.724 318.515C303.007 318.515 305.67 321.178 305.67 324.462C305.67 327.686 303.103 330.289 299.915 330.385C299.378 333.609 296.596 336.069 293.217 336.069C289.468 336.069 286.424 333.024 286.424 329.274C286.424 327.722 286.949 326.313 287.82 325.166C286.615 324.08 285.85 322.527 285.85 320.784Z" fill="url(#paint67_radial_357)"/>
    <path d="M313.681 327.853C313.681 324.569 316.343 321.906 319.627 321.906C322.277 321.906 324.498 323.65 325.262 326.05C325.966 325.752 326.743 325.584 327.554 325.584C330.838 325.584 333.5 328.247 333.5 331.531C333.5 334.756 330.933 337.359 327.745 337.455C327.208 340.679 324.426 343.139 321.048 343.139C317.299 343.139 314.254 340.094 314.254 336.344C314.254 334.803 314.779 333.382 315.651 332.236C314.445 331.149 313.681 329.597 313.681 327.853Z" fill="url(#paint68_radial_357)"/>
    <path d="M301.515 331.03C302.446 328.379 304.953 326.48 307.914 326.48C311.663 326.48 314.708 329.525 314.708 333.275C314.708 334.445 314.409 335.556 313.884 336.511C314.911 337.586 315.555 339.031 315.555 340.631C315.555 343.915 312.893 346.578 309.61 346.578C306.959 346.578 304.738 344.835 303.974 342.434C303.27 342.733 302.494 342.9 301.682 342.9C298.399 342.9 295.736 340.237 295.736 336.953C295.748 333.741 298.315 331.137 301.515 331.03Z" fill="url(#paint69_radial_357)"/>
    <path d="M301.133 310.657C302.064 308.006 304.571 306.107 307.532 306.107C311.281 306.107 314.326 309.152 314.326 312.902C314.326 314.072 314.027 315.183 313.502 316.138C314.529 317.213 315.173 318.658 315.173 320.258C315.173 323.542 312.511 326.205 309.228 326.205C306.577 326.205 304.356 324.462 303.592 322.061C302.888 322.36 302.112 322.527 301.3 322.527C298.017 322.527 295.354 319.864 295.354 316.58C295.366 313.356 297.933 310.753 301.133 310.657Z" fill="url(#paint70_radial_357)"/>
    <path d="M248.874 316.735C249.806 314.084 252.313 312.186 255.274 312.186C259.023 312.186 262.067 315.231 262.067 318.981C262.067 320.151 261.769 321.261 261.243 322.217C262.27 323.292 262.915 324.736 262.915 326.337C262.915 329.621 260.253 332.284 256.969 332.284C254.319 332.284 252.098 330.54 251.334 328.14C250.629 328.438 249.853 328.606 249.042 328.606C245.758 328.606 243.096 325.943 243.096 322.659C243.108 319.446 245.675 316.831 248.874 316.735Z" fill="url(#paint71_radial_357)"/>
    <path d="M270.831 331.866C271.762 329.215 274.269 327.316 277.23 327.316C280.979 327.316 284.024 330.361 284.024 334.111C284.024 335.281 283.725 336.392 283.2 337.347C284.227 338.422 284.871 339.867 284.871 341.467C284.871 344.751 282.209 347.414 278.926 347.414C276.275 347.414 274.054 345.671 273.29 343.27C272.586 343.569 271.81 343.736 270.998 343.736C267.715 343.736 265.052 341.073 265.052 337.789C265.064 334.565 267.631 331.961 270.831 331.866Z" fill="url(#paint72_radial_357)"/>
    <path d="M291.462 341.371C292.393 338.72 294.9 336.822 297.861 336.822C301.61 336.822 304.655 339.867 304.655 343.617C304.655 344.787 304.356 345.897 303.831 346.853C304.858 347.928 305.503 349.373 305.503 350.973C305.503 354.257 302.84 356.92 299.557 356.92C296.906 356.92 294.686 355.176 293.921 352.776C293.217 353.074 292.441 353.242 291.629 353.242C288.346 353.242 285.683 350.579 285.683 347.295C285.695 344.07 288.274 341.467 291.462 341.371Z" fill="url(#paint73_radial_357)"/>
    <path d="M320.26 337.395C321.191 334.744 323.698 332.845 326.659 332.845C330.408 332.845 333.452 335.89 333.452 339.64C333.452 340.81 333.154 341.921 332.629 342.876C333.655 343.951 334.3 345.396 334.3 346.996C334.3 350.28 331.638 352.943 328.354 352.943C325.704 352.943 323.483 351.2 322.719 348.799C322.015 349.098 321.239 349.265 320.427 349.265C317.143 349.265 314.481 346.602 314.481 343.318C314.493 340.106 317.06 337.49 320.26 337.395Z" fill="url(#paint74_radial_357)"/>
    <path d="M301.372 346.22C301.372 342.936 304.034 340.273 307.317 340.273C309.968 340.273 312.189 342.016 312.953 344.417C313.657 344.118 314.433 343.951 315.245 343.951C318.528 343.951 321.191 346.614 321.191 349.898C321.191 353.122 318.624 355.726 315.436 355.821C314.899 359.045 312.117 361.505 308.738 361.505C304.989 361.505 301.945 358.46 301.945 354.71C301.945 353.17 302.47 351.749 303.342 350.603C302.136 349.516 301.372 347.963 301.372 346.22Z" fill="url(#paint75_radial_357)"/>
    <path d="M297.276 362.592C297.276 359.308 299.939 356.645 303.222 356.645C305.873 356.645 308.093 358.389 308.857 360.789C309.562 360.49 310.338 360.323 311.15 360.323C314.433 360.323 317.096 362.986 317.096 366.27C317.096 369.495 314.529 372.098 311.341 372.193C310.804 375.418 308.022 377.878 304.643 377.878C300.894 377.878 297.849 374.833 297.849 371.083C297.849 369.542 298.375 368.121 299.246 366.975C298.04 365.888 297.276 364.336 297.276 362.592Z" fill="url(#paint76_radial_357)"/>
    <path d="M296.715 380.959C296.715 377.675 299.378 375.012 302.661 375.012C305.312 375.012 307.532 376.755 308.296 379.155C309.001 378.857 309.777 378.69 310.589 378.69C313.872 378.69 316.534 381.353 316.534 384.637C316.534 387.861 313.967 390.464 310.78 390.56C310.242 393.784 307.461 396.244 304.082 396.244C300.333 396.244 297.288 393.199 297.288 389.449C297.288 387.909 297.814 386.488 298.685 385.341C297.479 384.255 296.715 382.702 296.715 380.959Z" fill="url(#paint77_radial_357)"/>
    <path d="M303.258 356.693L303.294 436.787L260.611 412.306L235.514 317.213L303.258 356.693Z" fill="url(#paint78_linear_357)"/>
    <path d="M238.487 319.052L262.473 413.381L260.611 412.306L235.515 317.213L238.487 319.052Z" fill="url(#paint79_linear_357)"/>
    <path d="M248.337 324.784L268.694 416.928L266.819 415.865L245.364 322.945L248.337 324.784Z" fill="url(#paint80_linear_357)"/>
    <path d="M258.199 330.516L274.902 420.486L273.028 419.412L255.226 328.677L258.199 330.516Z" fill="url(#paint81_linear_357)"/>
    <path d="M268.061 336.248L281.111 424.033L279.236 422.958L265.088 334.409L268.061 336.248Z" fill="url(#paint82_linear_357)"/>
    <path d="M277.911 341.981L287.319 427.592L285.445 426.517L274.95 340.142L277.911 341.981Z" fill="url(#paint83_linear_357)"/>
    <path d="M287.773 347.713L293.528 431.138L291.665 430.064L284.8 345.874L287.773 347.713Z" fill="url(#paint84_linear_357)"/>
    <path d="M297.635 353.445L299.748 434.697L297.873 433.622L294.662 351.606L297.635 353.445Z" fill="url(#paint85_linear_357)"/>
    <path d="M303.318 356.693L303.294 436.787L346.06 411.59L371.157 317.213L303.318 356.693Z" fill="url(#paint86_linear_357)"/>
    <path d="M366.118 320.748L342.885 413.381L344.759 412.306L369.091 318.909L366.118 320.748Z" fill="url(#paint87_linear_357)"/>
    <path d="M356.268 326.396L336.676 417.047L338.551 415.984L359.229 324.545L356.268 326.396Z" fill="url(#paint88_linear_357)"/>
    <path d="M346.407 332.033L330.468 420.725L332.342 419.65L349.38 330.194L346.407 332.033Z" fill="url(#paint89_linear_357)"/>
    <path d="M336.545 337.669L324.259 424.391L326.134 423.316L339.518 335.83L336.545 337.669Z" fill="url(#paint90_linear_357)"/>
    <path d="M326.683 343.306L318.051 428.069L319.925 426.995L329.656 341.467L326.683 343.306Z" fill="url(#paint91_linear_357)"/>
    <path d="M316.833 348.943L311.842 431.735L313.705 430.661L319.806 347.104L316.833 348.943Z" fill="url(#paint92_linear_357)"/>
    <path d="M306.971 354.579L305.622 435.402L307.496 434.327L309.944 352.74L306.971 354.579Z" fill="url(#paint93_linear_357)"/>
    <path d="M257.996 371.083C257.996 381.902 266.771 395.743 277.589 401.988C288.406 408.234 297.181 404.532 297.181 393.701C297.181 382.881 288.406 369.041 277.589 362.795C266.76 356.55 257.996 360.263 257.996 371.083Z" fill="url(#paint94_linear_357)"/>
    <path d="M259.572 372.313C259.572 382.165 267.559 394.752 277.397 400.436C287.247 406.12 295.223 402.753 295.223 392.901C295.223 383.049 287.235 370.462 277.397 364.778C267.559 359.093 259.572 362.461 259.572 372.313Z" fill="url(#paint95_linear_357)"/>
    <path d="M284.836 382.368C284.418 383.096 284.382 383.944 284.728 384.911C285.074 385.879 285.767 386.894 286.818 387.957L287.474 388.625L286.233 390.787L288.573 393.151L292.31 386.643L289.313 383.622C288.215 382.523 287.295 381.866 286.543 381.675C285.779 381.484 285.218 381.711 284.836 382.368ZM288.298 387.204L287.868 386.774C287.522 386.416 287.283 386.058 287.152 385.712C287.033 385.353 287.044 385.043 287.2 384.78C287.45 384.338 287.904 384.446 288.549 385.102L289.158 385.712L288.298 387.204Z" fill="url(#paint96_linear_357)"/>
    <path d="M275.583 374.892C274.95 375.991 274.831 377.173 275.225 378.475C275.607 379.764 276.49 381.102 277.875 382.499C279.236 383.872 280.442 384.637 281.493 384.792C282.543 384.947 283.391 384.482 284.012 383.395C284.633 382.308 284.752 381.126 284.358 379.824C283.964 378.523 283.081 377.185 281.708 375.8C280.335 374.415 279.117 373.638 278.09 373.483C277.051 373.328 276.216 373.794 275.583 374.892ZM281.54 380.911C280.812 382.165 279.869 382.213 278.711 381.03C278.114 380.433 277.768 379.836 277.66 379.239C277.553 378.642 277.684 378.021 278.054 377.376C278.424 376.731 278.854 376.397 279.32 376.373C279.785 376.361 280.311 376.636 280.884 377.221C282.054 378.415 282.269 379.645 281.54 380.911Z" fill="url(#paint97_linear_357)"/>
    <path d="M269.327 366.724C268.909 367.452 268.873 368.3 269.219 369.268C269.565 370.235 270.258 371.25 271.308 372.313L271.965 372.981L270.723 375.143L273.064 377.507L276.801 370.999L273.804 367.978C272.705 366.879 271.786 366.222 271.034 366.031C270.27 365.828 269.709 366.055 269.327 366.724ZM272.789 371.548L272.359 371.119C272.013 370.76 271.774 370.402 271.643 370.056C271.523 369.697 271.535 369.387 271.691 369.124C271.941 368.682 272.395 368.79 273.04 369.447L273.649 370.056L272.789 371.548Z" fill="url(#paint98_linear_357)"/>
    <path d="M285.719 394.787C286.161 395.229 286.424 395.707 286.519 396.232C286.615 396.746 286.519 397.247 286.245 397.725C285.671 398.716 284.895 398.704 283.892 397.689C283.594 397.379 283.319 397.056 283.069 396.71C282.818 396.364 282.579 395.993 282.34 395.623L281.672 396.794C282.137 397.558 282.722 398.298 283.439 399.027C284.466 400.066 285.385 400.639 286.197 400.746C287.009 400.854 287.653 400.484 288.143 399.636C288.453 399.11 288.585 398.501 288.549 397.832C288.513 397.164 288.31 396.471 287.928 395.743C287.558 395.026 287.033 394.322 286.352 393.641C285.612 392.901 284.836 392.303 284.024 391.862L283.964 393.521C284.263 393.689 284.561 393.868 284.848 394.059C285.146 394.262 285.433 394.501 285.719 394.787Z" fill="url(#paint99_linear_357)"/>
    <path d="M276.024 387.36C275.523 388.219 275.427 389.163 275.738 390.178C276.048 391.193 276.741 392.256 277.827 393.354C278.902 394.441 279.845 395.038 280.681 395.169C281.517 395.301 282.173 394.931 282.675 394.059C283.164 393.211 283.26 392.268 282.949 391.241C282.639 390.214 281.946 389.163 280.86 388.064C279.773 386.965 278.818 386.356 278.006 386.237C277.171 386.13 276.514 386.5 276.024 387.36ZM280.717 392.112C280.143 393.104 279.403 393.139 278.484 392.208C278.018 391.742 277.744 391.264 277.648 390.799C277.565 390.333 277.66 389.843 277.959 389.33C278.257 388.816 278.579 388.554 278.95 388.542C279.32 388.53 279.726 388.757 280.191 389.211C281.123 390.142 281.302 391.109 280.717 392.112Z" fill="url(#paint100_linear_357)"/>
    <path d="M273.255 385.688L272.18 387.551L274.031 389.414L276.98 384.279L274.747 382.022C272.896 380.147 271.667 379.717 271.094 380.732C270.747 381.329 270.879 382.177 271.464 383.275L268.192 383.502L270.282 385.616L272.801 385.21L273.255 385.688ZM273.852 384.649L273.505 384.302C272.861 383.658 272.658 383.108 272.908 382.69C273.111 382.332 273.529 382.475 274.162 383.12L274.532 383.49L273.852 384.649Z" fill="url(#paint101_linear_357)"/>
    <path d="M261.769 377.042L264.193 379.49L268.765 378.391L268.813 378.439C268.431 378.952 268.144 379.346 267.977 379.645L266.652 381.962L268.288 383.61L271.237 378.475L268.825 376.039L264.288 377.089L264.264 377.066C264.61 376.588 264.861 376.194 265.04 375.883L266.377 373.567L264.73 371.907L261.769 377.042Z" fill="url(#paint102_linear_357)"/>
    <path d="M295.879 314.908C294.745 317.667 295.951 320.772 298.566 321.846C301.18 322.921 304.213 321.56 305.347 318.801C306.482 316.043 305.276 312.938 302.661 311.863C300.058 310.788 297.014 312.15 295.879 314.908Z" fill="url(#paint103_radial_357)"/>
    <path d="M270.735 324.068C269.601 326.826 270.807 329.931 273.422 331.006C276.036 332.081 279.069 330.719 280.203 327.961C281.337 325.202 280.131 322.097 277.517 321.023C274.902 319.948 271.869 321.309 270.735 324.068Z" fill="url(#paint104_radial_357)"/>
    <path d="M283.009 337.335C281.875 340.094 283.081 343.199 285.695 344.273C288.31 345.348 291.343 343.987 292.477 341.228C293.611 338.47 292.405 335.365 289.79 334.29C287.188 333.203 284.143 334.577 283.009 337.335Z" fill="url(#paint105_radial_357)"/>
    <path d="M295.485 344.238C293.814 348.298 295.581 352.883 299.437 354.46C303.294 356.048 307.771 354.03 309.442 349.97C311.114 345.909 309.347 341.324 305.491 339.747C301.634 338.159 297.157 340.177 295.485 344.238Z" fill="url(#paint106_radial_357)"/>
    <path d="M272.49 308.949C270.819 313.01 272.586 317.595 276.442 319.172C280.299 320.748 284.776 318.742 286.447 314.682C288.119 310.621 286.352 306.036 282.496 304.459C278.627 302.871 274.15 304.877 272.49 308.949Z" fill="url(#paint107_radial_357)"/>
    <path d="M288.477 300.088C287.343 302.847 288.549 305.952 291.163 307.027C293.778 308.101 296.811 306.74 297.945 303.982C299.079 301.223 297.873 298.118 295.259 297.043C292.644 295.969 289.611 297.33 288.477 300.088Z" fill="url(#paint108_radial_357)"/>
    <path d="M325.656 324.94C324.235 328.415 325.74 332.32 329.035 333.669C332.33 335.018 336.151 333.299 337.572 329.836C338.992 326.361 337.488 322.456 334.193 321.106C330.909 319.757 327.089 321.476 325.656 324.94Z" fill="url(#paint109_radial_357)"/>
    <path d="M297.288 332.427C296.644 334.003 297.324 335.771 298.817 336.38C300.309 336.989 302.04 336.213 302.685 334.636C303.33 333.06 302.649 331.293 301.157 330.684C299.664 330.074 297.933 330.863 297.288 332.427Z" fill="url(#paint110_radial_357)"/>
    <path d="M286.28 321.249C285.636 322.826 286.316 324.593 287.808 325.202C289.301 325.811 291.032 325.035 291.677 323.459C292.322 321.882 291.641 320.115 290.149 319.494C288.656 318.897 286.925 319.685 286.28 321.249Z" fill="url(#paint111_radial_357)"/>
    <path d="M262.999 318.121C262.354 319.697 263.034 321.464 264.527 322.074C266.019 322.683 267.75 321.906 268.395 320.33C269.04 318.754 268.359 316.986 266.867 316.365C265.375 315.768 263.643 316.544 262.999 318.121Z" fill="url(#paint112_radial_357)"/>
    <path d="M296.429 304.531C295.784 306.107 296.464 307.875 297.957 308.484C299.449 309.093 301.18 308.316 301.825 306.74C302.47 305.164 301.789 303.396 300.297 302.775C298.805 302.178 297.073 302.966 296.429 304.531Z" fill="url(#paint113_radial_357)"/>
    <path d="M313.036 306.573C311.58 310.132 313.12 314.132 316.487 315.517C319.854 316.903 323.77 315.147 325.226 311.589C326.683 308.03 325.143 304.029 321.776 302.644C318.409 301.259 314.493 303.014 313.036 306.573Z" fill="url(#paint114_radial_357)"/>
    <path d="M312.451 337.335C311.317 340.094 312.523 343.199 315.138 344.273C317.752 345.348 320.785 343.987 321.919 341.228C323.053 338.47 321.847 335.365 319.233 334.29C316.618 333.203 313.585 334.577 312.451 337.335Z" fill="url(#paint115_radial_357)"/>
    <path d="M340.521 317.249C339.386 320.008 340.592 323.112 343.207 324.187C345.822 325.262 348.854 323.901 349.988 321.142C351.123 318.383 349.917 315.279 347.302 314.204C344.699 313.129 341.655 314.49 340.521 317.249Z" fill="url(#paint116_radial_357)"/>
    <path d="M371.157 317.213L303.318 356.693L235.514 317.213L303.64 354.388L371.157 317.213Z" fill="url(#paint117_radial_357)"/>
    <path d="M303.258 356.693L303.294 436.787L260.611 412.306L235.514 317.213L303.258 356.693Z" fill="url(#paint118_linear_357)"/>

  </g>
  
  <defs>
    <linearGradient id="paint0_linear_357" x1="8.586" y1="446.652" x2="175.249" y2="398.728" gradientUnits="userSpaceOnUse">
      <stop offset="0.0389" stop-color="#705FC7"/>
      <stop offset="1" stop-color="#352CA1"/>
    </linearGradient>
    <linearGradient id="paint1_linear_357" x1="88.1489" y1="380.074" x2="275.134" y2="385.388" gradientUnits="userSpaceOnUse">
      <stop offset="0.0389" stop-color="#705FC7"/>
      <stop offset="1" stop-color="#352CA1"/>
    </linearGradient>
    <linearGradient id="paint2_linear_357" x1="0.368934" y1="200.422" x2="311.323" y2="200.422" gradientUnits="userSpaceOnUse">
      <stop offset="0.00777202" stop-color="#D2B9F2"/>
      <stop offset="0.3549" stop-color="#705FC7"/>
      <stop offset="0.7487" stop-color="#705FC7"/>
      <stop offset="1" stop-color="#352CA1"/>
    </linearGradient>
    <linearGradient id="paint3_linear_357" x1="63.0159" y1="389.277" x2="181.955" y2="393.83" gradientUnits="userSpaceOnUse">
      <stop offset="0.00777202" stop-color="#D2B9F2"/>
      <stop offset="0.2979" stop-color="#705FC7"/>
      <stop offset="0.6399" stop-color="#705FC7"/>
      <stop offset="1" stop-color="#352CA1"/>
    </linearGradient>
    <linearGradient id="paint4_linear_357" x1="184.168" y1="408.913" x2="142.628" y2="299.786" gradientUnits="userSpaceOnUse">
      <stop offset="0.0389" stop-color="#705FC7"/>
      <stop offset="1" stop-color="#352CA1"/>
    </linearGradient>
    <linearGradient id="paint5_linear_357" x1="-182.21" y1="341.237" x2="576.186" y2="42.792" gradientUnits="userSpaceOnUse">
      <stop offset="0.0389" stop-color="#705FC7"/>
      <stop offset="1" stop-color="#352CA1"/>
    </linearGradient>
    <linearGradient id="paint6_linear_357" x1="355.404" y1="85.8877" x2="37.328" y2="278.921" gradientUnits="userSpaceOnUse">
      <stop stop-color="#607CF2"/>
      <stop offset="0.2208" stop-color="#6280F2"/>
      <stop offset="0.4401" stop-color="#678CF2"/>
      <stop offset="0.6588" stop-color="#6FA0F2"/>
      <stop offset="0.8759" stop-color="#7BBCF2"/>
      <stop offset="1" stop-color="#83CFF2"/>
    </linearGradient>
    <linearGradient id="paint7_linear_357" x1="115.244" y1="258.857" x2="59.0132" y2="242.023" gradientUnits="userSpaceOnUse">
      <stop stop-color="#1A103D"/>
      <stop offset="0.2692" stop-color="#251B4C"/>
      <stop offset="0.7839" stop-color="#403873"/>
      <stop offset="1" stop-color="#4D4685"/>
    </linearGradient>
    <linearGradient id="paint8_linear_357" x1="369.24" y1="265.653" x2="-32.1685" y2="175.689" gradientUnits="userSpaceOnUse">
      <stop stop-color="#1A103D"/>
      <stop offset="0.2692" stop-color="#251B4C"/>
      <stop offset="0.7839" stop-color="#403873"/>
      <stop offset="1" stop-color="#4D4685"/>
    </linearGradient>
    <linearGradient id="paint9_linear_357" x1="159.023" y1="156.936" x2="171.599" y2="180.899" gradientUnits="userSpaceOnUse">
      <stop stop-color="#1A103D"/>
      <stop offset="0.2692" stop-color="#251B4C"/>
      <stop offset="0.7839" stop-color="#403873"/>
      <stop offset="1" stop-color="#4D4685"/>
    </linearGradient>
    <linearGradient id="paint10_linear_357" x1="111.09" y1="207.277" x2="83.3128" y2="198.961" gradientUnits="userSpaceOnUse">
      <stop stop-color="#1A103D"/>
      <stop offset="0.3316" stop-color="#241B4C"/>
      <stop offset="0.9663" stop-color="#3F3873"/>
      <stop offset="1" stop-color="#413A75"/>
    </linearGradient>
    <linearGradient id="paint11_linear_357" x1="347.767" y1="211.074" x2="-6.98039" y2="131.568" gradientUnits="userSpaceOnUse">
      <stop stop-color="#1A103D"/>
      <stop offset="0.3316" stop-color="#241B4C"/>
      <stop offset="0.9663" stop-color="#3F3873"/>
      <stop offset="1" stop-color="#413A75"/>
    </linearGradient>
    <linearGradient id="paint12_linear_357" x1="210.87" y1="90.7573" x2="154.722" y2="186.02" gradientUnits="userSpaceOnUse">
      <stop stop-color="#251C4D"/>
      <stop offset="0.5939" stop-color="#3C346D"/>
      <stop offset="1" stop-color="#4D4685"/>
    </linearGradient>
    <linearGradient id="paint13_linear_357" x1="196.414" y1="141.05" x2="211.624" y2="167.476" gradientUnits="userSpaceOnUse">
      <stop stop-color="white"/>
      <stop offset="1" stop-color="#BCBCD6"/>
    </linearGradient>
    <linearGradient id="paint14_linear_357" x1="176.227" y1="152.67" x2="191.438" y2="179.096" gradientUnits="userSpaceOnUse">
      <stop stop-color="white"/>
      <stop offset="1" stop-color="#BCBCD6"/>
    </linearGradient>
    <linearGradient id="paint15_linear_357" x1="156.04" y1="164.289" x2="171.251" y2="190.715" gradientUnits="userSpaceOnUse">
      <stop stop-color="white"/>
      <stop offset="1" stop-color="#BCBCD6"/>
    </linearGradient>
    <linearGradient id="paint16_linear_357" x1="135.854" y1="175.908" x2="151.065" y2="202.334" gradientUnits="userSpaceOnUse">
      <stop stop-color="white"/>
      <stop offset="1" stop-color="#BCBCD6"/>
    </linearGradient>
    <linearGradient id="paint17_linear_357" x1="115.667" y1="187.528" x2="130.878" y2="213.954" gradientUnits="userSpaceOnUse">
      <stop stop-color="white"/>
      <stop offset="1" stop-color="#BCBCD6"/>
    </linearGradient>
    <linearGradient id="paint18_linear_357" x1="110.701" y1="168.227" x2="84.4076" y2="159.92" gradientUnits="userSpaceOnUse">
      <stop stop-color="#1A103D"/>
      <stop offset="0.3316" stop-color="#241B4C"/>
      <stop offset="0.9663" stop-color="#3F3873"/>
      <stop offset="1" stop-color="#413A75"/>
    </linearGradient>
    <linearGradient id="paint19_linear_357" x1="346.257" y1="213.343" x2="-18.3174" y2="128.296" gradientUnits="userSpaceOnUse">
      <stop stop-color="#1A103D"/>
      <stop offset="0.3316" stop-color="#241B4C"/>
      <stop offset="0.9663" stop-color="#3F3873"/>
      <stop offset="1" stop-color="#413A75"/>
    </linearGradient>
    <linearGradient id="paint20_linear_357" x1="159.193" y1="112.168" x2="170.773" y2="145.284" gradientUnits="userSpaceOnUse">
      <stop stop-color="#251C4D"/>
      <stop offset="0.5939" stop-color="#3C346D"/>
      <stop offset="1" stop-color="#4D4685"/>
    </linearGradient>
    <linearGradient id="paint21_linear_357" x1="207.767" y1="134.608" x2="191.993" y2="134.608" gradientUnits="userSpaceOnUse">
      <stop stop-color="white"/>
      <stop offset="1" stop-color="#BCBCD6"/>
    </linearGradient>
    <linearGradient id="paint22_linear_357" x1="187.612" y1="142.597" x2="171.838" y2="142.597" gradientUnits="userSpaceOnUse">
      <stop stop-color="white"/>
      <stop offset="1" stop-color="#BCBCD6"/>
    </linearGradient>
    <linearGradient id="paint23_linear_357" x1="167.457" y1="150.587" x2="151.683" y2="150.587" gradientUnits="userSpaceOnUse">
      <stop stop-color="white"/>
      <stop offset="1" stop-color="#BCBCD6"/>
    </linearGradient>
    <linearGradient id="paint24_linear_357" x1="147.302" y1="158.577" x2="131.528" y2="158.577" gradientUnits="userSpaceOnUse">
      <stop stop-color="white"/>
      <stop offset="1" stop-color="#BCBCD6"/>
    </linearGradient>
    <linearGradient id="paint25_linear_357" x1="127.147" y1="166.566" x2="111.373" y2="166.566" gradientUnits="userSpaceOnUse">
      <stop stop-color="white"/>
      <stop offset="1" stop-color="#BCBCD6"/>
    </linearGradient>
    <linearGradient id="paint26_linear_357" x1="219.686" y1="133.92" x2="194.062" y2="128.445" gradientUnits="userSpaceOnUse">
      <stop stop-color="#1A103D"/>
      <stop offset="0.3316" stop-color="#241B4C"/>
      <stop offset="0.9663" stop-color="#3F3873"/>
      <stop offset="1" stop-color="#413A75"/>
    </linearGradient>
    <linearGradient id="paint27_linear_357" x1="249.117" y1="148.287" x2="219.45" y2="130.839" gradientUnits="userSpaceOnUse">
      <stop stop-color="#1A103D"/>
      <stop offset="0.2692" stop-color="#251B4C"/>
      <stop offset="0.7839" stop-color="#403873"/>
      <stop offset="1" stop-color="#4D4685"/>
    </linearGradient>
    <linearGradient id="paint28_linear_357" x1="234.315" y1="122.332" x2="232.375" y2="129.169" gradientUnits="userSpaceOnUse">
      <stop stop-color="white"/>
      <stop offset="1" stop-color="#BCBCD6"/>
    </linearGradient>
    <linearGradient id="paint29_linear_357" x1="234.315" y1="138.93" x2="232.375" y2="145.766" gradientUnits="userSpaceOnUse">
      <stop stop-color="white"/>
      <stop offset="1" stop-color="#BCBCD6"/>
    </linearGradient>
    <linearGradient id="paint30_linear_357" x1="222.478" y1="145.283" x2="220.539" y2="152.119" gradientUnits="userSpaceOnUse">
      <stop stop-color="white"/>
      <stop offset="1" stop-color="#BCBCD6"/>
    </linearGradient>
    <radialGradient id="paint31_radial_357" cx="0" cy="0" r="1" gradientUnits="userSpaceOnUse" gradientTransform="translate(126.068 174.85) rotate(180) scale(46.4029 46.4128)">
      <stop stop-color="white"/>
      <stop offset="1"/>
    </radialGradient>
    <radialGradient id="paint32_radial_357" cx="0" cy="0" r="1" gradientUnits="userSpaceOnUse" gradientTransform="translate(129.476 145.649) rotate(180) scale(42.304 42.313)">
      <stop stop-color="white"/>
      <stop offset="1"/>
    </radialGradient>
    <linearGradient id="paint33_linear_357" x1="232.105" y1="215.527" x2="114.081" y2="215.527" gradientUnits="userSpaceOnUse">
      <stop stop-color="white"/>
      <stop offset="1" stop-color="#BCBCD6"/>
    </linearGradient>
    <linearGradient id="paint34_linear_357" x1="232.105" y1="254.231" x2="114.081" y2="254.231" gradientUnits="userSpaceOnUse">
      <stop stop-color="white"/>
      <stop offset="1" stop-color="#BCBCD6"/>
    </linearGradient>
    <radialGradient id="paint35_radial_357" cx="0" cy="0" r="1" gradientUnits="userSpaceOnUse" gradientTransform="translate(98.8428 251.742) rotate(180) scale(43.3207 43.3298)">
      <stop stop-color="white"/>
      <stop offset="1"/>
    </radialGradient>
    <linearGradient id="paint36_linear_357" x1="299.156" y1="352.893" x2="385.138" y2="406.694" gradientUnits="userSpaceOnUse">
      <stop stop-color="#DACEEB"/>
      <stop offset="1" stop-color="#9F9FC4"/>
    </linearGradient>
    <linearGradient id="paint37_linear_357" x1="347.985" y1="443.823" x2="378.405" y2="408.147" gradientUnits="userSpaceOnUse">
      <stop offset="0.0354" stop-color="#138BBD"/>
      <stop offset="0.2257" stop-color="#169AC7"/>
      <stop offset="0.5946" stop-color="#1FC3DF"/>
      <stop offset="1" stop-color="#2AF6FF"/>
    </linearGradient>
    <linearGradient id="paint38_linear_357" x1="351.628" y1="446.921" x2="382.038" y2="411.256" gradientUnits="userSpaceOnUse">
      <stop offset="0.0354" stop-color="#138BBD"/>
      <stop offset="0.2257" stop-color="#169AC7"/>
      <stop offset="0.5946" stop-color="#1FC3DF"/>
      <stop offset="1" stop-color="#2AF6FF"/>
    </linearGradient>
    <linearGradient id="paint39_linear_357" x1="298.527" y1="474.702" x2="330.117" y2="430.836" gradientUnits="userSpaceOnUse">
      <stop offset="0.0354" stop-color="#9F19AB"/>
      <stop offset="0.2438" stop-color="#AE25B1"/>
      <stop offset="0.6455" stop-color="#D744BF"/>
      <stop offset="1" stop-color="#FF63CE"/>
    </linearGradient>
    <linearGradient id="paint40_linear_357" x1="301.923" y1="477.14" x2="333.503" y2="433.288" gradientUnits="userSpaceOnUse">
      <stop offset="0.0354" stop-color="#9F19AB"/>
      <stop offset="0.2438" stop-color="#AE25B1"/>
      <stop offset="0.6455" stop-color="#D744BF"/>
      <stop offset="1" stop-color="#FF63CE"/>
    </linearGradient>
    <linearGradient id="paint41_linear_357" x1="304.473" y1="431.283" x2="419.395" y2="451.748" gradientUnits="userSpaceOnUse">
      <stop stop-color="#DACEEB"/>
      <stop offset="1" stop-color="#9F9FC4"/>
    </linearGradient>
    <linearGradient id="paint42_linear_357" x1="290.149" y1="367.626" x2="350.462" y2="474.495" gradientUnits="userSpaceOnUse">
      <stop stop-color="#4A4A4A"/>
      <stop offset="1" stop-opacity="0"/>
    </linearGradient>
    <linearGradient id="paint43_linear_357" x1="204.249" y1="395.147" x2="289.944" y2="472.636" gradientUnits="userSpaceOnUse">
      <stop stop-color="#DACEEB"/>
      <stop offset="1" stop-color="#9F9FC4"/>
    </linearGradient>
    <linearGradient id="paint44_linear_357" x1="317.359" y1="402.768" x2="241.064" y2="278.075" gradientUnits="userSpaceOnUse">
      <stop offset="0.0354" stop-color="#9F19AB"/>
      <stop offset="0.2438" stop-color="#AE25B1"/>
      <stop offset="0.6455" stop-color="#D744BF"/>
      <stop offset="1" stop-color="#FF63CE"/>
    </linearGradient>
    <linearGradient id="paint45_linear_357" x1="370.337" y1="330.018" x2="149.401" y2="401.104" gradientUnits="userSpaceOnUse">
      <stop offset="0.0354" stop-color="#9F19AB"/>
      <stop offset="0.2438" stop-color="#AE25B1"/>
      <stop offset="0.6455" stop-color="#D744BF"/>
      <stop offset="1" stop-color="#FF63CE"/>
    </linearGradient>
    <radialGradient id="paint46_radial_357" cx="0" cy="0" r="1" gradientUnits="userSpaceOnUse" gradientTransform="translate(310.663 288.456) rotate(180) scale(18.1932 18.1971)">
      <stop offset="0.1515" stop-color="#FFFAE9"/>
      <stop offset="0.3884" stop-color="#FFEAB9"/>
      <stop offset="0.473" stop-color="#FFE4A7"/>
      <stop offset="0.5588" stop-color="#FCE0A2"/>
      <stop offset="0.6609" stop-color="#F3D494"/>
      <stop offset="0.7712" stop-color="#E4C07C"/>
      <stop offset="0.8866" stop-color="#CFA45A"/>
      <stop offset="0.9091" stop-color="#CA9E53"/>
    </radialGradient>
    <radialGradient id="paint47_radial_357" cx="0" cy="0" r="1" gradientUnits="userSpaceOnUse" gradientTransform="translate(293.956 291.811) rotate(180) scale(16.986 16.9897)">
      <stop offset="0.2323" stop-color="#FFFAE9"/>
      <stop offset="0.3836" stop-color="#FFEAB9"/>
      <stop offset="0.4377" stop-color="#FFE4A7"/>
      <stop offset="0.4847" stop-color="#FCE0A2"/>
      <stop offset="0.5407" stop-color="#F3D494"/>
      <stop offset="0.6012" stop-color="#E4C07C"/>
      <stop offset="0.6644" stop-color="#CFA45A"/>
      <stop offset="0.6768" stop-color="#CA9E53"/>
      <stop offset="0.9545" stop-color="#785E32"/>
    </radialGradient>
    <radialGradient id="paint48_radial_357" cx="0" cy="0" r="1" gradientUnits="userSpaceOnUse" gradientTransform="translate(312.702 298.172) rotate(180) scale(16.986 16.9897)">
      <stop offset="0.1515" stop-color="#FFFAE9"/>
      <stop offset="0.3884" stop-color="#FFEAB9"/>
      <stop offset="0.473" stop-color="#FFE4A7"/>
      <stop offset="0.5588" stop-color="#FCE0A2"/>
      <stop offset="0.6609" stop-color="#F3D494"/>
      <stop offset="0.7712" stop-color="#E4C07C"/>
      <stop offset="0.8866" stop-color="#CFA45A"/>
      <stop offset="0.9091" stop-color="#CA9E53"/>
    </radialGradient>
    <radialGradient id="paint49_radial_357" cx="0" cy="0" r="1" gradientUnits="userSpaceOnUse" gradientTransform="translate(298.35 306.821) rotate(180) scale(18.1934 18.1972)">
      <stop offset="0.1515" stop-color="#FFFAE9"/>
      <stop offset="0.3884" stop-color="#FFEAB9"/>
      <stop offset="0.473" stop-color="#FFE4A7"/>
      <stop offset="0.5588" stop-color="#FCE0A2"/>
      <stop offset="0.6609" stop-color="#F3D494"/>
      <stop offset="0.7712" stop-color="#E4C07C"/>
      <stop offset="0.8866" stop-color="#CFA45A"/>
      <stop offset="0.9091" stop-color="#CA9E53"/>
    </radialGradient>
    <radialGradient id="paint50_radial_357" cx="0" cy="0" r="1" gradientUnits="userSpaceOnUse" gradientTransform="translate(330.05 293.976) rotate(180) scale(18.1932 18.1971)">
      <stop offset="0.2323" stop-color="#FFFAE9"/>
      <stop offset="0.3836" stop-color="#FFEAB9"/>
      <stop offset="0.4377" stop-color="#FFE4A7"/>
      <stop offset="0.4847" stop-color="#FCE0A2"/>
      <stop offset="0.5407" stop-color="#F3D494"/>
      <stop offset="0.6012" stop-color="#E4C07C"/>
      <stop offset="0.6644" stop-color="#CFA45A"/>
      <stop offset="0.6768" stop-color="#CA9E53"/>
      <stop offset="0.9545" stop-color="#785E32"/>
    </radialGradient>
    <radialGradient id="paint51_radial_357" cx="0" cy="0" r="1" gradientUnits="userSpaceOnUse" gradientTransform="translate(310.531 300.143) rotate(180) scale(16.986 16.9897)">
      <stop offset="0.1515" stop-color="#FFFAE9"/>
      <stop offset="0.3884" stop-color="#FFEAB9"/>
      <stop offset="0.473" stop-color="#FFE4A7"/>
      <stop offset="0.5588" stop-color="#FCE0A2"/>
      <stop offset="0.6609" stop-color="#F3D494"/>
      <stop offset="0.7712" stop-color="#E4C07C"/>
      <stop offset="0.8866" stop-color="#CFA45A"/>
      <stop offset="0.9091" stop-color="#CA9E53"/>
    </radialGradient>
    <radialGradient id="paint52_radial_357" cx="0" cy="0" r="1" gradientUnits="userSpaceOnUse" gradientTransform="translate(341.003 305.673) rotate(180) scale(16.986 16.9897)">
      <stop offset="0.2323" stop-color="#FFFAE9"/>
      <stop offset="0.3836" stop-color="#FFEAB9"/>
      <stop offset="0.4377" stop-color="#FFE4A7"/>
      <stop offset="0.4847" stop-color="#FCE0A2"/>
      <stop offset="0.5407" stop-color="#F3D494"/>
      <stop offset="0.6012" stop-color="#E4C07C"/>
      <stop offset="0.6644" stop-color="#CFA45A"/>
      <stop offset="0.6768" stop-color="#CA9E53"/>
      <stop offset="0.9545" stop-color="#785E32"/>
    </radialGradient>
    <radialGradient id="paint53_radial_357" cx="0" cy="0" r="1" gradientUnits="userSpaceOnUse" gradientTransform="translate(328.916 301.726) rotate(180) scale(18.1933 18.1973)">
      <stop offset="0.2323" stop-color="#FFFAE9"/>
      <stop offset="0.5026" stop-color="#FFEAB9"/>
      <stop offset="0.5993" stop-color="#FFE4A7"/>
      <stop offset="0.6782" stop-color="#FCE0A2"/>
      <stop offset="0.7719" stop-color="#F3D494"/>
      <stop offset="0.8733" stop-color="#E4C07C"/>
      <stop offset="0.9793" stop-color="#CFA45A"/>
      <stop offset="1" stop-color="#CA9E53"/>
    </radialGradient>
    <radialGradient id="paint54_radial_357" cx="0" cy="0" r="1" gradientUnits="userSpaceOnUse" gradientTransform="translate(321.274 314.323) rotate(180) scale(18.1933 18.1972)">
      <stop stop-color="#FFFAE9"/>
      <stop offset="0.1699" stop-color="#FFEAB9"/>
      <stop offset="0.2306" stop-color="#FFE4A7"/>
      <stop offset="0.2767" stop-color="#FCE0A2"/>
      <stop offset="0.3314" stop-color="#F3D494"/>
      <stop offset="0.3906" stop-color="#E4C07C"/>
      <stop offset="0.4526" stop-color="#CFA45A"/>
      <stop offset="0.4646" stop-color="#CA9E53"/>
      <stop offset="0.9545" stop-color="#785E32"/>
    </radialGradient>
    <radialGradient id="paint55_radial_357" cx="0" cy="0" r="1" gradientUnits="userSpaceOnUse" gradientTransform="translate(353.257 313.083) rotate(180) scale(18.1933 18.1971)">
      <stop offset="0.1515" stop-color="#FFFAE9"/>
      <stop offset="0.3884" stop-color="#FFEAB9"/>
      <stop offset="0.473" stop-color="#FFE4A7"/>
      <stop offset="0.5588" stop-color="#FCE0A2"/>
      <stop offset="0.6609" stop-color="#F3D494"/>
      <stop offset="0.7712" stop-color="#E4C07C"/>
      <stop offset="0.8866" stop-color="#CFA45A"/>
      <stop offset="0.9091" stop-color="#CA9E53"/>
    </radialGradient>
    <radialGradient id="paint56_radial_357" cx="0" cy="0" r="1" gradientUnits="userSpaceOnUse" gradientTransform="translate(336.549 316.439) rotate(180) scale(16.986 16.9897)">
      <stop offset="0.1515" stop-color="#FFFAE9"/>
      <stop offset="0.3884" stop-color="#FFEAB9"/>
      <stop offset="0.473" stop-color="#FFE4A7"/>
      <stop offset="0.5588" stop-color="#FCE0A2"/>
      <stop offset="0.6609" stop-color="#F3D494"/>
      <stop offset="0.7712" stop-color="#E4C07C"/>
      <stop offset="0.8866" stop-color="#CFA45A"/>
      <stop offset="0.9091" stop-color="#CA9E53"/>
    </radialGradient>
    <radialGradient id="paint57_radial_357" cx="0" cy="0" r="1" gradientUnits="userSpaceOnUse" gradientTransform="translate(355.295 322.799) rotate(180) scale(16.9861 16.9897)">
      <stop offset="0.2323" stop-color="#FFFAE9"/>
      <stop offset="0.3836" stop-color="#FFEAB9"/>
      <stop offset="0.4377" stop-color="#FFE4A7"/>
      <stop offset="0.4847" stop-color="#FCE0A2"/>
      <stop offset="0.5407" stop-color="#F3D494"/>
      <stop offset="0.6012" stop-color="#E4C07C"/>
      <stop offset="0.6644" stop-color="#CFA45A"/>
      <stop offset="0.6768" stop-color="#CA9E53"/>
      <stop offset="0.9545" stop-color="#785E32"/>
    </radialGradient>
    <radialGradient id="paint58_radial_357" cx="0" cy="0" r="1" gradientUnits="userSpaceOnUse" gradientTransform="translate(340.944 331.448) rotate(180) scale(18.1932 18.1971)">
      <stop offset="0.1515" stop-color="#FFFAE9"/>
      <stop offset="0.3884" stop-color="#FFEAB9"/>
      <stop offset="0.473" stop-color="#FFE4A7"/>
      <stop offset="0.5588" stop-color="#FCE0A2"/>
      <stop offset="0.6609" stop-color="#F3D494"/>
      <stop offset="0.7712" stop-color="#E4C07C"/>
      <stop offset="0.8866" stop-color="#CFA45A"/>
      <stop offset="0.9091" stop-color="#CA9E53"/>
    </radialGradient>
    <radialGradient id="paint59_radial_357" cx="0" cy="0" r="1" gradientUnits="userSpaceOnUse" gradientTransform="translate(284.768 302.468) rotate(180) scale(18.1932 18.1971)">
      <stop offset="0.1515" stop-color="#FFFAE9"/>
      <stop offset="0.3884" stop-color="#FFEAB9"/>
      <stop offset="0.473" stop-color="#FFE4A7"/>
      <stop offset="0.5588" stop-color="#FCE0A2"/>
      <stop offset="0.6609" stop-color="#F3D494"/>
      <stop offset="0.7712" stop-color="#E4C07C"/>
      <stop offset="0.8866" stop-color="#CFA45A"/>
      <stop offset="0.9091" stop-color="#CA9E53"/>
    </radialGradient>
    <radialGradient id="paint60_radial_357" cx="0" cy="0" r="1" gradientUnits="userSpaceOnUse" gradientTransform="translate(268.06 305.824) rotate(180) scale(16.986 16.9897)">
      <stop offset="0.2323" stop-color="#FFFAE9"/>
      <stop offset="0.3836" stop-color="#FFEAB9"/>
      <stop offset="0.4377" stop-color="#FFE4A7"/>
      <stop offset="0.4847" stop-color="#FCE0A2"/>
      <stop offset="0.5407" stop-color="#F3D494"/>
      <stop offset="0.6012" stop-color="#E4C07C"/>
      <stop offset="0.6644" stop-color="#CFA45A"/>
      <stop offset="0.6768" stop-color="#CA9E53"/>
      <stop offset="0.9545" stop-color="#785E32"/>
    </radialGradient>
    <radialGradient id="paint61_radial_357" cx="0" cy="0" r="1" gradientUnits="userSpaceOnUse" gradientTransform="translate(286.806 312.184) rotate(180) scale(16.9861 16.9897)">
      <stop offset="0.1515" stop-color="#FFFAE9"/>
      <stop offset="0.3884" stop-color="#FFEAB9"/>
      <stop offset="0.473" stop-color="#FFE4A7"/>
      <stop offset="0.5588" stop-color="#FCE0A2"/>
      <stop offset="0.6609" stop-color="#F3D494"/>
      <stop offset="0.7712" stop-color="#E4C07C"/>
      <stop offset="0.8866" stop-color="#CFA45A"/>
      <stop offset="0.9091" stop-color="#CA9E53"/>
    </radialGradient>
    <radialGradient id="paint62_radial_357" cx="0" cy="0" r="1" gradientUnits="userSpaceOnUse" gradientTransform="translate(272.455 320.833) rotate(180) scale(18.1934 18.1972)">
      <stop offset="0.2323" stop-color="#FFFAE9"/>
      <stop offset="0.3836" stop-color="#FFEAB9"/>
      <stop offset="0.4377" stop-color="#FFE4A7"/>
      <stop offset="0.4847" stop-color="#FCE0A2"/>
      <stop offset="0.5407" stop-color="#F3D494"/>
      <stop offset="0.6012" stop-color="#E4C07C"/>
      <stop offset="0.6644" stop-color="#CFA45A"/>
      <stop offset="0.6768" stop-color="#CA9E53"/>
      <stop offset="0.9545" stop-color="#785E32"/>
    </radialGradient>
    <radialGradient id="paint63_radial_357" cx="0" cy="0" r="1" gradientUnits="userSpaceOnUse" gradientTransform="translate(301.749 312.942) rotate(180) scale(18.1934 18.1972)">
      <stop offset="0.2323" stop-color="#FFFAE9"/>
      <stop offset="0.3836" stop-color="#FFEAB9"/>
      <stop offset="0.4377" stop-color="#FFE4A7"/>
      <stop offset="0.4847" stop-color="#FCE0A2"/>
      <stop offset="0.5407" stop-color="#F3D494"/>
      <stop offset="0.6012" stop-color="#E4C07C"/>
      <stop offset="0.6644" stop-color="#CFA45A"/>
      <stop offset="0.6768" stop-color="#CA9E53"/>
      <stop offset="0.9545" stop-color="#785E32"/>
    </radialGradient>
    <radialGradient id="paint64_radial_357" cx="0" cy="0" r="1" gradientUnits="userSpaceOnUse" gradientTransform="translate(284.918 319.533) rotate(180) scale(16.986 16.9897)">
      <stop offset="0.2323" stop-color="#FFFAE9"/>
      <stop offset="0.5026" stop-color="#FFEAB9"/>
      <stop offset="0.5993" stop-color="#FFE4A7"/>
      <stop offset="0.6782" stop-color="#FCE0A2"/>
      <stop offset="0.7719" stop-color="#F3D494"/>
      <stop offset="0.8733" stop-color="#E4C07C"/>
      <stop offset="0.9793" stop-color="#CFA45A"/>
      <stop offset="1" stop-color="#CA9E53"/>
    </radialGradient>
    <radialGradient id="paint65_radial_357" cx="0" cy="0" r="1" gradientUnits="userSpaceOnUse" gradientTransform="translate(311.57 321.525) rotate(180) scale(16.986 16.9897)">
      <stop offset="0.1515" stop-color="#FFFAE9"/>
      <stop offset="0.3884" stop-color="#FFEAB9"/>
      <stop offset="0.473" stop-color="#FFE4A7"/>
      <stop offset="0.5588" stop-color="#FCE0A2"/>
      <stop offset="0.6609" stop-color="#F3D494"/>
      <stop offset="0.7712" stop-color="#E4C07C"/>
      <stop offset="0.8866" stop-color="#CFA45A"/>
      <stop offset="0.9091" stop-color="#CA9E53"/>
    </radialGradient>
    <radialGradient id="paint66_radial_357" cx="0" cy="0" r="1" gradientUnits="userSpaceOnUse" gradientTransform="translate(295.379 328.335) rotate(180) scale(18.1934 18.1972)">
      <stop offset="0.1515" stop-color="#FFFAE9"/>
      <stop offset="0.3884" stop-color="#FFEAB9"/>
      <stop offset="0.473" stop-color="#FFE4A7"/>
      <stop offset="0.5588" stop-color="#FCE0A2"/>
      <stop offset="0.6609" stop-color="#F3D494"/>
      <stop offset="0.7712" stop-color="#E4C07C"/>
      <stop offset="0.8866" stop-color="#CFA45A"/>
      <stop offset="0.9091" stop-color="#CA9E53"/>
    </radialGradient>
    <radialGradient id="paint67_radial_357" cx="0" cy="0" r="1" gradientUnits="userSpaceOnUse" gradientTransform="translate(299.529 320.031) rotate(180) scale(18.1932 18.1971)">
      <stop offset="0.1515" stop-color="#FFFAE9"/>
      <stop offset="0.3884" stop-color="#FFEAB9"/>
      <stop offset="0.473" stop-color="#FFE4A7"/>
      <stop offset="0.5588" stop-color="#FCE0A2"/>
      <stop offset="0.6609" stop-color="#F3D494"/>
      <stop offset="0.7712" stop-color="#E4C07C"/>
      <stop offset="0.8866" stop-color="#CFA45A"/>
      <stop offset="0.9091" stop-color="#CA9E53"/>
    </radialGradient>
    <radialGradient id="paint68_radial_357" cx="0" cy="0" r="1" gradientUnits="userSpaceOnUse" gradientTransform="translate(327.361 327.095) rotate(180) scale(18.1932 18.1971)">
      <stop offset="0.2323" stop-color="#FFFAE9"/>
      <stop offset="0.3836" stop-color="#FFEAB9"/>
      <stop offset="0.4377" stop-color="#FFE4A7"/>
      <stop offset="0.4847" stop-color="#FCE0A2"/>
      <stop offset="0.5407" stop-color="#F3D494"/>
      <stop offset="0.6012" stop-color="#E4C07C"/>
      <stop offset="0.6644" stop-color="#CFA45A"/>
      <stop offset="0.6768" stop-color="#CA9E53"/>
      <stop offset="0.9545" stop-color="#785E32"/>
    </radialGradient>
    <radialGradient id="paint69_radial_357" cx="0" cy="0" r="1" gradientUnits="userSpaceOnUse" gradientTransform="translate(310.653 330.451) rotate(180) scale(16.986 16.9897)">
      <stop offset="0.2323" stop-color="#FFFAE9"/>
      <stop offset="0.5026" stop-color="#FFEAB9"/>
      <stop offset="0.5993" stop-color="#FFE4A7"/>
      <stop offset="0.6782" stop-color="#FCE0A2"/>
      <stop offset="0.7719" stop-color="#F3D494"/>
      <stop offset="0.8733" stop-color="#E4C07C"/>
      <stop offset="0.9793" stop-color="#CFA45A"/>
      <stop offset="1" stop-color="#CA9E53"/>
    </radialGradient>
    <radialGradient id="paint70_radial_357" cx="0" cy="0" r="1" gradientUnits="userSpaceOnUse" gradientTransform="translate(310.276 310.07) rotate(180) scale(16.986 16.9897)">
      <stop offset="0.2323" stop-color="#FFFAE9"/>
      <stop offset="0.5026" stop-color="#FFEAB9"/>
      <stop offset="0.5993" stop-color="#FFE4A7"/>
      <stop offset="0.6782" stop-color="#FCE0A2"/>
      <stop offset="0.7719" stop-color="#F3D494"/>
      <stop offset="0.8733" stop-color="#E4C07C"/>
      <stop offset="0.9793" stop-color="#CFA45A"/>
      <stop offset="1" stop-color="#CA9E53"/>
    </radialGradient>
    <radialGradient id="paint71_radial_357" cx="0" cy="0" r="1" gradientUnits="userSpaceOnUse" gradientTransform="translate(258.013 316.156) rotate(180) scale(16.986 16.9897)">
      <stop offset="0.1515" stop-color="#FFFAE9"/>
      <stop offset="0.3884" stop-color="#FFEAB9"/>
      <stop offset="0.473" stop-color="#FFE4A7"/>
      <stop offset="0.5588" stop-color="#FCE0A2"/>
      <stop offset="0.6609" stop-color="#F3D494"/>
      <stop offset="0.7712" stop-color="#E4C07C"/>
      <stop offset="0.8866" stop-color="#CFA45A"/>
      <stop offset="0.9091" stop-color="#CA9E53"/>
    </radialGradient>
    <radialGradient id="paint72_radial_357" cx="0" cy="0" r="1" gradientUnits="userSpaceOnUse" gradientTransform="translate(279.965 331.281) rotate(180) scale(16.9861 16.9897)">
      <stop offset="0.1515" stop-color="#FFFAE9"/>
      <stop offset="0.3884" stop-color="#FFEAB9"/>
      <stop offset="0.473" stop-color="#FFE4A7"/>
      <stop offset="0.5588" stop-color="#FCE0A2"/>
      <stop offset="0.6609" stop-color="#F3D494"/>
      <stop offset="0.7712" stop-color="#E4C07C"/>
      <stop offset="0.8866" stop-color="#CFA45A"/>
      <stop offset="0.9091" stop-color="#CA9E53"/>
    </radialGradient>
    <radialGradient id="paint73_radial_357" cx="0" cy="0" r="1" gradientUnits="userSpaceOnUse" gradientTransform="translate(300.606 340.783) rotate(180) scale(16.986 16.9897)">
      <stop offset="0.2323" stop-color="#FFFAE9"/>
      <stop offset="0.3836" stop-color="#FFEAB9"/>
      <stop offset="0.4377" stop-color="#FFE4A7"/>
      <stop offset="0.4847" stop-color="#FCE0A2"/>
      <stop offset="0.5407" stop-color="#F3D494"/>
      <stop offset="0.6012" stop-color="#E4C07C"/>
      <stop offset="0.6644" stop-color="#CFA45A"/>
      <stop offset="0.6768" stop-color="#CA9E53"/>
      <stop offset="0.9545" stop-color="#785E32"/>
    </radialGradient>
    <radialGradient id="paint74_radial_357" cx="0" cy="0" r="1" gradientUnits="userSpaceOnUse" gradientTransform="translate(329.4 336.811) rotate(180) scale(16.986 16.9897)">
      <stop offset="0.1515" stop-color="#FFFAE9"/>
      <stop offset="0.3884" stop-color="#FFEAB9"/>
      <stop offset="0.473" stop-color="#FFE4A7"/>
      <stop offset="0.5588" stop-color="#FCE0A2"/>
      <stop offset="0.6609" stop-color="#F3D494"/>
      <stop offset="0.7712" stop-color="#E4C07C"/>
      <stop offset="0.8866" stop-color="#CFA45A"/>
      <stop offset="0.9091" stop-color="#CA9E53"/>
    </radialGradient>
    <radialGradient id="paint75_radial_357" cx="0" cy="0" r="1" gradientUnits="userSpaceOnUse" gradientTransform="translate(315.048 345.461) rotate(180) scale(18.1933 18.1971)">
      <stop offset="0.1515" stop-color="#FFFAE9"/>
      <stop offset="0.3884" stop-color="#FFEAB9"/>
      <stop offset="0.473" stop-color="#FFE4A7"/>
      <stop offset="0.5588" stop-color="#FCE0A2"/>
      <stop offset="0.6609" stop-color="#F3D494"/>
      <stop offset="0.7712" stop-color="#E4C07C"/>
      <stop offset="0.8866" stop-color="#CFA45A"/>
      <stop offset="0.9091" stop-color="#CA9E53"/>
    </radialGradient>
    <radialGradient id="paint76_radial_357" cx="0" cy="0" r="1" gradientUnits="userSpaceOnUse" gradientTransform="translate(310.956 361.833) rotate(180) scale(18.1932 18.1971)">
      <stop offset="0.1515" stop-color="#FFFAE9"/>
      <stop offset="0.3884" stop-color="#FFEAB9"/>
      <stop offset="0.473" stop-color="#FFE4A7"/>
      <stop offset="0.5588" stop-color="#FCE0A2"/>
      <stop offset="0.6609" stop-color="#F3D494"/>
      <stop offset="0.7712" stop-color="#E4C07C"/>
      <stop offset="0.8866" stop-color="#CFA45A"/>
      <stop offset="0.9091" stop-color="#CA9E53"/>
    </radialGradient>
    <radialGradient id="paint77_radial_357" cx="0" cy="0" r="1" gradientUnits="userSpaceOnUse" gradientTransform="translate(310.397 380.2) rotate(180) scale(18.1933 18.1973)">
      <stop offset="0.1515" stop-color="#FFFAE9"/>
      <stop offset="0.3884" stop-color="#FFEAB9"/>
      <stop offset="0.473" stop-color="#FFE4A7"/>
      <stop offset="0.5588" stop-color="#FCE0A2"/>
      <stop offset="0.6609" stop-color="#F3D494"/>
      <stop offset="0.7712" stop-color="#E4C07C"/>
      <stop offset="0.8866" stop-color="#CFA45A"/>
      <stop offset="0.9091" stop-color="#CA9E53"/>
    </radialGradient>
    <linearGradient id="paint78_linear_357" x1="8.71464" y1="377.001" x2="287.959" y2="377.001" gradientUnits="userSpaceOnUse">
      <stop stop-color="#E6E7E8"/>
      <stop offset="1" stop-color="#A7A9AC"/>
    </linearGradient>
    <linearGradient id="paint79_linear_357" x1="298.999" y1="380.046" x2="163.169" y2="340.002" gradientUnits="userSpaceOnUse">
      <stop offset="0.0354" stop-color="#9F19AB"/>
      <stop offset="0.2438" stop-color="#AE25B1"/>
      <stop offset="0.6455" stop-color="#D744BF"/>
      <stop offset="1" stop-color="#FF63CE"/>
    </linearGradient>
    <linearGradient id="paint80_linear_357" x1="294.921" y1="381.115" x2="151.45" y2="338.819" gradientUnits="userSpaceOnUse">
      <stop offset="0.0354" stop-color="#9F19AB"/>
      <stop offset="0.2438" stop-color="#AE25B1"/>
      <stop offset="0.6455" stop-color="#D744BF"/>
      <stop offset="1" stop-color="#FF63CE"/>
    </linearGradient>
    <linearGradient id="paint81_linear_357" x1="292.227" y1="382.594" x2="144.172" y2="338.946" gradientUnits="userSpaceOnUse">
      <stop offset="0.0354" stop-color="#9F19AB"/>
      <stop offset="0.2438" stop-color="#AE25B1"/>
      <stop offset="0.6455" stop-color="#D744BF"/>
      <stop offset="1" stop-color="#FF63CE"/>
    </linearGradient>
    <linearGradient id="paint82_linear_357" x1="290.919" y1="384.48" x2="141.335" y2="340.381" gradientUnits="userSpaceOnUse">
      <stop offset="0.0354" stop-color="#9F19AB"/>
      <stop offset="0.2438" stop-color="#AE25B1"/>
      <stop offset="0.6455" stop-color="#D744BF"/>
      <stop offset="1" stop-color="#FF63CE"/>
    </linearGradient>
    <linearGradient id="paint83_linear_357" x1="290.995" y1="386.775" x2="142.939" y2="343.127" gradientUnits="userSpaceOnUse">
      <stop offset="0.0354" stop-color="#9F19AB"/>
      <stop offset="0.2438" stop-color="#AE25B1"/>
      <stop offset="0.6455" stop-color="#D744BF"/>
      <stop offset="1" stop-color="#FF63CE"/>
    </linearGradient>
    <linearGradient id="paint84_linear_357" x1="292.456" y1="389.478" x2="148.984" y2="347.181" gradientUnits="userSpaceOnUse">
      <stop offset="0.0354" stop-color="#9F19AB"/>
      <stop offset="0.2438" stop-color="#AE25B1"/>
      <stop offset="0.6455" stop-color="#D744BF"/>
      <stop offset="1" stop-color="#FF63CE"/>
    </linearGradient>
    <linearGradient id="paint85_linear_357" x1="295.301" y1="392.59" x2="159.47" y2="352.545" gradientUnits="userSpaceOnUse">
      <stop offset="0.0354" stop-color="#9F19AB"/>
      <stop offset="0.2438" stop-color="#AE25B1"/>
      <stop offset="0.6455" stop-color="#D744BF"/>
      <stop offset="1" stop-color="#FF63CE"/>
    </linearGradient>
    <linearGradient id="paint86_linear_357" x1="312.848" y1="377.001" x2="545.786" y2="377.001" gradientUnits="userSpaceOnUse">
      <stop stop-color="#E6E7E8"/>
      <stop offset="1" stop-color="#A7A9AC"/>
    </linearGradient>
    <linearGradient id="paint87_linear_357" x1="396.291" y1="356.384" x2="295.638" y2="380.758" gradientUnits="userSpaceOnUse">
      <stop offset="0.0354" stop-color="#9F19AB"/>
      <stop offset="0.2438" stop-color="#AE25B1"/>
      <stop offset="0.6455" stop-color="#D744BF"/>
      <stop offset="1" stop-color="#FF63CE"/>
    </linearGradient>
    <linearGradient id="paint88_linear_357" x1="407.112" y1="356.471" x2="299.293" y2="382.58" gradientUnits="userSpaceOnUse">
      <stop offset="0.0354" stop-color="#9F19AB"/>
      <stop offset="0.2438" stop-color="#AE25B1"/>
      <stop offset="0.6455" stop-color="#D744BF"/>
      <stop offset="1" stop-color="#FF63CE"/>
    </linearGradient>
    <linearGradient id="paint89_linear_357" x1="413.852" y1="357.545" x2="301.734" y2="384.696" gradientUnits="userSpaceOnUse">
      <stop offset="0.0354" stop-color="#9F19AB"/>
      <stop offset="0.2438" stop-color="#AE25B1"/>
      <stop offset="0.6455" stop-color="#D744BF"/>
      <stop offset="1" stop-color="#FF63CE"/>
    </linearGradient>
    <linearGradient id="paint90_linear_357" x1="416.512" y1="359.609" x2="302.96" y2="387.107" gradientUnits="userSpaceOnUse">
      <stop offset="0.0354" stop-color="#9F19AB"/>
      <stop offset="0.2438" stop-color="#AE25B1"/>
      <stop offset="0.6455" stop-color="#D744BF"/>
      <stop offset="1" stop-color="#FF63CE"/>
    </linearGradient>
    <linearGradient id="paint91_linear_357" x1="415.091" y1="362.661" x2="302.973" y2="389.812" gradientUnits="userSpaceOnUse">
      <stop offset="0.0354" stop-color="#9F19AB"/>
      <stop offset="0.2438" stop-color="#AE25B1"/>
      <stop offset="0.6455" stop-color="#D744BF"/>
      <stop offset="1" stop-color="#FF63CE"/>
    </linearGradient>
    <linearGradient id="paint92_linear_357" x1="409.589" y1="366.702" x2="301.771" y2="392.811" gradientUnits="userSpaceOnUse">
      <stop offset="0.0354" stop-color="#9F19AB"/>
      <stop offset="0.2438" stop-color="#AE25B1"/>
      <stop offset="0.6455" stop-color="#D744BF"/>
      <stop offset="1" stop-color="#FF63CE"/>
    </linearGradient>
    <linearGradient id="paint93_linear_357" x1="400.007" y1="371.731" x2="299.354" y2="396.105" gradientUnits="userSpaceOnUse">
      <stop offset="0.0354" stop-color="#9F19AB"/>
      <stop offset="0.2438" stop-color="#AE25B1"/>
      <stop offset="0.6455" stop-color="#D744BF"/>
      <stop offset="1" stop-color="#FF63CE"/>
    </linearGradient>
    <linearGradient id="paint94_linear_357" x1="294.989" y1="401.344" x2="228.234" y2="328.708" gradientUnits="userSpaceOnUse">
      <stop offset="0.0354" stop-color="#9F19AB"/>
      <stop offset="0.2438" stop-color="#AE25B1"/>
      <stop offset="0.6455" stop-color="#D744BF"/>
      <stop offset="1" stop-color="#FF63CE"/>
    </linearGradient>
    <linearGradient id="paint95_linear_357" x1="245.864" y1="364.426" x2="344.475" y2="421.252" gradientUnits="userSpaceOnUse">
      <stop offset="0.1212" stop-color="#F1F2F2"/>
      <stop offset="1" stop-color="#A7A9AC"/>
    </linearGradient>
    <linearGradient id="paint96_linear_357" x1="142.094" y1="7.52754" x2="150.166" y2="-92.8821" gradientUnits="userSpaceOnUse">
      <stop offset="0.0354" stop-color="#271273"/>
      <stop offset="0.421" stop-color="#321382"/>
      <stop offset="1" stop-color="#4916A1"/>
    </linearGradient>
    <linearGradient id="paint97_linear_357" x1="136.128" y1="7.05202" x2="144.2" y2="-93.3566" gradientUnits="userSpaceOnUse">
      <stop offset="0.0354" stop-color="#271273"/>
      <stop offset="0.421" stop-color="#321382"/>
      <stop offset="1" stop-color="#4916A1"/>
    </linearGradient>
    <linearGradient id="paint98_linear_357" x1="132.325" y1="6.746" x2="140.396" y2="-93.6631" gradientUnits="userSpaceOnUse">
      <stop offset="0.0354" stop-color="#271273"/>
      <stop offset="0.421" stop-color="#321382"/>
      <stop offset="1" stop-color="#4916A1"/>
    </linearGradient>
    <linearGradient id="paint99_linear_357" x1="135.059" y1="8.3704" x2="143.13" y2="-92.0388" gradientUnits="userSpaceOnUse">
      <stop offset="0.0354" stop-color="#271273"/>
      <stop offset="0.421" stop-color="#321382"/>
      <stop offset="1" stop-color="#4916A1"/>
    </linearGradient>
    <linearGradient id="paint100_linear_357" x1="131.608" y1="8.09322" x2="139.679" y2="-92.3158" gradientUnits="userSpaceOnUse">
      <stop offset="0.0354" stop-color="#271273"/>
      <stop offset="0.421" stop-color="#321382"/>
      <stop offset="1" stop-color="#4916A1"/>
    </linearGradient>
    <linearGradient id="paint101_linear_357" x1="127.344" y1="7.7488" x2="135.416" y2="-92.6609" gradientUnits="userSpaceOnUse">
      <stop offset="0.0354" stop-color="#271273"/>
      <stop offset="0.421" stop-color="#321382"/>
      <stop offset="1" stop-color="#4916A1"/>
    </linearGradient>
    <linearGradient id="paint102_linear_357" x1="123.514" y1="7.44273" x2="131.586" y2="-92.9665" gradientUnits="userSpaceOnUse">
      <stop offset="0.0354" stop-color="#271273"/>
      <stop offset="0.421" stop-color="#321382"/>
      <stop offset="1" stop-color="#4916A1"/>
    </linearGradient>
    <radialGradient id="paint103_radial_357" cx="0" cy="0" r="1" gradientUnits="userSpaceOnUse" gradientTransform="translate(304.609 313.241) rotate(180) scale(11.3573 11.3597)">
      <stop offset="0.4567" stop-color="white"/>
      <stop offset="0.548" stop-color="#FDFCFA"/>
      <stop offset="0.6508" stop-color="#F5F2ED"/>
      <stop offset="0.7592" stop-color="#E9E3D6"/>
      <stop offset="0.8715" stop-color="#D8CDB7"/>
      <stop offset="0.9858" stop-color="#C3B28F"/>
      <stop offset="1" stop-color="#C0AE89"/>
    </radialGradient>
    <radialGradient id="paint104_radial_357" cx="0" cy="0" r="1" gradientUnits="userSpaceOnUse" gradientTransform="translate(279.461 322.405) rotate(180) scale(11.3573 11.3597)">
      <stop offset="0.4567" stop-color="white"/>
      <stop offset="0.548" stop-color="#FDFCFA"/>
      <stop offset="0.6508" stop-color="#F5F2ED"/>
      <stop offset="0.7592" stop-color="#E9E3D6"/>
      <stop offset="0.8715" stop-color="#D8CDB7"/>
      <stop offset="0.9858" stop-color="#C3B28F"/>
      <stop offset="1" stop-color="#C0AE89"/>
    </radialGradient>
    <radialGradient id="paint105_radial_357" cx="0" cy="0" r="1" gradientUnits="userSpaceOnUse" gradientTransform="translate(291.743 335.665) rotate(180) scale(11.3573 11.3597)">
      <stop offset="0.4567" stop-color="white"/>
      <stop offset="0.548" stop-color="#FDFCFA"/>
      <stop offset="0.6508" stop-color="#F5F2ED"/>
      <stop offset="0.7592" stop-color="#E9E3D6"/>
      <stop offset="0.8715" stop-color="#D8CDB7"/>
      <stop offset="0.9858" stop-color="#C3B28F"/>
      <stop offset="1" stop-color="#C0AE89"/>
    </radialGradient>
    <radialGradient id="paint106_radial_357" cx="0" cy="0" r="1" gradientUnits="userSpaceOnUse" gradientTransform="translate(308.35 341.781) rotate(180) scale(16.736 16.7396)">
      <stop offset="0.4567" stop-color="white"/>
      <stop offset="0.548" stop-color="#FDFCFA"/>
      <stop offset="0.6508" stop-color="#F5F2ED"/>
      <stop offset="0.7592" stop-color="#E9E3D6"/>
      <stop offset="0.8715" stop-color="#D8CDB7"/>
      <stop offset="0.9858" stop-color="#C3B28F"/>
      <stop offset="1" stop-color="#C0AE89"/>
    </radialGradient>
    <radialGradient id="paint107_radial_357" cx="0" cy="0" r="1" gradientUnits="userSpaceOnUse" gradientTransform="translate(285.346 306.488) rotate(180) scale(16.7361 16.7396)">
      <stop offset="0.4567" stop-color="white"/>
      <stop offset="0.548" stop-color="#FDFCFA"/>
      <stop offset="0.6508" stop-color="#F5F2ED"/>
      <stop offset="0.7592" stop-color="#E9E3D6"/>
      <stop offset="0.8715" stop-color="#D8CDB7"/>
      <stop offset="0.9858" stop-color="#C3B28F"/>
      <stop offset="1" stop-color="#C0AE89"/>
    </radialGradient>
    <radialGradient id="paint108_radial_357" cx="0" cy="0" r="1" gradientUnits="userSpaceOnUse" gradientTransform="translate(297.201 298.422) rotate(180) scale(11.3572 11.3597)">
      <stop offset="0.4567" stop-color="white"/>
      <stop offset="0.548" stop-color="#FDFCFA"/>
      <stop offset="0.6508" stop-color="#F5F2ED"/>
      <stop offset="0.7592" stop-color="#E9E3D6"/>
      <stop offset="0.8715" stop-color="#D8CDB7"/>
      <stop offset="0.9858" stop-color="#C3B28F"/>
      <stop offset="1" stop-color="#C0AE89"/>
    </radialGradient>
    <radialGradient id="paint109_radial_357" cx="0" cy="0" r="1" gradientUnits="userSpaceOnUse" gradientTransform="translate(336.639 322.845) rotate(180) scale(14.2899 14.2929)">
      <stop offset="0.4567" stop-color="white"/>
      <stop offset="0.548" stop-color="#FDFCFA"/>
      <stop offset="0.6508" stop-color="#F5F2ED"/>
      <stop offset="0.7592" stop-color="#E9E3D6"/>
      <stop offset="0.8715" stop-color="#D8CDB7"/>
      <stop offset="0.9858" stop-color="#C3B28F"/>
      <stop offset="1" stop-color="#C0AE89"/>
    </radialGradient>
    <radialGradient id="paint110_radial_357" cx="0" cy="0" r="1" gradientUnits="userSpaceOnUse" gradientTransform="translate(302.262 331.481) rotate(180) scale(6.47778 6.47917)">
      <stop offset="0.4567" stop-color="white"/>
      <stop offset="0.548" stop-color="#FDFCFA"/>
      <stop offset="0.6508" stop-color="#F5F2ED"/>
      <stop offset="0.7592" stop-color="#E9E3D6"/>
      <stop offset="0.8715" stop-color="#D8CDB7"/>
      <stop offset="0.9858" stop-color="#C3B28F"/>
      <stop offset="1" stop-color="#C0AE89"/>
    </radialGradient>
    <radialGradient id="paint111_radial_357" cx="0" cy="0" r="1" gradientUnits="userSpaceOnUse" gradientTransform="translate(291.253 320.304) rotate(180) scale(6.47763 6.47905)">
      <stop offset="0.4567" stop-color="white"/>
      <stop offset="0.548" stop-color="#FDFCFA"/>
      <stop offset="0.6508" stop-color="#F5F2ED"/>
      <stop offset="0.7592" stop-color="#E9E3D6"/>
      <stop offset="0.8715" stop-color="#D8CDB7"/>
      <stop offset="0.9858" stop-color="#C3B28F"/>
      <stop offset="1" stop-color="#C0AE89"/>
    </radialGradient>
    <radialGradient id="paint112_radial_357" cx="0" cy="0" r="1" gradientUnits="userSpaceOnUse" gradientTransform="translate(267.971 317.169) rotate(180) scale(6.47773 6.47909)">
      <stop offset="0.4567" stop-color="white"/>
      <stop offset="0.548" stop-color="#FDFCFA"/>
      <stop offset="0.6508" stop-color="#F5F2ED"/>
      <stop offset="0.7592" stop-color="#E9E3D6"/>
      <stop offset="0.8715" stop-color="#D8CDB7"/>
      <stop offset="0.9858" stop-color="#C3B28F"/>
      <stop offset="1" stop-color="#C0AE89"/>
    </radialGradient>
    <radialGradient id="paint113_radial_357" cx="0" cy="0" r="1" gradientUnits="userSpaceOnUse" gradientTransform="translate(301.401 303.585) rotate(180) scale(6.47766 6.47902)">
      <stop offset="0.4567" stop-color="white"/>
      <stop offset="0.548" stop-color="#FDFCFA"/>
      <stop offset="0.6508" stop-color="#F5F2ED"/>
      <stop offset="0.7592" stop-color="#E9E3D6"/>
      <stop offset="0.8715" stop-color="#D8CDB7"/>
      <stop offset="0.9858" stop-color="#C3B28F"/>
      <stop offset="1" stop-color="#C0AE89"/>
    </radialGradient>
    <radialGradient id="paint114_radial_357" cx="0" cy="0" r="1" gradientUnits="userSpaceOnUse" gradientTransform="translate(324.28 304.422) rotate(180) scale(14.6358 14.6389)">
      <stop offset="0.4567" stop-color="white"/>
      <stop offset="0.548" stop-color="#FDFCFA"/>
      <stop offset="0.6508" stop-color="#F5F2ED"/>
      <stop offset="0.7592" stop-color="#E9E3D6"/>
      <stop offset="0.8715" stop-color="#D8CDB7"/>
      <stop offset="0.9858" stop-color="#C3B28F"/>
      <stop offset="1" stop-color="#C0AE89"/>
    </radialGradient>
    <radialGradient id="paint115_radial_357" cx="0" cy="0" r="1" gradientUnits="userSpaceOnUse" gradientTransform="translate(321.18 335.665) rotate(180) scale(11.3573 11.3597)">
      <stop offset="0.4567" stop-color="white"/>
      <stop offset="0.548" stop-color="#FDFCFA"/>
      <stop offset="0.6508" stop-color="#F5F2ED"/>
      <stop offset="0.7592" stop-color="#E9E3D6"/>
      <stop offset="0.8715" stop-color="#D8CDB7"/>
      <stop offset="0.9858" stop-color="#C3B28F"/>
      <stop offset="1" stop-color="#C0AE89"/>
    </radialGradient>
    <radialGradient id="paint116_radial_357" cx="0" cy="0" r="1" gradientUnits="userSpaceOnUse" gradientTransform="translate(349.252 315.581) rotate(180) scale(11.3573 11.3597)">
      <stop offset="0.4567" stop-color="white"/>
      <stop offset="0.548" stop-color="#FDFCFA"/>
      <stop offset="0.6508" stop-color="#F5F2ED"/>
      <stop offset="0.7592" stop-color="#E9E3D6"/>
      <stop offset="0.8715" stop-color="#D8CDB7"/>
      <stop offset="0.9858" stop-color="#C3B28F"/>
      <stop offset="1" stop-color="#C0AE89"/>
    </radialGradient>
    <radialGradient id="paint117_radial_357" cx="0" cy="0" r="1" gradientUnits="userSpaceOnUse" gradientTransform="translate(355.828 323.654) rotate(180) scale(110.543 110.567)">
      <stop offset="0.4567" stop-color="white"/>
      <stop offset="0.548" stop-color="#FDFCFA"/>
      <stop offset="0.6508" stop-color="#F5F2ED"/>
      <stop offset="0.7592" stop-color="#E9E3D6"/>
      <stop offset="0.8715" stop-color="#D8CDB7"/>
      <stop offset="0.9858" stop-color="#C3B28F"/>
      <stop offset="1" stop-color="#C0AE89"/>
    </radialGradient>
    <linearGradient id="paint118_linear_357" x1="239.188" y1="371.424" x2="350.115" y2="391.89" gradientUnits="userSpaceOnUse">
      <stop stop-color="white"/>
      <stop offset="1" stop-color="#A7A9AC"/>
    </linearGradient>
  </defs>


  <style>

  .top{
    animation: 4s ease-in-out  infinite click;
  }
  
  @keyframes click {
    0% {
      transform: rotate(0) translate(0);
    }
    50% {
      transform: rotate(-7deg) translate(-20px, 30px);
    }
    100% {
      transform: rotate(0) translate(0);
    }
  }


  .red {
    animation: 2s linear infinite toBlue;
  }
  .blue {
    animation: 2s linear .2s infinite toRed;
  }
  
   @keyframes toRed {
    0% {
      fill: url(#paint37_linear_357);
    }
    50% {
      fill: url(#paint39_linear_357);
    }
    100% {
      fill: url(#paint37_linear_357);
    }
  }
  
   @keyframes toBlue {
    0% {
      fill: url(#paint39_linear_357);
    }
    50% {
      fill: url(#paint37_linear_357);
    }
    100% {
      fill: url(#paint39_linear_357);
    }
  } 


  .bucket{
    animation: 3s ease-in-out infinite up;
  }
  @keyframes up {
    0%{
      transform: translateY(0px);
    }
    50%{
      transform: translateY(-5px);
    }
    100%{
      transform: translateY(0px);
    }
  }


  .shadow{
    animation: 3s ease-in-out infinite down;
  }
  @keyframes down {
    0%{
      transform: translate(0px);
    }
    50%{
      transform: translate(-4px, -4px);
    }
    100%{
      transform: translate(0px);
    }
  }

  

  </style>


</svg>
