<svg width="352" height="352" viewBox="0 0 352 352" fill="none"
  xmlns="http://www.w3.org/2000/svg">
<g class="cloud">
  <path class="line2" d="M189.854 327.174L189.867 328.572H188.494H172.369L89.0366 280.462L90.7499 279.467L173.377 327.174H189.854Z" fill="url(#paint0_linear_326_6110)"/>
  <path class="line2" d="M189.653 326.014C189.073 326.342 188.695 326.745 188.494 327.173C188.267 327.627 188.267 328.118 188.481 328.571C188.683 329 189.073 329.403 189.653 329.73C191.416 330.751 194.314 330.751 196.09 329.73C197.866 328.71 197.854 327.035 196.09 326.014C194.314 324.994 191.429 324.994 189.653 326.014ZM194.377 328.748C193.545 329.226 192.197 329.226 191.379 328.748C190.547 328.269 190.547 327.501 191.379 327.009C192.197 326.531 193.545 326.531 194.377 327.009C195.196 327.488 195.196 328.269 194.377 328.748Z" fill="url(#paint1_linear_326_6110)"/>
  <path class="line3" d="M186.906 308.958L213.701 324.44L211.988 325.423L185.899 310.368H169.094L103.171 272.299L104.884 271.316L170.101 308.958H186.906Z" fill="url(#paint2_linear_326_6110)"/>
  <path class="line3" d="M212.958 324.012C212.605 324.125 212.278 324.264 211.975 324.44C211.673 324.616 211.434 324.805 211.232 325.007C210.25 326.015 210.489 327.3 211.975 328.156C213.752 329.177 216.637 329.177 218.413 328.156C220.189 327.136 220.189 325.473 218.413 324.44C216.939 323.583 214.709 323.445 212.958 324.012ZM216.699 327.161C215.868 327.64 214.52 327.64 213.701 327.161C212.882 326.682 212.87 325.914 213.701 325.423C214.52 324.944 215.881 324.944 216.699 325.423C217.531 325.901 217.531 326.682 216.699 327.161Z" fill="url(#paint3_linear_326_6110)"/>
  <path class="line2" d="M147.413 246.751L234.26 296.889L232.547 297.885L145.7 247.747L147.413 246.751Z" fill="url(#paint4_linear_326_6110)"/>
  <path class="line2" d="M233.517 296.462C233.164 296.575 232.837 296.714 232.535 296.89C232.232 297.066 231.993 297.255 231.791 297.457C230.809 298.452 231.048 299.75 232.535 300.606C234.298 301.627 237.196 301.627 238.972 300.606C240.748 299.586 240.736 297.91 238.972 296.89C237.498 296.046 235.256 295.895 233.517 296.462ZM237.259 299.611C236.44 300.09 235.079 300.09 234.26 299.611C233.429 299.132 233.442 298.351 234.26 297.873C235.092 297.394 236.427 297.394 237.259 297.873C238.077 298.364 238.09 299.132 237.259 299.611Z" fill="url(#paint5_linear_326_6110)"/>
  <path class="line2" d="M204.089 214.036L258.561 245.479L256.848 246.474L202.376 215.018L204.089 214.036Z" fill="url(#paint6_linear_326_6110)"/>
  <path class="line2" d="M257.818 245.05C257.465 245.163 257.137 245.302 256.835 245.478C256.533 245.654 256.293 245.843 256.092 246.045C255.109 247.04 255.349 248.338 256.835 249.194C258.599 250.215 261.496 250.215 263.272 249.194C265.036 248.174 265.036 246.498 263.272 245.478C261.798 244.634 259.556 244.495 257.818 245.05ZM261.559 248.199C260.728 248.678 259.38 248.678 258.561 248.199C257.73 247.72 257.73 246.952 258.561 246.461C259.38 245.982 260.728 245.982 261.559 246.461C262.378 246.952 262.378 247.733 261.559 248.199Z" fill="url(#paint7_linear_326_6110)"/>
  <path class="line3" d="M218.312 205.822L316.925 262.762L316.938 276.191V276.922H314.506V276.191V263.354L216.586 206.817L218.312 205.822Z" fill="url(#paint8_linear_326_6110)"/>
  <path class="line3" d="M316.938 276.192C316.144 276.066 315.288 276.066 314.506 276.192C313.776 276.305 313.083 276.532 312.503 276.859C310.727 277.88 310.74 279.555 312.503 280.576C314.28 281.596 317.165 281.596 318.941 280.576C320.704 279.555 320.717 277.892 318.941 276.859C318.361 276.532 317.668 276.318 316.938 276.192ZM317.228 279.593C316.396 280.072 315.061 280.072 314.229 279.593C313.41 279.114 313.398 278.346 314.229 277.855C315.048 277.376 316.409 277.376 317.228 277.855C318.059 278.333 318.046 279.114 317.228 279.593Z" fill="url(#paint9_linear_326_6110)"/>
  <path class="line4" d="M195.221 293.375L235.142 316.428V334.972H232.724V334.291V317.008L194.213 294.773H170.416L117.331 264.124L119.044 263.128L171.424 293.375H195.221Z" fill="url(#paint10_linear_326_6110)"/>
  <path class="line4"  d="M235.142 334.292C234.361 334.153 233.517 334.154 232.724 334.279C231.993 334.405 231.313 334.62 230.721 334.96C228.944 335.98 228.944 337.643 230.721 338.676C232.484 339.696 235.382 339.696 237.158 338.676C238.934 337.656 238.922 335.98 237.158 334.96C236.578 334.632 235.886 334.418 235.142 334.292ZM235.445 337.693C234.613 338.172 233.265 338.172 232.446 337.693C231.615 337.215 231.615 336.446 232.446 335.955C233.265 335.476 234.613 335.476 235.445 335.955C236.264 336.434 236.264 337.215 235.445 337.693Z" fill="url(#paint11_linear_326_6110)"/>
  <path class="line1" d="M133.266 254.927L182.51 283.36L180.797 284.342L131.553 255.91L133.266 254.927Z" fill="url(#paint12_linear_326_6110)"/>
  <path class="line1" d="M181.779 282.932C181.427 283.045 181.099 283.184 180.797 283.36C180.494 283.537 180.255 283.726 180.053 283.927C179.071 284.922 179.323 286.233 180.797 287.077C182.573 288.097 185.458 288.097 187.234 287.077C189.01 286.056 189.01 284.393 187.234 283.36C185.76 282.516 183.518 282.365 181.779 282.932ZM185.508 286.081C184.689 286.56 183.341 286.56 182.51 286.081C181.691 285.603 181.691 284.822 182.51 284.343C183.341 283.864 184.689 283.864 185.508 284.343C186.352 284.834 186.352 285.603 185.508 286.081Z" fill="url(#paint13_linear_326_6110)"/>
  <path class="line3" d="M161.535 238.6L269.445 300.908V311.326V312.082H267.026V301.487L159.809 239.596L161.535 238.6Z" fill="url(#paint14_linear_326_6110)"/>
  <path class="line3" d="M269.445 311.325C268.652 311.199 267.808 311.199 267.014 311.325C266.283 311.439 265.59 311.665 265.011 311.993C263.235 313.013 263.235 314.676 265.011 315.709C266.775 316.729 269.672 316.729 271.448 315.709C273.212 314.689 273.212 313.013 271.448 311.993C270.869 311.665 270.188 311.451 269.445 311.325ZM269.735 314.726C268.903 315.205 267.556 315.205 266.737 314.726C265.905 314.248 265.905 313.479 266.737 312.988C267.556 312.509 268.903 312.509 269.735 312.988C270.566 313.467 270.566 314.248 269.735 314.726Z" fill="url(#paint15_linear_326_6110)"/>
  <path class="line1" d="M273.073 257.572L293.431 269.326L291.718 270.308L272.065 258.958L250.108 258.97L188.179 223.219L189.892 222.224L251.103 257.572H273.073Z" fill="url(#paint16_linear_326_6110)"/>
  <path class="line1" d="M292.7 268.896C292.347 269.01 292.02 269.148 291.718 269.325C291.415 269.501 291.176 269.69 290.974 269.892C289.992 270.887 290.231 272.184 291.718 273.041C293.494 274.061 296.379 274.061 298.155 273.041C299.931 272.021 299.931 270.358 298.155 269.325C296.681 268.468 294.426 268.33 292.7 268.896ZM296.442 272.046C295.623 272.525 294.275 272.525 293.443 272.046C292.625 271.567 292.625 270.786 293.443 270.307C294.275 269.829 295.623 269.829 296.442 270.307C297.273 270.786 297.273 271.567 296.442 272.046Z" fill="url(#paint17_linear_326_6110)"/>
  <path class="line4" d="M261.899 272.639V274.037H260.602H247.904L174.032 231.382L175.745 230.4L248.911 272.639H260.526H261.899Z" fill="url(#paint18_linear_326_6110)"/>
  <path class="line4" d="M261.723 271.392C261.106 271.744 260.703 272.173 260.526 272.639C260.325 273.105 260.362 273.584 260.602 274.037C260.816 274.428 261.194 274.793 261.723 275.108C263.499 276.128 266.384 276.128 268.16 275.108C269.924 274.088 269.937 272.425 268.16 271.392C266.384 270.371 263.487 270.371 261.723 271.392ZM266.434 274.113C265.603 274.591 264.268 274.591 263.436 274.113C262.617 273.634 262.605 272.866 263.436 272.374C264.255 271.896 265.616 271.896 266.434 272.374C267.266 272.866 267.266 273.634 266.434 274.113Z" fill="url(#paint19_linear_326_6110)"/>
  <path class="line4" d="M341.452 262.032C340.659 261.906 339.815 261.906 339.021 262.032C338.29 262.158 337.61 262.372 337.018 262.712C335.255 263.733 335.242 265.395 337.018 266.428C338.782 267.449 341.679 267.449 343.455 266.428C345.232 265.408 345.219 263.733 343.455 262.712C342.863 262.385 342.183 262.158 341.452 262.032ZM341.73 265.433C340.911 265.912 339.55 265.912 338.731 265.433C337.9 264.954 337.913 264.173 338.731 263.695C339.563 263.216 340.898 263.216 341.73 263.695C342.548 264.186 342.561 264.954 341.73 265.433Z" fill="url(#paint20_linear_326_6110)"/>
  <path class="line4" d="M320.604 238.009L341.44 250.039L341.452 262.032V262.775H339.009V262.032L339.021 250.631L319.596 239.407H301.128L230.632 198.705L232.346 197.722L302.136 238.009H320.604Z" fill="url(#paint21_linear_326_6110)"/>
  <path class="line1" d="M76.5903 287.643L150.323 330.21L150.311 346.851V347.557H147.879L147.892 346.864V330.789L74.877 288.638L76.5903 287.643Z" fill="url(#paint22_linear_326_6110)"/>
  <path class="line1" d="M150.311 346.851C149.517 346.725 148.673 346.725 147.879 346.851C147.149 346.964 146.456 347.191 145.876 347.518C144.1 348.539 144.1 350.202 145.876 351.235C147.653 352.255 150.537 352.255 152.314 351.235C154.077 350.214 154.09 348.551 152.314 347.518C151.747 347.191 151.054 346.977 150.311 346.851ZM150.6 350.252C149.769 350.731 148.434 350.731 147.602 350.252C146.783 349.773 146.771 349.005 147.602 348.514C148.421 348.035 149.782 348.035 150.6 348.514C151.432 348.992 151.432 349.773 150.6 350.252Z" fill="url(#paint23_linear_326_6110)"/>
  <path class="line1" d="M324.723 222.967C324.144 223.307 323.766 223.698 323.551 224.126C323.337 224.592 323.337 225.071 323.564 225.524C323.766 225.94 324.144 226.343 324.723 226.683C326.499 227.704 329.384 227.704 331.16 226.683C332.937 225.663 332.937 224 331.16 222.967C329.397 221.947 326.499 221.934 324.723 222.967ZM329.447 225.688C328.616 226.167 327.28 226.167 326.449 225.688C325.63 225.209 325.617 224.441 326.449 223.95C327.268 223.471 328.628 223.471 329.447 223.95C330.278 224.441 330.266 225.209 329.447 225.688Z" fill="url(#paint24_linear_326_6110)"/>
  <path class="line1" d="M324.584 224.126V225.524H305.386L244.792 190.541L246.505 189.546L306.406 224.126H323.564H324.584Z" fill="url(#paint25_linear_326_6110)"/>
  <path class="line2" d="M90.7499 147.357V279.467L89.0367 280.462V148.352L90.7499 147.357Z" fill="url(#paint26_linear_326_6110)"/>
  <path class="line3" d="M104.884 139.207V271.316L103.171 272.299V140.189L104.884 139.207Z" fill="url(#paint27_linear_326_6110)"/>
  <path class="line2" d="M147.413 114.642V246.752L145.7 247.747V115.637L147.413 114.642Z" fill="url(#paint28_linear_326_6110)"/>
  <path class="line2" d="M204.089 81.9259V214.036L202.376 215.018V82.9211L204.089 81.9259Z" fill="url(#paint29_linear_326_6110)"/>
  <path class="line3" d="M218.312 73.7119V205.822L216.586 206.817V74.7071L218.312 73.7119Z" fill="url(#paint30_linear_326_6110)"/>
  <path class="line4" d="M119.044 131.031V263.128L117.331 264.123V132.013L119.044 131.031Z" fill="url(#paint31_linear_326_6110)"/>
  <path class="line1" d="M133.266 122.818V254.927L131.553 255.91V123.813L133.266 122.818Z" fill="url(#paint32_linear_326_6110)"/>
  <path class="line3" d="M161.535 106.504V238.601L159.809 239.596V107.487L161.535 106.504Z" fill="url(#paint33_linear_326_6110)"/>
  <path class="line1" d="M189.892 90.114V222.224L188.179 223.219V91.1092L189.892 90.114Z" fill="url(#paint34_linear_326_6110)"/>
  <path class="line4" d="M175.745 98.2899V230.4L174.032 231.382V99.2851L175.745 98.2899Z" fill="url(#paint35_linear_326_6110)"/>
  <path class="line4" d="M232.346 65.6124V197.722L230.632 198.705V66.6076L232.346 65.6124Z" fill="url(#paint36_linear_326_6110)"/>
  <path class="line1" d="M76.5904 155.533V287.643L74.8771 288.638V156.529L76.5904 155.533Z" fill="url(#paint37_linear_326_6110)"/>
  <path class="line1" d="M246.505 57.4364V189.546L244.792 190.541V58.4316L246.505 57.4364Z" fill="url(#paint38_linear_326_6110)"/>
  <path d="M251.179 61.5934C248.836 62.9413 246.556 64.5034 244.313 66.2419C244.54 63.9743 244.679 61.7194 244.679 59.5148C244.679 30.5028 224.309 18.7493 199.189 33.249C179.65 44.5238 163.009 68.3582 156.559 92.0415C150.273 90.429 142.551 91.7896 134.211 96.6144C116.398 106.894 101.433 129.595 97.1621 151.086C95.1213 151.905 93.0175 152.913 90.8885 154.147C68.5532 167.034 50.4506 198.402 50.4506 224.177C50.4506 249.964 68.5532 260.419 90.8885 247.52L251.179 154.979C273.514 142.091 291.617 110.736 291.617 84.9491C291.617 59.1495 273.514 48.6936 251.179 61.5934Z" fill="url(#paint39_linear_326_6110)"/>
  <g clip-path="url(#clip0_326_6110)">
    <path d="M137 149.77C137 159.71 140.43 166.74 146 170.15C146.17 170.25 155.52 176.06 155.69 176.15C161.49 179.39 157.78 172.03 166.59 166.95C184.32 156.72 198.7 131.93 198.7 111.59C198.7 101.53 208 101.45 202.3 98.09C202.14 98 191.67 92.02 191.51 91.93C185.72 88.8 177.82 89.38 169.1 94.41C151.37 104.64 137 129.43 137 149.77Z" fill="url(#paint40_linear_326_6110)"/>
    <path d="M146 155.422C146 175.644 160.773 183.796 179 173.616C197.227 163.445 212 138.8 212 118.578C212 98.3566 197.227 90.2044 179 100.385C160.773 110.555 146 135.201 146 155.422Z" fill="url(#paint41_linear_326_6110)"/>
    <g clip-path="url(#clip1_326_6110)">
      <path class="btn" d="M172.99 164.4L156 153.36L163.88 140.39L173.06 146.36L194.05 109L201.85 113.01L172.99 164.4Z" fill="white"/>
    </g>
  </g>
  <path d="M231.841 30.339C229.536 28.9281 226.978 27.9455 224.194 27.4542C217.858 26.2826 210.387 27.5423 202.35 31.5483C201.317 32.0648 200.246 32.6317 199.188 33.249C179.662 44.5237 163.008 68.3582 156.571 92.0415C150.285 90.4416 142.563 91.7895 134.21 96.6144C116.398 106.894 101.432 129.582 97.1612 151.073C95.1078 151.892 93.0166 152.9 90.8876 154.134C70.4671 165.926 53.5991 193.136 50.8402 217.424V217.437C50.5883 219.717 50.4497 221.947 50.4497 224.164C50.4497 235.791 54.1408 244.307 60.2253 248.956L20.1275 221.657C20.1149 221.657 20.1024 221.657 20.0898 221.632L17.4569 219.83C17.4317 219.818 17.4065 219.793 17.3813 219.767L15.2901 217.79C15.2271 217.714 15.1641 217.651 15.1011 217.588C10.7046 212.662 8.13474 205.117 8.13474 195.404C8.13474 169.617 26.2373 138.262 48.5727 125.374C50.7016 124.14 52.8054 123.119 54.8462 122.313C59.1168 100.809 74.0826 78.1339 91.8954 67.8543C100.235 63.0295 107.957 61.6815 114.243 63.2814C120.693 39.5981 137.07 15.2724 156.873 4.48894C177.306 -6.63464 195.044 6.37857 195.283 6.6935L227.155 27.3156C227.167 27.3156 227.167 27.3156 227.167 27.3156L231.841 30.339Z" fill="#6548F7"/>
  <path d="M156.572 92.0289C150.286 90.429 142.563 91.7895 134.199 96.6144C116.398 106.894 101.42 129.582 97.1621 151.086L54.8471 122.326C59.1177 100.822 74.0835 78.1339 91.8963 67.8543C100.236 63.0295 107.958 61.6815 114.257 63.2688L156.572 92.0289Z" fill="url(#paint42_linear_326_6110)"/>
  <path d="M97.1621 151.086C95.1087 151.892 93.0175 152.913 90.876 154.147C70.4554 165.939 53.5874 193.149 50.8285 217.437V217.45C50.5892 219.717 50.438 221.96 50.438 224.177C50.438 235.804 54.1291 244.333 60.2137 248.969L20.1159 221.67C20.1033 221.67 20.0907 221.67 20.0781 221.632L17.4452 219.843C17.42 219.831 17.3948 219.793 17.357 219.768L15.2784 217.802C15.2155 217.727 15.1399 217.664 15.0895 217.601C10.693 212.675 8.12308 205.129 8.12308 195.417C8.12308 169.642 26.2257 138.274 48.5484 125.387C50.6774 124.153 52.7812 123.132 54.8219 122.326L97.1621 151.086Z" fill="url(#paint43_linear_326_6110)"/>
  <path d="M279.334 58.5071C272.053 54.5641 262.126 55.2822 251.166 61.5935C250.398 62.0344 249.642 62.488 248.886 62.9919C247.337 63.9745 245.812 65.0704 244.313 66.2294C244.54 63.9493 244.679 61.7195 244.679 59.5023C244.679 41.1604 236.541 29.7093 224.195 27.4543C228.856 26.963 233.102 27.7189 236.704 29.5833L236.78 29.6463L240.471 32.1532L279.334 58.5071Z" fill="url(#paint44_linear_326_6110)"/>
  <path d="M231.842 30.3516C229.536 28.9407 226.967 27.9581 224.195 27.4668C217.846 26.2952 210.388 27.5549 202.351 31.5483C201.306 32.0648 200.247 32.6317 199.189 33.249C179.663 44.5237 163.009 68.3456 156.572 92.0289L114.257 63.2688C120.707 39.5855 137.071 15.2724 156.887 4.48894C177.32 -6.63464 195.057 6.37857 195.284 6.6935L227.156 27.303C227.168 27.303 227.168 27.303 227.168 27.303L231.842 30.3516Z" fill="url(#paint45_linear_326_6110)"/>
 
</g>
  <defs>
    <linearGradient id="paint0_linear_326_6110" x1="108.694" y1="319.913" x2="137.057" y2="271.447" gradientUnits="userSpaceOnUse">
      <stop stop-color="#351053"/>
      <stop offset="1" stop-color="#814DB2"/>
    </linearGradient>
    <linearGradient id="paint1_linear_326_6110" x1="190.095" y1="329.571" x2="193.35" y2="324.875" gradientUnits="userSpaceOnUse">
      <stop stop-color="#351053"/>
      <stop offset="1" stop-color="#814DB2"/>
    </linearGradient>
    <linearGradient id="paint2_linear_326_6110" x1="124.719" y1="315.882" x2="156.049" y2="262.62" gradientUnits="userSpaceOnUse">
      <stop stop-color="#351053"/>
      <stop offset="1" stop-color="#814DB2"/>
    </linearGradient>
    <linearGradient id="paint3_linear_326_6110" x1="212.416" y1="327.996" x2="215.673" y2="323.296" gradientUnits="userSpaceOnUse">
      <stop stop-color="#351053"/>
      <stop offset="1" stop-color="#814DB2"/>
    </linearGradient>
    <linearGradient id="paint4_linear_326_6110" x1="162.965" y1="288.868" x2="194.697" y2="243.133" gradientUnits="userSpaceOnUse">
      <stop stop-color="#351053"/>
      <stop offset="1" stop-color="#814DB2"/>
    </linearGradient>
    <linearGradient id="paint5_linear_326_6110" x1="232.974" y1="300.446" x2="236.229" y2="295.749" gradientUnits="userSpaceOnUse">
      <stop stop-color="#351053"/>
      <stop offset="1" stop-color="#814DB2"/>
    </linearGradient>
    <linearGradient id="paint6_linear_326_6110" x1="219.496" y1="212.254" x2="219.972" y2="246.369" gradientUnits="userSpaceOnUse">
      <stop stop-color="#C3A9D9"/>
      <stop offset="1" stop-color="#8C57BC"/>
    </linearGradient>
    <linearGradient id="paint7_linear_326_6110" x1="258.272" y1="244.43" x2="258.349" y2="249.943" gradientUnits="userSpaceOnUse">
      <stop stop-color="#C3A9D9"/>
      <stop offset="1" stop-color="#8C57BC"/>
    </linearGradient>
    <linearGradient id="paint8_linear_326_6110" x1="236.15" y1="264.385" x2="282.651" y2="209.767" gradientUnits="userSpaceOnUse">
      <stop stop-color="#351053"/>
      <stop offset="1" stop-color="#814DB2"/>
    </linearGradient>
    <linearGradient id="paint9_linear_326_6110" x1="312.949" y1="280.416" x2="316.201" y2="275.723" gradientUnits="userSpaceOnUse">
      <stop stop-color="#351053"/>
      <stop offset="1" stop-color="#814DB2"/>
    </linearGradient>
    <linearGradient id="paint10_linear_326_6110" x1="153.229" y1="259.182" x2="154.343" y2="334.737" gradientUnits="userSpaceOnUse">
      <stop stop-color="#C3A9D9"/>
      <stop offset="1" stop-color="#8C57BC"/>
    </linearGradient>
    <linearGradient id="paint11_linear_326_6110" x1="232.16" y1="333.898" x2="232.238" y2="339.424" gradientUnits="userSpaceOnUse">
      <stop stop-color="#C3A9D9"/>
      <stop offset="1" stop-color="#8C57BC"/>
    </linearGradient>
    <linearGradient id="paint12_linear_326_6110" x1="141.487" y1="279.156" x2="159.74" y2="252.842" gradientUnits="userSpaceOnUse">
      <stop stop-color="#351053"/>
      <stop offset="1" stop-color="#814DB2"/>
    </linearGradient>
    <linearGradient id="paint13_linear_326_6110" x1="181.24" y1="286.917" x2="184.495" y2="282.219" gradientUnits="userSpaceOnUse">
      <stop stop-color="#351053"/>
      <stop offset="1" stop-color="#814DB2"/>
    </linearGradient>
    <linearGradient id="paint14_linear_326_6110" x1="181.183" y1="299.125" x2="228.746" y2="240.068" gradientUnits="userSpaceOnUse">
      <stop stop-color="#351053"/>
      <stop offset="1" stop-color="#814DB2"/>
    </linearGradient>
    <linearGradient id="paint15_linear_326_6110" x1="265.451" y1="315.55" x2="268.704" y2="310.856" gradientUnits="userSpaceOnUse">
      <stop stop-color="#351053"/>
      <stop offset="1" stop-color="#814DB2"/>
    </linearGradient>
    <linearGradient id="paint16_linear_326_6110" x1="208.698" y1="261.83" x2="235.575" y2="212.872" gradientUnits="userSpaceOnUse">
      <stop stop-color="#351053"/>
      <stop offset="1" stop-color="#814DB2"/>
    </linearGradient>
    <linearGradient id="paint17_linear_326_6110" x1="292.158" y1="272.881" x2="295.415" y2="268.181" gradientUnits="userSpaceOnUse">
      <stop stop-color="#351053"/>
      <stop offset="1" stop-color="#814DB2"/>
    </linearGradient>
    <linearGradient id="paint18_linear_326_6110" x1="191.162" y1="266.343" x2="216.606" y2="223.707" gradientUnits="userSpaceOnUse">
      <stop stop-color="#351053"/>
      <stop offset="1" stop-color="#814DB2"/>
    </linearGradient>
    <linearGradient id="paint19_linear_326_6110" x1="262.168" y1="274.948" x2="265.424" y2="270.254" gradientUnits="userSpaceOnUse">
      <stop stop-color="#351053"/>
      <stop offset="1" stop-color="#814DB2"/>
    </linearGradient>
    <linearGradient id="paint20_linear_326_6110" x1="337.463" y1="266.267" x2="340.727" y2="261.569" gradientUnits="userSpaceOnUse">
      <stop stop-color="#351053"/>
      <stop offset="1" stop-color="#814DB2"/>
    </linearGradient>
    <linearGradient id="paint21_linear_326_6110" x1="252.237" y1="251.305" x2="292.837" y2="193.748" gradientUnits="userSpaceOnUse">
      <stop stop-color="#351053"/>
      <stop offset="1" stop-color="#814DB2"/>
    </linearGradient>
    <linearGradient id="paint22_linear_326_6110" x1="89.5856" y1="336.992" x2="129.235" y2="295.442" gradientUnits="userSpaceOnUse">
      <stop stop-color="#351053"/>
      <stop offset="1" stop-color="#814DB2"/>
    </linearGradient>
    <linearGradient id="paint23_linear_326_6110" x1="146.318" y1="351.075" x2="149.57" y2="346.38" gradientUnits="userSpaceOnUse">
      <stop stop-color="#351053"/>
      <stop offset="1" stop-color="#814DB2"/>
    </linearGradient>
    <linearGradient id="paint24_linear_326_6110" x1="325.166" y1="226.523" x2="328.425" y2="221.824" gradientUnits="userSpaceOnUse">
      <stop stop-color="#351053"/>
      <stop offset="1" stop-color="#814DB2"/>
    </linearGradient>
    <linearGradient id="paint25_linear_326_6110" x1="260.348" y1="219.18" x2="280.315" y2="182.328" gradientUnits="userSpaceOnUse">
      <stop stop-color="#351053"/>
      <stop offset="1" stop-color="#814DB2"/>
    </linearGradient>
    <linearGradient id="paint26_linear_326_6110" x1="89.3707" y1="256.992" x2="91.2596" y2="256.972" gradientUnits="userSpaceOnUse">
      <stop stop-color="#351053"/>
      <stop offset="1" stop-color="#814DB2"/>
    </linearGradient>
    <linearGradient id="paint27_linear_326_6110" x1="103.505" y1="248.831" x2="105.394" y2="248.811" gradientUnits="userSpaceOnUse">
      <stop stop-color="#351053"/>
      <stop offset="1" stop-color="#814DB2"/>
    </linearGradient>
    <linearGradient id="paint28_linear_326_6110" x1="146.034" y1="224.277" x2="147.923" y2="224.256" gradientUnits="userSpaceOnUse">
      <stop stop-color="#351053"/>
      <stop offset="1" stop-color="#814DB2"/>
    </linearGradient>
    <linearGradient id="paint29_linear_326_6110" x1="202.898" y1="74.6154" x2="260.965" y2="105.523" gradientUnits="userSpaceOnUse">
      <stop stop-color="#C3A9D9"/>
      <stop offset="1" stop-color="#8C57BC"/>
    </linearGradient>
    <linearGradient id="paint30_linear_326_6110" x1="216.923" y1="183.347" x2="218.825" y2="183.326" gradientUnits="userSpaceOnUse">
      <stop stop-color="#351053"/>
      <stop offset="1" stop-color="#814DB2"/>
    </linearGradient>
    <linearGradient id="paint31_linear_326_6110" x1="117.853" y1="123.72" x2="175.92" y2="154.628" gradientUnits="userSpaceOnUse">
      <stop stop-color="#C3A9D9"/>
      <stop offset="1" stop-color="#8C57BC"/>
    </linearGradient>
    <linearGradient id="paint32_linear_326_6110" x1="131.887" y1="232.442" x2="133.776" y2="232.422" gradientUnits="userSpaceOnUse">
      <stop stop-color="#351053"/>
      <stop offset="1" stop-color="#814DB2"/>
    </linearGradient>
    <linearGradient id="paint33_linear_326_6110" x1="160.146" y1="216.129" x2="162.049" y2="216.108" gradientUnits="userSpaceOnUse">
      <stop stop-color="#351053"/>
      <stop offset="1" stop-color="#814DB2"/>
    </linearGradient>
    <linearGradient id="paint34_linear_326_6110" x1="188.513" y1="199.749" x2="190.402" y2="199.729" gradientUnits="userSpaceOnUse">
      <stop stop-color="#351053"/>
      <stop offset="1" stop-color="#814DB2"/>
    </linearGradient>
    <linearGradient id="paint35_linear_326_6110" x1="174.366" y1="207.915" x2="176.255" y2="207.894" gradientUnits="userSpaceOnUse">
      <stop stop-color="#351053"/>
      <stop offset="1" stop-color="#814DB2"/>
    </linearGradient>
    <linearGradient id="paint36_linear_326_6110" x1="230.966" y1="175.237" x2="232.855" y2="175.217" gradientUnits="userSpaceOnUse">
      <stop stop-color="#351053"/>
      <stop offset="1" stop-color="#814DB2"/>
    </linearGradient>
    <linearGradient id="paint37_linear_326_6110" x1="75.2111" y1="265.168" x2="77.1" y2="265.148" gradientUnits="userSpaceOnUse">
      <stop stop-color="#351053"/>
      <stop offset="1" stop-color="#814DB2"/>
    </linearGradient>
    <linearGradient id="paint38_linear_326_6110" x1="245.126" y1="167.071" x2="247.015" y2="167.051" gradientUnits="userSpaceOnUse">
      <stop stop-color="#351053"/>
      <stop offset="1" stop-color="#814DB2"/>
    </linearGradient>
    <linearGradient id="paint39_linear_326_6110" x1="123.936" y1="14.6244" x2="129.321" y2="252.236" gradientUnits="userSpaceOnUse">
      <stop stop-color="#C3A9D9"/>
      <stop offset="1" stop-color="#8C57BC"/>
    </linearGradient>
    <linearGradient id="paint40_linear_326_6110" x1="191.628" y1="91.1667" x2="135.918" y2="183.742" gradientUnits="userSpaceOnUse">
      <stop stop-color="#3B155A"/>
      <stop offset="0.0767" stop-color="#4D2371"/>
      <stop offset="0.150193" stop-color="#814DB2"/>
      <stop offset="0.376952" stop-color="#BD9FD6"/>
      <stop offset="0.7525" stop-color="#7442A1"/>
      <stop offset="0.8939" stop-color="#5F3287"/>
      <stop offset="1" stop-color="#3A1459"/>
    </linearGradient>
    <linearGradient id="paint41_linear_326_6110" x1="270.411" y1="156.817" x2="84.1525" y2="113.642" gradientUnits="userSpaceOnUse">
      <stop offset="0.0354" stop-color="#471F6A"/>
      <stop offset="0.26316" stop-color="#BEA1D6"/>
      <stop offset="0.707514" stop-color="#7241A0"/>
      <stop offset="1" stop-color="#431B64"/>
    </linearGradient>
    <linearGradient id="paint42_linear_326_6110" x1="74.6788" y1="135.49" x2="133.221" y2="79.4597" gradientUnits="userSpaceOnUse">
      <stop stop-color="#351053"/>
      <stop offset="1" stop-color="#814DB2"/>
    </linearGradient>
    <linearGradient id="paint43_linear_326_6110" x1="25.4816" y1="226.638" x2="98.6227" y2="183.844" gradientUnits="userSpaceOnUse">
      <stop stop-color="#351053"/>
      <stop offset="1" stop-color="#814DB2"/>
    </linearGradient>
    <linearGradient id="paint44_linear_326_6110" x1="234.945" y1="59.3665" x2="260.385" y2="29.374" gradientUnits="userSpaceOnUse">
      <stop stop-color="#351053"/>
      <stop offset="1" stop-color="#814DB2"/>
    </linearGradient>
    <linearGradient id="paint45_linear_326_6110" x1="137.181" y1="75.8017" x2="198.035" y2="11.0954" gradientUnits="userSpaceOnUse">
      <stop stop-color="#351053"/>
      <stop offset="1" stop-color="#814DB2"/>
    </linearGradient>
    <clipPath id="clip0_326_6110">
      <rect width="75.43" height="88.74" fill="white" transform="translate(137 90)"/>
    </clipPath>
    <clipPath id="clip1_326_6110">
      <rect width="45.85" height="55.4" fill="white" transform="translate(156 109)"/>
    </clipPath>

  </defs>



  <style>
  <!-- .cloud{
    animation: 3s ease-in-out  infinite up;
  }
  @keyframes up {
    0% {
      transform: translateY(0px);
    }
    50% {
     transform: translateY(3px);
    }
    100% {
    transform: translateY(0px);
    }
  } -->


  .btn{
    animation: 2s ease-in-out  infinite blink;
  }
  
  @keyframes blink {
    0% {
      opacity: 1;
    }
    50% {
     opacity: .1;
    }
    100% {
      opacity: 1;
    }
  }

  .line1{
    animation: 3s ease-in-out  infinite lineBlink;
  }
  .line2{
    animation: 3s ease-in-out .5s infinite lineBlink;
  }
  .line3{
    animation: 3s ease-in-out 1s infinite lineBlink;
  }
  .line4{
    animation: 3s ease-in-out 1.5s infinite lineBlink;
  }
  
  @keyframes lineBlink {
    0% {
      opacity: 1;
    }
    50% {
     opacity: .1;
    }
    100% {
      opacity: 1;
    }
  }

  </style>
</svg>
