<svg width="130" height="130" viewBox="0 0 130 130" fill="none" xmlns="http://www.w3.org/2000/svg">
<path opacity="0.5" d="M70.503 75.5659L97.8071 91.3308L125.111 75.5659L97.8071 59.8052L70.503 75.5659Z" fill="url(#paint0_linear_326_5865)"/>
<path opacity="0.8" d="M68.1113 52.5771L10.1127 85.9956L68.1113 119.423L126.11 85.9956L68.1113 52.5771Z" stroke="url(#paint1_linear_326_5865)"/>
<path opacity="0.5" d="M70.503 72.1125L97.8071 87.8732L125.111 72.1125L97.8071 56.3477L70.503 72.1125Z" fill="url(#paint2_linear_326_5865)"/>
<path d="M70.503 15.7649L97.8071 31.5297L125.111 15.7649L97.8071 0L70.503 15.7649Z" fill="#DCDCFF"/>
<path opacity="0.5" d="M97.807 27.1262L117.49 15.7654L97.807 4.40039L78.1237 15.7654L97.807 27.1262Z" fill="url(#paint3_linear_326_5865)"/>
<path d="M96.5743 7.13532L112.754 16.4747L113.775 15.8853L97.5954 6.5459L96.5743 7.13532Z" fill="#CBCBF7"/>
<path d="M92.8925 9.26044L109.072 18.5998L110.089 18.0145L93.9094 8.67102L92.8925 9.26044Z" fill="#CBCBF7"/>
<path d="M89.2067 11.3859L105.387 20.7295L106.408 20.14L90.2278 10.8007L89.2067 11.3859Z" fill="#CBCBF7"/>
<path d="M85.5248 13.5152L101.705 22.8546L102.722 22.2693L86.5417 12.9258L85.5248 13.5152Z" fill="#CBCBF7"/>
<path d="M81.839 15.6402L98.0189 24.9837L99.04 24.3943L82.8601 15.0549L81.839 15.6402Z" fill="#CBCBF7"/>
<path d="M97.7905 84.3369L125.095 68.5762V15.7651L97.7905 31.53V84.3369Z" fill="#CBCBF7"/>
<path d="M97.7905 80.4306L125.095 64.6657V19.6707L97.7905 35.4355V80.4306Z" fill="#23076A"/>
<path d="M124.032 64.0514V21.5137L98.8533 36.0499V78.5876L124.032 64.0514Z" fill="#37228B"/>
<path d="M124.032 64.0514V21.5137L98.8533 36.0499V78.5876L124.032 64.0514Z" fill="url(#paint4_linear_326_5865)"/>
<path opacity="0.5" d="M98.8533 41.4543L124.032 64.0514V21.5137L98.8533 36.0499V41.4543Z" fill="url(#paint5_linear_326_5865)"/>
<path d="M70.4863 68.5762L97.7905 84.3369V31.53L70.4863 15.7651V68.5762Z" fill="#E7E7FF"/>
<path opacity="0.5" d="M93.98 41.2013V33.2358L74.2967 21.875V29.8404L93.98 41.2013Z" fill="url(#paint6_linear_326_5865)"/>
<path opacity="0.5" d="M93.98 53.5458V45.5803L74.2967 34.2153V42.1808L93.98 53.5458Z" fill="url(#paint7_linear_326_5865)"/>
<path opacity="0.5" d="M93.98 65.8866V57.9211L74.2967 46.5562V54.5258L93.98 65.8866Z" fill="url(#paint8_linear_326_5865)"/>
<path opacity="0.5" d="M93.98 78.2308V70.2612L74.2967 58.9004V66.8658L93.98 78.2308Z" fill="url(#paint9_linear_326_5865)"/>
<path opacity="0.5" d="M1.0595 101.492L42.875 126.924C42.9705 126.982 43.1323 126.978 43.2403 126.92L75.8035 108.818C75.9156 108.756 75.9281 108.656 75.8284 108.598L32.2738 83.4525C32.1824 83.3986 32.0206 83.4069 31.9168 83.4691L1.0844 101.28C0.980629 101.347 0.972328 101.438 1.0595 101.492Z" fill="url(#paint10_linear_326_5865)"/>
<path opacity="0.5" d="M1.0595 104.526L42.875 129.958C42.9705 130.016 43.1323 130.012 43.2403 129.954L75.8035 111.852C75.9156 111.79 75.9281 111.69 75.8284 111.632L32.2738 86.4866C32.1824 86.4326 32.0206 86.4409 31.9168 86.5032L1.0844 104.314C0.980629 104.381 0.972328 104.472 1.0595 104.526Z" fill="url(#paint11_linear_326_5865)"/>
<path d="M1.0595 98.462L42.875 123.894C42.9705 123.952 43.1323 123.948 43.2403 123.89L75.8035 105.788C75.9156 105.726 75.9281 105.626 75.8284 105.568L32.2738 80.4225C32.1824 80.3685 32.0206 80.3768 31.9168 80.4391L1.0844 98.2503C0.980629 98.3167 0.972328 98.4081 1.0595 98.462Z" fill="#E7E7FF"/>
<path d="M63.6913 106.037L65.8871 107.32C65.9452 107.353 66.049 107.353 66.1154 107.316L68.2489 106.125C68.3153 106.087 68.3236 106.029 68.2614 105.996L66.0573 104.713C65.9992 104.68 65.8954 104.68 65.829 104.717L63.7038 105.909C63.6415 105.946 63.6332 106.004 63.6913 106.037Z" fill="#B0B0E2"/>
<path d="M60.6901 104.286L62.8734 105.56C62.9315 105.594 63.0353 105.594 63.1017 105.556L65.2269 104.365C65.2934 104.328 65.3017 104.269 65.2394 104.236L63.0478 102.962C62.9896 102.929 62.8859 102.929 62.8195 102.966L60.7025 104.157C60.6361 104.191 60.632 104.249 60.6901 104.286Z" fill="#B0B0E2"/>
<path d="M57.6974 102.538L59.8973 103.821C59.9555 103.854 60.0551 103.854 60.1215 103.817L62.2343 102.625C62.3007 102.588 62.309 102.53 62.2467 102.497L60.0385 101.214C59.9804 101.181 59.8807 101.185 59.8143 101.222L57.7099 102.414C57.6476 102.447 57.6393 102.505 57.6974 102.538Z" fill="#B0B0E2"/>
<path d="M54.7506 100.82L56.9132 102.082C56.9713 102.115 57.0709 102.111 57.1373 102.073L59.2418 100.882C59.3082 100.845 59.3124 100.787 59.2542 100.753L57.0834 99.4916C57.0252 99.4584 56.9256 99.4626 56.8592 99.4999L54.763 100.691C54.7008 100.729 54.6925 100.787 54.7506 100.82Z" fill="#B0B0E2"/>
<path d="M51.7909 99.0932L53.9701 100.363C54.0282 100.397 54.1278 100.392 54.1942 100.355L56.2862 99.1638C56.3526 99.1264 56.3568 99.0683 56.2987 99.0351L54.1112 97.7649C54.0531 97.7317 53.9535 97.7359 53.887 97.7733L51.8033 98.9645C51.7369 99.0019 51.7328 99.06 51.7909 99.0932Z" fill="#B0B0E2"/>
<path d="M48.8688 97.3913L51.0106 98.6407C51.0687 98.6739 51.1683 98.6698 51.2347 98.6324L53.3184 97.4411C53.3849 97.4038 53.389 97.3457 53.3309 97.3124L51.1808 96.063C51.1227 96.0298 51.023 96.034 50.9566 96.0713L48.8812 97.2626C48.819 97.3 48.8148 97.354 48.8688 97.3913Z" fill="#B0B0E2"/>
<path d="M45.9383 95.6768L48.0719 96.9221C48.13 96.9553 48.2296 96.9511 48.2919 96.9138L50.3673 95.7225C50.4337 95.6851 50.4378 95.627 50.3797 95.5938L48.2379 94.3486C48.1798 94.3154 48.0802 94.3195 48.0179 94.3569L45.9508 95.5482C45.8885 95.5897 45.8802 95.6436 45.9383 95.6768Z" fill="#B0B0E2"/>
<path d="M43.0201 93.9749L45.1703 95.2285C45.2284 95.2617 45.3238 95.2575 45.3903 95.2202L47.4532 94.0289C47.5196 93.9915 47.5238 93.9334 47.4657 93.9002L45.3072 92.6467C45.2491 92.6135 45.1537 92.6176 45.0872 92.655L43.0326 93.8463C42.9703 93.8836 42.962 93.9417 43.0201 93.9749Z" fill="#B0B0E2"/>
<path d="M40.1434 92.2983L42.2562 93.5311C42.3143 93.5643 42.4098 93.5601 42.4762 93.5228L44.5309 92.3315C44.5973 92.2941 44.6014 92.236 44.5433 92.2028L42.4222 90.97C42.3641 90.9368 42.2686 90.941 42.2022 90.9783L40.1559 92.1696C40.0936 92.207 40.0853 92.2651 40.1434 92.2983Z" fill="#B0B0E2"/>
<path d="M37.2503 90.6091L39.3797 91.8502C39.4378 91.8834 39.5333 91.8792 39.5955 91.8419L41.6378 90.6506C41.7 90.6132 41.7083 90.5551 41.6502 90.5219L39.5125 89.2808C39.4544 89.2476 39.3589 89.2518 39.2967 89.2891L37.2586 90.4804C37.2005 90.5219 37.1964 90.58 37.2503 90.6091Z" fill="#B0B0E2"/>
<path d="M34.4029 88.9486L36.4949 90.1689C36.553 90.2021 36.6485 90.198 36.7108 90.1606L38.7447 88.9693C38.8069 88.932 38.8153 88.8738 38.7571 88.8406L36.6568 87.6203C36.5987 87.5871 36.5032 87.5912 36.441 87.6286L34.4154 88.8199C34.3531 88.8572 34.3448 88.9154 34.4029 88.9486Z" fill="#B0B0E2"/>
<path d="M31.5391 87.276L33.6229 88.4921C33.6768 88.5254 33.7764 88.5212 33.8387 88.4838L35.8643 87.2926C35.9266 87.2552 35.9349 87.1971 35.8768 87.1639L33.7889 85.9477C33.7349 85.9145 33.6353 85.9186 33.5731 85.956L31.5557 87.1473C31.4893 87.1888 31.481 87.2469 31.5391 87.276Z" fill="#B0B0E2"/>
<path d="M28.7162 85.632L30.7874 86.8399C30.8414 86.8731 30.941 86.869 31.0033 86.8316L33.0206 85.6403C33.0828 85.603 33.0911 85.5449 33.033 85.5158L30.9535 84.3079C30.8995 84.2747 30.7999 84.2789 30.7376 84.3162L28.7286 85.5075C28.6663 85.5407 28.658 85.5988 28.7162 85.632Z" fill="#B0B0E2"/>
<path d="M56.5185 105.22L58.7142 106.506C58.7724 106.54 58.872 106.54 58.9384 106.502L61.0761 105.298C61.1425 105.261 61.1508 105.203 61.0885 105.17L58.8844 103.883C58.8263 103.85 58.7267 103.85 58.6603 103.887L56.5309 105.091C56.4686 105.128 56.4603 105.186 56.5185 105.22Z" fill="#B0B0E2"/>
<path d="M53.5758 103.497L55.7342 104.763C55.7923 104.796 55.8919 104.796 55.9584 104.759L58.0836 103.555C58.15 103.518 58.1542 103.46 58.096 103.427L55.9293 102.161C55.8712 102.127 55.7716 102.132 55.7052 102.169L53.5882 103.373C53.526 103.406 53.5177 103.46 53.5758 103.497Z" fill="#B0B0E2"/>
<path d="M50.6202 101.762L52.7953 103.036C52.8534 103.069 52.953 103.065 53.0194 103.032L55.1363 101.828C55.2027 101.791 55.2069 101.733 55.1488 101.7L52.9654 100.425C52.9073 100.392 52.8077 100.396 52.7413 100.434L50.6327 101.637C50.5704 101.671 50.5621 101.729 50.6202 101.762Z" fill="#B0B0E2"/>
<path d="M47.7064 100.056L49.8441 101.31C49.9022 101.343 50.0018 101.339 50.0641 101.301L52.1685 100.098C52.235 100.06 52.2391 100.002 52.181 99.9689L50.035 98.7154C49.9769 98.6822 49.8773 98.6863 49.815 98.7237L47.7189 99.9274C47.6566 99.9648 47.6483 100.023 47.7064 100.056Z" fill="#B0B0E2"/>
<path d="M44.7801 98.3376L46.9095 99.587C46.9676 99.6202 47.0672 99.6161 47.1295 99.5787L49.2257 98.375C49.2921 98.3376 49.2962 98.2795 49.2381 98.2463L47.1005 96.9969C47.0423 96.9637 46.9427 96.9678 46.8805 97.0052L44.7926 98.2089C44.7303 98.2504 44.722 98.3044 44.7801 98.3376Z" fill="#B0B0E2"/>
<path d="M41.8661 96.6317L44.0121 97.8894C44.0702 97.9226 44.1656 97.9184 44.232 97.8811L46.3199 96.6773C46.3863 96.64 46.3905 96.5819 46.3324 96.5487L44.1781 95.291C44.12 95.2577 44.0245 95.2619 43.9581 95.2992L41.8785 96.503C41.8163 96.5404 41.8121 96.5985 41.8661 96.6317Z" fill="#B0B0E2"/>
<path d="M38.994 94.9464L41.1026 96.1833C41.1607 96.2165 41.2562 96.2124 41.3226 96.175L43.398 94.9713C43.4645 94.9339 43.4686 94.8758 43.4105 94.8426L41.2936 93.6056C41.2355 93.5724 41.14 93.5766 41.0736 93.6139L39.0065 94.8177C38.9442 94.8592 38.94 94.9132 38.994 94.9464Z" fill="#B0B0E2"/>
<path d="M36.109 93.2572L38.2342 94.5024C38.2923 94.5356 38.3878 94.5315 38.45 94.4941L40.5171 93.2904C40.5794 93.253 40.5877 93.1949 40.5296 93.1617L38.3961 91.9164C38.338 91.8832 38.2425 91.8874 38.1802 91.9247L36.1214 93.1285C36.0592 93.1658 36.055 93.2239 36.109 93.2572Z" fill="#B0B0E2"/>
<path d="M31.5844 90.6048L35.3533 92.8131C35.4073 92.8463 35.5069 92.8421 35.5692 92.8048L37.628 91.601C37.6902 91.5637 37.6986 91.5055 37.6404 91.4723L33.859 89.2641C33.8051 89.2309 33.7054 89.235 33.6432 89.2724L31.601 90.4761C31.5346 90.5135 31.5304 90.5716 31.5844 90.6048Z" fill="#B0B0E2"/>
<path d="M28.7327 88.9316L30.804 90.1478C30.858 90.181 30.9576 90.1768 31.0199 90.1395L33.0621 88.9357C33.1243 88.8984 33.1326 88.8403 33.0745 88.8112L30.9949 87.595C30.941 87.5618 30.8414 87.566 30.7791 87.6033L28.7452 88.8071C28.6871 88.8444 28.6788 88.9025 28.7327 88.9316Z" fill="#B0B0E2"/>
<path d="M25.9227 87.2883L27.9857 88.4962C28.0396 88.5294 28.1351 88.5252 28.2015 88.4879L30.2354 87.2841C30.2977 87.2468 30.306 87.1887 30.2479 87.1596L28.1766 85.9517C28.1226 85.9185 28.0272 85.9227 27.9608 85.96L25.9351 87.1638C25.877 87.197 25.8687 87.2551 25.9227 87.2883Z" fill="#B0B0E2"/>
<path d="M51.8905 105.83L54.0697 107.112C54.1278 107.145 54.2274 107.145 54.2938 107.108L56.3858 105.925C56.4522 105.888 56.4564 105.83 56.3983 105.796L54.2108 104.514C54.1527 104.481 54.0531 104.481 53.9866 104.518L51.8988 105.701C51.8365 105.738 51.8324 105.796 51.8905 105.83Z" fill="#B0B0E2"/>
<path d="M48.9684 104.112L51.1102 105.373C51.1683 105.407 51.2679 105.407 51.3343 105.369L53.4181 104.186C53.4845 104.149 53.4886 104.091 53.4305 104.058L51.2804 102.796C51.2223 102.763 51.1226 102.767 51.0562 102.8L48.9808 103.983C48.9186 104.02 48.9103 104.078 48.9684 104.112Z" fill="#B0B0E2"/>
<path d="M46.0336 102.385L48.192 103.655C48.2501 103.688 48.3497 103.684 48.412 103.651L50.4874 102.468C50.5538 102.43 50.558 102.372 50.4998 102.339L48.3331 101.069C48.275 101.036 48.1754 101.04 48.1131 101.077L46.046 102.26C45.9837 102.293 45.9796 102.351 46.0336 102.385Z" fill="#B0B0E2"/>
<path d="M43.1405 100.679L45.2616 101.928C45.3197 101.961 45.4151 101.957 45.4816 101.92L47.5445 100.737C47.6109 100.699 47.6151 100.641 47.557 100.608L45.4276 99.3587C45.3695 99.3255 45.274 99.3296 45.2076 99.367L43.1529 100.55C43.0907 100.591 43.0865 100.645 43.1405 100.679Z" fill="#B0B0E2"/>
<path d="M40.2391 98.9687L42.3519 100.214C42.41 100.247 42.5055 100.243 42.5719 100.206L44.6266 99.0227C44.693 98.9853 44.6971 98.9272 44.639 98.894L42.5179 97.6487C42.4598 97.6155 42.3644 97.6197 42.2979 97.657L40.2516 98.84C40.1852 98.8815 40.181 98.9355 40.2391 98.9687Z" fill="#B0B0E2"/>
<path d="M37.346 97.2669L39.4754 98.5205C39.5335 98.5537 39.629 98.5495 39.6954 98.5122L41.7418 97.3292C41.804 97.2918 41.8123 97.2337 41.7542 97.2005L39.6165 95.947C39.5584 95.9137 39.463 95.9179 39.3965 95.9553L37.3585 97.1382C37.2962 97.1756 37.2879 97.2337 37.346 97.2669Z" fill="#B0B0E2"/>
<path d="M31.6301 93.9005L36.5862 96.8185C36.6444 96.8517 36.7398 96.8476 36.8021 96.8102L38.836 95.6272C38.8983 95.5899 38.9066 95.5317 38.8484 95.4985L33.8758 92.5805C33.8218 92.5473 33.7222 92.5514 33.6599 92.5888L31.6426 93.7718C31.5803 93.8133 31.5762 93.8673 31.6301 93.9005Z" fill="#B0B0E2"/>
<path d="M28.8075 92.2398L30.8787 93.4602C30.9327 93.4934 31.0323 93.4892 31.0946 93.4519L33.1119 92.2689C33.1741 92.2315 33.1824 92.1734 33.1243 92.1444L31.0448 90.924C30.9908 90.8908 30.8912 90.895 30.8289 90.9323L28.8199 92.1153C28.7577 92.1485 28.7493 92.2066 28.8075 92.2398Z" fill="#B0B0E2"/>
<path d="M50.7447 108.511L52.9198 109.798C52.9779 109.831 53.0775 109.831 53.1439 109.794L55.2359 108.619C55.3023 108.582 55.3065 108.524 55.2484 108.491L53.065 107.204C53.0069 107.171 52.9073 107.171 52.8409 107.208L50.7572 108.383C50.6949 108.42 50.6866 108.478 50.7447 108.511Z" fill="#B0B0E2"/>
<path d="M47.8309 106.789L49.9686 108.055C50.0267 108.088 50.1263 108.088 50.1886 108.051L52.2682 106.876C52.3346 106.839 52.3387 106.781 52.2806 106.747L50.1346 105.481C50.0765 105.448 49.9769 105.448 49.9146 105.486L47.8434 106.66C47.7811 106.698 47.7728 106.756 47.8309 106.789Z" fill="#B0B0E2"/>
<path d="M44.9047 105.054L47.034 106.311C47.0921 106.345 47.1918 106.345 47.254 106.307L49.3253 105.133C49.3917 105.095 49.3959 105.037 49.3377 105.004L47.2001 103.746C47.142 103.713 47.0423 103.717 46.9801 103.75L44.9171 104.925C44.8507 104.962 44.8465 105.02 44.9047 105.054Z" fill="#B0B0E2"/>
<path d="M42.0155 103.348L44.1324 104.601C44.1905 104.635 44.286 104.63 44.3524 104.597L46.4112 103.422C46.4776 103.385 46.4818 103.327 46.4237 103.294L44.2985 102.04C44.2403 102.007 44.1449 102.011 44.0785 102.044L42.0238 103.219C41.9657 103.256 41.9574 103.315 42.0155 103.348Z" fill="#B0B0E2"/>
<path d="M39.1141 101.629L41.2228 102.879C41.2809 102.912 41.3763 102.908 41.4427 102.875L43.4933 101.7C43.5597 101.663 43.5638 101.604 43.5057 101.571L41.3888 100.322C41.3307 100.289 41.2352 100.293 41.1688 100.33L39.1266 101.505C39.0643 101.542 39.0602 101.596 39.1141 101.629Z" fill="#B0B0E2"/>
<path d="M36.2296 99.923L38.3548 101.181C38.4129 101.214 38.5084 101.21 38.5706 101.172L40.6128 99.9978C40.6751 99.9604 40.6834 99.9023 40.6253 99.8691L38.4918 98.6114C38.4337 98.5782 38.3382 98.5823 38.2759 98.6197L36.242 99.7944C36.1798 99.8317 36.1756 99.8898 36.2296 99.923Z" fill="#B0B0E2"/>
<path d="M33.3819 98.2377L35.4698 99.4747C35.5279 99.5079 35.6234 99.5038 35.6856 99.4664L37.7154 98.2917C37.7777 98.2544 37.786 98.1962 37.7278 98.163L35.6317 96.9261C35.5777 96.8929 35.4781 96.897 35.4158 96.9344L33.3902 98.1091C33.3321 98.1506 33.328 98.2045 33.3819 98.2377Z" fill="#B0B0E2"/>
<path d="M28.8283 95.544L32.6304 97.7938C32.6844 97.827 32.784 97.8228 32.8463 97.7855L34.8677 96.6108C34.93 96.5734 34.9383 96.5153 34.8802 96.4821L31.0614 94.2324C31.0075 94.1992 30.9078 94.2033 30.8456 94.2407L28.8366 95.4153C28.7785 95.4527 28.7702 95.5108 28.8283 95.544Z" fill="#B0B0E2"/>
<path d="M26.014 93.88L28.077 95.1003C28.1309 95.1335 28.2264 95.1294 28.2928 95.092L30.3018 93.9173C30.3641 93.88 30.3724 93.8218 30.3143 93.7928L28.243 92.5724C28.189 92.5392 28.0936 92.5434 28.0272 92.5807L26.0265 93.7554C25.9642 93.7928 25.96 93.8467 26.014 93.88Z" fill="#B0B0E2"/>
<path d="M25.3667 87.5912L30.2896 90.4802C30.3311 90.5051 30.3352 90.5466 30.2896 90.5715L25.4206 93.4397C25.3791 93.4646 25.3086 93.4646 25.2671 93.4397L23.1709 92.1986C23.1294 92.1737 23.1294 92.1322 23.1709 92.1073L25.7942 90.5549C25.8357 90.53 25.8357 90.4885 25.7942 90.4636L23.1543 88.907C23.1128 88.8821 23.1128 88.8406 23.1543 88.8157L25.2172 87.5912C25.2546 87.5663 25.3252 87.5663 25.3667 87.5912Z" fill="#B0B0E2"/>
<path d="M47.528 109.922L51.2098 112.11C51.2679 112.143 51.3675 112.143 51.434 112.106L53.5177 110.935C53.5841 110.898 53.5882 110.84 53.5301 110.807L49.8359 108.619C49.7778 108.586 49.6781 108.586 49.6159 108.623L47.5446 109.794C47.4782 109.831 47.4741 109.889 47.528 109.922Z" fill="#B0B0E2"/>
<path d="M44.6014 108.184L46.7308 109.45C46.7889 109.483 46.8885 109.483 46.9508 109.445L49.0221 108.275C49.0885 108.238 49.0926 108.179 49.0345 108.146L46.8968 106.88C46.8387 106.847 46.7391 106.847 46.6768 106.884L44.6139 108.055C44.5516 108.092 44.5475 108.15 44.6014 108.184Z" fill="#B0B0E2"/>
<path d="M31.7215 100.529L43.8336 107.727C43.8917 107.76 43.9872 107.76 44.0536 107.723L46.1124 106.552C46.1788 106.515 46.183 106.457 46.1249 106.423L33.9671 99.2259C33.9131 99.1927 33.8135 99.1968 33.7512 99.2342L31.7339 100.405C31.6716 100.438 31.6675 100.496 31.7215 100.529Z" fill="#B0B0E2"/>
<path d="M28.8993 98.8481L30.9705 100.081C31.0245 100.114 31.1241 100.11 31.1864 100.073L33.2037 98.9021C33.2659 98.8647 33.2742 98.8066 33.2161 98.7775L31.1366 97.5447C31.0826 97.5115 30.983 97.5157 30.9207 97.553L28.9117 98.7236C28.8494 98.7609 28.8411 98.8149 28.8993 98.8481Z" fill="#B0B0E2"/>
<path d="M26.0599 97.1629L28.1478 98.404C28.2017 98.4372 28.2972 98.4331 28.3636 98.3957L30.3726 97.2252C30.4349 97.1878 30.4432 97.1339 30.3851 97.1006L28.2889 95.8596C28.2349 95.8263 28.1395 95.8305 28.0731 95.8679L26.0724 97.0384C26.0101 97.0716 26.0059 97.1297 26.0599 97.1629Z" fill="#B0B0E2"/>
<path d="M23.2621 95.4984L25.3167 96.7187C25.3707 96.7519 25.4661 96.7478 25.5284 96.7104L27.525 95.5399C27.5872 95.5025 27.5955 95.4486 27.5374 95.4153L25.4745 94.195C25.4205 94.1618 25.325 94.1659 25.2628 94.2033L23.2704 95.3738C23.2122 95.4112 23.2081 95.4652 23.2621 95.4984Z" fill="#B0B0E2"/>
<path d="M20.4522 93.8298L22.4945 95.046C22.5484 95.0792 22.6439 95.075 22.7061 95.0377L24.6944 93.8671C24.7567 93.8298 24.765 93.7758 24.7068 93.7426L22.6563 92.5264C22.6024 92.4932 22.5069 92.4974 22.4446 92.5347L20.4647 93.7053C20.4024 93.7385 20.3983 93.7966 20.4522 93.8298Z" fill="#B0B0E2"/>
<path d="M17.6792 92.1819L19.7131 93.3898C19.7671 93.423 19.8625 93.4188 19.9248 93.3815L24.6526 90.588C24.7149 90.5506 24.719 90.4966 24.6651 90.4634L22.6146 89.2555C22.5606 89.2223 22.4651 89.2265 22.4029 89.2639L17.6958 92.0574C17.6294 92.0906 17.6252 92.1487 17.6792 92.1819Z" fill="#B0B0E2"/>
<path d="M59.5029 106.971L62.9232 108.976C62.9813 109.01 63.0851 109.01 63.1515 108.972L65.3017 107.768C65.3681 107.731 65.3764 107.673 65.3141 107.64L61.8814 105.635C61.8233 105.602 61.7236 105.602 61.6572 105.639L59.5195 106.843C59.449 106.876 59.4448 106.934 59.5029 106.971Z" fill="#B0B0E2"/>
<path d="M54.9332 107.623L60.0014 110.607C60.0595 110.641 60.1591 110.641 60.2255 110.603L62.3383 109.42C62.4047 109.383 62.413 109.325 62.3507 109.292L57.2618 106.307C57.2037 106.274 57.1041 106.274 57.0377 106.311L54.9415 107.494C54.8792 107.532 54.8751 107.59 54.9332 107.623Z" fill="#B0B0E2"/>
<path d="M53.7043 110.263L57.0665 112.251C57.1246 112.284 57.2242 112.284 57.2906 112.247L59.3951 111.072C59.4615 111.035 59.4657 110.977 59.4076 110.944L56.0329 108.955C55.9748 108.922 55.8752 108.922 55.8088 108.959L53.7168 110.134C53.6504 110.172 53.6462 110.225 53.7043 110.263Z" fill="#B0B0E2"/>
<path d="M52.0152 112.587L54.1695 113.866C54.2276 113.899 54.3273 113.899 54.3937 113.862L56.4898 112.691C56.5562 112.654 56.5604 112.596 56.5023 112.563L54.3397 111.28C54.2816 111.247 54.182 111.247 54.1156 111.284L52.0277 112.455C51.9613 112.496 51.9571 112.554 52.0152 112.587Z" fill="#B0B0E2"/>
<path d="M15.907 105.049L31.3606 114.418L31.5432 114.53C31.5972 114.563 31.6968 114.563 31.7591 114.526L41.1607 109.18C41.223 109.142 41.2313 109.084 41.1732 109.051L25.2879 99.5704C25.234 99.5372 25.1385 99.5413 25.0762 99.5787L24.8936 99.6866L15.9195 104.929C15.8614 104.962 15.8531 105.016 15.907 105.049Z" fill="#C3C3EA"/>
<path d="M15.9069 105.05L31.3604 114.418L40.5753 109.18C40.6417 109.142 40.6459 109.084 40.5877 109.051L24.8934 99.6866L15.9193 104.929C15.8612 104.962 15.8529 105.016 15.9069 105.05Z" fill="#C3C3EA"/>
<path d="M1.05941 98.4622L1.85636 98.9478L42.8749 123.898C42.9704 123.957 43.1322 123.952 43.2402 123.894L74.994 106.245L75.8076 105.793C75.8699 105.759 75.8989 105.714 75.8989 105.672V106.826C75.8989 106.868 75.8699 106.913 75.8076 106.946L43.2443 125.048C43.1364 125.106 42.9745 125.111 42.879 125.052L1.06355 99.6202C1.02204 99.5953 1.00129 99.5621 1.00129 99.5289V98.375C0.997139 98.4041 1.0179 98.4373 1.05941 98.4622Z" fill="url(#paint12_linear_326_5865)"/>
<path d="M32.9424 79.8991L76.4099 104.995C76.5054 105.049 76.5801 104.991 76.5801 104.866V67.459C76.5801 67.3345 76.5012 67.1851 76.4099 67.1311L33.3741 42.2925C33.2786 42.2386 33.1458 42.2635 33.1458 42.388L32.7722 79.5712C32.7722 79.6998 32.8469 79.8451 32.9424 79.8991Z" fill="#B39DDB"/>
<path d="M32.3691 80.4767L75.8367 105.573C75.9321 105.627 76.0068 105.569 76.0068 105.444V68.0367C76.0068 67.9122 75.928 67.7627 75.8367 67.7088L32.3691 42.6128C32.2737 42.5589 32.1989 42.617 32.1989 42.7415V80.1488C32.1948 80.2733 32.2737 80.4228 32.3691 80.4767Z" fill="#DED7FF"/>
<path d="M74.1187 102.26V69.0366C74.1187 68.9619 74.073 68.8706 74.0149 68.8415L34.1876 45.8501C34.1295 45.8169 34.0839 45.8501 34.0839 45.9289V79.1522C34.0839 79.2269 34.1295 79.3182 34.1876 79.3473L74.0149 102.339C74.073 102.372 74.1187 102.335 74.1187 102.26Z" fill="url(#paint13_linear_326_5865)"/>
<path d="M32.2406 42.6126C32.2738 42.5835 32.3195 42.5794 32.3693 42.6126L32.7719 42.845L75.8368 67.7085C75.9323 67.7625 76.007 67.9119 76.007 68.0364V105.444C76.007 105.494 75.9946 105.535 75.9738 105.56L76.5383 104.995C76.5383 104.995 76.5383 104.995 76.5425 104.991C76.5674 104.966 76.584 104.925 76.584 104.867V67.4595C76.584 67.3308 76.5051 67.1855 76.4138 67.1315L33.3406 42.2722C33.2908 42.2431 33.1912 42.2722 33.187 42.2722L32.2406 42.6126Z" fill="url(#paint14_linear_326_5865)"/>
<path d="M52.3907 61.6827L63.4775 68.0833V67.4855L52.3907 61.085V61.6827Z" fill="url(#paint15_linear_326_5865)"/>
<path d="M43.583 56.5977L50.876 60.8067V60.2089L43.583 56V56.5977Z" fill="url(#paint16_linear_326_5865)"/>
<path d="M49.9999 62.5977L64.5195 70.9824V70.3805L49.9999 62V62.5977Z" fill="url(#paint17_linear_326_5865)"/>
<path d="M42.9997 60.5977L57.623 69.0405V68.4428L42.9997 60V60.5977Z" fill="url(#paint18_linear_326_5865)"/>
<path d="M48.514 66.1778L61.1201 73.4584V72.8565L48.514 65.5801V66.1778Z" fill="url(#paint19_linear_326_5865)"/>
<path d="M37.9997 60.1091L45.521 64.4508V63.8531L37.9997 59.5114V60.1091Z" fill="url(#paint20_linear_326_5865)"/>
<path d="M52.4409 70.69L61.9131 76.1608V75.5631L52.4409 70.0923V70.69Z" fill="url(#paint21_linear_326_5865)"/>
<path d="M45.7622 66.8338L50.876 69.785V69.1873L45.7622 66.2361V66.8338Z" fill="url(#paint22_linear_326_5865)"/>
<path d="M48.3187 70.5568L63.4775 79.3068V78.7091L48.3187 69.955V70.5568Z" fill="url(#paint23_linear_326_5865)"/>
<path d="M44.9998 70.6019L54.0112 75.8029V75.2051L44.9998 70V70.6019Z" fill="url(#paint24_linear_326_5865)"/>
<path d="M53.1046 77.8087L63.4775 83.7983V83.2006L53.1046 77.2109V77.8087Z" fill="url(#paint25_linear_326_5865)"/>
<path d="M43.7694 72.4204L52.1084 77.2312V76.6334L43.7694 71.8185V72.4204Z" fill="url(#paint26_linear_326_5865)"/>
<path d="M38.3154 69.27L42.7734 71.8435V71.2458L38.3154 68.6722V69.27Z" fill="url(#paint27_linear_326_5865)"/>
<path d="M48.8046 77.572L61.4937 84.8982V84.3005L48.8046 76.9701V77.572Z" fill="url(#paint28_linear_326_5865)"/>
<path d="M50.8756 81.0131L63.4775 88.2895V87.6918L50.8756 80.4113V81.0131Z" fill="url(#paint29_linear_326_5865)"/>
<path d="M41.7231 75.7287L49.4229 80.1742V79.5765L41.7231 75.1268V75.7287Z" fill="url(#paint30_linear_326_5865)"/>
<path d="M38.0001 75.5977L50.6021 82.8783V82.2764L38.0001 75V75.5977Z" fill="url(#paint31_linear_326_5865)"/>
<path d="M49.9296 84.9561L62.5356 92.2325V91.6348L49.9296 84.3584V84.9561Z" fill="url(#paint32_linear_326_5865)"/>
<path d="M39.2576 78.7966L48.5845 84.1802V83.5825L39.2576 78.1947V78.7966Z" fill="url(#paint33_linear_326_5865)"/>
<defs>
<linearGradient id="paint0_linear_326_5865" x1="142.226" y1="53.8359" x2="117.31" y2="124.398" gradientUnits="userSpaceOnUse">
<stop offset="0.216475" stop-color="#9B66CD"/>
<stop offset="1" stop-color="#46197B"/>
</linearGradient>
<linearGradient id="paint1_linear_326_5865" x1="164.093" y1="39.1245" x2="110.424" y2="191.387" gradientUnits="userSpaceOnUse">
<stop offset="0.216475" stop-color="#9B66CD"/>
<stop offset="1" stop-color="#46197B"/>
</linearGradient>
<linearGradient id="paint2_linear_326_5865" x1="142.226" y1="50.3784" x2="117.31" y2="120.941" gradientUnits="userSpaceOnUse">
<stop offset="0.216475" stop-color="#9B66CD"/>
<stop offset="1" stop-color="#46197B"/>
</linearGradient>
<linearGradient id="paint3_linear_326_5865" x1="122.013" y1="1.4856" x2="111.082" y2="38.2377" gradientUnits="userSpaceOnUse">
<stop stop-color="#955CCB"/>
<stop offset="1" stop-color="#280643"/>
</linearGradient>
<linearGradient id="paint4_linear_326_5865" x1="126.925" y1="14.1934" x2="77.291" y2="56.6939" gradientUnits="userSpaceOnUse">
<stop stop-color="#955CCB"/>
<stop offset="1" stop-color="#280643"/>
</linearGradient>
<linearGradient id="paint5_linear_326_5865" x1="126.925" y1="16.0578" x2="89.8439" y2="58.6599" gradientUnits="userSpaceOnUse">
<stop stop-color="#955CCB"/>
<stop offset="1" stop-color="#280643"/>
</linearGradient>
<linearGradient id="paint6_linear_326_5865" x1="87.9823" y1="20.8134" x2="87.4999" y2="41.131" gradientUnits="userSpaceOnUse">
<stop stop-color="#C3A9D9"/>
<stop offset="1" stop-color="#8C57BC"/>
</linearGradient>
<linearGradient id="paint7_linear_326_5865" x1="87.9823" y1="33.1535" x2="87.4997" y2="53.4755" gradientUnits="userSpaceOnUse">
<stop stop-color="#C3A9D9"/>
<stop offset="1" stop-color="#8C57BC"/>
</linearGradient>
<linearGradient id="paint8_linear_326_5865" x1="87.9823" y1="45.4944" x2="87.4997" y2="65.8163" gradientUnits="userSpaceOnUse">
<stop stop-color="#C3A9D9"/>
<stop offset="1" stop-color="#8C57BC"/>
</linearGradient>
<linearGradient id="paint9_linear_326_5865" x1="87.9823" y1="57.8386" x2="87.4997" y2="78.1606" gradientUnits="userSpaceOnUse">
<stop stop-color="#C3A9D9"/>
<stop offset="1" stop-color="#8C57BC"/>
</linearGradient>
<linearGradient id="paint10_linear_326_5865" x1="99.3688" y1="75.1709" x2="64.7574" y2="172.489" gradientUnits="userSpaceOnUse">
<stop offset="0.216475" stop-color="#9B66CD"/>
<stop offset="1" stop-color="#46197B"/>
</linearGradient>
<linearGradient id="paint11_linear_326_5865" x1="99.3688" y1="78.205" x2="64.7574" y2="175.523" gradientUnits="userSpaceOnUse">
<stop offset="0.216475" stop-color="#9B66CD"/>
<stop offset="1" stop-color="#46197B"/>
</linearGradient>
<linearGradient id="paint12_linear_326_5865" x1="84.5031" y1="94.948" x2="76.1413" y2="140.443" gradientUnits="userSpaceOnUse">
<stop stop-color="#955CCB"/>
<stop offset="1" stop-color="#280643"/>
</linearGradient>
<linearGradient id="paint13_linear_326_5865" x1="78.7178" y1="38.5889" x2="31.3982" y2="103.653" gradientUnits="userSpaceOnUse">
<stop stop-color="#955CCB"/>
<stop offset="1" stop-color="#280643"/>
</linearGradient>
<linearGradient id="paint14_linear_326_5865" x1="81.678" y1="34.1404" x2="28.4955" y2="106.452" gradientUnits="userSpaceOnUse">
<stop stop-color="#955CCB"/>
<stop offset="1" stop-color="#280643"/>
</linearGradient>
<linearGradient id="paint15_linear_326_5865" x1="60.0993" y1="60.7006" x2="59.9869" y2="68.0603" gradientUnits="userSpaceOnUse">
<stop stop-color="#C3A9D9"/>
<stop offset="1" stop-color="#8C57BC"/>
</linearGradient>
<linearGradient id="paint16_linear_326_5865" x1="48.6537" y1="55.736" x2="48.5732" y2="60.7908" gradientUnits="userSpaceOnUse">
<stop stop-color="#C3A9D9"/>
<stop offset="1" stop-color="#8C57BC"/>
</linearGradient>
<linearGradient id="paint17_linear_326_5865" x1="60.0953" y1="61.5066" x2="59.954" y2="70.953" gradientUnits="userSpaceOnUse">
<stop stop-color="#C3A9D9"/>
<stop offset="1" stop-color="#8C57BC"/>
</linearGradient>
<linearGradient id="paint18_linear_326_5865" x1="53.1672" y1="59.5034" x2="53.025" y2="69.0109" gradientUnits="userSpaceOnUse">
<stop stop-color="#C3A9D9"/>
<stop offset="1" stop-color="#8C57BC"/>
</linearGradient>
<linearGradient id="paint19_linear_326_5865" x1="57.2789" y1="65.1473" x2="57.1537" y2="73.4325" gradientUnits="userSpaceOnUse">
<stop stop-color="#C3A9D9"/>
<stop offset="1" stop-color="#8C57BC"/>
</linearGradient>
<linearGradient id="paint20_linear_326_5865" x1="43.2292" y1="59.24" x2="43.1467" y2="64.4345" gradientUnits="userSpaceOnUse">
<stop stop-color="#C3A9D9"/>
<stop offset="1" stop-color="#8C57BC"/>
</linearGradient>
<linearGradient id="paint21_linear_326_5865" x1="59.0268" y1="69.759" x2="58.9279" y2="76.1408" gradientUnits="userSpaceOnUse">
<stop stop-color="#C3A9D9"/>
<stop offset="1" stop-color="#8C57BC"/>
</linearGradient>
<linearGradient id="paint22_linear_326_5865" x1="49.3178" y1="66.0411" x2="49.2551" y2="69.7732" gradientUnits="userSpaceOnUse">
<stop stop-color="#C3A9D9"/>
<stop offset="1" stop-color="#8C57BC"/>
</linearGradient>
<linearGradient id="paint23_linear_326_5865" x1="58.8585" y1="69.4413" x2="58.7118" y2="79.2761" gradientUnits="userSpaceOnUse">
<stop stop-color="#C3A9D9"/>
<stop offset="1" stop-color="#8C57BC"/>
</linearGradient>
<linearGradient id="paint24_linear_326_5865" x1="51.2654" y1="69.6813" x2="51.1703" y2="75.7837" gradientUnits="userSpaceOnUse">
<stop stop-color="#C3A9D9"/>
<stop offset="1" stop-color="#8C57BC"/>
</linearGradient>
<linearGradient id="paint25_linear_326_5865" x1="60.3168" y1="76.8491" x2="60.2104" y2="83.7766" gradientUnits="userSpaceOnUse">
<stop stop-color="#C3A9D9"/>
<stop offset="1" stop-color="#8C57BC"/>
</linearGradient>
<linearGradient id="paint26_linear_326_5865" x1="49.5674" y1="71.5212" x2="49.4781" y2="77.2133" gradientUnits="userSpaceOnUse">
<stop stop-color="#C3A9D9"/>
<stop offset="1" stop-color="#8C57BC"/>
</linearGradient>
<linearGradient id="paint27_linear_326_5865" x1="41.415" y1="68.4981" x2="41.3577" y2="71.8328" gradientUnits="userSpaceOnUse">
<stop stop-color="#C3A9D9"/>
<stop offset="1" stop-color="#8C57BC"/>
</linearGradient>
<linearGradient id="paint28_linear_326_5865" x1="57.6272" y1="76.5346" x2="57.5012" y2="84.8722" gradientUnits="userSpaceOnUse">
<stop stop-color="#C3A9D9"/>
<stop offset="1" stop-color="#8C57BC"/>
</linearGradient>
<linearGradient id="paint29_linear_326_5865" x1="59.6376" y1="79.9785" x2="59.5124" y2="88.2637" gradientUnits="userSpaceOnUse">
<stop stop-color="#C3A9D9"/>
<stop offset="1" stop-color="#8C57BC"/>
</linearGradient>
<linearGradient id="paint30_linear_326_5865" x1="47.0767" y1="74.8496" x2="46.9925" y2="80.1576" gradientUnits="userSpaceOnUse">
<stop stop-color="#C3A9D9"/>
<stop offset="1" stop-color="#8C57BC"/>
</linearGradient>
<linearGradient id="paint31_linear_326_5865" x1="46.7621" y1="74.5673" x2="46.6369" y2="82.8524" gradientUnits="userSpaceOnUse">
<stop stop-color="#C3A9D9"/>
<stop offset="1" stop-color="#8C57BC"/>
</linearGradient>
<linearGradient id="paint32_linear_326_5865" x1="58.6945" y1="83.9259" x2="58.5694" y2="92.2067" gradientUnits="userSpaceOnUse">
<stop stop-color="#C3A9D9"/>
<stop offset="1" stop-color="#8C57BC"/>
</linearGradient>
<linearGradient id="paint33_linear_326_5865" x1="45.7425" y1="77.8659" x2="45.6448" y2="84.1605" gradientUnits="userSpaceOnUse">
<stop stop-color="#C3A9D9"/>
<stop offset="1" stop-color="#8C57BC"/>
</linearGradient>
</defs>
</svg>
